M48
; DRILL file {KiCad 9.0.2} date 2025-06-20T15:17:43-0400
; FORMAT={-:-/ absolute / metric / decimal}
; #@! TF.CreationDate,2025-06-20T15:17:43-04:00
; #@! TF.GenerationSoftware,Kicad,Pcbnew,9.0.2
; #@! TF.FileFunction,Plated,1,2,PTH
FMAT,2
METRIC
; #@! TA.AperFunction,Plated,PTH,ViaDrill
T1C0.300
; #@! TA.AperFunction,Plated,PTH,ComponentDrill
T2C0.600
; #@! TA.AperFunction,Plated,PTH,ComponentDrill
T3C0.650
; #@! TA.AperFunction,Plated,PTH,ComponentDrill
T4C0.700
; #@! TA.AperFunction,Plated,PTH,ComponentDrill
T5C0.800
; #@! TA.AperFunction,Plated,PTH,ComponentDrill
T6C0.900
; #@! TA.AperFunction,Plated,PTH,ComponentDrill
T7C1.100
; #@! TA.AperFunction,Plated,PTH,ComponentDrill
T8C1.300
%
G90
G05
T1
X67.5Y-75.0
X71.0Y-81.0
X71.0Y-84.0
X71.5Y-91.5
X71.5Y-93.5
X73.0Y-76.0
X73.5Y-79.0
X77.0Y-91.0
X78.0Y-77.5
X78.5Y-92.5
X79.5Y-85.0
X80.0Y-67.0
X81.0Y-93.0
X81.5Y-77.719
X86.0Y-83.0
X88.0Y-84.0
X114.0Y-81.5
X128.5Y-81.0
X137.5Y-80.987
T2
X55.5Y-88.0
X55.5Y-90.0
X87.5Y-55.473
X87.5Y-57.473
X127.0Y-99.0
X129.0Y-99.0
T3
X56.388Y-75.565
X56.388Y-77.465
T4
X63.92Y-64.0
X64.0Y-73.5
X64.0Y-78.58
X64.0Y-89.0
X69.0Y-64.0
X69.08Y-89.0
X70.104Y-73.5
X70.104Y-78.58
X75.42Y-64.0
X80.5Y-64.0
X89.5Y-71.5
X89.5Y-76.58
X89.5Y-80.92
X89.5Y-86.0
X91.92Y-92.5
X95.0Y-60.92
X95.0Y-66.0
X97.0Y-92.5
X104.0Y-60.92
X104.0Y-66.0
X112.435Y-53.73
X113.0Y-60.92
X113.0Y-66.0
X114.975Y-53.73
X117.0Y-81.5
X117.0Y-87.0
X117.515Y-53.73
X119.253Y-95.25
X119.253Y-100.33
X122.0Y-60.92
X122.0Y-66.0
X122.08Y-81.5
X122.08Y-87.0
X136.0Y-95.0
X136.0Y-100.08
T5
X75.697Y-72.0
X75.697Y-74.54
X75.697Y-77.08
X75.697Y-79.62
X75.697Y-82.16
X75.697Y-84.7
X75.697Y-87.24
X83.317Y-72.0
X83.317Y-74.54
X83.317Y-77.08
X83.317Y-79.62
X83.317Y-82.16
X83.317Y-84.7
X83.317Y-87.24
X132.0Y-71.247
X132.0Y-73.787
X132.0Y-76.327
X132.0Y-78.867
X132.0Y-81.407
X132.0Y-83.947
X132.0Y-86.487
X132.0Y-89.027
X139.62Y-71.247
X139.62Y-73.787
X139.62Y-76.327
X139.62Y-78.867
X139.62Y-81.407
X139.62Y-83.947
X139.62Y-86.487
X139.62Y-89.027
T6
X95.96Y-73.5
X98.5Y-73.5
X99.96Y-83.5
X102.5Y-83.5
X104.96Y-73.5
X107.5Y-73.5
X109.0Y-83.5
X111.54Y-83.5
X113.96Y-73.5
X116.5Y-73.5
X123.0Y-73.5
X125.54Y-73.5
T7
X89.662Y-100.5
X99.822Y-100.5
X108.5Y-90.5
X108.5Y-100.66
X129.34Y-65.0
X139.5Y-65.0
T8
X63.025Y-101.5
X64.0Y-52.75
X68.025Y-101.5
X69.0Y-52.75
X73.025Y-101.5
X74.0Y-52.75
X126.953Y-55.032
X131.953Y-55.032
M30
