%TF.GenerationSoftware,KiCad,Pcbnew,9.0.2*%
%TF.CreationDate,2025-06-20T15:17:41-04:00*%
%TF.ProjectId,proyecto_spectra,70726f79-6563-4746-9f5f-737065637472,rev?*%
%TF.SameCoordinates,Original*%
%TF.FileFunction,Copper,L2,Bot*%
%TF.FilePolarity,Positive*%
%FSLAX46Y46*%
G04 Gerber Fmt 4.6, Leading zero omitted, Abs format (unit mm)*
G04 Created by KiCad (PCBNEW 9.0.2) date 2025-06-20 15:17:41*
%MOMM*%
%LPD*%
G01*
G04 APERTURE LIST*
G04 Aperture macros list*
%AMRoundRect*
0 Rectangle with rounded corners*
0 $1 Rounding radius*
0 $2 $3 $4 $5 $6 $7 $8 $9 X,Y pos of 4 corners*
0 Add a 4 corners polygon primitive as box body*
4,1,4,$2,$3,$4,$5,$6,$7,$8,$9,$2,$3,0*
0 Add four circle primitives for the rounded corners*
1,1,$1+$1,$2,$3*
1,1,$1+$1,$4,$5*
1,1,$1+$1,$6,$7*
1,1,$1+$1,$8,$9*
0 Add four rect primitives between the rounded corners*
20,1,$1+$1,$2,$3,$4,$5,0*
20,1,$1+$1,$4,$5,$6,$7,0*
20,1,$1+$1,$6,$7,$8,$9,0*
20,1,$1+$1,$8,$9,$2,$3,0*%
G04 Aperture macros list end*
%TA.AperFunction,ComponentPad*%
%ADD10C,1.400000*%
%TD*%
%TA.AperFunction,ComponentPad*%
%ADD11O,1.400000X1.400000*%
%TD*%
%TA.AperFunction,ComponentPad*%
%ADD12R,1.800000X1.800000*%
%TD*%
%TA.AperFunction,ComponentPad*%
%ADD13C,1.800000*%
%TD*%
%TA.AperFunction,ComponentPad*%
%ADD14R,1.200000X1.200000*%
%TD*%
%TA.AperFunction,ComponentPad*%
%ADD15C,1.200000*%
%TD*%
%TA.AperFunction,ComponentPad*%
%ADD16RoundRect,0.250000X-0.550000X-0.550000X0.550000X-0.550000X0.550000X0.550000X-0.550000X0.550000X0*%
%TD*%
%TA.AperFunction,ComponentPad*%
%ADD17C,1.600000*%
%TD*%
%TA.AperFunction,ComponentPad*%
%ADD18R,1.500000X1.500000*%
%TD*%
%TA.AperFunction,ComponentPad*%
%ADD19R,2.200000X2.200000*%
%TD*%
%TA.AperFunction,ComponentPad*%
%ADD20O,2.200000X2.200000*%
%TD*%
%TA.AperFunction,ComponentPad*%
%ADD21C,2.340000*%
%TD*%
%TA.AperFunction,ComponentPad*%
%ADD22RoundRect,0.250000X-0.250000X0.250000X-0.250000X-0.250000X0.250000X-0.250000X0.250000X0.250000X0*%
%TD*%
%TA.AperFunction,ComponentPad*%
%ADD23C,1.000000*%
%TD*%
%TA.AperFunction,ComponentPad*%
%ADD24RoundRect,0.250001X1.149999X1.149999X-1.149999X1.149999X-1.149999X-1.149999X1.149999X-1.149999X0*%
%TD*%
%TA.AperFunction,ComponentPad*%
%ADD25C,2.800000*%
%TD*%
%TA.AperFunction,ViaPad*%
%ADD26C,0.600000*%
%TD*%
%TA.AperFunction,Conductor*%
%ADD27C,0.400000*%
%TD*%
G04 APERTURE END LIST*
D10*
%TO.P,R8,1*%
%TO.N,GND*%
X136000000Y-95000000D03*
D11*
%TO.P,R8,2*%
%TO.N,Net-(U1C-+)*%
X136000000Y-100080000D03*
%TD*%
D12*
%TO.P,D3,1,K*%
%TO.N,GND*%
X99960000Y-83500000D03*
D13*
%TO.P,D3,2,A*%
%TO.N,Net-(D3-A)*%
X102500000Y-83500000D03*
%TD*%
D14*
%TO.P,C2,1*%
%TO.N,Net-(C2-Pad1)*%
X87500000Y-57472600D03*
D15*
%TO.P,C2,2*%
%TO.N,Net-(C2-Pad2)*%
X87500000Y-55472600D03*
%TD*%
D10*
%TO.P,R15,1*%
%TO.N,GND*%
X113000000Y-60920000D03*
D11*
%TO.P,R15,2*%
%TO.N,Net-(D7-K)*%
X113000000Y-66000000D03*
%TD*%
D10*
%TO.P,R7,1*%
%TO.N,Net-(D2-K)*%
X119253000Y-100330000D03*
D11*
%TO.P,R7,2*%
%TO.N,Net-(U1C-+)*%
X119253000Y-95250000D03*
%TD*%
D10*
%TO.P,R12,1*%
%TO.N,Net-(U6-CKEN)*%
X122080000Y-87000000D03*
D11*
%TO.P,R12,2*%
%TO.N,GND*%
X117000000Y-87000000D03*
%TD*%
D10*
%TO.P,R5,1*%
%TO.N,Net-(C2-Pad2)*%
X75420000Y-64000000D03*
D11*
%TO.P,R5,2*%
%TO.N,Net-(D1-A)*%
X80500000Y-64000000D03*
%TD*%
D12*
%TO.P,D5,1,K*%
%TO.N,Net-(D5-K)*%
X95960000Y-73500000D03*
D13*
%TO.P,D5,2,A*%
%TO.N,Net-(D5-A)*%
X98500000Y-73500000D03*
%TD*%
D12*
%TO.P,D7,1,K*%
%TO.N,Net-(D7-K)*%
X113960000Y-73500000D03*
D13*
%TO.P,D7,2,A*%
%TO.N,Net-(D7-A)*%
X116500000Y-73500000D03*
%TD*%
D10*
%TO.P,R14,1*%
%TO.N,GND*%
X104000000Y-60920000D03*
D11*
%TO.P,R14,2*%
%TO.N,Net-(D6-K)*%
X104000000Y-66000000D03*
%TD*%
D16*
%TO.P,U1,1*%
%TO.N,Net-(C2-Pad1)*%
X75697000Y-72000000D03*
D17*
%TO.P,U1,2,-*%
%TO.N,Net-(U1A--)*%
X75697000Y-74540000D03*
%TO.P,U1,3,+*%
%TO.N,Net-(U1A-+)*%
X75697000Y-77080000D03*
%TO.P,U1,4,V+*%
%TO.N,VCC*%
X75697000Y-79620000D03*
%TO.P,U1,5,+*%
%TO.N,GND*%
X75697000Y-82160000D03*
%TO.P,U1,6,-*%
%TO.N,Net-(D1-A)*%
X75697000Y-84700000D03*
%TO.P,U1,7*%
%TO.N,Net-(D1-K)*%
X75697000Y-87240000D03*
%TO.P,U1,8*%
%TO.N,Net-(U1D-+)*%
X83317000Y-87240000D03*
%TO.P,U1,9,-*%
%TO.N,Net-(U1C--)*%
X83317000Y-84700000D03*
%TO.P,U1,10,+*%
%TO.N,Net-(U1C-+)*%
X83317000Y-82160000D03*
%TO.P,U1,11,V-*%
%TO.N,GND*%
X83317000Y-79620000D03*
%TO.P,U1,12,+*%
%TO.N,Net-(U1D-+)*%
X83317000Y-77080000D03*
%TO.P,U1,13,-*%
%TO.N,Net-(U1D--)*%
X83317000Y-74540000D03*
%TO.P,U1,14*%
%TO.N,Net-(U6-CLK)*%
X83317000Y-72000000D03*
%TD*%
D18*
%TO.P,SW1,1,A*%
%TO.N,unconnected-(SW1-A-Pad1)*%
X112435000Y-53729966D03*
%TO.P,SW1,2,B*%
%TO.N,Net-(D9-K)*%
X114975000Y-53729966D03*
%TO.P,SW1,3,C*%
%TO.N,VCC*%
X117515000Y-53729966D03*
%TD*%
D10*
%TO.P,R13,1*%
%TO.N,GND*%
X95000000Y-60920000D03*
D11*
%TO.P,R13,2*%
%TO.N,Net-(D5-K)*%
X95000000Y-66000000D03*
%TD*%
D10*
%TO.P,R9,1*%
%TO.N,Net-(U1D-+)*%
X89500000Y-71500000D03*
D11*
%TO.P,R9,2*%
%TO.N,Net-(U1C--)*%
X89500000Y-76580000D03*
%TD*%
D10*
%TO.P,R11,1*%
%TO.N,Net-(U6-CLK)*%
X122080000Y-81500000D03*
D11*
%TO.P,R11,2*%
%TO.N,Net-(D4-A)*%
X117000000Y-81500000D03*
%TD*%
D19*
%TO.P,D9,1,K*%
%TO.N,Net-(D9-K)*%
X139500000Y-65000000D03*
D20*
%TO.P,D9,2,A*%
%TO.N,+9V*%
X129340000Y-65000000D03*
%TD*%
D10*
%TO.P,R16,1*%
%TO.N,GND*%
X122000000Y-60920000D03*
D11*
%TO.P,R16,2*%
%TO.N,Net-(D8-K)*%
X122000000Y-66000000D03*
%TD*%
D12*
%TO.P,D6,1,K*%
%TO.N,Net-(D6-K)*%
X104960000Y-73500000D03*
D13*
%TO.P,D6,2,A*%
%TO.N,Net-(D6-A)*%
X107500000Y-73500000D03*
%TD*%
D21*
%TO.P,RV2,1,1*%
%TO.N,VCC*%
X63025000Y-101500000D03*
%TO.P,RV2,2,2*%
%TO.N,Net-(U1D--)*%
X68025000Y-101500000D03*
%TO.P,RV2,3,3*%
%TO.N,GND*%
X73025000Y-101500000D03*
%TD*%
D22*
%TO.P,MK1,1,-*%
%TO.N,GND*%
X56388000Y-75565000D03*
D23*
%TO.P,MK1,2,+*%
%TO.N,Net-(MK1-+)*%
X56388000Y-77465000D03*
%TD*%
D10*
%TO.P,R3,1*%
%TO.N,VCC*%
X63920000Y-64000000D03*
D11*
%TO.P,R3,2*%
%TO.N,Net-(U1A-+)*%
X69000000Y-64000000D03*
%TD*%
D10*
%TO.P,R10,1*%
%TO.N,Net-(U1D-+)*%
X89500000Y-86000000D03*
D11*
%TO.P,R10,2*%
%TO.N,Net-(D3-A)*%
X89500000Y-80920000D03*
%TD*%
D10*
%TO.P,R6,1*%
%TO.N,Net-(D1-A)*%
X97000000Y-92500000D03*
D11*
%TO.P,R6,2*%
%TO.N,Net-(D1-K)*%
X91920000Y-92500000D03*
%TD*%
D19*
%TO.P,D1,1,K*%
%TO.N,Net-(D1-K)*%
X89662000Y-100500000D03*
D20*
%TO.P,D1,2,A*%
%TO.N,Net-(D1-A)*%
X99822000Y-100500000D03*
%TD*%
D12*
%TO.P,D8,1,K*%
%TO.N,Net-(D8-K)*%
X123000000Y-73500000D03*
D13*
%TO.P,D8,2,A*%
%TO.N,Net-(D8-A)*%
X125540000Y-73500000D03*
%TD*%
D24*
%TO.P,J1,1,Pin_1*%
%TO.N,GND*%
X131953000Y-55032500D03*
D25*
%TO.P,J1,2,Pin_2*%
%TO.N,+9V*%
X126953000Y-55032500D03*
%TD*%
D14*
%TO.P,C3,1*%
%TO.N,Net-(U1C-+)*%
X127000000Y-99000000D03*
D15*
%TO.P,C3,2*%
%TO.N,GND*%
X129000000Y-99000000D03*
%TD*%
D10*
%TO.P,R2,1*%
%TO.N,Net-(C1-Pad2)*%
X64000000Y-89000000D03*
D11*
%TO.P,R2,2*%
%TO.N,Net-(U1A--)*%
X69080000Y-89000000D03*
%TD*%
D10*
%TO.P,R4,1*%
%TO.N,Net-(U1A-+)*%
X70104000Y-78580000D03*
D11*
%TO.P,R4,2*%
%TO.N,GND*%
X70104000Y-73500000D03*
%TD*%
D10*
%TO.P,R1,1*%
%TO.N,VCC*%
X64000000Y-73500000D03*
D11*
%TO.P,R1,2*%
%TO.N,Net-(MK1-+)*%
X64000000Y-78580000D03*
%TD*%
D12*
%TO.P,D4,1,K*%
%TO.N,GND*%
X109000000Y-83500000D03*
D13*
%TO.P,D4,2,A*%
%TO.N,Net-(D4-A)*%
X111540000Y-83500000D03*
%TD*%
D14*
%TO.P,C1,1*%
%TO.N,Net-(MK1-+)*%
X55500000Y-88000000D03*
D15*
%TO.P,C1,2*%
%TO.N,Net-(C1-Pad2)*%
X55500000Y-90000000D03*
%TD*%
D21*
%TO.P,RV1,1,1*%
%TO.N,unconnected-(RV1-Pad1)*%
X74000000Y-52750000D03*
%TO.P,RV1,2,2*%
%TO.N,Net-(C2-Pad1)*%
X69000000Y-52750000D03*
%TO.P,RV1,3,3*%
%TO.N,Net-(U1A--)*%
X64000000Y-52750000D03*
%TD*%
D16*
%TO.P,U6,1,Q5*%
%TO.N,unconnected-(U6-Q5-Pad1)*%
X132000000Y-71247000D03*
D17*
%TO.P,U6,2,Q1*%
%TO.N,Net-(D7-A)*%
X132000000Y-73787000D03*
%TO.P,U6,3,Q0*%
%TO.N,Net-(D8-A)*%
X132000000Y-76327000D03*
%TO.P,U6,4,Q2*%
%TO.N,Net-(D6-A)*%
X132000000Y-78867000D03*
%TO.P,U6,5,Q6*%
%TO.N,unconnected-(U6-Q6-Pad5)*%
X132000000Y-81407000D03*
%TO.P,U6,6,Q7*%
%TO.N,unconnected-(U6-Q7-Pad6)*%
X132000000Y-83947000D03*
%TO.P,U6,7,Q3*%
%TO.N,Net-(D5-A)*%
X132000000Y-86487000D03*
%TO.P,U6,8,VSS*%
%TO.N,GND*%
X132000000Y-89027000D03*
%TO.P,U6,9,Q8*%
%TO.N,unconnected-(U6-Q8-Pad9)*%
X139620000Y-89027000D03*
%TO.P,U6,10,Q4*%
%TO.N,Net-(U6-Q4)*%
X139620000Y-86487000D03*
%TO.P,U6,11,Q9*%
%TO.N,unconnected-(U6-Q9-Pad11)*%
X139620000Y-83947000D03*
%TO.P,U6,12,Cout*%
%TO.N,unconnected-(U6-Cout-Pad12)*%
X139620000Y-81407000D03*
%TO.P,U6,13,CKEN*%
%TO.N,Net-(U6-CKEN)*%
X139620000Y-78867000D03*
%TO.P,U6,14,CLK*%
%TO.N,Net-(U6-CLK)*%
X139620000Y-76327000D03*
%TO.P,U6,15,Reset*%
%TO.N,Net-(U6-Q4)*%
X139620000Y-73787000D03*
%TO.P,U6,16,VDD*%
%TO.N,VCC*%
X139620000Y-71247000D03*
%TD*%
D19*
%TO.P,D2,1,K*%
%TO.N,Net-(D2-K)*%
X108500000Y-100660000D03*
D20*
%TO.P,D2,2,A*%
%TO.N,Net-(D1-K)*%
X108500000Y-90500000D03*
%TD*%
D26*
%TO.N,GND*%
X71500000Y-91500000D03*
X71500000Y-93500000D03*
%TO.N,Net-(U1C-+)*%
X86000000Y-83000000D03*
X88000000Y-84000000D03*
%TO.N,Net-(D1-K)*%
X77000000Y-91000000D03*
X78500000Y-92500000D03*
%TO.N,Net-(D1-A)*%
X80000000Y-67000000D03*
%TO.N,VCC*%
X78000000Y-77500000D03*
X73500000Y-79000000D03*
X71000000Y-81000000D03*
X67500000Y-75000000D03*
%TO.N,Net-(U1A--)*%
X71000000Y-84000000D03*
X73000000Y-76000000D03*
%TO.N,Net-(U6-CLK)*%
X114000000Y-81500000D03*
X128500000Y-81000000D03*
%TO.N,Net-(U6-CKEN)*%
X137500000Y-80987000D03*
%TO.N,Net-(U1D--)*%
X79500000Y-85000000D03*
X81000000Y-93000000D03*
X81500000Y-77719000D03*
%TD*%
D27*
%TO.N,Net-(MK1-+)*%
X55500000Y-83000000D02*
X55500000Y-88000000D01*
X56388000Y-82112000D02*
X55500000Y-83000000D01*
X60580000Y-78580000D02*
X64000000Y-78580000D01*
X56388000Y-77465000D02*
X59465000Y-77465000D01*
X56388000Y-77465000D02*
X56388000Y-82112000D01*
X59465000Y-77465000D02*
X60580000Y-78580000D01*
%TO.N,Net-(C1-Pad2)*%
X60500000Y-89000000D02*
X59500000Y-90000000D01*
X59500000Y-90000000D02*
X55500000Y-90000000D01*
X64000000Y-89000000D02*
X60500000Y-89000000D01*
%TO.N,Net-(C2-Pad2)*%
X75420000Y-62080000D02*
X82027400Y-55472600D01*
X75420000Y-64000000D02*
X75420000Y-62080000D01*
X82027400Y-55472600D02*
X87500000Y-55472600D01*
%TO.N,Net-(C2-Pad1)*%
X69000000Y-58000000D02*
X69000000Y-52750000D01*
X87500000Y-66000000D02*
X87500000Y-57472600D01*
X74000000Y-68106000D02*
X75697000Y-69803000D01*
X85500000Y-68000000D02*
X87500000Y-66000000D01*
X75697000Y-72000000D02*
X75697000Y-69803000D01*
X69000000Y-58000000D02*
X74000000Y-63000000D01*
X77500000Y-68000000D02*
X85500000Y-68000000D01*
X74000000Y-63000000D02*
X74000000Y-68106000D01*
X75697000Y-69803000D02*
X77500000Y-68000000D01*
%TO.N,GND*%
X67396000Y-76000000D02*
X67500000Y-76104000D01*
X109000000Y-87000000D02*
X109000000Y-83500000D01*
X132000000Y-89027000D02*
X125973000Y-89027000D01*
X67500000Y-80500000D02*
X67500000Y-76104000D01*
X125973000Y-89027000D02*
X124000000Y-91000000D01*
X133000000Y-95000000D02*
X132000000Y-94000000D01*
X62500000Y-76000000D02*
X67396000Y-76000000D01*
X132500000Y-95500000D02*
X132500000Y-98500000D01*
X117500000Y-91000000D02*
X117000000Y-90500000D01*
X73025000Y-95025000D02*
X73025000Y-101500000D01*
X71500000Y-86357000D02*
X75697000Y-82160000D01*
X74000000Y-82160000D02*
X69160000Y-82160000D01*
X73025000Y-95025000D02*
X71500000Y-93500000D01*
X71500000Y-91500000D02*
X71500000Y-86357000D01*
X74000000Y-79500000D02*
X74000000Y-82160000D01*
X56388000Y-75565000D02*
X62065000Y-75565000D01*
X82116000Y-78419000D02*
X75081000Y-78419000D01*
X117000000Y-87000000D02*
X115000000Y-87000000D01*
X136000000Y-95000000D02*
X133000000Y-95000000D01*
X110000000Y-88000000D02*
X109000000Y-87000000D01*
X75697000Y-82160000D02*
X74000000Y-82160000D01*
X75081000Y-78419000D02*
X74000000Y-79500000D01*
X69160000Y-82160000D02*
X67500000Y-80500000D01*
X132000000Y-94000000D02*
X132000000Y-89027000D01*
X117000000Y-90500000D02*
X117000000Y-87000000D01*
X124000000Y-91000000D02*
X117500000Y-91000000D01*
X115000000Y-87000000D02*
X114000000Y-88000000D01*
X67500000Y-76104000D02*
X70104000Y-73500000D01*
X83317000Y-79620000D02*
X82116000Y-78419000D01*
X62065000Y-75565000D02*
X62500000Y-76000000D01*
X114000000Y-88000000D02*
X110000000Y-88000000D01*
X133000000Y-95000000D02*
X132500000Y-95500000D01*
X132500000Y-98500000D02*
X132000000Y-99000000D01*
X132000000Y-99000000D02*
X129000000Y-99000000D01*
%TO.N,Net-(U1C-+)*%
X109500000Y-88500000D02*
X113500000Y-92500000D01*
X133580000Y-102500000D02*
X127500000Y-102500000D01*
X127500000Y-102500000D02*
X127000000Y-102000000D01*
X98500000Y-88500000D02*
X109500000Y-88500000D01*
X113500000Y-92500000D02*
X116503000Y-92500000D01*
X119253000Y-95250000D02*
X120750000Y-95250000D01*
X88000000Y-84000000D02*
X91500000Y-84000000D01*
X91500000Y-84000000D02*
X93000000Y-85500000D01*
X83317000Y-82160000D02*
X85160000Y-82160000D01*
X124500000Y-99000000D02*
X127000000Y-99000000D01*
X116503000Y-92500000D02*
X119253000Y-95250000D01*
X136000000Y-100080000D02*
X133580000Y-102500000D01*
X95500000Y-85500000D02*
X98500000Y-88500000D01*
X85160000Y-82160000D02*
X86000000Y-83000000D01*
X93000000Y-85500000D02*
X95500000Y-85500000D01*
X127000000Y-102000000D02*
X127000000Y-99000000D01*
X120750000Y-95250000D02*
X124500000Y-99000000D01*
%TO.N,Net-(D1-K)*%
X78500000Y-92500000D02*
X80920000Y-94920000D01*
X89500000Y-94920000D02*
X89500000Y-95000000D01*
X96500000Y-88500000D02*
X93500000Y-88500000D01*
X80920000Y-94920000D02*
X89500000Y-94920000D01*
X91920000Y-90080000D02*
X91920000Y-92500000D01*
X91920000Y-92500000D02*
X89500000Y-94920000D01*
X93500000Y-88500000D02*
X91920000Y-90080000D01*
X89500000Y-95000000D02*
X89662000Y-95162000D01*
X98500000Y-90500000D02*
X96500000Y-88500000D01*
X108500000Y-90500000D02*
X98500000Y-90500000D01*
X75697000Y-87240000D02*
X75697000Y-89697000D01*
X75697000Y-89697000D02*
X77000000Y-91000000D01*
X89662000Y-95162000D02*
X89662000Y-100500000D01*
%TO.N,Net-(D1-A)*%
X80500000Y-64000000D02*
X80500000Y-66500000D01*
X97000000Y-92500000D02*
X99822000Y-95322000D01*
X80500000Y-66500000D02*
X80000000Y-67000000D01*
X99822000Y-95322000D02*
X99822000Y-100500000D01*
%TO.N,Net-(D2-K)*%
X109840000Y-102000000D02*
X117583000Y-102000000D01*
X108500000Y-100660000D02*
X109840000Y-102000000D01*
X117583000Y-102000000D02*
X119253000Y-100330000D01*
%TO.N,Net-(D3-A)*%
X101000000Y-82000000D02*
X102500000Y-83500000D01*
X95500000Y-82000000D02*
X101000000Y-82000000D01*
X89500000Y-80920000D02*
X94420000Y-80920000D01*
X94420000Y-80920000D02*
X95500000Y-82000000D01*
%TO.N,Net-(D4-A)*%
X117000000Y-81500000D02*
X116000000Y-81500000D01*
X114000000Y-83500000D02*
X111540000Y-83500000D01*
X116000000Y-81500000D02*
X114000000Y-83500000D01*
%TO.N,Net-(D5-K)*%
X95960000Y-69040000D02*
X95960000Y-73500000D01*
X95000000Y-68000000D02*
X96000000Y-69000000D01*
X96000000Y-69000000D02*
X95960000Y-69040000D01*
X95000000Y-66000000D02*
X95000000Y-68000000D01*
%TO.N,Net-(D5-A)*%
X125513000Y-80000000D02*
X105000000Y-80000000D01*
X132000000Y-86487000D02*
X125513000Y-80000000D01*
X105000000Y-80000000D02*
X98500000Y-73500000D01*
%TO.N,Net-(D6-A)*%
X112867000Y-78867000D02*
X107500000Y-73500000D01*
X132000000Y-78867000D02*
X112867000Y-78867000D01*
%TO.N,Net-(D6-K)*%
X104000000Y-68000000D02*
X105000000Y-69000000D01*
X104960000Y-69040000D02*
X104960000Y-73500000D01*
X104000000Y-66000000D02*
X104000000Y-68000000D01*
X105000000Y-69000000D02*
X104960000Y-69040000D01*
%TO.N,Net-(D7-A)*%
X132000000Y-73787000D02*
X129287000Y-76500000D01*
X119500000Y-76500000D02*
X116500000Y-73500000D01*
X129287000Y-76500000D02*
X119500000Y-76500000D01*
%TO.N,Net-(D7-K)*%
X113000000Y-66000000D02*
X113000000Y-68000000D01*
X113000000Y-68000000D02*
X113960000Y-68960000D01*
X113960000Y-68960000D02*
X113960000Y-73500000D01*
%TO.N,Net-(D8-A)*%
X133201000Y-75126000D02*
X133201000Y-73289529D01*
X132497471Y-72586000D02*
X126454000Y-72586000D01*
X133201000Y-73289529D02*
X132497471Y-72586000D01*
X126454000Y-72586000D02*
X125540000Y-73500000D01*
X132000000Y-76327000D02*
X133201000Y-75126000D01*
%TO.N,Net-(D8-K)*%
X123000000Y-69000000D02*
X123000000Y-73500000D01*
X122000000Y-66000000D02*
X122000000Y-68000000D01*
X122000000Y-68000000D02*
X123000000Y-69000000D01*
%TO.N,VCC*%
X78000000Y-91500000D02*
X78000000Y-81923000D01*
X139620000Y-71247000D02*
X136373000Y-68000000D01*
X62000000Y-65920000D02*
X62000000Y-71500000D01*
X125000000Y-66500000D02*
X125000000Y-61000000D01*
X62000000Y-71500000D02*
X64000000Y-73500000D01*
X93000000Y-59000000D02*
X90500000Y-61500000D01*
X78000000Y-73500000D02*
X78000000Y-77500000D01*
X120015000Y-56000000D02*
X120015000Y-55015000D01*
X63920000Y-64000000D02*
X62000000Y-65920000D01*
X120015000Y-55015000D02*
X118729966Y-53729966D01*
X125000000Y-61000000D02*
X120015000Y-56015000D01*
X77000000Y-92500000D02*
X78000000Y-91500000D01*
X82500000Y-69000000D02*
X78000000Y-73500000D01*
X118729966Y-53729966D02*
X117515000Y-53729966D01*
X78000000Y-81923000D02*
X75697000Y-79620000D01*
X126500000Y-68000000D02*
X125000000Y-66500000D01*
X117015000Y-59000000D02*
X93000000Y-59000000D01*
X86500000Y-69000000D02*
X82500000Y-69000000D01*
X66000000Y-73500000D02*
X67500000Y-75000000D01*
X71000000Y-81000000D02*
X73000000Y-79000000D01*
X90500000Y-65000000D02*
X86500000Y-69000000D01*
X65000000Y-92500000D02*
X77000000Y-92500000D01*
X90500000Y-61500000D02*
X90500000Y-65000000D01*
X64000000Y-73500000D02*
X66000000Y-73500000D01*
X136373000Y-68000000D02*
X126500000Y-68000000D01*
X63025000Y-94475000D02*
X63025000Y-101500000D01*
X63025000Y-94475000D02*
X65000000Y-92500000D01*
X73000000Y-79000000D02*
X73500000Y-79000000D01*
X120015000Y-56000000D02*
X117015000Y-59000000D01*
X120015000Y-56015000D02*
X120015000Y-56000000D01*
%TO.N,Net-(U1A--)*%
X64000000Y-58500000D02*
X64000000Y-52750000D01*
X65000000Y-59500000D02*
X64000000Y-58500000D01*
X74540000Y-74540000D02*
X73000000Y-73000000D01*
X73000000Y-73000000D02*
X73000000Y-63500000D01*
X75697000Y-74540000D02*
X74540000Y-74540000D01*
X73000000Y-76000000D02*
X74237000Y-76000000D01*
X73000000Y-63500000D02*
X69000000Y-59500000D01*
X74237000Y-76000000D02*
X75697000Y-74540000D01*
X69080000Y-89000000D02*
X69080000Y-85920000D01*
X69000000Y-59500000D02*
X65000000Y-59500000D01*
X69080000Y-85920000D02*
X71000000Y-84000000D01*
%TO.N,Net-(U1A-+)*%
X70104000Y-76896000D02*
X70104000Y-78580000D01*
X73420000Y-77080000D02*
X71920000Y-78580000D01*
X72000000Y-75000000D02*
X70104000Y-76896000D01*
X71000000Y-71500000D02*
X72000000Y-72500000D01*
X67000000Y-66000000D02*
X67000000Y-70500000D01*
X71920000Y-78580000D02*
X70104000Y-78580000D01*
X75697000Y-77080000D02*
X73420000Y-77080000D01*
X69000000Y-64000000D02*
X67000000Y-66000000D01*
X67000000Y-70500000D02*
X68000000Y-71500000D01*
X68000000Y-71500000D02*
X71000000Y-71500000D01*
X72000000Y-72500000D02*
X72000000Y-75000000D01*
%TO.N,Net-(U1D-+)*%
X84000000Y-88500000D02*
X88000000Y-88500000D01*
X89500000Y-87000000D02*
X89500000Y-86000000D01*
X86000000Y-74397000D02*
X86000000Y-73500000D01*
X83814471Y-80959000D02*
X82819529Y-80959000D01*
X86000000Y-73500000D02*
X88000000Y-71500000D01*
X85000000Y-78763000D02*
X85000000Y-79773471D01*
X82116000Y-86039000D02*
X83317000Y-87240000D01*
X82819529Y-80959000D02*
X82116000Y-81662529D01*
X88000000Y-88500000D02*
X89500000Y-87000000D01*
X83317000Y-77080000D02*
X85000000Y-78763000D01*
X88000000Y-71500000D02*
X89500000Y-71500000D01*
X83317000Y-87817000D02*
X84000000Y-88500000D01*
X85000000Y-79773471D02*
X83814471Y-80959000D01*
X83317000Y-77080000D02*
X86000000Y-74397000D01*
X83317000Y-87240000D02*
X83317000Y-87817000D01*
X82116000Y-81662529D02*
X82116000Y-86039000D01*
%TO.N,Net-(U1C--)*%
X87000000Y-78000000D02*
X88420000Y-76580000D01*
X87000000Y-83500000D02*
X87000000Y-78000000D01*
X85800000Y-84700000D02*
X87000000Y-83500000D01*
X88420000Y-76580000D02*
X89500000Y-76580000D01*
X83317000Y-84700000D02*
X85800000Y-84700000D01*
%TO.N,Net-(U6-CLK)*%
X85500000Y-72000000D02*
X88000000Y-69500000D01*
X140821000Y-75126000D02*
X140821000Y-73289529D01*
X91000000Y-69500000D02*
X91500000Y-69500000D01*
X88000000Y-69500000D02*
X91000000Y-69500000D01*
X83317000Y-72000000D02*
X85500000Y-72000000D01*
X105000000Y-81500000D02*
X114000000Y-81500000D01*
X140821000Y-73289529D02*
X140117471Y-72586000D01*
X133201000Y-79364471D02*
X132359471Y-80206000D01*
X91500000Y-69500000D02*
X93000000Y-71000000D01*
X93000000Y-71000000D02*
X93000000Y-77000000D01*
X94000000Y-78000000D02*
X100500000Y-78000000D01*
X129294000Y-80206000D02*
X128500000Y-81000000D01*
X139620000Y-76327000D02*
X140821000Y-75126000D01*
X133201000Y-76449058D02*
X133201000Y-79364471D01*
X140117471Y-72586000D02*
X137064058Y-72586000D01*
X101500000Y-78000000D02*
X105000000Y-81500000D01*
X137064058Y-72586000D02*
X133201000Y-76449058D01*
X93000000Y-77000000D02*
X94000000Y-78000000D01*
X100500000Y-78000000D02*
X101500000Y-78000000D01*
X132359471Y-80206000D02*
X129294000Y-80206000D01*
%TO.N,Net-(U6-CKEN)*%
X137500000Y-81000000D02*
X137500000Y-80987000D01*
X139620000Y-78867000D02*
X137500000Y-80987000D01*
%TO.N,Net-(U1D--)*%
X79500000Y-90000000D02*
X81000000Y-91500000D01*
X81500000Y-76357000D02*
X81500000Y-77719000D01*
X79500000Y-85000000D02*
X79500000Y-90000000D01*
X83317000Y-74540000D02*
X81500000Y-76357000D01*
X81000000Y-91500000D02*
X81000000Y-93000000D01*
%TO.N,Net-(U6-Q4)*%
X136000000Y-74500000D02*
X136713000Y-73787000D01*
X136713000Y-73787000D02*
X139620000Y-73787000D01*
X137013000Y-86487000D02*
X137000000Y-86500000D01*
X137000000Y-86500000D02*
X136000000Y-85500000D01*
X136000000Y-85500000D02*
X136000000Y-74500000D01*
X139620000Y-86487000D02*
X137013000Y-86487000D01*
%TO.N,Net-(D9-K)*%
X115500000Y-51500000D02*
X114975000Y-52025000D01*
X123000000Y-57500000D02*
X123000000Y-52000000D01*
X139500000Y-65000000D02*
X139000000Y-65000000D01*
X128500000Y-67000000D02*
X126500000Y-65000000D01*
X139000000Y-65000000D02*
X137000000Y-67000000D01*
X126500000Y-61000000D02*
X123000000Y-57500000D01*
X137000000Y-67000000D02*
X128500000Y-67000000D01*
X122500000Y-51500000D02*
X115500000Y-51500000D01*
X114975000Y-52025000D02*
X114975000Y-53729966D01*
X123000000Y-52000000D02*
X122500000Y-51500000D01*
X126500000Y-65000000D02*
X126500000Y-61000000D01*
%TO.N,+9V*%
X129340000Y-61340000D02*
X129340000Y-65000000D01*
X126953000Y-58953000D02*
X126953000Y-55032500D01*
X126953000Y-58953000D02*
X129340000Y-61340000D01*
%TD*%
%TA.AperFunction,Conductor*%
%TO.N,GND*%
G36*
X81576520Y-68720185D02*
G01*
X81622275Y-68772989D01*
X81632219Y-68842147D01*
X81603194Y-68905703D01*
X81597162Y-68912181D01*
X77459682Y-73049659D01*
X77459677Y-73049665D01*
X77455886Y-73053457D01*
X77410906Y-73120775D01*
X77410547Y-73121311D01*
X77410517Y-73121356D01*
X77379225Y-73168188D01*
X77379221Y-73168195D01*
X77326421Y-73295667D01*
X77326418Y-73295677D01*
X77299500Y-73431004D01*
X77299500Y-77074684D01*
X77290061Y-77122137D01*
X77237799Y-77248306D01*
X77237797Y-77248311D01*
X77230263Y-77266503D01*
X77199500Y-77421158D01*
X77199500Y-77458403D01*
X77199500Y-77578846D01*
X77230261Y-77733489D01*
X77230264Y-77733501D01*
X77290602Y-77879172D01*
X77290609Y-77879185D01*
X77378210Y-78010288D01*
X77378213Y-78010292D01*
X77489707Y-78121786D01*
X77489711Y-78121789D01*
X77620814Y-78209390D01*
X77620827Y-78209397D01*
X77728119Y-78253838D01*
X77766503Y-78269737D01*
X77913019Y-78298881D01*
X77921153Y-78300499D01*
X77921156Y-78300500D01*
X77921158Y-78300500D01*
X78078844Y-78300500D01*
X78078845Y-78300499D01*
X78233497Y-78269737D01*
X78379179Y-78209394D01*
X78510289Y-78121789D01*
X78621789Y-78010289D01*
X78709394Y-77879179D01*
X78769737Y-77733497D01*
X78800500Y-77578842D01*
X78800500Y-77421158D01*
X78800500Y-77421155D01*
X78800499Y-77421153D01*
X78798093Y-77409059D01*
X78769737Y-77266503D01*
X78743985Y-77204332D01*
X78709939Y-77122136D01*
X78700500Y-77074684D01*
X78700500Y-73841519D01*
X78720185Y-73774480D01*
X78736819Y-73753838D01*
X82753838Y-69736819D01*
X82815161Y-69703334D01*
X82841519Y-69700500D01*
X86509480Y-69700500D01*
X86576519Y-69720185D01*
X86622274Y-69772989D01*
X86632218Y-69842147D01*
X86603193Y-69905703D01*
X86597161Y-69912181D01*
X85246162Y-71263181D01*
X85184839Y-71296666D01*
X85158481Y-71299500D01*
X84478744Y-71299500D01*
X84411705Y-71279815D01*
X84378425Y-71248384D01*
X84308969Y-71152784D01*
X84164213Y-71008028D01*
X83998613Y-70887715D01*
X83998612Y-70887714D01*
X83998610Y-70887713D01*
X83938898Y-70857288D01*
X83816223Y-70794781D01*
X83621534Y-70731522D01*
X83446995Y-70703878D01*
X83419352Y-70699500D01*
X83214648Y-70699500D01*
X83190329Y-70703351D01*
X83012465Y-70731522D01*
X82817776Y-70794781D01*
X82635386Y-70887715D01*
X82469786Y-71008028D01*
X82325028Y-71152786D01*
X82204715Y-71318386D01*
X82111781Y-71500776D01*
X82048522Y-71695465D01*
X82024519Y-71847016D01*
X82016500Y-71897648D01*
X82016500Y-72102352D01*
X82018714Y-72116331D01*
X82048522Y-72304534D01*
X82111781Y-72499223D01*
X82173716Y-72620775D01*
X82199276Y-72670940D01*
X82204715Y-72681613D01*
X82325028Y-72847213D01*
X82469786Y-72991971D01*
X82614527Y-73097129D01*
X82635390Y-73112287D01*
X82709406Y-73150000D01*
X82728080Y-73159515D01*
X82778876Y-73207490D01*
X82795671Y-73275311D01*
X82773134Y-73341446D01*
X82728080Y-73380485D01*
X82635386Y-73427715D01*
X82469786Y-73548028D01*
X82325028Y-73692786D01*
X82204715Y-73858386D01*
X82111781Y-74040776D01*
X82048522Y-74235465D01*
X82020505Y-74412363D01*
X82016500Y-74437648D01*
X82016500Y-74642352D01*
X82021028Y-74670940D01*
X82034986Y-74759068D01*
X82026031Y-74828362D01*
X82000194Y-74866147D01*
X80955887Y-75910454D01*
X80879222Y-76025192D01*
X80826421Y-76152667D01*
X80826420Y-76152671D01*
X80826420Y-76152672D01*
X80802043Y-76275225D01*
X80799500Y-76288006D01*
X80799500Y-77293684D01*
X80790061Y-77341136D01*
X80730264Y-77485498D01*
X80730261Y-77485510D01*
X80699500Y-77640153D01*
X80699500Y-77797846D01*
X80730261Y-77952489D01*
X80730264Y-77952501D01*
X80790602Y-78098172D01*
X80790609Y-78098185D01*
X80878210Y-78229288D01*
X80878213Y-78229292D01*
X80989707Y-78340786D01*
X80989711Y-78340789D01*
X81120814Y-78428390D01*
X81120827Y-78428397D01*
X81258734Y-78485519D01*
X81266503Y-78488737D01*
X81421153Y-78519499D01*
X81421156Y-78519500D01*
X81421158Y-78519500D01*
X81578844Y-78519500D01*
X81578845Y-78519499D01*
X81733497Y-78488737D01*
X81879179Y-78428394D01*
X82010289Y-78340789D01*
X82121789Y-78229289D01*
X82209394Y-78098179D01*
X82222319Y-78066974D01*
X82266158Y-78012572D01*
X82332452Y-77990506D01*
X82400152Y-78007784D01*
X82424561Y-78026746D01*
X82469786Y-78071971D01*
X82635385Y-78192284D01*
X82635387Y-78192285D01*
X82635390Y-78192287D01*
X82728080Y-78239515D01*
X82728630Y-78239795D01*
X82779426Y-78287770D01*
X82796221Y-78355591D01*
X82773684Y-78421725D01*
X82728630Y-78460765D01*
X82635644Y-78508143D01*
X82591077Y-78540523D01*
X82591077Y-78540524D01*
X83270553Y-79220000D01*
X83264339Y-79220000D01*
X83162606Y-79247259D01*
X83071394Y-79299920D01*
X82996920Y-79374394D01*
X82944259Y-79465606D01*
X82917000Y-79567339D01*
X82917000Y-79573553D01*
X82237524Y-78894077D01*
X82237523Y-78894077D01*
X82205143Y-78938644D01*
X82112244Y-79120968D01*
X82049009Y-79315582D01*
X82017000Y-79517682D01*
X82017000Y-79722317D01*
X82049009Y-79924417D01*
X82112244Y-80119031D01*
X82205142Y-80301353D01*
X82261297Y-80378644D01*
X82284777Y-80444450D01*
X82268951Y-80512504D01*
X82248660Y-80539210D01*
X81571887Y-81215983D01*
X81495222Y-81330721D01*
X81442421Y-81458196D01*
X81442418Y-81458208D01*
X81418896Y-81576462D01*
X81418896Y-81576465D01*
X81415500Y-81593536D01*
X81415500Y-85970006D01*
X81415500Y-86107994D01*
X81415500Y-86107996D01*
X81415499Y-86107996D01*
X81442418Y-86243322D01*
X81442421Y-86243332D01*
X81495222Y-86370807D01*
X81571887Y-86485545D01*
X81571888Y-86485546D01*
X82000194Y-86913851D01*
X82033679Y-86975174D01*
X82034986Y-87020929D01*
X82031314Y-87044114D01*
X82016500Y-87137648D01*
X82016500Y-87342352D01*
X82020878Y-87369995D01*
X82048522Y-87544534D01*
X82111781Y-87739223D01*
X82204715Y-87921613D01*
X82325028Y-88087213D01*
X82469786Y-88231971D01*
X82565385Y-88301426D01*
X82635390Y-88352287D01*
X82817781Y-88445220D01*
X82992085Y-88501855D01*
X83041447Y-88532104D01*
X83553453Y-89044111D01*
X83553454Y-89044112D01*
X83668192Y-89120777D01*
X83795667Y-89173578D01*
X83795672Y-89173580D01*
X83795676Y-89173580D01*
X83795677Y-89173581D01*
X83931003Y-89200500D01*
X83931006Y-89200500D01*
X88068996Y-89200500D01*
X88165045Y-89181394D01*
X88204328Y-89173580D01*
X88268069Y-89147177D01*
X88331807Y-89120777D01*
X88331808Y-89120776D01*
X88331811Y-89120775D01*
X88446543Y-89044114D01*
X90044113Y-87446543D01*
X90083565Y-87387500D01*
X90120775Y-87331811D01*
X90155457Y-87248082D01*
X90173580Y-87204329D01*
X90181980Y-87162093D01*
X90184911Y-87147363D01*
X90184911Y-87147358D01*
X90185695Y-87143420D01*
X90200500Y-87068993D01*
X90200500Y-87029939D01*
X90201578Y-87021819D01*
X90212558Y-86997069D01*
X90220185Y-86971098D01*
X90227534Y-86963316D01*
X90229914Y-86957953D01*
X90237009Y-86953283D01*
X90251615Y-86937818D01*
X90282073Y-86915690D01*
X90415690Y-86782073D01*
X90526760Y-86629199D01*
X90612547Y-86460832D01*
X90670940Y-86281118D01*
X90680897Y-86218253D01*
X90700500Y-86094486D01*
X90700500Y-85905513D01*
X90670940Y-85718881D01*
X90615163Y-85547219D01*
X90612547Y-85539168D01*
X90612545Y-85539165D01*
X90612545Y-85539163D01*
X90541892Y-85400500D01*
X90526760Y-85370801D01*
X90415690Y-85217927D01*
X90282073Y-85084310D01*
X90129199Y-84973240D01*
X90054118Y-84934984D01*
X90003323Y-84887010D01*
X89986528Y-84819190D01*
X90009065Y-84753055D01*
X90063780Y-84709603D01*
X90110414Y-84700500D01*
X91158481Y-84700500D01*
X91225520Y-84720185D01*
X91246162Y-84736819D01*
X91880144Y-85370800D01*
X92455886Y-85946542D01*
X92541855Y-86032511D01*
X92553459Y-86044115D01*
X92668185Y-86120773D01*
X92668187Y-86120773D01*
X92668189Y-86120775D01*
X92737538Y-86149500D01*
X92795671Y-86173580D01*
X92822591Y-86178934D01*
X92920629Y-86198435D01*
X92931006Y-86200500D01*
X92931007Y-86200500D01*
X95158481Y-86200500D01*
X95225520Y-86220185D01*
X95246162Y-86236819D01*
X96597162Y-87587819D01*
X96630647Y-87649142D01*
X96625663Y-87718834D01*
X96583791Y-87774767D01*
X96518327Y-87799184D01*
X96509481Y-87799500D01*
X93431003Y-87799500D01*
X93326476Y-87820291D01*
X93326457Y-87820295D01*
X93322591Y-87821065D01*
X93295671Y-87826420D01*
X93289298Y-87829060D01*
X93281695Y-87832208D01*
X93281688Y-87832211D01*
X93168191Y-87879223D01*
X93076488Y-87940498D01*
X93053457Y-87955886D01*
X93053451Y-87955891D01*
X91375888Y-89633453D01*
X91375887Y-89633454D01*
X91299222Y-89748192D01*
X91246421Y-89875667D01*
X91246418Y-89875678D01*
X91221213Y-90002397D01*
X91221212Y-90002402D01*
X91219500Y-90011006D01*
X91219500Y-91461862D01*
X91199815Y-91528901D01*
X91168387Y-91562179D01*
X91137927Y-91584309D01*
X91004312Y-91717924D01*
X91004312Y-91717925D01*
X91004310Y-91717927D01*
X90971431Y-91763181D01*
X90893240Y-91870800D01*
X90807454Y-92039163D01*
X90749059Y-92218881D01*
X90719500Y-92405513D01*
X90719500Y-92594482D01*
X90725389Y-92631668D01*
X90716433Y-92700961D01*
X90690596Y-92738745D01*
X89246162Y-94183181D01*
X89184839Y-94216666D01*
X89158481Y-94219500D01*
X81261519Y-94219500D01*
X81232078Y-94210855D01*
X81202092Y-94204332D01*
X81197076Y-94200577D01*
X81194480Y-94199815D01*
X81173838Y-94183181D01*
X81002337Y-94011680D01*
X80968852Y-93950357D01*
X80973836Y-93880665D01*
X81015708Y-93824732D01*
X81073024Y-93802477D01*
X81072868Y-93801689D01*
X81077351Y-93800797D01*
X81077872Y-93800595D01*
X81078833Y-93800500D01*
X81078842Y-93800500D01*
X81078851Y-93800498D01*
X81078853Y-93800498D01*
X81116164Y-93793075D01*
X81233497Y-93769737D01*
X81379179Y-93709394D01*
X81510289Y-93621789D01*
X81621789Y-93510289D01*
X81709394Y-93379179D01*
X81769737Y-93233497D01*
X81800500Y-93078842D01*
X81800500Y-92921158D01*
X81800500Y-92921157D01*
X81800500Y-92921155D01*
X81800499Y-92921153D01*
X81769738Y-92766510D01*
X81769737Y-92766503D01*
X81769735Y-92766498D01*
X81709939Y-92622136D01*
X81700500Y-92574684D01*
X81700500Y-91431004D01*
X81682168Y-91338848D01*
X81677619Y-91315977D01*
X81673580Y-91295671D01*
X81635744Y-91204328D01*
X81620775Y-91168189D01*
X81620774Y-91168187D01*
X81620773Y-91168185D01*
X81544115Y-91053459D01*
X81510527Y-91019871D01*
X81446542Y-90955886D01*
X80845135Y-90354479D01*
X80236819Y-89746162D01*
X80203334Y-89684839D01*
X80200500Y-89658481D01*
X80200500Y-85425316D01*
X80209939Y-85377864D01*
X80238478Y-85308963D01*
X80269737Y-85233497D01*
X80300500Y-85078842D01*
X80300500Y-84921158D01*
X80300500Y-84921155D01*
X80300499Y-84921153D01*
X80295018Y-84893598D01*
X80269737Y-84766503D01*
X80268361Y-84763181D01*
X80209397Y-84620827D01*
X80209390Y-84620814D01*
X80121789Y-84489711D01*
X80121786Y-84489707D01*
X80010292Y-84378213D01*
X80010288Y-84378210D01*
X79879185Y-84290609D01*
X79879172Y-84290602D01*
X79733501Y-84230264D01*
X79733489Y-84230261D01*
X79578845Y-84199500D01*
X79578842Y-84199500D01*
X79421158Y-84199500D01*
X79421155Y-84199500D01*
X79266510Y-84230261D01*
X79266498Y-84230264D01*
X79120827Y-84290602D01*
X79120814Y-84290609D01*
X78989711Y-84378210D01*
X78989707Y-84378213D01*
X78912181Y-84455740D01*
X78850858Y-84489225D01*
X78781166Y-84484241D01*
X78725233Y-84442369D01*
X78700816Y-84376905D01*
X78700500Y-84368059D01*
X78700500Y-81854010D01*
X78700500Y-81854007D01*
X78696856Y-81835690D01*
X78673580Y-81718672D01*
X78666705Y-81702074D01*
X78620777Y-81591192D01*
X78544112Y-81476454D01*
X78544111Y-81476453D01*
X77013805Y-79946148D01*
X76980320Y-79884825D01*
X76979013Y-79839068D01*
X76983456Y-79811016D01*
X76997500Y-79722352D01*
X76997500Y-79517648D01*
X76975568Y-79379179D01*
X76965477Y-79315465D01*
X76924627Y-79189742D01*
X76902220Y-79120781D01*
X76902218Y-79120778D01*
X76902218Y-79120776D01*
X76859015Y-79035986D01*
X76809287Y-78938390D01*
X76777092Y-78894077D01*
X76688971Y-78772786D01*
X76544213Y-78628028D01*
X76378614Y-78507715D01*
X76372006Y-78504348D01*
X76285917Y-78460483D01*
X76235123Y-78412511D01*
X76218328Y-78344690D01*
X76240865Y-78278555D01*
X76285917Y-78239516D01*
X76378610Y-78192287D01*
X76414103Y-78166500D01*
X76544213Y-78071971D01*
X76544215Y-78071968D01*
X76544219Y-78071966D01*
X76688966Y-77927219D01*
X76688968Y-77927215D01*
X76688971Y-77927213D01*
X76760771Y-77828387D01*
X76809287Y-77761610D01*
X76902220Y-77579219D01*
X76965477Y-77384534D01*
X76997500Y-77182352D01*
X76997500Y-76977648D01*
X76973673Y-76827214D01*
X76965477Y-76775465D01*
X76922218Y-76642329D01*
X76902220Y-76580781D01*
X76902218Y-76580778D01*
X76902218Y-76580776D01*
X76866302Y-76510288D01*
X76809287Y-76398390D01*
X76787695Y-76368671D01*
X76688971Y-76232786D01*
X76544213Y-76088028D01*
X76378614Y-75967715D01*
X76345416Y-75950800D01*
X76285917Y-75920483D01*
X76235123Y-75872511D01*
X76218328Y-75804690D01*
X76240865Y-75738555D01*
X76285917Y-75699516D01*
X76378610Y-75652287D01*
X76420591Y-75621786D01*
X76544213Y-75531971D01*
X76544215Y-75531968D01*
X76544219Y-75531966D01*
X76688966Y-75387219D01*
X76688968Y-75387215D01*
X76688971Y-75387213D01*
X76777753Y-75265013D01*
X76809287Y-75221610D01*
X76902220Y-75039219D01*
X76965477Y-74844534D01*
X76997500Y-74642352D01*
X76997500Y-74437648D01*
X76974211Y-74290609D01*
X76965477Y-74235465D01*
X76913456Y-74075363D01*
X76902220Y-74040781D01*
X76902218Y-74040778D01*
X76902218Y-74040776D01*
X76861484Y-73960832D01*
X76809287Y-73858390D01*
X76767314Y-73800618D01*
X76688971Y-73692786D01*
X76544219Y-73548034D01*
X76541527Y-73546078D01*
X76450547Y-73479978D01*
X76407882Y-73424649D01*
X76401903Y-73355036D01*
X76434508Y-73293240D01*
X76484426Y-73261955D01*
X76566334Y-73234814D01*
X76715656Y-73142712D01*
X76839712Y-73018656D01*
X76931814Y-72869334D01*
X76986999Y-72702797D01*
X76997500Y-72600009D01*
X76997499Y-71399992D01*
X76986999Y-71297203D01*
X76931814Y-71130666D01*
X76839712Y-70981344D01*
X76715656Y-70857288D01*
X76566334Y-70765186D01*
X76482495Y-70737404D01*
X76425051Y-70697632D01*
X76398228Y-70633116D01*
X76397500Y-70619699D01*
X76397500Y-70144519D01*
X76417185Y-70077480D01*
X76433819Y-70056838D01*
X77753838Y-68736819D01*
X77815161Y-68703334D01*
X77841519Y-68700500D01*
X81509481Y-68700500D01*
X81576520Y-68720185D01*
G37*
%TD.AperFunction*%
%TA.AperFunction,Conductor*%
G36*
X77125314Y-82089197D02*
G01*
X77138647Y-82087281D01*
X77158790Y-82096480D01*
X77180427Y-82101187D01*
X77198152Y-82114455D01*
X77202203Y-82116306D01*
X77208681Y-82122338D01*
X77263181Y-82176838D01*
X77296666Y-82238161D01*
X77299500Y-82264519D01*
X77299500Y-90009481D01*
X77279815Y-90076520D01*
X77227011Y-90122275D01*
X77157853Y-90132219D01*
X77094297Y-90103194D01*
X77087819Y-90097162D01*
X76433819Y-89443162D01*
X76400334Y-89381839D01*
X76397500Y-89355481D01*
X76397500Y-88401744D01*
X76417185Y-88334705D01*
X76448615Y-88301426D01*
X76544215Y-88231969D01*
X76544215Y-88231968D01*
X76544219Y-88231966D01*
X76688966Y-88087219D01*
X76688968Y-88087215D01*
X76688971Y-88087213D01*
X76780042Y-87961862D01*
X76809287Y-87921610D01*
X76902220Y-87739219D01*
X76965477Y-87544534D01*
X76997500Y-87342352D01*
X76997500Y-87137648D01*
X76982997Y-87046078D01*
X76965477Y-86935465D01*
X76936083Y-86845001D01*
X76902220Y-86740781D01*
X76902218Y-86740778D01*
X76902218Y-86740776D01*
X76868118Y-86673852D01*
X76809287Y-86558390D01*
X76801556Y-86547749D01*
X76688971Y-86392786D01*
X76544213Y-86248028D01*
X76378614Y-86127715D01*
X76364991Y-86120774D01*
X76285917Y-86080483D01*
X76235123Y-86032511D01*
X76218328Y-85964690D01*
X76240865Y-85898555D01*
X76285917Y-85859516D01*
X76378610Y-85812287D01*
X76425732Y-85778051D01*
X76544213Y-85691971D01*
X76544215Y-85691968D01*
X76544219Y-85691966D01*
X76688966Y-85547219D01*
X76688968Y-85547215D01*
X76688971Y-85547213D01*
X76789424Y-85408949D01*
X76809287Y-85381610D01*
X76902220Y-85199219D01*
X76965477Y-85004534D01*
X76997500Y-84802352D01*
X76997500Y-84597648D01*
X76983664Y-84510292D01*
X76965477Y-84395465D01*
X76918737Y-84251615D01*
X76902220Y-84200781D01*
X76902218Y-84200778D01*
X76902218Y-84200776D01*
X76861455Y-84120775D01*
X76809287Y-84018390D01*
X76769175Y-83963180D01*
X76688971Y-83852786D01*
X76544213Y-83708028D01*
X76378611Y-83587713D01*
X76285369Y-83540203D01*
X76234574Y-83492229D01*
X76217779Y-83424407D01*
X76240317Y-83358273D01*
X76285371Y-83319234D01*
X76378346Y-83271861D01*
X76378347Y-83271861D01*
X76422921Y-83239474D01*
X75743447Y-82560000D01*
X75749661Y-82560000D01*
X75851394Y-82532741D01*
X75942606Y-82480080D01*
X76017080Y-82405606D01*
X76069741Y-82314394D01*
X76097000Y-82212661D01*
X76097000Y-82206446D01*
X76776474Y-82885921D01*
X76808859Y-82841349D01*
X76901755Y-82659031D01*
X76964990Y-82464417D01*
X76997000Y-82262317D01*
X76997000Y-82210019D01*
X77003238Y-82188773D01*
X77004818Y-82166685D01*
X77012890Y-82155901D01*
X77016685Y-82142980D01*
X77033418Y-82128480D01*
X77046690Y-82110752D01*
X77059310Y-82106044D01*
X77069489Y-82097225D01*
X77091406Y-82094073D01*
X77112154Y-82086335D01*
X77125314Y-82089197D01*
G37*
%TD.AperFunction*%
%TA.AperFunction,Conductor*%
G36*
X120050834Y-57057337D02*
G01*
X120095181Y-57085838D01*
X122634132Y-59624789D01*
X122667617Y-59686112D01*
X122662633Y-59755804D01*
X122620761Y-59811737D01*
X122555297Y-59836154D01*
X122490156Y-59822955D01*
X122460637Y-59807914D01*
X122281002Y-59749548D01*
X122094447Y-59720000D01*
X121905553Y-59720000D01*
X121718997Y-59749548D01*
X121539362Y-59807914D01*
X121371060Y-59893669D01*
X121345670Y-59912116D01*
X121345669Y-59912116D01*
X122003554Y-60570000D01*
X121953922Y-60570000D01*
X121864905Y-60593852D01*
X121785095Y-60639930D01*
X121719930Y-60705095D01*
X121673852Y-60784905D01*
X121650000Y-60873922D01*
X121650000Y-60966078D01*
X121673852Y-61055095D01*
X121719930Y-61134905D01*
X121785095Y-61200070D01*
X121864905Y-61246148D01*
X121953922Y-61270000D01*
X122046078Y-61270000D01*
X122135095Y-61246148D01*
X122214905Y-61200070D01*
X122280070Y-61134905D01*
X122326148Y-61055095D01*
X122350000Y-60966078D01*
X122350000Y-60916446D01*
X123007882Y-61574328D01*
X123007883Y-61574328D01*
X123026331Y-61548937D01*
X123112085Y-61380637D01*
X123170451Y-61201002D01*
X123200000Y-61014447D01*
X123200000Y-60825552D01*
X123170451Y-60638997D01*
X123112084Y-60459360D01*
X123097045Y-60429844D01*
X123084148Y-60361175D01*
X123110423Y-60296434D01*
X123167529Y-60256177D01*
X123237335Y-60253184D01*
X123295210Y-60285867D01*
X124263181Y-61253838D01*
X124296666Y-61315161D01*
X124299500Y-61341519D01*
X124299500Y-66431006D01*
X124299500Y-66568994D01*
X124299500Y-66568996D01*
X124299499Y-66568996D01*
X124326418Y-66704322D01*
X124326421Y-66704332D01*
X124379222Y-66831807D01*
X124455887Y-66946545D01*
X124455888Y-66946546D01*
X125955886Y-68446542D01*
X126022798Y-68513454D01*
X126053459Y-68544115D01*
X126168182Y-68620771D01*
X126168195Y-68620778D01*
X126186095Y-68628192D01*
X126239020Y-68650114D01*
X126295671Y-68673580D01*
X126322591Y-68678934D01*
X126418455Y-68698003D01*
X126431006Y-68700500D01*
X126431007Y-68700500D01*
X136031481Y-68700500D01*
X136098520Y-68720185D01*
X136119162Y-68736819D01*
X138303194Y-70920850D01*
X138336679Y-70982173D01*
X138337986Y-71027929D01*
X138319500Y-71144642D01*
X138319500Y-71349351D01*
X138351522Y-71551534D01*
X138377739Y-71632218D01*
X138407295Y-71723182D01*
X138409290Y-71793023D01*
X138373210Y-71852856D01*
X138310509Y-71883684D01*
X138289364Y-71885500D01*
X136995062Y-71885500D01*
X136859735Y-71912418D01*
X136859725Y-71912421D01*
X136732250Y-71965222D01*
X136617512Y-72041887D01*
X136617511Y-72041888D01*
X134113181Y-74546219D01*
X134051858Y-74579704D01*
X133982166Y-74574720D01*
X133926233Y-74532848D01*
X133901816Y-74467384D01*
X133901500Y-74458538D01*
X133901500Y-73220533D01*
X133876954Y-73097137D01*
X133876952Y-73097129D01*
X133874580Y-73085200D01*
X133847017Y-73018657D01*
X133821776Y-72957719D01*
X133745112Y-72842983D01*
X133745111Y-72842982D01*
X133221605Y-72319477D01*
X133188120Y-72258154D01*
X133193104Y-72188463D01*
X133203744Y-72166705D01*
X133234814Y-72116334D01*
X133289999Y-71949797D01*
X133300500Y-71847009D01*
X133300499Y-70646992D01*
X133289999Y-70544203D01*
X133234814Y-70377666D01*
X133142712Y-70228344D01*
X133018656Y-70104288D01*
X132869334Y-70012186D01*
X132702797Y-69957001D01*
X132702795Y-69957000D01*
X132600010Y-69946500D01*
X131399998Y-69946500D01*
X131399981Y-69946501D01*
X131297203Y-69957000D01*
X131297200Y-69957001D01*
X131130668Y-70012185D01*
X131130663Y-70012187D01*
X130981342Y-70104289D01*
X130857289Y-70228342D01*
X130765187Y-70377663D01*
X130765185Y-70377668D01*
X130761943Y-70387453D01*
X130710001Y-70544203D01*
X130710001Y-70544204D01*
X130710000Y-70544204D01*
X130699500Y-70646983D01*
X130699500Y-70646991D01*
X130699500Y-71246162D01*
X130699501Y-71761500D01*
X130679816Y-71828539D01*
X130627013Y-71874294D01*
X130575501Y-71885500D01*
X126385003Y-71885500D01*
X126276590Y-71907065D01*
X126276589Y-71907065D01*
X126249681Y-71912418D01*
X126249671Y-71912420D01*
X126122189Y-71965224D01*
X126007458Y-72041885D01*
X125953549Y-72095793D01*
X125892225Y-72129277D01*
X125846471Y-72130582D01*
X125650222Y-72099500D01*
X125429778Y-72099500D01*
X125357201Y-72110995D01*
X125212047Y-72133985D01*
X125002396Y-72202103D01*
X125002393Y-72202104D01*
X124805974Y-72302187D01*
X124627641Y-72431752D01*
X124627636Y-72431756D01*
X124577463Y-72481929D01*
X124516140Y-72515413D01*
X124446448Y-72510428D01*
X124390515Y-72468557D01*
X124373601Y-72437580D01*
X124343797Y-72357671D01*
X124343793Y-72357664D01*
X124257547Y-72242455D01*
X124257544Y-72242452D01*
X124142335Y-72156206D01*
X124142328Y-72156202D01*
X124007482Y-72105908D01*
X124007483Y-72105908D01*
X123947883Y-72099501D01*
X123947881Y-72099500D01*
X123947873Y-72099500D01*
X123947865Y-72099500D01*
X123824500Y-72099500D01*
X123757461Y-72079815D01*
X123711706Y-72027011D01*
X123700500Y-71975500D01*
X123700500Y-68931006D01*
X123692543Y-68891008D01*
X123692543Y-68891005D01*
X123675734Y-68806501D01*
X123673580Y-68795672D01*
X123667012Y-68779815D01*
X123620777Y-68668192D01*
X123589091Y-68620771D01*
X123544114Y-68553457D01*
X123544112Y-68553454D01*
X122736819Y-67746161D01*
X122703334Y-67684838D01*
X122700500Y-67658480D01*
X122700500Y-67038137D01*
X122720185Y-66971098D01*
X122751615Y-66937818D01*
X122782073Y-66915690D01*
X122915690Y-66782073D01*
X123026760Y-66629199D01*
X123112547Y-66460832D01*
X123170940Y-66281118D01*
X123176138Y-66248301D01*
X123200500Y-66094486D01*
X123200500Y-65905513D01*
X123170940Y-65718881D01*
X123128475Y-65588189D01*
X123112547Y-65539168D01*
X123112545Y-65539165D01*
X123112545Y-65539163D01*
X123062326Y-65440603D01*
X123026760Y-65370801D01*
X122915690Y-65217927D01*
X122782073Y-65084310D01*
X122629199Y-64973240D01*
X122605475Y-64961152D01*
X122460836Y-64887454D01*
X122281118Y-64829059D01*
X122094486Y-64799500D01*
X122094481Y-64799500D01*
X121905519Y-64799500D01*
X121905514Y-64799500D01*
X121718881Y-64829059D01*
X121539163Y-64887454D01*
X121370800Y-64973240D01*
X121343401Y-64993147D01*
X121217927Y-65084310D01*
X121217925Y-65084312D01*
X121217924Y-65084312D01*
X121084312Y-65217924D01*
X121084312Y-65217925D01*
X121084310Y-65217927D01*
X121075973Y-65229402D01*
X120973240Y-65370800D01*
X120887454Y-65539163D01*
X120829059Y-65718881D01*
X120799500Y-65905513D01*
X120799500Y-66094486D01*
X120829059Y-66281118D01*
X120887454Y-66460836D01*
X120968968Y-66620814D01*
X120973240Y-66629199D01*
X121084310Y-66782073D01*
X121217927Y-66915690D01*
X121217928Y-66915691D01*
X121217927Y-66915691D01*
X121238442Y-66930595D01*
X121248383Y-66937818D01*
X121291050Y-66993147D01*
X121299500Y-67038137D01*
X121299500Y-67931006D01*
X121299500Y-68068994D01*
X121299500Y-68068996D01*
X121299499Y-68068996D01*
X121326418Y-68204322D01*
X121326421Y-68204332D01*
X121379222Y-68331807D01*
X121455885Y-68446542D01*
X121455888Y-68446546D01*
X122263181Y-69253838D01*
X122296666Y-69315161D01*
X122299500Y-69341519D01*
X122299500Y-71975500D01*
X122279815Y-72042539D01*
X122227011Y-72088294D01*
X122175501Y-72099500D01*
X122052130Y-72099500D01*
X122052123Y-72099501D01*
X121992516Y-72105908D01*
X121857671Y-72156202D01*
X121857664Y-72156206D01*
X121742455Y-72242452D01*
X121742452Y-72242455D01*
X121656206Y-72357664D01*
X121656202Y-72357671D01*
X121605908Y-72492517D01*
X121599501Y-72552116D01*
X121599500Y-72552135D01*
X121599500Y-74447870D01*
X121599501Y-74447876D01*
X121605908Y-74507483D01*
X121656202Y-74642328D01*
X121656206Y-74642335D01*
X121742452Y-74757544D01*
X121742455Y-74757547D01*
X121857664Y-74843793D01*
X121857671Y-74843797D01*
X121992517Y-74894091D01*
X121992516Y-74894091D01*
X121999444Y-74894835D01*
X122052127Y-74900500D01*
X123947872Y-74900499D01*
X124007483Y-74894091D01*
X124142331Y-74843796D01*
X124257546Y-74757546D01*
X124343796Y-74642331D01*
X124348156Y-74630641D01*
X124373601Y-74562420D01*
X124415471Y-74506486D01*
X124480936Y-74482068D01*
X124549209Y-74496919D01*
X124577464Y-74518071D01*
X124627636Y-74568243D01*
X124627641Y-74568247D01*
X124775074Y-74675362D01*
X124805978Y-74697815D01*
X124923902Y-74757901D01*
X125002393Y-74797895D01*
X125002396Y-74797896D01*
X125096163Y-74828362D01*
X125212049Y-74866015D01*
X125429778Y-74900500D01*
X125429779Y-74900500D01*
X125650221Y-74900500D01*
X125650222Y-74900500D01*
X125867951Y-74866015D01*
X126077606Y-74797895D01*
X126274022Y-74697815D01*
X126452365Y-74568242D01*
X126608242Y-74412365D01*
X126737815Y-74234022D01*
X126837895Y-74037606D01*
X126906015Y-73827951D01*
X126940500Y-73610222D01*
X126940500Y-73410500D01*
X126960185Y-73343461D01*
X127012989Y-73297706D01*
X127064500Y-73286500D01*
X130624524Y-73286500D01*
X130691563Y-73306185D01*
X130737318Y-73358989D01*
X130747262Y-73428147D01*
X130742455Y-73448817D01*
X130731524Y-73482457D01*
X130731523Y-73482464D01*
X130699500Y-73684648D01*
X130699500Y-73889351D01*
X130717986Y-74006069D01*
X130709031Y-74075363D01*
X130683194Y-74113148D01*
X129033162Y-75763181D01*
X128971839Y-75796666D01*
X128945481Y-75799500D01*
X119841519Y-75799500D01*
X119774480Y-75779815D01*
X119753838Y-75763181D01*
X117904208Y-73913551D01*
X117870723Y-73852228D01*
X117869416Y-73806477D01*
X117900500Y-73610222D01*
X117900500Y-73389778D01*
X117866015Y-73172049D01*
X117816176Y-73018657D01*
X117797896Y-72962396D01*
X117797895Y-72962393D01*
X117750478Y-72869334D01*
X117697815Y-72765978D01*
X117639501Y-72685715D01*
X117568247Y-72587641D01*
X117568243Y-72587636D01*
X117412363Y-72431756D01*
X117412358Y-72431752D01*
X117234025Y-72302187D01*
X117234024Y-72302186D01*
X117234022Y-72302185D01*
X117171096Y-72270122D01*
X117037606Y-72202104D01*
X117037603Y-72202103D01*
X116827952Y-72133985D01*
X116716488Y-72116331D01*
X116610222Y-72099500D01*
X116389778Y-72099500D01*
X116317201Y-72110995D01*
X116172047Y-72133985D01*
X115962396Y-72202103D01*
X115962393Y-72202104D01*
X115765974Y-72302187D01*
X115587641Y-72431752D01*
X115587636Y-72431756D01*
X115537463Y-72481929D01*
X115476140Y-72515413D01*
X115406448Y-72510428D01*
X115350515Y-72468557D01*
X115333601Y-72437580D01*
X115303797Y-72357671D01*
X115303793Y-72357664D01*
X115217547Y-72242455D01*
X115217544Y-72242452D01*
X115102335Y-72156206D01*
X115102328Y-72156202D01*
X114967482Y-72105908D01*
X114967483Y-72105908D01*
X114907883Y-72099501D01*
X114907881Y-72099500D01*
X114907873Y-72099500D01*
X114907865Y-72099500D01*
X114784500Y-72099500D01*
X114717461Y-72079815D01*
X114671706Y-72027011D01*
X114660500Y-71975500D01*
X114660500Y-68891005D01*
X114658158Y-68879234D01*
X114658157Y-68879231D01*
X114658156Y-68879225D01*
X114633580Y-68755672D01*
X114610727Y-68700500D01*
X114580777Y-68628192D01*
X114504112Y-68513454D01*
X113736819Y-67746161D01*
X113703334Y-67684838D01*
X113700500Y-67658480D01*
X113700500Y-67038137D01*
X113720185Y-66971098D01*
X113751615Y-66937818D01*
X113782073Y-66915690D01*
X113915690Y-66782073D01*
X114026760Y-66629199D01*
X114112547Y-66460832D01*
X114170940Y-66281118D01*
X114176138Y-66248301D01*
X114200500Y-66094486D01*
X114200500Y-65905513D01*
X114170940Y-65718881D01*
X114128475Y-65588189D01*
X114112547Y-65539168D01*
X114112545Y-65539165D01*
X114112545Y-65539163D01*
X114062326Y-65440603D01*
X114026760Y-65370801D01*
X113915690Y-65217927D01*
X113782073Y-65084310D01*
X113629199Y-64973240D01*
X113605475Y-64961152D01*
X113460836Y-64887454D01*
X113281118Y-64829059D01*
X113094486Y-64799500D01*
X113094481Y-64799500D01*
X112905519Y-64799500D01*
X112905514Y-64799500D01*
X112718881Y-64829059D01*
X112539163Y-64887454D01*
X112370800Y-64973240D01*
X112343401Y-64993147D01*
X112217927Y-65084310D01*
X112217925Y-65084312D01*
X112217924Y-65084312D01*
X112084312Y-65217924D01*
X112084312Y-65217925D01*
X112084310Y-65217927D01*
X112075973Y-65229402D01*
X111973240Y-65370800D01*
X111887454Y-65539163D01*
X111829059Y-65718881D01*
X111799500Y-65905513D01*
X111799500Y-66094486D01*
X111829059Y-66281118D01*
X111887454Y-66460836D01*
X111968968Y-66620814D01*
X111973240Y-66629199D01*
X112084310Y-66782073D01*
X112217927Y-66915690D01*
X112217928Y-66915691D01*
X112217927Y-66915691D01*
X112238442Y-66930595D01*
X112248383Y-66937818D01*
X112291050Y-66993147D01*
X112299500Y-67038137D01*
X112299500Y-67931006D01*
X112299500Y-68068994D01*
X112299500Y-68068996D01*
X112299499Y-68068996D01*
X112326418Y-68204322D01*
X112326421Y-68204332D01*
X112379222Y-68331807D01*
X112455885Y-68446542D01*
X112455888Y-68446546D01*
X113223181Y-69213838D01*
X113256666Y-69275161D01*
X113259500Y-69301519D01*
X113259500Y-71975500D01*
X113239815Y-72042539D01*
X113187011Y-72088294D01*
X113135501Y-72099500D01*
X113012130Y-72099500D01*
X113012123Y-72099501D01*
X112952516Y-72105908D01*
X112817671Y-72156202D01*
X112817664Y-72156206D01*
X112702455Y-72242452D01*
X112702452Y-72242455D01*
X112616206Y-72357664D01*
X112616202Y-72357671D01*
X112565908Y-72492517D01*
X112559501Y-72552116D01*
X112559500Y-72552135D01*
X112559500Y-74447870D01*
X112559501Y-74447876D01*
X112565908Y-74507483D01*
X112616202Y-74642328D01*
X112616206Y-74642335D01*
X112702452Y-74757544D01*
X112702455Y-74757547D01*
X112817664Y-74843793D01*
X112817671Y-74843797D01*
X112952517Y-74894091D01*
X112952516Y-74894091D01*
X112959444Y-74894835D01*
X113012127Y-74900500D01*
X114907872Y-74900499D01*
X114967483Y-74894091D01*
X115102331Y-74843796D01*
X115217546Y-74757546D01*
X115303796Y-74642331D01*
X115308156Y-74630641D01*
X115333601Y-74562420D01*
X115375471Y-74506486D01*
X115440936Y-74482068D01*
X115509209Y-74496919D01*
X115537464Y-74518071D01*
X115587636Y-74568243D01*
X115587641Y-74568247D01*
X115735074Y-74675362D01*
X115765978Y-74697815D01*
X115883902Y-74757901D01*
X115962393Y-74797895D01*
X115962396Y-74797896D01*
X116056163Y-74828362D01*
X116172049Y-74866015D01*
X116389778Y-74900500D01*
X116389779Y-74900500D01*
X116610221Y-74900500D01*
X116610222Y-74900500D01*
X116806475Y-74869416D01*
X116875765Y-74878370D01*
X116913551Y-74904208D01*
X119053453Y-77044111D01*
X119053454Y-77044112D01*
X119168192Y-77120777D01*
X119288185Y-77170479D01*
X119295672Y-77173580D01*
X119295676Y-77173580D01*
X119295677Y-77173581D01*
X119431003Y-77200500D01*
X119431006Y-77200500D01*
X129355996Y-77200500D01*
X129447254Y-77182347D01*
X129491328Y-77173580D01*
X129555069Y-77147177D01*
X129618807Y-77120777D01*
X129618808Y-77120776D01*
X129618811Y-77120775D01*
X129733543Y-77044114D01*
X130487820Y-76289835D01*
X130549142Y-76256351D01*
X130618833Y-76261335D01*
X130674767Y-76303206D01*
X130699184Y-76368671D01*
X130699500Y-76377517D01*
X130699500Y-76429351D01*
X130731522Y-76631534D01*
X130794781Y-76826223D01*
X130843015Y-76920886D01*
X130878780Y-76991079D01*
X130887715Y-77008613D01*
X131008028Y-77174213D01*
X131152786Y-77318971D01*
X131287410Y-77416779D01*
X131318390Y-77439287D01*
X131382379Y-77471891D01*
X131411080Y-77486515D01*
X131461876Y-77534490D01*
X131478671Y-77602311D01*
X131456134Y-77668446D01*
X131411080Y-77707485D01*
X131318386Y-77754715D01*
X131152786Y-77875028D01*
X131008030Y-78019784D01*
X130938575Y-78115384D01*
X130883245Y-78158051D01*
X130838256Y-78166500D01*
X113208519Y-78166500D01*
X113141480Y-78146815D01*
X113120838Y-78130181D01*
X108904208Y-73913551D01*
X108870723Y-73852228D01*
X108869416Y-73806477D01*
X108900500Y-73610222D01*
X108900500Y-73389778D01*
X108866015Y-73172049D01*
X108816176Y-73018657D01*
X108797896Y-72962396D01*
X108797895Y-72962393D01*
X108750478Y-72869334D01*
X108697815Y-72765978D01*
X108639501Y-72685715D01*
X108568247Y-72587641D01*
X108568243Y-72587636D01*
X108412363Y-72431756D01*
X108412358Y-72431752D01*
X108234025Y-72302187D01*
X108234024Y-72302186D01*
X108234022Y-72302185D01*
X108171096Y-72270122D01*
X108037606Y-72202104D01*
X108037603Y-72202103D01*
X107827952Y-72133985D01*
X107716488Y-72116331D01*
X107610222Y-72099500D01*
X107389778Y-72099500D01*
X107317201Y-72110995D01*
X107172047Y-72133985D01*
X106962396Y-72202103D01*
X106962393Y-72202104D01*
X106765974Y-72302187D01*
X106587641Y-72431752D01*
X106587636Y-72431756D01*
X106537463Y-72481929D01*
X106476140Y-72515413D01*
X106406448Y-72510428D01*
X106350515Y-72468557D01*
X106333601Y-72437580D01*
X106303797Y-72357671D01*
X106303793Y-72357664D01*
X106217547Y-72242455D01*
X106217544Y-72242452D01*
X106102335Y-72156206D01*
X106102328Y-72156202D01*
X105967482Y-72105908D01*
X105967483Y-72105908D01*
X105907883Y-72099501D01*
X105907881Y-72099500D01*
X105907873Y-72099500D01*
X105907865Y-72099500D01*
X105784500Y-72099500D01*
X105717461Y-72079815D01*
X105671706Y-72027011D01*
X105660500Y-71975500D01*
X105660500Y-69260571D01*
X105669940Y-69213116D01*
X105673580Y-69204329D01*
X105700500Y-69068994D01*
X105700500Y-68931006D01*
X105700500Y-68931003D01*
X105681925Y-68837626D01*
X105675734Y-68806500D01*
X105673580Y-68795671D01*
X105649203Y-68736819D01*
X105620778Y-68668194D01*
X105620771Y-68668181D01*
X105544115Y-68553458D01*
X105504111Y-68513454D01*
X105446543Y-68455886D01*
X104736818Y-67746161D01*
X104703334Y-67684839D01*
X104700500Y-67658481D01*
X104700500Y-67038137D01*
X104720185Y-66971098D01*
X104751615Y-66937818D01*
X104782073Y-66915690D01*
X104915690Y-66782073D01*
X105026760Y-66629199D01*
X105112547Y-66460832D01*
X105170940Y-66281118D01*
X105176138Y-66248301D01*
X105200500Y-66094486D01*
X105200500Y-65905513D01*
X105170940Y-65718881D01*
X105128475Y-65588189D01*
X105112547Y-65539168D01*
X105112545Y-65539165D01*
X105112545Y-65539163D01*
X105062326Y-65440603D01*
X105026760Y-65370801D01*
X104915690Y-65217927D01*
X104782073Y-65084310D01*
X104629199Y-64973240D01*
X104605475Y-64961152D01*
X104460836Y-64887454D01*
X104281118Y-64829059D01*
X104094486Y-64799500D01*
X104094481Y-64799500D01*
X103905519Y-64799500D01*
X103905514Y-64799500D01*
X103718881Y-64829059D01*
X103539163Y-64887454D01*
X103370800Y-64973240D01*
X103343401Y-64993147D01*
X103217927Y-65084310D01*
X103217925Y-65084312D01*
X103217924Y-65084312D01*
X103084312Y-65217924D01*
X103084312Y-65217925D01*
X103084310Y-65217927D01*
X103075973Y-65229402D01*
X102973240Y-65370800D01*
X102887454Y-65539163D01*
X102829059Y-65718881D01*
X102799500Y-65905513D01*
X102799500Y-66094486D01*
X102829059Y-66281118D01*
X102887454Y-66460836D01*
X102968968Y-66620814D01*
X102973240Y-66629199D01*
X103084310Y-66782073D01*
X103217927Y-66915690D01*
X103217928Y-66915691D01*
X103217927Y-66915691D01*
X103238442Y-66930595D01*
X103248383Y-66937818D01*
X103291050Y-66993147D01*
X103299500Y-67038137D01*
X103299500Y-67931006D01*
X103299500Y-68068994D01*
X103299500Y-68068996D01*
X103299499Y-68068996D01*
X103326418Y-68204322D01*
X103326421Y-68204332D01*
X103379222Y-68331807D01*
X103455885Y-68446542D01*
X103455888Y-68446546D01*
X104223181Y-69213838D01*
X104256666Y-69275161D01*
X104259500Y-69301519D01*
X104259500Y-71975500D01*
X104239815Y-72042539D01*
X104187011Y-72088294D01*
X104135501Y-72099500D01*
X104012130Y-72099500D01*
X104012123Y-72099501D01*
X103952516Y-72105908D01*
X103817671Y-72156202D01*
X103817664Y-72156206D01*
X103702455Y-72242452D01*
X103702452Y-72242455D01*
X103616206Y-72357664D01*
X103616202Y-72357671D01*
X103565908Y-72492517D01*
X103559501Y-72552116D01*
X103559500Y-72552135D01*
X103559500Y-74447870D01*
X103559501Y-74447876D01*
X103565908Y-74507483D01*
X103616202Y-74642328D01*
X103616206Y-74642335D01*
X103702452Y-74757544D01*
X103702455Y-74757547D01*
X103817664Y-74843793D01*
X103817671Y-74843797D01*
X103952517Y-74894091D01*
X103952516Y-74894091D01*
X103959444Y-74894835D01*
X104012127Y-74900500D01*
X105907872Y-74900499D01*
X105967483Y-74894091D01*
X106102331Y-74843796D01*
X106217546Y-74757546D01*
X106303796Y-74642331D01*
X106308156Y-74630641D01*
X106333601Y-74562420D01*
X106375471Y-74506486D01*
X106440936Y-74482068D01*
X106509209Y-74496919D01*
X106537464Y-74518071D01*
X106587636Y-74568243D01*
X106587641Y-74568247D01*
X106735074Y-74675362D01*
X106765978Y-74697815D01*
X106883902Y-74757901D01*
X106962393Y-74797895D01*
X106962396Y-74797896D01*
X107056163Y-74828362D01*
X107172049Y-74866015D01*
X107389778Y-74900500D01*
X107389779Y-74900500D01*
X107610221Y-74900500D01*
X107610222Y-74900500D01*
X107806475Y-74869416D01*
X107875765Y-74878370D01*
X107913551Y-74904208D01*
X112097162Y-79087819D01*
X112130647Y-79149142D01*
X112125663Y-79218834D01*
X112083791Y-79274767D01*
X112018327Y-79299184D01*
X112009481Y-79299500D01*
X105341519Y-79299500D01*
X105274480Y-79279815D01*
X105253838Y-79263181D01*
X99904208Y-73913551D01*
X99870723Y-73852228D01*
X99869416Y-73806477D01*
X99900500Y-73610222D01*
X99900500Y-73389778D01*
X99866015Y-73172049D01*
X99816176Y-73018657D01*
X99797896Y-72962396D01*
X99797895Y-72962393D01*
X99750478Y-72869334D01*
X99697815Y-72765978D01*
X99639501Y-72685715D01*
X99568247Y-72587641D01*
X99568243Y-72587636D01*
X99412363Y-72431756D01*
X99412358Y-72431752D01*
X99234025Y-72302187D01*
X99234024Y-72302186D01*
X99234022Y-72302185D01*
X99171096Y-72270122D01*
X99037606Y-72202104D01*
X99037603Y-72202103D01*
X98827952Y-72133985D01*
X98716488Y-72116331D01*
X98610222Y-72099500D01*
X98389778Y-72099500D01*
X98317201Y-72110995D01*
X98172047Y-72133985D01*
X97962396Y-72202103D01*
X97962393Y-72202104D01*
X97765974Y-72302187D01*
X97587641Y-72431752D01*
X97587636Y-72431756D01*
X97537463Y-72481929D01*
X97476140Y-72515413D01*
X97406448Y-72510428D01*
X97350515Y-72468557D01*
X97333601Y-72437580D01*
X97303797Y-72357671D01*
X97303793Y-72357664D01*
X97217547Y-72242455D01*
X97217544Y-72242452D01*
X97102335Y-72156206D01*
X97102328Y-72156202D01*
X96967482Y-72105908D01*
X96967483Y-72105908D01*
X96907883Y-72099501D01*
X96907881Y-72099500D01*
X96907873Y-72099500D01*
X96907865Y-72099500D01*
X96784500Y-72099500D01*
X96717461Y-72079815D01*
X96671706Y-72027011D01*
X96660500Y-71975500D01*
X96660500Y-69260571D01*
X96669940Y-69213116D01*
X96673580Y-69204329D01*
X96700500Y-69068994D01*
X96700500Y-68931006D01*
X96700500Y-68931003D01*
X96681925Y-68837626D01*
X96675734Y-68806500D01*
X96673580Y-68795671D01*
X96649203Y-68736819D01*
X96620778Y-68668194D01*
X96620771Y-68668181D01*
X96544115Y-68553458D01*
X96504111Y-68513454D01*
X96446543Y-68455886D01*
X95736818Y-67746161D01*
X95703334Y-67684839D01*
X95700500Y-67658481D01*
X95700500Y-67038137D01*
X95720185Y-66971098D01*
X95751615Y-66937818D01*
X95782073Y-66915690D01*
X95915690Y-66782073D01*
X96026760Y-66629199D01*
X96112547Y-66460832D01*
X96170940Y-66281118D01*
X96176138Y-66248301D01*
X96200500Y-66094486D01*
X96200500Y-65905513D01*
X96170940Y-65718881D01*
X96128475Y-65588189D01*
X96112547Y-65539168D01*
X96112545Y-65539165D01*
X96112545Y-65539163D01*
X96062326Y-65440603D01*
X96026760Y-65370801D01*
X95915690Y-65217927D01*
X95782073Y-65084310D01*
X95629199Y-64973240D01*
X95605475Y-64961152D01*
X95460836Y-64887454D01*
X95281118Y-64829059D01*
X95094486Y-64799500D01*
X95094481Y-64799500D01*
X94905519Y-64799500D01*
X94905514Y-64799500D01*
X94718881Y-64829059D01*
X94539163Y-64887454D01*
X94370800Y-64973240D01*
X94343401Y-64993147D01*
X94217927Y-65084310D01*
X94217925Y-65084312D01*
X94217924Y-65084312D01*
X94084312Y-65217924D01*
X94084312Y-65217925D01*
X94084310Y-65217927D01*
X94075973Y-65229402D01*
X93973240Y-65370800D01*
X93887454Y-65539163D01*
X93829059Y-65718881D01*
X93799500Y-65905513D01*
X93799500Y-66094486D01*
X93829059Y-66281118D01*
X93887454Y-66460836D01*
X93968968Y-66620814D01*
X93973240Y-66629199D01*
X94084310Y-66782073D01*
X94217927Y-66915690D01*
X94217928Y-66915691D01*
X94217927Y-66915691D01*
X94238442Y-66930595D01*
X94248383Y-66937818D01*
X94291050Y-66993147D01*
X94299500Y-67038137D01*
X94299500Y-67931006D01*
X94299500Y-68068994D01*
X94299500Y-68068996D01*
X94299499Y-68068996D01*
X94326418Y-68204322D01*
X94326421Y-68204332D01*
X94379222Y-68331807D01*
X94455885Y-68446542D01*
X94455888Y-68446546D01*
X95223181Y-69213838D01*
X95256666Y-69275161D01*
X95259500Y-69301519D01*
X95259500Y-71975500D01*
X95239815Y-72042539D01*
X95187011Y-72088294D01*
X95135501Y-72099500D01*
X95012130Y-72099500D01*
X95012123Y-72099501D01*
X94952516Y-72105908D01*
X94817671Y-72156202D01*
X94817664Y-72156206D01*
X94702455Y-72242452D01*
X94702452Y-72242455D01*
X94616206Y-72357664D01*
X94616202Y-72357671D01*
X94565908Y-72492517D01*
X94559501Y-72552116D01*
X94559500Y-72552135D01*
X94559500Y-74447870D01*
X94559501Y-74447876D01*
X94565908Y-74507483D01*
X94616202Y-74642328D01*
X94616206Y-74642335D01*
X94702452Y-74757544D01*
X94702455Y-74757547D01*
X94817664Y-74843793D01*
X94817671Y-74843797D01*
X94952517Y-74894091D01*
X94952516Y-74894091D01*
X94959444Y-74894835D01*
X95012127Y-74900500D01*
X96907872Y-74900499D01*
X96967483Y-74894091D01*
X97102331Y-74843796D01*
X97217546Y-74757546D01*
X97303796Y-74642331D01*
X97308156Y-74630641D01*
X97333601Y-74562420D01*
X97375471Y-74506486D01*
X97440936Y-74482068D01*
X97509209Y-74496919D01*
X97537464Y-74518071D01*
X97587636Y-74568243D01*
X97587641Y-74568247D01*
X97735074Y-74675362D01*
X97765978Y-74697815D01*
X97883902Y-74757901D01*
X97962393Y-74797895D01*
X97962396Y-74797896D01*
X98056163Y-74828362D01*
X98172049Y-74866015D01*
X98389778Y-74900500D01*
X98389779Y-74900500D01*
X98610221Y-74900500D01*
X98610222Y-74900500D01*
X98806475Y-74869416D01*
X98875765Y-74878370D01*
X98913551Y-74904208D01*
X101097162Y-77087819D01*
X101130647Y-77149142D01*
X101125663Y-77218834D01*
X101083791Y-77274767D01*
X101018327Y-77299184D01*
X101009481Y-77299500D01*
X94341519Y-77299500D01*
X94274480Y-77279815D01*
X94253838Y-77263181D01*
X93736819Y-76746162D01*
X93703334Y-76684839D01*
X93700500Y-76658481D01*
X93700500Y-70931006D01*
X93700499Y-70931002D01*
X93674343Y-70799504D01*
X93673580Y-70795671D01*
X93635744Y-70704328D01*
X93620773Y-70668185D01*
X93544115Y-70553459D01*
X93534856Y-70544200D01*
X93446542Y-70455886D01*
X93083812Y-70093156D01*
X91946546Y-68955888D01*
X91946545Y-68955887D01*
X91831807Y-68879222D01*
X91704332Y-68826421D01*
X91704322Y-68826418D01*
X91568996Y-68799500D01*
X91568994Y-68799500D01*
X91568993Y-68799500D01*
X91068993Y-68799500D01*
X88068994Y-68799500D01*
X87990520Y-68799500D01*
X87923481Y-68779815D01*
X87877726Y-68727011D01*
X87867782Y-68657853D01*
X87896807Y-68594297D01*
X87902839Y-68587819D01*
X91044111Y-65446546D01*
X91044112Y-65446545D01*
X91044114Y-65446543D01*
X91120775Y-65331811D01*
X91173580Y-65204329D01*
X91189168Y-65125962D01*
X91191138Y-65116060D01*
X91200500Y-65068995D01*
X91200500Y-61927882D01*
X94345669Y-61927882D01*
X94345670Y-61927883D01*
X94371059Y-61946329D01*
X94539362Y-62032085D01*
X94718997Y-62090451D01*
X94905553Y-62120000D01*
X95094447Y-62120000D01*
X95281002Y-62090451D01*
X95460637Y-62032085D01*
X95628937Y-61946331D01*
X95654328Y-61927883D01*
X95654328Y-61927882D01*
X103345669Y-61927882D01*
X103345670Y-61927883D01*
X103371059Y-61946329D01*
X103539362Y-62032085D01*
X103718997Y-62090451D01*
X103905553Y-62120000D01*
X104094447Y-62120000D01*
X104281002Y-62090451D01*
X104460637Y-62032085D01*
X104628937Y-61946331D01*
X104654328Y-61927883D01*
X104654328Y-61927882D01*
X112345669Y-61927882D01*
X112345670Y-61927883D01*
X112371059Y-61946329D01*
X112539362Y-62032085D01*
X112718997Y-62090451D01*
X112905553Y-62120000D01*
X113094447Y-62120000D01*
X113281002Y-62090451D01*
X113460637Y-62032085D01*
X113628937Y-61946331D01*
X113654328Y-61927883D01*
X113654328Y-61927882D01*
X121345669Y-61927882D01*
X121345670Y-61927883D01*
X121371059Y-61946329D01*
X121539362Y-62032085D01*
X121718997Y-62090451D01*
X121905553Y-62120000D01*
X122094447Y-62120000D01*
X122281002Y-62090451D01*
X122460637Y-62032085D01*
X122628937Y-61946331D01*
X122654328Y-61927883D01*
X122654328Y-61927882D01*
X122000001Y-61273554D01*
X122000000Y-61273554D01*
X121345669Y-61927882D01*
X113654328Y-61927882D01*
X113000001Y-61273554D01*
X113000000Y-61273554D01*
X112345669Y-61927882D01*
X104654328Y-61927882D01*
X104000001Y-61273554D01*
X104000000Y-61273554D01*
X103345669Y-61927882D01*
X95654328Y-61927882D01*
X95000001Y-61273554D01*
X95000000Y-61273554D01*
X94345669Y-61927882D01*
X91200500Y-61927882D01*
X91200500Y-61841519D01*
X91220185Y-61774480D01*
X91236819Y-61753838D01*
X92165105Y-60825552D01*
X93800000Y-60825552D01*
X93800000Y-61014447D01*
X93829548Y-61201002D01*
X93887914Y-61380637D01*
X93973666Y-61548933D01*
X93992116Y-61574328D01*
X94646446Y-60920000D01*
X94646446Y-60919999D01*
X94600369Y-60873922D01*
X94650000Y-60873922D01*
X94650000Y-60966078D01*
X94673852Y-61055095D01*
X94719930Y-61134905D01*
X94785095Y-61200070D01*
X94864905Y-61246148D01*
X94953922Y-61270000D01*
X95046078Y-61270000D01*
X95135095Y-61246148D01*
X95214905Y-61200070D01*
X95280070Y-61134905D01*
X95326148Y-61055095D01*
X95350000Y-60966078D01*
X95350000Y-60919999D01*
X95353554Y-60919999D01*
X95353554Y-60920000D01*
X96007882Y-61574328D01*
X96007883Y-61574328D01*
X96026331Y-61548937D01*
X96112085Y-61380637D01*
X96170451Y-61201002D01*
X96200000Y-61014447D01*
X96200000Y-60825552D01*
X102800000Y-60825552D01*
X102800000Y-61014447D01*
X102829548Y-61201002D01*
X102887914Y-61380637D01*
X102973666Y-61548933D01*
X102992116Y-61574328D01*
X103646446Y-60920000D01*
X103646446Y-60919999D01*
X103600369Y-60873922D01*
X103650000Y-60873922D01*
X103650000Y-60966078D01*
X103673852Y-61055095D01*
X103719930Y-61134905D01*
X103785095Y-61200070D01*
X103864905Y-61246148D01*
X103953922Y-61270000D01*
X104046078Y-61270000D01*
X104135095Y-61246148D01*
X104214905Y-61200070D01*
X104280070Y-61134905D01*
X104326148Y-61055095D01*
X104350000Y-60966078D01*
X104350000Y-60919999D01*
X104353554Y-60919999D01*
X104353554Y-60920000D01*
X105007882Y-61574328D01*
X105007883Y-61574328D01*
X105026331Y-61548937D01*
X105112085Y-61380637D01*
X105170451Y-61201002D01*
X105200000Y-61014447D01*
X105200000Y-60825552D01*
X111800000Y-60825552D01*
X111800000Y-61014447D01*
X111829548Y-61201002D01*
X111887914Y-61380637D01*
X111973666Y-61548933D01*
X111992116Y-61574328D01*
X112646446Y-60920000D01*
X112646446Y-60919999D01*
X112600369Y-60873922D01*
X112650000Y-60873922D01*
X112650000Y-60966078D01*
X112673852Y-61055095D01*
X112719930Y-61134905D01*
X112785095Y-61200070D01*
X112864905Y-61246148D01*
X112953922Y-61270000D01*
X113046078Y-61270000D01*
X113135095Y-61246148D01*
X113214905Y-61200070D01*
X113280070Y-61134905D01*
X113326148Y-61055095D01*
X113350000Y-60966078D01*
X113350000Y-60919999D01*
X113353554Y-60919999D01*
X113353554Y-60920000D01*
X114007882Y-61574328D01*
X114007883Y-61574328D01*
X114026331Y-61548937D01*
X114112085Y-61380637D01*
X114170451Y-61201002D01*
X114200000Y-61014447D01*
X114200000Y-60825552D01*
X120800000Y-60825552D01*
X120800000Y-61014447D01*
X120829548Y-61201002D01*
X120887914Y-61380637D01*
X120973666Y-61548933D01*
X120992116Y-61574328D01*
X121646446Y-60920000D01*
X121646446Y-60919999D01*
X120992116Y-60265669D01*
X120992116Y-60265670D01*
X120973669Y-60291060D01*
X120887914Y-60459362D01*
X120829548Y-60638997D01*
X120800000Y-60825552D01*
X114200000Y-60825552D01*
X114170451Y-60638997D01*
X114112085Y-60459362D01*
X114026329Y-60291059D01*
X114007883Y-60265670D01*
X114007882Y-60265669D01*
X113353554Y-60919999D01*
X113350000Y-60919999D01*
X113350000Y-60873922D01*
X113326148Y-60784905D01*
X113280070Y-60705095D01*
X113214905Y-60639930D01*
X113135095Y-60593852D01*
X113046078Y-60570000D01*
X112953922Y-60570000D01*
X112864905Y-60593852D01*
X112785095Y-60639930D01*
X112719930Y-60705095D01*
X112673852Y-60784905D01*
X112650000Y-60873922D01*
X112600369Y-60873922D01*
X111992116Y-60265669D01*
X111992116Y-60265670D01*
X111973669Y-60291060D01*
X111887914Y-60459362D01*
X111829548Y-60638997D01*
X111800000Y-60825552D01*
X105200000Y-60825552D01*
X105170451Y-60638997D01*
X105112085Y-60459362D01*
X105026329Y-60291059D01*
X105007883Y-60265670D01*
X105007882Y-60265669D01*
X104353554Y-60919999D01*
X104350000Y-60919999D01*
X104350000Y-60873922D01*
X104326148Y-60784905D01*
X104280070Y-60705095D01*
X104214905Y-60639930D01*
X104135095Y-60593852D01*
X104046078Y-60570000D01*
X103953922Y-60570000D01*
X103864905Y-60593852D01*
X103785095Y-60639930D01*
X103719930Y-60705095D01*
X103673852Y-60784905D01*
X103650000Y-60873922D01*
X103600369Y-60873922D01*
X102992116Y-60265669D01*
X102992116Y-60265670D01*
X102973669Y-60291060D01*
X102887914Y-60459362D01*
X102829548Y-60638997D01*
X102800000Y-60825552D01*
X96200000Y-60825552D01*
X96170451Y-60638997D01*
X96112085Y-60459362D01*
X96026329Y-60291059D01*
X96007883Y-60265670D01*
X96007882Y-60265669D01*
X95353554Y-60919999D01*
X95350000Y-60919999D01*
X95350000Y-60873922D01*
X95326148Y-60784905D01*
X95280070Y-60705095D01*
X95214905Y-60639930D01*
X95135095Y-60593852D01*
X95046078Y-60570000D01*
X94953922Y-60570000D01*
X94864905Y-60593852D01*
X94785095Y-60639930D01*
X94719930Y-60705095D01*
X94673852Y-60784905D01*
X94650000Y-60873922D01*
X94600369Y-60873922D01*
X93992116Y-60265669D01*
X93992116Y-60265670D01*
X93973669Y-60291060D01*
X93887914Y-60459362D01*
X93829548Y-60638997D01*
X93800000Y-60825552D01*
X92165105Y-60825552D01*
X93253838Y-59736819D01*
X93315161Y-59703334D01*
X93341519Y-59700500D01*
X94255301Y-59700500D01*
X94322340Y-59720185D01*
X94368095Y-59772989D01*
X94378039Y-59842147D01*
X94349014Y-59905703D01*
X94345953Y-59908511D01*
X94345669Y-59912116D01*
X95000000Y-60566446D01*
X95000001Y-60566446D01*
X95654328Y-59912116D01*
X95653454Y-59901012D01*
X95629146Y-59869489D01*
X95623167Y-59799876D01*
X95655772Y-59738080D01*
X95716611Y-59703723D01*
X95744697Y-59700500D01*
X103255301Y-59700500D01*
X103322340Y-59720185D01*
X103368095Y-59772989D01*
X103378039Y-59842147D01*
X103349014Y-59905703D01*
X103345953Y-59908511D01*
X103345669Y-59912116D01*
X104000000Y-60566446D01*
X104000001Y-60566446D01*
X104654328Y-59912116D01*
X104653454Y-59901012D01*
X104629146Y-59869489D01*
X104623167Y-59799876D01*
X104655772Y-59738080D01*
X104716611Y-59703723D01*
X104744697Y-59700500D01*
X112255301Y-59700500D01*
X112322340Y-59720185D01*
X112368095Y-59772989D01*
X112378039Y-59842147D01*
X112349014Y-59905703D01*
X112345953Y-59908511D01*
X112345669Y-59912116D01*
X113000000Y-60566446D01*
X113000001Y-60566446D01*
X113654328Y-59912116D01*
X113653454Y-59901012D01*
X113629146Y-59869489D01*
X113623167Y-59799876D01*
X113655772Y-59738080D01*
X113716611Y-59703723D01*
X113744697Y-59700500D01*
X117083996Y-59700500D01*
X117175040Y-59682389D01*
X117219328Y-59673580D01*
X117283069Y-59647177D01*
X117346807Y-59620777D01*
X117346808Y-59620776D01*
X117346811Y-59620775D01*
X117461543Y-59544114D01*
X119919819Y-57085838D01*
X119981142Y-57052353D01*
X120050834Y-57057337D01*
G37*
%TD.AperFunction*%
%TA.AperFunction,Conductor*%
G36*
X74602295Y-77800185D02*
G01*
X74635575Y-77831616D01*
X74705030Y-77927215D01*
X74849786Y-78071971D01*
X74979897Y-78166500D01*
X75015390Y-78192287D01*
X75106840Y-78238883D01*
X75108080Y-78239515D01*
X75158876Y-78287490D01*
X75175671Y-78355311D01*
X75153134Y-78421446D01*
X75108080Y-78460485D01*
X75015386Y-78507715D01*
X74849786Y-78628028D01*
X74705028Y-78772786D01*
X74584715Y-78938386D01*
X74534985Y-79035986D01*
X74487010Y-79086782D01*
X74419189Y-79103577D01*
X74353054Y-79081039D01*
X74309603Y-79026324D01*
X74300500Y-78979691D01*
X74300500Y-78921155D01*
X74300499Y-78921153D01*
X74288557Y-78861118D01*
X74269737Y-78766503D01*
X74242398Y-78700500D01*
X74209397Y-78620827D01*
X74209390Y-78620814D01*
X74121789Y-78489711D01*
X74121786Y-78489707D01*
X74010292Y-78378213D01*
X74010288Y-78378210D01*
X73879185Y-78290609D01*
X73879172Y-78290602D01*
X73733501Y-78230264D01*
X73733489Y-78230261D01*
X73578840Y-78199499D01*
X73577856Y-78199402D01*
X73577373Y-78199207D01*
X73572868Y-78198311D01*
X73573038Y-78197456D01*
X73562839Y-78193337D01*
X73546683Y-78192182D01*
X73531108Y-78180523D01*
X73513070Y-78173238D01*
X73503714Y-78160015D01*
X73490750Y-78150310D01*
X73483952Y-78132084D01*
X73472714Y-78116201D01*
X73471992Y-78100019D01*
X73466333Y-78084846D01*
X73470468Y-78065835D01*
X73469602Y-78046400D01*
X73477899Y-78031678D01*
X73481185Y-78016573D01*
X73502333Y-77988322D01*
X73673837Y-77816819D01*
X73735160Y-77783334D01*
X73761518Y-77780500D01*
X74535256Y-77780500D01*
X74602295Y-77800185D01*
G37*
%TD.AperFunction*%
%TA.AperFunction,Conductor*%
G36*
X140002702Y-50500617D02*
G01*
X140386771Y-50517386D01*
X140397506Y-50518326D01*
X140775971Y-50568152D01*
X140786597Y-50570025D01*
X141159284Y-50652648D01*
X141169710Y-50655442D01*
X141533765Y-50770227D01*
X141543911Y-50773920D01*
X141896578Y-50920000D01*
X141906369Y-50924566D01*
X142244942Y-51100816D01*
X142254310Y-51106224D01*
X142576244Y-51311318D01*
X142585105Y-51317523D01*
X142887930Y-51549889D01*
X142896217Y-51556843D01*
X143177635Y-51814715D01*
X143185284Y-51822364D01*
X143443156Y-52103782D01*
X143450110Y-52112069D01*
X143682476Y-52414894D01*
X143688681Y-52423755D01*
X143893775Y-52745689D01*
X143899183Y-52755057D01*
X144075430Y-53093623D01*
X144080002Y-53103427D01*
X144226075Y-53456078D01*
X144229775Y-53466244D01*
X144344554Y-53830278D01*
X144347354Y-53840727D01*
X144429971Y-54213389D01*
X144431849Y-54224042D01*
X144481671Y-54602473D01*
X144482614Y-54613249D01*
X144499382Y-54997297D01*
X144499500Y-55002706D01*
X144499500Y-99997293D01*
X144499382Y-100002702D01*
X144482614Y-100386750D01*
X144481671Y-100397526D01*
X144431849Y-100775957D01*
X144429971Y-100786610D01*
X144347354Y-101159272D01*
X144344554Y-101169721D01*
X144229775Y-101533755D01*
X144226075Y-101543921D01*
X144080002Y-101896572D01*
X144075430Y-101906376D01*
X143899183Y-102244942D01*
X143893775Y-102254310D01*
X143688681Y-102576244D01*
X143682476Y-102585105D01*
X143450110Y-102887930D01*
X143443156Y-102896217D01*
X143185284Y-103177635D01*
X143177635Y-103185284D01*
X142896217Y-103443156D01*
X142887930Y-103450110D01*
X142585105Y-103682476D01*
X142576244Y-103688681D01*
X142254310Y-103893775D01*
X142244942Y-103899183D01*
X141906376Y-104075430D01*
X141896572Y-104080002D01*
X141543921Y-104226075D01*
X141533755Y-104229775D01*
X141169721Y-104344554D01*
X141159272Y-104347354D01*
X140786610Y-104429971D01*
X140775957Y-104431849D01*
X140397526Y-104481671D01*
X140386750Y-104482614D01*
X140002703Y-104499382D01*
X139997294Y-104499500D01*
X55002706Y-104499500D01*
X54997297Y-104499382D01*
X54613249Y-104482614D01*
X54602473Y-104481671D01*
X54224042Y-104431849D01*
X54213389Y-104429971D01*
X53840727Y-104347354D01*
X53830278Y-104344554D01*
X53466244Y-104229775D01*
X53456078Y-104226075D01*
X53103427Y-104080002D01*
X53093623Y-104075430D01*
X52755057Y-103899183D01*
X52745689Y-103893775D01*
X52423755Y-103688681D01*
X52414894Y-103682476D01*
X52112069Y-103450110D01*
X52103782Y-103443156D01*
X51822364Y-103185284D01*
X51814715Y-103177635D01*
X51556843Y-102896217D01*
X51549889Y-102887930D01*
X51317523Y-102585105D01*
X51311318Y-102576244D01*
X51106224Y-102254310D01*
X51100816Y-102244942D01*
X51098355Y-102240214D01*
X50924566Y-101906369D01*
X50919997Y-101896572D01*
X50773920Y-101543911D01*
X50770224Y-101533755D01*
X50767341Y-101524610D01*
X50655442Y-101169710D01*
X50652648Y-101159284D01*
X50570025Y-100786597D01*
X50568152Y-100775974D01*
X50518345Y-100397648D01*
X52699500Y-100397648D01*
X52699500Y-100602352D01*
X52703239Y-100625961D01*
X52731522Y-100804534D01*
X52794781Y-100999223D01*
X52852283Y-101112075D01*
X52883582Y-101173503D01*
X52887715Y-101181613D01*
X53008028Y-101347213D01*
X53152786Y-101491971D01*
X53245599Y-101559402D01*
X53318390Y-101612287D01*
X53409051Y-101658481D01*
X53500776Y-101705218D01*
X53500778Y-101705218D01*
X53500781Y-101705220D01*
X53605137Y-101739127D01*
X53695465Y-101768477D01*
X53767050Y-101779815D01*
X53897648Y-101800500D01*
X53897649Y-101800500D01*
X54102351Y-101800500D01*
X54102352Y-101800500D01*
X54304534Y-101768477D01*
X54499219Y-101705220D01*
X54681610Y-101612287D01*
X54774590Y-101544732D01*
X54847213Y-101491971D01*
X54847215Y-101491968D01*
X54847219Y-101491966D01*
X54948683Y-101390502D01*
X61354500Y-101390502D01*
X61354500Y-101609497D01*
X61369154Y-101720798D01*
X61383083Y-101826598D01*
X61403172Y-101901571D01*
X61439715Y-102037956D01*
X61439759Y-102038117D01*
X61523560Y-102240428D01*
X61523562Y-102240433D01*
X61523565Y-102240438D01*
X61633049Y-102430070D01*
X61766355Y-102603798D01*
X61766361Y-102603805D01*
X61921194Y-102758638D01*
X61921201Y-102758644D01*
X62094929Y-102891950D01*
X62284561Y-103001434D01*
X62284563Y-103001434D01*
X62284572Y-103001440D01*
X62486883Y-103085241D01*
X62698402Y-103141917D01*
X62915510Y-103170500D01*
X62915517Y-103170500D01*
X63134483Y-103170500D01*
X63134490Y-103170500D01*
X63351598Y-103141917D01*
X63563117Y-103085241D01*
X63765428Y-103001440D01*
X63955071Y-102891950D01*
X64128800Y-102758643D01*
X64283643Y-102603800D01*
X64416950Y-102430071D01*
X64526440Y-102240428D01*
X64610241Y-102038117D01*
X64666917Y-101826598D01*
X64695500Y-101609490D01*
X64695500Y-101390510D01*
X64695499Y-101390502D01*
X66354500Y-101390502D01*
X66354500Y-101609497D01*
X66369154Y-101720798D01*
X66383083Y-101826598D01*
X66403172Y-101901571D01*
X66439715Y-102037956D01*
X66439759Y-102038117D01*
X66523560Y-102240428D01*
X66523562Y-102240433D01*
X66523565Y-102240438D01*
X66633049Y-102430070D01*
X66766355Y-102603798D01*
X66766361Y-102603805D01*
X66921194Y-102758638D01*
X66921201Y-102758644D01*
X67094929Y-102891950D01*
X67284561Y-103001434D01*
X67284563Y-103001434D01*
X67284572Y-103001440D01*
X67486883Y-103085241D01*
X67698402Y-103141917D01*
X67915510Y-103170500D01*
X67915517Y-103170500D01*
X68134483Y-103170500D01*
X68134490Y-103170500D01*
X68351598Y-103141917D01*
X68563117Y-103085241D01*
X68765428Y-103001440D01*
X68955071Y-102891950D01*
X69128800Y-102758643D01*
X69128805Y-102758638D01*
X69178517Y-102708927D01*
X69283638Y-102603805D01*
X69283643Y-102603800D01*
X69416950Y-102430071D01*
X69526440Y-102240428D01*
X69610241Y-102038117D01*
X69666917Y-101826598D01*
X69695500Y-101609490D01*
X69695500Y-101390548D01*
X71355000Y-101390548D01*
X71355000Y-101609451D01*
X71355001Y-101609467D01*
X71383573Y-101826496D01*
X71440234Y-102037956D01*
X71524004Y-102240198D01*
X71524012Y-102240214D01*
X71633460Y-102429782D01*
X71633466Y-102429790D01*
X71680438Y-102491007D01*
X72423958Y-101747487D01*
X72448978Y-101807890D01*
X72520112Y-101914351D01*
X72610649Y-102004888D01*
X72717110Y-102076022D01*
X72777511Y-102101041D01*
X72033991Y-102844560D01*
X72033991Y-102844561D01*
X72095200Y-102891527D01*
X72095208Y-102891532D01*
X72284792Y-103000990D01*
X72284801Y-103000995D01*
X72487043Y-103084765D01*
X72698503Y-103141426D01*
X72915532Y-103169998D01*
X72915549Y-103170000D01*
X73134451Y-103170000D01*
X73134467Y-103169998D01*
X73351496Y-103141426D01*
X73562956Y-103084765D01*
X73765198Y-103000995D01*
X73765214Y-103000987D01*
X73954785Y-102891537D01*
X73954793Y-102891531D01*
X74016007Y-102844560D01*
X73272488Y-102101041D01*
X73332890Y-102076022D01*
X73439351Y-102004888D01*
X73529888Y-101914351D01*
X73601022Y-101807890D01*
X73626041Y-101747488D01*
X74369560Y-102491007D01*
X74416531Y-102429793D01*
X74416537Y-102429785D01*
X74525987Y-102240214D01*
X74525995Y-102240198D01*
X74609765Y-102037956D01*
X74666426Y-101826496D01*
X74694998Y-101609467D01*
X74695000Y-101609451D01*
X74695000Y-101390548D01*
X74694998Y-101390532D01*
X74666426Y-101173503D01*
X74609765Y-100962043D01*
X74525995Y-100759801D01*
X74525990Y-100759792D01*
X74416532Y-100570208D01*
X74416527Y-100570200D01*
X74369560Y-100508991D01*
X73626041Y-101252510D01*
X73601022Y-101192110D01*
X73529888Y-101085649D01*
X73439351Y-100995112D01*
X73332890Y-100923978D01*
X73272487Y-100898957D01*
X74016007Y-100155438D01*
X74016007Y-100155437D01*
X73954790Y-100108466D01*
X73954782Y-100108460D01*
X73765214Y-99999012D01*
X73765198Y-99999004D01*
X73562956Y-99915234D01*
X73351496Y-99858573D01*
X73134467Y-99830001D01*
X73134451Y-99830000D01*
X72915549Y-99830000D01*
X72915532Y-99830001D01*
X72698503Y-99858573D01*
X72487043Y-99915234D01*
X72284801Y-99999004D01*
X72284785Y-99999012D01*
X72095215Y-100108461D01*
X72095200Y-100108471D01*
X72033990Y-100155438D01*
X72777511Y-100898958D01*
X72717110Y-100923978D01*
X72610649Y-100995112D01*
X72520112Y-101085649D01*
X72448978Y-101192110D01*
X72423958Y-101252511D01*
X71680438Y-100508990D01*
X71633471Y-100570200D01*
X71633461Y-100570215D01*
X71524012Y-100759785D01*
X71524004Y-100759801D01*
X71440234Y-100962043D01*
X71383573Y-101173503D01*
X71355001Y-101390532D01*
X71355000Y-101390548D01*
X69695500Y-101390548D01*
X69695500Y-101390510D01*
X69666917Y-101173402D01*
X69610241Y-100961883D01*
X69526440Y-100759572D01*
X69497357Y-100709199D01*
X69416950Y-100569929D01*
X69283644Y-100396201D01*
X69283638Y-100396194D01*
X69128805Y-100241361D01*
X69128798Y-100241355D01*
X68955070Y-100108049D01*
X68765438Y-99998565D01*
X68765433Y-99998562D01*
X68765428Y-99998560D01*
X68563117Y-99914759D01*
X68563118Y-99914759D01*
X68563115Y-99914758D01*
X68454353Y-99885616D01*
X68351598Y-99858083D01*
X68315314Y-99853306D01*
X68134497Y-99829500D01*
X68134490Y-99829500D01*
X67915510Y-99829500D01*
X67915502Y-99829500D01*
X67708853Y-99856707D01*
X67698402Y-99858083D01*
X67657051Y-99869163D01*
X67486884Y-99914758D01*
X67383592Y-99957544D01*
X67284572Y-99998560D01*
X67284569Y-99998561D01*
X67284561Y-99998565D01*
X67094929Y-100108049D01*
X66921201Y-100241355D01*
X66921194Y-100241361D01*
X66766361Y-100396194D01*
X66766355Y-100396201D01*
X66633049Y-100569929D01*
X66523565Y-100759561D01*
X66523561Y-100759569D01*
X66523560Y-100759572D01*
X66510612Y-100790832D01*
X66439758Y-100961884D01*
X66383084Y-101173399D01*
X66383082Y-101173410D01*
X66354500Y-101390502D01*
X64695499Y-101390502D01*
X64666917Y-101173402D01*
X64610241Y-100961883D01*
X64526440Y-100759572D01*
X64497357Y-100709199D01*
X64416950Y-100569929D01*
X64283644Y-100396201D01*
X64283638Y-100396194D01*
X64128805Y-100241361D01*
X64128798Y-100241355D01*
X63955070Y-100108049D01*
X63787500Y-100011302D01*
X63739284Y-99960735D01*
X63725500Y-99903915D01*
X63725500Y-94816519D01*
X63745185Y-94749480D01*
X63761819Y-94728838D01*
X65253838Y-93236819D01*
X65315161Y-93203334D01*
X65341519Y-93200500D01*
X77068996Y-93200500D01*
X77177457Y-93178925D01*
X77204328Y-93173580D01*
X77311474Y-93129199D01*
X77331807Y-93120777D01*
X77331808Y-93120776D01*
X77331811Y-93120775D01*
X77446543Y-93044114D01*
X77612019Y-92878637D01*
X77673339Y-92845154D01*
X77743031Y-92850138D01*
X77798965Y-92892009D01*
X77802800Y-92897429D01*
X77878210Y-93010288D01*
X77878213Y-93010292D01*
X77989707Y-93121786D01*
X77989711Y-93121789D01*
X78120814Y-93209390D01*
X78120827Y-93209397D01*
X78265185Y-93269191D01*
X78305414Y-93296071D01*
X80473453Y-95464111D01*
X80473454Y-95464112D01*
X80588192Y-95540777D01*
X80715667Y-95593578D01*
X80715672Y-95593580D01*
X80715676Y-95593580D01*
X80715677Y-95593581D01*
X80851003Y-95620500D01*
X80851006Y-95620500D01*
X80851007Y-95620500D01*
X88837500Y-95620500D01*
X88904539Y-95640185D01*
X88950294Y-95692989D01*
X88961500Y-95744500D01*
X88961500Y-98775500D01*
X88941815Y-98842539D01*
X88889011Y-98888294D01*
X88837500Y-98899500D01*
X88514130Y-98899500D01*
X88514123Y-98899501D01*
X88454516Y-98905908D01*
X88319671Y-98956202D01*
X88319664Y-98956206D01*
X88204455Y-99042452D01*
X88204452Y-99042455D01*
X88118206Y-99157664D01*
X88118202Y-99157671D01*
X88067908Y-99292517D01*
X88061501Y-99352116D01*
X88061501Y-99352123D01*
X88061500Y-99352135D01*
X88061500Y-101647870D01*
X88061501Y-101647876D01*
X88067908Y-101707483D01*
X88118202Y-101842328D01*
X88118206Y-101842335D01*
X88204452Y-101957544D01*
X88204455Y-101957547D01*
X88319664Y-102043793D01*
X88319671Y-102043797D01*
X88454517Y-102094091D01*
X88454516Y-102094091D01*
X88461444Y-102094835D01*
X88514127Y-102100500D01*
X90809872Y-102100499D01*
X90869483Y-102094091D01*
X91004331Y-102043796D01*
X91119546Y-101957546D01*
X91205796Y-101842331D01*
X91256091Y-101707483D01*
X91262500Y-101647873D01*
X91262499Y-99352128D01*
X91256091Y-99292517D01*
X91251124Y-99279201D01*
X91205797Y-99157671D01*
X91205793Y-99157664D01*
X91119547Y-99042455D01*
X91119544Y-99042452D01*
X91004335Y-98956206D01*
X91004328Y-98956202D01*
X90869482Y-98905908D01*
X90869483Y-98905908D01*
X90809883Y-98899501D01*
X90809881Y-98899500D01*
X90809873Y-98899500D01*
X90809865Y-98899500D01*
X90486500Y-98899500D01*
X90419461Y-98879815D01*
X90373706Y-98827011D01*
X90362500Y-98775500D01*
X90362500Y-95099518D01*
X90382185Y-95032479D01*
X90398819Y-95011837D01*
X91039597Y-94371059D01*
X91681255Y-93729400D01*
X91742576Y-93695917D01*
X91788332Y-93694610D01*
X91796584Y-93695917D01*
X91825519Y-93700500D01*
X91825520Y-93700500D01*
X92014486Y-93700500D01*
X92201118Y-93670940D01*
X92380832Y-93612547D01*
X92549199Y-93526760D01*
X92702073Y-93415690D01*
X92835690Y-93282073D01*
X92946760Y-93129199D01*
X93032547Y-92960832D01*
X93090940Y-92781118D01*
X93097651Y-92738745D01*
X93120500Y-92594486D01*
X93120500Y-92405513D01*
X95799500Y-92405513D01*
X95799500Y-92594486D01*
X95829059Y-92781118D01*
X95887454Y-92960836D01*
X95929887Y-93044114D01*
X95973240Y-93129199D01*
X96084310Y-93282073D01*
X96217927Y-93415690D01*
X96370801Y-93526760D01*
X96450347Y-93567290D01*
X96539163Y-93612545D01*
X96539165Y-93612545D01*
X96539168Y-93612547D01*
X96635497Y-93643846D01*
X96718881Y-93670940D01*
X96905514Y-93700500D01*
X96905519Y-93700500D01*
X97094480Y-93700500D01*
X97094481Y-93700500D01*
X97131666Y-93694610D01*
X97200958Y-93703564D01*
X97238745Y-93729402D01*
X99085181Y-95575838D01*
X99118666Y-95637161D01*
X99121500Y-95663519D01*
X99121500Y-98984651D01*
X99101815Y-99051690D01*
X99053796Y-99095135D01*
X98983153Y-99131130D01*
X98779350Y-99279201D01*
X98779345Y-99279205D01*
X98601205Y-99457345D01*
X98601201Y-99457350D01*
X98453132Y-99661151D01*
X98338760Y-99885616D01*
X98260910Y-100125214D01*
X98221500Y-100374038D01*
X98221500Y-100625961D01*
X98260910Y-100874785D01*
X98338760Y-101114383D01*
X98453132Y-101338848D01*
X98601201Y-101542649D01*
X98601205Y-101542654D01*
X98779345Y-101720794D01*
X98779350Y-101720798D01*
X98899223Y-101807890D01*
X98983155Y-101868870D01*
X99072417Y-101914351D01*
X99207616Y-101983239D01*
X99207618Y-101983239D01*
X99207621Y-101983241D01*
X99447215Y-102061090D01*
X99696038Y-102100500D01*
X99696039Y-102100500D01*
X99947961Y-102100500D01*
X99947962Y-102100500D01*
X100196785Y-102061090D01*
X100436379Y-101983241D01*
X100660845Y-101868870D01*
X100864656Y-101720793D01*
X101042793Y-101542656D01*
X101190870Y-101338845D01*
X101305241Y-101114379D01*
X101383090Y-100874785D01*
X101422500Y-100625962D01*
X101422500Y-100374038D01*
X101383090Y-100125215D01*
X101305241Y-99885621D01*
X101305239Y-99885618D01*
X101305239Y-99885616D01*
X101214475Y-99707483D01*
X101190870Y-99661155D01*
X101161534Y-99620777D01*
X101133137Y-99581691D01*
X101082602Y-99512135D01*
X106899500Y-99512135D01*
X106899500Y-101807870D01*
X106899501Y-101807876D01*
X106905908Y-101867483D01*
X106956202Y-102002328D01*
X106956206Y-102002335D01*
X107042452Y-102117544D01*
X107042455Y-102117547D01*
X107157664Y-102203793D01*
X107157671Y-102203797D01*
X107292517Y-102254091D01*
X107292516Y-102254091D01*
X107299444Y-102254835D01*
X107352127Y-102260500D01*
X109058479Y-102260499D01*
X109125518Y-102280184D01*
X109146160Y-102296818D01*
X109393454Y-102544112D01*
X109508190Y-102620776D01*
X109606790Y-102661617D01*
X109635671Y-102673580D01*
X109635672Y-102673580D01*
X109635677Y-102673582D01*
X109662545Y-102678925D01*
X109662551Y-102678926D01*
X109662591Y-102678934D01*
X109752937Y-102696905D01*
X109771006Y-102700500D01*
X109771007Y-102700500D01*
X117651996Y-102700500D01*
X117760457Y-102678925D01*
X117787328Y-102673580D01*
X117851069Y-102647177D01*
X117914807Y-102620777D01*
X117914808Y-102620776D01*
X117914811Y-102620775D01*
X118029543Y-102544114D01*
X119014254Y-101559401D01*
X119075577Y-101525917D01*
X119121333Y-101524610D01*
X119158519Y-101530500D01*
X119158520Y-101530500D01*
X119347486Y-101530500D01*
X119534118Y-101500940D01*
X119537014Y-101499999D01*
X119713832Y-101442547D01*
X119882199Y-101356760D01*
X120035073Y-101245690D01*
X120168690Y-101112073D01*
X120279760Y-100959199D01*
X120365547Y-100790832D01*
X120423940Y-100611118D01*
X120430418Y-100570215D01*
X120453500Y-100424486D01*
X120453500Y-100235513D01*
X120423940Y-100048881D01*
X120380515Y-99915234D01*
X120365547Y-99869168D01*
X120365545Y-99869165D01*
X120365545Y-99869163D01*
X120320290Y-99780347D01*
X120279760Y-99700801D01*
X120168690Y-99547927D01*
X120035073Y-99414310D01*
X119882199Y-99303240D01*
X119861152Y-99292516D01*
X119713836Y-99217454D01*
X119534118Y-99159059D01*
X119347486Y-99129500D01*
X119347481Y-99129500D01*
X119158519Y-99129500D01*
X119158514Y-99129500D01*
X118971881Y-99159059D01*
X118792163Y-99217454D01*
X118623800Y-99303240D01*
X118556514Y-99352127D01*
X118470927Y-99414310D01*
X118470925Y-99414312D01*
X118470924Y-99414312D01*
X118337312Y-99547924D01*
X118337312Y-99547925D01*
X118337310Y-99547927D01*
X118312779Y-99581691D01*
X118226240Y-99700800D01*
X118140454Y-99869163D01*
X118082059Y-100048881D01*
X118052500Y-100235513D01*
X118052500Y-100424482D01*
X118058389Y-100461668D01*
X118049433Y-100530961D01*
X118023596Y-100568745D01*
X117329162Y-101263181D01*
X117267839Y-101296666D01*
X117241481Y-101299500D01*
X110224499Y-101299500D01*
X110157460Y-101279815D01*
X110111705Y-101227011D01*
X110100499Y-101175500D01*
X110100499Y-99512129D01*
X110100498Y-99512123D01*
X110100497Y-99512116D01*
X110094091Y-99452517D01*
X110079841Y-99414312D01*
X110043797Y-99317671D01*
X110043793Y-99317664D01*
X109957547Y-99202455D01*
X109957544Y-99202452D01*
X109842335Y-99116206D01*
X109842328Y-99116202D01*
X109707482Y-99065908D01*
X109707483Y-99065908D01*
X109647883Y-99059501D01*
X109647881Y-99059500D01*
X109647873Y-99059500D01*
X109647864Y-99059500D01*
X107352129Y-99059500D01*
X107352123Y-99059501D01*
X107292516Y-99065908D01*
X107157671Y-99116202D01*
X107157664Y-99116206D01*
X107042455Y-99202452D01*
X107042452Y-99202455D01*
X106956206Y-99317664D01*
X106956202Y-99317671D01*
X106905908Y-99452517D01*
X106899940Y-99508034D01*
X106899501Y-99512123D01*
X106899500Y-99512135D01*
X101082602Y-99512135D01*
X101042798Y-99457350D01*
X101042794Y-99457345D01*
X100864654Y-99279205D01*
X100864649Y-99279201D01*
X100660846Y-99131130D01*
X100590204Y-99095135D01*
X100539408Y-99047160D01*
X100522500Y-98984651D01*
X100522500Y-95253005D01*
X100514921Y-95214905D01*
X100505239Y-95166233D01*
X100495580Y-95117672D01*
X100442775Y-94990189D01*
X100366114Y-94875457D01*
X100366112Y-94875454D01*
X100366111Y-94875453D01*
X98229402Y-92738745D01*
X98195917Y-92677422D01*
X98194610Y-92631665D01*
X98196120Y-92622136D01*
X98200500Y-92594481D01*
X98200500Y-92405519D01*
X98200500Y-92405513D01*
X98170940Y-92218881D01*
X98119670Y-92061090D01*
X98112547Y-92039168D01*
X98112545Y-92039165D01*
X98112545Y-92039163D01*
X98031052Y-91879225D01*
X98026760Y-91870801D01*
X97915690Y-91717927D01*
X97782073Y-91584310D01*
X97629199Y-91473240D01*
X97460836Y-91387454D01*
X97281118Y-91329059D01*
X97094486Y-91299500D01*
X97094481Y-91299500D01*
X96905519Y-91299500D01*
X96905514Y-91299500D01*
X96718881Y-91329059D01*
X96539163Y-91387454D01*
X96370800Y-91473240D01*
X96283579Y-91536610D01*
X96217927Y-91584310D01*
X96217925Y-91584312D01*
X96217924Y-91584312D01*
X96084312Y-91717924D01*
X96084312Y-91717925D01*
X96084310Y-91717927D01*
X96051431Y-91763181D01*
X95973240Y-91870800D01*
X95887454Y-92039163D01*
X95829059Y-92218881D01*
X95799500Y-92405513D01*
X93120500Y-92405513D01*
X93090940Y-92218881D01*
X93039670Y-92061090D01*
X93032547Y-92039168D01*
X93032545Y-92039165D01*
X93032545Y-92039163D01*
X92951052Y-91879225D01*
X92946760Y-91870801D01*
X92835690Y-91717927D01*
X92702073Y-91584310D01*
X92680991Y-91568993D01*
X92671613Y-91562179D01*
X92628948Y-91506848D01*
X92620500Y-91461862D01*
X92620500Y-90421518D01*
X92640185Y-90354479D01*
X92656819Y-90333837D01*
X93753837Y-89236819D01*
X93815160Y-89203334D01*
X93841518Y-89200500D01*
X96158481Y-89200500D01*
X96225520Y-89220185D01*
X96246162Y-89236819D01*
X98053453Y-91044111D01*
X98053454Y-91044112D01*
X98053457Y-91044114D01*
X98137845Y-91100500D01*
X98168189Y-91120775D01*
X98295672Y-91173580D01*
X98295676Y-91173580D01*
X98295677Y-91173581D01*
X98431004Y-91200500D01*
X98431007Y-91200500D01*
X106984652Y-91200500D01*
X107051691Y-91220185D01*
X107095137Y-91268205D01*
X107126144Y-91329060D01*
X107131132Y-91338848D01*
X107279201Y-91542649D01*
X107279205Y-91542654D01*
X107457345Y-91720794D01*
X107457350Y-91720798D01*
X107565240Y-91799184D01*
X107661155Y-91868870D01*
X107804184Y-91941747D01*
X107885616Y-91983239D01*
X107885618Y-91983239D01*
X107885621Y-91983241D01*
X108125215Y-92061090D01*
X108374038Y-92100500D01*
X108374039Y-92100500D01*
X108625961Y-92100500D01*
X108625962Y-92100500D01*
X108874785Y-92061090D01*
X109114379Y-91983241D01*
X109338845Y-91868870D01*
X109542656Y-91720793D01*
X109720793Y-91542656D01*
X109868870Y-91338845D01*
X109983241Y-91114379D01*
X110061090Y-90874785D01*
X110100500Y-90625962D01*
X110100500Y-90390519D01*
X110120185Y-90323480D01*
X110172989Y-90277725D01*
X110242147Y-90267781D01*
X110305703Y-90296806D01*
X110312181Y-90302838D01*
X113053453Y-93044111D01*
X113053454Y-93044112D01*
X113168190Y-93120776D01*
X113266790Y-93161617D01*
X113295671Y-93173580D01*
X113295672Y-93173580D01*
X113295677Y-93173582D01*
X113322545Y-93178925D01*
X113322551Y-93178926D01*
X113322591Y-93178934D01*
X113412937Y-93196905D01*
X113431006Y-93200500D01*
X113431007Y-93200500D01*
X116161481Y-93200500D01*
X116228520Y-93220185D01*
X116249162Y-93236819D01*
X118023597Y-95011254D01*
X118057082Y-95072577D01*
X118058389Y-95118333D01*
X118052500Y-95155513D01*
X118052500Y-95344486D01*
X118082059Y-95531118D01*
X118140454Y-95710836D01*
X118226240Y-95879199D01*
X118337310Y-96032073D01*
X118470927Y-96165690D01*
X118623801Y-96276760D01*
X118703347Y-96317290D01*
X118792163Y-96362545D01*
X118792165Y-96362545D01*
X118792168Y-96362547D01*
X118888497Y-96393846D01*
X118971881Y-96420940D01*
X119158514Y-96450500D01*
X119158519Y-96450500D01*
X119347486Y-96450500D01*
X119534118Y-96420940D01*
X119713832Y-96362547D01*
X119882199Y-96276760D01*
X120035073Y-96165690D01*
X120168690Y-96032073D01*
X120190821Y-96001613D01*
X120195152Y-95998273D01*
X120197425Y-95993297D01*
X120222525Y-95977165D01*
X120246152Y-95958948D01*
X120252822Y-95957695D01*
X120256203Y-95955523D01*
X120291138Y-95950500D01*
X120408481Y-95950500D01*
X120475520Y-95970185D01*
X120496162Y-95986819D01*
X124053453Y-99544111D01*
X124053454Y-99544112D01*
X124168192Y-99620777D01*
X124265675Y-99661155D01*
X124295672Y-99673580D01*
X124295676Y-99673580D01*
X124295677Y-99673581D01*
X124431003Y-99700500D01*
X124431006Y-99700500D01*
X124431007Y-99700500D01*
X125817209Y-99700500D01*
X125884248Y-99720185D01*
X125930003Y-99772989D01*
X125933391Y-99781167D01*
X125956202Y-99842328D01*
X125956206Y-99842335D01*
X126042452Y-99957544D01*
X126042455Y-99957547D01*
X126157664Y-100043793D01*
X126157669Y-100043796D01*
X126218833Y-100066608D01*
X126274766Y-100108478D01*
X126299184Y-100173942D01*
X126299500Y-100182790D01*
X126299500Y-101931006D01*
X126299500Y-102068994D01*
X126299500Y-102068996D01*
X126299499Y-102068996D01*
X126326418Y-102204322D01*
X126326421Y-102204332D01*
X126379222Y-102331807D01*
X126455887Y-102446545D01*
X127053454Y-103044112D01*
X127168192Y-103120777D01*
X127287024Y-103169998D01*
X127295672Y-103173580D01*
X127295676Y-103173580D01*
X127295677Y-103173581D01*
X127431003Y-103200500D01*
X127431006Y-103200500D01*
X133648996Y-103200500D01*
X133763942Y-103177635D01*
X133784328Y-103173580D01*
X133860770Y-103141917D01*
X133911807Y-103120777D01*
X133911808Y-103120776D01*
X133911811Y-103120775D01*
X134026543Y-103044114D01*
X135761254Y-101309401D01*
X135822577Y-101275917D01*
X135868333Y-101274610D01*
X135905519Y-101280500D01*
X135905520Y-101280500D01*
X136094486Y-101280500D01*
X136281118Y-101250940D01*
X136354763Y-101227011D01*
X136460832Y-101192547D01*
X136629199Y-101106760D01*
X136782073Y-100995690D01*
X136915690Y-100862073D01*
X137026760Y-100709199D01*
X137112547Y-100540832D01*
X137159071Y-100397648D01*
X139699500Y-100397648D01*
X139699500Y-100602352D01*
X139703239Y-100625961D01*
X139731522Y-100804534D01*
X139794781Y-100999223D01*
X139852283Y-101112075D01*
X139883582Y-101173503D01*
X139887715Y-101181613D01*
X140008028Y-101347213D01*
X140152786Y-101491971D01*
X140245599Y-101559402D01*
X140318390Y-101612287D01*
X140409051Y-101658481D01*
X140500776Y-101705218D01*
X140500778Y-101705218D01*
X140500781Y-101705220D01*
X140605137Y-101739127D01*
X140695465Y-101768477D01*
X140767050Y-101779815D01*
X140897648Y-101800500D01*
X140897649Y-101800500D01*
X141102351Y-101800500D01*
X141102352Y-101800500D01*
X141304534Y-101768477D01*
X141499219Y-101705220D01*
X141681610Y-101612287D01*
X141774590Y-101544732D01*
X141847213Y-101491971D01*
X141847215Y-101491968D01*
X141847219Y-101491966D01*
X141991966Y-101347219D01*
X141991968Y-101347215D01*
X141991971Y-101347213D01*
X142061916Y-101250940D01*
X142112287Y-101181610D01*
X142205220Y-100999219D01*
X142268477Y-100804534D01*
X142300500Y-100602352D01*
X142300500Y-100397648D01*
X142298774Y-100386750D01*
X142268477Y-100195465D01*
X142220849Y-100048882D01*
X142205220Y-100000781D01*
X142205218Y-100000778D01*
X142205218Y-100000776D01*
X142171248Y-99934108D01*
X142112287Y-99818390D01*
X142079302Y-99772989D01*
X141991971Y-99652786D01*
X141847213Y-99508028D01*
X141681613Y-99387715D01*
X141681612Y-99387714D01*
X141681610Y-99387713D01*
X141614567Y-99353553D01*
X141499223Y-99294781D01*
X141304534Y-99231522D01*
X141121009Y-99202455D01*
X141102352Y-99199500D01*
X140897648Y-99199500D01*
X140878991Y-99202455D01*
X140695465Y-99231522D01*
X140500776Y-99294781D01*
X140318386Y-99387715D01*
X140152786Y-99508028D01*
X140008028Y-99652786D01*
X139887715Y-99818386D01*
X139794781Y-100000776D01*
X139731522Y-100195465D01*
X139701226Y-100386750D01*
X139699500Y-100397648D01*
X137159071Y-100397648D01*
X137170940Y-100361118D01*
X137179385Y-100307793D01*
X137200500Y-100174486D01*
X137200500Y-99985513D01*
X137170940Y-99798881D01*
X137139071Y-99700800D01*
X137112547Y-99619168D01*
X137112545Y-99619165D01*
X137112545Y-99619163D01*
X137058008Y-99512129D01*
X137026760Y-99450801D01*
X136915690Y-99297927D01*
X136782073Y-99164310D01*
X136629199Y-99053240D01*
X136608030Y-99042454D01*
X136460836Y-98967454D01*
X136281118Y-98909059D01*
X136094486Y-98879500D01*
X136094481Y-98879500D01*
X135905519Y-98879500D01*
X135905514Y-98879500D01*
X135718881Y-98909059D01*
X135539163Y-98967454D01*
X135370800Y-99053240D01*
X135284700Y-99115796D01*
X135217927Y-99164310D01*
X135217925Y-99164312D01*
X135217924Y-99164312D01*
X135084312Y-99297924D01*
X135084312Y-99297925D01*
X135084310Y-99297927D01*
X135044930Y-99352129D01*
X134973240Y-99450800D01*
X134887454Y-99619163D01*
X134829059Y-99798881D01*
X134799500Y-99985513D01*
X134799500Y-100174482D01*
X134805389Y-100211668D01*
X134796433Y-100280961D01*
X134770596Y-100318745D01*
X133326162Y-101763181D01*
X133264839Y-101796666D01*
X133238481Y-101799500D01*
X127841519Y-101799500D01*
X127812078Y-101790855D01*
X127782092Y-101784332D01*
X127777076Y-101780577D01*
X127774480Y-101779815D01*
X127753838Y-101763181D01*
X127736819Y-101746162D01*
X127703334Y-101684839D01*
X127700500Y-101658481D01*
X127700500Y-100182790D01*
X127720185Y-100115751D01*
X127772989Y-100069996D01*
X127781146Y-100066616D01*
X127842331Y-100043796D01*
X127957546Y-99957546D01*
X127973459Y-99936289D01*
X128417261Y-99936289D01*
X128417262Y-99936290D01*
X128423471Y-99940801D01*
X128577742Y-100019408D01*
X128742415Y-100072914D01*
X128913429Y-100100000D01*
X129086571Y-100100000D01*
X129257584Y-100072914D01*
X129422257Y-100019408D01*
X129576525Y-99940803D01*
X129582736Y-99936289D01*
X129582737Y-99936289D01*
X129000001Y-99353553D01*
X129000000Y-99353553D01*
X128417261Y-99936289D01*
X127973459Y-99936289D01*
X128043796Y-99842331D01*
X128094091Y-99707483D01*
X128097736Y-99673580D01*
X128100499Y-99647886D01*
X128100499Y-99647882D01*
X128100500Y-99647873D01*
X128100499Y-99597305D01*
X128120182Y-99530269D01*
X128136818Y-99509626D01*
X128646446Y-99000000D01*
X128646446Y-98999999D01*
X128606951Y-98960504D01*
X128700000Y-98960504D01*
X128700000Y-99039496D01*
X128720444Y-99115796D01*
X128759940Y-99184205D01*
X128815795Y-99240060D01*
X128884204Y-99279556D01*
X128960504Y-99300000D01*
X129039496Y-99300000D01*
X129115796Y-99279556D01*
X129184205Y-99240060D01*
X129240060Y-99184205D01*
X129279556Y-99115796D01*
X129300000Y-99039496D01*
X129300000Y-98999999D01*
X129353553Y-98999999D01*
X129353553Y-99000001D01*
X129936289Y-99582737D01*
X129936289Y-99582736D01*
X129940803Y-99576525D01*
X130019408Y-99422257D01*
X130072914Y-99257584D01*
X130100000Y-99086571D01*
X130100000Y-98913428D01*
X130072914Y-98742415D01*
X130019408Y-98577742D01*
X129940801Y-98423471D01*
X129936290Y-98417262D01*
X129936289Y-98417261D01*
X129353553Y-98999999D01*
X129300000Y-98999999D01*
X129300000Y-98960504D01*
X129279556Y-98884204D01*
X129240060Y-98815795D01*
X129184205Y-98759940D01*
X129115796Y-98720444D01*
X129039496Y-98700000D01*
X128960504Y-98700000D01*
X128884204Y-98720444D01*
X128815795Y-98759940D01*
X128759940Y-98815795D01*
X128720444Y-98884204D01*
X128700000Y-98960504D01*
X128606951Y-98960504D01*
X128136818Y-98490371D01*
X128103333Y-98429048D01*
X128100499Y-98402690D01*
X128100499Y-98352129D01*
X128100498Y-98352123D01*
X128094091Y-98292516D01*
X128075331Y-98242221D01*
X128043796Y-98157669D01*
X128043794Y-98157666D01*
X128043793Y-98157664D01*
X127973457Y-98063708D01*
X128417261Y-98063708D01*
X128417261Y-98063709D01*
X129000000Y-98646446D01*
X129000001Y-98646446D01*
X129582737Y-98063709D01*
X129576525Y-98059196D01*
X129422259Y-97980592D01*
X129257584Y-97927085D01*
X129086571Y-97900000D01*
X128913429Y-97900000D01*
X128742415Y-97927085D01*
X128577740Y-97980592D01*
X128423480Y-98059193D01*
X128423463Y-98059203D01*
X128417261Y-98063708D01*
X127973457Y-98063708D01*
X127957547Y-98042455D01*
X127957544Y-98042452D01*
X127842335Y-97956206D01*
X127842328Y-97956202D01*
X127707482Y-97905908D01*
X127707483Y-97905908D01*
X127647883Y-97899501D01*
X127647881Y-97899500D01*
X127647873Y-97899500D01*
X127647864Y-97899500D01*
X126352129Y-97899500D01*
X126352123Y-97899501D01*
X126292516Y-97905908D01*
X126157671Y-97956202D01*
X126157664Y-97956206D01*
X126042455Y-98042452D01*
X126042452Y-98042455D01*
X125956206Y-98157664D01*
X125956202Y-98157671D01*
X125933391Y-98218833D01*
X125891520Y-98274767D01*
X125826056Y-98299184D01*
X125817209Y-98299500D01*
X124841519Y-98299500D01*
X124774480Y-98279815D01*
X124753838Y-98263181D01*
X122538962Y-96048304D01*
X122498540Y-96007882D01*
X135345669Y-96007882D01*
X135345670Y-96007883D01*
X135371059Y-96026329D01*
X135539362Y-96112085D01*
X135718997Y-96170451D01*
X135905553Y-96200000D01*
X136094447Y-96200000D01*
X136281002Y-96170451D01*
X136460637Y-96112085D01*
X136628937Y-96026331D01*
X136654328Y-96007883D01*
X136654328Y-96007882D01*
X136000001Y-95353554D01*
X136000000Y-95353554D01*
X135345669Y-96007882D01*
X122498540Y-96007882D01*
X121396210Y-94905552D01*
X134800000Y-94905552D01*
X134800000Y-95094447D01*
X134829548Y-95281002D01*
X134887914Y-95460637D01*
X134973666Y-95628933D01*
X134992116Y-95654328D01*
X135646446Y-95000000D01*
X135646446Y-94999999D01*
X135600369Y-94953922D01*
X135650000Y-94953922D01*
X135650000Y-95046078D01*
X135673852Y-95135095D01*
X135719930Y-95214905D01*
X135785095Y-95280070D01*
X135864905Y-95326148D01*
X135953922Y-95350000D01*
X136046078Y-95350000D01*
X136135095Y-95326148D01*
X136214905Y-95280070D01*
X136280070Y-95214905D01*
X136326148Y-95135095D01*
X136350000Y-95046078D01*
X136350000Y-94999999D01*
X136353554Y-94999999D01*
X136353554Y-95000000D01*
X137007882Y-95654328D01*
X137007883Y-95654328D01*
X137026331Y-95628937D01*
X137112085Y-95460637D01*
X137170451Y-95281002D01*
X137200000Y-95094447D01*
X137200000Y-94905552D01*
X137170451Y-94718997D01*
X137112085Y-94539362D01*
X137026329Y-94371059D01*
X137007883Y-94345670D01*
X137007882Y-94345669D01*
X136353554Y-94999999D01*
X136350000Y-94999999D01*
X136350000Y-94953922D01*
X136326148Y-94864905D01*
X136280070Y-94785095D01*
X136214905Y-94719930D01*
X136135095Y-94673852D01*
X136046078Y-94650000D01*
X135953922Y-94650000D01*
X135864905Y-94673852D01*
X135785095Y-94719930D01*
X135719930Y-94785095D01*
X135673852Y-94864905D01*
X135650000Y-94953922D01*
X135600369Y-94953922D01*
X134992116Y-94345669D01*
X134992116Y-94345670D01*
X134973669Y-94371060D01*
X134887914Y-94539362D01*
X134829548Y-94718997D01*
X134800000Y-94905552D01*
X121396210Y-94905552D01*
X121196545Y-94705887D01*
X121081807Y-94629222D01*
X120954332Y-94576421D01*
X120954322Y-94576418D01*
X120818996Y-94549500D01*
X120818994Y-94549500D01*
X120818993Y-94549500D01*
X120291138Y-94549500D01*
X120224099Y-94529815D01*
X120190821Y-94498387D01*
X120168690Y-94467927D01*
X120035075Y-94334312D01*
X120035074Y-94334311D01*
X120035073Y-94334310D01*
X119882199Y-94223240D01*
X119738181Y-94149859D01*
X119738179Y-94149857D01*
X119713840Y-94137456D01*
X119713842Y-94137456D01*
X119534118Y-94079059D01*
X119347486Y-94049500D01*
X119347481Y-94049500D01*
X119158519Y-94049500D01*
X119158514Y-94049500D01*
X119121333Y-94055389D01*
X119052040Y-94046435D01*
X119014254Y-94020597D01*
X118985773Y-93992116D01*
X135345669Y-93992116D01*
X136000000Y-94646446D01*
X136000001Y-94646446D01*
X136654328Y-93992116D01*
X136628933Y-93973666D01*
X136460637Y-93887914D01*
X136281002Y-93829548D01*
X136094447Y-93800000D01*
X135905553Y-93800000D01*
X135718997Y-93829548D01*
X135539362Y-93887914D01*
X135371060Y-93973669D01*
X135345670Y-93992116D01*
X135345669Y-93992116D01*
X118985773Y-93992116D01*
X116949546Y-91955888D01*
X116949545Y-91955887D01*
X116834807Y-91879222D01*
X116707332Y-91826421D01*
X116707322Y-91826418D01*
X116571996Y-91799500D01*
X116571994Y-91799500D01*
X116571993Y-91799500D01*
X113841519Y-91799500D01*
X113774480Y-91779815D01*
X113753838Y-91763181D01*
X112137554Y-90146896D01*
X109946545Y-87955887D01*
X109831807Y-87879222D01*
X109704332Y-87826421D01*
X109704322Y-87826418D01*
X109568996Y-87799500D01*
X109568994Y-87799500D01*
X109568993Y-87799500D01*
X98841519Y-87799500D01*
X98774480Y-87779815D01*
X98753838Y-87763181D01*
X98240657Y-87250000D01*
X115824638Y-87250000D01*
X115829548Y-87281002D01*
X115887914Y-87460637D01*
X115973670Y-87628940D01*
X116084685Y-87781741D01*
X116084689Y-87781746D01*
X116218253Y-87915310D01*
X116218258Y-87915314D01*
X116371059Y-88026329D01*
X116539362Y-88112085D01*
X116718997Y-88170451D01*
X116750000Y-88175362D01*
X116750000Y-88175361D01*
X117250000Y-88175361D01*
X117281002Y-88170451D01*
X117460637Y-88112085D01*
X117628940Y-88026329D01*
X117781741Y-87915314D01*
X117781746Y-87915310D01*
X117915310Y-87781746D01*
X117915314Y-87781741D01*
X118026329Y-87628940D01*
X118112085Y-87460637D01*
X118170451Y-87281002D01*
X118175362Y-87250000D01*
X117250000Y-87250000D01*
X117250000Y-88175361D01*
X116750000Y-88175361D01*
X116750000Y-87250000D01*
X115824638Y-87250000D01*
X98240657Y-87250000D01*
X97944579Y-86953922D01*
X116650000Y-86953922D01*
X116650000Y-87046078D01*
X116673852Y-87135095D01*
X116719930Y-87214905D01*
X116785095Y-87280070D01*
X116864905Y-87326148D01*
X116953922Y-87350000D01*
X117046078Y-87350000D01*
X117135095Y-87326148D01*
X117214905Y-87280070D01*
X117280070Y-87214905D01*
X117326148Y-87135095D01*
X117350000Y-87046078D01*
X117350000Y-86953922D01*
X117337029Y-86905513D01*
X120879500Y-86905513D01*
X120879500Y-87094486D01*
X120909059Y-87281118D01*
X120967454Y-87460836D01*
X121037999Y-87599287D01*
X121053240Y-87629199D01*
X121164310Y-87782073D01*
X121297927Y-87915690D01*
X121450801Y-88026760D01*
X121467040Y-88035034D01*
X121619163Y-88112545D01*
X121619165Y-88112545D01*
X121619168Y-88112547D01*
X121715497Y-88143846D01*
X121798881Y-88170940D01*
X121985514Y-88200500D01*
X121985519Y-88200500D01*
X122174486Y-88200500D01*
X122361118Y-88170940D01*
X122362623Y-88170451D01*
X122540832Y-88112547D01*
X122709199Y-88026760D01*
X122862073Y-87915690D01*
X122995690Y-87782073D01*
X123106760Y-87629199D01*
X123192547Y-87460832D01*
X123250940Y-87281118D01*
X123263102Y-87204329D01*
X123280500Y-87094486D01*
X123280500Y-86905513D01*
X123250940Y-86718881D01*
X123208853Y-86589352D01*
X123192547Y-86539168D01*
X123192545Y-86539165D01*
X123192545Y-86539163D01*
X123106759Y-86370800D01*
X122995690Y-86217927D01*
X122862073Y-86084310D01*
X122709199Y-85973240D01*
X122692419Y-85964690D01*
X122540836Y-85887454D01*
X122361118Y-85829059D01*
X122174486Y-85799500D01*
X122174481Y-85799500D01*
X121985519Y-85799500D01*
X121985514Y-85799500D01*
X121798881Y-85829059D01*
X121619163Y-85887454D01*
X121450800Y-85973240D01*
X121369222Y-86032511D01*
X121297927Y-86084310D01*
X121297925Y-86084312D01*
X121297924Y-86084312D01*
X121164312Y-86217924D01*
X121164312Y-86217925D01*
X121164310Y-86217927D01*
X121142436Y-86248034D01*
X121053240Y-86370800D01*
X120967454Y-86539163D01*
X120909059Y-86718881D01*
X120879500Y-86905513D01*
X117337029Y-86905513D01*
X117326148Y-86864905D01*
X117280070Y-86785095D01*
X117244975Y-86750000D01*
X117250000Y-86750000D01*
X118175362Y-86750000D01*
X118170451Y-86718997D01*
X118112085Y-86539362D01*
X118026329Y-86371059D01*
X117915314Y-86218258D01*
X117915310Y-86218253D01*
X117781746Y-86084689D01*
X117781741Y-86084685D01*
X117628940Y-85973670D01*
X117460635Y-85887913D01*
X117281004Y-85829549D01*
X117280995Y-85829547D01*
X117250000Y-85824637D01*
X117250000Y-86750000D01*
X117244975Y-86750000D01*
X117214905Y-86719930D01*
X117135095Y-86673852D01*
X117046078Y-86650000D01*
X116953922Y-86650000D01*
X116864905Y-86673852D01*
X116785095Y-86719930D01*
X116719930Y-86785095D01*
X116673852Y-86864905D01*
X116650000Y-86953922D01*
X97944579Y-86953922D01*
X97865401Y-86874744D01*
X97740657Y-86750000D01*
X115824638Y-86750000D01*
X116750000Y-86750000D01*
X116750000Y-85824637D01*
X116749999Y-85824637D01*
X116719004Y-85829547D01*
X116718995Y-85829549D01*
X116539364Y-85887913D01*
X116371059Y-85973670D01*
X116218258Y-86084685D01*
X116218253Y-86084689D01*
X116084689Y-86218253D01*
X116084685Y-86218258D01*
X115973670Y-86371059D01*
X115887914Y-86539362D01*
X115829548Y-86718997D01*
X115824638Y-86750000D01*
X97740657Y-86750000D01*
X95946546Y-84955888D01*
X95946545Y-84955887D01*
X95831807Y-84879222D01*
X95704332Y-84826421D01*
X95704322Y-84826418D01*
X95568996Y-84799500D01*
X95568994Y-84799500D01*
X95568993Y-84799500D01*
X93341518Y-84799500D01*
X93274479Y-84779815D01*
X93253837Y-84763181D01*
X92276976Y-83786319D01*
X91946546Y-83455888D01*
X91946545Y-83455887D01*
X91831807Y-83379222D01*
X91704332Y-83326421D01*
X91704322Y-83326418D01*
X91568996Y-83299500D01*
X91568994Y-83299500D01*
X91568993Y-83299500D01*
X88425316Y-83299500D01*
X88377864Y-83290061D01*
X88233501Y-83230264D01*
X88233489Y-83230261D01*
X88078845Y-83199500D01*
X88078842Y-83199500D01*
X87921158Y-83199500D01*
X87921155Y-83199500D01*
X87848691Y-83213914D01*
X87779100Y-83207687D01*
X87723922Y-83164824D01*
X87700678Y-83098934D01*
X87700500Y-83092297D01*
X87700500Y-80825513D01*
X88299500Y-80825513D01*
X88299500Y-81014486D01*
X88329059Y-81201118D01*
X88387454Y-81380836D01*
X88464100Y-81531260D01*
X88473240Y-81549199D01*
X88584310Y-81702073D01*
X88717927Y-81835690D01*
X88870801Y-81946760D01*
X88898427Y-81960836D01*
X89039163Y-82032545D01*
X89039165Y-82032545D01*
X89039168Y-82032547D01*
X89116525Y-82057682D01*
X89218881Y-82090940D01*
X89405514Y-82120500D01*
X89405519Y-82120500D01*
X89594486Y-82120500D01*
X89781118Y-82090940D01*
X89792379Y-82087281D01*
X89960832Y-82032547D01*
X90129199Y-81946760D01*
X90282073Y-81835690D01*
X90415690Y-81702073D01*
X90437821Y-81671613D01*
X90493152Y-81628948D01*
X90538138Y-81620500D01*
X94078481Y-81620500D01*
X94145520Y-81640185D01*
X94166162Y-81656819D01*
X95053453Y-82544111D01*
X95053454Y-82544112D01*
X95168192Y-82620777D01*
X95289298Y-82670940D01*
X95295672Y-82673580D01*
X95295676Y-82673580D01*
X95295677Y-82673581D01*
X95431003Y-82700500D01*
X95431006Y-82700500D01*
X95431007Y-82700500D01*
X98436000Y-82700500D01*
X98503039Y-82720185D01*
X98548794Y-82772989D01*
X98560000Y-82824500D01*
X98560000Y-83250000D01*
X99584722Y-83250000D01*
X99540667Y-83326306D01*
X99510000Y-83440756D01*
X99510000Y-83559244D01*
X99540667Y-83673694D01*
X99584722Y-83750000D01*
X98560000Y-83750000D01*
X98560000Y-84447844D01*
X98566401Y-84507372D01*
X98566403Y-84507379D01*
X98616645Y-84642086D01*
X98616649Y-84642093D01*
X98702809Y-84757187D01*
X98702812Y-84757190D01*
X98817906Y-84843350D01*
X98817913Y-84843354D01*
X98952620Y-84893596D01*
X98952627Y-84893598D01*
X99012155Y-84899999D01*
X99012172Y-84900000D01*
X99710000Y-84900000D01*
X99710000Y-83875277D01*
X99786306Y-83919333D01*
X99900756Y-83950000D01*
X100019244Y-83950000D01*
X100133694Y-83919333D01*
X100210000Y-83875277D01*
X100210000Y-84900000D01*
X100907828Y-84900000D01*
X100907844Y-84899999D01*
X100967372Y-84893598D01*
X100967379Y-84893596D01*
X101102086Y-84843354D01*
X101102093Y-84843350D01*
X101217187Y-84757190D01*
X101217190Y-84757187D01*
X101303350Y-84642093D01*
X101303354Y-84642086D01*
X101333213Y-84562031D01*
X101375084Y-84506097D01*
X101440548Y-84481680D01*
X101508821Y-84496531D01*
X101537076Y-84517683D01*
X101587636Y-84568243D01*
X101587641Y-84568247D01*
X101743192Y-84681260D01*
X101765978Y-84697815D01*
X101882501Y-84757187D01*
X101962393Y-84797895D01*
X101962396Y-84797896D01*
X101976111Y-84802352D01*
X102172049Y-84866015D01*
X102389778Y-84900500D01*
X102389779Y-84900500D01*
X102610221Y-84900500D01*
X102610222Y-84900500D01*
X102827951Y-84866015D01*
X103037606Y-84797895D01*
X103234022Y-84697815D01*
X103412365Y-84568242D01*
X103568242Y-84412365D01*
X103697815Y-84234022D01*
X103797895Y-84037606D01*
X103866015Y-83827951D01*
X103900500Y-83610222D01*
X103900500Y-83389778D01*
X103866015Y-83172049D01*
X103831955Y-83067221D01*
X103797896Y-82962396D01*
X103797895Y-82962393D01*
X103736219Y-82841350D01*
X103697815Y-82765978D01*
X103630685Y-82673581D01*
X103568247Y-82587641D01*
X103568243Y-82587636D01*
X103412363Y-82431756D01*
X103412358Y-82431752D01*
X103234025Y-82302187D01*
X103234024Y-82302186D01*
X103234022Y-82302185D01*
X103170336Y-82269735D01*
X103037606Y-82202104D01*
X103037603Y-82202103D01*
X102827952Y-82133985D01*
X102659715Y-82107339D01*
X102610222Y-82099500D01*
X102389778Y-82099500D01*
X102348461Y-82106044D01*
X102193527Y-82130583D01*
X102124233Y-82121628D01*
X102086448Y-82095791D01*
X101446546Y-81455888D01*
X101446545Y-81455887D01*
X101331807Y-81379222D01*
X101204332Y-81326421D01*
X101204322Y-81326418D01*
X101068996Y-81299500D01*
X101068994Y-81299500D01*
X101068993Y-81299500D01*
X95841519Y-81299500D01*
X95774480Y-81279815D01*
X95753838Y-81263181D01*
X94866546Y-80375888D01*
X94866545Y-80375887D01*
X94751807Y-80299222D01*
X94624332Y-80246421D01*
X94624322Y-80246418D01*
X94488996Y-80219500D01*
X94488994Y-80219500D01*
X94488993Y-80219500D01*
X90538138Y-80219500D01*
X90471099Y-80199815D01*
X90437821Y-80168387D01*
X90415690Y-80137927D01*
X90282075Y-80004312D01*
X90282073Y-80004310D01*
X90129199Y-79893240D01*
X90112684Y-79884825D01*
X89960836Y-79807454D01*
X89781118Y-79749059D01*
X89594486Y-79719500D01*
X89594481Y-79719500D01*
X89405519Y-79719500D01*
X89405514Y-79719500D01*
X89218881Y-79749059D01*
X89039163Y-79807454D01*
X88870800Y-79893240D01*
X88797980Y-79946148D01*
X88717927Y-80004310D01*
X88717925Y-80004312D01*
X88717924Y-80004312D01*
X88584312Y-80137924D01*
X88584312Y-80137925D01*
X88584310Y-80137927D01*
X88545802Y-80190929D01*
X88473240Y-80290800D01*
X88387454Y-80459163D01*
X88329059Y-80638881D01*
X88299500Y-80825513D01*
X87700500Y-80825513D01*
X87700500Y-78341519D01*
X87720185Y-78274480D01*
X87736819Y-78253838D01*
X88518766Y-77471891D01*
X88580089Y-77438406D01*
X88649781Y-77443390D01*
X88694128Y-77471891D01*
X88717927Y-77495690D01*
X88870801Y-77606760D01*
X88940315Y-77642179D01*
X89039163Y-77692545D01*
X89039165Y-77692545D01*
X89039168Y-77692547D01*
X89135497Y-77723846D01*
X89218881Y-77750940D01*
X89405514Y-77780500D01*
X89405519Y-77780500D01*
X89594486Y-77780500D01*
X89781118Y-77750940D01*
X89834789Y-77733501D01*
X89960832Y-77692547D01*
X90129199Y-77606760D01*
X90282073Y-77495690D01*
X90415690Y-77362073D01*
X90526760Y-77209199D01*
X90612547Y-77040832D01*
X90670940Y-76861118D01*
X90676467Y-76826223D01*
X90700500Y-76674486D01*
X90700500Y-76485513D01*
X90670940Y-76298881D01*
X90623433Y-76152671D01*
X90612547Y-76119168D01*
X90612545Y-76119165D01*
X90612545Y-76119163D01*
X90563275Y-76022466D01*
X90526760Y-75950801D01*
X90415690Y-75797927D01*
X90282073Y-75664310D01*
X90129199Y-75553240D01*
X90128524Y-75552896D01*
X89960836Y-75467454D01*
X89781118Y-75409059D01*
X89594486Y-75379500D01*
X89594481Y-75379500D01*
X89405519Y-75379500D01*
X89405514Y-75379500D01*
X89218881Y-75409059D01*
X89039163Y-75467454D01*
X88870800Y-75553240D01*
X88795724Y-75607787D01*
X88717927Y-75664310D01*
X88717925Y-75664312D01*
X88717924Y-75664312D01*
X88584309Y-75797927D01*
X88562179Y-75828387D01*
X88506848Y-75871052D01*
X88461862Y-75879500D01*
X88351002Y-75879500D01*
X88245671Y-75900451D01*
X88245672Y-75900452D01*
X88215675Y-75906419D01*
X88215672Y-75906419D01*
X88215671Y-75906420D01*
X88215669Y-75906420D01*
X88215668Y-75906421D01*
X88088190Y-75959224D01*
X87973454Y-76035887D01*
X86455887Y-77553454D01*
X86379222Y-77668192D01*
X86326421Y-77795667D01*
X86326418Y-77795679D01*
X86303372Y-77911541D01*
X86303372Y-77911545D01*
X86299500Y-77931007D01*
X86299500Y-82009480D01*
X86279815Y-82076519D01*
X86227011Y-82122274D01*
X86157853Y-82132218D01*
X86094297Y-82103193D01*
X86087819Y-82097161D01*
X85606545Y-81615887D01*
X85491807Y-81539222D01*
X85364332Y-81486421D01*
X85364322Y-81486418D01*
X85228996Y-81459500D01*
X85228994Y-81459500D01*
X85228993Y-81459500D01*
X84603989Y-81459500D01*
X84536950Y-81439815D01*
X84491195Y-81387011D01*
X84481251Y-81317853D01*
X84510276Y-81254297D01*
X84516308Y-81247819D01*
X84964628Y-80799500D01*
X85544114Y-80220014D01*
X85620775Y-80105282D01*
X85673580Y-79977800D01*
X85673580Y-79977796D01*
X85673582Y-79977793D01*
X85678934Y-79950882D01*
X85678934Y-79950880D01*
X85700500Y-79842464D01*
X85700500Y-78694007D01*
X85700500Y-78694004D01*
X85700499Y-78694002D01*
X85673582Y-78558681D01*
X85673581Y-78558679D01*
X85673580Y-78558672D01*
X85671420Y-78553458D01*
X85647092Y-78494724D01*
X85632910Y-78460485D01*
X85620778Y-78431194D01*
X85620771Y-78431182D01*
X85544115Y-78316459D01*
X85497391Y-78269735D01*
X85446542Y-78218886D01*
X84633805Y-77406149D01*
X84600320Y-77344826D01*
X84599013Y-77299070D01*
X84604697Y-77263181D01*
X84617500Y-77182352D01*
X84617500Y-76977648D01*
X84599013Y-76860929D01*
X84607967Y-76791636D01*
X84633802Y-76753853D01*
X86544114Y-74843543D01*
X86620775Y-74728811D01*
X86673580Y-74601328D01*
X86673582Y-74601319D01*
X86700500Y-74465996D01*
X86700500Y-73841519D01*
X86720185Y-73774480D01*
X86736819Y-73753838D01*
X88253838Y-72236819D01*
X88280765Y-72222115D01*
X88306584Y-72205523D01*
X88312784Y-72204631D01*
X88315161Y-72203334D01*
X88341519Y-72200500D01*
X88461862Y-72200500D01*
X88528901Y-72220185D01*
X88562179Y-72251613D01*
X88566931Y-72258154D01*
X88584310Y-72282073D01*
X88717927Y-72415690D01*
X88870801Y-72526760D01*
X88950347Y-72567290D01*
X89039163Y-72612545D01*
X89039165Y-72612545D01*
X89039168Y-72612547D01*
X89135497Y-72643846D01*
X89218881Y-72670940D01*
X89405514Y-72700500D01*
X89405519Y-72700500D01*
X89594486Y-72700500D01*
X89781118Y-72670940D01*
X89960832Y-72612547D01*
X90129199Y-72526760D01*
X90282073Y-72415690D01*
X90415690Y-72282073D01*
X90526760Y-72129199D01*
X90612547Y-71960832D01*
X90670940Y-71781118D01*
X90676467Y-71746223D01*
X90700500Y-71594486D01*
X90700500Y-71405513D01*
X90670940Y-71218881D01*
X90612545Y-71039163D01*
X90563275Y-70942466D01*
X90526760Y-70870801D01*
X90415690Y-70717927D01*
X90282073Y-70584310D01*
X90129199Y-70473240D01*
X90054118Y-70434984D01*
X90003323Y-70387010D01*
X89986528Y-70319190D01*
X90009065Y-70253055D01*
X90063780Y-70209603D01*
X90110414Y-70200500D01*
X90931007Y-70200500D01*
X91158481Y-70200500D01*
X91225520Y-70220185D01*
X91246162Y-70236819D01*
X92263181Y-71253837D01*
X92296666Y-71315160D01*
X92299500Y-71341518D01*
X92299500Y-76931006D01*
X92299500Y-77068994D01*
X92299500Y-77068996D01*
X92299499Y-77068996D01*
X92326418Y-77204322D01*
X92326421Y-77204332D01*
X92379222Y-77331807D01*
X92455887Y-77446545D01*
X93553454Y-78544112D01*
X93668192Y-78620777D01*
X93795667Y-78673578D01*
X93795672Y-78673580D01*
X93795676Y-78673580D01*
X93795677Y-78673581D01*
X93931003Y-78700500D01*
X93931006Y-78700500D01*
X93931007Y-78700500D01*
X100431007Y-78700500D01*
X101158481Y-78700500D01*
X101225520Y-78720185D01*
X101246162Y-78736819D01*
X102864403Y-80355059D01*
X104455886Y-81946542D01*
X104514950Y-82005606D01*
X104553459Y-82044115D01*
X104668182Y-82120771D01*
X104668189Y-82120775D01*
X104739952Y-82150500D01*
X104795671Y-82173580D01*
X104822591Y-82178934D01*
X104920073Y-82198325D01*
X104931006Y-82200500D01*
X104931007Y-82200500D01*
X107536764Y-82200500D01*
X107603803Y-82220185D01*
X107649558Y-82272989D01*
X107659502Y-82342147D01*
X107652946Y-82367833D01*
X107606403Y-82492620D01*
X107606401Y-82492627D01*
X107600000Y-82552155D01*
X107600000Y-83250000D01*
X108624722Y-83250000D01*
X108580667Y-83326306D01*
X108550000Y-83440756D01*
X108550000Y-83559244D01*
X108580667Y-83673694D01*
X108624722Y-83750000D01*
X107600000Y-83750000D01*
X107600000Y-84447844D01*
X107606401Y-84507372D01*
X107606403Y-84507379D01*
X107656645Y-84642086D01*
X107656649Y-84642093D01*
X107742809Y-84757187D01*
X107742812Y-84757190D01*
X107857906Y-84843350D01*
X107857913Y-84843354D01*
X107992620Y-84893596D01*
X107992627Y-84893598D01*
X108052155Y-84899999D01*
X108052172Y-84900000D01*
X108750000Y-84900000D01*
X108750000Y-83875277D01*
X108826306Y-83919333D01*
X108940756Y-83950000D01*
X109059244Y-83950000D01*
X109173694Y-83919333D01*
X109250000Y-83875277D01*
X109250000Y-84900000D01*
X109947828Y-84900000D01*
X109947844Y-84899999D01*
X110007372Y-84893598D01*
X110007379Y-84893596D01*
X110142086Y-84843354D01*
X110142093Y-84843350D01*
X110257187Y-84757190D01*
X110257190Y-84757187D01*
X110343350Y-84642093D01*
X110343354Y-84642086D01*
X110373213Y-84562031D01*
X110415084Y-84506097D01*
X110480548Y-84481680D01*
X110548821Y-84496531D01*
X110577076Y-84517683D01*
X110627636Y-84568243D01*
X110627641Y-84568247D01*
X110783192Y-84681260D01*
X110805978Y-84697815D01*
X110922501Y-84757187D01*
X111002393Y-84797895D01*
X111002396Y-84797896D01*
X111016111Y-84802352D01*
X111212049Y-84866015D01*
X111429778Y-84900500D01*
X111429779Y-84900500D01*
X111650221Y-84900500D01*
X111650222Y-84900500D01*
X111867951Y-84866015D01*
X112077606Y-84797895D01*
X112274022Y-84697815D01*
X112452365Y-84568242D01*
X112608242Y-84412365D01*
X112725034Y-84251613D01*
X112780362Y-84208949D01*
X112825351Y-84200500D01*
X114068996Y-84200500D01*
X114160040Y-84182389D01*
X114204328Y-84173580D01*
X114268069Y-84147177D01*
X114331807Y-84120777D01*
X114331808Y-84120776D01*
X114331811Y-84120775D01*
X114446543Y-84044114D01*
X116060240Y-82430416D01*
X116121561Y-82396933D01*
X116191252Y-82401917D01*
X116220805Y-82417781D01*
X116370801Y-82526760D01*
X116448825Y-82566515D01*
X116539163Y-82612545D01*
X116539165Y-82612545D01*
X116539168Y-82612547D01*
X116635497Y-82643846D01*
X116718881Y-82670940D01*
X116905514Y-82700500D01*
X116905519Y-82700500D01*
X117094486Y-82700500D01*
X117281118Y-82670940D01*
X117289585Y-82668189D01*
X117460832Y-82612547D01*
X117629199Y-82526760D01*
X117782073Y-82415690D01*
X117915690Y-82282073D01*
X118026760Y-82129199D01*
X118112547Y-81960832D01*
X118170940Y-81781118D01*
X118176831Y-81743925D01*
X118200500Y-81594486D01*
X118200500Y-81405513D01*
X118170940Y-81218881D01*
X118133114Y-81102466D01*
X118112547Y-81039168D01*
X118112545Y-81039165D01*
X118112545Y-81039163D01*
X118031852Y-80880795D01*
X118018956Y-80812126D01*
X118045232Y-80747385D01*
X118102339Y-80707128D01*
X118142337Y-80700500D01*
X120937663Y-80700500D01*
X121004702Y-80720185D01*
X121050457Y-80772989D01*
X121060401Y-80842147D01*
X121048148Y-80880795D01*
X120967454Y-81039163D01*
X120909059Y-81218881D01*
X120879500Y-81405513D01*
X120879500Y-81594486D01*
X120909059Y-81781118D01*
X120967454Y-81960836D01*
X121046671Y-82116306D01*
X121053240Y-82129199D01*
X121164310Y-82282073D01*
X121297927Y-82415690D01*
X121450801Y-82526760D01*
X121528825Y-82566515D01*
X121619163Y-82612545D01*
X121619165Y-82612545D01*
X121619168Y-82612547D01*
X121715497Y-82643846D01*
X121798881Y-82670940D01*
X121985514Y-82700500D01*
X121985519Y-82700500D01*
X122174486Y-82700500D01*
X122361118Y-82670940D01*
X122369585Y-82668189D01*
X122540832Y-82612547D01*
X122709199Y-82526760D01*
X122862073Y-82415690D01*
X122995690Y-82282073D01*
X123106760Y-82129199D01*
X123192547Y-81960832D01*
X123250940Y-81781118D01*
X123256831Y-81743925D01*
X123280500Y-81594486D01*
X123280500Y-81405513D01*
X123250940Y-81218881D01*
X123213114Y-81102466D01*
X123192547Y-81039168D01*
X123192545Y-81039165D01*
X123192545Y-81039163D01*
X123111852Y-80880795D01*
X123098956Y-80812126D01*
X123125232Y-80747385D01*
X123182339Y-80707128D01*
X123222337Y-80700500D01*
X125171481Y-80700500D01*
X125238520Y-80720185D01*
X125259162Y-80736819D01*
X130683194Y-86160850D01*
X130716679Y-86222173D01*
X130717986Y-86267929D01*
X130699500Y-86384642D01*
X130699500Y-86589351D01*
X130731522Y-86791534D01*
X130794781Y-86986223D01*
X130849942Y-87094481D01*
X130882139Y-87157671D01*
X130887715Y-87168613D01*
X131008028Y-87334213D01*
X131152786Y-87478971D01*
X131318385Y-87599284D01*
X131318387Y-87599285D01*
X131318390Y-87599287D01*
X131411080Y-87646515D01*
X131411630Y-87646795D01*
X131462426Y-87694770D01*
X131479221Y-87762591D01*
X131456684Y-87828725D01*
X131411630Y-87867765D01*
X131318644Y-87915143D01*
X131274077Y-87947523D01*
X131274077Y-87947524D01*
X131953554Y-88627000D01*
X131947339Y-88627000D01*
X131845606Y-88654259D01*
X131754394Y-88706920D01*
X131679920Y-88781394D01*
X131627259Y-88872606D01*
X131600000Y-88974339D01*
X131600000Y-88980553D01*
X130920524Y-88301077D01*
X130920523Y-88301077D01*
X130888143Y-88345644D01*
X130795244Y-88527968D01*
X130732009Y-88722582D01*
X130700000Y-88924682D01*
X130700000Y-89129317D01*
X130732009Y-89331417D01*
X130795244Y-89526031D01*
X130888141Y-89708350D01*
X130888147Y-89708359D01*
X130920523Y-89752921D01*
X130920524Y-89752922D01*
X131600000Y-89073446D01*
X131600000Y-89079661D01*
X131627259Y-89181394D01*
X131679920Y-89272606D01*
X131754394Y-89347080D01*
X131845606Y-89399741D01*
X131947339Y-89427000D01*
X131953553Y-89427000D01*
X131274076Y-90106474D01*
X131318650Y-90138859D01*
X131500968Y-90231755D01*
X131695582Y-90294990D01*
X131897683Y-90327000D01*
X132102317Y-90327000D01*
X132304417Y-90294990D01*
X132499031Y-90231755D01*
X132681349Y-90138859D01*
X132725921Y-90106474D01*
X132046447Y-89427000D01*
X132052661Y-89427000D01*
X132154394Y-89399741D01*
X132245606Y-89347080D01*
X132320080Y-89272606D01*
X132372741Y-89181394D01*
X132400000Y-89079661D01*
X132400000Y-89073447D01*
X133079474Y-89752921D01*
X133111859Y-89708349D01*
X133204755Y-89526031D01*
X133267990Y-89331417D01*
X133300000Y-89129317D01*
X133300000Y-88924682D01*
X133267990Y-88722582D01*
X133204755Y-88527968D01*
X133111859Y-88345650D01*
X133079474Y-88301077D01*
X133079474Y-88301076D01*
X132400000Y-88980551D01*
X132400000Y-88974339D01*
X132372741Y-88872606D01*
X132320080Y-88781394D01*
X132245606Y-88706920D01*
X132154394Y-88654259D01*
X132052661Y-88627000D01*
X132046446Y-88627000D01*
X132725922Y-87947524D01*
X132725921Y-87947523D01*
X132681359Y-87915147D01*
X132681350Y-87915141D01*
X132588369Y-87867765D01*
X132537573Y-87819790D01*
X132520778Y-87751969D01*
X132543315Y-87685835D01*
X132588370Y-87646795D01*
X132588920Y-87646515D01*
X132681610Y-87599287D01*
X132756972Y-87544534D01*
X132847213Y-87478971D01*
X132847215Y-87478968D01*
X132847219Y-87478966D01*
X132991966Y-87334219D01*
X132991968Y-87334215D01*
X132991971Y-87334213D01*
X133078652Y-87214905D01*
X133112287Y-87168610D01*
X133205220Y-86986219D01*
X133268477Y-86791534D01*
X133300500Y-86589352D01*
X133300500Y-86384648D01*
X133272863Y-86210157D01*
X133268477Y-86182465D01*
X133220491Y-86034780D01*
X133205220Y-85987781D01*
X133205218Y-85987778D01*
X133205218Y-85987776D01*
X133159757Y-85898555D01*
X133112287Y-85805390D01*
X133072176Y-85750181D01*
X132991971Y-85639786D01*
X132847213Y-85495028D01*
X132681614Y-85374715D01*
X132673930Y-85370800D01*
X132588917Y-85327483D01*
X132538123Y-85279511D01*
X132521328Y-85211690D01*
X132543865Y-85145555D01*
X132588917Y-85106516D01*
X132681610Y-85059287D01*
X132823928Y-84955888D01*
X132847213Y-84938971D01*
X132847215Y-84938968D01*
X132847219Y-84938966D01*
X132991966Y-84794219D01*
X132991968Y-84794215D01*
X132991971Y-84794213D01*
X133045754Y-84720185D01*
X133112287Y-84628610D01*
X133205220Y-84446219D01*
X133268477Y-84251534D01*
X133300500Y-84049352D01*
X133300500Y-83844648D01*
X133287387Y-83761859D01*
X133268477Y-83642465D01*
X133220491Y-83494780D01*
X133205220Y-83447781D01*
X133205218Y-83447778D01*
X133205218Y-83447776D01*
X133159613Y-83358273D01*
X133112287Y-83265390D01*
X133086766Y-83230263D01*
X132991971Y-83099786D01*
X132847213Y-82955028D01*
X132681614Y-82834715D01*
X132661566Y-82824500D01*
X132588917Y-82787483D01*
X132538123Y-82739511D01*
X132521328Y-82671690D01*
X132543865Y-82605555D01*
X132588917Y-82566516D01*
X132681610Y-82519287D01*
X132785495Y-82443811D01*
X132847213Y-82398971D01*
X132847215Y-82398968D01*
X132847219Y-82398966D01*
X132991966Y-82254219D01*
X132991968Y-82254215D01*
X132991971Y-82254213D01*
X133060420Y-82159999D01*
X133112287Y-82088610D01*
X133205220Y-81906219D01*
X133268477Y-81711534D01*
X133300500Y-81509352D01*
X133300500Y-81304648D01*
X133268477Y-81102466D01*
X133268476Y-81102464D01*
X133222747Y-80961725D01*
X133205220Y-80907781D01*
X133205218Y-80907778D01*
X133205218Y-80907776D01*
X133136540Y-80772989D01*
X133112287Y-80725390D01*
X133056057Y-80647995D01*
X133032578Y-80582191D01*
X133048403Y-80514137D01*
X133068691Y-80487435D01*
X133745114Y-79811014D01*
X133821775Y-79696282D01*
X133874580Y-79568799D01*
X133886219Y-79510289D01*
X133901500Y-79433467D01*
X133901500Y-76790577D01*
X133921185Y-76723538D01*
X133937819Y-76702896D01*
X135087819Y-75552896D01*
X135149142Y-75519411D01*
X135218834Y-75524395D01*
X135274767Y-75566267D01*
X135299184Y-75631731D01*
X135299500Y-75640577D01*
X135299500Y-85431006D01*
X135299500Y-85568994D01*
X135299500Y-85568996D01*
X135299499Y-85568996D01*
X135326418Y-85704322D01*
X135326421Y-85704332D01*
X135379222Y-85831807D01*
X135455885Y-85946542D01*
X135455888Y-85946546D01*
X136553454Y-87044112D01*
X136668192Y-87120777D01*
X136795667Y-87173578D01*
X136795672Y-87173580D01*
X136795676Y-87173580D01*
X136795677Y-87173581D01*
X136931003Y-87200500D01*
X136931006Y-87200500D01*
X137068995Y-87200500D01*
X137122369Y-87189883D01*
X137146561Y-87187500D01*
X138458256Y-87187500D01*
X138525295Y-87207185D01*
X138558575Y-87238616D01*
X138628030Y-87334215D01*
X138772786Y-87478971D01*
X138927749Y-87591556D01*
X138938390Y-87599287D01*
X138997096Y-87629199D01*
X139031080Y-87646515D01*
X139081876Y-87694490D01*
X139098671Y-87762311D01*
X139076134Y-87828446D01*
X139031080Y-87867485D01*
X138938386Y-87914715D01*
X138772786Y-88035028D01*
X138628028Y-88179786D01*
X138507715Y-88345386D01*
X138414781Y-88527776D01*
X138351522Y-88722465D01*
X138319500Y-88924648D01*
X138319500Y-89129351D01*
X138351522Y-89331534D01*
X138414781Y-89526223D01*
X138478691Y-89651653D01*
X138507585Y-89708359D01*
X138507715Y-89708613D01*
X138628028Y-89874213D01*
X138772786Y-90018971D01*
X138893226Y-90106474D01*
X138938390Y-90139287D01*
X139054607Y-90198503D01*
X139120776Y-90232218D01*
X139120778Y-90232218D01*
X139120781Y-90232220D01*
X139225137Y-90266127D01*
X139315465Y-90295477D01*
X139416557Y-90311488D01*
X139517648Y-90327500D01*
X139517649Y-90327500D01*
X139722351Y-90327500D01*
X139722352Y-90327500D01*
X139924534Y-90295477D01*
X140119219Y-90232220D01*
X140301610Y-90139287D01*
X140398361Y-90068994D01*
X140467213Y-90018971D01*
X140467215Y-90018968D01*
X140467219Y-90018966D01*
X140611966Y-89874219D01*
X140611968Y-89874215D01*
X140611971Y-89874213D01*
X140692639Y-89763181D01*
X140732287Y-89708610D01*
X140825220Y-89526219D01*
X140888477Y-89331534D01*
X140920500Y-89129352D01*
X140920500Y-88924648D01*
X140907462Y-88842328D01*
X140888477Y-88722465D01*
X140828918Y-88539163D01*
X140825220Y-88527781D01*
X140825218Y-88527778D01*
X140825218Y-88527776D01*
X140783152Y-88445218D01*
X140732287Y-88345390D01*
X140700092Y-88301077D01*
X140611971Y-88179786D01*
X140467213Y-88035028D01*
X140301614Y-87914715D01*
X140248109Y-87887453D01*
X140208917Y-87867483D01*
X140158123Y-87819511D01*
X140141328Y-87751690D01*
X140163865Y-87685555D01*
X140208917Y-87646516D01*
X140301610Y-87599287D01*
X140376972Y-87544534D01*
X140467213Y-87478971D01*
X140467215Y-87478968D01*
X140467219Y-87478966D01*
X140611966Y-87334219D01*
X140611968Y-87334215D01*
X140611971Y-87334213D01*
X140698652Y-87214905D01*
X140732287Y-87168610D01*
X140825220Y-86986219D01*
X140888477Y-86791534D01*
X140920500Y-86589352D01*
X140920500Y-86384648D01*
X140892863Y-86210157D01*
X140888477Y-86182465D01*
X140840491Y-86034780D01*
X140825220Y-85987781D01*
X140825218Y-85987778D01*
X140825218Y-85987776D01*
X140779757Y-85898555D01*
X140732287Y-85805390D01*
X140692176Y-85750181D01*
X140611971Y-85639786D01*
X140467213Y-85495028D01*
X140301614Y-85374715D01*
X140293930Y-85370800D01*
X140208917Y-85327483D01*
X140158123Y-85279511D01*
X140141328Y-85211690D01*
X140163865Y-85145555D01*
X140208917Y-85106516D01*
X140301610Y-85059287D01*
X140443928Y-84955888D01*
X140467213Y-84938971D01*
X140467215Y-84938968D01*
X140467219Y-84938966D01*
X140611966Y-84794219D01*
X140611968Y-84794215D01*
X140611971Y-84794213D01*
X140665754Y-84720185D01*
X140732287Y-84628610D01*
X140825220Y-84446219D01*
X140888477Y-84251534D01*
X140920500Y-84049352D01*
X140920500Y-83844648D01*
X140907387Y-83761859D01*
X140888477Y-83642465D01*
X140840491Y-83494780D01*
X140825220Y-83447781D01*
X140825218Y-83447778D01*
X140825218Y-83447776D01*
X140779613Y-83358273D01*
X140732287Y-83265390D01*
X140706766Y-83230263D01*
X140611971Y-83099786D01*
X140467213Y-82955028D01*
X140301614Y-82834715D01*
X140281566Y-82824500D01*
X140208917Y-82787483D01*
X140158123Y-82739511D01*
X140141328Y-82671690D01*
X140163865Y-82605555D01*
X140208917Y-82566516D01*
X140301610Y-82519287D01*
X140405495Y-82443811D01*
X140467213Y-82398971D01*
X140467215Y-82398968D01*
X140467219Y-82398966D01*
X140611966Y-82254219D01*
X140611968Y-82254215D01*
X140611971Y-82254213D01*
X140680420Y-82159999D01*
X140732287Y-82088610D01*
X140825220Y-81906219D01*
X140888477Y-81711534D01*
X140920500Y-81509352D01*
X140920500Y-81304648D01*
X140888477Y-81102466D01*
X140888476Y-81102464D01*
X140842747Y-80961725D01*
X140825220Y-80907781D01*
X140825218Y-80907778D01*
X140825218Y-80907776D01*
X140760706Y-80781166D01*
X140732287Y-80725390D01*
X140669436Y-80638882D01*
X140611971Y-80559786D01*
X140467213Y-80415028D01*
X140301614Y-80294715D01*
X140283371Y-80285420D01*
X140208917Y-80247483D01*
X140158123Y-80199511D01*
X140141328Y-80131690D01*
X140163865Y-80065555D01*
X140208917Y-80026516D01*
X140301610Y-79979287D01*
X140322770Y-79963913D01*
X140467213Y-79858971D01*
X140467215Y-79858968D01*
X140467219Y-79858966D01*
X140611966Y-79714219D01*
X140611968Y-79714215D01*
X140611971Y-79714213D01*
X140690039Y-79606760D01*
X140732287Y-79548610D01*
X140825220Y-79366219D01*
X140888477Y-79171534D01*
X140920500Y-78969352D01*
X140920500Y-78764648D01*
X140897713Y-78620777D01*
X140888477Y-78562465D01*
X140845824Y-78431194D01*
X140825220Y-78367781D01*
X140825218Y-78367778D01*
X140825218Y-78367776D01*
X140785895Y-78290602D01*
X140732287Y-78185390D01*
X140704261Y-78146815D01*
X140611971Y-78019786D01*
X140467213Y-77875028D01*
X140301614Y-77754715D01*
X140259971Y-77733497D01*
X140208917Y-77707483D01*
X140158123Y-77659511D01*
X140141328Y-77591690D01*
X140163865Y-77525555D01*
X140208917Y-77486516D01*
X140301610Y-77439287D01*
X140377418Y-77384210D01*
X140467213Y-77318971D01*
X140467215Y-77318968D01*
X140467219Y-77318966D01*
X140611966Y-77174219D01*
X140611968Y-77174215D01*
X140611971Y-77174213D01*
X140706494Y-77044111D01*
X140732287Y-77008610D01*
X140824713Y-76827214D01*
X140825218Y-76826223D01*
X140825218Y-76826222D01*
X140825220Y-76826219D01*
X140888477Y-76631534D01*
X140920500Y-76429352D01*
X140920500Y-76224648D01*
X140902012Y-76107926D01*
X140910966Y-76038637D01*
X140936801Y-76000853D01*
X141365113Y-75572543D01*
X141377866Y-75553458D01*
X141441775Y-75457811D01*
X141494580Y-75330328D01*
X141495358Y-75326420D01*
X141514484Y-75230263D01*
X141521500Y-75194993D01*
X141521500Y-73220536D01*
X141521500Y-73220533D01*
X141496954Y-73097137D01*
X141496952Y-73097129D01*
X141494580Y-73085200D01*
X141467017Y-73018657D01*
X141441776Y-72957719D01*
X141365112Y-72842983D01*
X141365111Y-72842982D01*
X140688695Y-72166567D01*
X140655210Y-72105244D01*
X140660194Y-72035553D01*
X140676054Y-72006007D01*
X140732287Y-71928610D01*
X140825220Y-71746219D01*
X140888477Y-71551534D01*
X140920500Y-71349352D01*
X140920500Y-71144648D01*
X140894635Y-70981344D01*
X140888477Y-70942465D01*
X140842025Y-70799501D01*
X140825220Y-70747781D01*
X140825218Y-70747778D01*
X140825218Y-70747776D01*
X140773865Y-70646991D01*
X140732287Y-70565390D01*
X140665337Y-70473240D01*
X140611971Y-70399786D01*
X140467213Y-70255028D01*
X140301613Y-70134715D01*
X140301612Y-70134714D01*
X140301610Y-70134713D01*
X140220050Y-70093156D01*
X140119223Y-70041781D01*
X139924534Y-69978522D01*
X139749995Y-69950878D01*
X139722352Y-69946500D01*
X139517648Y-69946500D01*
X139517643Y-69946500D01*
X139400929Y-69964986D01*
X139331636Y-69956032D01*
X139293850Y-69930194D01*
X138205803Y-68842147D01*
X137217398Y-67853741D01*
X137183915Y-67792421D01*
X137188899Y-67722729D01*
X137230771Y-67666796D01*
X137257629Y-67651502D01*
X137331811Y-67620775D01*
X137446543Y-67544114D01*
X138353838Y-66636817D01*
X138415161Y-66603333D01*
X138441519Y-66600499D01*
X140647871Y-66600499D01*
X140647872Y-66600499D01*
X140707483Y-66594091D01*
X140842331Y-66543796D01*
X140957546Y-66457546D01*
X141043796Y-66342331D01*
X141094091Y-66207483D01*
X141100500Y-66147873D01*
X141100499Y-63852128D01*
X141094091Y-63792517D01*
X141089124Y-63779201D01*
X141043797Y-63657671D01*
X141043793Y-63657664D01*
X140957547Y-63542455D01*
X140957544Y-63542452D01*
X140842335Y-63456206D01*
X140842328Y-63456202D01*
X140707482Y-63405908D01*
X140707483Y-63405908D01*
X140647883Y-63399501D01*
X140647881Y-63399500D01*
X140647873Y-63399500D01*
X140647864Y-63399500D01*
X138352129Y-63399500D01*
X138352123Y-63399501D01*
X138292516Y-63405908D01*
X138157671Y-63456202D01*
X138157664Y-63456206D01*
X138042455Y-63542452D01*
X138042452Y-63542455D01*
X137956206Y-63657664D01*
X137956202Y-63657671D01*
X137905908Y-63792517D01*
X137899501Y-63852116D01*
X137899501Y-63852123D01*
X137899500Y-63852135D01*
X137899500Y-65058480D01*
X137879815Y-65125519D01*
X137863181Y-65146161D01*
X136746162Y-66263181D01*
X136684839Y-66296666D01*
X136658481Y-66299500D01*
X130603311Y-66299500D01*
X130536272Y-66279815D01*
X130490517Y-66227011D01*
X130480573Y-66157853D01*
X130509598Y-66094297D01*
X130515630Y-66087819D01*
X130534456Y-66068993D01*
X130560793Y-66042656D01*
X130708870Y-65838845D01*
X130823241Y-65614379D01*
X130901090Y-65374785D01*
X130940500Y-65125962D01*
X130940500Y-64874038D01*
X130901090Y-64625215D01*
X130823241Y-64385621D01*
X130823239Y-64385618D01*
X130823239Y-64385616D01*
X130748404Y-64238745D01*
X130708870Y-64161155D01*
X130689952Y-64135117D01*
X130560798Y-63957350D01*
X130560794Y-63957345D01*
X130382654Y-63779205D01*
X130382649Y-63779201D01*
X130178846Y-63631130D01*
X130108204Y-63595135D01*
X130057408Y-63547160D01*
X130040500Y-63484651D01*
X130040500Y-61271004D01*
X130013581Y-61135677D01*
X130013580Y-61135676D01*
X130013580Y-61135672D01*
X129985961Y-61068994D01*
X129960778Y-61008195D01*
X129960776Y-61008191D01*
X129960775Y-61008189D01*
X129909203Y-60931006D01*
X129884114Y-60893457D01*
X129884112Y-60893454D01*
X127689819Y-58699161D01*
X127656334Y-58637838D01*
X127653500Y-58611480D01*
X127653500Y-56882283D01*
X127673185Y-56815244D01*
X127725989Y-56769489D01*
X127730013Y-56767736D01*
X127795373Y-56740664D01*
X128011127Y-56616099D01*
X128208776Y-56464438D01*
X128384938Y-56288276D01*
X128536599Y-56090627D01*
X128661164Y-55874873D01*
X128756502Y-55644707D01*
X128820982Y-55404065D01*
X128853500Y-55157065D01*
X128853500Y-54907935D01*
X128820982Y-54660935D01*
X128756502Y-54420293D01*
X128672987Y-54218670D01*
X128661169Y-54190138D01*
X128661162Y-54190123D01*
X128536602Y-53974377D01*
X128536599Y-53974373D01*
X128456701Y-53870248D01*
X128427747Y-53832514D01*
X130053000Y-53832514D01*
X130053000Y-54782500D01*
X131352999Y-54782500D01*
X131327979Y-54842902D01*
X131303000Y-54968481D01*
X131303000Y-55096519D01*
X131327979Y-55222098D01*
X131352999Y-55282500D01*
X130053000Y-55282500D01*
X130053000Y-56232485D01*
X130063493Y-56335189D01*
X130063494Y-56335196D01*
X130118641Y-56501618D01*
X130118643Y-56501623D01*
X130210684Y-56650844D01*
X130334655Y-56774815D01*
X130483876Y-56866856D01*
X130483881Y-56866858D01*
X130650303Y-56922005D01*
X130650310Y-56922006D01*
X130753014Y-56932499D01*
X130753027Y-56932500D01*
X131703000Y-56932500D01*
X131703000Y-55632501D01*
X131763402Y-55657521D01*
X131888981Y-55682500D01*
X132017019Y-55682500D01*
X132142598Y-55657521D01*
X132203000Y-55632501D01*
X132203000Y-56932500D01*
X133152973Y-56932500D01*
X133152985Y-56932499D01*
X133255689Y-56922006D01*
X133255696Y-56922005D01*
X133422118Y-56866858D01*
X133422123Y-56866856D01*
X133571344Y-56774815D01*
X133695315Y-56650844D01*
X133787356Y-56501623D01*
X133787358Y-56501618D01*
X133842505Y-56335196D01*
X133842506Y-56335189D01*
X133852999Y-56232485D01*
X133853000Y-56232472D01*
X133853000Y-55282500D01*
X132553001Y-55282500D01*
X132578021Y-55222098D01*
X132603000Y-55096519D01*
X132603000Y-54968481D01*
X132578021Y-54842902D01*
X132553001Y-54782500D01*
X133853000Y-54782500D01*
X133853000Y-53897648D01*
X139699500Y-53897648D01*
X139699500Y-54102351D01*
X139731522Y-54304534D01*
X139794781Y-54499223D01*
X139887715Y-54681613D01*
X140008028Y-54847213D01*
X140152786Y-54991971D01*
X140296687Y-55096519D01*
X140318390Y-55112287D01*
X140434607Y-55171503D01*
X140500776Y-55205218D01*
X140500778Y-55205218D01*
X140500781Y-55205220D01*
X140605137Y-55239127D01*
X140695465Y-55268477D01*
X140784002Y-55282500D01*
X140897648Y-55300500D01*
X140897649Y-55300500D01*
X141102351Y-55300500D01*
X141102352Y-55300500D01*
X141304534Y-55268477D01*
X141499219Y-55205220D01*
X141681610Y-55112287D01*
X141832437Y-55002706D01*
X141847213Y-54991971D01*
X141847215Y-54991968D01*
X141847219Y-54991966D01*
X141991966Y-54847219D01*
X141991968Y-54847215D01*
X141991971Y-54847213D01*
X142060344Y-54753104D01*
X142112287Y-54681610D01*
X142205220Y-54499219D01*
X142268477Y-54304534D01*
X142300500Y-54102352D01*
X142300500Y-53897648D01*
X142290184Y-53832514D01*
X142268477Y-53695465D01*
X142205218Y-53500776D01*
X142161082Y-53414155D01*
X142112287Y-53318390D01*
X142090291Y-53288115D01*
X141991971Y-53152786D01*
X141847213Y-53008028D01*
X141681613Y-52887715D01*
X141681612Y-52887714D01*
X141681610Y-52887713D01*
X141624653Y-52858691D01*
X141499223Y-52794781D01*
X141304534Y-52731522D01*
X141129995Y-52703878D01*
X141102352Y-52699500D01*
X140897648Y-52699500D01*
X140873329Y-52703351D01*
X140695465Y-52731522D01*
X140500776Y-52794781D01*
X140318386Y-52887715D01*
X140152786Y-53008028D01*
X140008028Y-53152786D01*
X139887715Y-53318386D01*
X139794781Y-53500776D01*
X139731522Y-53695465D01*
X139699500Y-53897648D01*
X133853000Y-53897648D01*
X133853000Y-53832527D01*
X133852999Y-53832514D01*
X133842506Y-53729810D01*
X133842505Y-53729803D01*
X133787358Y-53563381D01*
X133787356Y-53563376D01*
X133695315Y-53414155D01*
X133571344Y-53290184D01*
X133422123Y-53198143D01*
X133422118Y-53198141D01*
X133255696Y-53142994D01*
X133255689Y-53142993D01*
X133152985Y-53132500D01*
X132203000Y-53132500D01*
X132203000Y-54432498D01*
X132142598Y-54407479D01*
X132017019Y-54382500D01*
X131888981Y-54382500D01*
X131763402Y-54407479D01*
X131703000Y-54432498D01*
X131703000Y-53132500D01*
X130753014Y-53132500D01*
X130650310Y-53142993D01*
X130650303Y-53142994D01*
X130483881Y-53198141D01*
X130483876Y-53198143D01*
X130334655Y-53290184D01*
X130210684Y-53414155D01*
X130118643Y-53563376D01*
X130118641Y-53563381D01*
X130063494Y-53729803D01*
X130063493Y-53729810D01*
X130053000Y-53832514D01*
X128427747Y-53832514D01*
X128384939Y-53776725D01*
X128384933Y-53776718D01*
X128208781Y-53600566D01*
X128208774Y-53600560D01*
X128011126Y-53448900D01*
X127795376Y-53324337D01*
X127795361Y-53324330D01*
X127565207Y-53228998D01*
X127324561Y-53164517D01*
X127077575Y-53132001D01*
X127077570Y-53132000D01*
X127077565Y-53132000D01*
X126828435Y-53132000D01*
X126828429Y-53132000D01*
X126828424Y-53132001D01*
X126581438Y-53164517D01*
X126340792Y-53228998D01*
X126110638Y-53324330D01*
X126110623Y-53324337D01*
X125894873Y-53448900D01*
X125697225Y-53600560D01*
X125697218Y-53600566D01*
X125521066Y-53776718D01*
X125521060Y-53776725D01*
X125369400Y-53974373D01*
X125244837Y-54190123D01*
X125244830Y-54190138D01*
X125149498Y-54420292D01*
X125085017Y-54660938D01*
X125052501Y-54907924D01*
X125052500Y-54907941D01*
X125052500Y-55157058D01*
X125052501Y-55157075D01*
X125085017Y-55404061D01*
X125149498Y-55644707D01*
X125244830Y-55874861D01*
X125244837Y-55874876D01*
X125369400Y-56090626D01*
X125521060Y-56288274D01*
X125521066Y-56288281D01*
X125697218Y-56464433D01*
X125697225Y-56464439D01*
X125894873Y-56616099D01*
X126110623Y-56740662D01*
X126110625Y-56740662D01*
X126110627Y-56740664D01*
X126175952Y-56767722D01*
X126230355Y-56811561D01*
X126252421Y-56877855D01*
X126252500Y-56882283D01*
X126252500Y-58884006D01*
X126252500Y-59021994D01*
X126252500Y-59021996D01*
X126252499Y-59021996D01*
X126279418Y-59157322D01*
X126279421Y-59157332D01*
X126332222Y-59284807D01*
X126408887Y-59399545D01*
X126408888Y-59399546D01*
X128603181Y-61593838D01*
X128636666Y-61655161D01*
X128639500Y-61681519D01*
X128639500Y-63484651D01*
X128619815Y-63551690D01*
X128571796Y-63595135D01*
X128501153Y-63631130D01*
X128297350Y-63779201D01*
X128297345Y-63779205D01*
X128119205Y-63957345D01*
X128119201Y-63957350D01*
X127971132Y-64161151D01*
X127856760Y-64385616D01*
X127778910Y-64625214D01*
X127739500Y-64874038D01*
X127739500Y-64949481D01*
X127719815Y-65016520D01*
X127667011Y-65062275D01*
X127597853Y-65072219D01*
X127534297Y-65043194D01*
X127527819Y-65037162D01*
X127236819Y-64746162D01*
X127203334Y-64684839D01*
X127200500Y-64658481D01*
X127200500Y-60931004D01*
X127189145Y-60873922D01*
X127178934Y-60822591D01*
X127173580Y-60795671D01*
X127141915Y-60719225D01*
X127120775Y-60668189D01*
X127120774Y-60668188D01*
X127120771Y-60668182D01*
X127044115Y-60553459D01*
X127044114Y-60553458D01*
X126946542Y-60455886D01*
X123736819Y-57246162D01*
X123703334Y-57184839D01*
X123700500Y-57158481D01*
X123700500Y-51931004D01*
X123673581Y-51795677D01*
X123673580Y-51795676D01*
X123673580Y-51795672D01*
X123631132Y-51693192D01*
X123620777Y-51668192D01*
X123606078Y-51646194D01*
X123544114Y-51553457D01*
X123544112Y-51553454D01*
X122946545Y-50955887D01*
X122831807Y-50879222D01*
X122704332Y-50826421D01*
X122704322Y-50826418D01*
X122568996Y-50799500D01*
X122568994Y-50799500D01*
X122568993Y-50799500D01*
X115431007Y-50799500D01*
X115431005Y-50799500D01*
X115295677Y-50826418D01*
X115295667Y-50826421D01*
X115168192Y-50879222D01*
X115053454Y-50955887D01*
X114430887Y-51578454D01*
X114354222Y-51693192D01*
X114301421Y-51820667D01*
X114301418Y-51820679D01*
X114276384Y-51946537D01*
X114276383Y-51946543D01*
X114274500Y-51956007D01*
X114274500Y-52357614D01*
X114254815Y-52424653D01*
X114202011Y-52470408D01*
X114163755Y-52480904D01*
X114117516Y-52485875D01*
X113982671Y-52536168D01*
X113982664Y-52536172D01*
X113867455Y-52622418D01*
X113867452Y-52622421D01*
X113804266Y-52706827D01*
X113748332Y-52748698D01*
X113678641Y-52753682D01*
X113617318Y-52720196D01*
X113605734Y-52706827D01*
X113542547Y-52622421D01*
X113542544Y-52622418D01*
X113427335Y-52536172D01*
X113427328Y-52536168D01*
X113292482Y-52485874D01*
X113292483Y-52485874D01*
X113232883Y-52479467D01*
X113232881Y-52479466D01*
X113232873Y-52479466D01*
X113232864Y-52479466D01*
X111637129Y-52479466D01*
X111637123Y-52479467D01*
X111577516Y-52485874D01*
X111442671Y-52536168D01*
X111442664Y-52536172D01*
X111327455Y-52622418D01*
X111327452Y-52622421D01*
X111241206Y-52737630D01*
X111241202Y-52737637D01*
X111190908Y-52872483D01*
X111184501Y-52932082D01*
X111184500Y-52932101D01*
X111184500Y-54527836D01*
X111184501Y-54527842D01*
X111190908Y-54587449D01*
X111241202Y-54722294D01*
X111241206Y-54722301D01*
X111327452Y-54837510D01*
X111327455Y-54837513D01*
X111442664Y-54923759D01*
X111442671Y-54923763D01*
X111577517Y-54974057D01*
X111577516Y-54974057D01*
X111584444Y-54974801D01*
X111637127Y-54980466D01*
X113232872Y-54980465D01*
X113292483Y-54974057D01*
X113427331Y-54923762D01*
X113542546Y-54837512D01*
X113605734Y-54753102D01*
X113661667Y-54711233D01*
X113731359Y-54706249D01*
X113792682Y-54739734D01*
X113804260Y-54753096D01*
X113867454Y-54837512D01*
X113880413Y-54847213D01*
X113982664Y-54923759D01*
X113982671Y-54923763D01*
X114117517Y-54974057D01*
X114117516Y-54974057D01*
X114124444Y-54974801D01*
X114177127Y-54980466D01*
X115772872Y-54980465D01*
X115832483Y-54974057D01*
X115967331Y-54923762D01*
X116082546Y-54837512D01*
X116145734Y-54753102D01*
X116201667Y-54711233D01*
X116271359Y-54706249D01*
X116332682Y-54739734D01*
X116344260Y-54753096D01*
X116407454Y-54837512D01*
X116420413Y-54847213D01*
X116522664Y-54923759D01*
X116522671Y-54923763D01*
X116657517Y-54974057D01*
X116657516Y-54974057D01*
X116664444Y-54974801D01*
X116717127Y-54980466D01*
X118312872Y-54980465D01*
X118372483Y-54974057D01*
X118507331Y-54923762D01*
X118622546Y-54837512D01*
X118632816Y-54823791D01*
X118688747Y-54781921D01*
X118758439Y-54776935D01*
X118819762Y-54810419D01*
X119278181Y-55268838D01*
X119311666Y-55330161D01*
X119314500Y-55356519D01*
X119314500Y-55658481D01*
X119294815Y-55725520D01*
X119278181Y-55746162D01*
X116761162Y-58263181D01*
X116699839Y-58296666D01*
X116673481Y-58299500D01*
X92931004Y-58299500D01*
X92795677Y-58326418D01*
X92795667Y-58326421D01*
X92668192Y-58379222D01*
X92553454Y-58455887D01*
X92553453Y-58455888D01*
X89955887Y-61053455D01*
X89955883Y-61053459D01*
X89945506Y-61068992D01*
X89945505Y-61068994D01*
X89879228Y-61168182D01*
X89879221Y-61168195D01*
X89826421Y-61295667D01*
X89826418Y-61295677D01*
X89799500Y-61431004D01*
X89799500Y-64658481D01*
X89779815Y-64725520D01*
X89763181Y-64746162D01*
X88412181Y-66097162D01*
X88350858Y-66130647D01*
X88281166Y-66125663D01*
X88225233Y-66083791D01*
X88200816Y-66018327D01*
X88200500Y-66009481D01*
X88200500Y-58655390D01*
X88220185Y-58588351D01*
X88272989Y-58542596D01*
X88281146Y-58539216D01*
X88342331Y-58516396D01*
X88457546Y-58430146D01*
X88543796Y-58314931D01*
X88594091Y-58180083D01*
X88600500Y-58120473D01*
X88600499Y-56824728D01*
X88594091Y-56765117D01*
X88543796Y-56630269D01*
X88543795Y-56630268D01*
X88543793Y-56630264D01*
X88457547Y-56515055D01*
X88457544Y-56515052D01*
X88342335Y-56428806D01*
X88334546Y-56424553D01*
X88335794Y-56422265D01*
X88290775Y-56388560D01*
X88266362Y-56323094D01*
X88281219Y-56254822D01*
X88302364Y-56226577D01*
X88339414Y-56189528D01*
X88441232Y-56049388D01*
X88519873Y-55895045D01*
X88573402Y-55730301D01*
X88600500Y-55559211D01*
X88600500Y-55385989D01*
X88573402Y-55214899D01*
X88519873Y-55050155D01*
X88441232Y-54895812D01*
X88339414Y-54755672D01*
X88216928Y-54633186D01*
X88076788Y-54531368D01*
X87922445Y-54452727D01*
X87757701Y-54399198D01*
X87757699Y-54399197D01*
X87757698Y-54399197D01*
X87626271Y-54378381D01*
X87586611Y-54372100D01*
X87413389Y-54372100D01*
X87373728Y-54378381D01*
X87242302Y-54399197D01*
X87077552Y-54452728D01*
X86923211Y-54531368D01*
X86783073Y-54633185D01*
X86680476Y-54735782D01*
X86619153Y-54769266D01*
X86592795Y-54772100D01*
X81958404Y-54772100D01*
X81823077Y-54799018D01*
X81823067Y-54799021D01*
X81695592Y-54851822D01*
X81580854Y-54928487D01*
X74875890Y-61633451D01*
X74875884Y-61633458D01*
X74831090Y-61700499D01*
X74831090Y-61700500D01*
X74799223Y-61748191D01*
X74799222Y-61748193D01*
X74746421Y-61875667D01*
X74746418Y-61875677D01*
X74719500Y-62011004D01*
X74719500Y-62429480D01*
X74699815Y-62496519D01*
X74647011Y-62542274D01*
X74577853Y-62552218D01*
X74514297Y-62523193D01*
X74507819Y-62517161D01*
X69736819Y-57746161D01*
X69703334Y-57684838D01*
X69700500Y-57658480D01*
X69700500Y-54346083D01*
X69720185Y-54279044D01*
X69762497Y-54238698D01*
X69930071Y-54141950D01*
X70103800Y-54008643D01*
X70258643Y-53853800D01*
X70391950Y-53680071D01*
X70501440Y-53490428D01*
X70585241Y-53288117D01*
X70641917Y-53076598D01*
X70670500Y-52859490D01*
X70670500Y-52640510D01*
X70670499Y-52640502D01*
X72329500Y-52640502D01*
X72329500Y-52859497D01*
X72349056Y-53008034D01*
X72358083Y-53076598D01*
X72414759Y-53288117D01*
X72498560Y-53490428D01*
X72498562Y-53490433D01*
X72498565Y-53490438D01*
X72608049Y-53680070D01*
X72741355Y-53853798D01*
X72741361Y-53853805D01*
X72896194Y-54008638D01*
X72896201Y-54008644D01*
X73069929Y-54141950D01*
X73259561Y-54251434D01*
X73259563Y-54251434D01*
X73259572Y-54251440D01*
X73461883Y-54335241D01*
X73673402Y-54391917D01*
X73880058Y-54419124D01*
X73888937Y-54420293D01*
X73890510Y-54420500D01*
X73890517Y-54420500D01*
X74109483Y-54420500D01*
X74109490Y-54420500D01*
X74326598Y-54391917D01*
X74538117Y-54335241D01*
X74740428Y-54251440D01*
X74930071Y-54141950D01*
X75103800Y-54008643D01*
X75258643Y-53853800D01*
X75391950Y-53680071D01*
X75501440Y-53490428D01*
X75585241Y-53288117D01*
X75641917Y-53076598D01*
X75670500Y-52859490D01*
X75670500Y-52640510D01*
X75641917Y-52423402D01*
X75585241Y-52211883D01*
X75501440Y-52009572D01*
X75470514Y-51956007D01*
X75391950Y-51819929D01*
X75258644Y-51646201D01*
X75258638Y-51646194D01*
X75103805Y-51491361D01*
X75103798Y-51491355D01*
X74930070Y-51358049D01*
X74740438Y-51248565D01*
X74740433Y-51248562D01*
X74740428Y-51248560D01*
X74538117Y-51164759D01*
X74538118Y-51164759D01*
X74538115Y-51164758D01*
X74432357Y-51136421D01*
X74326598Y-51108083D01*
X74290314Y-51103306D01*
X74109497Y-51079500D01*
X74109490Y-51079500D01*
X73890510Y-51079500D01*
X73890502Y-51079500D01*
X73687522Y-51106224D01*
X73673402Y-51108083D01*
X73628699Y-51120060D01*
X73461884Y-51164758D01*
X73343374Y-51213847D01*
X73259572Y-51248560D01*
X73259569Y-51248561D01*
X73259561Y-51248565D01*
X73069929Y-51358049D01*
X72896201Y-51491355D01*
X72896194Y-51491361D01*
X72741361Y-51646194D01*
X72741355Y-51646201D01*
X72608049Y-51819929D01*
X72498565Y-52009561D01*
X72498560Y-52009573D01*
X72414758Y-52211884D01*
X72387550Y-52313429D01*
X72364988Y-52397634D01*
X72358084Y-52423399D01*
X72358082Y-52423410D01*
X72329500Y-52640502D01*
X70670499Y-52640502D01*
X70641917Y-52423402D01*
X70585241Y-52211883D01*
X70501440Y-52009572D01*
X70470514Y-51956007D01*
X70391950Y-51819929D01*
X70258644Y-51646201D01*
X70258638Y-51646194D01*
X70103805Y-51491361D01*
X70103798Y-51491355D01*
X69930070Y-51358049D01*
X69740438Y-51248565D01*
X69740433Y-51248562D01*
X69740428Y-51248560D01*
X69538117Y-51164759D01*
X69538118Y-51164759D01*
X69538115Y-51164758D01*
X69432357Y-51136421D01*
X69326598Y-51108083D01*
X69290314Y-51103306D01*
X69109497Y-51079500D01*
X69109490Y-51079500D01*
X68890510Y-51079500D01*
X68890502Y-51079500D01*
X68687522Y-51106224D01*
X68673402Y-51108083D01*
X68628699Y-51120060D01*
X68461884Y-51164758D01*
X68343374Y-51213847D01*
X68259572Y-51248560D01*
X68259569Y-51248561D01*
X68259561Y-51248565D01*
X68069929Y-51358049D01*
X67896201Y-51491355D01*
X67896194Y-51491361D01*
X67741361Y-51646194D01*
X67741355Y-51646201D01*
X67608049Y-51819929D01*
X67498565Y-52009561D01*
X67498560Y-52009573D01*
X67414758Y-52211884D01*
X67387550Y-52313429D01*
X67364988Y-52397634D01*
X67358084Y-52423399D01*
X67358082Y-52423410D01*
X67329500Y-52640502D01*
X67329500Y-52859497D01*
X67349056Y-53008034D01*
X67358083Y-53076598D01*
X67414759Y-53288117D01*
X67498560Y-53490428D01*
X67498562Y-53490433D01*
X67498565Y-53490438D01*
X67608049Y-53680070D01*
X67741355Y-53853798D01*
X67741361Y-53853805D01*
X67896194Y-54008638D01*
X67896201Y-54008644D01*
X68069927Y-54141949D01*
X68069929Y-54141950D01*
X68237501Y-54238697D01*
X68285715Y-54289262D01*
X68299500Y-54346083D01*
X68299500Y-57931006D01*
X68299500Y-58068994D01*
X68299500Y-58068996D01*
X68299499Y-58068996D01*
X68326418Y-58204322D01*
X68326421Y-58204332D01*
X68379222Y-58331807D01*
X68455887Y-58446545D01*
X68597161Y-58587819D01*
X68630646Y-58649142D01*
X68625662Y-58718834D01*
X68583790Y-58774767D01*
X68518326Y-58799184D01*
X68509480Y-58799500D01*
X65341519Y-58799500D01*
X65274480Y-58779815D01*
X65253838Y-58763181D01*
X64736819Y-58246162D01*
X64703334Y-58184839D01*
X64700500Y-58158481D01*
X64700500Y-54346083D01*
X64720185Y-54279044D01*
X64762497Y-54238698D01*
X64930071Y-54141950D01*
X65103800Y-54008643D01*
X65258643Y-53853800D01*
X65391950Y-53680071D01*
X65501440Y-53490428D01*
X65585241Y-53288117D01*
X65641917Y-53076598D01*
X65670500Y-52859490D01*
X65670500Y-52640510D01*
X65641917Y-52423402D01*
X65585241Y-52211883D01*
X65501440Y-52009572D01*
X65470514Y-51956007D01*
X65391950Y-51819929D01*
X65258644Y-51646201D01*
X65258638Y-51646194D01*
X65103805Y-51491361D01*
X65103798Y-51491355D01*
X64930070Y-51358049D01*
X64740438Y-51248565D01*
X64740433Y-51248562D01*
X64740428Y-51248560D01*
X64538117Y-51164759D01*
X64538118Y-51164759D01*
X64538115Y-51164758D01*
X64432357Y-51136421D01*
X64326598Y-51108083D01*
X64290314Y-51103306D01*
X64109497Y-51079500D01*
X64109490Y-51079500D01*
X63890510Y-51079500D01*
X63890502Y-51079500D01*
X63687522Y-51106224D01*
X63673402Y-51108083D01*
X63628699Y-51120060D01*
X63461884Y-51164758D01*
X63343374Y-51213847D01*
X63259572Y-51248560D01*
X63259569Y-51248561D01*
X63259561Y-51248565D01*
X63069929Y-51358049D01*
X62896201Y-51491355D01*
X62896194Y-51491361D01*
X62741361Y-51646194D01*
X62741355Y-51646201D01*
X62608049Y-51819929D01*
X62498565Y-52009561D01*
X62498560Y-52009573D01*
X62414758Y-52211884D01*
X62387550Y-52313429D01*
X62364988Y-52397634D01*
X62358084Y-52423399D01*
X62358082Y-52423410D01*
X62329500Y-52640502D01*
X62329500Y-52859497D01*
X62349056Y-53008034D01*
X62358083Y-53076598D01*
X62414759Y-53288117D01*
X62498560Y-53490428D01*
X62498562Y-53490433D01*
X62498565Y-53490438D01*
X62608049Y-53680070D01*
X62741355Y-53853798D01*
X62741361Y-53853805D01*
X62896194Y-54008638D01*
X62896201Y-54008644D01*
X63069927Y-54141949D01*
X63069929Y-54141950D01*
X63237501Y-54238697D01*
X63285715Y-54289262D01*
X63299500Y-54346083D01*
X63299500Y-58431006D01*
X63299500Y-58568994D01*
X63299500Y-58568996D01*
X63299499Y-58568996D01*
X63326418Y-58704322D01*
X63326421Y-58704332D01*
X63379222Y-58831807D01*
X63455887Y-58946545D01*
X64553454Y-60044112D01*
X64668192Y-60120777D01*
X64795667Y-60173578D01*
X64795672Y-60173580D01*
X64795676Y-60173580D01*
X64795677Y-60173581D01*
X64931003Y-60200500D01*
X64931006Y-60200500D01*
X64931007Y-60200500D01*
X68658481Y-60200500D01*
X68725520Y-60220185D01*
X68746162Y-60236819D01*
X72263181Y-63753838D01*
X72296666Y-63815161D01*
X72299500Y-63841519D01*
X72299500Y-71509480D01*
X72279815Y-71576519D01*
X72227011Y-71622274D01*
X72157853Y-71632218D01*
X72094297Y-71603193D01*
X72087819Y-71597161D01*
X71446545Y-70955887D01*
X71331807Y-70879222D01*
X71204332Y-70826421D01*
X71204322Y-70826418D01*
X71068996Y-70799500D01*
X71068994Y-70799500D01*
X71068993Y-70799500D01*
X68341519Y-70799500D01*
X68274480Y-70779815D01*
X68253838Y-70763181D01*
X67736819Y-70246162D01*
X67703334Y-70184839D01*
X67700500Y-70158481D01*
X67700500Y-66341518D01*
X67720185Y-66274479D01*
X67736814Y-66253841D01*
X68761254Y-65229401D01*
X68822577Y-65195917D01*
X68868333Y-65194610D01*
X68905519Y-65200500D01*
X68905520Y-65200500D01*
X69094486Y-65200500D01*
X69281118Y-65170940D01*
X69357379Y-65146161D01*
X69460832Y-65112547D01*
X69629199Y-65026760D01*
X69782073Y-64915690D01*
X69915690Y-64782073D01*
X70026760Y-64629199D01*
X70112547Y-64460832D01*
X70170940Y-64281118D01*
X70177651Y-64238745D01*
X70200500Y-64094486D01*
X70200500Y-63905513D01*
X70170940Y-63718881D01*
X70119523Y-63560639D01*
X70112547Y-63539168D01*
X70112545Y-63539165D01*
X70112545Y-63539163D01*
X70026759Y-63370800D01*
X69915690Y-63217927D01*
X69782073Y-63084310D01*
X69629199Y-62973240D01*
X69460836Y-62887454D01*
X69281118Y-62829059D01*
X69094486Y-62799500D01*
X69094481Y-62799500D01*
X68905519Y-62799500D01*
X68905514Y-62799500D01*
X68718881Y-62829059D01*
X68539163Y-62887454D01*
X68370800Y-62973240D01*
X68283579Y-63036610D01*
X68217927Y-63084310D01*
X68217925Y-63084312D01*
X68217924Y-63084312D01*
X68084312Y-63217924D01*
X68084312Y-63217925D01*
X68084310Y-63217927D01*
X68036610Y-63283579D01*
X67973240Y-63370800D01*
X67887454Y-63539163D01*
X67829059Y-63718881D01*
X67799500Y-63905513D01*
X67799500Y-64094482D01*
X67805389Y-64131668D01*
X67796433Y-64200961D01*
X67770596Y-64238745D01*
X66455887Y-65553454D01*
X66432679Y-65588189D01*
X66410906Y-65620775D01*
X66395065Y-65644482D01*
X66379225Y-65668188D01*
X66379221Y-65668195D01*
X66326421Y-65795667D01*
X66326418Y-65795677D01*
X66299500Y-65931004D01*
X66299500Y-65931007D01*
X66299500Y-70431006D01*
X66299500Y-70568994D01*
X66299500Y-70568996D01*
X66299499Y-70568996D01*
X66326418Y-70704322D01*
X66326420Y-70704328D01*
X66379222Y-70831807D01*
X66455887Y-70946545D01*
X67553454Y-72044112D01*
X67668192Y-72120777D01*
X67753722Y-72156204D01*
X67795672Y-72173580D01*
X67795676Y-72173580D01*
X67795677Y-72173581D01*
X67931003Y-72200500D01*
X67931006Y-72200500D01*
X67931007Y-72200500D01*
X69494687Y-72200500D01*
X69561726Y-72220185D01*
X69607481Y-72272989D01*
X69617425Y-72342147D01*
X69588400Y-72405703D01*
X69550982Y-72434985D01*
X69475059Y-72473670D01*
X69322258Y-72584685D01*
X69322253Y-72584689D01*
X69188689Y-72718253D01*
X69188685Y-72718258D01*
X69077670Y-72871059D01*
X68991914Y-73039362D01*
X68933548Y-73218997D01*
X68928638Y-73250000D01*
X69859025Y-73250000D01*
X69823930Y-73285095D01*
X69777852Y-73364905D01*
X69754000Y-73453922D01*
X69754000Y-73546078D01*
X69777852Y-73635095D01*
X69823930Y-73714905D01*
X69889095Y-73780070D01*
X69968905Y-73826148D01*
X70057922Y-73850000D01*
X70150078Y-73850000D01*
X70239095Y-73826148D01*
X70318905Y-73780070D01*
X70354000Y-73744975D01*
X70354000Y-74675361D01*
X70385002Y-74670451D01*
X70564637Y-74612085D01*
X70732940Y-74526329D01*
X70885741Y-74415314D01*
X70885746Y-74415310D01*
X71019314Y-74281742D01*
X71075182Y-74204846D01*
X71130511Y-74162180D01*
X71200125Y-74156201D01*
X71261920Y-74188806D01*
X71296277Y-74249645D01*
X71299500Y-74277731D01*
X71299500Y-74658480D01*
X71279815Y-74725519D01*
X71263181Y-74746161D01*
X69559888Y-76449453D01*
X69559887Y-76449454D01*
X69483222Y-76564192D01*
X69430421Y-76691667D01*
X69430418Y-76691679D01*
X69404143Y-76823774D01*
X69404140Y-76823789D01*
X69403500Y-76827001D01*
X69403500Y-77541862D01*
X69383815Y-77608901D01*
X69352387Y-77642179D01*
X69321927Y-77664309D01*
X69188312Y-77797924D01*
X69188312Y-77797925D01*
X69188310Y-77797927D01*
X69155431Y-77843181D01*
X69077240Y-77950800D01*
X68991454Y-78119163D01*
X68933059Y-78298881D01*
X68903500Y-78485513D01*
X68903500Y-78674486D01*
X68933059Y-78861118D01*
X68991454Y-79040836D01*
X69058049Y-79171534D01*
X69077240Y-79209199D01*
X69188310Y-79362073D01*
X69321927Y-79495690D01*
X69474801Y-79606760D01*
X69540017Y-79639989D01*
X69643163Y-79692545D01*
X69643165Y-79692545D01*
X69643168Y-79692547D01*
X69695027Y-79709397D01*
X69822881Y-79750940D01*
X70009514Y-79780500D01*
X70009519Y-79780500D01*
X70198486Y-79780500D01*
X70385118Y-79750940D01*
X70426186Y-79737596D01*
X70564832Y-79692547D01*
X70733199Y-79606760D01*
X70886073Y-79495690D01*
X71019690Y-79362073D01*
X71041821Y-79331613D01*
X71097152Y-79288948D01*
X71142138Y-79280500D01*
X71429481Y-79280500D01*
X71496520Y-79300185D01*
X71542275Y-79352989D01*
X71552219Y-79422147D01*
X71523194Y-79485703D01*
X71517162Y-79492181D01*
X70805412Y-80203929D01*
X70765184Y-80230809D01*
X70620823Y-80290604D01*
X70620814Y-80290609D01*
X70489711Y-80378210D01*
X70489707Y-80378213D01*
X70378213Y-80489707D01*
X70378210Y-80489711D01*
X70290609Y-80620814D01*
X70290602Y-80620827D01*
X70230264Y-80766498D01*
X70230261Y-80766510D01*
X70199500Y-80921153D01*
X70199500Y-81078846D01*
X70230261Y-81233489D01*
X70230264Y-81233501D01*
X70290602Y-81379172D01*
X70290609Y-81379185D01*
X70378210Y-81510288D01*
X70378213Y-81510292D01*
X70489707Y-81621786D01*
X70489711Y-81621789D01*
X70620814Y-81709390D01*
X70620827Y-81709397D01*
X70766498Y-81769735D01*
X70766503Y-81769737D01*
X70921153Y-81800499D01*
X70921156Y-81800500D01*
X70921158Y-81800500D01*
X71078844Y-81800500D01*
X71078845Y-81800499D01*
X71233497Y-81769737D01*
X71379179Y-81709394D01*
X71510289Y-81621789D01*
X71621789Y-81510289D01*
X71708287Y-81380836D01*
X71709390Y-81379185D01*
X71709397Y-81379173D01*
X71756063Y-81266510D01*
X71769192Y-81234810D01*
X71796069Y-81194586D01*
X73181616Y-79809039D01*
X73242937Y-79775556D01*
X73293486Y-79775105D01*
X73421153Y-79800499D01*
X73421156Y-79800500D01*
X73421158Y-79800500D01*
X73578844Y-79800500D01*
X73578845Y-79800499D01*
X73733497Y-79769737D01*
X73879179Y-79709394D01*
X74010289Y-79621789D01*
X74121789Y-79510289D01*
X74169830Y-79438389D01*
X74223441Y-79393585D01*
X74292766Y-79384878D01*
X74355794Y-79415032D01*
X74392514Y-79474475D01*
X74396150Y-79512776D01*
X74396500Y-79512776D01*
X74396500Y-79516462D01*
X74396551Y-79517000D01*
X74396500Y-79517648D01*
X74396500Y-79722352D01*
X74399704Y-79742580D01*
X74428522Y-79924534D01*
X74491781Y-80119223D01*
X74548360Y-80230263D01*
X74584582Y-80301353D01*
X74584715Y-80301613D01*
X74705028Y-80467213D01*
X74849786Y-80611971D01*
X75015385Y-80732284D01*
X75015387Y-80732285D01*
X75015390Y-80732287D01*
X75108630Y-80779795D01*
X75159426Y-80827770D01*
X75176221Y-80895591D01*
X75153684Y-80961725D01*
X75108630Y-81000765D01*
X75015644Y-81048143D01*
X74971077Y-81080523D01*
X74971077Y-81080524D01*
X75650554Y-81760000D01*
X75644339Y-81760000D01*
X75542606Y-81787259D01*
X75451394Y-81839920D01*
X75376920Y-81914394D01*
X75324259Y-82005606D01*
X75297000Y-82107339D01*
X75297000Y-82113553D01*
X74617524Y-81434077D01*
X74617523Y-81434077D01*
X74585143Y-81478644D01*
X74492244Y-81660968D01*
X74429009Y-81855582D01*
X74397000Y-82057682D01*
X74397000Y-82262317D01*
X74429009Y-82464417D01*
X74492244Y-82659031D01*
X74585141Y-82841350D01*
X74585147Y-82841359D01*
X74617523Y-82885921D01*
X74617524Y-82885922D01*
X75297000Y-82206446D01*
X75297000Y-82212661D01*
X75324259Y-82314394D01*
X75376920Y-82405606D01*
X75451394Y-82480080D01*
X75542606Y-82532741D01*
X75644339Y-82560000D01*
X75650553Y-82560000D01*
X74971076Y-83239474D01*
X75015652Y-83271861D01*
X75108628Y-83319234D01*
X75159425Y-83367208D01*
X75176220Y-83435029D01*
X75153683Y-83501164D01*
X75108630Y-83540203D01*
X75015388Y-83587713D01*
X74849786Y-83708028D01*
X74705028Y-83852786D01*
X74584715Y-84018386D01*
X74491781Y-84200776D01*
X74428522Y-84395465D01*
X74396500Y-84597648D01*
X74396500Y-84802351D01*
X74428522Y-85004534D01*
X74491781Y-85199223D01*
X74532691Y-85279511D01*
X74583474Y-85379179D01*
X74584715Y-85381613D01*
X74705028Y-85547213D01*
X74849786Y-85691971D01*
X74979897Y-85786500D01*
X75015390Y-85812287D01*
X75091382Y-85851007D01*
X75108080Y-85859515D01*
X75158876Y-85907490D01*
X75175671Y-85975311D01*
X75153134Y-86041446D01*
X75108080Y-86080485D01*
X75015386Y-86127715D01*
X74849786Y-86248028D01*
X74705028Y-86392786D01*
X74584715Y-86558386D01*
X74491781Y-86740776D01*
X74428522Y-86935465D01*
X74411003Y-87046078D01*
X74396500Y-87137648D01*
X74396500Y-87342352D01*
X74400878Y-87369995D01*
X74428522Y-87544534D01*
X74491781Y-87739223D01*
X74584715Y-87921613D01*
X74705028Y-88087213D01*
X74849784Y-88231969D01*
X74945385Y-88301426D01*
X74988051Y-88356755D01*
X74996500Y-88401744D01*
X74996500Y-89628006D01*
X74996500Y-89765994D01*
X74996500Y-89765996D01*
X74996499Y-89765996D01*
X75023418Y-89901322D01*
X75023421Y-89901332D01*
X75076222Y-90028807D01*
X75152887Y-90143545D01*
X75152888Y-90143546D01*
X76203928Y-91194585D01*
X76230808Y-91234814D01*
X76290602Y-91379172D01*
X76290609Y-91379185D01*
X76378210Y-91510288D01*
X76378213Y-91510292D01*
X76455740Y-91587819D01*
X76489225Y-91649142D01*
X76484241Y-91718834D01*
X76442369Y-91774767D01*
X76376905Y-91799184D01*
X76368059Y-91799500D01*
X64931004Y-91799500D01*
X64795677Y-91826418D01*
X64795667Y-91826421D01*
X64668192Y-91879222D01*
X64553454Y-91955887D01*
X62480887Y-94028454D01*
X62404223Y-94143192D01*
X62351421Y-94270668D01*
X62351418Y-94270680D01*
X62338761Y-94334311D01*
X62338761Y-94334312D01*
X62324500Y-94406004D01*
X62324500Y-99903915D01*
X62304815Y-99970954D01*
X62262500Y-100011302D01*
X62094929Y-100108049D01*
X61921201Y-100241355D01*
X61921194Y-100241361D01*
X61766361Y-100396194D01*
X61766355Y-100396201D01*
X61633049Y-100569929D01*
X61523565Y-100759561D01*
X61523561Y-100759569D01*
X61523560Y-100759572D01*
X61510612Y-100790832D01*
X61439758Y-100961884D01*
X61383084Y-101173399D01*
X61383082Y-101173410D01*
X61354500Y-101390502D01*
X54948683Y-101390502D01*
X54991966Y-101347219D01*
X55019442Y-101309402D01*
X55061916Y-101250940D01*
X55112287Y-101181610D01*
X55205220Y-100999219D01*
X55268477Y-100804534D01*
X55300500Y-100602352D01*
X55300500Y-100397648D01*
X55298774Y-100386750D01*
X55268477Y-100195465D01*
X55220849Y-100048882D01*
X55205220Y-100000781D01*
X55205218Y-100000778D01*
X55205218Y-100000776D01*
X55171248Y-99934108D01*
X55112287Y-99818390D01*
X55079302Y-99772989D01*
X54991971Y-99652786D01*
X54847213Y-99508028D01*
X54681613Y-99387715D01*
X54681612Y-99387714D01*
X54681610Y-99387713D01*
X54614567Y-99353553D01*
X54499223Y-99294781D01*
X54304534Y-99231522D01*
X54121009Y-99202455D01*
X54102352Y-99199500D01*
X53897648Y-99199500D01*
X53878991Y-99202455D01*
X53695465Y-99231522D01*
X53500776Y-99294781D01*
X53318386Y-99387715D01*
X53152786Y-99508028D01*
X53008028Y-99652786D01*
X52887715Y-99818386D01*
X52794781Y-100000776D01*
X52731522Y-100195465D01*
X52701226Y-100386750D01*
X52699500Y-100397648D01*
X50518345Y-100397648D01*
X50518324Y-100397492D01*
X50517386Y-100386771D01*
X50500618Y-100002702D01*
X50500500Y-99997293D01*
X50500500Y-87352135D01*
X54399500Y-87352135D01*
X54399500Y-88647870D01*
X54399501Y-88647876D01*
X54405908Y-88707483D01*
X54456202Y-88842328D01*
X54456206Y-88842335D01*
X54542452Y-88957544D01*
X54542455Y-88957547D01*
X54657664Y-89043793D01*
X54665454Y-89048047D01*
X54664203Y-89050336D01*
X54709214Y-89084025D01*
X54733635Y-89149488D01*
X54718788Y-89217762D01*
X54697634Y-89246023D01*
X54660589Y-89283068D01*
X54660588Y-89283070D01*
X54660586Y-89283072D01*
X54625461Y-89331417D01*
X54558768Y-89423211D01*
X54480128Y-89577552D01*
X54480127Y-89577554D01*
X54480127Y-89577555D01*
X54461964Y-89633454D01*
X54426597Y-89742302D01*
X54405474Y-89875672D01*
X54399500Y-89913389D01*
X54399500Y-90086611D01*
X54402646Y-90106474D01*
X54422488Y-90231755D01*
X54426598Y-90257701D01*
X54480127Y-90422445D01*
X54558768Y-90576788D01*
X54660586Y-90716928D01*
X54783072Y-90839414D01*
X54923212Y-90941232D01*
X55077555Y-91019873D01*
X55242299Y-91073402D01*
X55413389Y-91100500D01*
X55413390Y-91100500D01*
X55586610Y-91100500D01*
X55586611Y-91100500D01*
X55757701Y-91073402D01*
X55922445Y-91019873D01*
X56076788Y-90941232D01*
X56216928Y-90839414D01*
X56319524Y-90736818D01*
X56380847Y-90703334D01*
X56407205Y-90700500D01*
X59568996Y-90700500D01*
X59660040Y-90682389D01*
X59704328Y-90673580D01*
X59768069Y-90647177D01*
X59831807Y-90620777D01*
X59831808Y-90620776D01*
X59831811Y-90620775D01*
X59946543Y-90544114D01*
X60753838Y-89736819D01*
X60815161Y-89703334D01*
X60841519Y-89700500D01*
X62961862Y-89700500D01*
X63028901Y-89720185D01*
X63062179Y-89751613D01*
X63063129Y-89752921D01*
X63084310Y-89782073D01*
X63217927Y-89915690D01*
X63370801Y-90026760D01*
X63450347Y-90067290D01*
X63539163Y-90112545D01*
X63539165Y-90112545D01*
X63539168Y-90112547D01*
X63621465Y-90139287D01*
X63718881Y-90170940D01*
X63905514Y-90200500D01*
X63905519Y-90200500D01*
X64094486Y-90200500D01*
X64281118Y-90170940D01*
X64460832Y-90112547D01*
X64629199Y-90026760D01*
X64782073Y-89915690D01*
X64915690Y-89782073D01*
X65026760Y-89629199D01*
X65112547Y-89460832D01*
X65170940Y-89281118D01*
X65171243Y-89279207D01*
X65200500Y-89094486D01*
X65200500Y-88905513D01*
X67879500Y-88905513D01*
X67879500Y-89094486D01*
X67909059Y-89281118D01*
X67967454Y-89460836D01*
X68026926Y-89577555D01*
X68053240Y-89629199D01*
X68164310Y-89782073D01*
X68297927Y-89915690D01*
X68450801Y-90026760D01*
X68530347Y-90067290D01*
X68619163Y-90112545D01*
X68619165Y-90112545D01*
X68619168Y-90112547D01*
X68701465Y-90139287D01*
X68798881Y-90170940D01*
X68985514Y-90200500D01*
X68985519Y-90200500D01*
X69174486Y-90200500D01*
X69361118Y-90170940D01*
X69540832Y-90112547D01*
X69709199Y-90026760D01*
X69862073Y-89915690D01*
X69995690Y-89782073D01*
X70106760Y-89629199D01*
X70192547Y-89460832D01*
X70250940Y-89281118D01*
X70251243Y-89279207D01*
X70280500Y-89094486D01*
X70280500Y-88905513D01*
X70250940Y-88718881D01*
X70192545Y-88539163D01*
X70111052Y-88379225D01*
X70106760Y-88370801D01*
X69995690Y-88217927D01*
X69862073Y-88084310D01*
X69831613Y-88062179D01*
X69788948Y-88006848D01*
X69780500Y-87961862D01*
X69780500Y-86261518D01*
X69800185Y-86194479D01*
X69816814Y-86173842D01*
X71194586Y-84796069D01*
X71234810Y-84769192D01*
X71312969Y-84736819D01*
X71379173Y-84709397D01*
X71379176Y-84709395D01*
X71379179Y-84709394D01*
X71510289Y-84621789D01*
X71621789Y-84510289D01*
X71709394Y-84379179D01*
X71769737Y-84233497D01*
X71800500Y-84078842D01*
X71800500Y-83921158D01*
X71800500Y-83921155D01*
X71800499Y-83921153D01*
X71777531Y-83805685D01*
X71769737Y-83766503D01*
X71752956Y-83725989D01*
X71709397Y-83620827D01*
X71709390Y-83620814D01*
X71621789Y-83489711D01*
X71621786Y-83489707D01*
X71510292Y-83378213D01*
X71510288Y-83378210D01*
X71379185Y-83290609D01*
X71379172Y-83290602D01*
X71233501Y-83230264D01*
X71233489Y-83230261D01*
X71078845Y-83199500D01*
X71078842Y-83199500D01*
X70921158Y-83199500D01*
X70921155Y-83199500D01*
X70766510Y-83230261D01*
X70766498Y-83230264D01*
X70620827Y-83290602D01*
X70620814Y-83290609D01*
X70489711Y-83378210D01*
X70489707Y-83378213D01*
X70378213Y-83489707D01*
X70378210Y-83489711D01*
X70290609Y-83620814D01*
X70290604Y-83620823D01*
X70230809Y-83765184D01*
X70203929Y-83805412D01*
X68535887Y-85473454D01*
X68459222Y-85588192D01*
X68406421Y-85715667D01*
X68406418Y-85715679D01*
X68383866Y-85829057D01*
X68383866Y-85829060D01*
X68379500Y-85851006D01*
X68379500Y-87961862D01*
X68359815Y-88028901D01*
X68328387Y-88062179D01*
X68297927Y-88084309D01*
X68164312Y-88217924D01*
X68164312Y-88217925D01*
X68164310Y-88217927D01*
X68116610Y-88283579D01*
X68053240Y-88370800D01*
X67967454Y-88539163D01*
X67909059Y-88718881D01*
X67879500Y-88905513D01*
X65200500Y-88905513D01*
X65170940Y-88718881D01*
X65112545Y-88539163D01*
X65031052Y-88379225D01*
X65026760Y-88370801D01*
X64915690Y-88217927D01*
X64782073Y-88084310D01*
X64629199Y-87973240D01*
X64460836Y-87887454D01*
X64281118Y-87829059D01*
X64094486Y-87799500D01*
X64094481Y-87799500D01*
X63905519Y-87799500D01*
X63905514Y-87799500D01*
X63718881Y-87829059D01*
X63539163Y-87887454D01*
X63370800Y-87973240D01*
X63285758Y-88035028D01*
X63217927Y-88084310D01*
X63217925Y-88084312D01*
X63217924Y-88084312D01*
X63084309Y-88217927D01*
X63062179Y-88248387D01*
X63006848Y-88291052D01*
X62961862Y-88299500D01*
X60431004Y-88299500D01*
X60295677Y-88326418D01*
X60295667Y-88326421D01*
X60168192Y-88379222D01*
X60053454Y-88455887D01*
X60053453Y-88455888D01*
X59246162Y-89263181D01*
X59184839Y-89296666D01*
X59158481Y-89299500D01*
X56407205Y-89299500D01*
X56377769Y-89290856D01*
X56347781Y-89284334D01*
X56342762Y-89280577D01*
X56340166Y-89279815D01*
X56319526Y-89263184D01*
X56319152Y-89262810D01*
X56302366Y-89246024D01*
X56268882Y-89184705D01*
X56273864Y-89115013D01*
X56315734Y-89059078D01*
X56334865Y-89048632D01*
X56334546Y-89048047D01*
X56342326Y-89043797D01*
X56342331Y-89043796D01*
X56457546Y-88957546D01*
X56543796Y-88842331D01*
X56594091Y-88707483D01*
X56600500Y-88647873D01*
X56600499Y-87352128D01*
X56594091Y-87292517D01*
X56589839Y-87281118D01*
X56543797Y-87157671D01*
X56543793Y-87157664D01*
X56457547Y-87042455D01*
X56457544Y-87042452D01*
X56342335Y-86956206D01*
X56342328Y-86956202D01*
X56281167Y-86933391D01*
X56225233Y-86891520D01*
X56200816Y-86826056D01*
X56200500Y-86817209D01*
X56200500Y-83341519D01*
X56220185Y-83274480D01*
X56236819Y-83253838D01*
X56932112Y-82558545D01*
X56932114Y-82558543D01*
X57008775Y-82443811D01*
X57013768Y-82431758D01*
X57061578Y-82316332D01*
X57061580Y-82316328D01*
X57072324Y-82262317D01*
X57088500Y-82180996D01*
X57088500Y-78289500D01*
X57108185Y-78222461D01*
X57160989Y-78176706D01*
X57212500Y-78165500D01*
X59123481Y-78165500D01*
X59190520Y-78185185D01*
X59211162Y-78201819D01*
X60133453Y-79124111D01*
X60133457Y-79124114D01*
X60231680Y-79189744D01*
X60248189Y-79200775D01*
X60248191Y-79200775D01*
X60248195Y-79200778D01*
X60375667Y-79253578D01*
X60375672Y-79253580D01*
X60375676Y-79253580D01*
X60375677Y-79253581D01*
X60511004Y-79280500D01*
X60511007Y-79280500D01*
X62961862Y-79280500D01*
X63028901Y-79300185D01*
X63062179Y-79331613D01*
X63084310Y-79362073D01*
X63217927Y-79495690D01*
X63370801Y-79606760D01*
X63436017Y-79639989D01*
X63539163Y-79692545D01*
X63539165Y-79692545D01*
X63539168Y-79692547D01*
X63591027Y-79709397D01*
X63718881Y-79750940D01*
X63905514Y-79780500D01*
X63905519Y-79780500D01*
X64094486Y-79780500D01*
X64281118Y-79750940D01*
X64322186Y-79737596D01*
X64460832Y-79692547D01*
X64629199Y-79606760D01*
X64782073Y-79495690D01*
X64915690Y-79362073D01*
X65026760Y-79209199D01*
X65112547Y-79040832D01*
X65170940Y-78861118D01*
X65200500Y-78674486D01*
X65200500Y-78485513D01*
X65170940Y-78298881D01*
X65141862Y-78209390D01*
X65112547Y-78119168D01*
X65112545Y-78119165D01*
X65112545Y-78119163D01*
X65065456Y-78026746D01*
X65026760Y-77950801D01*
X64915690Y-77797927D01*
X64782073Y-77664310D01*
X64629199Y-77553240D01*
X64460836Y-77467454D01*
X64281118Y-77409059D01*
X64094486Y-77379500D01*
X64094481Y-77379500D01*
X63905519Y-77379500D01*
X63905514Y-77379500D01*
X63718881Y-77409059D01*
X63539163Y-77467454D01*
X63370800Y-77553240D01*
X63283579Y-77616610D01*
X63217927Y-77664310D01*
X63217925Y-77664312D01*
X63217924Y-77664312D01*
X63084309Y-77797927D01*
X63062179Y-77828387D01*
X63006848Y-77871052D01*
X62961862Y-77879500D01*
X60921519Y-77879500D01*
X60854480Y-77859815D01*
X60833838Y-77843181D01*
X59911546Y-76920888D01*
X59911545Y-76920887D01*
X59796807Y-76844222D01*
X59669332Y-76791421D01*
X59669322Y-76791418D01*
X59533996Y-76764500D01*
X59533994Y-76764500D01*
X59533993Y-76764500D01*
X57153783Y-76764500D01*
X57128122Y-76756965D01*
X57101671Y-76753018D01*
X57092230Y-76746426D01*
X57086744Y-76744815D01*
X57072082Y-76733779D01*
X57069004Y-76731083D01*
X57025782Y-76687861D01*
X56999954Y-76670603D01*
X56993865Y-76665270D01*
X56979294Y-76642329D01*
X56961869Y-76621478D01*
X56960838Y-76613272D01*
X56956404Y-76606291D01*
X56956549Y-76579115D01*
X56953163Y-76552153D01*
X56956732Y-76544691D01*
X56956777Y-76536422D01*
X56971589Y-76513641D01*
X56983319Y-76489126D01*
X56992532Y-76481431D01*
X56994864Y-76477846D01*
X56999121Y-76475928D01*
X57010470Y-76466452D01*
X57106343Y-76407317D01*
X57230315Y-76283345D01*
X57322356Y-76134124D01*
X57322358Y-76134119D01*
X57377505Y-75967697D01*
X57377506Y-75967690D01*
X57387999Y-75864986D01*
X57388000Y-75864973D01*
X57388000Y-75815000D01*
X56597618Y-75815000D01*
X56648064Y-75764554D01*
X56690851Y-75690445D01*
X56713000Y-75607787D01*
X56713000Y-75522213D01*
X56690851Y-75439555D01*
X56648064Y-75365446D01*
X56597618Y-75315000D01*
X56638000Y-75315000D01*
X57387999Y-75315000D01*
X57387999Y-75265028D01*
X57387998Y-75265013D01*
X57377505Y-75162302D01*
X57322358Y-74995880D01*
X57322356Y-74995875D01*
X57230315Y-74846654D01*
X57106345Y-74722684D01*
X56957124Y-74630643D01*
X56957119Y-74630641D01*
X56790697Y-74575494D01*
X56790690Y-74575493D01*
X56687986Y-74565000D01*
X56638000Y-74565000D01*
X56638000Y-75315000D01*
X56597618Y-75315000D01*
X56587554Y-75304936D01*
X56513445Y-75262149D01*
X56430787Y-75240000D01*
X56345213Y-75240000D01*
X56262555Y-75262149D01*
X56188446Y-75304936D01*
X56127936Y-75365446D01*
X56085149Y-75439555D01*
X56063000Y-75522213D01*
X56063000Y-75607787D01*
X56085149Y-75690445D01*
X56127936Y-75764554D01*
X56178382Y-75815000D01*
X55388001Y-75815000D01*
X55388001Y-75864986D01*
X55398494Y-75967697D01*
X55453641Y-76134119D01*
X55453643Y-76134124D01*
X55545684Y-76283345D01*
X55669654Y-76407315D01*
X55765530Y-76466452D01*
X55812254Y-76518400D01*
X55823477Y-76587363D01*
X55795633Y-76651445D01*
X55769328Y-76675090D01*
X55750222Y-76687857D01*
X55750214Y-76687863D01*
X55610863Y-76827214D01*
X55610860Y-76827218D01*
X55501371Y-76991079D01*
X55501364Y-76991092D01*
X55425950Y-77173160D01*
X55425947Y-77173170D01*
X55387500Y-77366456D01*
X55387500Y-77366459D01*
X55387500Y-77563541D01*
X55387500Y-77563543D01*
X55387499Y-77563543D01*
X55425947Y-77756829D01*
X55425950Y-77756839D01*
X55501364Y-77938907D01*
X55501371Y-77938920D01*
X55610860Y-78102781D01*
X55610863Y-78102785D01*
X55651180Y-78143101D01*
X55684666Y-78204424D01*
X55687500Y-78230783D01*
X55687500Y-81770480D01*
X55667815Y-81837519D01*
X55651181Y-81858161D01*
X54955888Y-82553453D01*
X54955884Y-82553458D01*
X54933049Y-82587635D01*
X54916622Y-82612220D01*
X54897859Y-82640300D01*
X54879223Y-82668191D01*
X54826421Y-82795667D01*
X54826418Y-82795677D01*
X54799500Y-82931004D01*
X54799500Y-86817209D01*
X54779815Y-86884248D01*
X54727011Y-86930003D01*
X54718833Y-86933391D01*
X54657671Y-86956202D01*
X54657664Y-86956206D01*
X54542455Y-87042452D01*
X54542452Y-87042455D01*
X54456206Y-87157664D01*
X54456202Y-87157671D01*
X54405908Y-87292517D01*
X54399501Y-87352116D01*
X54399501Y-87352123D01*
X54399500Y-87352135D01*
X50500500Y-87352135D01*
X50500500Y-75265013D01*
X55388000Y-75265013D01*
X55388000Y-75315000D01*
X56138000Y-75315000D01*
X56138000Y-74565000D01*
X56137999Y-74564999D01*
X56088029Y-74565000D01*
X56088011Y-74565001D01*
X55985302Y-74575494D01*
X55818880Y-74630641D01*
X55818875Y-74630643D01*
X55669654Y-74722684D01*
X55545684Y-74846654D01*
X55453643Y-74995875D01*
X55453641Y-74995880D01*
X55398494Y-75162302D01*
X55398493Y-75162309D01*
X55388000Y-75265013D01*
X50500500Y-75265013D01*
X50500500Y-71568996D01*
X61299499Y-71568996D01*
X61326418Y-71704322D01*
X61326421Y-71704332D01*
X61379222Y-71831807D01*
X61455887Y-71946545D01*
X61455888Y-71946546D01*
X62770597Y-73261254D01*
X62804082Y-73322577D01*
X62805389Y-73368333D01*
X62799500Y-73405513D01*
X62799500Y-73594486D01*
X62829059Y-73781118D01*
X62887454Y-73960836D01*
X62945809Y-74075363D01*
X62973240Y-74129199D01*
X63084310Y-74282073D01*
X63217927Y-74415690D01*
X63370801Y-74526760D01*
X63445853Y-74565001D01*
X63539163Y-74612545D01*
X63539165Y-74612545D01*
X63539168Y-74612547D01*
X63605855Y-74634215D01*
X63718881Y-74670940D01*
X63905514Y-74700500D01*
X63905519Y-74700500D01*
X64094486Y-74700500D01*
X64281118Y-74670940D01*
X64282623Y-74670451D01*
X64460832Y-74612547D01*
X64629199Y-74526760D01*
X64782073Y-74415690D01*
X64915690Y-74282073D01*
X64937821Y-74251613D01*
X64993152Y-74208948D01*
X65038138Y-74200500D01*
X65658481Y-74200500D01*
X65725520Y-74220185D01*
X65746162Y-74236819D01*
X66703927Y-75194584D01*
X66730807Y-75234812D01*
X66790604Y-75379176D01*
X66790609Y-75379185D01*
X66878210Y-75510288D01*
X66878213Y-75510292D01*
X66989707Y-75621786D01*
X66989711Y-75621789D01*
X67120814Y-75709390D01*
X67120827Y-75709397D01*
X67191222Y-75738555D01*
X67266503Y-75769737D01*
X67408208Y-75797924D01*
X67421153Y-75800499D01*
X67421156Y-75800500D01*
X67421158Y-75800500D01*
X67578844Y-75800500D01*
X67578845Y-75800499D01*
X67733497Y-75769737D01*
X67879179Y-75709394D01*
X68010289Y-75621789D01*
X68121789Y-75510289D01*
X68209394Y-75379179D01*
X68269737Y-75233497D01*
X68300500Y-75078842D01*
X68300500Y-74921158D01*
X68300500Y-74921155D01*
X68300499Y-74921153D01*
X68296390Y-74900498D01*
X68269737Y-74766503D01*
X68241286Y-74697815D01*
X68209397Y-74620827D01*
X68209390Y-74620814D01*
X68121789Y-74489711D01*
X68121786Y-74489707D01*
X68010292Y-74378213D01*
X68010288Y-74378210D01*
X67879185Y-74290609D01*
X67879176Y-74290604D01*
X67734812Y-74230807D01*
X67694584Y-74203927D01*
X67291275Y-73800618D01*
X67240657Y-73750000D01*
X68928638Y-73750000D01*
X68933548Y-73781002D01*
X68991914Y-73960637D01*
X69077670Y-74128940D01*
X69188685Y-74281741D01*
X69188689Y-74281746D01*
X69322253Y-74415310D01*
X69322258Y-74415314D01*
X69475059Y-74526329D01*
X69643362Y-74612085D01*
X69822997Y-74670451D01*
X69854000Y-74675362D01*
X69854000Y-73750000D01*
X68928638Y-73750000D01*
X67240657Y-73750000D01*
X66446546Y-72955888D01*
X66446545Y-72955887D01*
X66331807Y-72879222D01*
X66204332Y-72826421D01*
X66204322Y-72826418D01*
X66068996Y-72799500D01*
X66068994Y-72799500D01*
X66068993Y-72799500D01*
X65038138Y-72799500D01*
X64971099Y-72779815D01*
X64937821Y-72748387D01*
X64915690Y-72717927D01*
X64782075Y-72584312D01*
X64782073Y-72584310D01*
X64629199Y-72473240D01*
X64620008Y-72468557D01*
X64460836Y-72387454D01*
X64281118Y-72329059D01*
X64094486Y-72299500D01*
X64094481Y-72299500D01*
X63905519Y-72299500D01*
X63905514Y-72299500D01*
X63868333Y-72305389D01*
X63799040Y-72296435D01*
X63761254Y-72270597D01*
X62736819Y-71246162D01*
X62703334Y-71184839D01*
X62700500Y-71158481D01*
X62700500Y-66261518D01*
X62720185Y-66194479D01*
X62736814Y-66173841D01*
X63681254Y-65229401D01*
X63742577Y-65195917D01*
X63788333Y-65194610D01*
X63825519Y-65200500D01*
X63825520Y-65200500D01*
X64014486Y-65200500D01*
X64201118Y-65170940D01*
X64277379Y-65146161D01*
X64380832Y-65112547D01*
X64549199Y-65026760D01*
X64702073Y-64915690D01*
X64835690Y-64782073D01*
X64946760Y-64629199D01*
X65032547Y-64460832D01*
X65090940Y-64281118D01*
X65097651Y-64238745D01*
X65120500Y-64094486D01*
X65120500Y-63905513D01*
X65090940Y-63718881D01*
X65039523Y-63560639D01*
X65032547Y-63539168D01*
X65032545Y-63539165D01*
X65032545Y-63539163D01*
X64946759Y-63370800D01*
X64835690Y-63217927D01*
X64702073Y-63084310D01*
X64549199Y-62973240D01*
X64380836Y-62887454D01*
X64201118Y-62829059D01*
X64014486Y-62799500D01*
X64014481Y-62799500D01*
X63825519Y-62799500D01*
X63825514Y-62799500D01*
X63638881Y-62829059D01*
X63459163Y-62887454D01*
X63290800Y-62973240D01*
X63203579Y-63036610D01*
X63137927Y-63084310D01*
X63137925Y-63084312D01*
X63137924Y-63084312D01*
X63004312Y-63217924D01*
X63004312Y-63217925D01*
X63004310Y-63217927D01*
X62956610Y-63283579D01*
X62893240Y-63370800D01*
X62807454Y-63539163D01*
X62749059Y-63718881D01*
X62719500Y-63905513D01*
X62719500Y-64094482D01*
X62725389Y-64131668D01*
X62716433Y-64200961D01*
X62690596Y-64238745D01*
X61455887Y-65473454D01*
X61379222Y-65588192D01*
X61326421Y-65715667D01*
X61326418Y-65715677D01*
X61299500Y-65851004D01*
X61299500Y-65851007D01*
X61299500Y-71431006D01*
X61299500Y-71568994D01*
X61299500Y-71568996D01*
X61299499Y-71568996D01*
X50500500Y-71568996D01*
X50500500Y-55002706D01*
X50500618Y-54997297D01*
X50502857Y-54946007D01*
X50517386Y-54613226D01*
X50518326Y-54602495D01*
X50568152Y-54224025D01*
X50570024Y-54213409D01*
X50640026Y-53897648D01*
X52699500Y-53897648D01*
X52699500Y-54102351D01*
X52731522Y-54304534D01*
X52794781Y-54499223D01*
X52887715Y-54681613D01*
X53008028Y-54847213D01*
X53152786Y-54991971D01*
X53296687Y-55096519D01*
X53318390Y-55112287D01*
X53434607Y-55171503D01*
X53500776Y-55205218D01*
X53500778Y-55205218D01*
X53500781Y-55205220D01*
X53605137Y-55239127D01*
X53695465Y-55268477D01*
X53784002Y-55282500D01*
X53897648Y-55300500D01*
X53897649Y-55300500D01*
X54102351Y-55300500D01*
X54102352Y-55300500D01*
X54304534Y-55268477D01*
X54499219Y-55205220D01*
X54681610Y-55112287D01*
X54832437Y-55002706D01*
X54847213Y-54991971D01*
X54847215Y-54991968D01*
X54847219Y-54991966D01*
X54991966Y-54847219D01*
X54991968Y-54847215D01*
X54991971Y-54847213D01*
X55060344Y-54753104D01*
X55112287Y-54681610D01*
X55205220Y-54499219D01*
X55268477Y-54304534D01*
X55300500Y-54102352D01*
X55300500Y-53897648D01*
X55290184Y-53832514D01*
X55268477Y-53695465D01*
X55205218Y-53500776D01*
X55161082Y-53414155D01*
X55112287Y-53318390D01*
X55090291Y-53288115D01*
X54991971Y-53152786D01*
X54847213Y-53008028D01*
X54681613Y-52887715D01*
X54681612Y-52887714D01*
X54681610Y-52887713D01*
X54624653Y-52858691D01*
X54499223Y-52794781D01*
X54304534Y-52731522D01*
X54129995Y-52703878D01*
X54102352Y-52699500D01*
X53897648Y-52699500D01*
X53873329Y-52703351D01*
X53695465Y-52731522D01*
X53500776Y-52794781D01*
X53318386Y-52887715D01*
X53152786Y-53008028D01*
X53008028Y-53152786D01*
X52887715Y-53318386D01*
X52794781Y-53500776D01*
X52731522Y-53695465D01*
X52699500Y-53897648D01*
X50640026Y-53897648D01*
X50652649Y-53840709D01*
X50655440Y-53830295D01*
X50770230Y-53466227D01*
X50773917Y-53456095D01*
X50920003Y-53103412D01*
X50924561Y-53093638D01*
X51100822Y-52755045D01*
X51106217Y-52745700D01*
X51311325Y-52423744D01*
X51317515Y-52414905D01*
X51549896Y-52112060D01*
X51556834Y-52103791D01*
X51814726Y-51822352D01*
X51822352Y-51814726D01*
X52103791Y-51556834D01*
X52112060Y-51549896D01*
X52414905Y-51317515D01*
X52423744Y-51311325D01*
X52745700Y-51106217D01*
X52755045Y-51100822D01*
X53093638Y-50924561D01*
X53103412Y-50920003D01*
X53456095Y-50773917D01*
X53466227Y-50770230D01*
X53830295Y-50655440D01*
X53840709Y-50652649D01*
X54213405Y-50570025D01*
X54224025Y-50568152D01*
X54602495Y-50518326D01*
X54613226Y-50517386D01*
X54997297Y-50500617D01*
X55002706Y-50500500D01*
X55065892Y-50500500D01*
X139934108Y-50500500D01*
X139997294Y-50500500D01*
X140002702Y-50500617D01*
G37*
%TD.AperFunction*%
%TD*%
M02*
