M48
; DRILL file {KiCad 9.0.2} date 2025-06-20T15:30:45-0400
; FORMAT={-:-/ absolute / metric / decimal}
; #@! TF.CreationDate,2025-06-20T15:30:45-04:00
; #@! TF.GenerationSoftware,Kicad,Pcbnew,9.0.2
; #@! TF.FileFunction,Plated,1,2,PTH
FMAT,2
METRIC
; #@! TA.AperFunction,Plated,PTH,ViaDrill
T1C0.300
; #@! TA.AperFunction,Plated,PTH,ComponentDrill
T2C0.762
; #@! TA.AperFunction,Plated,PTH,ComponentDrill
T3C0.800
; #@! TA.AperFunction,Plated,PTH,ComponentDrill
T4C1.000
; #@! TA.AperFunction,Plated,PTH,ComponentDrill
T5C1.100
; #@! TA.AperFunction,Plated,PTH,ComponentDrill
T6C1.200
; #@! TA.AperFunction,Plated,PTH,ComponentDrill
T7C1.300
; #@! TA.AperFunction,Plated,PTH,ComponentDrill
T8C1.500
; #@! TA.AperFunction,Plated,PTH,ComponentDrill
T9C1.520
%
G90
G05
T1
X138.25Y-114.0
X139.25Y-109.75
X141.0Y-105.75
X142.25Y-113.5
X142.75Y-120.75
X144.0Y-106.0
X146.25Y-110.75
X149.0Y-85.5
X149.0Y-89.25
X154.0Y-83.0
X156.75Y-106.75
X180.0Y-91.0
T2
X149.45Y-114.46
X149.45Y-117.0
X149.45Y-119.54
X149.45Y-127.16
X149.45Y-129.7
X168.5Y-114.46
X168.5Y-117.0
X168.5Y-127.16
X168.5Y-129.7
T3
X112.0Y-86.34
X112.0Y-96.5
X112.0Y-100.0
X112.0Y-110.16
X112.0Y-112.92
X112.0Y-123.08
X118.92Y-121.0
X118.92Y-126.5
X124.42Y-81.5
X129.08Y-121.0
X129.08Y-126.5
X129.83Y-55.621
X132.37Y-55.621
X132.5Y-129.0
X134.58Y-81.5
X134.91Y-55.621
X142.5Y-78.068
X142.5Y-80.568
X142.66Y-129.0
X152.5Y-92.46
X152.5Y-95.0
X152.5Y-97.54
X152.5Y-100.08
X152.5Y-102.62
X152.5Y-105.16
X152.5Y-107.7
X155.25Y-86.75
X157.75Y-86.75
X160.12Y-92.46
X160.12Y-95.0
X160.12Y-97.54
X160.12Y-100.08
X160.12Y-102.62
X160.12Y-105.16
X160.12Y-107.7
X162.09Y-84.0
X172.0Y-89.5
X172.0Y-92.0
X172.25Y-84.0
T4
X129.4Y-95.5
X137.0Y-95.5
T5
X129.3Y-71.0
X142.0Y-71.0
T6
X100.5Y-95.0
X100.5Y-100.0
X100.5Y-105.0
T7
X188.0Y-85.0
X188.0Y-90.0
T8
X178.0Y-98.57
X178.0Y-110.0
X184.35Y-98.57
X184.35Y-110.0
X190.7Y-98.57
X190.7Y-110.0
T9
X142.46Y-54.0
X147.54Y-54.0
M30
