%TF.GenerationSoftware,KiCad,Pcbnew,9.0.2*%
%TF.CreationDate,2025-06-20T15:30:42-04:00*%
%TF.ProjectId,bongazo_proyectoexamen,626f6e67-617a-46f5-9f70-726f79656374,rev?*%
%TF.SameCoordinates,Original*%
%TF.FileFunction,Legend,Bot*%
%TF.FilePolarity,Positive*%
%FSLAX46Y46*%
G04 Gerber Fmt 4.6, Leading zero omitted, Abs format (unit mm)*
G04 Created by KiCad (PCBNEW 9.0.2) date 2025-06-20 15:30:42*
%MOMM*%
%LPD*%
G01*
G04 APERTURE LIST*
%ADD10C,0.100000*%
%ADD11C,0.150000*%
%ADD12C,0.300000*%
%ADD13C,0.400000*%
%ADD14C,0.000000*%
%ADD15C,0.187500*%
G04 APERTURE END LIST*
D10*
D11*
X177002200Y-166007200D02*
X285002200Y-166007200D01*
X285002200Y-198007200D01*
X177002200Y-198007200D01*
X177002200Y-166007200D01*
D10*
D11*
X10000000Y-10000000D02*
X287002200Y-10000000D01*
X287002200Y-200007200D01*
X10000000Y-200007200D01*
X10000000Y-10000000D01*
D10*
D11*
X12000000Y-12000000D02*
X285002200Y-12000000D01*
X285002200Y-198007200D01*
X12000000Y-198007200D01*
X12000000Y-12000000D01*
D10*
D11*
X60000000Y-12000000D02*
X60000000Y-10000000D01*
D10*
D11*
X110000000Y-12000000D02*
X110000000Y-10000000D01*
D10*
D11*
X160000000Y-12000000D02*
X160000000Y-10000000D01*
D10*
D11*
X210000000Y-12000000D02*
X210000000Y-10000000D01*
D10*
D11*
X260000000Y-12000000D02*
X260000000Y-10000000D01*
D10*
D11*
X36089160Y-11593604D02*
X35346303Y-11593604D01*
X35717731Y-11593604D02*
X35717731Y-10293604D01*
X35717731Y-10293604D02*
X35593922Y-10479319D01*
X35593922Y-10479319D02*
X35470112Y-10603128D01*
X35470112Y-10603128D02*
X35346303Y-10665033D01*
D10*
D11*
X85346303Y-10417414D02*
X85408207Y-10355509D01*
X85408207Y-10355509D02*
X85532017Y-10293604D01*
X85532017Y-10293604D02*
X85841541Y-10293604D01*
X85841541Y-10293604D02*
X85965350Y-10355509D01*
X85965350Y-10355509D02*
X86027255Y-10417414D01*
X86027255Y-10417414D02*
X86089160Y-10541223D01*
X86089160Y-10541223D02*
X86089160Y-10665033D01*
X86089160Y-10665033D02*
X86027255Y-10850747D01*
X86027255Y-10850747D02*
X85284398Y-11593604D01*
X85284398Y-11593604D02*
X86089160Y-11593604D01*
D10*
D11*
X135284398Y-10293604D02*
X136089160Y-10293604D01*
X136089160Y-10293604D02*
X135655826Y-10788842D01*
X135655826Y-10788842D02*
X135841541Y-10788842D01*
X135841541Y-10788842D02*
X135965350Y-10850747D01*
X135965350Y-10850747D02*
X136027255Y-10912652D01*
X136027255Y-10912652D02*
X136089160Y-11036461D01*
X136089160Y-11036461D02*
X136089160Y-11345985D01*
X136089160Y-11345985D02*
X136027255Y-11469795D01*
X136027255Y-11469795D02*
X135965350Y-11531700D01*
X135965350Y-11531700D02*
X135841541Y-11593604D01*
X135841541Y-11593604D02*
X135470112Y-11593604D01*
X135470112Y-11593604D02*
X135346303Y-11531700D01*
X135346303Y-11531700D02*
X135284398Y-11469795D01*
D10*
D11*
X185965350Y-10726938D02*
X185965350Y-11593604D01*
X185655826Y-10231700D02*
X185346303Y-11160271D01*
X185346303Y-11160271D02*
X186151064Y-11160271D01*
D10*
D11*
X236027255Y-10293604D02*
X235408207Y-10293604D01*
X235408207Y-10293604D02*
X235346303Y-10912652D01*
X235346303Y-10912652D02*
X235408207Y-10850747D01*
X235408207Y-10850747D02*
X235532017Y-10788842D01*
X235532017Y-10788842D02*
X235841541Y-10788842D01*
X235841541Y-10788842D02*
X235965350Y-10850747D01*
X235965350Y-10850747D02*
X236027255Y-10912652D01*
X236027255Y-10912652D02*
X236089160Y-11036461D01*
X236089160Y-11036461D02*
X236089160Y-11345985D01*
X236089160Y-11345985D02*
X236027255Y-11469795D01*
X236027255Y-11469795D02*
X235965350Y-11531700D01*
X235965350Y-11531700D02*
X235841541Y-11593604D01*
X235841541Y-11593604D02*
X235532017Y-11593604D01*
X235532017Y-11593604D02*
X235408207Y-11531700D01*
X235408207Y-11531700D02*
X235346303Y-11469795D01*
D10*
D11*
X285965350Y-10293604D02*
X285717731Y-10293604D01*
X285717731Y-10293604D02*
X285593922Y-10355509D01*
X285593922Y-10355509D02*
X285532017Y-10417414D01*
X285532017Y-10417414D02*
X285408207Y-10603128D01*
X285408207Y-10603128D02*
X285346303Y-10850747D01*
X285346303Y-10850747D02*
X285346303Y-11345985D01*
X285346303Y-11345985D02*
X285408207Y-11469795D01*
X285408207Y-11469795D02*
X285470112Y-11531700D01*
X285470112Y-11531700D02*
X285593922Y-11593604D01*
X285593922Y-11593604D02*
X285841541Y-11593604D01*
X285841541Y-11593604D02*
X285965350Y-11531700D01*
X285965350Y-11531700D02*
X286027255Y-11469795D01*
X286027255Y-11469795D02*
X286089160Y-11345985D01*
X286089160Y-11345985D02*
X286089160Y-11036461D01*
X286089160Y-11036461D02*
X286027255Y-10912652D01*
X286027255Y-10912652D02*
X285965350Y-10850747D01*
X285965350Y-10850747D02*
X285841541Y-10788842D01*
X285841541Y-10788842D02*
X285593922Y-10788842D01*
X285593922Y-10788842D02*
X285470112Y-10850747D01*
X285470112Y-10850747D02*
X285408207Y-10912652D01*
X285408207Y-10912652D02*
X285346303Y-11036461D01*
D10*
D11*
X60000000Y-198007200D02*
X60000000Y-200007200D01*
D10*
D11*
X110000000Y-198007200D02*
X110000000Y-200007200D01*
D10*
D11*
X160000000Y-198007200D02*
X160000000Y-200007200D01*
D10*
D11*
X210000000Y-198007200D02*
X210000000Y-200007200D01*
D10*
D11*
X260000000Y-198007200D02*
X260000000Y-200007200D01*
D10*
D11*
X36089160Y-199600804D02*
X35346303Y-199600804D01*
X35717731Y-199600804D02*
X35717731Y-198300804D01*
X35717731Y-198300804D02*
X35593922Y-198486519D01*
X35593922Y-198486519D02*
X35470112Y-198610328D01*
X35470112Y-198610328D02*
X35346303Y-198672233D01*
D10*
D11*
X85346303Y-198424614D02*
X85408207Y-198362709D01*
X85408207Y-198362709D02*
X85532017Y-198300804D01*
X85532017Y-198300804D02*
X85841541Y-198300804D01*
X85841541Y-198300804D02*
X85965350Y-198362709D01*
X85965350Y-198362709D02*
X86027255Y-198424614D01*
X86027255Y-198424614D02*
X86089160Y-198548423D01*
X86089160Y-198548423D02*
X86089160Y-198672233D01*
X86089160Y-198672233D02*
X86027255Y-198857947D01*
X86027255Y-198857947D02*
X85284398Y-199600804D01*
X85284398Y-199600804D02*
X86089160Y-199600804D01*
D10*
D11*
X135284398Y-198300804D02*
X136089160Y-198300804D01*
X136089160Y-198300804D02*
X135655826Y-198796042D01*
X135655826Y-198796042D02*
X135841541Y-198796042D01*
X135841541Y-198796042D02*
X135965350Y-198857947D01*
X135965350Y-198857947D02*
X136027255Y-198919852D01*
X136027255Y-198919852D02*
X136089160Y-199043661D01*
X136089160Y-199043661D02*
X136089160Y-199353185D01*
X136089160Y-199353185D02*
X136027255Y-199476995D01*
X136027255Y-199476995D02*
X135965350Y-199538900D01*
X135965350Y-199538900D02*
X135841541Y-199600804D01*
X135841541Y-199600804D02*
X135470112Y-199600804D01*
X135470112Y-199600804D02*
X135346303Y-199538900D01*
X135346303Y-199538900D02*
X135284398Y-199476995D01*
D10*
D11*
X185965350Y-198734138D02*
X185965350Y-199600804D01*
X185655826Y-198238900D02*
X185346303Y-199167471D01*
X185346303Y-199167471D02*
X186151064Y-199167471D01*
D10*
D11*
X236027255Y-198300804D02*
X235408207Y-198300804D01*
X235408207Y-198300804D02*
X235346303Y-198919852D01*
X235346303Y-198919852D02*
X235408207Y-198857947D01*
X235408207Y-198857947D02*
X235532017Y-198796042D01*
X235532017Y-198796042D02*
X235841541Y-198796042D01*
X235841541Y-198796042D02*
X235965350Y-198857947D01*
X235965350Y-198857947D02*
X236027255Y-198919852D01*
X236027255Y-198919852D02*
X236089160Y-199043661D01*
X236089160Y-199043661D02*
X236089160Y-199353185D01*
X236089160Y-199353185D02*
X236027255Y-199476995D01*
X236027255Y-199476995D02*
X235965350Y-199538900D01*
X235965350Y-199538900D02*
X235841541Y-199600804D01*
X235841541Y-199600804D02*
X235532017Y-199600804D01*
X235532017Y-199600804D02*
X235408207Y-199538900D01*
X235408207Y-199538900D02*
X235346303Y-199476995D01*
D10*
D11*
X285965350Y-198300804D02*
X285717731Y-198300804D01*
X285717731Y-198300804D02*
X285593922Y-198362709D01*
X285593922Y-198362709D02*
X285532017Y-198424614D01*
X285532017Y-198424614D02*
X285408207Y-198610328D01*
X285408207Y-198610328D02*
X285346303Y-198857947D01*
X285346303Y-198857947D02*
X285346303Y-199353185D01*
X285346303Y-199353185D02*
X285408207Y-199476995D01*
X285408207Y-199476995D02*
X285470112Y-199538900D01*
X285470112Y-199538900D02*
X285593922Y-199600804D01*
X285593922Y-199600804D02*
X285841541Y-199600804D01*
X285841541Y-199600804D02*
X285965350Y-199538900D01*
X285965350Y-199538900D02*
X286027255Y-199476995D01*
X286027255Y-199476995D02*
X286089160Y-199353185D01*
X286089160Y-199353185D02*
X286089160Y-199043661D01*
X286089160Y-199043661D02*
X286027255Y-198919852D01*
X286027255Y-198919852D02*
X285965350Y-198857947D01*
X285965350Y-198857947D02*
X285841541Y-198796042D01*
X285841541Y-198796042D02*
X285593922Y-198796042D01*
X285593922Y-198796042D02*
X285470112Y-198857947D01*
X285470112Y-198857947D02*
X285408207Y-198919852D01*
X285408207Y-198919852D02*
X285346303Y-199043661D01*
D10*
D11*
X10000000Y-60000000D02*
X12000000Y-60000000D01*
D10*
D11*
X10000000Y-110000000D02*
X12000000Y-110000000D01*
D10*
D11*
X10000000Y-160000000D02*
X12000000Y-160000000D01*
D10*
D11*
X10690476Y-35222176D02*
X11309523Y-35222176D01*
X10566666Y-35593604D02*
X10999999Y-34293604D01*
X10999999Y-34293604D02*
X11433333Y-35593604D01*
D10*
D11*
X11092857Y-84912652D02*
X11278571Y-84974557D01*
X11278571Y-84974557D02*
X11340476Y-85036461D01*
X11340476Y-85036461D02*
X11402380Y-85160271D01*
X11402380Y-85160271D02*
X11402380Y-85345985D01*
X11402380Y-85345985D02*
X11340476Y-85469795D01*
X11340476Y-85469795D02*
X11278571Y-85531700D01*
X11278571Y-85531700D02*
X11154761Y-85593604D01*
X11154761Y-85593604D02*
X10659523Y-85593604D01*
X10659523Y-85593604D02*
X10659523Y-84293604D01*
X10659523Y-84293604D02*
X11092857Y-84293604D01*
X11092857Y-84293604D02*
X11216666Y-84355509D01*
X11216666Y-84355509D02*
X11278571Y-84417414D01*
X11278571Y-84417414D02*
X11340476Y-84541223D01*
X11340476Y-84541223D02*
X11340476Y-84665033D01*
X11340476Y-84665033D02*
X11278571Y-84788842D01*
X11278571Y-84788842D02*
X11216666Y-84850747D01*
X11216666Y-84850747D02*
X11092857Y-84912652D01*
X11092857Y-84912652D02*
X10659523Y-84912652D01*
D10*
D11*
X11402380Y-135469795D02*
X11340476Y-135531700D01*
X11340476Y-135531700D02*
X11154761Y-135593604D01*
X11154761Y-135593604D02*
X11030952Y-135593604D01*
X11030952Y-135593604D02*
X10845238Y-135531700D01*
X10845238Y-135531700D02*
X10721428Y-135407890D01*
X10721428Y-135407890D02*
X10659523Y-135284080D01*
X10659523Y-135284080D02*
X10597619Y-135036461D01*
X10597619Y-135036461D02*
X10597619Y-134850747D01*
X10597619Y-134850747D02*
X10659523Y-134603128D01*
X10659523Y-134603128D02*
X10721428Y-134479319D01*
X10721428Y-134479319D02*
X10845238Y-134355509D01*
X10845238Y-134355509D02*
X11030952Y-134293604D01*
X11030952Y-134293604D02*
X11154761Y-134293604D01*
X11154761Y-134293604D02*
X11340476Y-134355509D01*
X11340476Y-134355509D02*
X11402380Y-134417414D01*
D10*
D11*
X10659523Y-185593604D02*
X10659523Y-184293604D01*
X10659523Y-184293604D02*
X10969047Y-184293604D01*
X10969047Y-184293604D02*
X11154761Y-184355509D01*
X11154761Y-184355509D02*
X11278571Y-184479319D01*
X11278571Y-184479319D02*
X11340476Y-184603128D01*
X11340476Y-184603128D02*
X11402380Y-184850747D01*
X11402380Y-184850747D02*
X11402380Y-185036461D01*
X11402380Y-185036461D02*
X11340476Y-185284080D01*
X11340476Y-185284080D02*
X11278571Y-185407890D01*
X11278571Y-185407890D02*
X11154761Y-185531700D01*
X11154761Y-185531700D02*
X10969047Y-185593604D01*
X10969047Y-185593604D02*
X10659523Y-185593604D01*
D10*
D11*
X287002200Y-60000000D02*
X285002200Y-60000000D01*
D10*
D11*
X287002200Y-110000000D02*
X285002200Y-110000000D01*
D10*
D11*
X287002200Y-160000000D02*
X285002200Y-160000000D01*
D10*
D11*
X285692676Y-35222176D02*
X286311723Y-35222176D01*
X285568866Y-35593604D02*
X286002199Y-34293604D01*
X286002199Y-34293604D02*
X286435533Y-35593604D01*
D10*
D11*
X286095057Y-84912652D02*
X286280771Y-84974557D01*
X286280771Y-84974557D02*
X286342676Y-85036461D01*
X286342676Y-85036461D02*
X286404580Y-85160271D01*
X286404580Y-85160271D02*
X286404580Y-85345985D01*
X286404580Y-85345985D02*
X286342676Y-85469795D01*
X286342676Y-85469795D02*
X286280771Y-85531700D01*
X286280771Y-85531700D02*
X286156961Y-85593604D01*
X286156961Y-85593604D02*
X285661723Y-85593604D01*
X285661723Y-85593604D02*
X285661723Y-84293604D01*
X285661723Y-84293604D02*
X286095057Y-84293604D01*
X286095057Y-84293604D02*
X286218866Y-84355509D01*
X286218866Y-84355509D02*
X286280771Y-84417414D01*
X286280771Y-84417414D02*
X286342676Y-84541223D01*
X286342676Y-84541223D02*
X286342676Y-84665033D01*
X286342676Y-84665033D02*
X286280771Y-84788842D01*
X286280771Y-84788842D02*
X286218866Y-84850747D01*
X286218866Y-84850747D02*
X286095057Y-84912652D01*
X286095057Y-84912652D02*
X285661723Y-84912652D01*
D10*
D11*
X286404580Y-135469795D02*
X286342676Y-135531700D01*
X286342676Y-135531700D02*
X286156961Y-135593604D01*
X286156961Y-135593604D02*
X286033152Y-135593604D01*
X286033152Y-135593604D02*
X285847438Y-135531700D01*
X285847438Y-135531700D02*
X285723628Y-135407890D01*
X285723628Y-135407890D02*
X285661723Y-135284080D01*
X285661723Y-135284080D02*
X285599819Y-135036461D01*
X285599819Y-135036461D02*
X285599819Y-134850747D01*
X285599819Y-134850747D02*
X285661723Y-134603128D01*
X285661723Y-134603128D02*
X285723628Y-134479319D01*
X285723628Y-134479319D02*
X285847438Y-134355509D01*
X285847438Y-134355509D02*
X286033152Y-134293604D01*
X286033152Y-134293604D02*
X286156961Y-134293604D01*
X286156961Y-134293604D02*
X286342676Y-134355509D01*
X286342676Y-134355509D02*
X286404580Y-134417414D01*
D10*
D11*
X285661723Y-185593604D02*
X285661723Y-184293604D01*
X285661723Y-184293604D02*
X285971247Y-184293604D01*
X285971247Y-184293604D02*
X286156961Y-184355509D01*
X286156961Y-184355509D02*
X286280771Y-184479319D01*
X286280771Y-184479319D02*
X286342676Y-184603128D01*
X286342676Y-184603128D02*
X286404580Y-184850747D01*
X286404580Y-184850747D02*
X286404580Y-185036461D01*
X286404580Y-185036461D02*
X286342676Y-185284080D01*
X286342676Y-185284080D02*
X286280771Y-185407890D01*
X286280771Y-185407890D02*
X286156961Y-185531700D01*
X286156961Y-185531700D02*
X285971247Y-185593604D01*
X285971247Y-185593604D02*
X285661723Y-185593604D01*
D10*
D11*
X200458026Y-193793328D02*
X200458026Y-192293328D01*
X200458026Y-192293328D02*
X200815169Y-192293328D01*
X200815169Y-192293328D02*
X201029455Y-192364757D01*
X201029455Y-192364757D02*
X201172312Y-192507614D01*
X201172312Y-192507614D02*
X201243741Y-192650471D01*
X201243741Y-192650471D02*
X201315169Y-192936185D01*
X201315169Y-192936185D02*
X201315169Y-193150471D01*
X201315169Y-193150471D02*
X201243741Y-193436185D01*
X201243741Y-193436185D02*
X201172312Y-193579042D01*
X201172312Y-193579042D02*
X201029455Y-193721900D01*
X201029455Y-193721900D02*
X200815169Y-193793328D01*
X200815169Y-193793328D02*
X200458026Y-193793328D01*
X202600884Y-193793328D02*
X202600884Y-193007614D01*
X202600884Y-193007614D02*
X202529455Y-192864757D01*
X202529455Y-192864757D02*
X202386598Y-192793328D01*
X202386598Y-192793328D02*
X202100884Y-192793328D01*
X202100884Y-192793328D02*
X201958026Y-192864757D01*
X202600884Y-193721900D02*
X202458026Y-193793328D01*
X202458026Y-193793328D02*
X202100884Y-193793328D01*
X202100884Y-193793328D02*
X201958026Y-193721900D01*
X201958026Y-193721900D02*
X201886598Y-193579042D01*
X201886598Y-193579042D02*
X201886598Y-193436185D01*
X201886598Y-193436185D02*
X201958026Y-193293328D01*
X201958026Y-193293328D02*
X202100884Y-193221900D01*
X202100884Y-193221900D02*
X202458026Y-193221900D01*
X202458026Y-193221900D02*
X202600884Y-193150471D01*
X203100884Y-192793328D02*
X203672312Y-192793328D01*
X203315169Y-192293328D02*
X203315169Y-193579042D01*
X203315169Y-193579042D02*
X203386598Y-193721900D01*
X203386598Y-193721900D02*
X203529455Y-193793328D01*
X203529455Y-193793328D02*
X203672312Y-193793328D01*
X204743741Y-193721900D02*
X204600884Y-193793328D01*
X204600884Y-193793328D02*
X204315170Y-193793328D01*
X204315170Y-193793328D02*
X204172312Y-193721900D01*
X204172312Y-193721900D02*
X204100884Y-193579042D01*
X204100884Y-193579042D02*
X204100884Y-193007614D01*
X204100884Y-193007614D02*
X204172312Y-192864757D01*
X204172312Y-192864757D02*
X204315170Y-192793328D01*
X204315170Y-192793328D02*
X204600884Y-192793328D01*
X204600884Y-192793328D02*
X204743741Y-192864757D01*
X204743741Y-192864757D02*
X204815170Y-193007614D01*
X204815170Y-193007614D02*
X204815170Y-193150471D01*
X204815170Y-193150471D02*
X204100884Y-193293328D01*
X205458026Y-193650471D02*
X205529455Y-193721900D01*
X205529455Y-193721900D02*
X205458026Y-193793328D01*
X205458026Y-193793328D02*
X205386598Y-193721900D01*
X205386598Y-193721900D02*
X205458026Y-193650471D01*
X205458026Y-193650471D02*
X205458026Y-193793328D01*
X205458026Y-192864757D02*
X205529455Y-192936185D01*
X205529455Y-192936185D02*
X205458026Y-193007614D01*
X205458026Y-193007614D02*
X205386598Y-192936185D01*
X205386598Y-192936185D02*
X205458026Y-192864757D01*
X205458026Y-192864757D02*
X205458026Y-193007614D01*
D10*
D11*
X177002200Y-194507200D02*
X285002200Y-194507200D01*
D10*
D11*
X178458026Y-196593328D02*
X178458026Y-195093328D01*
X179315169Y-196593328D02*
X178672312Y-195736185D01*
X179315169Y-195093328D02*
X178458026Y-195950471D01*
X179958026Y-196593328D02*
X179958026Y-195593328D01*
X179958026Y-195093328D02*
X179886598Y-195164757D01*
X179886598Y-195164757D02*
X179958026Y-195236185D01*
X179958026Y-195236185D02*
X180029455Y-195164757D01*
X180029455Y-195164757D02*
X179958026Y-195093328D01*
X179958026Y-195093328D02*
X179958026Y-195236185D01*
X181529455Y-196450471D02*
X181458027Y-196521900D01*
X181458027Y-196521900D02*
X181243741Y-196593328D01*
X181243741Y-196593328D02*
X181100884Y-196593328D01*
X181100884Y-196593328D02*
X180886598Y-196521900D01*
X180886598Y-196521900D02*
X180743741Y-196379042D01*
X180743741Y-196379042D02*
X180672312Y-196236185D01*
X180672312Y-196236185D02*
X180600884Y-195950471D01*
X180600884Y-195950471D02*
X180600884Y-195736185D01*
X180600884Y-195736185D02*
X180672312Y-195450471D01*
X180672312Y-195450471D02*
X180743741Y-195307614D01*
X180743741Y-195307614D02*
X180886598Y-195164757D01*
X180886598Y-195164757D02*
X181100884Y-195093328D01*
X181100884Y-195093328D02*
X181243741Y-195093328D01*
X181243741Y-195093328D02*
X181458027Y-195164757D01*
X181458027Y-195164757D02*
X181529455Y-195236185D01*
X182815170Y-196593328D02*
X182815170Y-195807614D01*
X182815170Y-195807614D02*
X182743741Y-195664757D01*
X182743741Y-195664757D02*
X182600884Y-195593328D01*
X182600884Y-195593328D02*
X182315170Y-195593328D01*
X182315170Y-195593328D02*
X182172312Y-195664757D01*
X182815170Y-196521900D02*
X182672312Y-196593328D01*
X182672312Y-196593328D02*
X182315170Y-196593328D01*
X182315170Y-196593328D02*
X182172312Y-196521900D01*
X182172312Y-196521900D02*
X182100884Y-196379042D01*
X182100884Y-196379042D02*
X182100884Y-196236185D01*
X182100884Y-196236185D02*
X182172312Y-196093328D01*
X182172312Y-196093328D02*
X182315170Y-196021900D01*
X182315170Y-196021900D02*
X182672312Y-196021900D01*
X182672312Y-196021900D02*
X182815170Y-195950471D01*
X184172313Y-196593328D02*
X184172313Y-195093328D01*
X184172313Y-196521900D02*
X184029455Y-196593328D01*
X184029455Y-196593328D02*
X183743741Y-196593328D01*
X183743741Y-196593328D02*
X183600884Y-196521900D01*
X183600884Y-196521900D02*
X183529455Y-196450471D01*
X183529455Y-196450471D02*
X183458027Y-196307614D01*
X183458027Y-196307614D02*
X183458027Y-195879042D01*
X183458027Y-195879042D02*
X183529455Y-195736185D01*
X183529455Y-195736185D02*
X183600884Y-195664757D01*
X183600884Y-195664757D02*
X183743741Y-195593328D01*
X183743741Y-195593328D02*
X184029455Y-195593328D01*
X184029455Y-195593328D02*
X184172313Y-195664757D01*
X186029455Y-195807614D02*
X186529455Y-195807614D01*
X186743741Y-196593328D02*
X186029455Y-196593328D01*
X186029455Y-196593328D02*
X186029455Y-195093328D01*
X186029455Y-195093328D02*
X186743741Y-195093328D01*
X187386598Y-196450471D02*
X187458027Y-196521900D01*
X187458027Y-196521900D02*
X187386598Y-196593328D01*
X187386598Y-196593328D02*
X187315170Y-196521900D01*
X187315170Y-196521900D02*
X187386598Y-196450471D01*
X187386598Y-196450471D02*
X187386598Y-196593328D01*
X188100884Y-196593328D02*
X188100884Y-195093328D01*
X188100884Y-195093328D02*
X188458027Y-195093328D01*
X188458027Y-195093328D02*
X188672313Y-195164757D01*
X188672313Y-195164757D02*
X188815170Y-195307614D01*
X188815170Y-195307614D02*
X188886599Y-195450471D01*
X188886599Y-195450471D02*
X188958027Y-195736185D01*
X188958027Y-195736185D02*
X188958027Y-195950471D01*
X188958027Y-195950471D02*
X188886599Y-196236185D01*
X188886599Y-196236185D02*
X188815170Y-196379042D01*
X188815170Y-196379042D02*
X188672313Y-196521900D01*
X188672313Y-196521900D02*
X188458027Y-196593328D01*
X188458027Y-196593328D02*
X188100884Y-196593328D01*
X189600884Y-196450471D02*
X189672313Y-196521900D01*
X189672313Y-196521900D02*
X189600884Y-196593328D01*
X189600884Y-196593328D02*
X189529456Y-196521900D01*
X189529456Y-196521900D02*
X189600884Y-196450471D01*
X189600884Y-196450471D02*
X189600884Y-196593328D01*
X190243742Y-196164757D02*
X190958028Y-196164757D01*
X190100885Y-196593328D02*
X190600885Y-195093328D01*
X190600885Y-195093328D02*
X191100885Y-196593328D01*
X191600884Y-196450471D02*
X191672313Y-196521900D01*
X191672313Y-196521900D02*
X191600884Y-196593328D01*
X191600884Y-196593328D02*
X191529456Y-196521900D01*
X191529456Y-196521900D02*
X191600884Y-196450471D01*
X191600884Y-196450471D02*
X191600884Y-196593328D01*
X193529456Y-196593328D02*
X193815170Y-196593328D01*
X193815170Y-196593328D02*
X193958027Y-196521900D01*
X193958027Y-196521900D02*
X194029456Y-196450471D01*
X194029456Y-196450471D02*
X194172313Y-196236185D01*
X194172313Y-196236185D02*
X194243742Y-195950471D01*
X194243742Y-195950471D02*
X194243742Y-195379042D01*
X194243742Y-195379042D02*
X194172313Y-195236185D01*
X194172313Y-195236185D02*
X194100885Y-195164757D01*
X194100885Y-195164757D02*
X193958027Y-195093328D01*
X193958027Y-195093328D02*
X193672313Y-195093328D01*
X193672313Y-195093328D02*
X193529456Y-195164757D01*
X193529456Y-195164757D02*
X193458027Y-195236185D01*
X193458027Y-195236185D02*
X193386599Y-195379042D01*
X193386599Y-195379042D02*
X193386599Y-195736185D01*
X193386599Y-195736185D02*
X193458027Y-195879042D01*
X193458027Y-195879042D02*
X193529456Y-195950471D01*
X193529456Y-195950471D02*
X193672313Y-196021900D01*
X193672313Y-196021900D02*
X193958027Y-196021900D01*
X193958027Y-196021900D02*
X194100885Y-195950471D01*
X194100885Y-195950471D02*
X194172313Y-195879042D01*
X194172313Y-195879042D02*
X194243742Y-195736185D01*
X194886598Y-196450471D02*
X194958027Y-196521900D01*
X194958027Y-196521900D02*
X194886598Y-196593328D01*
X194886598Y-196593328D02*
X194815170Y-196521900D01*
X194815170Y-196521900D02*
X194886598Y-196450471D01*
X194886598Y-196450471D02*
X194886598Y-196593328D01*
X195886599Y-195093328D02*
X196029456Y-195093328D01*
X196029456Y-195093328D02*
X196172313Y-195164757D01*
X196172313Y-195164757D02*
X196243742Y-195236185D01*
X196243742Y-195236185D02*
X196315170Y-195379042D01*
X196315170Y-195379042D02*
X196386599Y-195664757D01*
X196386599Y-195664757D02*
X196386599Y-196021900D01*
X196386599Y-196021900D02*
X196315170Y-196307614D01*
X196315170Y-196307614D02*
X196243742Y-196450471D01*
X196243742Y-196450471D02*
X196172313Y-196521900D01*
X196172313Y-196521900D02*
X196029456Y-196593328D01*
X196029456Y-196593328D02*
X195886599Y-196593328D01*
X195886599Y-196593328D02*
X195743742Y-196521900D01*
X195743742Y-196521900D02*
X195672313Y-196450471D01*
X195672313Y-196450471D02*
X195600884Y-196307614D01*
X195600884Y-196307614D02*
X195529456Y-196021900D01*
X195529456Y-196021900D02*
X195529456Y-195664757D01*
X195529456Y-195664757D02*
X195600884Y-195379042D01*
X195600884Y-195379042D02*
X195672313Y-195236185D01*
X195672313Y-195236185D02*
X195743742Y-195164757D01*
X195743742Y-195164757D02*
X195886599Y-195093328D01*
X197029455Y-196450471D02*
X197100884Y-196521900D01*
X197100884Y-196521900D02*
X197029455Y-196593328D01*
X197029455Y-196593328D02*
X196958027Y-196521900D01*
X196958027Y-196521900D02*
X197029455Y-196450471D01*
X197029455Y-196450471D02*
X197029455Y-196593328D01*
X197672313Y-195236185D02*
X197743741Y-195164757D01*
X197743741Y-195164757D02*
X197886599Y-195093328D01*
X197886599Y-195093328D02*
X198243741Y-195093328D01*
X198243741Y-195093328D02*
X198386599Y-195164757D01*
X198386599Y-195164757D02*
X198458027Y-195236185D01*
X198458027Y-195236185D02*
X198529456Y-195379042D01*
X198529456Y-195379042D02*
X198529456Y-195521900D01*
X198529456Y-195521900D02*
X198458027Y-195736185D01*
X198458027Y-195736185D02*
X197600884Y-196593328D01*
X197600884Y-196593328D02*
X198529456Y-196593328D01*
D10*
D11*
X177002200Y-191507200D02*
X285002200Y-191507200D01*
D10*
D12*
X264413853Y-193785528D02*
X263913853Y-193071242D01*
X263556710Y-193785528D02*
X263556710Y-192285528D01*
X263556710Y-192285528D02*
X264128139Y-192285528D01*
X264128139Y-192285528D02*
X264270996Y-192356957D01*
X264270996Y-192356957D02*
X264342425Y-192428385D01*
X264342425Y-192428385D02*
X264413853Y-192571242D01*
X264413853Y-192571242D02*
X264413853Y-192785528D01*
X264413853Y-192785528D02*
X264342425Y-192928385D01*
X264342425Y-192928385D02*
X264270996Y-192999814D01*
X264270996Y-192999814D02*
X264128139Y-193071242D01*
X264128139Y-193071242D02*
X263556710Y-193071242D01*
X265628139Y-193714100D02*
X265485282Y-193785528D01*
X265485282Y-193785528D02*
X265199568Y-193785528D01*
X265199568Y-193785528D02*
X265056710Y-193714100D01*
X265056710Y-193714100D02*
X264985282Y-193571242D01*
X264985282Y-193571242D02*
X264985282Y-192999814D01*
X264985282Y-192999814D02*
X265056710Y-192856957D01*
X265056710Y-192856957D02*
X265199568Y-192785528D01*
X265199568Y-192785528D02*
X265485282Y-192785528D01*
X265485282Y-192785528D02*
X265628139Y-192856957D01*
X265628139Y-192856957D02*
X265699568Y-192999814D01*
X265699568Y-192999814D02*
X265699568Y-193142671D01*
X265699568Y-193142671D02*
X264985282Y-193285528D01*
X266199567Y-192785528D02*
X266556710Y-193785528D01*
X266556710Y-193785528D02*
X266913853Y-192785528D01*
X267485281Y-193642671D02*
X267556710Y-193714100D01*
X267556710Y-193714100D02*
X267485281Y-193785528D01*
X267485281Y-193785528D02*
X267413853Y-193714100D01*
X267413853Y-193714100D02*
X267485281Y-193642671D01*
X267485281Y-193642671D02*
X267485281Y-193785528D01*
X267485281Y-192856957D02*
X267556710Y-192928385D01*
X267556710Y-192928385D02*
X267485281Y-192999814D01*
X267485281Y-192999814D02*
X267413853Y-192928385D01*
X267413853Y-192928385D02*
X267485281Y-192856957D01*
X267485281Y-192856957D02*
X267485281Y-192999814D01*
D10*
D11*
X178386598Y-193721900D02*
X178600884Y-193793328D01*
X178600884Y-193793328D02*
X178958026Y-193793328D01*
X178958026Y-193793328D02*
X179100884Y-193721900D01*
X179100884Y-193721900D02*
X179172312Y-193650471D01*
X179172312Y-193650471D02*
X179243741Y-193507614D01*
X179243741Y-193507614D02*
X179243741Y-193364757D01*
X179243741Y-193364757D02*
X179172312Y-193221900D01*
X179172312Y-193221900D02*
X179100884Y-193150471D01*
X179100884Y-193150471D02*
X178958026Y-193079042D01*
X178958026Y-193079042D02*
X178672312Y-193007614D01*
X178672312Y-193007614D02*
X178529455Y-192936185D01*
X178529455Y-192936185D02*
X178458026Y-192864757D01*
X178458026Y-192864757D02*
X178386598Y-192721900D01*
X178386598Y-192721900D02*
X178386598Y-192579042D01*
X178386598Y-192579042D02*
X178458026Y-192436185D01*
X178458026Y-192436185D02*
X178529455Y-192364757D01*
X178529455Y-192364757D02*
X178672312Y-192293328D01*
X178672312Y-192293328D02*
X179029455Y-192293328D01*
X179029455Y-192293328D02*
X179243741Y-192364757D01*
X179886597Y-193793328D02*
X179886597Y-192793328D01*
X179886597Y-192293328D02*
X179815169Y-192364757D01*
X179815169Y-192364757D02*
X179886597Y-192436185D01*
X179886597Y-192436185D02*
X179958026Y-192364757D01*
X179958026Y-192364757D02*
X179886597Y-192293328D01*
X179886597Y-192293328D02*
X179886597Y-192436185D01*
X180458026Y-192793328D02*
X181243741Y-192793328D01*
X181243741Y-192793328D02*
X180458026Y-193793328D01*
X180458026Y-193793328D02*
X181243741Y-193793328D01*
X182386598Y-193721900D02*
X182243741Y-193793328D01*
X182243741Y-193793328D02*
X181958027Y-193793328D01*
X181958027Y-193793328D02*
X181815169Y-193721900D01*
X181815169Y-193721900D02*
X181743741Y-193579042D01*
X181743741Y-193579042D02*
X181743741Y-193007614D01*
X181743741Y-193007614D02*
X181815169Y-192864757D01*
X181815169Y-192864757D02*
X181958027Y-192793328D01*
X181958027Y-192793328D02*
X182243741Y-192793328D01*
X182243741Y-192793328D02*
X182386598Y-192864757D01*
X182386598Y-192864757D02*
X182458027Y-193007614D01*
X182458027Y-193007614D02*
X182458027Y-193150471D01*
X182458027Y-193150471D02*
X181743741Y-193293328D01*
X183100883Y-193650471D02*
X183172312Y-193721900D01*
X183172312Y-193721900D02*
X183100883Y-193793328D01*
X183100883Y-193793328D02*
X183029455Y-193721900D01*
X183029455Y-193721900D02*
X183100883Y-193650471D01*
X183100883Y-193650471D02*
X183100883Y-193793328D01*
X183100883Y-192864757D02*
X183172312Y-192936185D01*
X183172312Y-192936185D02*
X183100883Y-193007614D01*
X183100883Y-193007614D02*
X183029455Y-192936185D01*
X183029455Y-192936185D02*
X183100883Y-192864757D01*
X183100883Y-192864757D02*
X183100883Y-193007614D01*
X184886598Y-193364757D02*
X185600884Y-193364757D01*
X184743741Y-193793328D02*
X185243741Y-192293328D01*
X185243741Y-192293328D02*
X185743741Y-193793328D01*
X186886598Y-192793328D02*
X186886598Y-193793328D01*
X186529455Y-192221900D02*
X186172312Y-193293328D01*
X186172312Y-193293328D02*
X187100883Y-193293328D01*
D10*
D11*
X263458026Y-196593328D02*
X263458026Y-195093328D01*
X264815170Y-196593328D02*
X264815170Y-195093328D01*
X264815170Y-196521900D02*
X264672312Y-196593328D01*
X264672312Y-196593328D02*
X264386598Y-196593328D01*
X264386598Y-196593328D02*
X264243741Y-196521900D01*
X264243741Y-196521900D02*
X264172312Y-196450471D01*
X264172312Y-196450471D02*
X264100884Y-196307614D01*
X264100884Y-196307614D02*
X264100884Y-195879042D01*
X264100884Y-195879042D02*
X264172312Y-195736185D01*
X264172312Y-195736185D02*
X264243741Y-195664757D01*
X264243741Y-195664757D02*
X264386598Y-195593328D01*
X264386598Y-195593328D02*
X264672312Y-195593328D01*
X264672312Y-195593328D02*
X264815170Y-195664757D01*
X265529455Y-196450471D02*
X265600884Y-196521900D01*
X265600884Y-196521900D02*
X265529455Y-196593328D01*
X265529455Y-196593328D02*
X265458027Y-196521900D01*
X265458027Y-196521900D02*
X265529455Y-196450471D01*
X265529455Y-196450471D02*
X265529455Y-196593328D01*
X265529455Y-195664757D02*
X265600884Y-195736185D01*
X265600884Y-195736185D02*
X265529455Y-195807614D01*
X265529455Y-195807614D02*
X265458027Y-195736185D01*
X265458027Y-195736185D02*
X265529455Y-195664757D01*
X265529455Y-195664757D02*
X265529455Y-195807614D01*
X268029456Y-195593328D02*
X268029456Y-196593328D01*
X267672313Y-195021900D02*
X267315170Y-196093328D01*
X267315170Y-196093328D02*
X268243741Y-196093328D01*
X269886598Y-195021900D02*
X268600884Y-196950471D01*
X270600884Y-195736185D02*
X270458027Y-195664757D01*
X270458027Y-195664757D02*
X270386598Y-195593328D01*
X270386598Y-195593328D02*
X270315170Y-195450471D01*
X270315170Y-195450471D02*
X270315170Y-195379042D01*
X270315170Y-195379042D02*
X270386598Y-195236185D01*
X270386598Y-195236185D02*
X270458027Y-195164757D01*
X270458027Y-195164757D02*
X270600884Y-195093328D01*
X270600884Y-195093328D02*
X270886598Y-195093328D01*
X270886598Y-195093328D02*
X271029456Y-195164757D01*
X271029456Y-195164757D02*
X271100884Y-195236185D01*
X271100884Y-195236185D02*
X271172313Y-195379042D01*
X271172313Y-195379042D02*
X271172313Y-195450471D01*
X271172313Y-195450471D02*
X271100884Y-195593328D01*
X271100884Y-195593328D02*
X271029456Y-195664757D01*
X271029456Y-195664757D02*
X270886598Y-195736185D01*
X270886598Y-195736185D02*
X270600884Y-195736185D01*
X270600884Y-195736185D02*
X270458027Y-195807614D01*
X270458027Y-195807614D02*
X270386598Y-195879042D01*
X270386598Y-195879042D02*
X270315170Y-196021900D01*
X270315170Y-196021900D02*
X270315170Y-196307614D01*
X270315170Y-196307614D02*
X270386598Y-196450471D01*
X270386598Y-196450471D02*
X270458027Y-196521900D01*
X270458027Y-196521900D02*
X270600884Y-196593328D01*
X270600884Y-196593328D02*
X270886598Y-196593328D01*
X270886598Y-196593328D02*
X271029456Y-196521900D01*
X271029456Y-196521900D02*
X271100884Y-196450471D01*
X271100884Y-196450471D02*
X271172313Y-196307614D01*
X271172313Y-196307614D02*
X271172313Y-196021900D01*
X271172313Y-196021900D02*
X271100884Y-195879042D01*
X271100884Y-195879042D02*
X271029456Y-195807614D01*
X271029456Y-195807614D02*
X270886598Y-195736185D01*
D10*
D11*
X177002200Y-187507200D02*
X285002200Y-187507200D01*
D10*
D13*
X178693928Y-188211638D02*
X179836785Y-188211638D01*
X179015357Y-190211638D02*
X179265357Y-188211638D01*
X180253452Y-190211638D02*
X180420119Y-188878304D01*
X180503452Y-188211638D02*
X180396309Y-188306876D01*
X180396309Y-188306876D02*
X180479643Y-188402114D01*
X180479643Y-188402114D02*
X180586786Y-188306876D01*
X180586786Y-188306876D02*
X180503452Y-188211638D01*
X180503452Y-188211638D02*
X180479643Y-188402114D01*
X181086786Y-188878304D02*
X181848690Y-188878304D01*
X181455833Y-188211638D02*
X181241548Y-189925923D01*
X181241548Y-189925923D02*
X181312976Y-190116400D01*
X181312976Y-190116400D02*
X181491548Y-190211638D01*
X181491548Y-190211638D02*
X181682024Y-190211638D01*
X182634405Y-190211638D02*
X182455833Y-190116400D01*
X182455833Y-190116400D02*
X182384405Y-189925923D01*
X182384405Y-189925923D02*
X182598690Y-188211638D01*
X184170119Y-190116400D02*
X183967738Y-190211638D01*
X183967738Y-190211638D02*
X183586785Y-190211638D01*
X183586785Y-190211638D02*
X183408214Y-190116400D01*
X183408214Y-190116400D02*
X183336785Y-189925923D01*
X183336785Y-189925923D02*
X183432024Y-189164019D01*
X183432024Y-189164019D02*
X183551071Y-188973542D01*
X183551071Y-188973542D02*
X183753452Y-188878304D01*
X183753452Y-188878304D02*
X184134404Y-188878304D01*
X184134404Y-188878304D02*
X184312976Y-188973542D01*
X184312976Y-188973542D02*
X184384404Y-189164019D01*
X184384404Y-189164019D02*
X184360595Y-189354495D01*
X184360595Y-189354495D02*
X183384404Y-189544971D01*
X185134405Y-190021161D02*
X185217738Y-190116400D01*
X185217738Y-190116400D02*
X185110595Y-190211638D01*
X185110595Y-190211638D02*
X185027262Y-190116400D01*
X185027262Y-190116400D02*
X185134405Y-190021161D01*
X185134405Y-190021161D02*
X185110595Y-190211638D01*
X185265357Y-188973542D02*
X185348690Y-189068780D01*
X185348690Y-189068780D02*
X185241548Y-189164019D01*
X185241548Y-189164019D02*
X185158214Y-189068780D01*
X185158214Y-189068780D02*
X185265357Y-188973542D01*
X185265357Y-188973542D02*
X185241548Y-189164019D01*
D10*
D11*
X178958026Y-185607614D02*
X178458026Y-185607614D01*
X178458026Y-186393328D02*
X178458026Y-184893328D01*
X178458026Y-184893328D02*
X179172312Y-184893328D01*
X179743740Y-186393328D02*
X179743740Y-185393328D01*
X179743740Y-184893328D02*
X179672312Y-184964757D01*
X179672312Y-184964757D02*
X179743740Y-185036185D01*
X179743740Y-185036185D02*
X179815169Y-184964757D01*
X179815169Y-184964757D02*
X179743740Y-184893328D01*
X179743740Y-184893328D02*
X179743740Y-185036185D01*
X180672312Y-186393328D02*
X180529455Y-186321900D01*
X180529455Y-186321900D02*
X180458026Y-186179042D01*
X180458026Y-186179042D02*
X180458026Y-184893328D01*
X181815169Y-186321900D02*
X181672312Y-186393328D01*
X181672312Y-186393328D02*
X181386598Y-186393328D01*
X181386598Y-186393328D02*
X181243740Y-186321900D01*
X181243740Y-186321900D02*
X181172312Y-186179042D01*
X181172312Y-186179042D02*
X181172312Y-185607614D01*
X181172312Y-185607614D02*
X181243740Y-185464757D01*
X181243740Y-185464757D02*
X181386598Y-185393328D01*
X181386598Y-185393328D02*
X181672312Y-185393328D01*
X181672312Y-185393328D02*
X181815169Y-185464757D01*
X181815169Y-185464757D02*
X181886598Y-185607614D01*
X181886598Y-185607614D02*
X181886598Y-185750471D01*
X181886598Y-185750471D02*
X181172312Y-185893328D01*
X182529454Y-186250471D02*
X182600883Y-186321900D01*
X182600883Y-186321900D02*
X182529454Y-186393328D01*
X182529454Y-186393328D02*
X182458026Y-186321900D01*
X182458026Y-186321900D02*
X182529454Y-186250471D01*
X182529454Y-186250471D02*
X182529454Y-186393328D01*
X182529454Y-185464757D02*
X182600883Y-185536185D01*
X182600883Y-185536185D02*
X182529454Y-185607614D01*
X182529454Y-185607614D02*
X182458026Y-185536185D01*
X182458026Y-185536185D02*
X182529454Y-185464757D01*
X182529454Y-185464757D02*
X182529454Y-185607614D01*
X184386597Y-186393328D02*
X184386597Y-184893328D01*
X184386597Y-185464757D02*
X184529455Y-185393328D01*
X184529455Y-185393328D02*
X184815169Y-185393328D01*
X184815169Y-185393328D02*
X184958026Y-185464757D01*
X184958026Y-185464757D02*
X185029455Y-185536185D01*
X185029455Y-185536185D02*
X185100883Y-185679042D01*
X185100883Y-185679042D02*
X185100883Y-186107614D01*
X185100883Y-186107614D02*
X185029455Y-186250471D01*
X185029455Y-186250471D02*
X184958026Y-186321900D01*
X184958026Y-186321900D02*
X184815169Y-186393328D01*
X184815169Y-186393328D02*
X184529455Y-186393328D01*
X184529455Y-186393328D02*
X184386597Y-186321900D01*
X185958026Y-186393328D02*
X185815169Y-186321900D01*
X185815169Y-186321900D02*
X185743740Y-186250471D01*
X185743740Y-186250471D02*
X185672312Y-186107614D01*
X185672312Y-186107614D02*
X185672312Y-185679042D01*
X185672312Y-185679042D02*
X185743740Y-185536185D01*
X185743740Y-185536185D02*
X185815169Y-185464757D01*
X185815169Y-185464757D02*
X185958026Y-185393328D01*
X185958026Y-185393328D02*
X186172312Y-185393328D01*
X186172312Y-185393328D02*
X186315169Y-185464757D01*
X186315169Y-185464757D02*
X186386598Y-185536185D01*
X186386598Y-185536185D02*
X186458026Y-185679042D01*
X186458026Y-185679042D02*
X186458026Y-186107614D01*
X186458026Y-186107614D02*
X186386598Y-186250471D01*
X186386598Y-186250471D02*
X186315169Y-186321900D01*
X186315169Y-186321900D02*
X186172312Y-186393328D01*
X186172312Y-186393328D02*
X185958026Y-186393328D01*
X187100883Y-185393328D02*
X187100883Y-186393328D01*
X187100883Y-185536185D02*
X187172312Y-185464757D01*
X187172312Y-185464757D02*
X187315169Y-185393328D01*
X187315169Y-185393328D02*
X187529455Y-185393328D01*
X187529455Y-185393328D02*
X187672312Y-185464757D01*
X187672312Y-185464757D02*
X187743741Y-185607614D01*
X187743741Y-185607614D02*
X187743741Y-186393328D01*
X189100884Y-185393328D02*
X189100884Y-186607614D01*
X189100884Y-186607614D02*
X189029455Y-186750471D01*
X189029455Y-186750471D02*
X188958026Y-186821900D01*
X188958026Y-186821900D02*
X188815169Y-186893328D01*
X188815169Y-186893328D02*
X188600884Y-186893328D01*
X188600884Y-186893328D02*
X188458026Y-186821900D01*
X189100884Y-186321900D02*
X188958026Y-186393328D01*
X188958026Y-186393328D02*
X188672312Y-186393328D01*
X188672312Y-186393328D02*
X188529455Y-186321900D01*
X188529455Y-186321900D02*
X188458026Y-186250471D01*
X188458026Y-186250471D02*
X188386598Y-186107614D01*
X188386598Y-186107614D02*
X188386598Y-185679042D01*
X188386598Y-185679042D02*
X188458026Y-185536185D01*
X188458026Y-185536185D02*
X188529455Y-185464757D01*
X188529455Y-185464757D02*
X188672312Y-185393328D01*
X188672312Y-185393328D02*
X188958026Y-185393328D01*
X188958026Y-185393328D02*
X189100884Y-185464757D01*
X190458027Y-186393328D02*
X190458027Y-185607614D01*
X190458027Y-185607614D02*
X190386598Y-185464757D01*
X190386598Y-185464757D02*
X190243741Y-185393328D01*
X190243741Y-185393328D02*
X189958027Y-185393328D01*
X189958027Y-185393328D02*
X189815169Y-185464757D01*
X190458027Y-186321900D02*
X190315169Y-186393328D01*
X190315169Y-186393328D02*
X189958027Y-186393328D01*
X189958027Y-186393328D02*
X189815169Y-186321900D01*
X189815169Y-186321900D02*
X189743741Y-186179042D01*
X189743741Y-186179042D02*
X189743741Y-186036185D01*
X189743741Y-186036185D02*
X189815169Y-185893328D01*
X189815169Y-185893328D02*
X189958027Y-185821900D01*
X189958027Y-185821900D02*
X190315169Y-185821900D01*
X190315169Y-185821900D02*
X190458027Y-185750471D01*
X191029455Y-185393328D02*
X191815170Y-185393328D01*
X191815170Y-185393328D02*
X191029455Y-186393328D01*
X191029455Y-186393328D02*
X191815170Y-186393328D01*
X192600884Y-186393328D02*
X192458027Y-186321900D01*
X192458027Y-186321900D02*
X192386598Y-186250471D01*
X192386598Y-186250471D02*
X192315170Y-186107614D01*
X192315170Y-186107614D02*
X192315170Y-185679042D01*
X192315170Y-185679042D02*
X192386598Y-185536185D01*
X192386598Y-185536185D02*
X192458027Y-185464757D01*
X192458027Y-185464757D02*
X192600884Y-185393328D01*
X192600884Y-185393328D02*
X192815170Y-185393328D01*
X192815170Y-185393328D02*
X192958027Y-185464757D01*
X192958027Y-185464757D02*
X193029456Y-185536185D01*
X193029456Y-185536185D02*
X193100884Y-185679042D01*
X193100884Y-185679042D02*
X193100884Y-186107614D01*
X193100884Y-186107614D02*
X193029456Y-186250471D01*
X193029456Y-186250471D02*
X192958027Y-186321900D01*
X192958027Y-186321900D02*
X192815170Y-186393328D01*
X192815170Y-186393328D02*
X192600884Y-186393328D01*
X193386599Y-186536185D02*
X194529456Y-186536185D01*
X194886598Y-185393328D02*
X194886598Y-186893328D01*
X194886598Y-185464757D02*
X195029456Y-185393328D01*
X195029456Y-185393328D02*
X195315170Y-185393328D01*
X195315170Y-185393328D02*
X195458027Y-185464757D01*
X195458027Y-185464757D02*
X195529456Y-185536185D01*
X195529456Y-185536185D02*
X195600884Y-185679042D01*
X195600884Y-185679042D02*
X195600884Y-186107614D01*
X195600884Y-186107614D02*
X195529456Y-186250471D01*
X195529456Y-186250471D02*
X195458027Y-186321900D01*
X195458027Y-186321900D02*
X195315170Y-186393328D01*
X195315170Y-186393328D02*
X195029456Y-186393328D01*
X195029456Y-186393328D02*
X194886598Y-186321900D01*
X196243741Y-186393328D02*
X196243741Y-185393328D01*
X196243741Y-185679042D02*
X196315170Y-185536185D01*
X196315170Y-185536185D02*
X196386599Y-185464757D01*
X196386599Y-185464757D02*
X196529456Y-185393328D01*
X196529456Y-185393328D02*
X196672313Y-185393328D01*
X197386598Y-186393328D02*
X197243741Y-186321900D01*
X197243741Y-186321900D02*
X197172312Y-186250471D01*
X197172312Y-186250471D02*
X197100884Y-186107614D01*
X197100884Y-186107614D02*
X197100884Y-185679042D01*
X197100884Y-185679042D02*
X197172312Y-185536185D01*
X197172312Y-185536185D02*
X197243741Y-185464757D01*
X197243741Y-185464757D02*
X197386598Y-185393328D01*
X197386598Y-185393328D02*
X197600884Y-185393328D01*
X197600884Y-185393328D02*
X197743741Y-185464757D01*
X197743741Y-185464757D02*
X197815170Y-185536185D01*
X197815170Y-185536185D02*
X197886598Y-185679042D01*
X197886598Y-185679042D02*
X197886598Y-186107614D01*
X197886598Y-186107614D02*
X197815170Y-186250471D01*
X197815170Y-186250471D02*
X197743741Y-186321900D01*
X197743741Y-186321900D02*
X197600884Y-186393328D01*
X197600884Y-186393328D02*
X197386598Y-186393328D01*
X198386598Y-185393328D02*
X198743741Y-186393328D01*
X199100884Y-185393328D02*
X198743741Y-186393328D01*
X198743741Y-186393328D02*
X198600884Y-186750471D01*
X198600884Y-186750471D02*
X198529455Y-186821900D01*
X198529455Y-186821900D02*
X198386598Y-186893328D01*
X200243741Y-186321900D02*
X200100884Y-186393328D01*
X200100884Y-186393328D02*
X199815170Y-186393328D01*
X199815170Y-186393328D02*
X199672312Y-186321900D01*
X199672312Y-186321900D02*
X199600884Y-186179042D01*
X199600884Y-186179042D02*
X199600884Y-185607614D01*
X199600884Y-185607614D02*
X199672312Y-185464757D01*
X199672312Y-185464757D02*
X199815170Y-185393328D01*
X199815170Y-185393328D02*
X200100884Y-185393328D01*
X200100884Y-185393328D02*
X200243741Y-185464757D01*
X200243741Y-185464757D02*
X200315170Y-185607614D01*
X200315170Y-185607614D02*
X200315170Y-185750471D01*
X200315170Y-185750471D02*
X199600884Y-185893328D01*
X201600884Y-186321900D02*
X201458026Y-186393328D01*
X201458026Y-186393328D02*
X201172312Y-186393328D01*
X201172312Y-186393328D02*
X201029455Y-186321900D01*
X201029455Y-186321900D02*
X200958026Y-186250471D01*
X200958026Y-186250471D02*
X200886598Y-186107614D01*
X200886598Y-186107614D02*
X200886598Y-185679042D01*
X200886598Y-185679042D02*
X200958026Y-185536185D01*
X200958026Y-185536185D02*
X201029455Y-185464757D01*
X201029455Y-185464757D02*
X201172312Y-185393328D01*
X201172312Y-185393328D02*
X201458026Y-185393328D01*
X201458026Y-185393328D02*
X201600884Y-185464757D01*
X202029455Y-185393328D02*
X202600883Y-185393328D01*
X202243740Y-184893328D02*
X202243740Y-186179042D01*
X202243740Y-186179042D02*
X202315169Y-186321900D01*
X202315169Y-186321900D02*
X202458026Y-186393328D01*
X202458026Y-186393328D02*
X202600883Y-186393328D01*
X203315169Y-186393328D02*
X203172312Y-186321900D01*
X203172312Y-186321900D02*
X203100883Y-186250471D01*
X203100883Y-186250471D02*
X203029455Y-186107614D01*
X203029455Y-186107614D02*
X203029455Y-185679042D01*
X203029455Y-185679042D02*
X203100883Y-185536185D01*
X203100883Y-185536185D02*
X203172312Y-185464757D01*
X203172312Y-185464757D02*
X203315169Y-185393328D01*
X203315169Y-185393328D02*
X203529455Y-185393328D01*
X203529455Y-185393328D02*
X203672312Y-185464757D01*
X203672312Y-185464757D02*
X203743741Y-185536185D01*
X203743741Y-185536185D02*
X203815169Y-185679042D01*
X203815169Y-185679042D02*
X203815169Y-186107614D01*
X203815169Y-186107614D02*
X203743741Y-186250471D01*
X203743741Y-186250471D02*
X203672312Y-186321900D01*
X203672312Y-186321900D02*
X203529455Y-186393328D01*
X203529455Y-186393328D02*
X203315169Y-186393328D01*
X205029455Y-186321900D02*
X204886598Y-186393328D01*
X204886598Y-186393328D02*
X204600884Y-186393328D01*
X204600884Y-186393328D02*
X204458026Y-186321900D01*
X204458026Y-186321900D02*
X204386598Y-186179042D01*
X204386598Y-186179042D02*
X204386598Y-185607614D01*
X204386598Y-185607614D02*
X204458026Y-185464757D01*
X204458026Y-185464757D02*
X204600884Y-185393328D01*
X204600884Y-185393328D02*
X204886598Y-185393328D01*
X204886598Y-185393328D02*
X205029455Y-185464757D01*
X205029455Y-185464757D02*
X205100884Y-185607614D01*
X205100884Y-185607614D02*
X205100884Y-185750471D01*
X205100884Y-185750471D02*
X204386598Y-185893328D01*
X205600883Y-186393328D02*
X206386598Y-185393328D01*
X205600883Y-185393328D02*
X206386598Y-186393328D01*
X207600884Y-186393328D02*
X207600884Y-185607614D01*
X207600884Y-185607614D02*
X207529455Y-185464757D01*
X207529455Y-185464757D02*
X207386598Y-185393328D01*
X207386598Y-185393328D02*
X207100884Y-185393328D01*
X207100884Y-185393328D02*
X206958026Y-185464757D01*
X207600884Y-186321900D02*
X207458026Y-186393328D01*
X207458026Y-186393328D02*
X207100884Y-186393328D01*
X207100884Y-186393328D02*
X206958026Y-186321900D01*
X206958026Y-186321900D02*
X206886598Y-186179042D01*
X206886598Y-186179042D02*
X206886598Y-186036185D01*
X206886598Y-186036185D02*
X206958026Y-185893328D01*
X206958026Y-185893328D02*
X207100884Y-185821900D01*
X207100884Y-185821900D02*
X207458026Y-185821900D01*
X207458026Y-185821900D02*
X207600884Y-185750471D01*
X208315169Y-186393328D02*
X208315169Y-185393328D01*
X208315169Y-185536185D02*
X208386598Y-185464757D01*
X208386598Y-185464757D02*
X208529455Y-185393328D01*
X208529455Y-185393328D02*
X208743741Y-185393328D01*
X208743741Y-185393328D02*
X208886598Y-185464757D01*
X208886598Y-185464757D02*
X208958027Y-185607614D01*
X208958027Y-185607614D02*
X208958027Y-186393328D01*
X208958027Y-185607614D02*
X209029455Y-185464757D01*
X209029455Y-185464757D02*
X209172312Y-185393328D01*
X209172312Y-185393328D02*
X209386598Y-185393328D01*
X209386598Y-185393328D02*
X209529455Y-185464757D01*
X209529455Y-185464757D02*
X209600884Y-185607614D01*
X209600884Y-185607614D02*
X209600884Y-186393328D01*
X210886598Y-186321900D02*
X210743741Y-186393328D01*
X210743741Y-186393328D02*
X210458027Y-186393328D01*
X210458027Y-186393328D02*
X210315169Y-186321900D01*
X210315169Y-186321900D02*
X210243741Y-186179042D01*
X210243741Y-186179042D02*
X210243741Y-185607614D01*
X210243741Y-185607614D02*
X210315169Y-185464757D01*
X210315169Y-185464757D02*
X210458027Y-185393328D01*
X210458027Y-185393328D02*
X210743741Y-185393328D01*
X210743741Y-185393328D02*
X210886598Y-185464757D01*
X210886598Y-185464757D02*
X210958027Y-185607614D01*
X210958027Y-185607614D02*
X210958027Y-185750471D01*
X210958027Y-185750471D02*
X210243741Y-185893328D01*
X211600883Y-185393328D02*
X211600883Y-186393328D01*
X211600883Y-185536185D02*
X211672312Y-185464757D01*
X211672312Y-185464757D02*
X211815169Y-185393328D01*
X211815169Y-185393328D02*
X212029455Y-185393328D01*
X212029455Y-185393328D02*
X212172312Y-185464757D01*
X212172312Y-185464757D02*
X212243741Y-185607614D01*
X212243741Y-185607614D02*
X212243741Y-186393328D01*
X212958026Y-186250471D02*
X213029455Y-186321900D01*
X213029455Y-186321900D02*
X212958026Y-186393328D01*
X212958026Y-186393328D02*
X212886598Y-186321900D01*
X212886598Y-186321900D02*
X212958026Y-186250471D01*
X212958026Y-186250471D02*
X212958026Y-186393328D01*
X213672312Y-186393328D02*
X213672312Y-184893328D01*
X213815170Y-185821900D02*
X214243741Y-186393328D01*
X214243741Y-185393328D02*
X213672312Y-185964757D01*
X214886598Y-186393328D02*
X214886598Y-185393328D01*
X214886598Y-184893328D02*
X214815170Y-184964757D01*
X214815170Y-184964757D02*
X214886598Y-185036185D01*
X214886598Y-185036185D02*
X214958027Y-184964757D01*
X214958027Y-184964757D02*
X214886598Y-184893328D01*
X214886598Y-184893328D02*
X214886598Y-185036185D01*
X216243742Y-186321900D02*
X216100884Y-186393328D01*
X216100884Y-186393328D02*
X215815170Y-186393328D01*
X215815170Y-186393328D02*
X215672313Y-186321900D01*
X215672313Y-186321900D02*
X215600884Y-186250471D01*
X215600884Y-186250471D02*
X215529456Y-186107614D01*
X215529456Y-186107614D02*
X215529456Y-185679042D01*
X215529456Y-185679042D02*
X215600884Y-185536185D01*
X215600884Y-185536185D02*
X215672313Y-185464757D01*
X215672313Y-185464757D02*
X215815170Y-185393328D01*
X215815170Y-185393328D02*
X216100884Y-185393328D01*
X216100884Y-185393328D02*
X216243742Y-185464757D01*
X217529456Y-186393328D02*
X217529456Y-185607614D01*
X217529456Y-185607614D02*
X217458027Y-185464757D01*
X217458027Y-185464757D02*
X217315170Y-185393328D01*
X217315170Y-185393328D02*
X217029456Y-185393328D01*
X217029456Y-185393328D02*
X216886598Y-185464757D01*
X217529456Y-186321900D02*
X217386598Y-186393328D01*
X217386598Y-186393328D02*
X217029456Y-186393328D01*
X217029456Y-186393328D02*
X216886598Y-186321900D01*
X216886598Y-186321900D02*
X216815170Y-186179042D01*
X216815170Y-186179042D02*
X216815170Y-186036185D01*
X216815170Y-186036185D02*
X216886598Y-185893328D01*
X216886598Y-185893328D02*
X217029456Y-185821900D01*
X217029456Y-185821900D02*
X217386598Y-185821900D01*
X217386598Y-185821900D02*
X217529456Y-185750471D01*
X218886599Y-186393328D02*
X218886599Y-184893328D01*
X218886599Y-186321900D02*
X218743741Y-186393328D01*
X218743741Y-186393328D02*
X218458027Y-186393328D01*
X218458027Y-186393328D02*
X218315170Y-186321900D01*
X218315170Y-186321900D02*
X218243741Y-186250471D01*
X218243741Y-186250471D02*
X218172313Y-186107614D01*
X218172313Y-186107614D02*
X218172313Y-185679042D01*
X218172313Y-185679042D02*
X218243741Y-185536185D01*
X218243741Y-185536185D02*
X218315170Y-185464757D01*
X218315170Y-185464757D02*
X218458027Y-185393328D01*
X218458027Y-185393328D02*
X218743741Y-185393328D01*
X218743741Y-185393328D02*
X218886599Y-185464757D01*
X219243742Y-186536185D02*
X220386599Y-186536185D01*
X220743741Y-185393328D02*
X220743741Y-186893328D01*
X220743741Y-185464757D02*
X220886599Y-185393328D01*
X220886599Y-185393328D02*
X221172313Y-185393328D01*
X221172313Y-185393328D02*
X221315170Y-185464757D01*
X221315170Y-185464757D02*
X221386599Y-185536185D01*
X221386599Y-185536185D02*
X221458027Y-185679042D01*
X221458027Y-185679042D02*
X221458027Y-186107614D01*
X221458027Y-186107614D02*
X221386599Y-186250471D01*
X221386599Y-186250471D02*
X221315170Y-186321900D01*
X221315170Y-186321900D02*
X221172313Y-186393328D01*
X221172313Y-186393328D02*
X220886599Y-186393328D01*
X220886599Y-186393328D02*
X220743741Y-186321900D01*
X222743742Y-186321900D02*
X222600884Y-186393328D01*
X222600884Y-186393328D02*
X222315170Y-186393328D01*
X222315170Y-186393328D02*
X222172313Y-186321900D01*
X222172313Y-186321900D02*
X222100884Y-186250471D01*
X222100884Y-186250471D02*
X222029456Y-186107614D01*
X222029456Y-186107614D02*
X222029456Y-185679042D01*
X222029456Y-185679042D02*
X222100884Y-185536185D01*
X222100884Y-185536185D02*
X222172313Y-185464757D01*
X222172313Y-185464757D02*
X222315170Y-185393328D01*
X222315170Y-185393328D02*
X222600884Y-185393328D01*
X222600884Y-185393328D02*
X222743742Y-185464757D01*
X223386598Y-186393328D02*
X223386598Y-184893328D01*
X223386598Y-185464757D02*
X223529456Y-185393328D01*
X223529456Y-185393328D02*
X223815170Y-185393328D01*
X223815170Y-185393328D02*
X223958027Y-185464757D01*
X223958027Y-185464757D02*
X224029456Y-185536185D01*
X224029456Y-185536185D02*
X224100884Y-185679042D01*
X224100884Y-185679042D02*
X224100884Y-186107614D01*
X224100884Y-186107614D02*
X224029456Y-186250471D01*
X224029456Y-186250471D02*
X223958027Y-186321900D01*
X223958027Y-186321900D02*
X223815170Y-186393328D01*
X223815170Y-186393328D02*
X223529456Y-186393328D01*
X223529456Y-186393328D02*
X223386598Y-186321900D01*
D10*
D11*
X177002200Y-181507200D02*
X285002200Y-181507200D01*
D10*
D11*
X178386598Y-183621900D02*
X178600884Y-183693328D01*
X178600884Y-183693328D02*
X178958026Y-183693328D01*
X178958026Y-183693328D02*
X179100884Y-183621900D01*
X179100884Y-183621900D02*
X179172312Y-183550471D01*
X179172312Y-183550471D02*
X179243741Y-183407614D01*
X179243741Y-183407614D02*
X179243741Y-183264757D01*
X179243741Y-183264757D02*
X179172312Y-183121900D01*
X179172312Y-183121900D02*
X179100884Y-183050471D01*
X179100884Y-183050471D02*
X178958026Y-182979042D01*
X178958026Y-182979042D02*
X178672312Y-182907614D01*
X178672312Y-182907614D02*
X178529455Y-182836185D01*
X178529455Y-182836185D02*
X178458026Y-182764757D01*
X178458026Y-182764757D02*
X178386598Y-182621900D01*
X178386598Y-182621900D02*
X178386598Y-182479042D01*
X178386598Y-182479042D02*
X178458026Y-182336185D01*
X178458026Y-182336185D02*
X178529455Y-182264757D01*
X178529455Y-182264757D02*
X178672312Y-182193328D01*
X178672312Y-182193328D02*
X179029455Y-182193328D01*
X179029455Y-182193328D02*
X179243741Y-182264757D01*
X179886597Y-183693328D02*
X179886597Y-182193328D01*
X180529455Y-183693328D02*
X180529455Y-182907614D01*
X180529455Y-182907614D02*
X180458026Y-182764757D01*
X180458026Y-182764757D02*
X180315169Y-182693328D01*
X180315169Y-182693328D02*
X180100883Y-182693328D01*
X180100883Y-182693328D02*
X179958026Y-182764757D01*
X179958026Y-182764757D02*
X179886597Y-182836185D01*
X181815169Y-183621900D02*
X181672312Y-183693328D01*
X181672312Y-183693328D02*
X181386598Y-183693328D01*
X181386598Y-183693328D02*
X181243740Y-183621900D01*
X181243740Y-183621900D02*
X181172312Y-183479042D01*
X181172312Y-183479042D02*
X181172312Y-182907614D01*
X181172312Y-182907614D02*
X181243740Y-182764757D01*
X181243740Y-182764757D02*
X181386598Y-182693328D01*
X181386598Y-182693328D02*
X181672312Y-182693328D01*
X181672312Y-182693328D02*
X181815169Y-182764757D01*
X181815169Y-182764757D02*
X181886598Y-182907614D01*
X181886598Y-182907614D02*
X181886598Y-183050471D01*
X181886598Y-183050471D02*
X181172312Y-183193328D01*
X183100883Y-183621900D02*
X182958026Y-183693328D01*
X182958026Y-183693328D02*
X182672312Y-183693328D01*
X182672312Y-183693328D02*
X182529454Y-183621900D01*
X182529454Y-183621900D02*
X182458026Y-183479042D01*
X182458026Y-183479042D02*
X182458026Y-182907614D01*
X182458026Y-182907614D02*
X182529454Y-182764757D01*
X182529454Y-182764757D02*
X182672312Y-182693328D01*
X182672312Y-182693328D02*
X182958026Y-182693328D01*
X182958026Y-182693328D02*
X183100883Y-182764757D01*
X183100883Y-182764757D02*
X183172312Y-182907614D01*
X183172312Y-182907614D02*
X183172312Y-183050471D01*
X183172312Y-183050471D02*
X182458026Y-183193328D01*
X183600883Y-182693328D02*
X184172311Y-182693328D01*
X183815168Y-182193328D02*
X183815168Y-183479042D01*
X183815168Y-183479042D02*
X183886597Y-183621900D01*
X183886597Y-183621900D02*
X184029454Y-183693328D01*
X184029454Y-183693328D02*
X184172311Y-183693328D01*
X184672311Y-183550471D02*
X184743740Y-183621900D01*
X184743740Y-183621900D02*
X184672311Y-183693328D01*
X184672311Y-183693328D02*
X184600883Y-183621900D01*
X184600883Y-183621900D02*
X184672311Y-183550471D01*
X184672311Y-183550471D02*
X184672311Y-183693328D01*
X184672311Y-182764757D02*
X184743740Y-182836185D01*
X184743740Y-182836185D02*
X184672311Y-182907614D01*
X184672311Y-182907614D02*
X184600883Y-182836185D01*
X184600883Y-182836185D02*
X184672311Y-182764757D01*
X184672311Y-182764757D02*
X184672311Y-182907614D01*
D10*
D11*
X197002200Y-191507200D02*
X197002200Y-194507200D01*
D10*
D11*
X261002200Y-191507200D02*
X261002200Y-198007200D01*
D14*
G36*
X150478918Y-74131920D02*
G01*
X150489119Y-74220802D01*
X150493203Y-74310441D01*
X150491211Y-74400259D01*
X150483182Y-74489680D01*
X150469152Y-74578127D01*
X150449163Y-74665025D01*
X150423251Y-74749796D01*
X150391457Y-74831864D01*
X150353819Y-74910654D01*
X150310375Y-74985587D01*
X150261164Y-75056089D01*
X150206226Y-75121581D01*
X150145598Y-75181489D01*
X150079320Y-75235235D01*
X150007430Y-75282243D01*
X149929968Y-75321936D01*
X149846971Y-75353738D01*
X149758479Y-75377073D01*
X149664531Y-75391365D01*
X149579354Y-75398402D01*
X149495612Y-75402252D01*
X149413547Y-75402477D01*
X149333399Y-75398635D01*
X149294120Y-75395052D01*
X149255410Y-75390286D01*
X149217300Y-75384284D01*
X149179820Y-75376991D01*
X149143001Y-75368350D01*
X149106871Y-75358308D01*
X149071462Y-75346809D01*
X149036804Y-75333798D01*
X149002926Y-75319220D01*
X148969859Y-75303020D01*
X148937632Y-75285144D01*
X148906277Y-75265535D01*
X148875823Y-75244140D01*
X148846300Y-75220902D01*
X148817739Y-75195767D01*
X148790169Y-75168681D01*
X148763621Y-75139587D01*
X148738125Y-75108431D01*
X148713710Y-75075158D01*
X148690408Y-75039713D01*
X148668248Y-75002040D01*
X148647260Y-74962086D01*
X148627475Y-74919794D01*
X148608922Y-74875110D01*
X148604159Y-74842486D01*
X148876575Y-74702946D01*
X148905350Y-74759882D01*
X148937721Y-74812010D01*
X148973397Y-74859391D01*
X149012085Y-74902084D01*
X149053491Y-74940151D01*
X149097323Y-74973650D01*
X149143288Y-75002643D01*
X149191093Y-75027190D01*
X149240445Y-75047351D01*
X149291053Y-75063186D01*
X149342621Y-75074755D01*
X149394859Y-75082120D01*
X149447472Y-75085339D01*
X149500169Y-75084473D01*
X149552656Y-75079584D01*
X149604641Y-75070729D01*
X149655830Y-75057971D01*
X149705932Y-75041370D01*
X149754652Y-75020985D01*
X149801699Y-74996876D01*
X149846778Y-74969105D01*
X149889599Y-74937731D01*
X149929867Y-74902815D01*
X149967290Y-74864416D01*
X150001575Y-74822596D01*
X150032430Y-74777414D01*
X150059560Y-74728931D01*
X150082675Y-74677206D01*
X150101480Y-74622301D01*
X150115683Y-74564275D01*
X150124991Y-74503189D01*
X150129111Y-74439103D01*
X148540820Y-74439103D01*
X148535217Y-74383300D01*
X148531553Y-74321089D01*
X148530283Y-74242709D01*
X148531242Y-74199028D01*
X148533634Y-74153190D01*
X148537739Y-74105824D01*
X148537751Y-74105728D01*
X148914674Y-74105728D01*
X150105298Y-74105728D01*
X150095235Y-74045816D01*
X150079673Y-73989549D01*
X150058987Y-73936947D01*
X150033551Y-73888035D01*
X150003739Y-73842832D01*
X149969928Y-73801363D01*
X149932492Y-73763648D01*
X149891805Y-73729710D01*
X149848243Y-73699571D01*
X149802179Y-73673253D01*
X149753990Y-73650778D01*
X149704049Y-73632168D01*
X149652732Y-73617446D01*
X149600414Y-73606633D01*
X149547468Y-73599752D01*
X149494271Y-73596825D01*
X149441196Y-73597873D01*
X149388619Y-73602920D01*
X149336914Y-73611986D01*
X149286456Y-73625094D01*
X149237621Y-73642267D01*
X149190782Y-73663526D01*
X149146315Y-73688893D01*
X149104594Y-73718391D01*
X149065994Y-73752042D01*
X149030891Y-73789868D01*
X148999658Y-73831890D01*
X148972671Y-73878131D01*
X148950304Y-73928613D01*
X148932932Y-73983359D01*
X148920931Y-74042390D01*
X148914674Y-74105728D01*
X148537751Y-74105728D01*
X148543834Y-74057559D01*
X148552197Y-74009024D01*
X148563108Y-73960846D01*
X148576844Y-73913655D01*
X148593684Y-73868079D01*
X148610716Y-73821860D01*
X148629710Y-73777584D01*
X148650598Y-73735241D01*
X148673310Y-73694824D01*
X148697778Y-73656321D01*
X148723934Y-73619726D01*
X148751710Y-73585027D01*
X148781036Y-73552217D01*
X148811845Y-73521286D01*
X148844068Y-73492225D01*
X148877636Y-73465024D01*
X148912482Y-73439676D01*
X148948536Y-73416169D01*
X148985730Y-73394497D01*
X149023996Y-73374649D01*
X149063266Y-73356616D01*
X149144541Y-73325960D01*
X149229007Y-73302455D01*
X149316118Y-73286030D01*
X149405325Y-73276610D01*
X149496081Y-73274123D01*
X149587837Y-73278497D01*
X149680048Y-73289658D01*
X149772164Y-73307533D01*
X149865394Y-73334129D01*
X149952004Y-73368976D01*
X150032033Y-73411496D01*
X150105521Y-73461113D01*
X150172505Y-73517251D01*
X150233025Y-73579333D01*
X150287119Y-73646783D01*
X150334827Y-73719024D01*
X150376186Y-73795479D01*
X150411236Y-73875573D01*
X150440016Y-73958729D01*
X150462564Y-74044370D01*
X150474025Y-74105728D01*
X150478918Y-74131920D01*
G37*
G36*
X164492573Y-78370309D02*
G01*
X164493771Y-78427695D01*
X164497615Y-78488227D01*
X164504479Y-78550960D01*
X164514737Y-78614949D01*
X164528764Y-78679249D01*
X164546934Y-78742915D01*
X164569621Y-78805003D01*
X164597199Y-78864567D01*
X164612939Y-78893107D01*
X164630043Y-78920662D01*
X164648557Y-78947114D01*
X164668527Y-78972344D01*
X164690001Y-78996235D01*
X164713026Y-79018667D01*
X164737647Y-79039524D01*
X164763912Y-79058687D01*
X164791869Y-79076038D01*
X164821562Y-79091459D01*
X164853040Y-79104831D01*
X164886349Y-79116037D01*
X164921536Y-79124958D01*
X164958648Y-79131477D01*
X164997730Y-79135474D01*
X165038832Y-79136833D01*
X165074974Y-79135733D01*
X165108885Y-79132491D01*
X165140636Y-79127194D01*
X165170298Y-79119931D01*
X165197942Y-79110788D01*
X165223639Y-79099853D01*
X165247461Y-79087215D01*
X165269478Y-79072960D01*
X165289761Y-79057176D01*
X165308382Y-79039951D01*
X165325411Y-79021373D01*
X165340920Y-79001528D01*
X165354979Y-78980505D01*
X165367661Y-78958391D01*
X165379035Y-78935273D01*
X165389173Y-78911240D01*
X165398146Y-78886379D01*
X165406025Y-78860777D01*
X165412881Y-78834523D01*
X165418785Y-78807703D01*
X165423808Y-78780405D01*
X165428022Y-78752718D01*
X165434305Y-78696522D01*
X165438202Y-78639818D01*
X165440281Y-78583305D01*
X165441262Y-78473656D01*
X165441262Y-77240645D01*
X166061340Y-77240645D01*
X166061340Y-78697494D01*
X166058448Y-78793408D01*
X166049698Y-78885790D01*
X166034982Y-78974275D01*
X166014191Y-79058495D01*
X166001484Y-79098891D01*
X165987217Y-79138084D01*
X165971376Y-79176028D01*
X165953949Y-79212676D01*
X165934922Y-79247984D01*
X165914281Y-79281904D01*
X165892012Y-79314392D01*
X165868102Y-79345402D01*
X165842537Y-79374887D01*
X165815303Y-79402802D01*
X165786388Y-79429100D01*
X165755777Y-79453738D01*
X165723457Y-79476667D01*
X165689414Y-79497843D01*
X165653635Y-79517220D01*
X165616106Y-79534751D01*
X165576813Y-79550392D01*
X165535743Y-79564096D01*
X165492882Y-79575818D01*
X165448217Y-79585511D01*
X165401733Y-79593129D01*
X165353418Y-79598628D01*
X165303258Y-79601961D01*
X165251239Y-79603082D01*
X165191173Y-79601417D01*
X165132441Y-79596485D01*
X165075077Y-79588377D01*
X165019115Y-79577186D01*
X164964589Y-79563003D01*
X164911533Y-79545921D01*
X164859979Y-79526032D01*
X164809963Y-79503427D01*
X164761519Y-79478199D01*
X164714679Y-79450440D01*
X164669477Y-79420243D01*
X164625949Y-79387698D01*
X164584126Y-79352899D01*
X164544044Y-79315937D01*
X164505736Y-79276905D01*
X164469236Y-79235894D01*
X164459712Y-79235894D01*
X164459712Y-79549504D01*
X163871781Y-79549504D01*
X163871781Y-77240644D01*
X163872019Y-77240644D01*
X164492573Y-77240644D01*
X164492573Y-78370309D01*
G37*
G36*
X145714375Y-141608940D02*
G01*
X145338376Y-141984938D01*
X140095578Y-141984938D01*
X139719579Y-141608940D01*
X139719579Y-141608702D01*
X139719577Y-141608701D01*
X139719579Y-141608700D01*
X139721176Y-136750000D01*
X140437048Y-136750000D01*
X140437048Y-141270327D01*
X145000000Y-141270327D01*
X145000000Y-136750000D01*
X140437048Y-136750000D01*
X139721176Y-136750000D01*
X139722674Y-132190382D01*
X139722673Y-132190143D01*
X140437048Y-132190143D01*
X140437048Y-136035625D01*
X145338376Y-136035625D01*
X145714375Y-136411624D01*
X145714375Y-141270327D01*
X145714375Y-141608940D01*
G37*
G36*
X150484119Y-77918003D02*
G01*
X150479869Y-78017764D01*
X150468118Y-78116650D01*
X150448816Y-78213878D01*
X150421912Y-78308662D01*
X150387357Y-78400216D01*
X150345100Y-78487756D01*
X150295091Y-78570495D01*
X150237280Y-78647649D01*
X150171616Y-78718431D01*
X150098049Y-78782058D01*
X150016529Y-78837742D01*
X149927007Y-78884700D01*
X149829430Y-78922145D01*
X149723750Y-78949293D01*
X149609916Y-78965358D01*
X149487878Y-78969554D01*
X149357585Y-78961096D01*
X149252679Y-78943147D01*
X149154842Y-78914121D01*
X149064109Y-78874816D01*
X148980515Y-78826030D01*
X148904096Y-78768561D01*
X148834888Y-78703208D01*
X148772925Y-78630767D01*
X148718242Y-78552038D01*
X148670876Y-78467818D01*
X148630861Y-78378906D01*
X148598232Y-78286098D01*
X148573026Y-78190195D01*
X148555277Y-78091992D01*
X148545021Y-77992290D01*
X148543306Y-77929197D01*
X148906941Y-77929197D01*
X148907587Y-77978020D01*
X148910321Y-78026009D01*
X148915168Y-78073049D01*
X148922149Y-78119025D01*
X148931288Y-78163822D01*
X148942609Y-78207324D01*
X148956133Y-78249417D01*
X148971885Y-78289984D01*
X148989887Y-78328910D01*
X149010163Y-78366081D01*
X149032735Y-78401381D01*
X149057627Y-78434694D01*
X149084861Y-78465906D01*
X149114462Y-78494901D01*
X149146452Y-78521564D01*
X149180854Y-78545779D01*
X149217691Y-78567432D01*
X149256986Y-78586406D01*
X149298763Y-78602588D01*
X149343045Y-78615860D01*
X149389854Y-78626109D01*
X149439214Y-78633218D01*
X149491148Y-78637073D01*
X149545679Y-78637559D01*
X149602830Y-78634559D01*
X149662625Y-78627959D01*
X149718096Y-78616711D01*
X149769948Y-78599096D01*
X149818189Y-78575531D01*
X149862826Y-78546435D01*
X149903869Y-78512226D01*
X149941325Y-78473321D01*
X149975203Y-78430138D01*
X150005510Y-78383096D01*
X150032255Y-78332612D01*
X150055446Y-78279104D01*
X150075092Y-78222990D01*
X150091200Y-78164688D01*
X150103778Y-78104616D01*
X150112836Y-78043192D01*
X150118380Y-77980834D01*
X150120420Y-77917960D01*
X150118964Y-77854987D01*
X150114019Y-77792333D01*
X150105594Y-77730418D01*
X150093697Y-77669657D01*
X150078336Y-77610470D01*
X150059519Y-77553274D01*
X150037256Y-77498488D01*
X150011553Y-77446528D01*
X149982419Y-77397814D01*
X149949862Y-77352762D01*
X149913891Y-77311791D01*
X149874513Y-77275320D01*
X149831738Y-77243764D01*
X149785572Y-77217544D01*
X149736024Y-77197076D01*
X149683103Y-77182779D01*
X149683103Y-77183016D01*
X149650076Y-77176951D01*
X149617405Y-77172236D01*
X149585120Y-77168863D01*
X149553249Y-77166827D01*
X149521820Y-77166120D01*
X149490864Y-77166736D01*
X149460407Y-77168668D01*
X149430480Y-77171910D01*
X149401110Y-77176455D01*
X149372326Y-77182295D01*
X149344158Y-77189425D01*
X149316634Y-77197838D01*
X149289783Y-77207527D01*
X149263633Y-77218486D01*
X149238213Y-77230707D01*
X149213552Y-77244185D01*
X149189678Y-77258912D01*
X149166621Y-77274881D01*
X149144409Y-77292087D01*
X149123071Y-77310522D01*
X149102636Y-77330181D01*
X149083132Y-77351055D01*
X149064587Y-77373138D01*
X149047032Y-77396425D01*
X149030494Y-77420907D01*
X149015002Y-77446579D01*
X149000585Y-77473434D01*
X148987272Y-77501464D01*
X148975091Y-77530665D01*
X148964072Y-77561027D01*
X148954242Y-77592546D01*
X148945631Y-77625215D01*
X148934231Y-77676617D01*
X148924780Y-77727878D01*
X148917303Y-77778882D01*
X148911822Y-77829513D01*
X148908360Y-77879656D01*
X148906941Y-77929197D01*
X148543306Y-77929197D01*
X148542292Y-77891884D01*
X148547127Y-77791575D01*
X148559561Y-77692159D01*
X148579628Y-77594435D01*
X148607365Y-77499200D01*
X148642806Y-77407254D01*
X148685987Y-77319393D01*
X148736943Y-77236416D01*
X148795710Y-77159121D01*
X148862323Y-77088306D01*
X148936817Y-77024769D01*
X149019227Y-76969309D01*
X149109589Y-76922722D01*
X149207938Y-76885807D01*
X149314309Y-76859363D01*
X149428739Y-76844187D01*
X149551261Y-76841078D01*
X149681911Y-76850832D01*
X149784148Y-76869451D01*
X149879637Y-76898977D01*
X149968328Y-76938624D01*
X150050172Y-76987607D01*
X150125117Y-77045142D01*
X150193114Y-77110441D01*
X150254112Y-77182721D01*
X150308061Y-77261196D01*
X150354912Y-77345080D01*
X150394613Y-77433589D01*
X150427114Y-77525936D01*
X150452365Y-77621336D01*
X150470317Y-77719004D01*
X150480918Y-77818155D01*
X150484117Y-77917960D01*
X150484119Y-77918003D01*
G37*
G36*
X161046666Y-80490335D02*
G01*
X160426588Y-80490335D01*
X160426588Y-79284708D01*
X160417301Y-79284708D01*
X160376521Y-79330390D01*
X160335662Y-79371747D01*
X160294659Y-79408969D01*
X160253445Y-79442246D01*
X160211954Y-79471769D01*
X160170118Y-79497727D01*
X160127871Y-79520310D01*
X160085147Y-79539710D01*
X160041878Y-79556115D01*
X159997999Y-79569716D01*
X159953442Y-79580703D01*
X159908142Y-79589266D01*
X159862030Y-79595595D01*
X159815042Y-79599880D01*
X159767109Y-79602312D01*
X159718167Y-79603081D01*
X159649683Y-79601388D01*
X159583958Y-79596377D01*
X159520952Y-79588144D01*
X159460628Y-79576788D01*
X159402946Y-79562407D01*
X159347870Y-79545097D01*
X159295359Y-79524957D01*
X159245377Y-79502086D01*
X159197884Y-79476580D01*
X159152844Y-79448538D01*
X159110216Y-79418057D01*
X159069963Y-79385235D01*
X159032048Y-79350171D01*
X158996430Y-79312961D01*
X158963073Y-79273705D01*
X158931937Y-79232499D01*
X158902986Y-79189441D01*
X158876179Y-79144630D01*
X158851480Y-79098163D01*
X158828849Y-79050138D01*
X158808249Y-79000653D01*
X158789640Y-78949805D01*
X158772986Y-78897693D01*
X158758248Y-78844415D01*
X158734364Y-78734749D01*
X158717683Y-78621591D01*
X158707900Y-78505724D01*
X158704707Y-78387930D01*
X159352407Y-78387930D01*
X159353809Y-78447273D01*
X159358185Y-78508840D01*
X159365793Y-78571796D01*
X159376889Y-78635305D01*
X159391730Y-78698531D01*
X159410573Y-78760641D01*
X159433674Y-78820799D01*
X159461290Y-78878170D01*
X159476871Y-78905549D01*
X159493677Y-78931919D01*
X159511741Y-78957174D01*
X159531094Y-78981210D01*
X159551768Y-79003924D01*
X159573795Y-79025210D01*
X159597208Y-79044964D01*
X159622039Y-79063082D01*
X159648319Y-79079459D01*
X159676081Y-79093992D01*
X159705357Y-79106575D01*
X159736179Y-79117104D01*
X159768579Y-79125475D01*
X159802589Y-79131583D01*
X159838241Y-79135325D01*
X159875568Y-79136596D01*
X159912960Y-79135379D01*
X159948806Y-79131790D01*
X159983127Y-79125924D01*
X160015949Y-79117875D01*
X160047294Y-79107737D01*
X160077186Y-79095604D01*
X160105648Y-79081569D01*
X160132705Y-79065727D01*
X160158381Y-79048173D01*
X160182697Y-79028999D01*
X160205679Y-79008300D01*
X160227350Y-78986171D01*
X160247733Y-78962704D01*
X160266853Y-78937995D01*
X160284732Y-78912137D01*
X160301395Y-78885225D01*
X160316864Y-78857352D01*
X160331165Y-78828612D01*
X160344320Y-78799099D01*
X160356352Y-78768909D01*
X160367287Y-78738133D01*
X160377146Y-78706868D01*
X160393735Y-78643241D01*
X160406309Y-78578782D01*
X160415056Y-78514242D01*
X160420165Y-78450374D01*
X160421826Y-78387930D01*
X160419959Y-78325638D01*
X160414275Y-78262201D01*
X160404654Y-78198331D01*
X160390974Y-78134740D01*
X160373114Y-78072141D01*
X160350953Y-78011246D01*
X160324368Y-77952769D01*
X160293239Y-77897422D01*
X160275932Y-77871145D01*
X160257444Y-77845918D01*
X160237759Y-77821829D01*
X160216862Y-77798968D01*
X160194738Y-77777425D01*
X160171372Y-77757287D01*
X160146748Y-77738644D01*
X160120851Y-77721586D01*
X160093667Y-77706201D01*
X160065180Y-77692578D01*
X160035374Y-77680806D01*
X160004235Y-77670975D01*
X159971748Y-77663174D01*
X159937897Y-77657491D01*
X159902667Y-77654017D01*
X159866163Y-77652842D01*
X159829378Y-77654070D01*
X159794151Y-77657698D01*
X159760566Y-77663624D01*
X159728590Y-77671747D01*
X159698189Y-77681969D01*
X159669331Y-77694190D01*
X159641983Y-77708311D01*
X159616111Y-77724231D01*
X159591684Y-77741853D01*
X159568667Y-77761076D01*
X159547028Y-77781801D01*
X159526733Y-77803929D01*
X159507751Y-77827360D01*
X159490047Y-77851994D01*
X159473588Y-77877733D01*
X159458343Y-77904477D01*
X159444277Y-77932126D01*
X159431358Y-77960582D01*
X159419552Y-77989744D01*
X159408827Y-78019514D01*
X159399150Y-78049791D01*
X159390487Y-78080477D01*
X159376074Y-78142676D01*
X159365324Y-78205317D01*
X159357972Y-78267602D01*
X159353754Y-78328738D01*
X159352407Y-78387930D01*
X158704707Y-78387930D01*
X158707896Y-78270293D01*
X158717656Y-78154871D01*
X158734271Y-78042406D01*
X158758028Y-77933639D01*
X158789212Y-77829312D01*
X158828108Y-77730166D01*
X158850538Y-77682768D01*
X158875003Y-77636943D01*
X158901539Y-77592785D01*
X158930181Y-77550385D01*
X158960966Y-77509836D01*
X158993930Y-77471232D01*
X159029107Y-77434665D01*
X159066533Y-77400227D01*
X159106245Y-77368012D01*
X159148278Y-77338112D01*
X159192668Y-77310619D01*
X159239450Y-77285627D01*
X159288660Y-77263228D01*
X159340334Y-77243514D01*
X159394507Y-77226580D01*
X159451216Y-77212516D01*
X159510495Y-77201416D01*
X159572382Y-77193373D01*
X159636910Y-77188479D01*
X159704117Y-77186827D01*
X159771265Y-77188649D01*
X159835404Y-77194027D01*
X159896582Y-77202825D01*
X159954848Y-77214911D01*
X160010251Y-77230150D01*
X160062840Y-77248409D01*
X160112663Y-77269553D01*
X160159770Y-77293448D01*
X160204208Y-77319961D01*
X160246028Y-77348957D01*
X160285278Y-77380303D01*
X160322007Y-77413865D01*
X160356263Y-77449508D01*
X160388096Y-77487099D01*
X160417554Y-77526504D01*
X160444686Y-77567589D01*
X160454211Y-77567589D01*
X160454211Y-77240644D01*
X161046666Y-77240644D01*
X161046666Y-78387930D01*
X161046666Y-80490335D01*
G37*
G36*
X153121984Y-70761917D02*
G01*
X153118227Y-70869550D01*
X153106049Y-70976326D01*
X153085493Y-71081274D01*
X153056604Y-71183421D01*
X153019428Y-71281795D01*
X152974008Y-71375424D01*
X152920390Y-71463337D01*
X152858618Y-71544560D01*
X152788736Y-71618121D01*
X152710790Y-71683049D01*
X152624825Y-71738372D01*
X152530883Y-71783116D01*
X152429011Y-71816311D01*
X152319253Y-71836983D01*
X152201654Y-71844161D01*
X152076258Y-71836873D01*
X152032295Y-71830756D01*
X151990625Y-71822888D01*
X151951023Y-71813321D01*
X151913265Y-71802107D01*
X151877128Y-71789295D01*
X151842386Y-71774940D01*
X151808815Y-71759091D01*
X151776191Y-71741802D01*
X151744290Y-71723122D01*
X151712888Y-71703104D01*
X151681759Y-71681800D01*
X151650681Y-71659262D01*
X151619428Y-71635539D01*
X151587776Y-71610686D01*
X151522379Y-71557790D01*
X151408318Y-71799249D01*
X151176861Y-71795916D01*
X151176859Y-71795916D01*
X151176704Y-70803679D01*
X151502110Y-70803679D01*
X151507689Y-70878880D01*
X151519204Y-70953117D01*
X151536645Y-71025690D01*
X151560000Y-71095899D01*
X151589256Y-71163043D01*
X151624403Y-71226423D01*
X151665427Y-71285340D01*
X151712319Y-71339092D01*
X151765065Y-71386980D01*
X151823654Y-71428304D01*
X151888075Y-71462365D01*
X151958316Y-71488462D01*
X152034364Y-71505895D01*
X152116209Y-71513964D01*
X152203838Y-71511970D01*
X152297240Y-71499212D01*
X152354179Y-71484722D01*
X152407514Y-71463952D01*
X152457223Y-71437327D01*
X152503286Y-71405277D01*
X152545683Y-71368228D01*
X152584394Y-71326609D01*
X152619397Y-71280845D01*
X152650673Y-71231366D01*
X152678200Y-71178598D01*
X152701960Y-71122969D01*
X152721930Y-71064906D01*
X152738091Y-71004836D01*
X152750422Y-70943189D01*
X152758903Y-70880389D01*
X152763513Y-70816867D01*
X152764232Y-70753047D01*
X152761039Y-70689359D01*
X152753914Y-70626230D01*
X152742837Y-70564086D01*
X152727787Y-70503357D01*
X152708743Y-70444468D01*
X152685686Y-70387848D01*
X152658594Y-70333923D01*
X152627447Y-70283123D01*
X152592226Y-70235873D01*
X152552908Y-70192601D01*
X152509475Y-70153736D01*
X152461905Y-70119704D01*
X152410177Y-70090933D01*
X152354273Y-70067850D01*
X152294170Y-70050882D01*
X152229850Y-70040458D01*
X152138841Y-70035897D01*
X152053958Y-70041571D01*
X151975187Y-70056779D01*
X151902518Y-70080822D01*
X151835938Y-70113000D01*
X151775436Y-70152613D01*
X151721000Y-70198961D01*
X151672618Y-70251344D01*
X151630279Y-70309063D01*
X151593970Y-70371416D01*
X151563681Y-70437705D01*
X151539399Y-70507229D01*
X151521112Y-70579288D01*
X151508810Y-70653183D01*
X151502480Y-70728213D01*
X151502110Y-70803679D01*
X151176704Y-70803679D01*
X151176383Y-68750059D01*
X151534047Y-68747916D01*
X151534047Y-69986165D01*
X151583939Y-69941981D01*
X151636266Y-69898037D01*
X151663337Y-69876585D01*
X151691010Y-69855711D01*
X151719283Y-69835586D01*
X151748152Y-69816382D01*
X151777615Y-69798273D01*
X151807670Y-69781429D01*
X151838315Y-69766024D01*
X151869547Y-69752230D01*
X151901364Y-69740219D01*
X151933763Y-69730164D01*
X151966741Y-69722236D01*
X152000297Y-69716608D01*
X152137361Y-69705730D01*
X152265289Y-69709550D01*
X152384126Y-69727095D01*
X152493915Y-69757394D01*
X152594703Y-69799475D01*
X152686532Y-69852366D01*
X152769449Y-69915094D01*
X152843498Y-69986686D01*
X152908722Y-70066172D01*
X152965168Y-70152579D01*
X153012880Y-70244935D01*
X153051901Y-70342267D01*
X153082278Y-70443603D01*
X153104054Y-70547972D01*
X153117275Y-70654400D01*
X153121596Y-70753047D01*
X153121984Y-70761917D01*
G37*
G36*
X162303013Y-75054418D02*
G01*
X161991546Y-75054418D01*
X161754612Y-74329327D01*
X160998803Y-74329327D01*
X160761868Y-75054418D01*
X160450401Y-75054418D01*
X160787836Y-74091442D01*
X161076432Y-74091442D01*
X161676745Y-74091442D01*
X161382184Y-73190376D01*
X161370754Y-73190376D01*
X161076432Y-74091442D01*
X160787836Y-74091442D01*
X161103578Y-73190376D01*
X161103339Y-73190375D01*
X161276694Y-72695552D01*
X161476482Y-72695552D01*
X161649836Y-73190375D01*
X161965578Y-74091442D01*
X162303013Y-75054418D01*
G37*
G36*
X148122770Y-141984699D02*
G01*
X147408395Y-141984699D01*
X147408395Y-134174202D01*
X148122770Y-134174202D01*
X148122770Y-141984699D01*
G37*
G36*
X149771924Y-69295603D02*
G01*
X149319486Y-69295603D01*
X149319486Y-68819353D01*
X149771924Y-68819353D01*
X149771924Y-69295603D01*
G37*
G36*
X164373034Y-75054418D02*
G01*
X164061567Y-75054418D01*
X163824632Y-74329327D01*
X163068824Y-74329327D01*
X162831889Y-75054418D01*
X162520422Y-75054418D01*
X162857857Y-74091442D01*
X163146452Y-74091442D01*
X163746765Y-74091442D01*
X163452205Y-73190376D01*
X163440774Y-73190376D01*
X163146452Y-74091442D01*
X162857857Y-74091442D01*
X163173599Y-73190376D01*
X163173361Y-73190375D01*
X163346715Y-72695552D01*
X163546502Y-72695552D01*
X163719858Y-73190375D01*
X164035599Y-74091442D01*
X164373034Y-75054418D01*
G37*
G36*
X160084642Y-75054418D02*
G01*
X159393126Y-75054418D01*
X159347482Y-75053199D01*
X159302600Y-75049557D01*
X159258526Y-75043517D01*
X159215303Y-75035104D01*
X159172978Y-75024343D01*
X159131595Y-75011258D01*
X159091200Y-74995875D01*
X159051837Y-74978218D01*
X159013552Y-74958312D01*
X158976389Y-74936181D01*
X158940394Y-74911851D01*
X158905611Y-74885346D01*
X158872086Y-74856691D01*
X158839864Y-74825910D01*
X158808990Y-74793029D01*
X158779508Y-74758072D01*
X158751464Y-74721064D01*
X158724903Y-74682030D01*
X158699870Y-74640994D01*
X158676410Y-74597981D01*
X158654568Y-74553017D01*
X158634389Y-74506125D01*
X158615918Y-74457331D01*
X158599200Y-74406659D01*
X158584280Y-74354134D01*
X158571203Y-74299781D01*
X158560015Y-74243625D01*
X158550759Y-74185690D01*
X158543483Y-74126001D01*
X158538229Y-74064583D01*
X158535044Y-74001461D01*
X158533972Y-73936659D01*
X158533972Y-73829978D01*
X158814720Y-73829978D01*
X158814720Y-73924514D01*
X158817997Y-74022980D01*
X158827644Y-74116199D01*
X158843382Y-74204016D01*
X158853449Y-74245853D01*
X158864935Y-74286281D01*
X158877805Y-74325284D01*
X158892024Y-74362841D01*
X158907558Y-74398934D01*
X158924371Y-74433544D01*
X158942430Y-74466650D01*
X158961700Y-74498236D01*
X158982146Y-74528280D01*
X159003732Y-74556765D01*
X159026425Y-74583671D01*
X159050190Y-74608980D01*
X159074992Y-74632671D01*
X159100796Y-74654727D01*
X159127568Y-74675128D01*
X159155272Y-74693854D01*
X159183875Y-74710888D01*
X159213342Y-74726210D01*
X159243637Y-74739800D01*
X159274726Y-74751640D01*
X159306575Y-74761711D01*
X159339148Y-74769993D01*
X159372411Y-74776468D01*
X159406330Y-74781117D01*
X159440869Y-74783920D01*
X159475994Y-74784859D01*
X159786746Y-74784859D01*
X159786746Y-72969633D01*
X159475994Y-72969633D01*
X159440869Y-72970571D01*
X159406330Y-72973374D01*
X159372411Y-72978023D01*
X159339148Y-72984498D01*
X159306575Y-72992781D01*
X159274726Y-73002851D01*
X159243637Y-73014692D01*
X159213342Y-73028282D01*
X159183875Y-73043604D01*
X159155272Y-73060637D01*
X159127568Y-73079364D01*
X159100796Y-73099765D01*
X159074992Y-73121820D01*
X159050190Y-73145512D01*
X159026425Y-73170820D01*
X159003732Y-73197727D01*
X158982146Y-73226212D01*
X158961700Y-73256256D01*
X158942430Y-73287841D01*
X158924371Y-73320948D01*
X158907558Y-73355558D01*
X158892024Y-73391651D01*
X158877805Y-73429208D01*
X158864935Y-73468210D01*
X158853449Y-73508639D01*
X158843382Y-73550476D01*
X158834769Y-73593700D01*
X158827644Y-73638294D01*
X158822042Y-73684237D01*
X158817997Y-73731512D01*
X158815545Y-73780098D01*
X158814720Y-73829978D01*
X158533972Y-73829978D01*
X158533972Y-73813549D01*
X158538229Y-73685586D01*
X158550760Y-73564450D01*
X158571203Y-73450339D01*
X158584280Y-73395979D01*
X158599200Y-73343449D01*
X158615918Y-73292774D01*
X158634389Y-73243978D01*
X158654568Y-73197086D01*
X158676410Y-73152123D01*
X158699870Y-73109113D01*
X158724904Y-73068080D01*
X158751465Y-73029050D01*
X158779508Y-72992047D01*
X158808990Y-72957096D01*
X158839865Y-72924222D01*
X158872087Y-72893448D01*
X158905612Y-72864800D01*
X158940394Y-72838302D01*
X158976390Y-72813979D01*
X159013552Y-72791856D01*
X159051838Y-72771957D01*
X159091201Y-72754306D01*
X159131596Y-72738929D01*
X159172979Y-72725851D01*
X159215304Y-72715094D01*
X159258526Y-72706686D01*
X159302601Y-72700649D01*
X159347483Y-72697009D01*
X159393127Y-72695790D01*
X159393126Y-72695552D01*
X160084642Y-72695552D01*
X160084642Y-74784859D01*
X160084642Y-75054418D01*
G37*
G36*
X152098927Y-76842010D02*
G01*
X152143038Y-76846502D01*
X152186861Y-76853466D01*
X152230263Y-76862900D01*
X152273106Y-76874803D01*
X152315257Y-76889175D01*
X152356580Y-76906015D01*
X152396938Y-76925320D01*
X152436197Y-76947092D01*
X152474222Y-76971328D01*
X152510877Y-76998027D01*
X152546027Y-77027189D01*
X152579536Y-77058812D01*
X152611268Y-77092896D01*
X152641090Y-77129439D01*
X152665092Y-77090445D01*
X152691037Y-77050013D01*
X152717339Y-77010190D01*
X152742412Y-76973021D01*
X152782536Y-76914826D01*
X152798729Y-76891791D01*
X153033997Y-76891791D01*
X153033997Y-78915853D01*
X152655140Y-78915853D01*
X152655140Y-77828574D01*
X152653005Y-77756755D01*
X152650338Y-77722067D01*
X152646603Y-77688224D01*
X152641801Y-77655250D01*
X152635934Y-77623167D01*
X152628999Y-77592000D01*
X152620999Y-77561770D01*
X152611933Y-77532502D01*
X152601800Y-77504219D01*
X152590603Y-77476943D01*
X152578339Y-77450698D01*
X152565011Y-77425508D01*
X152550617Y-77401394D01*
X152535159Y-77378381D01*
X152518635Y-77356492D01*
X152501047Y-77335750D01*
X152482395Y-77316178D01*
X152462678Y-77297799D01*
X152441898Y-77280636D01*
X152420053Y-77264714D01*
X152397145Y-77250054D01*
X152373173Y-77236680D01*
X152348138Y-77224616D01*
X152322040Y-77213884D01*
X152294878Y-77204507D01*
X152266654Y-77196510D01*
X152237367Y-77189915D01*
X152207018Y-77184744D01*
X152175606Y-77181023D01*
X152143132Y-77178773D01*
X152109596Y-77178018D01*
X152066680Y-77179573D01*
X152024143Y-77184253D01*
X151982316Y-77192079D01*
X151961772Y-77197178D01*
X151941529Y-77203073D01*
X151921627Y-77209764D01*
X151902110Y-77217256D01*
X151883016Y-77225551D01*
X151864389Y-77234651D01*
X151846268Y-77244559D01*
X151828696Y-77255279D01*
X151811713Y-77266811D01*
X151795361Y-77279161D01*
X151779681Y-77292329D01*
X151764713Y-77306319D01*
X151750500Y-77321133D01*
X151737082Y-77336775D01*
X151724501Y-77353246D01*
X151712798Y-77370550D01*
X151702014Y-77388689D01*
X151692190Y-77407666D01*
X151683367Y-77427484D01*
X151675587Y-77448145D01*
X151668891Y-77469652D01*
X151663320Y-77492008D01*
X151658916Y-77515215D01*
X151655719Y-77539277D01*
X151653770Y-77564195D01*
X151653111Y-77589973D01*
X151653111Y-78915853D01*
X151295924Y-78915853D01*
X151295804Y-78915972D01*
X151295683Y-78916090D01*
X151295683Y-77567828D01*
X151296258Y-77540296D01*
X151297948Y-77513245D01*
X151300703Y-77486673D01*
X151304472Y-77460581D01*
X151309203Y-77434970D01*
X151314846Y-77409838D01*
X151321350Y-77385187D01*
X151328664Y-77361015D01*
X151336737Y-77337324D01*
X151345519Y-77314112D01*
X151354957Y-77291380D01*
X151365001Y-77269129D01*
X151375601Y-77247357D01*
X151386705Y-77226066D01*
X151398263Y-77205254D01*
X151410223Y-77184923D01*
X151436346Y-77144756D01*
X151464619Y-77107079D01*
X151494907Y-77071891D01*
X151527075Y-77039190D01*
X151560986Y-77008976D01*
X151596506Y-76981248D01*
X151633499Y-76956004D01*
X151671829Y-76933243D01*
X151711362Y-76912965D01*
X151751962Y-76895168D01*
X151793494Y-76879852D01*
X151835821Y-76867016D01*
X151878810Y-76856658D01*
X151922324Y-76848777D01*
X151966228Y-76843373D01*
X152010387Y-76840445D01*
X152054665Y-76839991D01*
X152098927Y-76842010D01*
G37*
G36*
X152284911Y-73274574D02*
G01*
X152351829Y-73283334D01*
X152417191Y-73296557D01*
X152480554Y-73314260D01*
X152541477Y-73336455D01*
X152599516Y-73363158D01*
X152654229Y-73394384D01*
X152705172Y-73430146D01*
X152751904Y-73470459D01*
X152793982Y-73515338D01*
X152830963Y-73564798D01*
X152862405Y-73618852D01*
X152887864Y-73677515D01*
X152906898Y-73740803D01*
X152919065Y-73808729D01*
X152923922Y-73881307D01*
X152921026Y-73958554D01*
X152909935Y-74040482D01*
X152905998Y-74058915D01*
X152901002Y-74076890D01*
X152894992Y-74094411D01*
X152888011Y-74111479D01*
X152880102Y-74128096D01*
X152871311Y-74144267D01*
X152861679Y-74159992D01*
X152851252Y-74175276D01*
X152840073Y-74190120D01*
X152828186Y-74204527D01*
X152802461Y-74232041D01*
X152774429Y-74257839D01*
X152744439Y-74281941D01*
X152712841Y-74304370D01*
X152679987Y-74325144D01*
X152646225Y-74344287D01*
X152611907Y-74361818D01*
X152577382Y-74377758D01*
X152543001Y-74392128D01*
X152509114Y-74404950D01*
X152476071Y-74416244D01*
X152453049Y-74423168D01*
X152427705Y-74429864D01*
X152370920Y-74442783D01*
X152239048Y-74468184D01*
X152094361Y-74495773D01*
X152021559Y-74511427D01*
X151950768Y-74528876D01*
X151933072Y-74533982D01*
X151915643Y-74539777D01*
X151898520Y-74546239D01*
X151881744Y-74553348D01*
X151865358Y-74561085D01*
X151849402Y-74569427D01*
X151833917Y-74578356D01*
X151818944Y-74587849D01*
X151804524Y-74597888D01*
X151790698Y-74608451D01*
X151777508Y-74619518D01*
X151764994Y-74631068D01*
X151753198Y-74643081D01*
X151742161Y-74655537D01*
X151731923Y-74668414D01*
X151722525Y-74681693D01*
X151714010Y-74695353D01*
X151706417Y-74709373D01*
X151699789Y-74723733D01*
X151694165Y-74738412D01*
X151689588Y-74753391D01*
X151686097Y-74768648D01*
X151683735Y-74784162D01*
X151682543Y-74799915D01*
X151682560Y-74815884D01*
X151683829Y-74832050D01*
X151686391Y-74848391D01*
X151690286Y-74864888D01*
X151695556Y-74881521D01*
X151702242Y-74898267D01*
X151710384Y-74915108D01*
X151720025Y-74932022D01*
X151735567Y-74954098D01*
X151753682Y-74974106D01*
X151774198Y-74992096D01*
X151796941Y-75008122D01*
X151821739Y-75022235D01*
X151848419Y-75034486D01*
X151876808Y-75044929D01*
X151906733Y-75053615D01*
X151938022Y-75060596D01*
X151970501Y-75065924D01*
X152003998Y-75069650D01*
X152038341Y-75071828D01*
X152108870Y-75071744D01*
X152180706Y-75066087D01*
X152252467Y-75055273D01*
X152322771Y-75039719D01*
X152390234Y-75019838D01*
X152453475Y-74996049D01*
X152511111Y-74968765D01*
X152537395Y-74953943D01*
X152561760Y-74938404D01*
X152584032Y-74922199D01*
X152604040Y-74905380D01*
X152621609Y-74888000D01*
X152636568Y-74870110D01*
X152652578Y-74848036D01*
X152667721Y-74825859D01*
X152681954Y-74803476D01*
X152688716Y-74792175D01*
X152695235Y-74780783D01*
X152701506Y-74769288D01*
X152707523Y-74757677D01*
X152713282Y-74745937D01*
X152718776Y-74734055D01*
X152724001Y-74722017D01*
X152728952Y-74709813D01*
X152733623Y-74697427D01*
X152738008Y-74684848D01*
X152738249Y-74684846D01*
X153064480Y-74852011D01*
X153052198Y-74879139D01*
X153036590Y-74909963D01*
X153014444Y-74949553D01*
X153000866Y-74971992D01*
X152985589Y-74995851D01*
X152968593Y-75020873D01*
X152949856Y-75046801D01*
X152929357Y-75073377D01*
X152907074Y-75100346D01*
X152882986Y-75127449D01*
X152857073Y-75154429D01*
X152814797Y-75193049D01*
X152768490Y-75228651D01*
X152718518Y-75261197D01*
X152665247Y-75290652D01*
X152609042Y-75316979D01*
X152550269Y-75340141D01*
X152489295Y-75360101D01*
X152426484Y-75376824D01*
X152362202Y-75390272D01*
X152296816Y-75400408D01*
X152230690Y-75407197D01*
X152164191Y-75410600D01*
X152097684Y-75410583D01*
X152031536Y-75407108D01*
X151966111Y-75400139D01*
X151901775Y-75389638D01*
X151838895Y-75375570D01*
X151777836Y-75357897D01*
X151718964Y-75336584D01*
X151662644Y-75311593D01*
X151609242Y-75282887D01*
X151559125Y-75250431D01*
X151512657Y-75214188D01*
X151470204Y-75174120D01*
X151432132Y-75130192D01*
X151398807Y-75082366D01*
X151370595Y-75030607D01*
X151347861Y-74974877D01*
X151330972Y-74915139D01*
X151320292Y-74851358D01*
X151316187Y-74783497D01*
X151319024Y-74711518D01*
X151325313Y-74662159D01*
X151335219Y-74616269D01*
X151348559Y-74573694D01*
X151365151Y-74534279D01*
X151384810Y-74497868D01*
X151407356Y-74464309D01*
X151432605Y-74433446D01*
X151460374Y-74405125D01*
X151490481Y-74379191D01*
X151522743Y-74355490D01*
X151556977Y-74333868D01*
X151593001Y-74314169D01*
X151669688Y-74279924D01*
X151751340Y-74251519D01*
X151836498Y-74227719D01*
X151923699Y-74207287D01*
X152098385Y-74171583D01*
X152182947Y-74153839D01*
X152263706Y-74134518D01*
X152339201Y-74112384D01*
X152407970Y-74086201D01*
X152432567Y-74074313D01*
X152454993Y-74061344D01*
X152475286Y-74047382D01*
X152493484Y-74032516D01*
X152509624Y-74016834D01*
X152523746Y-74000424D01*
X152535885Y-73983375D01*
X152546081Y-73965774D01*
X152554371Y-73947711D01*
X152560793Y-73929273D01*
X152565384Y-73910548D01*
X152568183Y-73891626D01*
X152569228Y-73872594D01*
X152568556Y-73853540D01*
X152566205Y-73834554D01*
X152562213Y-73815722D01*
X152556618Y-73797134D01*
X152549458Y-73778878D01*
X152540770Y-73761042D01*
X152530593Y-73743714D01*
X152518964Y-73726983D01*
X152505921Y-73710937D01*
X152491501Y-73695664D01*
X152475744Y-73681252D01*
X152458686Y-73667791D01*
X152440366Y-73655367D01*
X152420821Y-73644070D01*
X152400089Y-73633987D01*
X152378209Y-73625208D01*
X152355217Y-73617820D01*
X152331151Y-73611911D01*
X152306051Y-73607571D01*
X152274475Y-73603683D01*
X152243719Y-73600814D01*
X152213764Y-73598963D01*
X152184595Y-73598129D01*
X152156193Y-73598312D01*
X152128544Y-73599510D01*
X152101628Y-73601722D01*
X152075431Y-73604948D01*
X152049934Y-73609186D01*
X152025121Y-73614437D01*
X152000975Y-73620698D01*
X151977479Y-73627968D01*
X151954616Y-73636248D01*
X151932370Y-73645536D01*
X151910723Y-73655831D01*
X151889659Y-73667132D01*
X151869161Y-73679438D01*
X151849212Y-73692749D01*
X151829795Y-73707063D01*
X151810893Y-73722380D01*
X151792489Y-73738699D01*
X151774566Y-73756018D01*
X151757108Y-73774337D01*
X151740098Y-73793654D01*
X151723519Y-73813970D01*
X151707353Y-73835283D01*
X151691585Y-73857592D01*
X151676196Y-73880896D01*
X151646493Y-73930486D01*
X151618107Y-73984046D01*
X151324738Y-73822836D01*
X151328421Y-73811357D01*
X151333302Y-73797708D01*
X151340453Y-73779407D01*
X151350061Y-73756921D01*
X151362308Y-73730714D01*
X151377380Y-73701254D01*
X151386032Y-73685450D01*
X151395460Y-73669006D01*
X151432596Y-73612546D01*
X151474816Y-73560332D01*
X151521677Y-73512379D01*
X151572736Y-73468701D01*
X151627552Y-73429313D01*
X151685682Y-73394230D01*
X151746682Y-73363466D01*
X151810110Y-73337035D01*
X151875523Y-73314952D01*
X151942480Y-73297231D01*
X152010536Y-73283888D01*
X152079250Y-73274936D01*
X152148179Y-73270390D01*
X152216880Y-73270265D01*
X152284911Y-73274574D01*
G37*
G36*
X150391049Y-70081415D02*
G01*
X149700486Y-70081415D01*
X149700486Y-71462540D01*
X150462486Y-71462540D01*
X150462486Y-71795916D01*
X148557487Y-71795916D01*
X148557487Y-71462540D01*
X149343299Y-71462540D01*
X149343299Y-69771853D01*
X150391049Y-69771853D01*
X150391049Y-70081415D01*
G37*
G36*
X163671656Y-78506667D02*
G01*
X163661881Y-78623051D01*
X163645241Y-78736558D01*
X163621452Y-78846425D01*
X163590229Y-78951889D01*
X163551287Y-79052186D01*
X163528833Y-79100158D01*
X163504342Y-79146553D01*
X163477779Y-79191274D01*
X163449109Y-79234227D01*
X163418296Y-79275315D01*
X163385304Y-79314444D01*
X163350097Y-79351518D01*
X163312641Y-79386442D01*
X163272900Y-79419121D01*
X163230837Y-79449458D01*
X163186418Y-79477358D01*
X163139606Y-79502727D01*
X163090367Y-79525469D01*
X163038665Y-79545488D01*
X162984463Y-79562688D01*
X162927727Y-79576976D01*
X162868421Y-79588254D01*
X162806509Y-79596428D01*
X162741957Y-79601403D01*
X162674727Y-79603082D01*
X162620559Y-79602022D01*
X162567299Y-79598797D01*
X162514994Y-79593342D01*
X162463692Y-79585591D01*
X162413440Y-79575478D01*
X162364287Y-79562936D01*
X162316280Y-79547901D01*
X162269467Y-79530305D01*
X162223896Y-79510084D01*
X162179615Y-79487171D01*
X162136671Y-79461500D01*
X162095112Y-79433005D01*
X162054986Y-79401621D01*
X162016340Y-79367281D01*
X161979223Y-79329920D01*
X161943683Y-79289472D01*
X161934634Y-79289472D01*
X161934634Y-79549265D01*
X161934634Y-79549503D01*
X161332653Y-79549503D01*
X161333414Y-78388405D01*
X161957018Y-78388405D01*
X161958627Y-78450022D01*
X161963594Y-78513271D01*
X161972128Y-78577378D01*
X161984440Y-78641569D01*
X162000739Y-78705071D01*
X162021237Y-78767110D01*
X162046142Y-78826913D01*
X162075664Y-78883705D01*
X162092223Y-78910730D01*
X162110014Y-78936713D01*
X162129065Y-78961557D01*
X162149402Y-78985164D01*
X162171051Y-79007438D01*
X162194037Y-79028283D01*
X162218388Y-79047602D01*
X162244130Y-79065298D01*
X162271289Y-79081274D01*
X162299891Y-79095433D01*
X162329962Y-79107680D01*
X162361529Y-79117917D01*
X162394617Y-79126047D01*
X162429254Y-79131974D01*
X162465465Y-79135601D01*
X162503277Y-79136832D01*
X162541022Y-79135588D01*
X162577040Y-79131922D01*
X162611366Y-79125933D01*
X162644033Y-79117721D01*
X162675077Y-79107386D01*
X162704532Y-79095025D01*
X162732433Y-79080740D01*
X162758815Y-79064628D01*
X162783712Y-79046790D01*
X162807159Y-79027324D01*
X162829192Y-79006330D01*
X162849843Y-78983908D01*
X162869150Y-78960157D01*
X162887145Y-78935175D01*
X162903863Y-78909063D01*
X162919341Y-78881919D01*
X162933611Y-78853843D01*
X162946709Y-78824935D01*
X162958670Y-78795293D01*
X162969527Y-78765017D01*
X162979317Y-78734207D01*
X162988074Y-78702961D01*
X163002625Y-78639560D01*
X163013460Y-78575609D01*
X163020855Y-78511903D01*
X163025088Y-78449237D01*
X163026438Y-78388405D01*
X163026675Y-78388405D01*
X163025328Y-78329096D01*
X163021110Y-78267872D01*
X163013758Y-78205526D01*
X163003008Y-78142850D01*
X162988595Y-78080635D01*
X162970255Y-78019674D01*
X162947724Y-77960760D01*
X162920739Y-77904684D01*
X162905494Y-77877958D01*
X162889035Y-77852238D01*
X162871331Y-77827624D01*
X162852349Y-77804215D01*
X162832054Y-77782110D01*
X162810415Y-77761407D01*
X162787398Y-77742206D01*
X162762970Y-77724606D01*
X162737099Y-77708705D01*
X162709751Y-77694604D01*
X162680893Y-77682400D01*
X162650492Y-77672193D01*
X162618516Y-77664082D01*
X162584931Y-77658165D01*
X162549704Y-77654543D01*
X162512802Y-77653314D01*
X162475780Y-77654506D01*
X162440203Y-77658022D01*
X162406052Y-77663769D01*
X162373311Y-77671656D01*
X162341961Y-77681591D01*
X162311985Y-77693482D01*
X162283366Y-77707237D01*
X162256085Y-77722764D01*
X162230125Y-77739972D01*
X162205468Y-77758769D01*
X162182097Y-77779063D01*
X162159994Y-77800762D01*
X162139142Y-77823775D01*
X162119522Y-77848008D01*
X162101117Y-77873372D01*
X162083909Y-77899773D01*
X162067881Y-77927120D01*
X162053015Y-77955322D01*
X162039294Y-77984285D01*
X162026699Y-78013919D01*
X162015213Y-78044132D01*
X162004819Y-78074832D01*
X161987234Y-78137325D01*
X161973803Y-78200663D01*
X161964384Y-78264112D01*
X161958836Y-78326938D01*
X161957018Y-78388405D01*
X161333414Y-78388405D01*
X161334796Y-76278619D01*
X161954874Y-76278619D01*
X161952970Y-77509725D01*
X161961780Y-77509725D01*
X161996950Y-77469879D01*
X162032957Y-77432747D01*
X162069889Y-77398310D01*
X162107837Y-77366548D01*
X162146887Y-77337442D01*
X162187131Y-77310971D01*
X162228656Y-77287115D01*
X162271551Y-77265855D01*
X162315906Y-77247171D01*
X162361810Y-77231042D01*
X162409350Y-77217449D01*
X162458617Y-77206372D01*
X162509699Y-77197791D01*
X162562686Y-77191687D01*
X162617665Y-77188039D01*
X162674727Y-77186827D01*
X162741936Y-77188468D01*
X162806470Y-77193329D01*
X162868366Y-77201320D01*
X162927659Y-77212350D01*
X162984384Y-77226330D01*
X163038576Y-77243169D01*
X163090272Y-77262776D01*
X163139506Y-77285061D01*
X163186314Y-77309934D01*
X163230731Y-77337304D01*
X163272794Y-77367080D01*
X163312536Y-77399173D01*
X163349995Y-77433491D01*
X163385205Y-77469945D01*
X163418201Y-77508443D01*
X163449020Y-77548896D01*
X163477696Y-77591214D01*
X163504265Y-77635305D01*
X163528763Y-77681079D01*
X163551224Y-77728446D01*
X163571685Y-77777315D01*
X163590181Y-77827596D01*
X163606747Y-77879199D01*
X163621418Y-77932032D01*
X163634231Y-77986007D01*
X163645221Y-78041031D01*
X163661871Y-78153869D01*
X163671654Y-78269823D01*
X163674851Y-78388169D01*
X163674845Y-78388405D01*
X163671656Y-78506667D01*
G37*
G36*
X148122770Y-133269326D02*
G01*
X147408395Y-133269326D01*
X147408395Y-132190143D01*
X148122770Y-132190143D01*
X148122770Y-133269326D01*
G37*
G36*
X150627130Y-144106633D02*
G01*
X150237795Y-144486443D01*
X139719577Y-144486443D01*
X139719577Y-143772068D01*
X149912279Y-143772068D01*
X149912279Y-132190143D01*
X150626654Y-132190143D01*
X150627130Y-144106633D01*
G37*
G36*
X151604838Y-75915613D02*
G01*
X151604771Y-75915478D01*
X151605009Y-75915478D01*
X151604838Y-75915613D01*
G37*
G36*
X152378798Y-75886967D02*
G01*
X152404664Y-75888306D01*
X152430371Y-75890689D01*
X152455868Y-75894118D01*
X152481102Y-75898596D01*
X152506022Y-75904124D01*
X152530576Y-75910703D01*
X152554712Y-75918336D01*
X152578378Y-75927023D01*
X152601521Y-75936766D01*
X152624090Y-75947568D01*
X152646033Y-75959430D01*
X152667298Y-75972353D01*
X152687833Y-75986339D01*
X152707586Y-76001390D01*
X152726504Y-76017507D01*
X152744537Y-76034692D01*
X152761632Y-76052947D01*
X152777737Y-76072274D01*
X152792800Y-76092673D01*
X152806769Y-76114147D01*
X152819592Y-76136698D01*
X152831217Y-76160327D01*
X152841593Y-76185035D01*
X152592990Y-76368868D01*
X152557986Y-76357199D01*
X152543072Y-76331173D01*
X152528020Y-76308190D01*
X152512836Y-76288119D01*
X152497522Y-76270826D01*
X152482081Y-76256179D01*
X152466517Y-76244043D01*
X152450833Y-76234287D01*
X152435032Y-76226778D01*
X152419117Y-76221382D01*
X152403091Y-76217966D01*
X152386958Y-76216398D01*
X152370722Y-76216545D01*
X152354384Y-76218273D01*
X152337949Y-76221450D01*
X152321420Y-76225943D01*
X152304799Y-76231619D01*
X152288091Y-76238344D01*
X152271298Y-76245987D01*
X152237470Y-76263491D01*
X152168941Y-76303655D01*
X152134292Y-76324187D01*
X152099419Y-76343601D01*
X152064350Y-76360833D01*
X152046750Y-76368299D01*
X152029110Y-76374821D01*
X152002267Y-76383425D01*
X151975634Y-76390978D01*
X151949220Y-76397482D01*
X151923036Y-76402940D01*
X151897090Y-76407353D01*
X151871392Y-76410723D01*
X151845951Y-76413054D01*
X151820777Y-76414346D01*
X151795878Y-76414603D01*
X151771265Y-76413827D01*
X151746946Y-76412019D01*
X151722932Y-76409182D01*
X151699231Y-76405319D01*
X151675852Y-76400431D01*
X151652806Y-76394521D01*
X151630102Y-76387591D01*
X151607748Y-76379642D01*
X151585755Y-76370679D01*
X151564131Y-76360702D01*
X151542886Y-76349713D01*
X151522030Y-76337716D01*
X151501572Y-76324712D01*
X151481520Y-76310704D01*
X151461885Y-76295693D01*
X151442677Y-76279682D01*
X151423903Y-76262673D01*
X151405574Y-76244669D01*
X151387699Y-76225672D01*
X151370288Y-76205683D01*
X151353349Y-76184705D01*
X151336892Y-76162741D01*
X151320927Y-76139792D01*
X151604838Y-75915613D01*
X151620252Y-75946588D01*
X151635839Y-75974165D01*
X151651534Y-75998361D01*
X151667333Y-76019332D01*
X151683236Y-76037230D01*
X151699242Y-76052210D01*
X151715350Y-76064427D01*
X151731558Y-76074032D01*
X151747865Y-76081182D01*
X151764269Y-76086029D01*
X151780771Y-76088728D01*
X151797368Y-76089431D01*
X151814059Y-76088295D01*
X151830843Y-76085471D01*
X151847718Y-76081115D01*
X151864684Y-76075379D01*
X151881740Y-76068419D01*
X151898884Y-76060387D01*
X151933430Y-76041726D01*
X151968314Y-76020628D01*
X152003526Y-75998323D01*
X152039056Y-75976044D01*
X152074895Y-75955021D01*
X152111032Y-75936485D01*
X152129209Y-75928535D01*
X152147458Y-75921669D01*
X152172410Y-75913678D01*
X152197671Y-75906717D01*
X152223190Y-75900788D01*
X152248914Y-75895891D01*
X152274792Y-75892030D01*
X152300771Y-75889205D01*
X152326800Y-75887419D01*
X152352826Y-75886672D01*
X152378798Y-75886967D01*
G37*
G36*
X157250000Y-74000000D02*
G01*
X154319635Y-74000000D01*
X154319635Y-73747587D01*
X157250000Y-73747587D01*
X157250000Y-74000000D01*
G37*
G36*
X166265413Y-75054418D02*
G01*
X165967757Y-75054418D01*
X165967757Y-73977616D01*
X164964774Y-73977616D01*
X164964774Y-73719728D01*
X165967757Y-73719728D01*
X165967757Y-72974396D01*
X164784990Y-72974396D01*
X164784990Y-72695552D01*
X166265413Y-72695552D01*
X166265413Y-75054418D01*
G37*
D15*
G36*
X190987827Y-102859830D02*
G01*
X191017227Y-102859830D01*
X191043669Y-102818950D01*
X191077933Y-102779595D01*
X191112934Y-102749432D01*
X191154511Y-102722579D01*
X191197999Y-102702092D01*
X191247653Y-102685866D01*
X191300842Y-102675086D01*
X191360283Y-102669456D01*
X191391010Y-102668771D01*
X191446334Y-102671677D01*
X191499800Y-102680291D01*
X191550937Y-102694414D01*
X191599568Y-102713911D01*
X191645104Y-102738469D01*
X191687515Y-102768039D01*
X191726190Y-102802186D01*
X191761154Y-102840975D01*
X191791864Y-102883902D01*
X191818303Y-102931114D01*
X191840040Y-102982131D01*
X191856951Y-103037098D01*
X191868701Y-103095649D01*
X191875062Y-103157845D01*
X191876168Y-103197984D01*
X191876168Y-103225279D01*
X191873288Y-103289646D01*
X191864852Y-103350396D01*
X191851153Y-103407444D01*
X191832502Y-103460620D01*
X191809104Y-103509985D01*
X191781333Y-103555197D01*
X191713366Y-103633153D01*
X191630586Y-103693192D01*
X191535164Y-103733716D01*
X191429653Y-103752986D01*
X191391010Y-103754400D01*
X191329577Y-103751561D01*
X191274297Y-103743411D01*
X191224663Y-103730447D01*
X191180526Y-103713245D01*
X191105276Y-103666697D01*
X191045293Y-103604693D01*
X191013014Y-103554915D01*
X190983613Y-103554915D01*
X190983613Y-103725000D01*
X190821955Y-103725000D01*
X190821955Y-103202106D01*
X190987827Y-103202106D01*
X190987827Y-103221065D01*
X190990711Y-103278204D01*
X190999176Y-103331252D01*
X191012645Y-103379220D01*
X191030956Y-103422989D01*
X191053507Y-103461927D01*
X191080257Y-103496532D01*
X191145056Y-103552074D01*
X191224196Y-103589193D01*
X191316940Y-103606492D01*
X191346955Y-103607488D01*
X191398236Y-103604581D01*
X191446639Y-103595955D01*
X191490778Y-103582178D01*
X191531634Y-103563235D01*
X191568173Y-103539826D01*
X191601058Y-103511722D01*
X191629720Y-103479452D01*
X191654318Y-103442837D01*
X191674630Y-103401944D01*
X191690377Y-103356935D01*
X191707271Y-103253709D01*
X191708190Y-103221065D01*
X191708190Y-103202106D01*
X191705305Y-103144969D01*
X191696832Y-103091926D01*
X191683362Y-103044019D01*
X191665040Y-103000304D01*
X191642488Y-102961442D01*
X191615721Y-102926896D01*
X191550844Y-102871430D01*
X191471461Y-102834277D01*
X191378175Y-102816833D01*
X191346955Y-102815775D01*
X191295700Y-102818682D01*
X191247395Y-102827308D01*
X191203467Y-102841065D01*
X191162857Y-102859976D01*
X191126583Y-102883339D01*
X191093970Y-102911386D01*
X191065538Y-102943629D01*
X191041160Y-102980218D01*
X191005407Y-103066269D01*
X190988704Y-103169992D01*
X190987827Y-103202106D01*
X190821955Y-103202106D01*
X190821955Y-102255054D01*
X190987827Y-102255054D01*
X190987827Y-102859830D01*
G37*
G36*
X190392668Y-102538529D02*
G01*
X190363746Y-102535678D01*
X190337475Y-102527445D01*
X190314231Y-102514188D01*
X190294791Y-102496442D01*
X190279771Y-102474805D01*
X190269624Y-102449693D01*
X190264624Y-102412591D01*
X190267469Y-102383542D01*
X190275663Y-102357403D01*
X190306374Y-102315247D01*
X190328026Y-102300202D01*
X190353080Y-102289940D01*
X190392668Y-102284455D01*
X190420873Y-102287312D01*
X190446620Y-102295583D01*
X190469497Y-102308944D01*
X190488707Y-102326893D01*
X190503597Y-102348855D01*
X190513693Y-102374458D01*
X190518697Y-102412591D01*
X190515857Y-102440870D01*
X190507696Y-102466445D01*
X190476860Y-102508303D01*
X190455105Y-102523296D01*
X190430025Y-102533432D01*
X190392668Y-102538529D01*
G37*
G36*
X190474550Y-103725000D02*
G01*
X190308679Y-103725000D01*
X190308679Y-102698172D01*
X190474550Y-102698172D01*
X190474550Y-103725000D01*
G37*
G36*
X189546550Y-103754400D02*
G01*
X189478753Y-103751489D01*
X189415972Y-103742838D01*
X189361405Y-103729447D01*
X189311943Y-103711111D01*
X189270307Y-103689423D01*
X189233695Y-103663530D01*
X189203855Y-103635187D01*
X189178951Y-103603218D01*
X189159734Y-103568871D01*
X189145527Y-103531256D01*
X189132905Y-103446746D01*
X189132833Y-103439419D01*
X189135710Y-103396298D01*
X189144125Y-103357469D01*
X189157370Y-103323454D01*
X189175281Y-103293020D01*
X189225806Y-103240393D01*
X189299850Y-103196266D01*
X189406187Y-103159234D01*
X189519255Y-103134970D01*
X189605351Y-103120224D01*
X189679454Y-103103649D01*
X189739456Y-103080879D01*
X189769112Y-103062343D01*
X189792082Y-103039812D01*
X189805800Y-103017550D01*
X189814317Y-102991750D01*
X189817384Y-102960672D01*
X189814492Y-102930634D01*
X189805965Y-102903678D01*
X189774185Y-102860427D01*
X189721430Y-102828709D01*
X189643345Y-102810173D01*
X189590605Y-102807349D01*
X189537006Y-102810370D01*
X189487845Y-102819797D01*
X189449817Y-102833331D01*
X189415841Y-102852275D01*
X189389046Y-102874219D01*
X189366106Y-102901061D01*
X189347947Y-102931702D01*
X189333843Y-102967314D01*
X189323892Y-103008941D01*
X189168553Y-102969098D01*
X189182355Y-102919818D01*
X189201187Y-102874584D01*
X189224104Y-102834766D01*
X189251534Y-102798955D01*
X189318459Y-102740495D01*
X189402515Y-102698576D01*
X189505412Y-102674156D01*
X189590605Y-102668771D01*
X189655148Y-102671674D01*
X189715024Y-102680268D01*
X189767608Y-102693668D01*
X189815227Y-102711976D01*
X189855429Y-102733698D01*
X189890593Y-102759560D01*
X189919039Y-102787810D01*
X189942448Y-102819564D01*
X189960052Y-102853474D01*
X189972506Y-102890457D01*
X189981241Y-102962779D01*
X189978365Y-103004539D01*
X189969960Y-103042641D01*
X189938335Y-103107897D01*
X189886614Y-103162645D01*
X189811369Y-103208907D01*
X189706480Y-103246581D01*
X189622112Y-103265121D01*
X189536017Y-103279867D01*
X189438854Y-103301624D01*
X189364853Y-103331056D01*
X189337748Y-103350026D01*
X189317210Y-103372830D01*
X189305211Y-103395566D01*
X189298314Y-103421896D01*
X189296598Y-103445738D01*
X189299488Y-103476167D01*
X189307996Y-103504024D01*
X189340355Y-103550886D01*
X189394073Y-103586998D01*
X189471890Y-103610044D01*
X189546550Y-103615823D01*
X189603621Y-103612746D01*
X189658070Y-103602932D01*
X189701039Y-103588824D01*
X189740756Y-103568812D01*
X189772634Y-103545803D01*
X189801036Y-103517420D01*
X189824072Y-103485681D01*
X189843320Y-103448629D01*
X189858235Y-103406626D01*
X189868774Y-103358896D01*
X189869958Y-103351216D01*
X190027403Y-103386937D01*
X190016726Y-103442101D01*
X190001029Y-103492521D01*
X189981053Y-103537278D01*
X189956702Y-103577639D01*
X189895880Y-103645285D01*
X189818226Y-103697194D01*
X189722068Y-103733423D01*
X189605251Y-103752316D01*
X189546550Y-103754400D01*
G37*
G36*
X188448751Y-102228556D02*
G01*
X188518638Y-102237145D01*
X188582702Y-102250849D01*
X188642225Y-102269645D01*
X188694717Y-102292339D01*
X188742244Y-102319436D01*
X188782478Y-102349148D01*
X188817555Y-102382587D01*
X188845843Y-102417749D01*
X188868887Y-102456066D01*
X188885874Y-102495891D01*
X188897473Y-102538455D01*
X188904221Y-102607863D01*
X188904221Y-102630944D01*
X188901386Y-102676623D01*
X188893263Y-102718486D01*
X188862250Y-102793224D01*
X188812631Y-102856563D01*
X188745177Y-102907978D01*
X188663092Y-102944255D01*
X188650148Y-102948032D01*
X188650148Y-102975327D01*
X188694825Y-102987445D01*
X188741668Y-103006967D01*
X188783757Y-103031346D01*
X188823828Y-103062525D01*
X188855403Y-103095172D01*
X188882991Y-103133390D01*
X188903234Y-103172233D01*
X188918608Y-103215830D01*
X188927824Y-103260775D01*
X188931481Y-103310106D01*
X188931516Y-103315587D01*
X188931516Y-103338668D01*
X188928613Y-103388248D01*
X188920016Y-103435299D01*
X188906097Y-103479170D01*
X188886947Y-103520306D01*
X188833390Y-103594074D01*
X188759149Y-103656276D01*
X188663298Y-103705479D01*
X188544981Y-103739143D01*
X188404117Y-103753994D01*
X188375008Y-103754400D01*
X188298445Y-103751504D01*
X188226570Y-103742955D01*
X188161258Y-103729378D01*
X188100880Y-103710821D01*
X188047394Y-103688313D01*
X187998963Y-103661500D01*
X187957248Y-103631731D01*
X187920625Y-103598280D01*
X187890195Y-103562525D01*
X187864897Y-103523606D01*
X187845252Y-103482539D01*
X187830865Y-103438706D01*
X187821927Y-103392434D01*
X187818530Y-103343684D01*
X187818501Y-103338668D01*
X187818501Y-103315587D01*
X187818624Y-103313481D01*
X187988586Y-103313481D01*
X187988586Y-103330242D01*
X187991484Y-103371463D01*
X188000051Y-103409424D01*
X188013620Y-103443150D01*
X188032180Y-103473724D01*
X188084050Y-103525631D01*
X188157643Y-103565722D01*
X188256445Y-103592163D01*
X188375008Y-103601168D01*
X188444009Y-103598251D01*
X188507274Y-103589551D01*
X188560693Y-103576316D01*
X188608469Y-103558198D01*
X188647324Y-103537170D01*
X188680833Y-103512078D01*
X188707088Y-103485004D01*
X188728247Y-103454466D01*
X188743632Y-103421774D01*
X188753900Y-103385937D01*
X188759324Y-103330242D01*
X188759324Y-103313481D01*
X188756421Y-103271689D01*
X188747824Y-103233252D01*
X188734272Y-103199354D01*
X188715717Y-103168662D01*
X188664049Y-103116939D01*
X188590781Y-103077247D01*
X188492101Y-103051227D01*
X188375008Y-103042554D01*
X188304909Y-103045472D01*
X188240885Y-103054172D01*
X188187183Y-103067356D01*
X188139290Y-103085391D01*
X188100472Y-103106292D01*
X188067056Y-103131222D01*
X188040879Y-103158148D01*
X188019795Y-103188516D01*
X188004416Y-103221125D01*
X187994129Y-103256879D01*
X187988586Y-103313481D01*
X187818624Y-103313481D01*
X187821334Y-103267094D01*
X187829443Y-103222767D01*
X187860263Y-103144084D01*
X187909155Y-103077993D01*
X187974979Y-103024717D01*
X188054473Y-102987024D01*
X188097854Y-102975327D01*
X188097854Y-102948032D01*
X188051836Y-102932294D01*
X188005785Y-102909530D01*
X187966558Y-102883125D01*
X187930439Y-102850632D01*
X187902613Y-102817101D01*
X187879256Y-102778567D01*
X187862828Y-102739355D01*
X187851557Y-102695804D01*
X187845795Y-102630944D01*
X187845795Y-102626731D01*
X188015880Y-102626731D01*
X188015880Y-102643584D01*
X188018783Y-102682325D01*
X188027384Y-102717977D01*
X188040990Y-102749495D01*
X188059637Y-102777985D01*
X188112009Y-102826000D01*
X188187016Y-102862260D01*
X188288646Y-102884407D01*
X188375008Y-102889231D01*
X188442363Y-102886322D01*
X188503649Y-102877684D01*
X188555047Y-102864574D01*
X188600566Y-102846700D01*
X188637177Y-102826025D01*
X188668288Y-102801452D01*
X188692213Y-102775010D01*
X188710939Y-102745302D01*
X188723943Y-102713484D01*
X188731728Y-102678731D01*
X188734137Y-102643584D01*
X188734137Y-102626731D01*
X188731240Y-102588072D01*
X188722682Y-102552490D01*
X188709086Y-102520822D01*
X188690489Y-102492188D01*
X188638172Y-102443651D01*
X188563430Y-102406813D01*
X188462785Y-102384136D01*
X188375008Y-102378977D01*
X188307653Y-102381888D01*
X188246367Y-102390544D01*
X188195082Y-102403659D01*
X188149648Y-102421555D01*
X188113131Y-102442247D01*
X188082073Y-102466861D01*
X188058155Y-102493376D01*
X188039397Y-102523198D01*
X188026312Y-102555210D01*
X188018418Y-102590216D01*
X188015880Y-102626731D01*
X187845795Y-102626731D01*
X187845795Y-102607863D01*
X187848687Y-102561723D01*
X187857206Y-102518132D01*
X187890083Y-102439154D01*
X187943707Y-102370285D01*
X188018736Y-102312003D01*
X188116228Y-102266242D01*
X188236434Y-102236201D01*
X188375008Y-102225654D01*
X188448751Y-102228556D01*
G37*
G36*
X187131944Y-102228565D02*
G01*
X187196306Y-102237223D01*
X187254503Y-102250924D01*
X187308675Y-102269769D01*
X187357153Y-102292823D01*
X187401566Y-102320510D01*
X187440911Y-102351959D01*
X187476103Y-102387656D01*
X187506756Y-102427146D01*
X187533067Y-102470637D01*
X187572334Y-102569978D01*
X187592608Y-102686872D01*
X187594927Y-102746441D01*
X187594927Y-103258893D01*
X187592036Y-103318518D01*
X187583526Y-103374891D01*
X187569757Y-103427513D01*
X187550924Y-103476682D01*
X187527279Y-103522250D01*
X187499048Y-103564123D01*
X187429186Y-103636778D01*
X187342184Y-103693635D01*
X187238851Y-103732998D01*
X187120403Y-103752625D01*
X187069927Y-103754400D01*
X187005948Y-103751499D01*
X186944708Y-103742914D01*
X186887110Y-103728992D01*
X186832836Y-103709848D01*
X186783000Y-103686088D01*
X186736990Y-103657606D01*
X186695899Y-103625265D01*
X186659058Y-103588700D01*
X186627330Y-103548884D01*
X186600234Y-103505299D01*
X186578324Y-103458801D01*
X186561430Y-103408923D01*
X186549874Y-103356202D01*
X186543767Y-103300425D01*
X186542821Y-103267227D01*
X186542821Y-103248360D01*
X186712905Y-103248360D01*
X186712905Y-103265121D01*
X186715793Y-103314697D01*
X186724285Y-103360885D01*
X186737864Y-103402880D01*
X186756375Y-103441285D01*
X186779434Y-103475766D01*
X186806886Y-103506394D01*
X186874630Y-103555827D01*
X186959135Y-103588205D01*
X187059853Y-103601071D01*
X187069927Y-103601168D01*
X187123859Y-103598270D01*
X187174327Y-103589702D01*
X187219846Y-103576101D01*
X187261534Y-103557490D01*
X187298159Y-103534741D01*
X187330650Y-103507582D01*
X187358249Y-103476834D01*
X187381401Y-103442160D01*
X187399771Y-103403965D01*
X187413286Y-103362196D01*
X187424835Y-103267746D01*
X187424842Y-103265121D01*
X187424842Y-103248360D01*
X187421956Y-103198664D01*
X187413472Y-103152146D01*
X187399835Y-103109458D01*
X187381237Y-103070271D01*
X187358044Y-103034924D01*
X187330440Y-103003436D01*
X187262645Y-102952604D01*
X187178939Y-102919402D01*
X187080468Y-102906197D01*
X187069927Y-102906084D01*
X187017629Y-102908977D01*
X186968392Y-102917506D01*
X186923188Y-102931197D01*
X186881557Y-102949920D01*
X186844418Y-102973012D01*
X186811300Y-103000548D01*
X186782881Y-103031824D01*
X186758911Y-103067019D01*
X186739790Y-103105624D01*
X186725581Y-103147703D01*
X186716541Y-103193121D01*
X186712957Y-103241637D01*
X186712905Y-103248360D01*
X186542821Y-103248360D01*
X186542821Y-103242040D01*
X186545700Y-103184270D01*
X186554136Y-103129599D01*
X186567906Y-103077903D01*
X186586669Y-103029617D01*
X186638610Y-102942942D01*
X186708380Y-102870915D01*
X186794249Y-102815455D01*
X186893904Y-102778907D01*
X186948042Y-102768463D01*
X187004222Y-102763628D01*
X187023674Y-102763293D01*
X187087475Y-102766118D01*
X187144828Y-102774164D01*
X187196829Y-102787044D01*
X187242735Y-102803991D01*
X187319872Y-102849270D01*
X187377525Y-102907001D01*
X187395442Y-102933378D01*
X187424842Y-102933378D01*
X187424842Y-102729679D01*
X187421931Y-102674891D01*
X187413272Y-102624161D01*
X187399779Y-102579761D01*
X187381272Y-102539365D01*
X187358778Y-102504360D01*
X187331806Y-102473358D01*
X187265858Y-102424507D01*
X187182486Y-102392564D01*
X187079585Y-102379192D01*
X187063607Y-102378977D01*
X187005443Y-102381859D01*
X186952737Y-102390304D01*
X186907180Y-102403409D01*
X186866694Y-102421126D01*
X186832229Y-102442503D01*
X186802566Y-102467739D01*
X186757956Y-102528285D01*
X186732027Y-102602716D01*
X186725545Y-102670878D01*
X186553353Y-102670878D01*
X186556267Y-102615705D01*
X186564942Y-102563064D01*
X186578892Y-102514307D01*
X186598154Y-102468472D01*
X186622139Y-102426561D01*
X186651063Y-102387942D01*
X186684479Y-102353178D01*
X186722562Y-102322101D01*
X186765249Y-102294927D01*
X186812434Y-102271902D01*
X186921076Y-102238989D01*
X187049085Y-102225779D01*
X187063607Y-102225654D01*
X187131944Y-102228565D01*
G37*
G36*
X186368523Y-103223172D02*
G01*
X186368523Y-103424764D01*
X185601997Y-103424764D01*
X185601997Y-103725000D01*
X185431912Y-103725000D01*
X185431912Y-103424764D01*
X185179945Y-103424764D01*
X185179945Y-103271441D01*
X185431912Y-103271441D01*
X185601997Y-103271441D01*
X186198438Y-103271441D01*
X186198438Y-103246253D01*
X185631398Y-102358003D01*
X185601997Y-102358003D01*
X185601997Y-103271441D01*
X185431912Y-103271441D01*
X185431912Y-102255054D01*
X185751107Y-102255054D01*
X186368523Y-103223172D01*
G37*
G36*
X185056939Y-103223172D02*
G01*
X185056939Y-103424764D01*
X184290413Y-103424764D01*
X184290413Y-103725000D01*
X184120328Y-103725000D01*
X184120328Y-103424764D01*
X183868361Y-103424764D01*
X183868361Y-103271441D01*
X184120328Y-103271441D01*
X184290413Y-103271441D01*
X184886854Y-103271441D01*
X184886854Y-103246253D01*
X184319814Y-102358003D01*
X184290413Y-102358003D01*
X184290413Y-103271441D01*
X184120328Y-103271441D01*
X184120328Y-102255054D01*
X184439523Y-102255054D01*
X185056939Y-103223172D01*
G37*
G36*
X183646619Y-103260908D02*
G01*
X183025082Y-103260908D01*
X183025082Y-103107676D01*
X183646619Y-103107676D01*
X183646619Y-103260908D01*
G37*
G36*
X182745730Y-103725000D02*
G01*
X181706263Y-103725000D01*
X181706263Y-103571768D01*
X182573538Y-103571768D01*
X182573538Y-103536047D01*
X182570609Y-103484300D01*
X182561829Y-103439255D01*
X182548915Y-103403772D01*
X182531267Y-103372544D01*
X182482411Y-103321084D01*
X182407297Y-103275952D01*
X182283739Y-103228444D01*
X182254344Y-103218959D01*
X182140954Y-103183238D01*
X182043227Y-103149058D01*
X181955103Y-103109762D01*
X181897286Y-103076767D01*
X181845726Y-103039510D01*
X181807029Y-103003870D01*
X181773511Y-102964265D01*
X181747610Y-102924182D01*
X181726514Y-102880135D01*
X181710885Y-102833451D01*
X181700164Y-102782493D01*
X181693715Y-102693959D01*
X181693715Y-102675091D01*
X181696607Y-102621597D01*
X181705134Y-102570715D01*
X181719028Y-102522724D01*
X181738076Y-102477678D01*
X181791063Y-102396710D01*
X181863162Y-102328977D01*
X181953632Y-102276290D01*
X182061458Y-102241061D01*
X182184992Y-102226012D01*
X182208182Y-102225654D01*
X182273982Y-102228569D01*
X182336937Y-102237255D01*
X182395191Y-102251181D01*
X182450053Y-102270412D01*
X182499635Y-102294017D01*
X182545407Y-102322442D01*
X182585813Y-102354493D01*
X182622075Y-102390923D01*
X182653166Y-102430582D01*
X182679792Y-102474270D01*
X182701414Y-102521212D01*
X182718196Y-102571943D01*
X182729869Y-102626278D01*
X182736228Y-102684262D01*
X182737395Y-102723360D01*
X182737395Y-102750654D01*
X182569325Y-102750654D01*
X182569325Y-102721253D01*
X182566438Y-102667577D01*
X182557948Y-102618499D01*
X182544650Y-102575396D01*
X182526588Y-102536583D01*
X182504364Y-102502533D01*
X182477968Y-102472635D01*
X182412699Y-102424804D01*
X182329724Y-102393038D01*
X182227443Y-102379289D01*
X182208182Y-102378977D01*
X182154117Y-102381872D01*
X182103428Y-102390413D01*
X182057534Y-102404006D01*
X182015605Y-102422582D01*
X181979121Y-102445133D01*
X181947030Y-102471986D01*
X181920448Y-102501926D01*
X181898603Y-102535565D01*
X181882094Y-102571923D01*
X181870697Y-102611512D01*
X181863799Y-102679213D01*
X181863799Y-102687639D01*
X181866689Y-102736843D01*
X181875191Y-102781463D01*
X181888501Y-102820498D01*
X181906593Y-102855806D01*
X181957103Y-102917151D01*
X182030244Y-102969837D01*
X182134353Y-103016572D01*
X182180887Y-103032021D01*
X182296384Y-103067742D01*
X182407062Y-103105778D01*
X182504119Y-103149238D01*
X182558293Y-103181179D01*
X182606199Y-103217418D01*
X182641680Y-103252107D01*
X182672272Y-103290967D01*
X182696118Y-103331164D01*
X182715466Y-103375773D01*
X182739929Y-103478473D01*
X182745730Y-103571768D01*
X182745730Y-103725000D01*
G37*
G36*
X180986869Y-102228580D02*
G01*
X181051069Y-102237344D01*
X181108721Y-102251132D01*
X181162653Y-102270196D01*
X181210855Y-102293479D01*
X181255329Y-102321599D01*
X181294961Y-102353646D01*
X181330785Y-102390252D01*
X181390095Y-102476338D01*
X181433210Y-102581311D01*
X181458772Y-102707446D01*
X181464920Y-102817882D01*
X181464920Y-103162264D01*
X181462017Y-103239907D01*
X181453423Y-103312096D01*
X181439938Y-103376404D01*
X181421492Y-103435662D01*
X181399057Y-103488205D01*
X181372253Y-103536019D01*
X181341896Y-103578266D01*
X181307608Y-103615977D01*
X181228051Y-103677603D01*
X181132804Y-103721756D01*
X181020235Y-103747837D01*
X180918946Y-103754400D01*
X180849889Y-103751469D01*
X180784698Y-103742677D01*
X180726543Y-103728903D01*
X180672196Y-103709844D01*
X180623896Y-103686655D01*
X180579367Y-103658627D01*
X180539849Y-103626761D01*
X180504146Y-103590327D01*
X180472667Y-103549733D01*
X180445181Y-103504657D01*
X180402341Y-103399941D01*
X180376911Y-103273584D01*
X180370773Y-103162264D01*
X180370773Y-102817882D01*
X180371171Y-102807349D01*
X180540949Y-102807349D01*
X180540949Y-103170690D01*
X180543880Y-103239633D01*
X180552674Y-103303201D01*
X180566073Y-103357190D01*
X180584518Y-103406225D01*
X180606336Y-103447461D01*
X180632567Y-103484096D01*
X180661762Y-103514688D01*
X180694989Y-103540845D01*
X180772348Y-103579002D01*
X180867215Y-103598776D01*
X180918946Y-103601168D01*
X180975670Y-103598258D01*
X181027781Y-103589609D01*
X181072960Y-103576207D01*
X181113972Y-103557855D01*
X181149741Y-103535441D01*
X181181586Y-103508571D01*
X181233470Y-103441869D01*
X181270505Y-103355558D01*
X181291363Y-103245968D01*
X181294836Y-103170690D01*
X181294836Y-102807349D01*
X181291914Y-102739993D01*
X181283189Y-102677752D01*
X181269772Y-102624164D01*
X181251342Y-102575415D01*
X181229399Y-102534002D01*
X181203076Y-102497178D01*
X181173709Y-102466257D01*
X181140373Y-102439813D01*
X181063051Y-102401224D01*
X180969118Y-102381333D01*
X180918946Y-102378977D01*
X180862995Y-102381887D01*
X180811324Y-102390529D01*
X180766059Y-102404003D01*
X180724789Y-102422467D01*
X180688557Y-102445086D01*
X180656187Y-102472210D01*
X180603278Y-102539443D01*
X180565527Y-102625882D01*
X180544393Y-102734464D01*
X180540949Y-102807349D01*
X180371171Y-102807349D01*
X180373677Y-102740966D01*
X180382276Y-102669298D01*
X180395795Y-102605237D01*
X180414299Y-102546090D01*
X180436835Y-102493506D01*
X180463775Y-102445570D01*
X180494303Y-102403142D01*
X180528800Y-102365210D01*
X180608810Y-102303143D01*
X180704464Y-102258630D01*
X180817227Y-102232316D01*
X180918946Y-102225654D01*
X180986869Y-102228580D01*
G37*
G36*
X180134285Y-103725000D02*
G01*
X179094818Y-103725000D01*
X179094818Y-103571768D01*
X179962094Y-103571768D01*
X179962094Y-103536047D01*
X179959165Y-103484300D01*
X179950384Y-103439255D01*
X179937470Y-103403772D01*
X179919822Y-103372544D01*
X179870967Y-103321084D01*
X179795852Y-103275952D01*
X179672295Y-103228444D01*
X179642899Y-103218959D01*
X179529509Y-103183238D01*
X179431782Y-103149058D01*
X179343658Y-103109762D01*
X179285842Y-103076767D01*
X179234282Y-103039510D01*
X179195584Y-103003870D01*
X179162067Y-102964265D01*
X179136165Y-102924182D01*
X179115070Y-102880135D01*
X179099440Y-102833451D01*
X179088719Y-102782493D01*
X179082270Y-102693959D01*
X179082270Y-102675091D01*
X179085163Y-102621597D01*
X179093689Y-102570715D01*
X179107584Y-102522724D01*
X179126632Y-102477678D01*
X179179619Y-102396710D01*
X179251717Y-102328977D01*
X179342187Y-102276290D01*
X179450013Y-102241061D01*
X179573547Y-102226012D01*
X179596737Y-102225654D01*
X179662538Y-102228569D01*
X179725492Y-102237255D01*
X179783746Y-102251181D01*
X179838609Y-102270412D01*
X179888190Y-102294017D01*
X179933962Y-102322442D01*
X179974369Y-102354493D01*
X180010631Y-102390923D01*
X180041722Y-102430582D01*
X180068348Y-102474270D01*
X180089969Y-102521212D01*
X180106751Y-102571943D01*
X180118425Y-102626278D01*
X180124784Y-102684262D01*
X180125950Y-102723360D01*
X180125950Y-102750654D01*
X179957881Y-102750654D01*
X179957881Y-102721253D01*
X179954993Y-102667577D01*
X179946503Y-102618499D01*
X179933205Y-102575396D01*
X179915144Y-102536583D01*
X179892919Y-102502533D01*
X179866523Y-102472635D01*
X179801255Y-102424804D01*
X179718280Y-102393038D01*
X179615999Y-102379289D01*
X179596737Y-102378977D01*
X179542672Y-102381872D01*
X179491983Y-102390413D01*
X179446090Y-102404006D01*
X179404160Y-102422582D01*
X179367676Y-102445133D01*
X179335585Y-102471986D01*
X179309004Y-102501926D01*
X179287159Y-102535565D01*
X179270649Y-102571923D01*
X179259252Y-102611512D01*
X179252355Y-102679213D01*
X179252355Y-102687639D01*
X179255244Y-102736843D01*
X179263746Y-102781463D01*
X179277057Y-102820498D01*
X179295148Y-102855806D01*
X179345659Y-102917151D01*
X179418800Y-102969837D01*
X179522909Y-103016572D01*
X179569443Y-103032021D01*
X179684939Y-103067742D01*
X179795618Y-103105778D01*
X179892675Y-103149238D01*
X179946848Y-103181179D01*
X179994754Y-103217418D01*
X180030235Y-103252107D01*
X180060828Y-103290967D01*
X180084673Y-103331164D01*
X180104021Y-103375773D01*
X180128484Y-103478473D01*
X180134285Y-103571768D01*
X180134285Y-103725000D01*
G37*
G36*
X178345237Y-103754400D02*
G01*
X178280165Y-103751506D01*
X178218772Y-103742973D01*
X178162013Y-103729262D01*
X178109114Y-103710502D01*
X178060772Y-103687213D01*
X178016474Y-103659407D01*
X177976599Y-103627506D01*
X177940987Y-103591550D01*
X177883034Y-103508168D01*
X177843535Y-103410030D01*
X177824063Y-103297771D01*
X177822343Y-103250466D01*
X177822343Y-103227385D01*
X177825223Y-103166192D01*
X177833655Y-103108589D01*
X177847323Y-103054716D01*
X177865922Y-103004668D01*
X177889251Y-102958378D01*
X177916927Y-102916186D01*
X177984762Y-102844001D01*
X178067616Y-102789421D01*
X178163444Y-102754191D01*
X178269676Y-102740270D01*
X178282222Y-102740121D01*
X178341207Y-102742939D01*
X178394090Y-102750944D01*
X178442168Y-102763795D01*
X178484449Y-102780643D01*
X178555753Y-102825869D01*
X178609007Y-102883724D01*
X178628803Y-102916525D01*
X178658203Y-102916525D01*
X178658203Y-102408378D01*
X177862277Y-102408378D01*
X177862277Y-102255054D01*
X178828288Y-102255054D01*
X178828288Y-103050981D01*
X178597295Y-103050981D01*
X178565549Y-103000064D01*
X178518945Y-102950280D01*
X178485588Y-102926513D01*
X178445738Y-102906918D01*
X178405339Y-102894345D01*
X178359033Y-102886819D01*
X178320049Y-102885018D01*
X178271979Y-102887912D01*
X178226749Y-102896450D01*
X178185219Y-102910175D01*
X178146992Y-102928962D01*
X178112694Y-102952319D01*
X178082153Y-102980221D01*
X178055717Y-103012342D01*
X178033529Y-103048574D01*
X178002831Y-103133010D01*
X177992428Y-103229492D01*
X177992428Y-103248360D01*
X177995334Y-103302750D01*
X178003949Y-103353233D01*
X178017463Y-103397878D01*
X178035973Y-103438566D01*
X178058553Y-103474066D01*
X178085575Y-103505534D01*
X178151488Y-103555214D01*
X178234098Y-103587584D01*
X178334761Y-103600974D01*
X178349450Y-103601168D01*
X178404624Y-103598254D01*
X178455979Y-103589578D01*
X178501137Y-103576028D01*
X178542323Y-103557417D01*
X178577849Y-103534905D01*
X178609288Y-103507899D01*
X178635806Y-103477310D01*
X178658038Y-103442589D01*
X178688813Y-103361183D01*
X178700142Y-103262102D01*
X178700152Y-103258893D01*
X178700152Y-103239933D01*
X178872343Y-103239933D01*
X178872343Y-103265121D01*
X178869442Y-103324076D01*
X178860856Y-103380137D01*
X178846989Y-103432410D01*
X178827932Y-103481475D01*
X178804113Y-103526713D01*
X178775537Y-103568427D01*
X178705051Y-103640313D01*
X178617266Y-103696149D01*
X178512608Y-103734410D01*
X178391479Y-103753000D01*
X178345237Y-103754400D01*
G37*
G36*
X177556180Y-103260908D02*
G01*
X176934643Y-103260908D01*
X176934643Y-103107676D01*
X177556180Y-103107676D01*
X177556180Y-103260908D01*
G37*
G36*
X176226919Y-103725000D02*
G01*
X176056834Y-103725000D01*
X176056834Y-102255054D01*
X176378135Y-102255054D01*
X176728838Y-102891338D01*
X176544007Y-102891338D01*
X176258426Y-102368444D01*
X176226919Y-102368444D01*
X176226919Y-103725000D01*
G37*
G36*
X191446912Y-105191677D02*
G01*
X191500913Y-105200290D01*
X191552493Y-105214400D01*
X191601508Y-105233874D01*
X191647281Y-105258355D01*
X191689862Y-105287822D01*
X191728544Y-105321758D01*
X191763452Y-105360290D01*
X191793969Y-105402812D01*
X191820163Y-105449556D01*
X191841563Y-105499948D01*
X191858099Y-105554219D01*
X191869425Y-105611941D01*
X191875335Y-105673234D01*
X191876168Y-105707452D01*
X191876168Y-105736852D01*
X191873287Y-105799926D01*
X191864843Y-105859509D01*
X191851124Y-105915495D01*
X191832434Y-105967718D01*
X191808970Y-106016225D01*
X191781099Y-106060670D01*
X191712788Y-106137323D01*
X191629410Y-106196307D01*
X191533065Y-106235938D01*
X191426238Y-106254388D01*
X191391010Y-106255532D01*
X191329641Y-106252705D01*
X191274447Y-106244636D01*
X191224407Y-106231717D01*
X191180088Y-106214684D01*
X191104622Y-106168746D01*
X191045947Y-106108794D01*
X191017227Y-106064474D01*
X190987827Y-106064474D01*
X190987827Y-106455018D01*
X190990756Y-106479248D01*
X190999536Y-106497622D01*
X191027690Y-106515391D01*
X191050841Y-106518032D01*
X191703977Y-106518032D01*
X191703977Y-106665036D01*
X191006786Y-106665036D01*
X190967228Y-106662151D01*
X190932369Y-106653679D01*
X190903854Y-106640804D01*
X190879673Y-106623428D01*
X190845151Y-106577261D01*
X190827794Y-106514331D01*
X190826168Y-106484419D01*
X190826168Y-105713771D01*
X190987827Y-105713771D01*
X190987827Y-105730532D01*
X190990711Y-105786237D01*
X190999176Y-105838003D01*
X191012667Y-105884919D01*
X191031014Y-105927760D01*
X191053665Y-105965976D01*
X191080544Y-105999950D01*
X191145856Y-106054593D01*
X191225843Y-106091051D01*
X191319704Y-106107722D01*
X191346955Y-106108529D01*
X191398624Y-106105623D01*
X191447368Y-106097009D01*
X191491820Y-106083249D01*
X191532926Y-106064342D01*
X191569627Y-106041009D01*
X191602601Y-106013022D01*
X191631235Y-105980971D01*
X191655738Y-105944645D01*
X191675845Y-105904208D01*
X191691330Y-105859759D01*
X191707497Y-105758217D01*
X191708190Y-105730532D01*
X191708190Y-105713771D01*
X191705305Y-105658067D01*
X191696832Y-105606301D01*
X191683339Y-105559436D01*
X191664980Y-105516637D01*
X191642325Y-105478484D01*
X191615427Y-105444556D01*
X191550032Y-105389968D01*
X191469801Y-105353463D01*
X191375400Y-105336638D01*
X191346955Y-105335775D01*
X191295328Y-105338680D01*
X191246699Y-105347295D01*
X191202467Y-105361035D01*
X191161614Y-105379909D01*
X191125182Y-105403198D01*
X191092480Y-105431130D01*
X191064072Y-105463160D01*
X191039783Y-105499465D01*
X191004481Y-105584513D01*
X190988487Y-105686555D01*
X190987827Y-105713771D01*
X190826168Y-105713771D01*
X190826168Y-105218172D01*
X190983613Y-105218172D01*
X190983613Y-105388257D01*
X191013014Y-105388257D01*
X191040068Y-105345112D01*
X191074660Y-105303970D01*
X191109349Y-105272952D01*
X191150346Y-105245392D01*
X191193063Y-105224347D01*
X191241743Y-105207561D01*
X191293953Y-105196179D01*
X191352277Y-105189872D01*
X191391010Y-105188771D01*
X191446912Y-105191677D01*
G37*
G36*
X190047790Y-104748580D02*
G01*
X190111990Y-104757344D01*
X190169642Y-104771132D01*
X190223574Y-104790196D01*
X190271776Y-104813479D01*
X190316250Y-104841599D01*
X190355882Y-104873646D01*
X190391706Y-104910252D01*
X190451016Y-104996338D01*
X190494132Y-105101311D01*
X190519693Y-105227446D01*
X190525841Y-105337882D01*
X190525841Y-105682264D01*
X190522939Y-105759907D01*
X190514344Y-105832096D01*
X190500859Y-105896404D01*
X190482413Y-105955662D01*
X190459978Y-106008205D01*
X190433175Y-106056019D01*
X190402817Y-106098266D01*
X190368529Y-106135977D01*
X190288973Y-106197603D01*
X190193725Y-106241756D01*
X190081156Y-106267837D01*
X189979867Y-106274400D01*
X189910811Y-106271469D01*
X189845619Y-106262677D01*
X189787464Y-106248903D01*
X189733117Y-106229844D01*
X189684817Y-106206655D01*
X189640288Y-106178627D01*
X189600770Y-106146761D01*
X189565067Y-106110327D01*
X189533589Y-106069733D01*
X189506102Y-106024657D01*
X189463262Y-105919941D01*
X189437832Y-105793584D01*
X189431694Y-105682264D01*
X189431694Y-105337882D01*
X189432092Y-105327349D01*
X189601871Y-105327349D01*
X189601871Y-105690690D01*
X189604802Y-105759633D01*
X189613595Y-105823201D01*
X189626994Y-105877190D01*
X189645440Y-105926225D01*
X189667257Y-105967461D01*
X189693489Y-106004096D01*
X189722683Y-106034688D01*
X189755910Y-106060845D01*
X189833269Y-106099002D01*
X189928137Y-106118776D01*
X189979867Y-106121168D01*
X190036591Y-106118258D01*
X190088702Y-106109609D01*
X190133881Y-106096207D01*
X190174893Y-106077855D01*
X190210662Y-106055441D01*
X190242507Y-106028571D01*
X190294391Y-105961869D01*
X190331426Y-105875558D01*
X190352284Y-105765968D01*
X190355757Y-105690690D01*
X190355757Y-105327349D01*
X190352835Y-105259993D01*
X190344110Y-105197752D01*
X190330693Y-105144164D01*
X190312263Y-105095415D01*
X190290320Y-105054002D01*
X190263997Y-105017178D01*
X190234630Y-104986257D01*
X190201295Y-104959813D01*
X190123972Y-104921224D01*
X190030039Y-104901333D01*
X189979867Y-104898977D01*
X189923916Y-104901887D01*
X189872245Y-104910529D01*
X189826980Y-104924003D01*
X189785710Y-104942467D01*
X189749478Y-104965086D01*
X189717108Y-104992210D01*
X189664199Y-105059443D01*
X189626448Y-105145882D01*
X189605314Y-105254464D01*
X189601871Y-105327349D01*
X189432092Y-105327349D01*
X189434598Y-105260966D01*
X189443197Y-105189298D01*
X189456716Y-105125237D01*
X189475220Y-105066090D01*
X189497756Y-105013506D01*
X189524696Y-104965570D01*
X189555224Y-104923142D01*
X189589721Y-104885210D01*
X189669731Y-104823143D01*
X189765385Y-104778630D01*
X189878148Y-104752316D01*
X189979867Y-104745654D01*
X190047790Y-104748580D01*
G37*
G36*
X189195206Y-106245000D02*
G01*
X188155739Y-106245000D01*
X188155739Y-106091768D01*
X189023015Y-106091768D01*
X189023015Y-106056047D01*
X189020086Y-106004300D01*
X189011305Y-105959255D01*
X188998392Y-105923772D01*
X188980744Y-105892544D01*
X188931888Y-105841084D01*
X188856773Y-105795952D01*
X188733216Y-105748444D01*
X188703820Y-105738959D01*
X188590430Y-105703238D01*
X188492703Y-105669058D01*
X188404579Y-105629762D01*
X188346763Y-105596767D01*
X188295203Y-105559510D01*
X188256505Y-105523870D01*
X188222988Y-105484265D01*
X188197086Y-105444182D01*
X188175991Y-105400135D01*
X188160362Y-105353451D01*
X188149640Y-105302493D01*
X188143191Y-105213959D01*
X188143191Y-105195091D01*
X188146084Y-105141597D01*
X188154611Y-105090715D01*
X188168505Y-105042724D01*
X188187553Y-104997678D01*
X188240540Y-104916710D01*
X188312638Y-104848977D01*
X188403108Y-104796290D01*
X188510934Y-104761061D01*
X188634468Y-104746012D01*
X188657658Y-104745654D01*
X188723459Y-104748569D01*
X188786413Y-104757255D01*
X188844667Y-104771181D01*
X188899530Y-104790412D01*
X188949112Y-104814017D01*
X188994884Y-104842442D01*
X189035290Y-104874493D01*
X189071552Y-104910923D01*
X189102643Y-104950582D01*
X189129269Y-104994270D01*
X189150890Y-105041212D01*
X189167672Y-105091943D01*
X189179346Y-105146278D01*
X189185705Y-105204262D01*
X189186871Y-105243360D01*
X189186871Y-105270654D01*
X189018802Y-105270654D01*
X189018802Y-105241253D01*
X189015914Y-105187577D01*
X189007424Y-105138499D01*
X188994126Y-105095396D01*
X188976065Y-105056583D01*
X188953840Y-105022533D01*
X188927444Y-104992635D01*
X188862176Y-104944804D01*
X188779201Y-104913038D01*
X188676920Y-104899289D01*
X188657658Y-104898977D01*
X188603593Y-104901872D01*
X188552905Y-104910413D01*
X188507011Y-104924006D01*
X188465081Y-104942582D01*
X188428597Y-104965133D01*
X188396506Y-104991986D01*
X188369925Y-105021926D01*
X188348080Y-105055565D01*
X188331570Y-105091923D01*
X188320174Y-105131512D01*
X188313276Y-105199213D01*
X188313276Y-105207639D01*
X188316165Y-105256843D01*
X188324668Y-105301463D01*
X188337978Y-105340498D01*
X188356069Y-105375806D01*
X188406580Y-105437151D01*
X188479721Y-105489837D01*
X188583830Y-105536572D01*
X188630364Y-105552021D01*
X188745860Y-105587742D01*
X188856539Y-105625778D01*
X188953596Y-105669238D01*
X189007770Y-105701179D01*
X189055676Y-105737418D01*
X189091157Y-105772107D01*
X189121749Y-105810967D01*
X189145594Y-105851164D01*
X189164942Y-105895773D01*
X189189405Y-105998473D01*
X189195206Y-106091768D01*
X189195206Y-106245000D01*
G37*
G36*
X187886187Y-105780908D02*
G01*
X187264650Y-105780908D01*
X187264650Y-105627676D01*
X187886187Y-105627676D01*
X187886187Y-105780908D01*
G37*
G36*
X186922282Y-106245000D02*
G01*
X186760624Y-106245000D01*
X186760624Y-106074915D01*
X186731223Y-106074915D01*
X186705353Y-106116960D01*
X186672439Y-106156848D01*
X186638390Y-106187943D01*
X186598209Y-106215589D01*
X186555924Y-106237006D01*
X186507796Y-106254195D01*
X186456014Y-106266066D01*
X186398243Y-106272908D01*
X186353227Y-106274400D01*
X186298001Y-106271493D01*
X186244545Y-106262867D01*
X186193373Y-106248719D01*
X186144654Y-106229172D01*
X186099059Y-106204568D01*
X186056560Y-106174921D01*
X186017863Y-106140732D01*
X185982862Y-106101868D01*
X185952177Y-106058922D01*
X185925755Y-106011657D01*
X185904074Y-105960635D01*
X185887213Y-105905619D01*
X185875526Y-105847034D01*
X185869227Y-105784744D01*
X185868161Y-105745279D01*
X185868161Y-105722106D01*
X186038245Y-105722106D01*
X186038245Y-105741065D01*
X186041129Y-105798204D01*
X186049595Y-105851252D01*
X186063063Y-105899220D01*
X186081375Y-105942989D01*
X186103925Y-105981927D01*
X186130676Y-106016532D01*
X186195474Y-106072074D01*
X186274615Y-106109193D01*
X186367358Y-106126492D01*
X186397374Y-106127488D01*
X186448633Y-106124581D01*
X186497019Y-106115955D01*
X186541146Y-106102178D01*
X186581992Y-106083233D01*
X186618526Y-106059821D01*
X186651406Y-106031714D01*
X186680065Y-105999439D01*
X186704661Y-105962818D01*
X186724970Y-105921918D01*
X186740714Y-105876903D01*
X186757600Y-105773664D01*
X186758517Y-105741065D01*
X186758517Y-105722106D01*
X186755632Y-105664969D01*
X186747159Y-105611926D01*
X186733689Y-105564017D01*
X186715368Y-105520299D01*
X186692816Y-105481435D01*
X186666050Y-105446887D01*
X186601176Y-105391419D01*
X186521804Y-105354268D01*
X186428540Y-105336830D01*
X186397374Y-105335775D01*
X186346118Y-105338682D01*
X186297814Y-105347308D01*
X186253886Y-105361065D01*
X186213276Y-105379976D01*
X186177001Y-105403339D01*
X186144388Y-105431386D01*
X186115957Y-105463629D01*
X186091579Y-105500218D01*
X186055826Y-105586269D01*
X186039123Y-105689992D01*
X186038245Y-105722106D01*
X185868161Y-105722106D01*
X185868161Y-105717984D01*
X185871042Y-105653652D01*
X185879487Y-105592874D01*
X185893201Y-105535773D01*
X185911886Y-105482503D01*
X185935313Y-105433069D01*
X185963138Y-105387766D01*
X185995244Y-105346519D01*
X186031184Y-105309730D01*
X186114006Y-105249717D01*
X186209446Y-105209294D01*
X186261221Y-105196942D01*
X186315063Y-105190144D01*
X186353227Y-105188771D01*
X186414711Y-105191602D01*
X186470105Y-105199691D01*
X186520317Y-105212637D01*
X186564857Y-105229737D01*
X186640522Y-105275810D01*
X186698940Y-105335818D01*
X186727010Y-105379830D01*
X186756411Y-105379830D01*
X186756411Y-104775054D01*
X186922282Y-104775054D01*
X186922282Y-106245000D01*
G37*
G36*
X185159107Y-105191672D02*
G01*
X185218668Y-105200251D01*
X185274398Y-105214128D01*
X185326807Y-105233193D01*
X185375131Y-105256966D01*
X185419785Y-105285466D01*
X185460212Y-105318210D01*
X185496620Y-105355267D01*
X185528677Y-105396289D01*
X185556338Y-105441259D01*
X185579430Y-105490083D01*
X185597706Y-105542538D01*
X185611028Y-105598817D01*
X185619059Y-105658437D01*
X185621598Y-105717984D01*
X185621598Y-105745279D01*
X185618703Y-105808790D01*
X185610164Y-105869022D01*
X185596366Y-105925241D01*
X185577462Y-105977908D01*
X185553870Y-106026480D01*
X185525666Y-106071224D01*
X185493184Y-106111830D01*
X185456532Y-106148309D01*
X185371374Y-106208321D01*
X185271194Y-106250020D01*
X185156933Y-106271703D01*
X185096598Y-106274400D01*
X185034074Y-106271500D01*
X184974501Y-106262920D01*
X184918764Y-106249044D01*
X184866349Y-106229978D01*
X184818023Y-106206207D01*
X184773368Y-106177709D01*
X184732944Y-106144968D01*
X184696539Y-106107915D01*
X184664487Y-106066898D01*
X184636831Y-106021932D01*
X184613744Y-105973114D01*
X184595474Y-105920665D01*
X184582157Y-105864390D01*
X184574131Y-105804771D01*
X184571598Y-105745279D01*
X184571598Y-105722106D01*
X184737469Y-105722106D01*
X184737469Y-105741065D01*
X184740361Y-105797629D01*
X184748879Y-105850444D01*
X184762438Y-105898297D01*
X184780940Y-105942154D01*
X184803660Y-105981071D01*
X184830711Y-106015768D01*
X184861466Y-106045701D01*
X184896040Y-106071154D01*
X184975740Y-106107857D01*
X185069316Y-106124572D01*
X185096598Y-106125382D01*
X185147629Y-106122484D01*
X185195552Y-106113925D01*
X185239316Y-106100227D01*
X185279671Y-106081467D01*
X185315965Y-106058163D01*
X185348533Y-106030291D01*
X185401615Y-105961695D01*
X185437718Y-105876119D01*
X185454694Y-105773677D01*
X185455635Y-105741065D01*
X185455635Y-105722106D01*
X185452740Y-105665156D01*
X185444203Y-105612008D01*
X185430650Y-105564048D01*
X185412142Y-105520116D01*
X185389472Y-105481287D01*
X185362456Y-105446685D01*
X185331786Y-105416923D01*
X185297265Y-105391626D01*
X185217585Y-105355208D01*
X185123629Y-105338662D01*
X185096598Y-105337882D01*
X185045546Y-105340779D01*
X184997606Y-105349337D01*
X184953827Y-105363035D01*
X184913461Y-105381793D01*
X184877158Y-105405094D01*
X184844584Y-105432962D01*
X184791494Y-105501544D01*
X184755387Y-105587096D01*
X184738410Y-105689502D01*
X184737469Y-105722106D01*
X184571598Y-105722106D01*
X184571598Y-105717984D01*
X184574492Y-105654472D01*
X184583031Y-105594237D01*
X184596829Y-105538011D01*
X184615734Y-105485336D01*
X184639328Y-105436754D01*
X184667534Y-105392001D01*
X184700018Y-105351385D01*
X184736671Y-105314896D01*
X184821830Y-105254870D01*
X184922003Y-105213161D01*
X185036249Y-105191471D01*
X185096598Y-105188771D01*
X185159107Y-105191672D01*
G37*
G36*
X184274201Y-106245000D02*
G01*
X184108330Y-106245000D01*
X184108330Y-105728426D01*
X184105446Y-105667051D01*
X184096984Y-105610941D01*
X184083755Y-105561688D01*
X184065827Y-105517403D01*
X184044075Y-105479038D01*
X184018340Y-105445429D01*
X183989143Y-105416838D01*
X183956501Y-105392953D01*
X183880745Y-105359062D01*
X183790601Y-105344578D01*
X183772374Y-105344201D01*
X183720064Y-105347164D01*
X183672159Y-105356182D01*
X183633158Y-105369608D01*
X183598256Y-105388219D01*
X183569814Y-105410198D01*
X183545309Y-105436852D01*
X183525456Y-105467347D01*
X183509702Y-105502467D01*
X183491061Y-105588794D01*
X183488900Y-105636010D01*
X183488900Y-106245000D01*
X183322937Y-106245000D01*
X183322937Y-105623463D01*
X183325814Y-105564810D01*
X183334232Y-105510303D01*
X183347716Y-105460459D01*
X183366008Y-105414789D01*
X183388776Y-105373379D01*
X183415721Y-105336243D01*
X183481680Y-105274441D01*
X183562761Y-105230001D01*
X183657757Y-105204533D01*
X183730334Y-105199213D01*
X183790997Y-105202049D01*
X183845117Y-105210177D01*
X183892969Y-105223002D01*
X183935011Y-105239967D01*
X184004511Y-105285282D01*
X184056773Y-105344582D01*
X184083142Y-105392470D01*
X184112543Y-105392470D01*
X184112543Y-105218172D01*
X184274201Y-105218172D01*
X184274201Y-106245000D01*
G37*
G36*
X182608740Y-105191677D02*
G01*
X182662741Y-105200290D01*
X182714322Y-105214400D01*
X182763336Y-105233874D01*
X182809110Y-105258355D01*
X182851690Y-105287822D01*
X182890373Y-105321758D01*
X182925280Y-105360290D01*
X182955798Y-105402812D01*
X182981991Y-105449556D01*
X183003391Y-105499948D01*
X183019927Y-105554219D01*
X183031254Y-105611941D01*
X183037163Y-105673234D01*
X183037997Y-105707452D01*
X183037997Y-105736852D01*
X183035116Y-105799926D01*
X183026671Y-105859509D01*
X183012952Y-105915495D01*
X182994262Y-105967718D01*
X182970798Y-106016225D01*
X182942927Y-106060670D01*
X182874616Y-106137323D01*
X182791238Y-106196307D01*
X182694893Y-106235938D01*
X182588066Y-106254388D01*
X182552839Y-106255532D01*
X182491469Y-106252705D01*
X182436276Y-106244636D01*
X182386235Y-106231717D01*
X182341916Y-106214684D01*
X182266451Y-106168746D01*
X182207775Y-106108794D01*
X182179056Y-106064474D01*
X182149655Y-106064474D01*
X182149655Y-106455018D01*
X182152584Y-106479248D01*
X182161364Y-106497622D01*
X182189519Y-106515391D01*
X182212670Y-106518032D01*
X182865806Y-106518032D01*
X182865806Y-106665036D01*
X182168614Y-106665036D01*
X182129056Y-106662151D01*
X182094197Y-106653679D01*
X182065683Y-106640804D01*
X182041501Y-106623428D01*
X182006980Y-106577261D01*
X181989622Y-106514331D01*
X181987997Y-106484419D01*
X181987997Y-105713771D01*
X182149655Y-105713771D01*
X182149655Y-105730532D01*
X182152539Y-105786237D01*
X182161004Y-105838003D01*
X182174495Y-105884919D01*
X182192842Y-105927760D01*
X182215493Y-105965976D01*
X182242373Y-105999950D01*
X182307684Y-106054593D01*
X182387671Y-106091051D01*
X182481532Y-106107722D01*
X182508784Y-106108529D01*
X182560452Y-106105623D01*
X182609196Y-106097009D01*
X182653648Y-106083249D01*
X182694755Y-106064342D01*
X182731455Y-106041009D01*
X182764429Y-106013022D01*
X182793063Y-105980971D01*
X182817566Y-105944645D01*
X182837673Y-105904208D01*
X182853159Y-105859759D01*
X182869325Y-105758217D01*
X182870019Y-105730532D01*
X182870019Y-105713771D01*
X182867133Y-105658067D01*
X182858660Y-105606301D01*
X182845167Y-105559436D01*
X182826809Y-105516637D01*
X182804153Y-105478484D01*
X182777255Y-105444556D01*
X182711860Y-105389968D01*
X182631629Y-105353463D01*
X182537229Y-105336638D01*
X182508784Y-105335775D01*
X182457156Y-105338680D01*
X182408527Y-105347295D01*
X182364295Y-105361035D01*
X182323443Y-105379909D01*
X182287010Y-105403198D01*
X182254308Y-105431130D01*
X182225900Y-105463160D01*
X182201612Y-105499465D01*
X182166309Y-105584513D01*
X182150316Y-105686555D01*
X182149655Y-105713771D01*
X181987997Y-105713771D01*
X181987997Y-105218172D01*
X182145442Y-105218172D01*
X182145442Y-105388257D01*
X182174842Y-105388257D01*
X182201897Y-105345112D01*
X182236488Y-105303970D01*
X182271177Y-105272952D01*
X182312174Y-105245392D01*
X182354892Y-105224347D01*
X182403571Y-105207561D01*
X182455781Y-105196179D01*
X182514105Y-105189872D01*
X182552839Y-105188771D01*
X182608740Y-105191677D01*
G37*
G36*
X181289886Y-105191639D02*
G01*
X181347095Y-105199990D01*
X181399176Y-105213335D01*
X181446640Y-105231343D01*
X181528737Y-105280344D01*
X181594875Y-105345769D01*
X181645276Y-105427222D01*
X181672923Y-105501646D01*
X181517585Y-105552021D01*
X181503620Y-105506248D01*
X181484366Y-105464767D01*
X181462123Y-105431169D01*
X181435232Y-105401849D01*
X181405616Y-105378511D01*
X181371671Y-105359543D01*
X181334054Y-105345459D01*
X181292062Y-105336131D01*
X181229897Y-105331562D01*
X181179592Y-105334453D01*
X181134866Y-105342964D01*
X181097905Y-105355871D01*
X181065846Y-105373329D01*
X181039613Y-105394240D01*
X181017897Y-105419001D01*
X180987874Y-105479690D01*
X180975841Y-105557802D01*
X180975732Y-105566768D01*
X180975732Y-105642330D01*
X181322221Y-105642330D01*
X181385018Y-105645263D01*
X181444084Y-105654069D01*
X181495629Y-105667703D01*
X181542826Y-105686541D01*
X181582308Y-105708699D01*
X181617191Y-105735359D01*
X181645295Y-105764379D01*
X181668681Y-105797351D01*
X181686371Y-105832703D01*
X181699114Y-105871703D01*
X181708644Y-105953190D01*
X181705764Y-105998948D01*
X181697330Y-106041448D01*
X181683750Y-106080389D01*
X181665290Y-106115978D01*
X181614055Y-106177637D01*
X181543749Y-106226072D01*
X181454181Y-106259295D01*
X181346320Y-106274004D01*
X181324328Y-106274400D01*
X181265272Y-106271584D01*
X181213063Y-106263590D01*
X181166658Y-106250916D01*
X181126285Y-106234344D01*
X181058746Y-106189884D01*
X181006426Y-106131486D01*
X180982052Y-106091768D01*
X180956864Y-106091768D01*
X180956864Y-106102209D01*
X180953993Y-106134061D01*
X180945619Y-106162423D01*
X180932524Y-106186431D01*
X180914885Y-106206655D01*
X180867062Y-106234891D01*
X180803541Y-106245000D01*
X180658644Y-106245000D01*
X180658644Y-106104316D01*
X180753166Y-106104316D01*
X180775261Y-106101385D01*
X180792398Y-106092592D01*
X180809607Y-106063531D01*
X180811967Y-106041393D01*
X180811967Y-105799867D01*
X180975732Y-105799867D01*
X180978620Y-105852023D01*
X180987114Y-105900141D01*
X181000527Y-105942993D01*
X181018775Y-105981778D01*
X181041215Y-106015851D01*
X181067880Y-106045763D01*
X181133047Y-106092692D01*
X181214112Y-106121984D01*
X181305460Y-106131610D01*
X181354947Y-106128712D01*
X181399732Y-106120150D01*
X181437137Y-106107101D01*
X181469544Y-106089379D01*
X181494877Y-106068812D01*
X181515194Y-106044466D01*
X181529574Y-106017903D01*
X181538829Y-105988150D01*
X181542773Y-105948977D01*
X181539901Y-105915572D01*
X181531526Y-105885801D01*
X181500552Y-105837973D01*
X181450491Y-105802944D01*
X181378806Y-105781535D01*
X181315993Y-105776786D01*
X180975732Y-105776786D01*
X180975732Y-105799867D01*
X180811967Y-105799867D01*
X180811967Y-105577209D01*
X180814873Y-105520742D01*
X180823490Y-105468274D01*
X180837030Y-105421679D01*
X180855583Y-105379001D01*
X180878340Y-105341308D01*
X180905599Y-105307529D01*
X180972632Y-105252417D01*
X181057413Y-105213451D01*
X181161634Y-105192050D01*
X181227791Y-105188771D01*
X181289886Y-105191639D01*
G37*
G36*
X180478026Y-106245000D02*
G01*
X179633831Y-106245000D01*
X179633831Y-106100102D01*
X180305835Y-106100102D01*
X180305835Y-106077021D01*
X179650593Y-105432312D01*
X179650593Y-105218172D01*
X180457052Y-105218172D01*
X180457052Y-105363069D01*
X179824890Y-105363069D01*
X179824890Y-105386150D01*
X180478026Y-106030860D01*
X180478026Y-106245000D01*
G37*
G36*
X178966086Y-105191672D02*
G01*
X179025646Y-105200251D01*
X179081376Y-105214128D01*
X179133786Y-105233193D01*
X179182110Y-105256966D01*
X179226763Y-105285466D01*
X179267191Y-105318210D01*
X179303598Y-105355267D01*
X179335655Y-105396289D01*
X179363317Y-105441259D01*
X179386409Y-105490083D01*
X179404685Y-105542538D01*
X179418007Y-105598817D01*
X179426038Y-105658437D01*
X179428576Y-105717984D01*
X179428576Y-105745279D01*
X179425681Y-105808790D01*
X179417142Y-105869022D01*
X179403345Y-105925241D01*
X179384441Y-105977908D01*
X179360849Y-106026480D01*
X179332644Y-106071224D01*
X179300162Y-106111830D01*
X179263510Y-106148309D01*
X179178353Y-106208321D01*
X179078173Y-106250020D01*
X178963911Y-106271703D01*
X178903576Y-106274400D01*
X178841053Y-106271500D01*
X178781480Y-106262920D01*
X178725742Y-106249044D01*
X178673327Y-106229978D01*
X178625001Y-106206207D01*
X178580347Y-106177709D01*
X178539922Y-106144968D01*
X178503518Y-106107915D01*
X178471466Y-106066898D01*
X178443809Y-106021932D01*
X178420723Y-105973114D01*
X178402452Y-105920665D01*
X178389135Y-105864390D01*
X178381110Y-105804771D01*
X178378576Y-105745279D01*
X178378576Y-105722106D01*
X178544447Y-105722106D01*
X178544447Y-105741065D01*
X178547339Y-105797629D01*
X178555857Y-105850444D01*
X178569416Y-105898297D01*
X178587918Y-105942154D01*
X178610639Y-105981071D01*
X178637690Y-106015768D01*
X178668444Y-106045701D01*
X178703018Y-106071154D01*
X178782718Y-106107857D01*
X178876294Y-106124572D01*
X178903576Y-106125382D01*
X178954607Y-106122484D01*
X179002530Y-106113925D01*
X179046295Y-106100227D01*
X179086649Y-106081467D01*
X179122944Y-106058163D01*
X179155511Y-106030291D01*
X179208593Y-105961695D01*
X179244696Y-105876119D01*
X179261672Y-105773677D01*
X179262613Y-105741065D01*
X179262613Y-105722106D01*
X179259718Y-105665156D01*
X179251181Y-105612008D01*
X179237629Y-105564048D01*
X179219120Y-105520116D01*
X179196450Y-105481287D01*
X179169435Y-105446685D01*
X179138765Y-105416923D01*
X179104244Y-105391626D01*
X179024564Y-105355208D01*
X178930607Y-105338662D01*
X178903576Y-105337882D01*
X178852524Y-105340779D01*
X178804584Y-105349337D01*
X178760806Y-105363035D01*
X178720439Y-105381793D01*
X178684137Y-105405094D01*
X178651562Y-105432962D01*
X178598472Y-105501544D01*
X178562366Y-105587096D01*
X178545388Y-105689502D01*
X178544447Y-105722106D01*
X178378576Y-105722106D01*
X178378576Y-105717984D01*
X178381471Y-105654472D01*
X178390010Y-105594237D01*
X178403808Y-105538011D01*
X178422712Y-105485336D01*
X178446306Y-105436754D01*
X178474512Y-105392001D01*
X178506996Y-105351385D01*
X178543650Y-105314896D01*
X178628808Y-105254870D01*
X178728982Y-105213161D01*
X178843227Y-105191471D01*
X178903576Y-105188771D01*
X178966086Y-105191672D01*
G37*
M02*
