%TF.GenerationSoftware,KiCad,Pcbnew,9.0.2*%
%TF.CreationDate,2025-06-20T12:40:34-04:00*%
%TF.ProjectId,criss,63726973-732e-46b6-9963-61645f706362,rev?*%
%TF.SameCoordinates,Original*%
%TF.FileFunction,Copper,L2,Bot*%
%TF.FilePolarity,Positive*%
%FSLAX46Y46*%
G04 Gerber Fmt 4.6, Leading zero omitted, Abs format (unit mm)*
G04 Created by KiCad (PCBNEW 9.0.2) date 2025-06-20 12:40:34*
%MOMM*%
%LPD*%
G01*
G04 APERTURE LIST*
G04 Aperture macros list*
%AMRoundRect*
0 Rectangle with rounded corners*
0 $1 Rounding radius*
0 $2 $3 $4 $5 $6 $7 $8 $9 X,Y pos of 4 corners*
0 Add a 4 corners polygon primitive as box body*
4,1,4,$2,$3,$4,$5,$6,$7,$8,$9,$2,$3,0*
0 Add four circle primitives for the rounded corners*
1,1,$1+$1,$2,$3*
1,1,$1+$1,$4,$5*
1,1,$1+$1,$6,$7*
1,1,$1+$1,$8,$9*
0 Add four rect primitives between the rounded corners*
20,1,$1+$1,$2,$3,$4,$5,0*
20,1,$1+$1,$4,$5,$6,$7,0*
20,1,$1+$1,$6,$7,$8,$9,0*
20,1,$1+$1,$8,$9,$2,$3,0*%
G04 Aperture macros list end*
%TA.AperFunction,ComponentPad*%
%ADD10RoundRect,0.250000X0.350000X0.350000X-0.350000X0.350000X-0.350000X-0.350000X0.350000X-0.350000X0*%
%TD*%
%TA.AperFunction,ComponentPad*%
%ADD11C,1.200000*%
%TD*%
%TA.AperFunction,ComponentPad*%
%ADD12RoundRect,0.250000X-0.550000X-0.550000X0.550000X-0.550000X0.550000X0.550000X-0.550000X0.550000X0*%
%TD*%
%TA.AperFunction,ComponentPad*%
%ADD13C,1.600000*%
%TD*%
%TA.AperFunction,ComponentPad*%
%ADD14R,3.300000X6.600000*%
%TD*%
%TA.AperFunction,ComponentPad*%
%ADD15O,3.300000X6.600000*%
%TD*%
%TA.AperFunction,ComponentPad*%
%ADD16C,1.400000*%
%TD*%
%TA.AperFunction,ComponentPad*%
%ADD17R,3.000000X3.000000*%
%TD*%
%TA.AperFunction,ComponentPad*%
%ADD18C,3.000000*%
%TD*%
%TA.AperFunction,ComponentPad*%
%ADD19RoundRect,0.250001X-1.099999X-1.099999X1.099999X-1.099999X1.099999X1.099999X-1.099999X1.099999X0*%
%TD*%
%TA.AperFunction,ComponentPad*%
%ADD20C,2.700000*%
%TD*%
%TA.AperFunction,Conductor*%
%ADD21C,0.200000*%
%TD*%
%TA.AperFunction,Conductor*%
%ADD22C,0.800000*%
%TD*%
G04 APERTURE END LIST*
D10*
%TO.P,C2,1*%
%TO.N,Net-(U1-DIS)*%
X95000000Y-45000000D03*
D11*
%TO.P,C2,2*%
%TO.N,GND*%
X93000000Y-45000000D03*
%TD*%
D12*
%TO.P,U1,1,GND*%
%TO.N,GND*%
X77195000Y-29920000D03*
D13*
%TO.P,U1,2,TR*%
%TO.N,Net-(U1-TR)*%
X77195000Y-32460000D03*
%TO.P,U1,3,Q*%
%TO.N,Net-(J1-Pin_2)*%
X77195000Y-35000000D03*
%TO.P,U1,4,R*%
%TO.N,+5V*%
X77195000Y-37540000D03*
%TO.P,U1,5,CV*%
%TO.N,Net-(U1-CV)*%
X84815000Y-37540000D03*
%TO.P,U1,6,THR*%
%TO.N,Net-(U1-DIS)*%
X84815000Y-35000000D03*
%TO.P,U1,7,DIS*%
X84815000Y-32460000D03*
%TO.P,U1,8,VCC*%
%TO.N,+5V*%
X84815000Y-29920000D03*
%TD*%
D14*
%TO.P,J2,1,Pin_1*%
%TO.N,+5V*%
X30000000Y-30000000D03*
D15*
%TO.P,J2,2,Pin_2*%
%TO.N,GND*%
X40000000Y-30000000D03*
%TD*%
D16*
%TO.P,R2,1*%
%TO.N,+5V*%
X69000000Y-39810000D03*
%TO.P,R2,2*%
%TO.N,Net-(U1-TR)*%
X69000000Y-32190000D03*
%TD*%
D17*
%TO.P,RV1,1,1*%
%TO.N,unconnected-(RV1-Pad1)*%
X37000000Y-65000000D03*
D18*
%TO.P,RV1,2,2*%
%TO.N,Net-(U1-TR)*%
X42000000Y-65000000D03*
%TO.P,RV1,3,3*%
%TO.N,GND*%
X47000000Y-65000000D03*
%TD*%
D13*
%TO.P,C1,1*%
%TO.N,Net-(U1-CV)*%
X90250000Y-38000000D03*
%TO.P,C1,2*%
%TO.N,GND*%
X97750000Y-38000000D03*
%TD*%
D19*
%TO.P,J1,1,Pin_1*%
%TO.N,+5V*%
X80222500Y-64000000D03*
D20*
%TO.P,J1,2,Pin_2*%
%TO.N,Net-(J1-Pin_2)*%
X85222500Y-64000000D03*
%TO.P,J1,3,Pin_3*%
%TO.N,GND*%
X90222500Y-64000000D03*
%TD*%
D16*
%TO.P,R1,1*%
%TO.N,+5V*%
X90190000Y-30000000D03*
%TO.P,R1,2*%
%TO.N,Net-(U1-DIS)*%
X97810000Y-30000000D03*
%TD*%
D21*
%TO.N,GND*%
X40080000Y-29920000D02*
X40000000Y-30000000D01*
D22*
%TO.N,Net-(U1-CV)*%
X90250000Y-38000000D02*
X85275000Y-38000000D01*
X85275000Y-38000000D02*
X84815000Y-37540000D01*
%TO.N,Net-(U1-DIS)*%
X95905000Y-31905000D02*
X97810000Y-30000000D01*
X101000000Y-40000000D02*
X101000000Y-37000000D01*
X101000000Y-37000000D02*
X95905000Y-31905000D01*
X84815000Y-32460000D02*
X84815000Y-35000000D01*
X95350000Y-32460000D02*
X95905000Y-31905000D01*
X96000000Y-45000000D02*
X101000000Y-40000000D01*
X84815000Y-32460000D02*
X95350000Y-32460000D01*
X95000000Y-45000000D02*
X96000000Y-45000000D01*
%TO.N,+5V*%
X84000000Y-25000000D02*
X80000000Y-25000000D01*
X35000000Y-25000000D02*
X30000000Y-30000000D01*
X90190000Y-30000000D02*
X90190000Y-26190000D01*
X78460000Y-37540000D02*
X80000000Y-36000000D01*
X30000000Y-30000000D02*
X30000000Y-62202000D01*
X76222500Y-68000000D02*
X80222500Y-64000000D01*
X77195000Y-37540000D02*
X78460000Y-37540000D01*
X84815000Y-29920000D02*
X84815000Y-26185000D01*
X85000000Y-26000000D02*
X84000000Y-25000000D01*
X80000000Y-25000000D02*
X72000000Y-25000000D01*
X35798000Y-68000000D02*
X76222500Y-68000000D01*
X84815000Y-26185000D02*
X85000000Y-26000000D01*
X72000000Y-25000000D02*
X35000000Y-25000000D01*
X80000000Y-36000000D02*
X80000000Y-25000000D01*
X30000000Y-62202000D02*
X35798000Y-68000000D01*
X89000000Y-25000000D02*
X84000000Y-25000000D01*
X90190000Y-26190000D02*
X89000000Y-25000000D01*
%TO.N,Net-(J1-Pin_2)*%
X75794000Y-38794000D02*
X85222500Y-48222500D01*
X85222500Y-48222500D02*
X85222500Y-64000000D01*
X77195000Y-35000000D02*
X75794000Y-36401000D01*
X75794000Y-36401000D02*
X75794000Y-38794000D01*
%TO.N,Net-(U1-TR)*%
X70655000Y-36655000D02*
X73000000Y-36655000D01*
X73000000Y-47000000D02*
X73000000Y-36655000D01*
X69000000Y-32190000D02*
X69000000Y-35000000D01*
X73000000Y-36655000D02*
X77195000Y-32460000D01*
X48000000Y-50000000D02*
X70000000Y-50000000D01*
X70000000Y-50000000D02*
X73000000Y-47000000D01*
X42000000Y-65000000D02*
X42000000Y-56000000D01*
X42000000Y-56000000D02*
X48000000Y-50000000D01*
X69000000Y-35000000D02*
X70655000Y-36655000D01*
%TD*%
%TA.AperFunction,Conductor*%
%TO.N,GND*%
G36*
X79042539Y-25920185D02*
G01*
X79088294Y-25972989D01*
X79099500Y-26024500D01*
X79099500Y-35575637D01*
X79079815Y-35642676D01*
X79063181Y-35663318D01*
X78196018Y-36530480D01*
X78134695Y-36563965D01*
X78065003Y-36558981D01*
X78035452Y-36543117D01*
X77876614Y-36427715D01*
X77870006Y-36424348D01*
X77783917Y-36380483D01*
X77733123Y-36332511D01*
X77716328Y-36264690D01*
X77738865Y-36198555D01*
X77783917Y-36159516D01*
X77876610Y-36112287D01*
X77897770Y-36096913D01*
X78042213Y-35991971D01*
X78042215Y-35991968D01*
X78042219Y-35991966D01*
X78186966Y-35847219D01*
X78186968Y-35847215D01*
X78186971Y-35847213D01*
X78256389Y-35751666D01*
X78307287Y-35681610D01*
X78400220Y-35499219D01*
X78463477Y-35304534D01*
X78495500Y-35102352D01*
X78495500Y-34897648D01*
X78463477Y-34695466D01*
X78400220Y-34500781D01*
X78400218Y-34500778D01*
X78400218Y-34500776D01*
X78366503Y-34434607D01*
X78307287Y-34318390D01*
X78299556Y-34307749D01*
X78186971Y-34152786D01*
X78042213Y-34008028D01*
X77876614Y-33887715D01*
X77870006Y-33884348D01*
X77783917Y-33840483D01*
X77733123Y-33792511D01*
X77716328Y-33724690D01*
X77738865Y-33658555D01*
X77783917Y-33619516D01*
X77876610Y-33572287D01*
X77917845Y-33542328D01*
X78042213Y-33451971D01*
X78042215Y-33451968D01*
X78042219Y-33451966D01*
X78186966Y-33307219D01*
X78186968Y-33307215D01*
X78186971Y-33307213D01*
X78257329Y-33210372D01*
X78307287Y-33141610D01*
X78400220Y-32959219D01*
X78463477Y-32764534D01*
X78495500Y-32562352D01*
X78495500Y-32357648D01*
X78463477Y-32155466D01*
X78400220Y-31960781D01*
X78400218Y-31960778D01*
X78400218Y-31960776D01*
X78313675Y-31790928D01*
X78307287Y-31778390D01*
X78299556Y-31767749D01*
X78186971Y-31612786D01*
X78042217Y-31468032D01*
X78042212Y-31468028D01*
X77948051Y-31399616D01*
X77905385Y-31344286D01*
X77899406Y-31274673D01*
X77932012Y-31212878D01*
X77981933Y-31181592D01*
X78064117Y-31154359D01*
X78064124Y-31154356D01*
X78213345Y-31062315D01*
X78337315Y-30938345D01*
X78429356Y-30789124D01*
X78429358Y-30789119D01*
X78484505Y-30622697D01*
X78484506Y-30622690D01*
X78494999Y-30519986D01*
X78495000Y-30519973D01*
X78495000Y-30170000D01*
X77510686Y-30170000D01*
X77515080Y-30165606D01*
X77567741Y-30074394D01*
X77595000Y-29972661D01*
X77595000Y-29867339D01*
X77567741Y-29765606D01*
X77515080Y-29674394D01*
X77510686Y-29670000D01*
X78494999Y-29670000D01*
X78494999Y-29320028D01*
X78494998Y-29320013D01*
X78484505Y-29217302D01*
X78429358Y-29050880D01*
X78429356Y-29050875D01*
X78337315Y-28901654D01*
X78213345Y-28777684D01*
X78064124Y-28685643D01*
X78064119Y-28685641D01*
X77897697Y-28630494D01*
X77897690Y-28630493D01*
X77794986Y-28620000D01*
X77445000Y-28620000D01*
X77445000Y-29604314D01*
X77440606Y-29599920D01*
X77349394Y-29547259D01*
X77247661Y-29520000D01*
X77142339Y-29520000D01*
X77040606Y-29547259D01*
X76949394Y-29599920D01*
X76945000Y-29604314D01*
X76945000Y-28620000D01*
X76595028Y-28620000D01*
X76595012Y-28620001D01*
X76492302Y-28630494D01*
X76325880Y-28685641D01*
X76325875Y-28685643D01*
X76176654Y-28777684D01*
X76052684Y-28901654D01*
X75960643Y-29050875D01*
X75960641Y-29050880D01*
X75905494Y-29217302D01*
X75905493Y-29217309D01*
X75895000Y-29320013D01*
X75895000Y-29670000D01*
X76879314Y-29670000D01*
X76874920Y-29674394D01*
X76822259Y-29765606D01*
X76795000Y-29867339D01*
X76795000Y-29972661D01*
X76822259Y-30074394D01*
X76874920Y-30165606D01*
X76879314Y-30170000D01*
X75895001Y-30170000D01*
X75895001Y-30519986D01*
X75905494Y-30622697D01*
X75960641Y-30789119D01*
X75960643Y-30789124D01*
X76052684Y-30938345D01*
X76176654Y-31062315D01*
X76325875Y-31154356D01*
X76325882Y-31154359D01*
X76408067Y-31181592D01*
X76465512Y-31221364D01*
X76492336Y-31285880D01*
X76480021Y-31354656D01*
X76441949Y-31399616D01*
X76347787Y-31468028D01*
X76347782Y-31468032D01*
X76203028Y-31612786D01*
X76082715Y-31778386D01*
X75989781Y-31960776D01*
X75926522Y-32155465D01*
X75894500Y-32357648D01*
X75894500Y-32435638D01*
X75874815Y-32502677D01*
X75858181Y-32523319D01*
X72663319Y-35718181D01*
X72601996Y-35751666D01*
X72575638Y-35754500D01*
X71079361Y-35754500D01*
X71012322Y-35734815D01*
X70991680Y-35718181D01*
X69936819Y-34663319D01*
X69903334Y-34601996D01*
X69900500Y-34575638D01*
X69900500Y-33033269D01*
X69920185Y-32966230D01*
X69924160Y-32960413D01*
X70026760Y-32819199D01*
X70112547Y-32650832D01*
X70170940Y-32471118D01*
X70200500Y-32284486D01*
X70200500Y-32095513D01*
X70170940Y-31908881D01*
X70112545Y-31729163D01*
X70067290Y-31640347D01*
X70026760Y-31560801D01*
X69915690Y-31407927D01*
X69782073Y-31274310D01*
X69629199Y-31163240D01*
X69611763Y-31154356D01*
X69460836Y-31077454D01*
X69281118Y-31019059D01*
X69094486Y-30989500D01*
X69094481Y-30989500D01*
X68905519Y-30989500D01*
X68905514Y-30989500D01*
X68718881Y-31019059D01*
X68539163Y-31077454D01*
X68370800Y-31163240D01*
X68283579Y-31226610D01*
X68217927Y-31274310D01*
X68217925Y-31274312D01*
X68217924Y-31274312D01*
X68084312Y-31407924D01*
X68084312Y-31407925D01*
X68084310Y-31407927D01*
X68036610Y-31473579D01*
X67973240Y-31560800D01*
X67887454Y-31729163D01*
X67829059Y-31908881D01*
X67799500Y-32095513D01*
X67799500Y-32284486D01*
X67829059Y-32471118D01*
X67887454Y-32650836D01*
X67945387Y-32764534D01*
X67973240Y-32819199D01*
X68075819Y-32960386D01*
X68099298Y-33026189D01*
X68099500Y-33033269D01*
X68099500Y-35088696D01*
X68134103Y-35262659D01*
X68134104Y-35262665D01*
X68134105Y-35262666D01*
X68149792Y-35300536D01*
X68201987Y-35426547D01*
X68250545Y-35499219D01*
X68254601Y-35505289D01*
X68254605Y-35505297D01*
X68300532Y-35574031D01*
X68300538Y-35574039D01*
X69955536Y-37229035D01*
X70044887Y-37318386D01*
X70080966Y-37354465D01*
X70228446Y-37453009D01*
X70228459Y-37453016D01*
X70343764Y-37500776D01*
X70392334Y-37520894D01*
X70392336Y-37520894D01*
X70392341Y-37520896D01*
X70566304Y-37555499D01*
X70566307Y-37555500D01*
X70566309Y-37555500D01*
X71975500Y-37555500D01*
X72042539Y-37575185D01*
X72088294Y-37627989D01*
X72099500Y-37679500D01*
X72099500Y-46575638D01*
X72079815Y-46642677D01*
X72063181Y-46663319D01*
X69663319Y-49063181D01*
X69601996Y-49096666D01*
X69575638Y-49099500D01*
X47911306Y-49099500D01*
X47832547Y-49115166D01*
X47793167Y-49123000D01*
X47748439Y-49131897D01*
X47737333Y-49134106D01*
X47737332Y-49134106D01*
X47573459Y-49201983D01*
X47573446Y-49201990D01*
X47425966Y-49300534D01*
X47425964Y-49300537D01*
X41300538Y-55425960D01*
X41300537Y-55425961D01*
X41261064Y-55485039D01*
X41261063Y-55485040D01*
X41201985Y-55573455D01*
X41168046Y-55655393D01*
X41134106Y-55737329D01*
X41134103Y-55737341D01*
X41099500Y-55911303D01*
X41099500Y-63138334D01*
X41079815Y-63205373D01*
X41037500Y-63245721D01*
X40886196Y-63333075D01*
X40678148Y-63492718D01*
X40492718Y-63678148D01*
X40333075Y-63886196D01*
X40201958Y-64113299D01*
X40201953Y-64113309D01*
X40101605Y-64355571D01*
X40101602Y-64355581D01*
X40033730Y-64608884D01*
X40033716Y-64608990D01*
X39999500Y-64868872D01*
X39999500Y-65131127D01*
X40015519Y-65252795D01*
X40033730Y-65391116D01*
X40089700Y-65600000D01*
X40101602Y-65644418D01*
X40101605Y-65644428D01*
X40201953Y-65886690D01*
X40201958Y-65886700D01*
X40333075Y-66113803D01*
X40492718Y-66321851D01*
X40492726Y-66321860D01*
X40678140Y-66507274D01*
X40678148Y-66507281D01*
X40886196Y-66666924D01*
X41113299Y-66798041D01*
X41113309Y-66798046D01*
X41265146Y-66860939D01*
X41319549Y-66904780D01*
X41341614Y-66971074D01*
X41324335Y-67038774D01*
X41273197Y-67086384D01*
X41217693Y-67099500D01*
X38906894Y-67099500D01*
X38839855Y-67079815D01*
X38794100Y-67027011D01*
X38784156Y-66957853D01*
X38813181Y-66894297D01*
X38832582Y-66876234D01*
X38857546Y-66857546D01*
X38943796Y-66742331D01*
X38994091Y-66607483D01*
X39000500Y-66547873D01*
X39000499Y-63452128D01*
X38994091Y-63392517D01*
X38943796Y-63257669D01*
X38943795Y-63257668D01*
X38943793Y-63257664D01*
X38857547Y-63142455D01*
X38857544Y-63142452D01*
X38742335Y-63056206D01*
X38742328Y-63056202D01*
X38607482Y-63005908D01*
X38607483Y-63005908D01*
X38547883Y-62999501D01*
X38547881Y-62999500D01*
X38547873Y-62999500D01*
X38547864Y-62999500D01*
X35452129Y-62999500D01*
X35452123Y-62999501D01*
X35392516Y-63005908D01*
X35257671Y-63056202D01*
X35257664Y-63056206D01*
X35142455Y-63142452D01*
X35142452Y-63142455D01*
X35056206Y-63257664D01*
X35056202Y-63257671D01*
X35005908Y-63392517D01*
X34999501Y-63452116D01*
X34999501Y-63452123D01*
X34999500Y-63452135D01*
X34999500Y-65628638D01*
X34979815Y-65695677D01*
X34927011Y-65741432D01*
X34857853Y-65751376D01*
X34794297Y-65722351D01*
X34787819Y-65716319D01*
X30936819Y-61865319D01*
X30903334Y-61803996D01*
X30900500Y-61777638D01*
X30900500Y-39715513D01*
X67799500Y-39715513D01*
X67799500Y-39904486D01*
X67829059Y-40091118D01*
X67887454Y-40270836D01*
X67973240Y-40439199D01*
X68084310Y-40592073D01*
X68217927Y-40725690D01*
X68370801Y-40836760D01*
X68450347Y-40877290D01*
X68539163Y-40922545D01*
X68539165Y-40922545D01*
X68539168Y-40922547D01*
X68635497Y-40953846D01*
X68718881Y-40980940D01*
X68905514Y-41010500D01*
X68905519Y-41010500D01*
X69094486Y-41010500D01*
X69281118Y-40980940D01*
X69460832Y-40922547D01*
X69629199Y-40836760D01*
X69782073Y-40725690D01*
X69915690Y-40592073D01*
X70026760Y-40439199D01*
X70112547Y-40270832D01*
X70170940Y-40091118D01*
X70199419Y-39911308D01*
X70200500Y-39904486D01*
X70200500Y-39715513D01*
X70170940Y-39528881D01*
X70143846Y-39445497D01*
X70112547Y-39349168D01*
X70112545Y-39349165D01*
X70112545Y-39349163D01*
X70067290Y-39260347D01*
X70026760Y-39180801D01*
X69915690Y-39027927D01*
X69782073Y-38894310D01*
X69629199Y-38783240D01*
X69460836Y-38697454D01*
X69281118Y-38639059D01*
X69094486Y-38609500D01*
X69094481Y-38609500D01*
X68905519Y-38609500D01*
X68905514Y-38609500D01*
X68718881Y-38639059D01*
X68539163Y-38697454D01*
X68370800Y-38783240D01*
X68336065Y-38808477D01*
X68217927Y-38894310D01*
X68217925Y-38894312D01*
X68217924Y-38894312D01*
X68084312Y-39027924D01*
X68084312Y-39027925D01*
X68084310Y-39027927D01*
X68063436Y-39056658D01*
X67973240Y-39180800D01*
X67887454Y-39349163D01*
X67829059Y-39528881D01*
X67799500Y-39715513D01*
X30900500Y-39715513D01*
X30900500Y-33924499D01*
X30920185Y-33857460D01*
X30972989Y-33811705D01*
X31024500Y-33800499D01*
X31697871Y-33800499D01*
X31697872Y-33800499D01*
X31757483Y-33794091D01*
X31892331Y-33743796D01*
X32007546Y-33657546D01*
X32093796Y-33542331D01*
X32144091Y-33407483D01*
X32150500Y-33347873D01*
X32150499Y-29174360D01*
X32170184Y-29107322D01*
X32186813Y-29086685D01*
X33064411Y-28209088D01*
X37850000Y-28209088D01*
X37850000Y-29750000D01*
X38925885Y-29750000D01*
X38900000Y-29913428D01*
X38900000Y-30086572D01*
X38925885Y-30250000D01*
X37850000Y-30250000D01*
X37850000Y-31790911D01*
X37850001Y-31790928D01*
X37886786Y-32070340D01*
X37959733Y-32342582D01*
X38067584Y-32602957D01*
X38067589Y-32602968D01*
X38208500Y-32847031D01*
X38208511Y-32847047D01*
X38380074Y-33070633D01*
X38380080Y-33070640D01*
X38579359Y-33269919D01*
X38579366Y-33269925D01*
X38802952Y-33441488D01*
X38802968Y-33441499D01*
X39047031Y-33582410D01*
X39047042Y-33582415D01*
X39307417Y-33690266D01*
X39579659Y-33763213D01*
X39750000Y-33785639D01*
X39750000Y-31074115D01*
X39913428Y-31100000D01*
X40086572Y-31100000D01*
X40250000Y-31074115D01*
X40250000Y-33785638D01*
X40420340Y-33763213D01*
X40692582Y-33690266D01*
X40952957Y-33582415D01*
X40952968Y-33582410D01*
X41197031Y-33441499D01*
X41197047Y-33441488D01*
X41420633Y-33269925D01*
X41420640Y-33269919D01*
X41619919Y-33070640D01*
X41619925Y-33070633D01*
X41791488Y-32847047D01*
X41791499Y-32847031D01*
X41932410Y-32602968D01*
X41932415Y-32602957D01*
X42040266Y-32342582D01*
X42113213Y-32070340D01*
X42149998Y-31790928D01*
X42150000Y-31790911D01*
X42150000Y-30250000D01*
X41074115Y-30250000D01*
X41100000Y-30086572D01*
X41100000Y-29913428D01*
X41074115Y-29750000D01*
X42150000Y-29750000D01*
X42150000Y-28209088D01*
X42149998Y-28209071D01*
X42113213Y-27929659D01*
X42040266Y-27657417D01*
X41932415Y-27397042D01*
X41932410Y-27397031D01*
X41791499Y-27152968D01*
X41791488Y-27152952D01*
X41619925Y-26929366D01*
X41619919Y-26929359D01*
X41420640Y-26730080D01*
X41420633Y-26730074D01*
X41197047Y-26558511D01*
X41197031Y-26558500D01*
X40952968Y-26417589D01*
X40952957Y-26417584D01*
X40692582Y-26309733D01*
X40420340Y-26236786D01*
X40250000Y-26214359D01*
X40250000Y-28925884D01*
X40086572Y-28900000D01*
X39913428Y-28900000D01*
X39750000Y-28925884D01*
X39750000Y-26214359D01*
X39749999Y-26214359D01*
X39579659Y-26236786D01*
X39307417Y-26309733D01*
X39047042Y-26417584D01*
X39047031Y-26417589D01*
X38802968Y-26558500D01*
X38802952Y-26558511D01*
X38579366Y-26730074D01*
X38579359Y-26730080D01*
X38380080Y-26929359D01*
X38380074Y-26929366D01*
X38208511Y-27152952D01*
X38208500Y-27152968D01*
X38067589Y-27397031D01*
X38067584Y-27397042D01*
X37959733Y-27657417D01*
X37886786Y-27929659D01*
X37850001Y-28209071D01*
X37850000Y-28209088D01*
X33064411Y-28209088D01*
X35336681Y-25936819D01*
X35398004Y-25903334D01*
X35424362Y-25900500D01*
X71911309Y-25900500D01*
X78975500Y-25900500D01*
X79042539Y-25920185D01*
G37*
%TD.AperFunction*%
%TA.AperFunction,Conductor*%
G36*
X100002702Y-20500617D02*
G01*
X100386771Y-20517386D01*
X100397506Y-20518326D01*
X100775971Y-20568152D01*
X100786597Y-20570025D01*
X101159284Y-20652648D01*
X101169710Y-20655442D01*
X101533765Y-20770227D01*
X101543911Y-20773920D01*
X101896578Y-20920000D01*
X101906369Y-20924566D01*
X102244942Y-21100816D01*
X102254310Y-21106224D01*
X102576244Y-21311318D01*
X102585105Y-21317523D01*
X102887930Y-21549889D01*
X102896217Y-21556843D01*
X103177635Y-21814715D01*
X103185284Y-21822364D01*
X103443156Y-22103782D01*
X103450110Y-22112069D01*
X103682476Y-22414894D01*
X103688681Y-22423755D01*
X103893775Y-22745689D01*
X103899183Y-22755057D01*
X104075430Y-23093623D01*
X104080002Y-23103427D01*
X104226075Y-23456078D01*
X104229775Y-23466244D01*
X104344554Y-23830278D01*
X104347354Y-23840727D01*
X104429971Y-24213389D01*
X104431849Y-24224042D01*
X104481671Y-24602473D01*
X104482614Y-24613249D01*
X104499382Y-24997297D01*
X104499500Y-25002706D01*
X104499500Y-64997293D01*
X104499382Y-65002702D01*
X104482614Y-65386750D01*
X104481671Y-65397526D01*
X104431849Y-65775957D01*
X104429971Y-65786610D01*
X104347354Y-66159272D01*
X104344554Y-66169721D01*
X104229775Y-66533755D01*
X104226075Y-66543921D01*
X104080002Y-66896572D01*
X104075430Y-66906376D01*
X103899183Y-67244942D01*
X103893775Y-67254310D01*
X103688681Y-67576244D01*
X103682476Y-67585105D01*
X103450110Y-67887930D01*
X103443156Y-67896217D01*
X103185284Y-68177635D01*
X103177635Y-68185284D01*
X102896217Y-68443156D01*
X102887930Y-68450110D01*
X102585105Y-68682476D01*
X102576244Y-68688681D01*
X102254310Y-68893775D01*
X102244942Y-68899183D01*
X101906376Y-69075430D01*
X101896572Y-69080002D01*
X101543921Y-69226075D01*
X101533755Y-69229775D01*
X101169721Y-69344554D01*
X101159272Y-69347354D01*
X100786610Y-69429971D01*
X100775957Y-69431849D01*
X100397526Y-69481671D01*
X100386750Y-69482614D01*
X100002703Y-69499382D01*
X99997294Y-69499500D01*
X25002706Y-69499500D01*
X24997297Y-69499382D01*
X24613249Y-69482614D01*
X24602473Y-69481671D01*
X24224042Y-69431849D01*
X24213389Y-69429971D01*
X23840727Y-69347354D01*
X23830278Y-69344554D01*
X23466244Y-69229775D01*
X23456078Y-69226075D01*
X23103427Y-69080002D01*
X23093623Y-69075430D01*
X22755057Y-68899183D01*
X22745689Y-68893775D01*
X22423755Y-68688681D01*
X22414894Y-68682476D01*
X22112069Y-68450110D01*
X22103782Y-68443156D01*
X21822364Y-68185284D01*
X21814715Y-68177635D01*
X21556843Y-67896217D01*
X21549889Y-67887930D01*
X21317523Y-67585105D01*
X21311318Y-67576244D01*
X21106224Y-67254310D01*
X21100816Y-67244942D01*
X20924566Y-66906369D01*
X20919997Y-66896572D01*
X20911573Y-66876234D01*
X20773920Y-66543911D01*
X20770224Y-66533755D01*
X20655442Y-66169710D01*
X20652648Y-66159284D01*
X20570025Y-65786597D01*
X20568152Y-65775971D01*
X20518326Y-65397506D01*
X20517386Y-65386771D01*
X20500618Y-65002702D01*
X20500500Y-64997293D01*
X20500500Y-26652135D01*
X27849500Y-26652135D01*
X27849500Y-33347870D01*
X27849501Y-33347876D01*
X27855908Y-33407483D01*
X27906202Y-33542328D01*
X27906206Y-33542335D01*
X27992452Y-33657544D01*
X27992455Y-33657547D01*
X28107664Y-33743793D01*
X28107671Y-33743797D01*
X28242517Y-33794091D01*
X28242516Y-33794091D01*
X28248925Y-33794780D01*
X28302127Y-33800500D01*
X28975500Y-33800499D01*
X29042539Y-33820183D01*
X29088294Y-33872987D01*
X29099500Y-33924499D01*
X29099500Y-62290696D01*
X29134103Y-62464658D01*
X29134105Y-62464666D01*
X29165526Y-62540524D01*
X29165529Y-62540529D01*
X29168046Y-62546606D01*
X29201987Y-62628547D01*
X29261063Y-62716959D01*
X29264169Y-62721607D01*
X29264172Y-62721613D01*
X29300534Y-62776034D01*
X29300535Y-62776035D01*
X29300536Y-62776036D01*
X35098536Y-68574035D01*
X35206977Y-68682476D01*
X35223966Y-68699465D01*
X35371447Y-68798009D01*
X35371453Y-68798013D01*
X35453393Y-68831953D01*
X35535334Y-68865895D01*
X35702687Y-68899183D01*
X35709303Y-68900499D01*
X35709307Y-68900500D01*
X35709308Y-68900500D01*
X76311193Y-68900500D01*
X76311194Y-68900499D01*
X76485166Y-68865895D01*
X76567106Y-68831953D01*
X76649047Y-68798013D01*
X76737459Y-68738936D01*
X76796536Y-68699464D01*
X79609180Y-65886818D01*
X79670503Y-65853334D01*
X79696861Y-65850500D01*
X81372503Y-65850500D01*
X81372508Y-65850500D01*
X81475297Y-65839999D01*
X81641834Y-65784814D01*
X81791155Y-65692711D01*
X81915211Y-65568655D01*
X82007314Y-65419334D01*
X82062499Y-65252797D01*
X82073000Y-65150008D01*
X82073000Y-62849992D01*
X82062499Y-62747203D01*
X82007314Y-62580666D01*
X81986305Y-62546606D01*
X81915213Y-62431348D01*
X81915210Y-62431344D01*
X81791155Y-62307289D01*
X81791151Y-62307286D01*
X81641837Y-62215187D01*
X81641835Y-62215186D01*
X81540638Y-62181653D01*
X81475297Y-62160001D01*
X81475295Y-62160000D01*
X81372515Y-62149500D01*
X81372508Y-62149500D01*
X79072492Y-62149500D01*
X79072484Y-62149500D01*
X78969704Y-62160000D01*
X78969703Y-62160001D01*
X78803164Y-62215186D01*
X78803162Y-62215187D01*
X78653848Y-62307286D01*
X78653844Y-62307289D01*
X78529789Y-62431344D01*
X78529786Y-62431348D01*
X78437687Y-62580662D01*
X78437686Y-62580664D01*
X78382501Y-62747203D01*
X78382500Y-62747204D01*
X78372000Y-62849984D01*
X78372000Y-64525638D01*
X78352315Y-64592677D01*
X78335681Y-64613319D01*
X75885819Y-67063181D01*
X75824496Y-67096666D01*
X75798138Y-67099500D01*
X47780999Y-67099500D01*
X47713960Y-67079815D01*
X47668205Y-67027011D01*
X47658261Y-66957853D01*
X47687286Y-66894297D01*
X47733547Y-66860939D01*
X47886466Y-66797598D01*
X47886482Y-66797590D01*
X48113516Y-66666511D01*
X48113534Y-66666499D01*
X48226365Y-66579919D01*
X48226365Y-66579917D01*
X47211059Y-65564612D01*
X47231591Y-65559111D01*
X47368408Y-65480119D01*
X47480119Y-65368408D01*
X47559111Y-65231591D01*
X47564612Y-65211060D01*
X48579917Y-66226365D01*
X48579919Y-66226365D01*
X48666499Y-66113534D01*
X48666511Y-66113516D01*
X48797590Y-65886482D01*
X48797595Y-65886471D01*
X48897924Y-65644255D01*
X48965777Y-65391020D01*
X48965779Y-65391009D01*
X48999999Y-65131094D01*
X49000000Y-65131080D01*
X49000000Y-64868919D01*
X48999999Y-64868905D01*
X48965779Y-64608990D01*
X48965777Y-64608979D01*
X48897924Y-64355744D01*
X48797595Y-64113528D01*
X48797590Y-64113517D01*
X48666511Y-63886483D01*
X48666505Y-63886475D01*
X48579918Y-63773633D01*
X48579917Y-63773633D01*
X47564612Y-64788939D01*
X47559111Y-64768409D01*
X47480119Y-64631592D01*
X47368408Y-64519881D01*
X47231591Y-64440889D01*
X47211057Y-64435387D01*
X48226365Y-63420080D01*
X48113524Y-63333494D01*
X48113516Y-63333488D01*
X47886482Y-63202409D01*
X47886471Y-63202404D01*
X47644255Y-63102075D01*
X47391020Y-63034222D01*
X47391009Y-63034220D01*
X47131094Y-63000000D01*
X46868905Y-63000000D01*
X46608990Y-63034220D01*
X46608979Y-63034222D01*
X46355744Y-63102075D01*
X46113528Y-63202404D01*
X46113517Y-63202409D01*
X45886471Y-63333496D01*
X45773633Y-63420079D01*
X45773633Y-63420080D01*
X46788940Y-64435387D01*
X46768409Y-64440889D01*
X46631592Y-64519881D01*
X46519881Y-64631592D01*
X46440889Y-64768409D01*
X46435387Y-64788940D01*
X45420080Y-63773633D01*
X45420079Y-63773633D01*
X45333496Y-63886471D01*
X45202409Y-64113517D01*
X45202404Y-64113528D01*
X45102075Y-64355744D01*
X45034222Y-64608979D01*
X45034220Y-64608990D01*
X45000000Y-64868905D01*
X45000000Y-65131094D01*
X45034220Y-65391009D01*
X45034222Y-65391020D01*
X45102075Y-65644255D01*
X45202404Y-65886471D01*
X45202409Y-65886482D01*
X45333488Y-66113516D01*
X45333494Y-66113524D01*
X45420080Y-66226365D01*
X46435387Y-65211058D01*
X46440889Y-65231591D01*
X46519881Y-65368408D01*
X46631592Y-65480119D01*
X46768409Y-65559111D01*
X46788940Y-65564612D01*
X45773633Y-66579917D01*
X45773633Y-66579918D01*
X45886475Y-66666505D01*
X45886483Y-66666511D01*
X46113517Y-66797590D01*
X46113533Y-66797598D01*
X46266453Y-66860939D01*
X46320857Y-66904780D01*
X46342922Y-66971074D01*
X46325643Y-67038773D01*
X46274506Y-67086384D01*
X46219001Y-67099500D01*
X42782307Y-67099500D01*
X42715268Y-67079815D01*
X42669513Y-67027011D01*
X42659569Y-66957853D01*
X42688594Y-66894297D01*
X42734854Y-66860939D01*
X42886690Y-66798046D01*
X42886691Y-66798045D01*
X42886697Y-66798043D01*
X43113803Y-66666924D01*
X43321851Y-66507282D01*
X43321855Y-66507277D01*
X43321860Y-66507274D01*
X43507274Y-66321860D01*
X43507277Y-66321855D01*
X43507282Y-66321851D01*
X43666924Y-66113803D01*
X43798043Y-65886697D01*
X43898398Y-65644419D01*
X43966270Y-65391116D01*
X44000500Y-65131120D01*
X44000500Y-64868880D01*
X43966270Y-64608884D01*
X43898398Y-64355581D01*
X43801334Y-64121248D01*
X43798046Y-64113309D01*
X43798041Y-64113299D01*
X43666924Y-63886196D01*
X43507281Y-63678148D01*
X43507274Y-63678140D01*
X43321860Y-63492726D01*
X43321851Y-63492718D01*
X43113803Y-63333075D01*
X42962500Y-63245721D01*
X42914284Y-63195154D01*
X42900500Y-63138334D01*
X42900500Y-56424361D01*
X42920185Y-56357322D01*
X42936819Y-56336680D01*
X48336680Y-50936819D01*
X48398003Y-50903334D01*
X48424361Y-50900500D01*
X70088693Y-50900500D01*
X70088694Y-50900499D01*
X70262666Y-50865895D01*
X70344606Y-50831953D01*
X70426547Y-50798013D01*
X70514959Y-50738936D01*
X70574036Y-50699464D01*
X73699464Y-47574035D01*
X73798013Y-47426547D01*
X73826983Y-47356606D01*
X73865895Y-47262666D01*
X73900500Y-47088691D01*
X73900500Y-46911308D01*
X73900500Y-37079361D01*
X73920185Y-37012322D01*
X73936814Y-36991684D01*
X74681819Y-36246679D01*
X74743142Y-36213195D01*
X74812834Y-36218179D01*
X74868767Y-36260051D01*
X74893184Y-36325515D01*
X74893500Y-36334361D01*
X74893500Y-38882696D01*
X74928103Y-39056658D01*
X74928105Y-39056666D01*
X74958328Y-39129631D01*
X74958332Y-39129639D01*
X74960182Y-39134105D01*
X74995987Y-39220547D01*
X75028013Y-39268477D01*
X75032091Y-39274580D01*
X75032094Y-39274586D01*
X75094532Y-39368031D01*
X75094538Y-39368039D01*
X84285681Y-48559180D01*
X84319166Y-48620503D01*
X84322000Y-48646861D01*
X84322000Y-62311538D01*
X84302315Y-62378577D01*
X84260001Y-62418924D01*
X84192223Y-62458056D01*
X84192202Y-62458070D01*
X83999763Y-62605733D01*
X83999756Y-62605739D01*
X83828239Y-62777256D01*
X83828233Y-62777263D01*
X83680567Y-62969706D01*
X83680564Y-62969710D01*
X83680564Y-62969711D01*
X83664317Y-62997851D01*
X83559277Y-63179785D01*
X83559273Y-63179794D01*
X83466447Y-63403895D01*
X83403661Y-63638214D01*
X83372000Y-63878711D01*
X83372000Y-64121288D01*
X83403661Y-64361785D01*
X83466447Y-64596104D01*
X83558084Y-64817335D01*
X83559276Y-64820212D01*
X83680564Y-65030289D01*
X83680566Y-65030292D01*
X83680567Y-65030293D01*
X83828233Y-65222736D01*
X83828239Y-65222743D01*
X83999756Y-65394260D01*
X83999763Y-65394266D01*
X84102288Y-65472936D01*
X84192211Y-65541936D01*
X84402288Y-65663224D01*
X84626400Y-65756054D01*
X84860711Y-65818838D01*
X85021440Y-65839998D01*
X85101211Y-65850500D01*
X85101212Y-65850500D01*
X85343789Y-65850500D01*
X85423552Y-65839999D01*
X85584289Y-65818838D01*
X85818600Y-65756054D01*
X86042712Y-65663224D01*
X86252789Y-65541936D01*
X86445238Y-65394265D01*
X86471095Y-65368408D01*
X86502201Y-65337303D01*
X86616760Y-65222743D01*
X86616765Y-65222738D01*
X86764436Y-65030289D01*
X86885724Y-64820212D01*
X86978554Y-64596100D01*
X87041338Y-64361789D01*
X87073000Y-64121288D01*
X87073000Y-63878751D01*
X88372500Y-63878751D01*
X88372500Y-64121248D01*
X88372501Y-64121264D01*
X88404153Y-64361687D01*
X88466921Y-64595939D01*
X88559720Y-64819978D01*
X88559727Y-64819992D01*
X88680981Y-65030010D01*
X88749561Y-65119384D01*
X89468384Y-64400560D01*
X89469240Y-64402626D01*
X89562262Y-64541844D01*
X89680656Y-64660238D01*
X89819874Y-64753260D01*
X89821937Y-64754114D01*
X89103114Y-65472936D01*
X89103114Y-65472937D01*
X89192489Y-65541517D01*
X89192496Y-65541522D01*
X89402507Y-65662772D01*
X89402521Y-65662779D01*
X89626560Y-65755578D01*
X89860812Y-65818346D01*
X90101235Y-65849998D01*
X90101252Y-65850000D01*
X90343748Y-65850000D01*
X90343764Y-65849998D01*
X90584187Y-65818346D01*
X90818439Y-65755578D01*
X91042478Y-65662779D01*
X91042492Y-65662772D01*
X91252516Y-65541515D01*
X91341884Y-65472939D01*
X91341884Y-65472936D01*
X90623062Y-64754114D01*
X90625126Y-64753260D01*
X90764344Y-64660238D01*
X90882738Y-64541844D01*
X90975760Y-64402626D01*
X90976614Y-64400562D01*
X91695436Y-65119384D01*
X91695439Y-65119384D01*
X91764015Y-65030016D01*
X91885272Y-64819992D01*
X91885279Y-64819978D01*
X91978078Y-64595939D01*
X92040846Y-64361687D01*
X92072498Y-64121264D01*
X92072500Y-64121248D01*
X92072500Y-63878751D01*
X92072498Y-63878735D01*
X92040846Y-63638312D01*
X91978078Y-63404060D01*
X91885279Y-63180021D01*
X91885272Y-63180007D01*
X91764022Y-62969996D01*
X91764017Y-62969989D01*
X91695437Y-62880614D01*
X91695436Y-62880614D01*
X90976614Y-63599436D01*
X90975760Y-63597374D01*
X90882738Y-63458156D01*
X90764344Y-63339762D01*
X90625126Y-63246740D01*
X90623060Y-63245884D01*
X91341884Y-62527061D01*
X91252510Y-62458481D01*
X91042492Y-62337227D01*
X91042478Y-62337220D01*
X90818439Y-62244421D01*
X90584187Y-62181653D01*
X90343764Y-62150001D01*
X90343748Y-62150000D01*
X90101252Y-62150000D01*
X90101235Y-62150001D01*
X89860812Y-62181653D01*
X89626560Y-62244421D01*
X89402521Y-62337220D01*
X89402506Y-62337227D01*
X89192490Y-62458480D01*
X89103114Y-62527060D01*
X89103114Y-62527061D01*
X89821938Y-63245885D01*
X89819874Y-63246740D01*
X89680656Y-63339762D01*
X89562262Y-63458156D01*
X89469240Y-63597374D01*
X89468385Y-63599438D01*
X88749561Y-62880614D01*
X88749560Y-62880614D01*
X88680980Y-62969990D01*
X88559727Y-63180006D01*
X88559720Y-63180021D01*
X88466921Y-63404060D01*
X88404153Y-63638312D01*
X88372501Y-63878735D01*
X88372500Y-63878751D01*
X87073000Y-63878751D01*
X87073000Y-63878712D01*
X87041338Y-63638211D01*
X86978554Y-63403900D01*
X86885724Y-63179788D01*
X86764436Y-62969711D01*
X86672572Y-62849991D01*
X86616766Y-62777263D01*
X86616760Y-62777256D01*
X86445243Y-62605739D01*
X86445236Y-62605733D01*
X86252797Y-62458070D01*
X86252795Y-62458069D01*
X86252789Y-62458064D01*
X86252781Y-62458059D01*
X86252776Y-62458056D01*
X86184999Y-62418924D01*
X86136784Y-62368357D01*
X86123000Y-62311538D01*
X86123000Y-48133808D01*
X86122999Y-48133804D01*
X86088396Y-47959841D01*
X86088395Y-47959834D01*
X86022839Y-47801571D01*
X86021195Y-47796974D01*
X85921965Y-47648466D01*
X85921964Y-47648465D01*
X85796535Y-47523036D01*
X84209788Y-45936289D01*
X92417261Y-45936289D01*
X92417262Y-45936290D01*
X92423471Y-45940801D01*
X92577742Y-46019408D01*
X92742415Y-46072914D01*
X92913429Y-46100000D01*
X93086571Y-46100000D01*
X93257584Y-46072914D01*
X93422257Y-46019408D01*
X93576525Y-45940803D01*
X93582736Y-45936289D01*
X93582737Y-45936289D01*
X93000001Y-45353553D01*
X93000000Y-45353553D01*
X92417261Y-45936289D01*
X84209788Y-45936289D01*
X83186927Y-44913428D01*
X91900000Y-44913428D01*
X91900000Y-45086571D01*
X91927085Y-45257584D01*
X91980592Y-45422259D01*
X92059196Y-45576525D01*
X92063709Y-45582736D01*
X92063709Y-45582737D01*
X92646446Y-45000001D01*
X92646446Y-44999999D01*
X92606951Y-44960504D01*
X92700000Y-44960504D01*
X92700000Y-45039496D01*
X92720444Y-45115796D01*
X92759940Y-45184205D01*
X92815795Y-45240060D01*
X92884204Y-45279556D01*
X92960504Y-45300000D01*
X93039496Y-45300000D01*
X93115796Y-45279556D01*
X93184205Y-45240060D01*
X93240060Y-45184205D01*
X93279556Y-45115796D01*
X93300000Y-45039496D01*
X93300000Y-44960504D01*
X93279556Y-44884204D01*
X93240060Y-44815795D01*
X93184205Y-44759940D01*
X93115796Y-44720444D01*
X93039496Y-44700000D01*
X92960504Y-44700000D01*
X92884204Y-44720444D01*
X92815795Y-44759940D01*
X92759940Y-44815795D01*
X92720444Y-44884204D01*
X92700000Y-44960504D01*
X92606951Y-44960504D01*
X92063709Y-44417261D01*
X92063708Y-44417261D01*
X92059203Y-44423463D01*
X92059193Y-44423480D01*
X91980592Y-44577740D01*
X91927085Y-44742415D01*
X91900000Y-44913428D01*
X83186927Y-44913428D01*
X82337207Y-44063708D01*
X92417261Y-44063708D01*
X92417261Y-44063709D01*
X93000000Y-44646446D01*
X93000001Y-44646446D01*
X93582737Y-44063709D01*
X93576525Y-44059196D01*
X93422259Y-43980592D01*
X93257584Y-43927085D01*
X93086571Y-43900000D01*
X92913429Y-43900000D01*
X92742415Y-43927085D01*
X92577740Y-43980592D01*
X92423480Y-44059193D01*
X92423463Y-44059203D01*
X92417261Y-44063708D01*
X82337207Y-44063708D01*
X77311152Y-39037652D01*
X77277667Y-38976329D01*
X77282651Y-38906637D01*
X77324523Y-38850704D01*
X77379432Y-38827499D01*
X77499534Y-38808477D01*
X77694219Y-38745220D01*
X77876610Y-38652287D01*
X77969590Y-38584732D01*
X78042213Y-38531971D01*
X78042215Y-38531968D01*
X78042219Y-38531966D01*
X78097366Y-38476819D01*
X78158689Y-38443334D01*
X78185047Y-38440500D01*
X78548693Y-38440500D01*
X78548694Y-38440499D01*
X78722666Y-38405895D01*
X78804606Y-38371953D01*
X78886547Y-38338013D01*
X78999311Y-38262666D01*
X79034036Y-38239464D01*
X80699464Y-36574036D01*
X80798013Y-36426547D01*
X80865895Y-36262666D01*
X80900500Y-36088692D01*
X80900500Y-35911308D01*
X80900500Y-26024500D01*
X80920185Y-25957461D01*
X80972989Y-25911706D01*
X81024500Y-25900500D01*
X83575638Y-25900500D01*
X83642677Y-25920185D01*
X83663319Y-25936819D01*
X83878181Y-26151680D01*
X83911666Y-26213003D01*
X83914500Y-26239361D01*
X83914500Y-28929953D01*
X83894815Y-28996992D01*
X83878181Y-29017634D01*
X83823032Y-29072782D01*
X83823028Y-29072786D01*
X83702715Y-29238386D01*
X83609781Y-29420776D01*
X83546522Y-29615465D01*
X83514500Y-29817648D01*
X83514500Y-30022351D01*
X83546522Y-30224534D01*
X83609781Y-30419223D01*
X83702715Y-30601613D01*
X83823028Y-30767213D01*
X83967786Y-30911971D01*
X84074498Y-30989500D01*
X84133390Y-31032287D01*
X84213125Y-31072914D01*
X84226080Y-31079515D01*
X84276876Y-31127490D01*
X84293671Y-31195311D01*
X84271134Y-31261446D01*
X84226080Y-31300485D01*
X84133386Y-31347715D01*
X83967786Y-31468028D01*
X83823028Y-31612786D01*
X83702715Y-31778386D01*
X83609781Y-31960776D01*
X83546522Y-32155465D01*
X83514500Y-32357648D01*
X83514500Y-32562351D01*
X83546522Y-32764534D01*
X83609781Y-32959223D01*
X83702715Y-33141613D01*
X83823028Y-33307213D01*
X83878181Y-33362366D01*
X83911666Y-33423689D01*
X83914500Y-33450047D01*
X83914500Y-34009953D01*
X83894815Y-34076992D01*
X83878181Y-34097634D01*
X83823032Y-34152782D01*
X83823028Y-34152786D01*
X83702715Y-34318386D01*
X83609781Y-34500776D01*
X83546522Y-34695465D01*
X83514500Y-34897648D01*
X83514500Y-35102351D01*
X83546522Y-35304534D01*
X83609781Y-35499223D01*
X83702715Y-35681613D01*
X83823028Y-35847213D01*
X83967786Y-35991971D01*
X84122749Y-36104556D01*
X84133390Y-36112287D01*
X84224840Y-36158883D01*
X84226080Y-36159515D01*
X84276876Y-36207490D01*
X84293671Y-36275311D01*
X84271134Y-36341446D01*
X84226080Y-36380485D01*
X84133386Y-36427715D01*
X83967786Y-36548028D01*
X83823028Y-36692786D01*
X83702715Y-36858386D01*
X83609781Y-37040776D01*
X83546522Y-37235465D01*
X83527675Y-37354464D01*
X83514500Y-37437648D01*
X83514500Y-37642352D01*
X83518878Y-37669995D01*
X83546522Y-37844534D01*
X83609781Y-38039223D01*
X83702715Y-38221613D01*
X83823028Y-38387213D01*
X83967786Y-38531971D01*
X84074498Y-38609500D01*
X84133390Y-38652287D01*
X84249607Y-38711503D01*
X84315776Y-38745218D01*
X84315778Y-38745218D01*
X84315781Y-38745220D01*
X84420137Y-38779127D01*
X84510465Y-38808477D01*
X84611557Y-38824488D01*
X84712648Y-38840500D01*
X84712649Y-38840500D01*
X84922225Y-38840500D01*
X84922225Y-38841601D01*
X84973153Y-38849665D01*
X85012334Y-38865895D01*
X85096780Y-38882692D01*
X85186303Y-38900499D01*
X85186307Y-38900500D01*
X85186308Y-38900500D01*
X85186309Y-38900500D01*
X89259953Y-38900500D01*
X89326992Y-38920185D01*
X89347634Y-38936819D01*
X89402786Y-38991971D01*
X89523226Y-39079474D01*
X89568390Y-39112287D01*
X89684607Y-39171503D01*
X89750776Y-39205218D01*
X89750778Y-39205218D01*
X89750781Y-39205220D01*
X89797953Y-39220547D01*
X89945465Y-39268477D01*
X90046557Y-39284488D01*
X90147648Y-39300500D01*
X90147649Y-39300500D01*
X90352351Y-39300500D01*
X90352352Y-39300500D01*
X90554534Y-39268477D01*
X90749219Y-39205220D01*
X90931610Y-39112287D01*
X91047723Y-39027927D01*
X91097213Y-38991971D01*
X91097215Y-38991968D01*
X91097219Y-38991966D01*
X91241966Y-38847219D01*
X91241968Y-38847215D01*
X91241971Y-38847213D01*
X91316073Y-38745218D01*
X91362287Y-38681610D01*
X91455220Y-38499219D01*
X91518477Y-38304534D01*
X91550500Y-38102352D01*
X91550500Y-37897682D01*
X96450000Y-37897682D01*
X96450000Y-38102317D01*
X96482009Y-38304417D01*
X96545244Y-38499031D01*
X96638141Y-38681350D01*
X96638147Y-38681359D01*
X96670523Y-38725921D01*
X96670524Y-38725922D01*
X97350000Y-38046446D01*
X97350000Y-38052661D01*
X97377259Y-38154394D01*
X97429920Y-38245606D01*
X97504394Y-38320080D01*
X97595606Y-38372741D01*
X97697339Y-38400000D01*
X97703553Y-38400000D01*
X97024076Y-39079474D01*
X97068650Y-39111859D01*
X97250968Y-39204755D01*
X97445582Y-39267990D01*
X97647683Y-39300000D01*
X97852317Y-39300000D01*
X98054417Y-39267990D01*
X98249031Y-39204755D01*
X98431349Y-39111859D01*
X98475921Y-39079474D01*
X97796447Y-38400000D01*
X97802661Y-38400000D01*
X97904394Y-38372741D01*
X97995606Y-38320080D01*
X98070080Y-38245606D01*
X98122741Y-38154394D01*
X98150000Y-38052661D01*
X98150000Y-38046447D01*
X98829474Y-38725921D01*
X98861859Y-38681349D01*
X98954755Y-38499031D01*
X99017990Y-38304417D01*
X99050000Y-38102317D01*
X99050000Y-37897682D01*
X99017990Y-37695582D01*
X98954755Y-37500968D01*
X98861859Y-37318650D01*
X98829474Y-37274077D01*
X98829474Y-37274076D01*
X98150000Y-37953551D01*
X98150000Y-37947339D01*
X98122741Y-37845606D01*
X98070080Y-37754394D01*
X97995606Y-37679920D01*
X97904394Y-37627259D01*
X97802661Y-37600000D01*
X97796446Y-37600000D01*
X98475922Y-36920524D01*
X98475921Y-36920523D01*
X98431359Y-36888147D01*
X98431350Y-36888141D01*
X98249031Y-36795244D01*
X98054417Y-36732009D01*
X97852317Y-36700000D01*
X97647683Y-36700000D01*
X97445582Y-36732009D01*
X97250968Y-36795244D01*
X97068644Y-36888143D01*
X97024077Y-36920523D01*
X97024077Y-36920524D01*
X97703554Y-37600000D01*
X97697339Y-37600000D01*
X97595606Y-37627259D01*
X97504394Y-37679920D01*
X97429920Y-37754394D01*
X97377259Y-37845606D01*
X97350000Y-37947339D01*
X97350000Y-37953553D01*
X96670524Y-37274077D01*
X96670523Y-37274077D01*
X96638143Y-37318644D01*
X96545244Y-37500968D01*
X96482009Y-37695582D01*
X96450000Y-37897682D01*
X91550500Y-37897682D01*
X91550500Y-37897648D01*
X91542087Y-37844534D01*
X91518477Y-37695465D01*
X91472999Y-37555499D01*
X91455220Y-37500781D01*
X91455218Y-37500778D01*
X91455218Y-37500776D01*
X91421503Y-37434607D01*
X91362287Y-37318390D01*
X91330092Y-37274077D01*
X91241971Y-37152786D01*
X91097213Y-37008028D01*
X90931613Y-36887715D01*
X90931612Y-36887714D01*
X90931610Y-36887713D01*
X90874053Y-36858386D01*
X90749223Y-36794781D01*
X90554534Y-36731522D01*
X90379995Y-36703878D01*
X90352352Y-36699500D01*
X90147648Y-36699500D01*
X90123329Y-36703351D01*
X89945465Y-36731522D01*
X89750776Y-36794781D01*
X89568386Y-36887715D01*
X89402786Y-37008028D01*
X89402782Y-37008032D01*
X89347634Y-37063181D01*
X89286311Y-37096666D01*
X89259953Y-37099500D01*
X86126127Y-37099500D01*
X86059088Y-37079815D01*
X86015642Y-37031795D01*
X85954251Y-36911310D01*
X85927287Y-36858390D01*
X85919556Y-36847749D01*
X85806971Y-36692786D01*
X85662213Y-36548028D01*
X85496614Y-36427715D01*
X85490006Y-36424348D01*
X85403917Y-36380483D01*
X85353123Y-36332511D01*
X85336328Y-36264690D01*
X85358865Y-36198555D01*
X85403917Y-36159516D01*
X85496610Y-36112287D01*
X85517770Y-36096913D01*
X85662213Y-35991971D01*
X85662215Y-35991968D01*
X85662219Y-35991966D01*
X85806966Y-35847219D01*
X85806968Y-35847215D01*
X85806971Y-35847213D01*
X85876389Y-35751666D01*
X85927287Y-35681610D01*
X86020220Y-35499219D01*
X86083477Y-35304534D01*
X86115500Y-35102352D01*
X86115500Y-34897648D01*
X86083477Y-34695466D01*
X86020220Y-34500781D01*
X86020218Y-34500778D01*
X86020218Y-34500776D01*
X85986503Y-34434607D01*
X85927287Y-34318390D01*
X85919556Y-34307749D01*
X85806971Y-34152786D01*
X85751819Y-34097634D01*
X85718334Y-34036311D01*
X85715500Y-34009953D01*
X85715500Y-33484500D01*
X85735185Y-33417461D01*
X85787989Y-33371706D01*
X85839500Y-33360500D01*
X95438693Y-33360500D01*
X95438694Y-33360499D01*
X95612666Y-33325895D01*
X95694606Y-33291953D01*
X95776547Y-33258013D01*
X95822943Y-33227011D01*
X95829761Y-33223581D01*
X95856922Y-33218623D01*
X95883274Y-33210372D01*
X95890808Y-33212438D01*
X95898495Y-33211036D01*
X95924024Y-33221550D01*
X95950655Y-33228855D01*
X95960308Y-33236493D01*
X95963100Y-33237643D01*
X95964747Y-33240006D01*
X95973171Y-33246671D01*
X100063181Y-37336681D01*
X100096666Y-37398004D01*
X100099500Y-37424362D01*
X100099500Y-39575637D01*
X100079815Y-39642676D01*
X100063181Y-39663318D01*
X95792502Y-43933996D01*
X95731179Y-43967481D01*
X95665818Y-43964021D01*
X95502797Y-43910001D01*
X95502795Y-43910000D01*
X95400010Y-43899500D01*
X94599998Y-43899500D01*
X94599980Y-43899501D01*
X94497203Y-43910000D01*
X94497200Y-43910001D01*
X94330668Y-43965185D01*
X94330663Y-43965187D01*
X94181342Y-44057289D01*
X94057289Y-44181342D01*
X93965186Y-44330666D01*
X93945834Y-44389066D01*
X93915809Y-44437742D01*
X93353553Y-44999999D01*
X93353553Y-45000000D01*
X93915807Y-45562254D01*
X93945831Y-45610929D01*
X93965184Y-45669331D01*
X93965186Y-45669334D01*
X94057288Y-45818656D01*
X94181344Y-45942712D01*
X94330666Y-46034814D01*
X94497203Y-46089999D01*
X94599991Y-46100500D01*
X95400008Y-46100499D01*
X95400016Y-46100498D01*
X95400019Y-46100498D01*
X95456302Y-46094748D01*
X95502797Y-46089999D01*
X95669334Y-46034814D01*
X95818656Y-45942712D01*
X95824549Y-45936819D01*
X95885872Y-45903334D01*
X95912230Y-45900500D01*
X96088693Y-45900500D01*
X96088694Y-45900499D01*
X96262666Y-45865895D01*
X96344606Y-45831953D01*
X96426547Y-45798013D01*
X96514959Y-45738936D01*
X96574036Y-45699464D01*
X101699464Y-40574036D01*
X101789559Y-40439199D01*
X101798013Y-40426547D01*
X101862512Y-40270832D01*
X101865895Y-40262666D01*
X101900500Y-40088692D01*
X101900500Y-39911308D01*
X101900500Y-36911309D01*
X101898350Y-36900500D01*
X101865895Y-36737334D01*
X101825370Y-36639500D01*
X101798013Y-36573453D01*
X101738936Y-36485040D01*
X101732188Y-36474941D01*
X101699466Y-36425966D01*
X97266181Y-31992681D01*
X97232696Y-31931358D01*
X97237680Y-31861666D01*
X97266181Y-31817319D01*
X97543685Y-31539815D01*
X97850469Y-31233030D01*
X97911790Y-31199547D01*
X97918751Y-31198240D01*
X98023863Y-31181592D01*
X98091118Y-31170940D01*
X98270832Y-31112547D01*
X98439199Y-31026760D01*
X98592073Y-30915690D01*
X98725690Y-30782073D01*
X98836760Y-30629199D01*
X98922547Y-30460832D01*
X98980940Y-30281118D01*
X98989902Y-30224534D01*
X99010500Y-30094486D01*
X99010500Y-29905513D01*
X98980940Y-29718881D01*
X98947338Y-29615466D01*
X98922547Y-29539168D01*
X98922545Y-29539165D01*
X98922545Y-29539163D01*
X98877290Y-29450347D01*
X98836760Y-29370801D01*
X98725690Y-29217927D01*
X98592073Y-29084310D01*
X98439199Y-28973240D01*
X98405974Y-28956311D01*
X98270836Y-28887454D01*
X98091118Y-28829059D01*
X97904486Y-28799500D01*
X97904481Y-28799500D01*
X97715519Y-28799500D01*
X97715514Y-28799500D01*
X97528881Y-28829059D01*
X97349163Y-28887454D01*
X97180800Y-28973240D01*
X97148109Y-28996992D01*
X97027927Y-29084310D01*
X97027925Y-29084312D01*
X97027924Y-29084312D01*
X96894312Y-29217924D01*
X96894312Y-29217925D01*
X96894310Y-29217927D01*
X96879446Y-29238386D01*
X96783240Y-29370800D01*
X96697454Y-29539163D01*
X96639059Y-29718881D01*
X96611759Y-29891249D01*
X96581830Y-29954384D01*
X96576967Y-29959532D01*
X95330964Y-31205536D01*
X95013319Y-31523181D01*
X94951996Y-31556666D01*
X94925638Y-31559500D01*
X85805047Y-31559500D01*
X85738008Y-31539815D01*
X85717366Y-31523181D01*
X85662213Y-31468028D01*
X85496614Y-31347715D01*
X85463738Y-31330964D01*
X85403917Y-31300483D01*
X85353123Y-31252511D01*
X85336328Y-31184690D01*
X85358865Y-31118555D01*
X85403917Y-31079516D01*
X85496610Y-31032287D01*
X85622527Y-30940804D01*
X85662213Y-30911971D01*
X85662215Y-30911968D01*
X85662219Y-30911966D01*
X85806966Y-30767219D01*
X85806968Y-30767215D01*
X85806971Y-30767213D01*
X85859732Y-30694590D01*
X85927287Y-30601610D01*
X86020220Y-30419219D01*
X86083477Y-30224534D01*
X86115500Y-30022352D01*
X86115500Y-29817648D01*
X86099857Y-29718881D01*
X86083477Y-29615465D01*
X86020218Y-29420776D01*
X85986503Y-29354607D01*
X85927287Y-29238390D01*
X85912420Y-29217927D01*
X85806971Y-29072786D01*
X85751819Y-29017634D01*
X85718334Y-28956311D01*
X85715500Y-28929953D01*
X85715500Y-26587651D01*
X85735185Y-26520612D01*
X85736398Y-26518760D01*
X85758902Y-26485080D01*
X85798013Y-26426547D01*
X85865895Y-26262666D01*
X85900500Y-26088692D01*
X85900500Y-26024500D01*
X85920185Y-25957461D01*
X85972989Y-25911706D01*
X86024500Y-25900500D01*
X88575638Y-25900500D01*
X88642677Y-25920185D01*
X88663319Y-25936819D01*
X89253181Y-26526681D01*
X89286666Y-26588004D01*
X89289500Y-26614362D01*
X89289500Y-29156730D01*
X89269815Y-29223769D01*
X89265827Y-29229602D01*
X89259446Y-29238386D01*
X89163240Y-29370800D01*
X89077454Y-29539163D01*
X89019059Y-29718881D01*
X88989500Y-29905513D01*
X88989500Y-30094486D01*
X89019059Y-30281118D01*
X89077454Y-30460836D01*
X89159927Y-30622697D01*
X89163240Y-30629199D01*
X89274310Y-30782073D01*
X89407927Y-30915690D01*
X89560801Y-31026760D01*
X89630582Y-31062315D01*
X89729163Y-31112545D01*
X89729165Y-31112545D01*
X89729168Y-31112547D01*
X89775158Y-31127490D01*
X89908881Y-31170940D01*
X90095514Y-31200500D01*
X90095519Y-31200500D01*
X90284486Y-31200500D01*
X90471118Y-31170940D01*
X90506326Y-31159500D01*
X90650832Y-31112547D01*
X90819199Y-31026760D01*
X90972073Y-30915690D01*
X91105690Y-30782073D01*
X91216760Y-30629199D01*
X91302547Y-30460832D01*
X91360940Y-30281118D01*
X91369902Y-30224534D01*
X91390500Y-30094486D01*
X91390500Y-29905513D01*
X91360940Y-29718881D01*
X91327338Y-29615466D01*
X91302547Y-29539168D01*
X91302545Y-29539165D01*
X91302545Y-29539163D01*
X91257290Y-29450347D01*
X91216760Y-29370801D01*
X91114181Y-29229614D01*
X91090702Y-29163810D01*
X91090500Y-29156730D01*
X91090500Y-26101307D01*
X91090499Y-26101303D01*
X91064976Y-25972989D01*
X91055895Y-25927334D01*
X91039577Y-25887940D01*
X91024477Y-25851485D01*
X91024474Y-25851480D01*
X91021953Y-25845393D01*
X90988013Y-25763453D01*
X90928936Y-25675040D01*
X90912423Y-25650326D01*
X90889466Y-25615966D01*
X89574035Y-24300535D01*
X89574030Y-24300531D01*
X89519622Y-24264178D01*
X89519616Y-24264175D01*
X89514959Y-24261063D01*
X89426547Y-24201987D01*
X89344606Y-24168046D01*
X89262666Y-24134105D01*
X89262658Y-24134103D01*
X89088696Y-24099500D01*
X89088692Y-24099500D01*
X89088691Y-24099500D01*
X84088692Y-24099500D01*
X84088691Y-24099500D01*
X80088691Y-24099500D01*
X72088691Y-24099500D01*
X35088692Y-24099500D01*
X34911308Y-24099500D01*
X34911303Y-24099500D01*
X34737339Y-24134103D01*
X34737323Y-24134108D01*
X34621453Y-24182102D01*
X34621454Y-24182103D01*
X34573453Y-24201987D01*
X34499708Y-24251262D01*
X34425963Y-24300535D01*
X32269919Y-26456579D01*
X32208596Y-26490064D01*
X32138904Y-26485080D01*
X32082972Y-26443209D01*
X32007547Y-26342455D01*
X32007544Y-26342452D01*
X31892335Y-26256206D01*
X31892328Y-26256202D01*
X31757482Y-26205908D01*
X31757483Y-26205908D01*
X31697883Y-26199501D01*
X31697881Y-26199500D01*
X31697873Y-26199500D01*
X31697864Y-26199500D01*
X28302129Y-26199500D01*
X28302123Y-26199501D01*
X28242516Y-26205908D01*
X28107671Y-26256202D01*
X28107664Y-26256206D01*
X27992455Y-26342452D01*
X27992452Y-26342455D01*
X27906206Y-26457664D01*
X27906202Y-26457671D01*
X27855908Y-26592517D01*
X27849501Y-26652116D01*
X27849500Y-26652135D01*
X20500500Y-26652135D01*
X20500500Y-25002706D01*
X20500618Y-24997297D01*
X20503377Y-24934108D01*
X20517386Y-24613226D01*
X20518326Y-24602495D01*
X20568152Y-24224025D01*
X20570025Y-24213405D01*
X20652649Y-23840709D01*
X20655440Y-23830295D01*
X20770230Y-23466227D01*
X20773917Y-23456095D01*
X20920003Y-23103412D01*
X20924561Y-23093638D01*
X21100822Y-22755045D01*
X21106217Y-22745700D01*
X21311325Y-22423744D01*
X21317515Y-22414905D01*
X21549896Y-22112060D01*
X21556834Y-22103791D01*
X21814726Y-21822352D01*
X21822352Y-21814726D01*
X22103791Y-21556834D01*
X22112060Y-21549896D01*
X22414905Y-21317515D01*
X22423744Y-21311325D01*
X22745700Y-21106217D01*
X22755045Y-21100822D01*
X23093638Y-20924561D01*
X23103412Y-20920003D01*
X23456095Y-20773917D01*
X23466227Y-20770230D01*
X23830295Y-20655440D01*
X23840709Y-20652649D01*
X24213405Y-20570025D01*
X24224025Y-20568152D01*
X24602495Y-20518326D01*
X24613226Y-20517386D01*
X24997297Y-20500617D01*
X25002706Y-20500500D01*
X25065892Y-20500500D01*
X99934108Y-20500500D01*
X99997294Y-20500500D01*
X100002702Y-20500617D01*
G37*
%TD.AperFunction*%
%TD*%
M02*
