<?xml version="1.0" encoding="UTF-8"?>
<svg id="Capa_1" xmlns="http://www.w3.org/2000/svg" version="1.1" viewBox="0 0 1080 1080">
  <!-- Generator: Adobe Illustrator 29.5.0, SVG Export Plug-In . SVG Version: 2.1.0 Build 137)  -->
  <g>
    <path d="M186.21,309.96c0-7.55,1.53-14.27,4.6-20.16,3.06-5.89,7.31-10.49,12.73-13.8,5.42-3.3,11.58-4.95,18.46-4.95s13.37,1.65,18.89,4.95c5.52,3.31,9.81,7.9,12.87,13.8,3.06,5.9,4.6,12.62,4.6,20.16v3.25h-61.26c0,4.9,1.32,9.31,3.96,13.23,2.64,3.91,6.27,6.98,10.9,9.2,4.62,2.22,9.81,3.32,15.56,3.32,5,0,9.9-.8,14.71-2.4,4.81-1.61,9.15-3.87,13.02-6.79h.14v10.19c-3.77,2.92-7.99,5.14-12.66,6.65-4.67,1.51-9.74,2.26-15.21,2.26-8.3,0-15.56-1.61-21.79-4.81-6.23-3.2-11.04-7.73-14.43-13.58-3.39-5.84-5.09-12.68-5.09-20.51ZM194.41,303.31h61.69l-8.63,5.52c.09-5.38-.9-10.16-2.97-14.36-2.08-4.2-5.05-7.5-8.91-9.9-3.87-2.4-8.4-3.61-13.58-3.61-4.91,0-9.24,1.15-13.02,3.47-3.77,2.31-6.7,5.59-8.77,9.83-2.08,4.25-3.11,9.15-3.11,14.72l-2.69-5.66Z"/>
    <path d="M319.77,285.77c-2.55-1.23-6.11-2.34-10.68-3.33-4.58-.99-8.51-1.48-11.82-1.48h-1.84c-.56,0-1.13.05-1.7.14-3.96.38-6.89,1.3-8.77,2.76-1.89,1.47-2.83,3.23-2.83,5.31,0,1.32.38,2.64,1.13,3.96.75,1.32,2.41,2.97,4.95,4.95,2.07,1.61,4.62,3.25,7.64,4.95l2.83,1.42c4.72,2.45,8.54,4.67,11.46,6.65,2.92,1.98,5.47,4.53,7.64,7.64,2.17,3.11,3.26,6.84,3.26,11.18,0,5.94-2.31,10.59-6.93,13.93-4.62,3.35-10.52,5.02-17.68,5.02-4.43,0-9.32-.66-14.64-1.98-5.33-1.32-9.36-2.88-12.1-4.67v-10.19l.14-.14c2.64,1.89,6.65,3.54,12.03,4.95,5.38,1.41,10.23,2.12,14.57,2.12,3.96,0,7.29-.78,9.98-2.33,2.69-1.56,4.03-3.8,4.03-6.72,0-3.21-1.27-5.9-3.82-8.06-2.55-2.17-6.04-4.39-10.47-6.65l-2.12-1.13c-7.83-4.15-13.54-8.09-17.12-11.81-3.59-3.73-5.38-8.09-5.38-13.09,0-5.56,2.38-9.97,7.14-13.23,4.76-3.25,10.96-4.88,18.6-4.88,3.58,0,7.66.47,12.24,1.41,4.57.95,8.04,2.03,10.4,3.25v9.9l-.14.14Z"/>
    <path d="M335.19,309.96c0-7.26,1.74-13.87,5.24-19.81,3.49-5.94,8.28-10.61,14.36-14.01,6.08-3.4,12.8-5.09,20.16-5.09,5.85,0,11.01.71,15.49,2.12,4.48,1.41,8.7,3.68,12.66,6.79v10.19h-.14c-4.06-3.11-8.4-5.42-13.02-6.93-4.62-1.51-9.62-2.26-15-2.26s-10.28,1.3-14.72,3.89c-4.43,2.59-7.95,6.11-10.54,10.54-2.59,4.44-3.89,9.29-3.89,14.58s1.27,10.28,3.82,14.71c2.55,4.44,6.06,7.93,10.54,10.47,4.48,2.55,9.41,3.82,14.78,3.82s10.52-.75,15.14-2.26c4.62-1.51,8.91-3.82,12.88-6.93h.14v10.19c-3.96,3.11-8.18,5.38-12.66,6.79-4.48,1.41-9.64,2.12-15.49,2.12-7.36,0-14.08-1.7-20.16-5.09-6.08-3.4-10.87-8.06-14.36-14.01-3.49-5.94-5.24-12.54-5.24-19.8Z"/>
    <path d="M472.57,319.15c0,5.76-1.16,10.9-3.47,15.42-2.31,4.53-5.54,8.04-9.69,10.54-4.15,2.5-8.91,3.75-14.29,3.75-8.02,0-14.43-2.57-19.24-7.71s-7.22-12-7.22-20.58v-46.69h10.61v46.69c0,5.75,1.7,10.26,5.1,13.51,3.39,3.25,8.06,4.88,14.01,4.88,4.34,0,8.18-.99,11.53-2.97,3.35-1.98,5.94-4.64,7.78-7.99,1.84-3.35,2.76-6.91,2.76-10.68v-4.52h2.12v6.36ZM473.28,346.04l-2.12-14.57h-.71v-57.59h10.61v72.16h-7.78Z"/>
    <path d="M496.62,309.96c0-7.55,1.53-14.27,4.6-20.16,3.06-5.89,7.31-10.49,12.73-13.8,5.42-3.3,11.58-4.95,18.46-4.95s13.37,1.65,18.89,4.95c5.52,3.31,9.81,7.9,12.87,13.8,3.06,5.9,4.6,12.62,4.6,20.16v3.25h-61.26c0,4.9,1.32,9.31,3.96,13.23,2.64,3.91,6.27,6.98,10.9,9.2,4.62,2.22,9.81,3.32,15.56,3.32,5,0,9.9-.8,14.71-2.4,4.81-1.61,9.15-3.87,13.02-6.79h.14v10.19c-3.77,2.92-7.99,5.14-12.66,6.65-4.67,1.51-9.74,2.26-15.21,2.26-8.3,0-15.56-1.61-21.79-4.81-6.23-3.2-11.04-7.73-14.43-13.58-3.39-5.84-5.09-12.68-5.09-20.51ZM504.83,303.31h61.69l-8.63,5.52c.09-5.38-.9-10.16-2.97-14.36-2.08-4.2-5.05-7.5-8.91-9.9-3.87-2.4-8.4-3.61-13.58-3.61-4.91,0-9.24,1.15-13.02,3.47-3.77,2.31-6.7,5.59-8.77,9.83-2.08,4.25-3.11,9.15-3.11,14.72l-2.69-5.66Z"/>
    <path d="M596.37,244.17v101.87h-10.61v-101.87h10.61Z"/>
    <path d="M666.12,311.51l-22.92,3.82c-6.41,1.13-11.11,2.69-14.08,4.67-2.97,1.98-4.46,4.58-4.46,7.78s1.27,5.75,3.82,7.64c2.55,1.89,5.89,2.83,10.05,2.83,4.62,0,9.05-1.11,13.3-3.32,4.24-2.22,7.69-5.14,10.33-8.77,2.64-3.63,3.96-7.43,3.96-11.39v16.7c-2.64,5.19-6.42,9.27-11.32,12.24-4.91,2.97-10.33,4.46-16.27,4.46-4.62,0-8.8-.87-12.52-2.62-3.73-1.74-6.65-4.17-8.77-7.29-2.12-3.11-3.18-6.6-3.18-10.47,0-5.94,2.34-10.8,7-14.57,4.67-3.77,11.72-6.37,21.15-7.78l23.91-3.68v9.76ZM619.15,277.13c3.68-1.98,7.66-3.49,11.95-4.52,4.29-1.04,8.8-1.56,13.51-1.56,10.09,0,17.97,2.71,23.63,8.13,5.66,5.43,8.49,12.81,8.49,22.14v44.71h-7.78l-2.12-14.57h-.71v-30.14c0-6.6-1.96-11.65-5.87-15.14-3.92-3.49-9.6-5.23-17.05-5.23-3.77,0-7.62.49-11.53,1.48-3.92.99-8.09,2.52-12.52,4.6v-9.9Z"/>
    <path d="M221.58,557.65c-6.89,0-13.02-1.65-18.39-4.95-5.38-3.3-9.55-7.9-12.52-13.8-2.97-5.9-4.46-12.62-4.46-20.16s1.49-14.27,4.46-20.16c2.97-5.89,7.14-10.49,12.52-13.8,5.38-3.3,11.5-4.95,18.39-4.95,6.23,0,11.88,1.65,16.98,4.95,5.1,3.31,9.08,7.9,11.96,13.8,2.88,5.9,4.31,12.62,4.31,20.16s-1.44,14.26-4.31,20.16c-2.88,5.9-6.86,10.49-11.96,13.8-5.09,3.3-10.75,4.95-16.98,4.95ZM222.99,547.75c4.81,0,9.22-1.27,13.23-3.82,4.01-2.55,7.17-6.03,9.48-10.47,2.31-4.43,3.47-9.34,3.47-14.71s-1.16-10.28-3.47-14.72c-2.31-4.43-5.47-7.93-9.48-10.47-4.01-2.55-8.42-3.82-13.23-3.82s-9.34,1.27-13.3,3.82c-3.96,2.55-7.1,6.04-9.41,10.47-2.31,4.43-3.47,9.34-3.47,14.72s1.15,10.28,3.47,14.71c2.31,4.44,5.45,7.93,9.41,10.47,3.96,2.55,8.39,3.82,13.3,3.82ZM261.19,554.82h-7.78l-2.12-16.27h-.71v-85.6h10.61v101.87Z"/>
    <path d="M279.59,518.75c0-7.55,1.53-14.27,4.6-20.16,3.06-5.89,7.31-10.49,12.73-13.8,5.42-3.3,11.58-4.95,18.46-4.95s13.37,1.65,18.89,4.95c5.52,3.31,9.81,7.9,12.87,13.8,3.06,5.9,4.6,12.62,4.6,20.16v3.25h-61.26c0,4.9,1.32,9.31,3.96,13.23,2.64,3.91,6.27,6.98,10.9,9.2,4.62,2.22,9.81,3.32,15.56,3.32,5,0,9.9-.8,14.71-2.4,4.81-1.61,9.15-3.87,13.02-6.79h.14v10.19c-3.77,2.92-7.99,5.14-12.66,6.65-4.67,1.51-9.74,2.26-15.21,2.26-8.3,0-15.56-1.61-21.79-4.81-6.23-3.2-11.04-7.73-14.43-13.58-3.39-5.84-5.09-12.68-5.09-20.51ZM287.79,512.1h61.69l-8.63,5.52c.09-5.38-.9-10.16-2.97-14.36-2.08-4.2-5.05-7.5-8.91-9.9-3.87-2.4-8.4-3.61-13.58-3.61-4.91,0-9.24,1.15-13.02,3.47-3.77,2.31-6.7,5.59-8.77,9.83-2.08,4.25-3.11,9.15-3.11,14.72l-2.69-5.66Z"/>
    <path d="M445.12,557.65c-6.89,0-13.02-1.65-18.39-4.95-5.38-3.3-9.55-7.9-12.52-13.8-2.97-5.9-4.46-12.62-4.46-20.16s1.49-14.27,4.46-20.16c2.97-5.89,7.14-10.49,12.52-13.8,5.38-3.3,11.5-4.95,18.39-4.95,6.23,0,11.88,1.65,16.98,4.95,5.1,3.31,9.08,7.9,11.96,13.8,2.88,5.9,4.31,12.62,4.31,20.16s-1.44,14.26-4.31,20.16c-2.88,5.9-6.86,10.49-11.96,13.8-5.09,3.3-10.75,4.95-16.98,4.95ZM446.53,547.75c4.81,0,9.22-1.27,13.23-3.82,4.01-2.55,7.17-6.03,9.48-10.47,2.31-4.43,3.47-9.34,3.47-14.71s-1.16-10.28-3.47-14.72c-2.31-4.43-5.47-7.93-9.48-10.47-4.01-2.55-8.42-3.82-13.23-3.82s-9.34,1.27-13.3,3.82c-3.96,2.55-7.1,6.04-9.41,10.47-2.31,4.43-3.47,9.34-3.47,14.72s1.15,10.28,3.47,14.71c2.31,4.44,5.45,7.93,9.41,10.47,3.96,2.55,8.39,3.82,13.3,3.82ZM484.74,554.82h-7.78l-2.12-16.27h-.71v-85.6h10.61v101.87Z"/>
    <path d="M558.73,544.92v9.9h-58.43v-9.9h58.43ZM505.39,482.67h18.82c3.4,0,6.01.92,7.85,2.76,1.84,1.84,2.76,4.46,2.76,7.85v61.55h-10.61v-62.25h-18.82v-9.9ZM527.61,471.91c-3.02,0-5.59-1.04-7.71-3.11-2.12-2.07-3.18-4.62-3.18-7.64,0-1.98.49-3.82,1.49-5.52.99-1.7,2.31-3.04,3.96-4.03,1.65-.99,3.47-1.48,5.45-1.48s3.68.49,5.38,1.48c1.7.99,3.04,2.33,4.03,4.03.99,1.7,1.49,3.54,1.49,5.52s-.49,3.77-1.49,5.38c-.99,1.61-2.33,2.9-4.03,3.89-1.7.99-3.49,1.48-5.38,1.48Z"/>
    <path d="M621.55,494.55c-2.55-1.23-6.11-2.34-10.68-3.33-4.58-.99-8.51-1.48-11.82-1.48h-1.84c-.56,0-1.13.05-1.7.14-3.96.38-6.89,1.3-8.77,2.76-1.89,1.47-2.83,3.23-2.83,5.31,0,1.32.38,2.64,1.13,3.96.75,1.32,2.41,2.97,4.95,4.95,2.07,1.61,4.62,3.25,7.64,4.95l2.83,1.42c4.72,2.45,8.54,4.67,11.46,6.65,2.92,1.98,5.47,4.53,7.64,7.64,2.17,3.11,3.26,6.84,3.26,11.18,0,5.94-2.31,10.59-6.93,13.93-4.62,3.35-10.52,5.02-17.68,5.02-4.43,0-9.32-.66-14.64-1.98-5.33-1.32-9.36-2.88-12.1-4.67v-10.19l.14-.14c2.64,1.89,6.65,3.54,12.03,4.95,5.38,1.41,10.23,2.12,14.57,2.12,3.96,0,7.29-.78,9.98-2.33,2.69-1.56,4.03-3.8,4.03-6.72,0-3.21-1.27-5.9-3.82-8.06-2.55-2.17-6.04-4.39-10.47-6.65l-2.12-1.13c-7.83-4.15-13.54-8.09-17.12-11.81-3.59-3.73-5.38-8.09-5.38-13.09,0-5.56,2.38-9.97,7.14-13.23,4.76-3.25,10.96-4.88,18.6-4.88,3.58,0,7.66.47,12.24,1.41,4.57.95,8.04,2.03,10.4,3.25v9.9l-.14.14Z"/>
    <path d="M636.97,518.75c0-7.55,1.53-14.27,4.6-20.16,3.06-5.89,7.31-10.49,12.73-13.8,5.42-3.3,11.58-4.95,18.46-4.95s13.37,1.65,18.89,4.95c5.52,3.31,9.81,7.9,12.87,13.8,3.06,5.9,4.6,12.62,4.6,20.16v3.25h-61.26c0,4.9,1.32,9.31,3.96,13.23,2.64,3.91,6.27,6.98,10.9,9.2,4.62,2.22,9.81,3.32,15.56,3.32,5,0,9.9-.8,14.71-2.4,4.81-1.61,9.15-3.87,13.02-6.79h.14v10.19c-3.77,2.92-7.99,5.14-12.66,6.65-4.67,1.51-9.74,2.26-15.21,2.26-8.3,0-15.56-1.61-21.79-4.81-6.23-3.2-11.04-7.73-14.43-13.58-3.39-5.84-5.09-12.68-5.09-20.51ZM645.18,512.1h61.69l-8.63,5.52c.09-5.38-.9-10.16-2.97-14.36-2.08-4.2-5.05-7.5-8.91-9.9-3.87-2.4-8.4-3.61-13.58-3.61-4.91,0-9.24,1.15-13.02,3.47-3.77,2.31-6.7,5.59-8.77,9.83-2.08,4.25-3.11,9.15-3.11,14.72l-2.69-5.66Z"/>
    <path d="M733.89,482.67l2.12,14.57h.71v57.59h-10.61v-72.16h7.78ZM731.48,467.81c0-4.72,1.6-8.72,4.81-12.03,3.21-3.3,6.98-4.95,11.32-4.95,2.45,0,4.5.24,6.16.71,1.65.47,3.7,1.23,6.15,2.26,1.98.94,3.7,1.63,5.16,2.05,1.46.43,3.13.64,5.02.64,2.64,0,4.86-.75,6.65-2.26,1.79-1.51,2.83-3.16,3.11-4.95h4.95c0,5-1.58,9.08-4.74,12.24-3.16,3.16-6.96,4.74-11.39,4.74-2.26,0-4.22-.23-5.87-.71-1.65-.47-3.61-1.23-5.87-2.26-1.89-.85-3.59-1.51-5.09-1.98-1.51-.47-3.21-.71-5.09-.71-2.36,0-4.51.66-6.44,1.98-1.93,1.32-3.23,3.07-3.89,5.24h-4.95ZM734.59,509.55c0-5.75,1.15-10.9,3.47-15.42,2.31-4.53,5.54-8.04,9.69-10.54,4.15-2.5,8.91-3.75,14.29-3.75,8.02,0,14.43,2.57,19.24,7.71,4.81,5.15,7.22,12,7.22,20.58v46.69h-10.61v-46.69c0-5.75-1.7-10.26-5.09-13.51-3.4-3.25-8.06-4.88-14.01-4.88-4.34,0-8.18.99-11.53,2.97-3.35,1.98-5.94,4.65-7.78,7.99-1.84,3.35-2.76,6.91-2.76,10.68v4.52h-2.12v-6.36Z"/>
    <path d="M840.85,557.65c-6.79,0-12.88-1.65-18.25-4.95-5.38-3.3-9.57-7.93-12.59-13.86-3.02-5.94-4.53-12.64-4.53-20.09s1.51-14.15,4.53-20.09c3.02-5.94,7.21-10.56,12.59-13.86,5.38-3.3,11.46-4.95,18.25-4.95s12.88,1.65,18.25,4.95c5.38,3.31,9.57,7.93,12.59,13.86,3.02,5.94,4.53,12.64,4.53,20.09s-1.51,14.15-4.53,20.09c-3.02,5.94-7.22,10.56-12.59,13.86-5.38,3.3-11.46,4.95-18.25,4.95ZM840.85,547.75c4.72,0,8.96-1.25,12.73-3.75,3.77-2.5,6.72-5.94,8.84-10.33,2.12-4.39,3.18-9.36,3.18-14.92s-1.06-10.54-3.18-14.93c-2.12-4.39-5.07-7.83-8.84-10.33-3.77-2.5-8.02-3.75-12.73-3.75s-8.96,1.25-12.73,3.75c-3.77,2.5-6.72,5.94-8.84,10.33-2.12,4.39-3.18,9.36-3.18,14.93s1.06,10.54,3.18,14.92c2.12,4.39,5.07,7.83,8.84,10.33,3.77,2.5,8.01,3.75,12.73,3.75Z"/>
    <path d="M182.67,691.46h25.18v-.71c-5.94-.85-10.82-2.88-14.64-6.08-3.82-3.21-5.73-6.84-5.73-10.9,0-4.81,2.36-8.72,7.08-11.74,4.72-3.02,11.18-4.52,19.38-4.52,2.92,0,6.13.23,9.62.71,3.49.47,6.84,1.08,10.05,1.84v9.76c-7.73-1.6-14.29-2.4-19.67-2.4-4.44,0-8.18.61-11.25,1.84-3.06,1.23-4.6,3.3-4.6,6.23,0,2.17,1.18,4.46,3.54,6.86,2.36,2.41,5.33,4.46,8.91,6.16,3.58,1.7,7.08,2.69,10.47,2.97h7.78v9.9h-46.12v-9.9ZM207.43,691.46v72.16h-10.61v-72.16h10.61Z"/>
    <path d="M290.62,729.09l-22.92,3.82c-6.41,1.13-11.11,2.69-14.08,4.67-2.97,1.98-4.46,4.58-4.46,7.78s1.27,5.75,3.82,7.64c2.55,1.89,5.89,2.83,10.05,2.83,4.62,0,9.05-1.11,13.3-3.32,4.24-2.22,7.69-5.14,10.33-8.77,2.64-3.63,3.96-7.43,3.96-11.39v16.7c-2.64,5.19-6.42,9.27-11.32,12.24-4.91,2.97-10.33,4.46-16.27,4.46-4.62,0-8.8-.87-12.52-2.62-3.73-1.74-6.65-4.17-8.77-7.29-2.12-3.11-3.18-6.6-3.18-10.47,0-5.94,2.34-10.8,7-14.57,4.67-3.77,11.72-6.37,21.15-7.78l23.91-3.68v9.76ZM243.65,694.71c3.68-1.98,7.66-3.49,11.95-4.52,4.29-1.04,8.8-1.56,13.51-1.56,10.09,0,17.97,2.71,23.63,8.13,5.66,5.43,8.49,12.81,8.49,22.14v44.71h-7.78l-2.12-14.57h-.71v-30.14c0-6.6-1.96-11.65-5.87-15.14-3.92-3.49-9.6-5.23-17.05-5.23-3.77,0-7.62.49-11.53,1.48-3.92.99-8.09,2.52-12.52,4.6v-9.9Z"/>
    <path d="M370.98,729.09l-22.92,3.82c-6.41,1.13-11.11,2.69-14.08,4.67-2.97,1.98-4.46,4.58-4.46,7.78s1.27,5.75,3.82,7.64c2.55,1.89,5.89,2.83,10.05,2.83,4.62,0,9.05-1.11,13.3-3.32,4.24-2.22,7.69-5.14,10.33-8.77,2.64-3.63,3.96-7.43,3.96-11.39v16.7c-2.64,5.19-6.42,9.27-11.32,12.24-4.91,2.97-10.33,4.46-16.27,4.46-4.62,0-8.8-.87-12.52-2.62-3.73-1.74-6.65-4.17-8.77-7.29-2.12-3.11-3.18-6.6-3.18-10.47,0-5.94,2.34-10.8,7-14.57,4.67-3.77,11.72-6.37,21.15-7.78l23.91-3.68v9.76ZM324.01,694.71c3.68-1.98,7.66-3.49,11.95-4.52,4.29-1.04,8.8-1.56,13.51-1.56,10.09,0,17.97,2.71,23.63,8.13,5.66,5.43,8.49,12.81,8.49,22.14v44.71h-7.78l-2.12-14.57h-.71v-30.14c0-6.6-1.96-11.65-5.87-15.14-3.92-3.49-9.6-5.23-17.05-5.23-3.77,0-7.62.49-11.53,1.48-3.92.99-8.09,2.52-12.52,4.6v-9.9Z"/>
    <path d="M433.95,766.44c-6.89,0-13.02-1.65-18.39-4.95-5.38-3.3-9.55-7.9-12.52-13.8-2.97-5.9-4.46-12.62-4.46-20.16s1.49-14.27,4.46-20.16c2.97-5.89,7.14-10.49,12.52-13.8,5.38-3.3,11.5-4.95,18.39-4.95,6.23,0,11.88,1.65,16.98,4.95,5.1,3.31,9.08,7.9,11.96,13.8,2.88,5.9,4.31,12.62,4.31,20.16s-1.44,14.26-4.31,20.16c-2.88,5.9-6.86,10.49-11.96,13.8-5.09,3.3-10.75,4.95-16.98,4.95ZM435.36,756.54c4.81,0,9.22-1.27,13.23-3.82,4.01-2.55,7.17-6.03,9.48-10.47,2.31-4.43,3.47-9.34,3.47-14.71s-1.16-10.28-3.47-14.72c-2.31-4.43-5.47-7.93-9.48-10.47-4.01-2.55-8.42-3.82-13.23-3.82s-9.34,1.27-13.3,3.82c-3.96,2.55-7.1,6.04-9.41,10.47-2.31,4.43-3.47,9.34-3.47,14.72s1.15,10.28,3.47,14.71c2.31,4.44,5.45,7.93,9.41,10.47,3.96,2.55,8.39,3.82,13.3,3.82ZM473.56,763.61h-7.78l-2.12-16.27h-.71v-85.6h10.61v101.87Z"/>
    <path d="M589.72,736.73c0,5.76-1.16,10.9-3.47,15.42-2.31,4.53-5.54,8.04-9.69,10.54-4.15,2.5-8.91,3.75-14.29,3.75-8.02,0-14.43-2.57-19.24-7.71-4.81-5.14-7.22-12-7.22-20.58v-46.69h10.61v46.69c0,5.75,1.7,10.26,5.1,13.51,3.39,3.25,8.06,4.88,14.01,4.88,4.34,0,8.18-.99,11.53-2.97,3.35-1.98,5.94-4.64,7.78-7.99,1.84-3.35,2.76-6.91,2.76-10.68v-4.52h2.12v6.36ZM590.43,763.61l-2.12-14.57h-.71v-57.59h10.61v72.16h-7.78Z"/>
    <path d="M649.14,766.44c-6.89,0-13.02-1.65-18.39-4.95-5.38-3.3-9.55-7.9-12.52-13.8-2.97-5.9-4.46-12.62-4.46-20.16s1.49-14.27,4.46-20.16c2.97-5.89,7.14-10.49,12.52-13.8,5.38-3.3,11.5-4.95,18.39-4.95,6.23,0,11.88,1.65,16.98,4.95,5.1,3.31,9.08,7.9,11.96,13.8,2.88,5.9,4.31,12.62,4.31,20.16s-1.44,14.26-4.31,20.16c-2.88,5.9-6.86,10.49-11.96,13.8-5.09,3.3-10.75,4.95-16.98,4.95ZM650.55,756.54c4.81,0,9.22-1.27,13.23-3.82,4.01-2.55,7.17-6.03,9.48-10.47,2.31-4.43,3.47-9.34,3.47-14.71s-1.16-10.28-3.47-14.72c-2.31-4.43-5.47-7.93-9.48-10.47-4.01-2.55-8.42-3.82-13.23-3.82s-9.34,1.27-13.3,3.82-7.1,6.04-9.41,10.47c-2.31,4.43-3.47,9.34-3.47,14.72s1.15,10.28,3.47,14.71c2.31,4.44,5.45,7.93,9.41,10.47,3.96,2.55,8.39,3.82,13.3,3.82ZM688.75,763.61h-7.78l-2.12-16.27h-.71v-85.6h10.61v101.87Z"/>
    <path d="M709.27,691.46h7.78l2.12,16.27h.71v88.43h-10.61v-104.7ZM748.88,688.63c6.88,0,13.02,1.65,18.39,4.95,5.38,3.31,9.55,7.9,12.52,13.8,2.97,5.9,4.46,12.62,4.46,20.16s-1.49,14.26-4.46,20.16c-2.97,5.9-7.14,10.49-12.52,13.8-5.38,3.3-11.51,4.95-18.39,4.95-6.23,0-11.88-1.65-16.98-4.95-5.09-3.3-9.08-7.9-11.96-13.8-2.88-5.9-4.31-12.62-4.31-20.16s1.44-14.27,4.31-20.16c2.88-5.89,6.86-10.49,11.96-13.8,5.09-3.3,10.75-4.95,16.98-4.95ZM747.47,698.53c-4.81,0-9.22,1.27-13.23,3.82-4.01,2.55-7.17,6.04-9.48,10.47-2.31,4.43-3.47,9.34-3.47,14.72s1.15,10.28,3.47,14.71c2.31,4.44,5.47,7.93,9.48,10.47,4.01,2.55,8.42,3.82,13.23,3.82s9.34-1.27,13.3-3.82c3.96-2.55,7.1-6.03,9.41-10.47,2.31-4.43,3.47-9.34,3.47-14.71s-1.16-10.28-3.47-14.72c-2.31-4.43-5.45-7.93-9.41-10.47-3.96-2.55-8.39-3.82-13.3-3.82Z"/>
  </g>
  <rect x="179.84" y="399.82" width="719.65" height="8.88"/>
  <rect x="179.84" y="613.05" width="719.65" height="8.88"/>
  <rect x="179.84" y="826.28" width="719.65" height="8.88"/>
</svg>