%TF.GenerationSoftware,KiCad,Pcbnew,9.0.0*%
%TF.CreationDate,2025-06-20T16:33:01-04:00*%
%TF.ProjectId,proyecto_2_modulo,70726f79-6563-4746-9f5f-325f6d6f6475,rev?*%
%TF.SameCoordinates,Original*%
%TF.FileFunction,Copper,L2,Bot*%
%TF.FilePolarity,Positive*%
%FSLAX46Y46*%
G04 Gerber Fmt 4.6, Leading zero omitted, Abs format (unit mm)*
G04 Created by KiCad (PCBNEW 9.0.0) date 2025-06-20 16:33:01*
%MOMM*%
%LPD*%
G01*
G04 APERTURE LIST*
%TA.AperFunction,ComponentPad*%
%ADD10R,1.300000X1.300000*%
%TD*%
%TA.AperFunction,ComponentPad*%
%ADD11C,1.300000*%
%TD*%
%TA.AperFunction,ComponentPad*%
%ADD12C,1.600000*%
%TD*%
%TA.AperFunction,ComponentPad*%
%ADD13O,1.600000X1.600000*%
%TD*%
%TA.AperFunction,ComponentPad*%
%ADD14R,1.800000X1.800000*%
%TD*%
%TA.AperFunction,ComponentPad*%
%ADD15C,1.800000*%
%TD*%
%TA.AperFunction,ComponentPad*%
%ADD16R,1.700000X1.700000*%
%TD*%
%TA.AperFunction,ComponentPad*%
%ADD17C,1.700000*%
%TD*%
%TA.AperFunction,ComponentPad*%
%ADD18R,1.600000X1.600000*%
%TD*%
%TA.AperFunction,Conductor*%
%ADD19C,0.750000*%
%TD*%
G04 APERTURE END LIST*
D10*
%TO.P,Q2,1,E*%
%TO.N,GND1*%
X83500000Y-33520000D03*
D11*
%TO.P,Q2,2,B*%
%TO.N,Net-(Q2-B)*%
X82230000Y-32250000D03*
%TO.P,Q2,3,C*%
%TO.N,Net-(D10-K)*%
X83500000Y-30980000D03*
%TD*%
D12*
%TO.P,R15,1*%
%TO.N,Net-(J21-Pin_2)*%
X62500000Y-37580000D03*
D13*
%TO.P,R15,2*%
%TO.N,Net-(Q2-B)*%
X62500000Y-27420000D03*
%TD*%
D14*
%TO.P,D10,1,K*%
%TO.N,Net-(D10-K)*%
X134475000Y-32600000D03*
D15*
%TO.P,D10,2,A*%
%TO.N,Net-(D10-A)*%
X137015000Y-32600000D03*
%TD*%
D12*
%TO.P,R22,1*%
%TO.N,Net-(Q2-B)*%
X76000000Y-37410000D03*
D13*
%TO.P,R22,2*%
%TO.N,GND1*%
X76000000Y-27250000D03*
%TD*%
D14*
%TO.P,D7,1,K*%
%TO.N,Net-(D10-K)*%
X108160000Y-32700000D03*
D15*
%TO.P,D7,2,A*%
%TO.N,Net-(D7-A)*%
X110700000Y-32700000D03*
%TD*%
D12*
%TO.P,R23,1*%
%TO.N,VCC*%
X129250000Y-37560000D03*
D13*
%TO.P,R23,2*%
%TO.N,Net-(D10-A)*%
X129250000Y-27400000D03*
%TD*%
D16*
%TO.P,J21,1,Pin_1*%
%TO.N,VCC*%
X142000000Y-34790000D03*
D17*
%TO.P,J21,2,Pin_2*%
%TO.N,Net-(J21-Pin_2)*%
X142000000Y-32250000D03*
%TO.P,J21,3,Pin_3*%
%TO.N,GND1*%
X142000000Y-29710000D03*
%TD*%
D14*
%TO.P,D8,1,K*%
%TO.N,Net-(D10-K)*%
X121460000Y-32600000D03*
D15*
%TO.P,D8,2,A*%
%TO.N,Net-(D8-A)*%
X124000000Y-32600000D03*
%TD*%
D16*
%TO.P,J23,1,Pin_1*%
%TO.N,VCC*%
X57500000Y-35290000D03*
D17*
%TO.P,J23,2,Pin_2*%
%TO.N,Net-(J21-Pin_2)*%
X57500000Y-32750000D03*
%TO.P,J23,3,Pin_3*%
%TO.N,GND1*%
X57500000Y-30210000D03*
%TD*%
D12*
%TO.P,R16,1*%
%TO.N,VCC*%
X90250000Y-37560000D03*
D13*
%TO.P,R16,2*%
%TO.N,Net-(D5-A)*%
X90250000Y-27400000D03*
%TD*%
D12*
%TO.P,R20,1*%
%TO.N,VCC*%
X116200000Y-37660000D03*
D13*
%TO.P,R20,2*%
%TO.N,Net-(D8-A)*%
X116200000Y-27500000D03*
%TD*%
D12*
%TO.P,R19,1*%
%TO.N,VCC*%
X103300000Y-37560000D03*
D13*
%TO.P,R19,2*%
%TO.N,Net-(D7-A)*%
X103300000Y-27400000D03*
%TD*%
D18*
%TO.P,C9,1*%
%TO.N,Net-(Q2-B)*%
X67750000Y-36000000D03*
D12*
%TO.P,C9,2*%
%TO.N,GND1*%
X70250000Y-36000000D03*
%TD*%
D18*
%TO.P,C7,1*%
%TO.N,Net-(Q2-B)*%
X67750000Y-29000000D03*
D12*
%TO.P,C7,2*%
%TO.N,GND1*%
X70250000Y-29000000D03*
%TD*%
D14*
%TO.P,D5,1,K*%
%TO.N,Net-(D10-K)*%
X95460000Y-32750000D03*
D15*
%TO.P,D5,2,A*%
%TO.N,Net-(D5-A)*%
X98000000Y-32750000D03*
%TD*%
D19*
%TO.N,Net-(D10-K)*%
X106800000Y-35500000D02*
X121512000Y-35500000D01*
X121512000Y-35500000D02*
X122936000Y-34076000D01*
%TO.N,Net-(Q2-B)*%
X74286000Y-39124000D02*
X70874000Y-39124000D01*
X66170000Y-27420000D02*
X67750000Y-29000000D01*
X82230000Y-32250000D02*
X84250000Y-32250000D01*
X84250000Y-32250000D02*
X84300000Y-32200000D01*
X76000000Y-37410000D02*
X74286000Y-39124000D01*
X85900000Y-35800000D02*
X84290000Y-37410000D01*
X85900000Y-33800000D02*
X85900000Y-35800000D01*
X84290000Y-37410000D02*
X76000000Y-37410000D01*
X84300000Y-32200000D02*
X85900000Y-33800000D01*
X67750000Y-29000000D02*
X67750000Y-36000000D01*
X70874000Y-39124000D02*
X67750000Y-36000000D01*
X62500000Y-27420000D02*
X66170000Y-27420000D01*
%TO.N,GND1*%
X72900000Y-28400000D02*
X72900000Y-25876000D01*
X83500000Y-33520000D02*
X72730000Y-33520000D01*
X70250000Y-36000000D02*
X70250000Y-29000000D01*
X138166000Y-25876000D02*
X142000000Y-29710000D01*
X72300000Y-29000000D02*
X72900000Y-28400000D01*
X113800000Y-25900000D02*
X113824000Y-25876000D01*
X57500000Y-30210000D02*
X57500000Y-30100000D01*
X87024000Y-25900000D02*
X113800000Y-25900000D01*
X61724000Y-25876000D02*
X72900000Y-25876000D01*
X76000000Y-27250000D02*
X76000000Y-25976000D01*
X113824000Y-25876000D02*
X138166000Y-25876000D01*
X76100000Y-25876000D02*
X87000000Y-25876000D01*
X70250000Y-29000000D02*
X72300000Y-29000000D01*
X76000000Y-25976000D02*
X76100000Y-25876000D01*
X72900000Y-25876000D02*
X76100000Y-25876000D01*
X87000000Y-25876000D02*
X87024000Y-25900000D01*
X72730000Y-33520000D02*
X70250000Y-36000000D01*
X57500000Y-30100000D02*
X61724000Y-25876000D01*
%TO.N,Net-(D5-A)*%
X98000000Y-29300000D02*
X98000000Y-32750000D01*
X90250000Y-27400000D02*
X96100000Y-27400000D01*
X96100000Y-27400000D02*
X98000000Y-29300000D01*
%TO.N,Net-(D10-K)*%
X98210000Y-35500000D02*
X95460000Y-32750000D01*
X106800000Y-35500000D02*
X98210000Y-35500000D01*
X122936000Y-34076000D02*
X132999000Y-34076000D01*
X95460000Y-32750000D02*
X91450000Y-32750000D01*
X83500000Y-29400000D02*
X83500000Y-30980000D01*
X108160000Y-32700000D02*
X108160000Y-34140000D01*
X87200000Y-28500000D02*
X84400000Y-28500000D01*
X91450000Y-32750000D02*
X87200000Y-28500000D01*
X108160000Y-34140000D02*
X106800000Y-35500000D01*
X84400000Y-28500000D02*
X83500000Y-29400000D01*
X132999000Y-34076000D02*
X134475000Y-32600000D01*
X121460000Y-32600000D02*
X122936000Y-34076000D01*
%TO.N,Net-(D7-A)*%
X109200000Y-27400000D02*
X110700000Y-28900000D01*
X103300000Y-27400000D02*
X109200000Y-27400000D01*
X110700000Y-28900000D02*
X110700000Y-32700000D01*
%TO.N,Net-(D8-A)*%
X122300000Y-27500000D02*
X124000000Y-29200000D01*
X124000000Y-29200000D02*
X124000000Y-32600000D01*
X116200000Y-27500000D02*
X122300000Y-27500000D01*
%TO.N,Net-(D10-A)*%
X137015000Y-32600000D02*
X137015000Y-31327208D01*
X137015000Y-31327208D02*
X133087792Y-27400000D01*
X133087792Y-27400000D02*
X129250000Y-27400000D01*
%TO.N,Net-(J21-Pin_2)*%
X57500000Y-32750000D02*
X59750000Y-32750000D01*
X59750000Y-32750000D02*
X62500000Y-35500000D01*
X62500000Y-35500000D02*
X62500000Y-37580000D01*
%TD*%
%TA.AperFunction,Conductor*%
%TO.N,GND1*%
G36*
X147504043Y-25500765D02*
G01*
X147752895Y-25517075D01*
X147768953Y-25519190D01*
X147976105Y-25560395D01*
X148009535Y-25567045D01*
X148025202Y-25571243D01*
X148194947Y-25628863D01*
X148257481Y-25650091D01*
X148272458Y-25656294D01*
X148461461Y-25749500D01*
X148492460Y-25764787D01*
X148506507Y-25772897D01*
X148524824Y-25785136D01*
X148710464Y-25909177D01*
X148723325Y-25919045D01*
X148769688Y-25959705D01*
X148907749Y-26080781D01*
X148919218Y-26092250D01*
X149080951Y-26276671D01*
X149090825Y-26289539D01*
X149227102Y-26493492D01*
X149235212Y-26507539D01*
X149343702Y-26727534D01*
X149349909Y-26742520D01*
X149428756Y-26974797D01*
X149432954Y-26990464D01*
X149480807Y-27231035D01*
X149482925Y-27247116D01*
X149499235Y-27495956D01*
X149499500Y-27504066D01*
X149499500Y-37495933D01*
X149499235Y-37504043D01*
X149482925Y-37752883D01*
X149480807Y-37768964D01*
X149432954Y-38009535D01*
X149428756Y-38025202D01*
X149349909Y-38257479D01*
X149343702Y-38272465D01*
X149235212Y-38492460D01*
X149227102Y-38506507D01*
X149090825Y-38710460D01*
X149080951Y-38723328D01*
X148919218Y-38907749D01*
X148907749Y-38919218D01*
X148723328Y-39080951D01*
X148710460Y-39090825D01*
X148506507Y-39227102D01*
X148492460Y-39235212D01*
X148272465Y-39343702D01*
X148257479Y-39349909D01*
X148025202Y-39428756D01*
X148009535Y-39432954D01*
X147768964Y-39480807D01*
X147752883Y-39482925D01*
X147504043Y-39499235D01*
X147495933Y-39499500D01*
X75448006Y-39499500D01*
X75380967Y-39479815D01*
X75335212Y-39427011D01*
X75325268Y-39357853D01*
X75354293Y-39294297D01*
X75360325Y-39287819D01*
X75901325Y-38746819D01*
X75962648Y-38713334D01*
X75989006Y-38710500D01*
X76102351Y-38710500D01*
X76102352Y-38710500D01*
X76304534Y-38678477D01*
X76499219Y-38615220D01*
X76681610Y-38522287D01*
X76812461Y-38427219D01*
X76847213Y-38401971D01*
X76847215Y-38401968D01*
X76847219Y-38401966D01*
X76927366Y-38321819D01*
X76988689Y-38288334D01*
X77015047Y-38285500D01*
X84376231Y-38285500D01*
X84376232Y-38285499D01*
X84545374Y-38251855D01*
X84704705Y-38185858D01*
X84848099Y-38090045D01*
X85185261Y-37752883D01*
X85480497Y-37457648D01*
X88949500Y-37457648D01*
X88949500Y-37662351D01*
X88981522Y-37864534D01*
X89044781Y-38059223D01*
X89137715Y-38241613D01*
X89258028Y-38407213D01*
X89402786Y-38551971D01*
X89489843Y-38615220D01*
X89568390Y-38672287D01*
X89684607Y-38731503D01*
X89750776Y-38765218D01*
X89750778Y-38765218D01*
X89750781Y-38765220D01*
X89812329Y-38785218D01*
X89945465Y-38828477D01*
X90046557Y-38844488D01*
X90147648Y-38860500D01*
X90147649Y-38860500D01*
X90352351Y-38860500D01*
X90352352Y-38860500D01*
X90554534Y-38828477D01*
X90749219Y-38765220D01*
X90931610Y-38672287D01*
X91024590Y-38604732D01*
X91097213Y-38551971D01*
X91097215Y-38551968D01*
X91097219Y-38551966D01*
X91241966Y-38407219D01*
X91241968Y-38407215D01*
X91241971Y-38407213D01*
X91336101Y-38277652D01*
X91362287Y-38241610D01*
X91455220Y-38059219D01*
X91518477Y-37864534D01*
X91550500Y-37662352D01*
X91550500Y-37457648D01*
X91546772Y-37434108D01*
X91518477Y-37255465D01*
X91469739Y-37105466D01*
X91455220Y-37060781D01*
X91455218Y-37060778D01*
X91455218Y-37060776D01*
X91421503Y-36994607D01*
X91362287Y-36878390D01*
X91354556Y-36867749D01*
X91241971Y-36712786D01*
X91097213Y-36568028D01*
X90931613Y-36447715D01*
X90931612Y-36447714D01*
X90931610Y-36447713D01*
X90863639Y-36413080D01*
X90749223Y-36354781D01*
X90554534Y-36291522D01*
X90379995Y-36263878D01*
X90352352Y-36259500D01*
X90147648Y-36259500D01*
X90123329Y-36263351D01*
X89945465Y-36291522D01*
X89750776Y-36354781D01*
X89568386Y-36447715D01*
X89402786Y-36568028D01*
X89258028Y-36712786D01*
X89137715Y-36878386D01*
X89044781Y-37060776D01*
X88981522Y-37255465D01*
X88949500Y-37457648D01*
X85480497Y-37457648D01*
X85573050Y-37365095D01*
X86580042Y-36358102D01*
X86580045Y-36358099D01*
X86675858Y-36214705D01*
X86741855Y-36055374D01*
X86775500Y-35886229D01*
X86775500Y-35713771D01*
X86775500Y-33713771D01*
X86775500Y-33713768D01*
X86775499Y-33713766D01*
X86772337Y-33697872D01*
X86741855Y-33544626D01*
X86734081Y-33525858D01*
X86675861Y-33385301D01*
X86675854Y-33385288D01*
X86580046Y-33241902D01*
X86535810Y-33197666D01*
X86458099Y-33119955D01*
X85678690Y-32340546D01*
X84858102Y-31519957D01*
X84858094Y-31519951D01*
X84714707Y-31424143D01*
X84714706Y-31424142D01*
X84689006Y-31413497D01*
X84634603Y-31369655D01*
X84612539Y-31303361D01*
X84618530Y-31260614D01*
X84619963Y-31256206D01*
X84622171Y-31249409D01*
X84623507Y-31240974D01*
X84650500Y-31070551D01*
X84650500Y-30889448D01*
X84631439Y-30769109D01*
X84622171Y-30710591D01*
X84566211Y-30538361D01*
X84566211Y-30538360D01*
X84483996Y-30377006D01*
X84399181Y-30260267D01*
X84375702Y-30194460D01*
X84375500Y-30187382D01*
X84375500Y-29814006D01*
X84395185Y-29746967D01*
X84411819Y-29726325D01*
X84726325Y-29411819D01*
X84787648Y-29378334D01*
X84814006Y-29375500D01*
X86785994Y-29375500D01*
X86853033Y-29395185D01*
X86873675Y-29411819D01*
X90769955Y-33308099D01*
X90834026Y-33372170D01*
X90891902Y-33430046D01*
X91035288Y-33525854D01*
X91035301Y-33525861D01*
X91140342Y-33569370D01*
X91194626Y-33591855D01*
X91326423Y-33618071D01*
X91363766Y-33625499D01*
X91363769Y-33625500D01*
X91363771Y-33625500D01*
X91536229Y-33625500D01*
X93940336Y-33625500D01*
X94007375Y-33645185D01*
X94053130Y-33697989D01*
X94063626Y-33736246D01*
X94065909Y-33757483D01*
X94116202Y-33892328D01*
X94116206Y-33892335D01*
X94202452Y-34007544D01*
X94202455Y-34007547D01*
X94317664Y-34093793D01*
X94317671Y-34093797D01*
X94452517Y-34144091D01*
X94452516Y-34144091D01*
X94459444Y-34144835D01*
X94512127Y-34150500D01*
X95570993Y-34150499D01*
X95638032Y-34170183D01*
X95658674Y-34186818D01*
X97529955Y-36058099D01*
X97605947Y-36134091D01*
X97651902Y-36180046D01*
X97795288Y-36275854D01*
X97795301Y-36275861D01*
X97902056Y-36320080D01*
X97954626Y-36341855D01*
X98109901Y-36372741D01*
X98123766Y-36375499D01*
X98123769Y-36375500D01*
X98123771Y-36375500D01*
X102345953Y-36375500D01*
X102412992Y-36395185D01*
X102458747Y-36447989D01*
X102468691Y-36517147D01*
X102439666Y-36580703D01*
X102433634Y-36587181D01*
X102308032Y-36712782D01*
X102308028Y-36712786D01*
X102187715Y-36878386D01*
X102094781Y-37060776D01*
X102031522Y-37255465D01*
X101999500Y-37457648D01*
X101999500Y-37662351D01*
X102031522Y-37864534D01*
X102094781Y-38059223D01*
X102187715Y-38241613D01*
X102308028Y-38407213D01*
X102452786Y-38551971D01*
X102539843Y-38615220D01*
X102618390Y-38672287D01*
X102734607Y-38731503D01*
X102800776Y-38765218D01*
X102800778Y-38765218D01*
X102800781Y-38765220D01*
X102862329Y-38785218D01*
X102995465Y-38828477D01*
X103096557Y-38844488D01*
X103197648Y-38860500D01*
X103197649Y-38860500D01*
X103402351Y-38860500D01*
X103402352Y-38860500D01*
X103604534Y-38828477D01*
X103799219Y-38765220D01*
X103981610Y-38672287D01*
X104074590Y-38604732D01*
X104147213Y-38551971D01*
X104147215Y-38551968D01*
X104147219Y-38551966D01*
X104291966Y-38407219D01*
X104291968Y-38407215D01*
X104291971Y-38407213D01*
X104386101Y-38277652D01*
X104412287Y-38241610D01*
X104505220Y-38059219D01*
X104568477Y-37864534D01*
X104600500Y-37662352D01*
X104600500Y-37457648D01*
X104596772Y-37434108D01*
X104568477Y-37255465D01*
X104519739Y-37105466D01*
X104505220Y-37060781D01*
X104505218Y-37060778D01*
X104505218Y-37060776D01*
X104471503Y-36994607D01*
X104412287Y-36878390D01*
X104404556Y-36867749D01*
X104291971Y-36712786D01*
X104166366Y-36587181D01*
X104132881Y-36525858D01*
X104137865Y-36456166D01*
X104179737Y-36400233D01*
X104245201Y-36375816D01*
X104254047Y-36375500D01*
X106713771Y-36375500D01*
X106886229Y-36375500D01*
X115373787Y-36375500D01*
X115440826Y-36395185D01*
X115486581Y-36447989D01*
X115496525Y-36517147D01*
X115467500Y-36580703D01*
X115446672Y-36599819D01*
X115352780Y-36668034D01*
X115208028Y-36812786D01*
X115087715Y-36978386D01*
X114994781Y-37160776D01*
X114931522Y-37355465D01*
X114899500Y-37557648D01*
X114899500Y-37762351D01*
X114931522Y-37964534D01*
X114994781Y-38159223D01*
X115030241Y-38228815D01*
X115087442Y-38341079D01*
X115087715Y-38341613D01*
X115208028Y-38507213D01*
X115352786Y-38651971D01*
X115483336Y-38746819D01*
X115518390Y-38772287D01*
X115628669Y-38828477D01*
X115700776Y-38865218D01*
X115700778Y-38865218D01*
X115700781Y-38865220D01*
X115805137Y-38899127D01*
X115895465Y-38928477D01*
X115996557Y-38944488D01*
X116097648Y-38960500D01*
X116097649Y-38960500D01*
X116302351Y-38960500D01*
X116302352Y-38960500D01*
X116504534Y-38928477D01*
X116699219Y-38865220D01*
X116881610Y-38772287D01*
X116974590Y-38704732D01*
X117047213Y-38651971D01*
X117047215Y-38651968D01*
X117047219Y-38651966D01*
X117191966Y-38507219D01*
X117191968Y-38507215D01*
X117191971Y-38507213D01*
X117250093Y-38427213D01*
X117312287Y-38341610D01*
X117405220Y-38159219D01*
X117468477Y-37964534D01*
X117500500Y-37762352D01*
X117500500Y-37557648D01*
X117484661Y-37457648D01*
X127949500Y-37457648D01*
X127949500Y-37662351D01*
X127981522Y-37864534D01*
X128044781Y-38059223D01*
X128137715Y-38241613D01*
X128258028Y-38407213D01*
X128402786Y-38551971D01*
X128489843Y-38615220D01*
X128568390Y-38672287D01*
X128684607Y-38731503D01*
X128750776Y-38765218D01*
X128750778Y-38765218D01*
X128750781Y-38765220D01*
X128812329Y-38785218D01*
X128945465Y-38828477D01*
X129046557Y-38844488D01*
X129147648Y-38860500D01*
X129147649Y-38860500D01*
X129352351Y-38860500D01*
X129352352Y-38860500D01*
X129554534Y-38828477D01*
X129749219Y-38765220D01*
X129931610Y-38672287D01*
X130024590Y-38604732D01*
X130097213Y-38551971D01*
X130097215Y-38551968D01*
X130097219Y-38551966D01*
X130241966Y-38407219D01*
X130241968Y-38407215D01*
X130241971Y-38407213D01*
X130336101Y-38277652D01*
X130362287Y-38241610D01*
X130455220Y-38059219D01*
X130518477Y-37864534D01*
X130550500Y-37662352D01*
X130550500Y-37457648D01*
X130546772Y-37434108D01*
X130518477Y-37255465D01*
X130469739Y-37105466D01*
X130455220Y-37060781D01*
X130455218Y-37060778D01*
X130455218Y-37060776D01*
X130421503Y-36994607D01*
X130362287Y-36878390D01*
X130354556Y-36867749D01*
X130241971Y-36712786D01*
X130097213Y-36568028D01*
X129931613Y-36447715D01*
X129931612Y-36447714D01*
X129931610Y-36447713D01*
X129863639Y-36413080D01*
X129749223Y-36354781D01*
X129554534Y-36291522D01*
X129379995Y-36263878D01*
X129352352Y-36259500D01*
X129147648Y-36259500D01*
X129123329Y-36263351D01*
X128945465Y-36291522D01*
X128750776Y-36354781D01*
X128568386Y-36447715D01*
X128402786Y-36568028D01*
X128258028Y-36712786D01*
X128137715Y-36878386D01*
X128044781Y-37060776D01*
X127981522Y-37255465D01*
X127949500Y-37457648D01*
X117484661Y-37457648D01*
X117468477Y-37355466D01*
X117450617Y-37300500D01*
X117435985Y-37255465D01*
X117405220Y-37160781D01*
X117405218Y-37160778D01*
X117405218Y-37160776D01*
X117354265Y-37060776D01*
X117312287Y-36978390D01*
X117263163Y-36910776D01*
X117191971Y-36812786D01*
X117047219Y-36668034D01*
X116953327Y-36599818D01*
X116910662Y-36544489D01*
X116904683Y-36474875D01*
X116937288Y-36413080D01*
X116998127Y-36378723D01*
X117026213Y-36375500D01*
X121598231Y-36375500D01*
X121598232Y-36375499D01*
X121767374Y-36341855D01*
X121926705Y-36275858D01*
X122070099Y-36180045D01*
X123262325Y-34987819D01*
X123323648Y-34954334D01*
X123350006Y-34951500D01*
X133085231Y-34951500D01*
X133085232Y-34951499D01*
X133254374Y-34917855D01*
X133413705Y-34851858D01*
X133557099Y-34756045D01*
X134276325Y-34036817D01*
X134337648Y-34003333D01*
X134364006Y-34000499D01*
X135422871Y-34000499D01*
X135422872Y-34000499D01*
X135482483Y-33994091D01*
X135617331Y-33943796D01*
X135732546Y-33857546D01*
X135818796Y-33742331D01*
X135821066Y-33736246D01*
X135848601Y-33662420D01*
X135890471Y-33606486D01*
X135955936Y-33582068D01*
X136024209Y-33596919D01*
X136052464Y-33618071D01*
X136102636Y-33668243D01*
X136102641Y-33668247D01*
X136205980Y-33743326D01*
X136280978Y-33797815D01*
X136409375Y-33863237D01*
X136477393Y-33897895D01*
X136477396Y-33897896D01*
X136577048Y-33930274D01*
X136687049Y-33966015D01*
X136904778Y-34000500D01*
X136904779Y-34000500D01*
X137125221Y-34000500D01*
X137125222Y-34000500D01*
X137342951Y-33966015D01*
X137552606Y-33897895D01*
X137749022Y-33797815D01*
X137927365Y-33668242D01*
X138083242Y-33512365D01*
X138212815Y-33334022D01*
X138312895Y-33137606D01*
X138381015Y-32927951D01*
X138415500Y-32710222D01*
X138415500Y-32489778D01*
X138381015Y-32272049D01*
X138339316Y-32143713D01*
X140649500Y-32143713D01*
X140649500Y-32356287D01*
X140682754Y-32566243D01*
X140729786Y-32710993D01*
X140748444Y-32768414D01*
X140844951Y-32957820D01*
X140969890Y-33129786D01*
X141083430Y-33243326D01*
X141116915Y-33304649D01*
X141111931Y-33374341D01*
X141070059Y-33430274D01*
X141039083Y-33447189D01*
X140907669Y-33496203D01*
X140907664Y-33496206D01*
X140792455Y-33582452D01*
X140792452Y-33582455D01*
X140706206Y-33697664D01*
X140706202Y-33697671D01*
X140655908Y-33832517D01*
X140651412Y-33874341D01*
X140649501Y-33892123D01*
X140649500Y-33892135D01*
X140649500Y-35687870D01*
X140649501Y-35687876D01*
X140655908Y-35747483D01*
X140706202Y-35882328D01*
X140706206Y-35882335D01*
X140792452Y-35997544D01*
X140792455Y-35997547D01*
X140907664Y-36083793D01*
X140907671Y-36083797D01*
X141042517Y-36134091D01*
X141042516Y-36134091D01*
X141049444Y-36134835D01*
X141102127Y-36140500D01*
X142897872Y-36140499D01*
X142957483Y-36134091D01*
X143092331Y-36083796D01*
X143207546Y-35997546D01*
X143293796Y-35882331D01*
X143344091Y-35747483D01*
X143350500Y-35687873D01*
X143350499Y-33892128D01*
X143344091Y-33832517D01*
X143339450Y-33820075D01*
X143293797Y-33697671D01*
X143293793Y-33697664D01*
X143207547Y-33582455D01*
X143207544Y-33582452D01*
X143092335Y-33496206D01*
X143092328Y-33496202D01*
X142960917Y-33447189D01*
X142904983Y-33405318D01*
X142880566Y-33339853D01*
X142895418Y-33271580D01*
X142916563Y-33243332D01*
X143030104Y-33129792D01*
X143067769Y-33077951D01*
X143155048Y-32957820D01*
X143155047Y-32957820D01*
X143155051Y-32957816D01*
X143251557Y-32768412D01*
X143317246Y-32566243D01*
X143350500Y-32356287D01*
X143350500Y-32143713D01*
X143317246Y-31933757D01*
X143251557Y-31731588D01*
X143155051Y-31542184D01*
X143155049Y-31542181D01*
X143155048Y-31542179D01*
X143030109Y-31370213D01*
X142879786Y-31219890D01*
X142707817Y-31094949D01*
X142698504Y-31090204D01*
X142647707Y-31042230D01*
X142630912Y-30974409D01*
X142653449Y-30908274D01*
X142698507Y-30869232D01*
X142707555Y-30864622D01*
X142761716Y-30825270D01*
X142761717Y-30825270D01*
X142129408Y-30192962D01*
X142192993Y-30175925D01*
X142307007Y-30110099D01*
X142400099Y-30017007D01*
X142465925Y-29902993D01*
X142482962Y-29839408D01*
X143115270Y-30471717D01*
X143115270Y-30471716D01*
X143154622Y-30417554D01*
X143251095Y-30228217D01*
X143316757Y-30026130D01*
X143316757Y-30026127D01*
X143350000Y-29816246D01*
X143350000Y-29603753D01*
X143316757Y-29393872D01*
X143316757Y-29393869D01*
X143251095Y-29191782D01*
X143154624Y-29002449D01*
X143115270Y-28948282D01*
X143115269Y-28948282D01*
X142482962Y-29580590D01*
X142465925Y-29517007D01*
X142400099Y-29402993D01*
X142307007Y-29309901D01*
X142192993Y-29244075D01*
X142129409Y-29227037D01*
X142761716Y-28594728D01*
X142707550Y-28555375D01*
X142518217Y-28458904D01*
X142316129Y-28393242D01*
X142106246Y-28360000D01*
X141893754Y-28360000D01*
X141683872Y-28393242D01*
X141683869Y-28393242D01*
X141481782Y-28458904D01*
X141292439Y-28555380D01*
X141238282Y-28594727D01*
X141238282Y-28594728D01*
X141870591Y-29227037D01*
X141807007Y-29244075D01*
X141692993Y-29309901D01*
X141599901Y-29402993D01*
X141534075Y-29517007D01*
X141517037Y-29580591D01*
X140884728Y-28948282D01*
X140884727Y-28948282D01*
X140845380Y-29002439D01*
X140748904Y-29191782D01*
X140683242Y-29393869D01*
X140683242Y-29393872D01*
X140650000Y-29603753D01*
X140650000Y-29816246D01*
X140683242Y-30026127D01*
X140683242Y-30026130D01*
X140748904Y-30228217D01*
X140845375Y-30417550D01*
X140884728Y-30471716D01*
X141517037Y-29839408D01*
X141534075Y-29902993D01*
X141599901Y-30017007D01*
X141692993Y-30110099D01*
X141807007Y-30175925D01*
X141870590Y-30192962D01*
X141238282Y-30825269D01*
X141238282Y-30825270D01*
X141292452Y-30864626D01*
X141292451Y-30864626D01*
X141301495Y-30869234D01*
X141352292Y-30917208D01*
X141369087Y-30985029D01*
X141346550Y-31051164D01*
X141301499Y-31090202D01*
X141292182Y-31094949D01*
X141120213Y-31219890D01*
X140969890Y-31370213D01*
X140844951Y-31542179D01*
X140748444Y-31731585D01*
X140682753Y-31933760D01*
X140662380Y-32062393D01*
X140649500Y-32143713D01*
X138339316Y-32143713D01*
X138337635Y-32138539D01*
X138312897Y-32062399D01*
X138312895Y-32062393D01*
X138247350Y-31933757D01*
X138212815Y-31865978D01*
X138123116Y-31742517D01*
X138083247Y-31687641D01*
X138083243Y-31687636D01*
X137926819Y-31531212D01*
X137893334Y-31469889D01*
X137890500Y-31443531D01*
X137890500Y-31240976D01*
X137890499Y-31240974D01*
X137883524Y-31205908D01*
X137856855Y-31071834D01*
X137856324Y-31070551D01*
X137790861Y-30912509D01*
X137790854Y-30912496D01*
X137695046Y-30769110D01*
X137635936Y-30710000D01*
X137573099Y-30647163D01*
X135022830Y-28096894D01*
X134383991Y-27458054D01*
X134300739Y-27374802D01*
X145499500Y-27374802D01*
X145499500Y-27434108D01*
X145499500Y-37434108D01*
X145499500Y-37500000D01*
X145499500Y-37625198D01*
X145504842Y-37662351D01*
X145535135Y-37873044D01*
X145535136Y-37873048D01*
X145605676Y-38113291D01*
X145605678Y-38113297D01*
X145709695Y-38341061D01*
X145709705Y-38341079D01*
X145845068Y-38551708D01*
X145845072Y-38551714D01*
X146009047Y-38740952D01*
X146198285Y-38904927D01*
X146198291Y-38904931D01*
X146408920Y-39040294D01*
X146408928Y-39040298D01*
X146408932Y-39040301D01*
X146408935Y-39040302D01*
X146408938Y-39040304D01*
X146636702Y-39144321D01*
X146636708Y-39144323D01*
X146839788Y-39203951D01*
X146876954Y-39214864D01*
X147124802Y-39250500D01*
X147124803Y-39250500D01*
X147375197Y-39250500D01*
X147375198Y-39250500D01*
X147623046Y-39214864D01*
X147751803Y-39177057D01*
X147863291Y-39144323D01*
X147863297Y-39144321D01*
X147863297Y-39144320D01*
X147863300Y-39144320D01*
X148091068Y-39040301D01*
X148301715Y-38904927D01*
X148490952Y-38740952D01*
X148654927Y-38551715D01*
X148790301Y-38341068D01*
X148894320Y-38113300D01*
X148910200Y-38059219D01*
X148945045Y-37940545D01*
X148964864Y-37873046D01*
X149000500Y-37625198D01*
X149000500Y-37500000D01*
X149000500Y-37434108D01*
X149000500Y-27434108D01*
X149000500Y-27374802D01*
X148964864Y-27126954D01*
X148945045Y-27059455D01*
X148894323Y-26886708D01*
X148894321Y-26886702D01*
X148790304Y-26658938D01*
X148790294Y-26658920D01*
X148654931Y-26448291D01*
X148654927Y-26448285D01*
X148490952Y-26259047D01*
X148301714Y-26095072D01*
X148301708Y-26095068D01*
X148091079Y-25959705D01*
X148091061Y-25959695D01*
X147863297Y-25855678D01*
X147863291Y-25855676D01*
X147623048Y-25785136D01*
X147623044Y-25785135D01*
X147446468Y-25759747D01*
X147375198Y-25749500D01*
X147124802Y-25749500D01*
X147089167Y-25754623D01*
X146876955Y-25785135D01*
X146876951Y-25785136D01*
X146636708Y-25855676D01*
X146636702Y-25855678D01*
X146408938Y-25959695D01*
X146408920Y-25959705D01*
X146198291Y-26095068D01*
X146198285Y-26095072D01*
X146009047Y-26259047D01*
X145845072Y-26448285D01*
X145845068Y-26448291D01*
X145709705Y-26658920D01*
X145709695Y-26658938D01*
X145605678Y-26886702D01*
X145605676Y-26886708D01*
X145535136Y-27126951D01*
X145535135Y-27126955D01*
X145507718Y-27317648D01*
X145499500Y-27374802D01*
X134300739Y-27374802D01*
X133645894Y-26719957D01*
X133645890Y-26719954D01*
X133502503Y-26624145D01*
X133502490Y-26624138D01*
X133343170Y-26558146D01*
X133343158Y-26558143D01*
X133174024Y-26524500D01*
X133174021Y-26524500D01*
X130265047Y-26524500D01*
X130198008Y-26504815D01*
X130177366Y-26488181D01*
X130097213Y-26408028D01*
X129931613Y-26287715D01*
X129931612Y-26287714D01*
X129931610Y-26287713D01*
X129874113Y-26258417D01*
X129749223Y-26194781D01*
X129554534Y-26131522D01*
X129379995Y-26103878D01*
X129352352Y-26099500D01*
X129147648Y-26099500D01*
X129123329Y-26103351D01*
X128945465Y-26131522D01*
X128750776Y-26194781D01*
X128568386Y-26287715D01*
X128402786Y-26408028D01*
X128258028Y-26552786D01*
X128137715Y-26718386D01*
X128044781Y-26900776D01*
X127981522Y-27095465D01*
X127949500Y-27297648D01*
X127949500Y-27502352D01*
X127952668Y-27522351D01*
X127981522Y-27704534D01*
X128044781Y-27899223D01*
X128137715Y-28081613D01*
X128258028Y-28247213D01*
X128402786Y-28391971D01*
X128540427Y-28491971D01*
X128568390Y-28512287D01*
X128652955Y-28555375D01*
X128750776Y-28605218D01*
X128750778Y-28605218D01*
X128750781Y-28605220D01*
X128796131Y-28619955D01*
X128945465Y-28668477D01*
X129017713Y-28679920D01*
X129147648Y-28700500D01*
X129147649Y-28700500D01*
X129352351Y-28700500D01*
X129352352Y-28700500D01*
X129554534Y-28668477D01*
X129749219Y-28605220D01*
X129931610Y-28512287D01*
X130024590Y-28444732D01*
X130097213Y-28391971D01*
X130097215Y-28391968D01*
X130097219Y-28391966D01*
X130177366Y-28311819D01*
X130238689Y-28278334D01*
X130265047Y-28275500D01*
X132673786Y-28275500D01*
X132740825Y-28295185D01*
X132761467Y-28311819D01*
X135437467Y-30987819D01*
X135470952Y-31049142D01*
X135465968Y-31118834D01*
X135424096Y-31174767D01*
X135358632Y-31199184D01*
X135349786Y-31199500D01*
X133527129Y-31199500D01*
X133527123Y-31199501D01*
X133467516Y-31205908D01*
X133332671Y-31256202D01*
X133332664Y-31256206D01*
X133217455Y-31342452D01*
X133217452Y-31342455D01*
X133131206Y-31457664D01*
X133131202Y-31457671D01*
X133080908Y-31592517D01*
X133074501Y-31652116D01*
X133074500Y-31652135D01*
X133074500Y-32710993D01*
X133054815Y-32778032D01*
X133038181Y-32798674D01*
X132672675Y-33164181D01*
X132611352Y-33197666D01*
X132584994Y-33200500D01*
X125448131Y-33200500D01*
X125381092Y-33180815D01*
X125335337Y-33128011D01*
X125325393Y-33058853D01*
X125330200Y-33038183D01*
X125366014Y-32927954D01*
X125366013Y-32927954D01*
X125366015Y-32927951D01*
X125400500Y-32710222D01*
X125400500Y-32489778D01*
X125366015Y-32272049D01*
X125324317Y-32143713D01*
X125297896Y-32062396D01*
X125297895Y-32062393D01*
X125232350Y-31933757D01*
X125197815Y-31865978D01*
X125108116Y-31742517D01*
X125068247Y-31687641D01*
X125068243Y-31687636D01*
X124911819Y-31531212D01*
X124878334Y-31469889D01*
X124875500Y-31443531D01*
X124875500Y-29113768D01*
X124875499Y-29113766D01*
X124863344Y-29052661D01*
X124841855Y-28944626D01*
X124817282Y-28885301D01*
X124775861Y-28785301D01*
X124775854Y-28785288D01*
X124680046Y-28641902D01*
X124632871Y-28594727D01*
X124558099Y-28519955D01*
X123717959Y-27679815D01*
X122858102Y-26819957D01*
X122858098Y-26819954D01*
X122714711Y-26724145D01*
X122714698Y-26724138D01*
X122555378Y-26658146D01*
X122555366Y-26658143D01*
X122386232Y-26624500D01*
X122386229Y-26624500D01*
X117215047Y-26624500D01*
X117148008Y-26604815D01*
X117127366Y-26588181D01*
X117047213Y-26508028D01*
X116881613Y-26387715D01*
X116881612Y-26387714D01*
X116881610Y-26387713D01*
X116824653Y-26358691D01*
X116699223Y-26294781D01*
X116504534Y-26231522D01*
X116329995Y-26203878D01*
X116302352Y-26199500D01*
X116097648Y-26199500D01*
X116073329Y-26203351D01*
X115895465Y-26231522D01*
X115700776Y-26294781D01*
X115518386Y-26387715D01*
X115352786Y-26508028D01*
X115208028Y-26652786D01*
X115087715Y-26818386D01*
X114994781Y-27000776D01*
X114931522Y-27195465D01*
X114899500Y-27397648D01*
X114899500Y-27602351D01*
X114931522Y-27804534D01*
X114994781Y-27999223D01*
X115036760Y-28081610D01*
X115086356Y-28178947D01*
X115087715Y-28181613D01*
X115208028Y-28347213D01*
X115352786Y-28491971D01*
X115494222Y-28594728D01*
X115518390Y-28612287D01*
X115628669Y-28668477D01*
X115700776Y-28705218D01*
X115700778Y-28705218D01*
X115700781Y-28705220D01*
X115805137Y-28739127D01*
X115895465Y-28768477D01*
X115996557Y-28784488D01*
X116097648Y-28800500D01*
X116097649Y-28800500D01*
X116302351Y-28800500D01*
X116302352Y-28800500D01*
X116504534Y-28768477D01*
X116699219Y-28705220D01*
X116881610Y-28612287D01*
X116974590Y-28544732D01*
X117047213Y-28491971D01*
X117047215Y-28491968D01*
X117047219Y-28491966D01*
X117127366Y-28411819D01*
X117188689Y-28378334D01*
X117215047Y-28375500D01*
X121885994Y-28375500D01*
X121953033Y-28395185D01*
X121973675Y-28411819D01*
X123088181Y-29526325D01*
X123121666Y-29587648D01*
X123124500Y-29614006D01*
X123124500Y-31443531D01*
X123115855Y-31472968D01*
X123109332Y-31502959D01*
X123105577Y-31507974D01*
X123104815Y-31510570D01*
X123088181Y-31531212D01*
X123088180Y-31531213D01*
X123037463Y-31581929D01*
X122976140Y-31615413D01*
X122906448Y-31610428D01*
X122850515Y-31568556D01*
X122833601Y-31537580D01*
X122803797Y-31457671D01*
X122803793Y-31457664D01*
X122717547Y-31342455D01*
X122717544Y-31342452D01*
X122602335Y-31256206D01*
X122602328Y-31256202D01*
X122467482Y-31205908D01*
X122467483Y-31205908D01*
X122407883Y-31199501D01*
X122407881Y-31199500D01*
X122407873Y-31199500D01*
X122407864Y-31199500D01*
X120512129Y-31199500D01*
X120512123Y-31199501D01*
X120452516Y-31205908D01*
X120317671Y-31256202D01*
X120317664Y-31256206D01*
X120202455Y-31342452D01*
X120202452Y-31342455D01*
X120116206Y-31457664D01*
X120116202Y-31457671D01*
X120065908Y-31592517D01*
X120059501Y-31652116D01*
X120059500Y-31652135D01*
X120059500Y-33547870D01*
X120059501Y-33547876D01*
X120065908Y-33607483D01*
X120116202Y-33742328D01*
X120116206Y-33742335D01*
X120202452Y-33857544D01*
X120202455Y-33857547D01*
X120317664Y-33943793D01*
X120317671Y-33943797D01*
X120452517Y-33994091D01*
X120452516Y-33994091D01*
X120459444Y-33994835D01*
X120512127Y-34000500D01*
X121473994Y-34000499D01*
X121541033Y-34020183D01*
X121586788Y-34072987D01*
X121596732Y-34142146D01*
X121567707Y-34205702D01*
X121561675Y-34212180D01*
X121185675Y-34588181D01*
X121124352Y-34621666D01*
X121097994Y-34624500D01*
X109092527Y-34624500D01*
X109025488Y-34604815D01*
X108979733Y-34552011D01*
X108969789Y-34482853D01*
X108977966Y-34453047D01*
X109001855Y-34395374D01*
X109035500Y-34226229D01*
X109035500Y-34219663D01*
X109055185Y-34152624D01*
X109107989Y-34106869D01*
X109146248Y-34096373D01*
X109167483Y-34094091D01*
X109302331Y-34043796D01*
X109417546Y-33957546D01*
X109503796Y-33842331D01*
X109504739Y-33839804D01*
X109533601Y-33762420D01*
X109575471Y-33706486D01*
X109640936Y-33682068D01*
X109709209Y-33696919D01*
X109737464Y-33718071D01*
X109787636Y-33768243D01*
X109787641Y-33768247D01*
X109926928Y-33869444D01*
X109965978Y-33897815D01*
X110084491Y-33958201D01*
X110162393Y-33997895D01*
X110162396Y-33997896D01*
X110267221Y-34031955D01*
X110372049Y-34066015D01*
X110589778Y-34100500D01*
X110589779Y-34100500D01*
X110810221Y-34100500D01*
X110810222Y-34100500D01*
X111027951Y-34066015D01*
X111237606Y-33997895D01*
X111434022Y-33897815D01*
X111612365Y-33768242D01*
X111768242Y-33612365D01*
X111897815Y-33434022D01*
X111997895Y-33237606D01*
X112066015Y-33027951D01*
X112100500Y-32810222D01*
X112100500Y-32589778D01*
X112066015Y-32372049D01*
X112020376Y-32231585D01*
X111997896Y-32162396D01*
X111997895Y-32162393D01*
X111963237Y-32094375D01*
X111897815Y-31965978D01*
X111828238Y-31870213D01*
X111768247Y-31787641D01*
X111768243Y-31787636D01*
X111611819Y-31631212D01*
X111578334Y-31569889D01*
X111575500Y-31543531D01*
X111575500Y-28813768D01*
X111575499Y-28813766D01*
X111552969Y-28700500D01*
X111541855Y-28644626D01*
X111533816Y-28625218D01*
X111475861Y-28485301D01*
X111475854Y-28485288D01*
X111380046Y-28341902D01*
X111333329Y-28295185D01*
X111258099Y-28219955D01*
X110533750Y-27495606D01*
X109758102Y-26719957D01*
X109758098Y-26719954D01*
X109614711Y-26624145D01*
X109614698Y-26624138D01*
X109455378Y-26558146D01*
X109455366Y-26558143D01*
X109286232Y-26524500D01*
X109286229Y-26524500D01*
X104315047Y-26524500D01*
X104248008Y-26504815D01*
X104227366Y-26488181D01*
X104147213Y-26408028D01*
X103981613Y-26287715D01*
X103981612Y-26287714D01*
X103981610Y-26287713D01*
X103924113Y-26258417D01*
X103799223Y-26194781D01*
X103604534Y-26131522D01*
X103429995Y-26103878D01*
X103402352Y-26099500D01*
X103197648Y-26099500D01*
X103173329Y-26103351D01*
X102995465Y-26131522D01*
X102800776Y-26194781D01*
X102618386Y-26287715D01*
X102452786Y-26408028D01*
X102308028Y-26552786D01*
X102187715Y-26718386D01*
X102094781Y-26900776D01*
X102031522Y-27095465D01*
X101999500Y-27297648D01*
X101999500Y-27502352D01*
X102002668Y-27522351D01*
X102031522Y-27704534D01*
X102094781Y-27899223D01*
X102187715Y-28081613D01*
X102308028Y-28247213D01*
X102452786Y-28391971D01*
X102590427Y-28491971D01*
X102618390Y-28512287D01*
X102702955Y-28555375D01*
X102800776Y-28605218D01*
X102800778Y-28605218D01*
X102800781Y-28605220D01*
X102846131Y-28619955D01*
X102995465Y-28668477D01*
X103067713Y-28679920D01*
X103197648Y-28700500D01*
X103197649Y-28700500D01*
X103402351Y-28700500D01*
X103402352Y-28700500D01*
X103604534Y-28668477D01*
X103799219Y-28605220D01*
X103981610Y-28512287D01*
X104074590Y-28444732D01*
X104147213Y-28391971D01*
X104147215Y-28391968D01*
X104147219Y-28391966D01*
X104227366Y-28311819D01*
X104288689Y-28278334D01*
X104315047Y-28275500D01*
X108785994Y-28275500D01*
X108853033Y-28295185D01*
X108873675Y-28311819D01*
X109788181Y-29226325D01*
X109821666Y-29287648D01*
X109824500Y-29314006D01*
X109824500Y-31543531D01*
X109815855Y-31572968D01*
X109809332Y-31602959D01*
X109805577Y-31607974D01*
X109804815Y-31610570D01*
X109788181Y-31631212D01*
X109788180Y-31631213D01*
X109737463Y-31681929D01*
X109676140Y-31715413D01*
X109606448Y-31710428D01*
X109550515Y-31668556D01*
X109533601Y-31637580D01*
X109503797Y-31557671D01*
X109503793Y-31557664D01*
X109417547Y-31442455D01*
X109417544Y-31442452D01*
X109302335Y-31356206D01*
X109302328Y-31356202D01*
X109167482Y-31305908D01*
X109167483Y-31305908D01*
X109107883Y-31299501D01*
X109107881Y-31299500D01*
X109107873Y-31299500D01*
X109107864Y-31299500D01*
X107212129Y-31299500D01*
X107212123Y-31299501D01*
X107152516Y-31305908D01*
X107017671Y-31356202D01*
X107017664Y-31356206D01*
X106902455Y-31442452D01*
X106902452Y-31442455D01*
X106816206Y-31557664D01*
X106816202Y-31557671D01*
X106765908Y-31692517D01*
X106759501Y-31752116D01*
X106759500Y-31752135D01*
X106759500Y-33647870D01*
X106759501Y-33647876D01*
X106765908Y-33707483D01*
X106816202Y-33842328D01*
X106816206Y-33842335D01*
X106902451Y-33957543D01*
X106902452Y-33957544D01*
X106902454Y-33957546D01*
X106903331Y-33958202D01*
X106903988Y-33959080D01*
X106908725Y-33963817D01*
X106908044Y-33964497D01*
X106945203Y-34014134D01*
X106950189Y-34083826D01*
X106916705Y-34145149D01*
X106916703Y-34145151D01*
X106473675Y-34588181D01*
X106412352Y-34621666D01*
X106385994Y-34624500D01*
X98624006Y-34624500D01*
X98556967Y-34604815D01*
X98536325Y-34588181D01*
X98271795Y-34323651D01*
X98238310Y-34262328D01*
X98243294Y-34192636D01*
X98285166Y-34136703D01*
X98323673Y-34118619D01*
X98323317Y-34117521D01*
X98537603Y-34047896D01*
X98537606Y-34047895D01*
X98545651Y-34043796D01*
X98734022Y-33947815D01*
X98912365Y-33818242D01*
X99068242Y-33662365D01*
X99197815Y-33484022D01*
X99297895Y-33287606D01*
X99366015Y-33077951D01*
X99400500Y-32860222D01*
X99400500Y-32639778D01*
X99366015Y-32422049D01*
X99317277Y-32272047D01*
X99297896Y-32212396D01*
X99297895Y-32212393D01*
X99262900Y-32143713D01*
X99197815Y-32015978D01*
X99139501Y-31935715D01*
X99068247Y-31837641D01*
X99068243Y-31837636D01*
X98911819Y-31681212D01*
X98878334Y-31619889D01*
X98875500Y-31593531D01*
X98875500Y-29213768D01*
X98875499Y-29213766D01*
X98863689Y-29154394D01*
X98841855Y-29044626D01*
X98823371Y-29000001D01*
X98775861Y-28885301D01*
X98775854Y-28885288D01*
X98680046Y-28741902D01*
X98626621Y-28688477D01*
X98558099Y-28619955D01*
X97617959Y-27679815D01*
X96658102Y-26719957D01*
X96658098Y-26719954D01*
X96514711Y-26624145D01*
X96514698Y-26624138D01*
X96355378Y-26558146D01*
X96355366Y-26558143D01*
X96186232Y-26524500D01*
X96186229Y-26524500D01*
X91265047Y-26524500D01*
X91198008Y-26504815D01*
X91177366Y-26488181D01*
X91097213Y-26408028D01*
X90931613Y-26287715D01*
X90931612Y-26287714D01*
X90931610Y-26287713D01*
X90874113Y-26258417D01*
X90749223Y-26194781D01*
X90554534Y-26131522D01*
X90379995Y-26103878D01*
X90352352Y-26099500D01*
X90147648Y-26099500D01*
X90123329Y-26103351D01*
X89945465Y-26131522D01*
X89750776Y-26194781D01*
X89568386Y-26287715D01*
X89402786Y-26408028D01*
X89258028Y-26552786D01*
X89137715Y-26718386D01*
X89044781Y-26900776D01*
X88981522Y-27095465D01*
X88949500Y-27297648D01*
X88949500Y-27502352D01*
X88952668Y-27522351D01*
X88981522Y-27704534D01*
X89044781Y-27899223D01*
X89137715Y-28081613D01*
X89258028Y-28247213D01*
X89402786Y-28391971D01*
X89540427Y-28491971D01*
X89568390Y-28512287D01*
X89652955Y-28555375D01*
X89750776Y-28605218D01*
X89750778Y-28605218D01*
X89750781Y-28605220D01*
X89796131Y-28619955D01*
X89945465Y-28668477D01*
X90017713Y-28679920D01*
X90147648Y-28700500D01*
X90147649Y-28700500D01*
X90352351Y-28700500D01*
X90352352Y-28700500D01*
X90554534Y-28668477D01*
X90749219Y-28605220D01*
X90931610Y-28512287D01*
X91024590Y-28444732D01*
X91097213Y-28391971D01*
X91097215Y-28391968D01*
X91097219Y-28391966D01*
X91177366Y-28311819D01*
X91238689Y-28278334D01*
X91265047Y-28275500D01*
X95685994Y-28275500D01*
X95753033Y-28295185D01*
X95773675Y-28311819D01*
X97088181Y-29626325D01*
X97121666Y-29687648D01*
X97124500Y-29714006D01*
X97124500Y-31593531D01*
X97115855Y-31622968D01*
X97109332Y-31652959D01*
X97105577Y-31657974D01*
X97104815Y-31660570D01*
X97088181Y-31681212D01*
X97088180Y-31681213D01*
X97037463Y-31731929D01*
X96976140Y-31765413D01*
X96906448Y-31760428D01*
X96850515Y-31718556D01*
X96833601Y-31687580D01*
X96803797Y-31607671D01*
X96803793Y-31607664D01*
X96717547Y-31492455D01*
X96717544Y-31492452D01*
X96602335Y-31406206D01*
X96602328Y-31406202D01*
X96467482Y-31355908D01*
X96467483Y-31355908D01*
X96407883Y-31349501D01*
X96407881Y-31349500D01*
X96407873Y-31349500D01*
X96407864Y-31349500D01*
X94512129Y-31349500D01*
X94512123Y-31349501D01*
X94452516Y-31355908D01*
X94317671Y-31406202D01*
X94317664Y-31406206D01*
X94202455Y-31492452D01*
X94202452Y-31492455D01*
X94116206Y-31607664D01*
X94116202Y-31607671D01*
X94065908Y-31742516D01*
X94063625Y-31763757D01*
X94036886Y-31828308D01*
X93979493Y-31868155D01*
X93940336Y-31874500D01*
X91864006Y-31874500D01*
X91796967Y-31854815D01*
X91776325Y-31838181D01*
X87758102Y-27819957D01*
X87758098Y-27819954D01*
X87614711Y-27724145D01*
X87614698Y-27724138D01*
X87455378Y-27658146D01*
X87455366Y-27658143D01*
X87286232Y-27624500D01*
X87286229Y-27624500D01*
X84486229Y-27624500D01*
X84313771Y-27624500D01*
X84313768Y-27624500D01*
X84144633Y-27658143D01*
X84144621Y-27658146D01*
X83985301Y-27724138D01*
X83985288Y-27724145D01*
X83841901Y-27819954D01*
X83841897Y-27819957D01*
X83160888Y-28500968D01*
X82941901Y-28719955D01*
X82907462Y-28754394D01*
X82819953Y-28841902D01*
X82724145Y-28985288D01*
X82724138Y-28985301D01*
X82658146Y-29144621D01*
X82658143Y-29144633D01*
X82624500Y-29313766D01*
X82624500Y-30187382D01*
X82604815Y-30254421D01*
X82600819Y-30260267D01*
X82516003Y-30377006D01*
X82433788Y-30538360D01*
X82433787Y-30538363D01*
X82377829Y-30710589D01*
X82349500Y-30889448D01*
X82349500Y-30975500D01*
X82329815Y-31042539D01*
X82277011Y-31088294D01*
X82225500Y-31099500D01*
X82139449Y-31099500D01*
X81960589Y-31127829D01*
X81788363Y-31183787D01*
X81788360Y-31183788D01*
X81627002Y-31266006D01*
X81480505Y-31372441D01*
X81480500Y-31372445D01*
X81352445Y-31500500D01*
X81352441Y-31500505D01*
X81246006Y-31647002D01*
X81163788Y-31808360D01*
X81163787Y-31808363D01*
X81107829Y-31980589D01*
X81079500Y-32159448D01*
X81079500Y-32340551D01*
X81107829Y-32519410D01*
X81163787Y-32691636D01*
X81163788Y-32691639D01*
X81218326Y-32798674D01*
X81224210Y-32810222D01*
X81246006Y-32852997D01*
X81352441Y-32999494D01*
X81352445Y-32999499D01*
X81480500Y-33127554D01*
X81480505Y-33127558D01*
X81553808Y-33180815D01*
X81627006Y-33233996D01*
X81724192Y-33283515D01*
X81788360Y-33316211D01*
X81788363Y-33316212D01*
X81861125Y-33339853D01*
X81960591Y-33372171D01*
X82043409Y-33385288D01*
X82139449Y-33400500D01*
X82139454Y-33400500D01*
X82320551Y-33400500D01*
X82416509Y-33385301D01*
X82499409Y-33372171D01*
X82671639Y-33316211D01*
X82735808Y-33283514D01*
X82792103Y-33270000D01*
X83219670Y-33270000D01*
X83199925Y-33289745D01*
X83150556Y-33375255D01*
X83125000Y-33470630D01*
X83125000Y-33569370D01*
X83150556Y-33664745D01*
X83199925Y-33750255D01*
X83219670Y-33770000D01*
X82350000Y-33770000D01*
X82350000Y-34217844D01*
X82356401Y-34277372D01*
X82356403Y-34277379D01*
X82406645Y-34412086D01*
X82406649Y-34412093D01*
X82492809Y-34527187D01*
X82492812Y-34527190D01*
X82607906Y-34613350D01*
X82607913Y-34613354D01*
X82742620Y-34663596D01*
X82742627Y-34663598D01*
X82802155Y-34669999D01*
X82802172Y-34670000D01*
X83250000Y-34670000D01*
X83250000Y-33800330D01*
X83269745Y-33820075D01*
X83355255Y-33869444D01*
X83450630Y-33895000D01*
X83549370Y-33895000D01*
X83644745Y-33869444D01*
X83730255Y-33820075D01*
X83750000Y-33800330D01*
X83750000Y-34670000D01*
X84197828Y-34670000D01*
X84197844Y-34669999D01*
X84257372Y-34663598D01*
X84257379Y-34663596D01*
X84392086Y-34613354D01*
X84392093Y-34613350D01*
X84507187Y-34527190D01*
X84507190Y-34527187D01*
X84593350Y-34412093D01*
X84593354Y-34412086D01*
X84643596Y-34277379D01*
X84643598Y-34277372D01*
X84649999Y-34217844D01*
X84650000Y-34217827D01*
X84650000Y-34087506D01*
X84656238Y-34066260D01*
X84657818Y-34044172D01*
X84665890Y-34033388D01*
X84669685Y-34020467D01*
X84686418Y-34005967D01*
X84699690Y-33988239D01*
X84712310Y-33983531D01*
X84722489Y-33974712D01*
X84744406Y-33971560D01*
X84765154Y-33963822D01*
X84778314Y-33966684D01*
X84791647Y-33964768D01*
X84811790Y-33973967D01*
X84833427Y-33978674D01*
X84851152Y-33991942D01*
X84855203Y-33993793D01*
X84861681Y-33999825D01*
X84988181Y-34126325D01*
X85021666Y-34187648D01*
X85024500Y-34214006D01*
X85024500Y-35385994D01*
X85004815Y-35453033D01*
X84988181Y-35473675D01*
X83963675Y-36498181D01*
X83902352Y-36531666D01*
X83875994Y-36534500D01*
X77015047Y-36534500D01*
X76948008Y-36514815D01*
X76927366Y-36498181D01*
X76847213Y-36418028D01*
X76681613Y-36297715D01*
X76681612Y-36297714D01*
X76681610Y-36297713D01*
X76606613Y-36259500D01*
X76499223Y-36204781D01*
X76304534Y-36141522D01*
X76129995Y-36113878D01*
X76102352Y-36109500D01*
X75897648Y-36109500D01*
X75873329Y-36113351D01*
X75695465Y-36141522D01*
X75500776Y-36204781D01*
X75318386Y-36297715D01*
X75152786Y-36418028D01*
X75008028Y-36562786D01*
X74887715Y-36728386D01*
X74794781Y-36910776D01*
X74731522Y-37105465D01*
X74699500Y-37307648D01*
X74699500Y-37420994D01*
X74679815Y-37488033D01*
X74663181Y-37508675D01*
X73959675Y-38212181D01*
X73898352Y-38245666D01*
X73871994Y-38248500D01*
X71288006Y-38248500D01*
X71220967Y-38228815D01*
X71200325Y-38212181D01*
X70469001Y-37480857D01*
X70435516Y-37419534D01*
X70440500Y-37349842D01*
X70482372Y-37293909D01*
X70537288Y-37270702D01*
X70554421Y-37267988D01*
X70749031Y-37204755D01*
X70931349Y-37111859D01*
X70975921Y-37079474D01*
X70296446Y-36400000D01*
X70302661Y-36400000D01*
X70404394Y-36372741D01*
X70495606Y-36320080D01*
X70570080Y-36245606D01*
X70622741Y-36154394D01*
X70650000Y-36052661D01*
X70650000Y-36046447D01*
X71329474Y-36725921D01*
X71361859Y-36681349D01*
X71454755Y-36499031D01*
X71517990Y-36304417D01*
X71550000Y-36102317D01*
X71550000Y-35897682D01*
X71517990Y-35695582D01*
X71454755Y-35500968D01*
X71361859Y-35318650D01*
X71329474Y-35274077D01*
X71329474Y-35274076D01*
X70650000Y-35953551D01*
X70650000Y-35947339D01*
X70622741Y-35845606D01*
X70570080Y-35754394D01*
X70495606Y-35679920D01*
X70404394Y-35627259D01*
X70302661Y-35600000D01*
X70296446Y-35600000D01*
X70975922Y-34920524D01*
X70975921Y-34920523D01*
X70931359Y-34888147D01*
X70931350Y-34888141D01*
X70749031Y-34795244D01*
X70554417Y-34732009D01*
X70352317Y-34700000D01*
X70147683Y-34700000D01*
X69945582Y-34732009D01*
X69750968Y-34795244D01*
X69568644Y-34888143D01*
X69524077Y-34920523D01*
X69524077Y-34920524D01*
X70203554Y-35600000D01*
X70197339Y-35600000D01*
X70095606Y-35627259D01*
X70004394Y-35679920D01*
X69929920Y-35754394D01*
X69877259Y-35845606D01*
X69850000Y-35947339D01*
X69850000Y-35953553D01*
X69165513Y-35269066D01*
X69115849Y-35258633D01*
X69066093Y-35209581D01*
X69054076Y-35178947D01*
X69050499Y-35164377D01*
X69050499Y-35152128D01*
X69044091Y-35092517D01*
X69011212Y-35004365D01*
X69011211Y-35004359D01*
X68993797Y-34957671D01*
X68993793Y-34957664D01*
X68907547Y-34842455D01*
X68907544Y-34842452D01*
X68792335Y-34756206D01*
X68792330Y-34756203D01*
X68706166Y-34724066D01*
X68650233Y-34682194D01*
X68625816Y-34616730D01*
X68625500Y-34607884D01*
X68625500Y-30392115D01*
X68645185Y-30325076D01*
X68697989Y-30279321D01*
X68706167Y-30275933D01*
X68792328Y-30243797D01*
X68792327Y-30243797D01*
X68792331Y-30243796D01*
X68907546Y-30157546D01*
X68993796Y-30042331D01*
X69044091Y-29907483D01*
X69050500Y-29847873D01*
X69050499Y-29835612D01*
X69054075Y-29821052D01*
X69064342Y-29803380D01*
X69070067Y-29783760D01*
X69081539Y-29773783D01*
X69089177Y-29760640D01*
X69107367Y-29751325D01*
X69122792Y-29737913D01*
X69139280Y-29734984D01*
X69151367Y-29728795D01*
X69166018Y-29730234D01*
X69166254Y-29730192D01*
X69850000Y-29046446D01*
X69850000Y-29052661D01*
X69877259Y-29154394D01*
X69929920Y-29245606D01*
X70004394Y-29320080D01*
X70095606Y-29372741D01*
X70197339Y-29400000D01*
X70203553Y-29400000D01*
X69524076Y-30079474D01*
X69568650Y-30111859D01*
X69750968Y-30204755D01*
X69945582Y-30267990D01*
X70147683Y-30300000D01*
X70352317Y-30300000D01*
X70554417Y-30267990D01*
X70749031Y-30204755D01*
X70931349Y-30111859D01*
X70975921Y-30079474D01*
X70296447Y-29400000D01*
X70302661Y-29400000D01*
X70404394Y-29372741D01*
X70495606Y-29320080D01*
X70570080Y-29245606D01*
X70622741Y-29154394D01*
X70650000Y-29052661D01*
X70650000Y-29046447D01*
X71329474Y-29725921D01*
X71361859Y-29681349D01*
X71454755Y-29499031D01*
X71517990Y-29304417D01*
X71550000Y-29102317D01*
X71550000Y-28897682D01*
X71517990Y-28695582D01*
X71454755Y-28500968D01*
X71361859Y-28318650D01*
X71329474Y-28274077D01*
X71329474Y-28274076D01*
X70650000Y-28953551D01*
X70650000Y-28947339D01*
X70622741Y-28845606D01*
X70570080Y-28754394D01*
X70495606Y-28679920D01*
X70404394Y-28627259D01*
X70302661Y-28600000D01*
X70296446Y-28600000D01*
X70975922Y-27920524D01*
X70975921Y-27920523D01*
X70931359Y-27888147D01*
X70931350Y-27888141D01*
X70749031Y-27795244D01*
X70554417Y-27732009D01*
X70352317Y-27700000D01*
X70147683Y-27700000D01*
X69945582Y-27732009D01*
X69750968Y-27795244D01*
X69568644Y-27888143D01*
X69524077Y-27920523D01*
X69524077Y-27920524D01*
X70203554Y-28600000D01*
X70197339Y-28600000D01*
X70095606Y-28627259D01*
X70004394Y-28679920D01*
X69929920Y-28754394D01*
X69877259Y-28845606D01*
X69850000Y-28947339D01*
X69850000Y-28953553D01*
X69165513Y-28269066D01*
X69115849Y-28258633D01*
X69066093Y-28209581D01*
X69054076Y-28178947D01*
X69050499Y-28164378D01*
X69050499Y-28152128D01*
X69044091Y-28092517D01*
X69011212Y-28004365D01*
X69011211Y-28004359D01*
X68993797Y-27957671D01*
X68993793Y-27957664D01*
X68907547Y-27842455D01*
X68907544Y-27842452D01*
X68792335Y-27756206D01*
X68792328Y-27756202D01*
X68657482Y-27705908D01*
X68657483Y-27705908D01*
X68597883Y-27699501D01*
X68597881Y-27699500D01*
X68597873Y-27699500D01*
X68597865Y-27699500D01*
X67739006Y-27699500D01*
X67709565Y-27690855D01*
X67679579Y-27684332D01*
X67674563Y-27680577D01*
X67671967Y-27679815D01*
X67651325Y-27663181D01*
X67538762Y-27550618D01*
X67112889Y-27124744D01*
X66988145Y-27000000D01*
X74723391Y-27000000D01*
X75684314Y-27000000D01*
X75679920Y-27004394D01*
X75627259Y-27095606D01*
X75600000Y-27197339D01*
X75600000Y-27302661D01*
X75627259Y-27404394D01*
X75679920Y-27495606D01*
X75684314Y-27500000D01*
X74723391Y-27500000D01*
X74732009Y-27554413D01*
X74795244Y-27749029D01*
X74888140Y-27931349D01*
X75008417Y-28096894D01*
X75008417Y-28096895D01*
X75153104Y-28241582D01*
X75318650Y-28361859D01*
X75500968Y-28454754D01*
X75695578Y-28517988D01*
X75750000Y-28526607D01*
X75750000Y-27565686D01*
X75754394Y-27570080D01*
X75845606Y-27622741D01*
X75947339Y-27650000D01*
X76052661Y-27650000D01*
X76154394Y-27622741D01*
X76245606Y-27570080D01*
X76250000Y-27565686D01*
X76250000Y-28526606D01*
X76304421Y-28517988D01*
X76499031Y-28454754D01*
X76681349Y-28361859D01*
X76846894Y-28241582D01*
X76846895Y-28241582D01*
X76991582Y-28096895D01*
X76991582Y-28096894D01*
X77111859Y-27931349D01*
X77204755Y-27749029D01*
X77267990Y-27554413D01*
X77276609Y-27500000D01*
X76315686Y-27500000D01*
X76320080Y-27495606D01*
X76372741Y-27404394D01*
X76400000Y-27302661D01*
X76400000Y-27197339D01*
X76372741Y-27095606D01*
X76320080Y-27004394D01*
X76315686Y-27000000D01*
X77276609Y-27000000D01*
X77267990Y-26945586D01*
X77204755Y-26750970D01*
X77111859Y-26568650D01*
X76991582Y-26403105D01*
X76991582Y-26403104D01*
X76846895Y-26258417D01*
X76681349Y-26138140D01*
X76499029Y-26045244D01*
X76304413Y-25982009D01*
X76250000Y-25973390D01*
X76250000Y-26934314D01*
X76245606Y-26929920D01*
X76154394Y-26877259D01*
X76052661Y-26850000D01*
X75947339Y-26850000D01*
X75845606Y-26877259D01*
X75754394Y-26929920D01*
X75750000Y-26934314D01*
X75750000Y-25973390D01*
X75695586Y-25982009D01*
X75500970Y-26045244D01*
X75318650Y-26138140D01*
X75153105Y-26258417D01*
X75153104Y-26258417D01*
X75008417Y-26403104D01*
X75008417Y-26403105D01*
X74888140Y-26568650D01*
X74795244Y-26750970D01*
X74732009Y-26945586D01*
X74723391Y-27000000D01*
X66988145Y-27000000D01*
X66728102Y-26739957D01*
X66728098Y-26739954D01*
X66584711Y-26644145D01*
X66584698Y-26644138D01*
X66425378Y-26578146D01*
X66425366Y-26578143D01*
X66256232Y-26544500D01*
X66256229Y-26544500D01*
X63515047Y-26544500D01*
X63448008Y-26524815D01*
X63427366Y-26508181D01*
X63347213Y-26428028D01*
X63181613Y-26307715D01*
X63181612Y-26307714D01*
X63181610Y-26307713D01*
X63086098Y-26259047D01*
X62999223Y-26214781D01*
X62804534Y-26151522D01*
X62629995Y-26123878D01*
X62602352Y-26119500D01*
X62397648Y-26119500D01*
X62373329Y-26123351D01*
X62195465Y-26151522D01*
X62000776Y-26214781D01*
X61818386Y-26307715D01*
X61652786Y-26428028D01*
X61508028Y-26572786D01*
X61387715Y-26738386D01*
X61294781Y-26920776D01*
X61231522Y-27115465D01*
X61199500Y-27317648D01*
X61199500Y-27522351D01*
X61231522Y-27724534D01*
X61294781Y-27919223D01*
X61314371Y-27957669D01*
X61385310Y-28096894D01*
X61387715Y-28101613D01*
X61508028Y-28267213D01*
X61652786Y-28411971D01*
X61790858Y-28512284D01*
X61818390Y-28532287D01*
X61934607Y-28591503D01*
X62000776Y-28625218D01*
X62000778Y-28625218D01*
X62000781Y-28625220D01*
X62066108Y-28646446D01*
X62195465Y-28688477D01*
X62240324Y-28695582D01*
X62397648Y-28720500D01*
X62397649Y-28720500D01*
X62602351Y-28720500D01*
X62602352Y-28720500D01*
X62804534Y-28688477D01*
X62999219Y-28625220D01*
X63181610Y-28532287D01*
X63288326Y-28454754D01*
X63347213Y-28411971D01*
X63347215Y-28411968D01*
X63347219Y-28411966D01*
X63427366Y-28331819D01*
X63488689Y-28298334D01*
X63515047Y-28295500D01*
X65755994Y-28295500D01*
X65823033Y-28315185D01*
X65843675Y-28331819D01*
X66413181Y-28901325D01*
X66446666Y-28962648D01*
X66449500Y-28989006D01*
X66449500Y-29847870D01*
X66449501Y-29847876D01*
X66455908Y-29907483D01*
X66506202Y-30042328D01*
X66506206Y-30042335D01*
X66592452Y-30157544D01*
X66592455Y-30157547D01*
X66707664Y-30243793D01*
X66707671Y-30243797D01*
X66793833Y-30275933D01*
X66849766Y-30317804D01*
X66874184Y-30383268D01*
X66874500Y-30392115D01*
X66874500Y-34607884D01*
X66854815Y-34674923D01*
X66802011Y-34720678D01*
X66793834Y-34724066D01*
X66707669Y-34756203D01*
X66707664Y-34756206D01*
X66592455Y-34842452D01*
X66592452Y-34842455D01*
X66506206Y-34957664D01*
X66506202Y-34957671D01*
X66455908Y-35092517D01*
X66449501Y-35152116D01*
X66449500Y-35152135D01*
X66449500Y-36847870D01*
X66449501Y-36847876D01*
X66455908Y-36907483D01*
X66506202Y-37042328D01*
X66506206Y-37042335D01*
X66592452Y-37157544D01*
X66592455Y-37157547D01*
X66707664Y-37243793D01*
X66707671Y-37243797D01*
X66842517Y-37294091D01*
X66842516Y-37294091D01*
X66849444Y-37294835D01*
X66902127Y-37300500D01*
X67760993Y-37300499D01*
X67828032Y-37320183D01*
X67848674Y-37336818D01*
X69799675Y-39287819D01*
X69833160Y-39349142D01*
X69828176Y-39418834D01*
X69786304Y-39474767D01*
X69720840Y-39499184D01*
X69711994Y-39499500D01*
X52504067Y-39499500D01*
X52495957Y-39499235D01*
X52247116Y-39482925D01*
X52231035Y-39480807D01*
X51990464Y-39432954D01*
X51974797Y-39428756D01*
X51742520Y-39349909D01*
X51727534Y-39343702D01*
X51507539Y-39235212D01*
X51493492Y-39227102D01*
X51289539Y-39090825D01*
X51276671Y-39080951D01*
X51092250Y-38919218D01*
X51080781Y-38907749D01*
X50961981Y-38772284D01*
X50919045Y-38723325D01*
X50909174Y-38710460D01*
X50897031Y-38692287D01*
X50772897Y-38506507D01*
X50764787Y-38492460D01*
X50720160Y-38401966D01*
X50656294Y-38272458D01*
X50650090Y-38257479D01*
X50634713Y-38212181D01*
X50593253Y-38090042D01*
X50571243Y-38025202D01*
X50567045Y-38009535D01*
X50539896Y-37873048D01*
X50519190Y-37768953D01*
X50517075Y-37752895D01*
X50500765Y-37504043D01*
X50500500Y-37495933D01*
X50500500Y-27504066D01*
X50500765Y-27495957D01*
X50503249Y-27458054D01*
X50508705Y-27374802D01*
X50999500Y-27374802D01*
X50999500Y-27434108D01*
X50999500Y-37434108D01*
X50999500Y-37500000D01*
X50999500Y-37625198D01*
X51004842Y-37662351D01*
X51035135Y-37873044D01*
X51035136Y-37873048D01*
X51105676Y-38113291D01*
X51105678Y-38113297D01*
X51209695Y-38341061D01*
X51209705Y-38341079D01*
X51345068Y-38551708D01*
X51345072Y-38551714D01*
X51509047Y-38740952D01*
X51698285Y-38904927D01*
X51698291Y-38904931D01*
X51908920Y-39040294D01*
X51908928Y-39040298D01*
X51908932Y-39040301D01*
X51908935Y-39040302D01*
X51908938Y-39040304D01*
X52136702Y-39144321D01*
X52136708Y-39144323D01*
X52339788Y-39203951D01*
X52376954Y-39214864D01*
X52624802Y-39250500D01*
X52624803Y-39250500D01*
X52875197Y-39250500D01*
X52875198Y-39250500D01*
X53123046Y-39214864D01*
X53251803Y-39177057D01*
X53363291Y-39144323D01*
X53363297Y-39144321D01*
X53363297Y-39144320D01*
X53363300Y-39144320D01*
X53591068Y-39040301D01*
X53801715Y-38904927D01*
X53990952Y-38740952D01*
X54154927Y-38551715D01*
X54290301Y-38341068D01*
X54394320Y-38113300D01*
X54410200Y-38059219D01*
X54445045Y-37940545D01*
X54464864Y-37873046D01*
X54500500Y-37625198D01*
X54500500Y-37500000D01*
X54500500Y-37434108D01*
X54500500Y-32643713D01*
X56149500Y-32643713D01*
X56149500Y-32856286D01*
X56181583Y-33058853D01*
X56182754Y-33066243D01*
X56239829Y-33241902D01*
X56248444Y-33268414D01*
X56344951Y-33457820D01*
X56469890Y-33629786D01*
X56583430Y-33743326D01*
X56616915Y-33804649D01*
X56611931Y-33874341D01*
X56570059Y-33930274D01*
X56539083Y-33947189D01*
X56407669Y-33996203D01*
X56407664Y-33996206D01*
X56292455Y-34082452D01*
X56292452Y-34082455D01*
X56206206Y-34197664D01*
X56206202Y-34197671D01*
X56155908Y-34332517D01*
X56149501Y-34392116D01*
X56149501Y-34392123D01*
X56149500Y-34392135D01*
X56149500Y-36187870D01*
X56149501Y-36187876D01*
X56155908Y-36247483D01*
X56206202Y-36382328D01*
X56206206Y-36382335D01*
X56292452Y-36497544D01*
X56292455Y-36497547D01*
X56407664Y-36583793D01*
X56407671Y-36583797D01*
X56542517Y-36634091D01*
X56542516Y-36634091D01*
X56549444Y-36634835D01*
X56602127Y-36640500D01*
X58397872Y-36640499D01*
X58457483Y-36634091D01*
X58592331Y-36583796D01*
X58707546Y-36497546D01*
X58793796Y-36382331D01*
X58844091Y-36247483D01*
X58850500Y-36187873D01*
X58850499Y-34392128D01*
X58844091Y-34332517D01*
X58840784Y-34323651D01*
X58793797Y-34197671D01*
X58793793Y-34197664D01*
X58707547Y-34082455D01*
X58707544Y-34082452D01*
X58592335Y-33996206D01*
X58592328Y-33996202D01*
X58460917Y-33947189D01*
X58460916Y-33947189D01*
X58404982Y-33905317D01*
X58381605Y-33842638D01*
X58380566Y-33839853D01*
X58380577Y-33839804D01*
X58395418Y-33771579D01*
X58416563Y-33743332D01*
X58498079Y-33661816D01*
X58559401Y-33628334D01*
X58585758Y-33625500D01*
X59335994Y-33625500D01*
X59403033Y-33645185D01*
X59423675Y-33661819D01*
X61588181Y-35826325D01*
X61621666Y-35887648D01*
X61624500Y-35914006D01*
X61624500Y-36564953D01*
X61604815Y-36631992D01*
X61588181Y-36652634D01*
X61508032Y-36732782D01*
X61508028Y-36732786D01*
X61387715Y-36898386D01*
X61294781Y-37080776D01*
X61231522Y-37275465D01*
X61199500Y-37477648D01*
X61199500Y-37682351D01*
X61231522Y-37884534D01*
X61294781Y-38079223D01*
X61330379Y-38149086D01*
X61385608Y-38257479D01*
X61387715Y-38261613D01*
X61508028Y-38427213D01*
X61652786Y-38571971D01*
X61762892Y-38651966D01*
X61818390Y-38692287D01*
X61925415Y-38746819D01*
X62000776Y-38785218D01*
X62000778Y-38785218D01*
X62000781Y-38785220D01*
X62105137Y-38819127D01*
X62195465Y-38848477D01*
X62271375Y-38860500D01*
X62397648Y-38880500D01*
X62397649Y-38880500D01*
X62602351Y-38880500D01*
X62602352Y-38880500D01*
X62804534Y-38848477D01*
X62999219Y-38785220D01*
X63181610Y-38692287D01*
X63274590Y-38624732D01*
X63347213Y-38571971D01*
X63347215Y-38571968D01*
X63347219Y-38571966D01*
X63491966Y-38427219D01*
X63491968Y-38427215D01*
X63491971Y-38427213D01*
X63568543Y-38321819D01*
X63612287Y-38261610D01*
X63705220Y-38079219D01*
X63768477Y-37884534D01*
X63800500Y-37682352D01*
X63800500Y-37477648D01*
X63791527Y-37420994D01*
X63768477Y-37275465D01*
X63739127Y-37185137D01*
X63705220Y-37080781D01*
X63705218Y-37080778D01*
X63705218Y-37080776D01*
X63653047Y-36978386D01*
X63612287Y-36898390D01*
X63575584Y-36847872D01*
X63491971Y-36732786D01*
X63411819Y-36652634D01*
X63378334Y-36591311D01*
X63375500Y-36564953D01*
X63375500Y-35413768D01*
X63375499Y-35413766D01*
X63341856Y-35244633D01*
X63341855Y-35244626D01*
X63303536Y-35152116D01*
X63275861Y-35085301D01*
X63275854Y-35085288D01*
X63180046Y-34941902D01*
X63126285Y-34888141D01*
X63058099Y-34819955D01*
X61684053Y-33445909D01*
X60308102Y-32069957D01*
X60308098Y-32069954D01*
X60164711Y-31974145D01*
X60164698Y-31974138D01*
X60005378Y-31908146D01*
X60005366Y-31908143D01*
X59836232Y-31874500D01*
X59836229Y-31874500D01*
X58585758Y-31874500D01*
X58518719Y-31854815D01*
X58498077Y-31838181D01*
X58379786Y-31719890D01*
X58207817Y-31594949D01*
X58198504Y-31590204D01*
X58147707Y-31542230D01*
X58130912Y-31474409D01*
X58153449Y-31408274D01*
X58198507Y-31369232D01*
X58207555Y-31364622D01*
X58261716Y-31325270D01*
X58261717Y-31325270D01*
X57629408Y-30692962D01*
X57692993Y-30675925D01*
X57807007Y-30610099D01*
X57900099Y-30517007D01*
X57965925Y-30402993D01*
X57982962Y-30339409D01*
X58615270Y-30971717D01*
X58615270Y-30971716D01*
X58654622Y-30917554D01*
X58751095Y-30728217D01*
X58816757Y-30526130D01*
X58816757Y-30526127D01*
X58850000Y-30316246D01*
X58850000Y-30103753D01*
X58816757Y-29893872D01*
X58816757Y-29893869D01*
X58751095Y-29691782D01*
X58654624Y-29502449D01*
X58615270Y-29448282D01*
X58615269Y-29448282D01*
X57982962Y-30080590D01*
X57965925Y-30017007D01*
X57900099Y-29902993D01*
X57807007Y-29809901D01*
X57692993Y-29744075D01*
X57629409Y-29727037D01*
X58261716Y-29094728D01*
X58207550Y-29055375D01*
X58018217Y-28958904D01*
X57816129Y-28893242D01*
X57606246Y-28860000D01*
X57393754Y-28860000D01*
X57183872Y-28893242D01*
X57183869Y-28893242D01*
X56981782Y-28958904D01*
X56792439Y-29055380D01*
X56738282Y-29094727D01*
X56738282Y-29094728D01*
X57370591Y-29727037D01*
X57307007Y-29744075D01*
X57192993Y-29809901D01*
X57099901Y-29902993D01*
X57034075Y-30017007D01*
X57017037Y-30080591D01*
X56384728Y-29448282D01*
X56384727Y-29448282D01*
X56345380Y-29502439D01*
X56248904Y-29691782D01*
X56183242Y-29893869D01*
X56183242Y-29893872D01*
X56150000Y-30103753D01*
X56150000Y-30316246D01*
X56183242Y-30526127D01*
X56183242Y-30526130D01*
X56248904Y-30728217D01*
X56345375Y-30917550D01*
X56384728Y-30971716D01*
X57017037Y-30339408D01*
X57034075Y-30402993D01*
X57099901Y-30517007D01*
X57192993Y-30610099D01*
X57307007Y-30675925D01*
X57370590Y-30692962D01*
X56738282Y-31325269D01*
X56738282Y-31325270D01*
X56792452Y-31364626D01*
X56792451Y-31364626D01*
X56801495Y-31369234D01*
X56852292Y-31417208D01*
X56869087Y-31485029D01*
X56846550Y-31551164D01*
X56801499Y-31590202D01*
X56792182Y-31594949D01*
X56620213Y-31719890D01*
X56469890Y-31870213D01*
X56344951Y-32042179D01*
X56248444Y-32231585D01*
X56182753Y-32433760D01*
X56149500Y-32643713D01*
X54500500Y-32643713D01*
X54500500Y-27434108D01*
X54500500Y-27374802D01*
X54464864Y-27126954D01*
X54445045Y-27059455D01*
X54394323Y-26886708D01*
X54394321Y-26886702D01*
X54290304Y-26658938D01*
X54290294Y-26658920D01*
X54154931Y-26448291D01*
X54154927Y-26448285D01*
X53990952Y-26259047D01*
X53801714Y-26095072D01*
X53801708Y-26095068D01*
X53591079Y-25959705D01*
X53591061Y-25959695D01*
X53363297Y-25855678D01*
X53363291Y-25855676D01*
X53123048Y-25785136D01*
X53123044Y-25785135D01*
X52946468Y-25759747D01*
X52875198Y-25749500D01*
X52624802Y-25749500D01*
X52589167Y-25754623D01*
X52376955Y-25785135D01*
X52376951Y-25785136D01*
X52136708Y-25855676D01*
X52136702Y-25855678D01*
X51908938Y-25959695D01*
X51908920Y-25959705D01*
X51698291Y-26095068D01*
X51698285Y-26095072D01*
X51509047Y-26259047D01*
X51345072Y-26448285D01*
X51345068Y-26448291D01*
X51209705Y-26658920D01*
X51209695Y-26658938D01*
X51105678Y-26886702D01*
X51105676Y-26886708D01*
X51035136Y-27126951D01*
X51035135Y-27126955D01*
X51007718Y-27317648D01*
X50999500Y-27374802D01*
X50508705Y-27374802D01*
X50517075Y-27247102D01*
X50519190Y-27231048D01*
X50567045Y-26990462D01*
X50571243Y-26974797D01*
X50604353Y-26877259D01*
X50650093Y-26742512D01*
X50656291Y-26727547D01*
X50764790Y-26507533D01*
X50772893Y-26493498D01*
X50909182Y-26289527D01*
X50919039Y-26276681D01*
X51080786Y-26092244D01*
X51092244Y-26080786D01*
X51276681Y-25919039D01*
X51289527Y-25909182D01*
X51493498Y-25772893D01*
X51507533Y-25764790D01*
X51727547Y-25656291D01*
X51742512Y-25650093D01*
X51906762Y-25594337D01*
X51974797Y-25571243D01*
X51990464Y-25567045D01*
X52231048Y-25519190D01*
X52247102Y-25517075D01*
X52495957Y-25500765D01*
X52504067Y-25500500D01*
X52565892Y-25500500D01*
X147434108Y-25500500D01*
X147495933Y-25500500D01*
X147504043Y-25500765D01*
G37*
%TD.AperFunction*%
%TD*%
M02*
