%TF.GenerationSoftware,KiCad,Pcbnew,9.0.0*%
%TF.CreationDate,2025-06-20T16:33:01-04:00*%
%TF.ProjectId,proyecto_2_modulo,70726f79-6563-4746-9f5f-325f6d6f6475,rev?*%
%TF.SameCoordinates,Original*%
%TF.FileFunction,Legend,Top*%
%TF.FilePolarity,Positive*%
%FSLAX46Y46*%
G04 Gerber Fmt 4.6, Leading zero omitted, Abs format (unit mm)*
G04 Created by KiCad (PCBNEW 9.0.0) date 2025-06-20 16:33:01*
%MOMM*%
%LPD*%
G01*
G04 APERTURE LIST*
%ADD10C,0.150000*%
%ADD11C,0.120000*%
G04 APERTURE END LIST*
D10*
X80490057Y-32345238D02*
X80442438Y-32440476D01*
X80442438Y-32440476D02*
X80347200Y-32535714D01*
X80347200Y-32535714D02*
X80204342Y-32678571D01*
X80204342Y-32678571D02*
X80156723Y-32773809D01*
X80156723Y-32773809D02*
X80156723Y-32869047D01*
X80394819Y-32821428D02*
X80347200Y-32916666D01*
X80347200Y-32916666D02*
X80251961Y-33011904D01*
X80251961Y-33011904D02*
X80061485Y-33059523D01*
X80061485Y-33059523D02*
X79728152Y-33059523D01*
X79728152Y-33059523D02*
X79537676Y-33011904D01*
X79537676Y-33011904D02*
X79442438Y-32916666D01*
X79442438Y-32916666D02*
X79394819Y-32821428D01*
X79394819Y-32821428D02*
X79394819Y-32630952D01*
X79394819Y-32630952D02*
X79442438Y-32535714D01*
X79442438Y-32535714D02*
X79537676Y-32440476D01*
X79537676Y-32440476D02*
X79728152Y-32392857D01*
X79728152Y-32392857D02*
X80061485Y-32392857D01*
X80061485Y-32392857D02*
X80251961Y-32440476D01*
X80251961Y-32440476D02*
X80347200Y-32535714D01*
X80347200Y-32535714D02*
X80394819Y-32630952D01*
X80394819Y-32630952D02*
X80394819Y-32821428D01*
X79490057Y-32011904D02*
X79442438Y-31964285D01*
X79442438Y-31964285D02*
X79394819Y-31869047D01*
X79394819Y-31869047D02*
X79394819Y-31630952D01*
X79394819Y-31630952D02*
X79442438Y-31535714D01*
X79442438Y-31535714D02*
X79490057Y-31488095D01*
X79490057Y-31488095D02*
X79585295Y-31440476D01*
X79585295Y-31440476D02*
X79680533Y-31440476D01*
X79680533Y-31440476D02*
X79823390Y-31488095D01*
X79823390Y-31488095D02*
X80394819Y-32059523D01*
X80394819Y-32059523D02*
X80394819Y-31440476D01*
X60584819Y-33142857D02*
X60108628Y-33476190D01*
X60584819Y-33714285D02*
X59584819Y-33714285D01*
X59584819Y-33714285D02*
X59584819Y-33333333D01*
X59584819Y-33333333D02*
X59632438Y-33238095D01*
X59632438Y-33238095D02*
X59680057Y-33190476D01*
X59680057Y-33190476D02*
X59775295Y-33142857D01*
X59775295Y-33142857D02*
X59918152Y-33142857D01*
X59918152Y-33142857D02*
X60013390Y-33190476D01*
X60013390Y-33190476D02*
X60061009Y-33238095D01*
X60061009Y-33238095D02*
X60108628Y-33333333D01*
X60108628Y-33333333D02*
X60108628Y-33714285D01*
X60584819Y-32190476D02*
X60584819Y-32761904D01*
X60584819Y-32476190D02*
X59584819Y-32476190D01*
X59584819Y-32476190D02*
X59727676Y-32571428D01*
X59727676Y-32571428D02*
X59822914Y-32666666D01*
X59822914Y-32666666D02*
X59870533Y-32761904D01*
X59584819Y-31285714D02*
X59584819Y-31761904D01*
X59584819Y-31761904D02*
X60061009Y-31809523D01*
X60061009Y-31809523D02*
X60013390Y-31761904D01*
X60013390Y-31761904D02*
X59965771Y-31666666D01*
X59965771Y-31666666D02*
X59965771Y-31428571D01*
X59965771Y-31428571D02*
X60013390Y-31333333D01*
X60013390Y-31333333D02*
X60061009Y-31285714D01*
X60061009Y-31285714D02*
X60156247Y-31238095D01*
X60156247Y-31238095D02*
X60394342Y-31238095D01*
X60394342Y-31238095D02*
X60489580Y-31285714D01*
X60489580Y-31285714D02*
X60537200Y-31333333D01*
X60537200Y-31333333D02*
X60584819Y-31428571D01*
X60584819Y-31428571D02*
X60584819Y-31666666D01*
X60584819Y-31666666D02*
X60537200Y-31761904D01*
X60537200Y-31761904D02*
X60489580Y-31809523D01*
X134530714Y-29094819D02*
X134530714Y-28094819D01*
X134530714Y-28094819D02*
X134768809Y-28094819D01*
X134768809Y-28094819D02*
X134911666Y-28142438D01*
X134911666Y-28142438D02*
X135006904Y-28237676D01*
X135006904Y-28237676D02*
X135054523Y-28332914D01*
X135054523Y-28332914D02*
X135102142Y-28523390D01*
X135102142Y-28523390D02*
X135102142Y-28666247D01*
X135102142Y-28666247D02*
X135054523Y-28856723D01*
X135054523Y-28856723D02*
X135006904Y-28951961D01*
X135006904Y-28951961D02*
X134911666Y-29047200D01*
X134911666Y-29047200D02*
X134768809Y-29094819D01*
X134768809Y-29094819D02*
X134530714Y-29094819D01*
X136054523Y-29094819D02*
X135483095Y-29094819D01*
X135768809Y-29094819D02*
X135768809Y-28094819D01*
X135768809Y-28094819D02*
X135673571Y-28237676D01*
X135673571Y-28237676D02*
X135578333Y-28332914D01*
X135578333Y-28332914D02*
X135483095Y-28380533D01*
X136673571Y-28094819D02*
X136768809Y-28094819D01*
X136768809Y-28094819D02*
X136864047Y-28142438D01*
X136864047Y-28142438D02*
X136911666Y-28190057D01*
X136911666Y-28190057D02*
X136959285Y-28285295D01*
X136959285Y-28285295D02*
X137006904Y-28475771D01*
X137006904Y-28475771D02*
X137006904Y-28713866D01*
X137006904Y-28713866D02*
X136959285Y-28904342D01*
X136959285Y-28904342D02*
X136911666Y-28999580D01*
X136911666Y-28999580D02*
X136864047Y-29047200D01*
X136864047Y-29047200D02*
X136768809Y-29094819D01*
X136768809Y-29094819D02*
X136673571Y-29094819D01*
X136673571Y-29094819D02*
X136578333Y-29047200D01*
X136578333Y-29047200D02*
X136530714Y-28999580D01*
X136530714Y-28999580D02*
X136483095Y-28904342D01*
X136483095Y-28904342D02*
X136435476Y-28713866D01*
X136435476Y-28713866D02*
X136435476Y-28475771D01*
X136435476Y-28475771D02*
X136483095Y-28285295D01*
X136483095Y-28285295D02*
X136530714Y-28190057D01*
X136530714Y-28190057D02*
X136578333Y-28142438D01*
X136578333Y-28142438D02*
X136673571Y-28094819D01*
X74084819Y-32972857D02*
X73608628Y-33306190D01*
X74084819Y-33544285D02*
X73084819Y-33544285D01*
X73084819Y-33544285D02*
X73084819Y-33163333D01*
X73084819Y-33163333D02*
X73132438Y-33068095D01*
X73132438Y-33068095D02*
X73180057Y-33020476D01*
X73180057Y-33020476D02*
X73275295Y-32972857D01*
X73275295Y-32972857D02*
X73418152Y-32972857D01*
X73418152Y-32972857D02*
X73513390Y-33020476D01*
X73513390Y-33020476D02*
X73561009Y-33068095D01*
X73561009Y-33068095D02*
X73608628Y-33163333D01*
X73608628Y-33163333D02*
X73608628Y-33544285D01*
X73180057Y-32591904D02*
X73132438Y-32544285D01*
X73132438Y-32544285D02*
X73084819Y-32449047D01*
X73084819Y-32449047D02*
X73084819Y-32210952D01*
X73084819Y-32210952D02*
X73132438Y-32115714D01*
X73132438Y-32115714D02*
X73180057Y-32068095D01*
X73180057Y-32068095D02*
X73275295Y-32020476D01*
X73275295Y-32020476D02*
X73370533Y-32020476D01*
X73370533Y-32020476D02*
X73513390Y-32068095D01*
X73513390Y-32068095D02*
X74084819Y-32639523D01*
X74084819Y-32639523D02*
X74084819Y-32020476D01*
X73180057Y-31639523D02*
X73132438Y-31591904D01*
X73132438Y-31591904D02*
X73084819Y-31496666D01*
X73084819Y-31496666D02*
X73084819Y-31258571D01*
X73084819Y-31258571D02*
X73132438Y-31163333D01*
X73132438Y-31163333D02*
X73180057Y-31115714D01*
X73180057Y-31115714D02*
X73275295Y-31068095D01*
X73275295Y-31068095D02*
X73370533Y-31068095D01*
X73370533Y-31068095D02*
X73513390Y-31115714D01*
X73513390Y-31115714D02*
X74084819Y-31687142D01*
X74084819Y-31687142D02*
X74084819Y-31068095D01*
X108691905Y-29194819D02*
X108691905Y-28194819D01*
X108691905Y-28194819D02*
X108930000Y-28194819D01*
X108930000Y-28194819D02*
X109072857Y-28242438D01*
X109072857Y-28242438D02*
X109168095Y-28337676D01*
X109168095Y-28337676D02*
X109215714Y-28432914D01*
X109215714Y-28432914D02*
X109263333Y-28623390D01*
X109263333Y-28623390D02*
X109263333Y-28766247D01*
X109263333Y-28766247D02*
X109215714Y-28956723D01*
X109215714Y-28956723D02*
X109168095Y-29051961D01*
X109168095Y-29051961D02*
X109072857Y-29147200D01*
X109072857Y-29147200D02*
X108930000Y-29194819D01*
X108930000Y-29194819D02*
X108691905Y-29194819D01*
X109596667Y-28194819D02*
X110263333Y-28194819D01*
X110263333Y-28194819D02*
X109834762Y-29194819D01*
X127334819Y-33122857D02*
X126858628Y-33456190D01*
X127334819Y-33694285D02*
X126334819Y-33694285D01*
X126334819Y-33694285D02*
X126334819Y-33313333D01*
X126334819Y-33313333D02*
X126382438Y-33218095D01*
X126382438Y-33218095D02*
X126430057Y-33170476D01*
X126430057Y-33170476D02*
X126525295Y-33122857D01*
X126525295Y-33122857D02*
X126668152Y-33122857D01*
X126668152Y-33122857D02*
X126763390Y-33170476D01*
X126763390Y-33170476D02*
X126811009Y-33218095D01*
X126811009Y-33218095D02*
X126858628Y-33313333D01*
X126858628Y-33313333D02*
X126858628Y-33694285D01*
X126430057Y-32741904D02*
X126382438Y-32694285D01*
X126382438Y-32694285D02*
X126334819Y-32599047D01*
X126334819Y-32599047D02*
X126334819Y-32360952D01*
X126334819Y-32360952D02*
X126382438Y-32265714D01*
X126382438Y-32265714D02*
X126430057Y-32218095D01*
X126430057Y-32218095D02*
X126525295Y-32170476D01*
X126525295Y-32170476D02*
X126620533Y-32170476D01*
X126620533Y-32170476D02*
X126763390Y-32218095D01*
X126763390Y-32218095D02*
X127334819Y-32789523D01*
X127334819Y-32789523D02*
X127334819Y-32170476D01*
X126334819Y-31837142D02*
X126334819Y-31218095D01*
X126334819Y-31218095D02*
X126715771Y-31551428D01*
X126715771Y-31551428D02*
X126715771Y-31408571D01*
X126715771Y-31408571D02*
X126763390Y-31313333D01*
X126763390Y-31313333D02*
X126811009Y-31265714D01*
X126811009Y-31265714D02*
X126906247Y-31218095D01*
X126906247Y-31218095D02*
X127144342Y-31218095D01*
X127144342Y-31218095D02*
X127239580Y-31265714D01*
X127239580Y-31265714D02*
X127287200Y-31313333D01*
X127287200Y-31313333D02*
X127334819Y-31408571D01*
X127334819Y-31408571D02*
X127334819Y-31694285D01*
X127334819Y-31694285D02*
X127287200Y-31789523D01*
X127287200Y-31789523D02*
X127239580Y-31837142D01*
X141190476Y-36624819D02*
X141190476Y-37339104D01*
X141190476Y-37339104D02*
X141142857Y-37481961D01*
X141142857Y-37481961D02*
X141047619Y-37577200D01*
X141047619Y-37577200D02*
X140904762Y-37624819D01*
X140904762Y-37624819D02*
X140809524Y-37624819D01*
X141619048Y-36720057D02*
X141666667Y-36672438D01*
X141666667Y-36672438D02*
X141761905Y-36624819D01*
X141761905Y-36624819D02*
X142000000Y-36624819D01*
X142000000Y-36624819D02*
X142095238Y-36672438D01*
X142095238Y-36672438D02*
X142142857Y-36720057D01*
X142142857Y-36720057D02*
X142190476Y-36815295D01*
X142190476Y-36815295D02*
X142190476Y-36910533D01*
X142190476Y-36910533D02*
X142142857Y-37053390D01*
X142142857Y-37053390D02*
X141571429Y-37624819D01*
X141571429Y-37624819D02*
X142190476Y-37624819D01*
X143142857Y-37624819D02*
X142571429Y-37624819D01*
X142857143Y-37624819D02*
X142857143Y-36624819D01*
X142857143Y-36624819D02*
X142761905Y-36767676D01*
X142761905Y-36767676D02*
X142666667Y-36862914D01*
X142666667Y-36862914D02*
X142571429Y-36910533D01*
X121991905Y-29094819D02*
X121991905Y-28094819D01*
X121991905Y-28094819D02*
X122230000Y-28094819D01*
X122230000Y-28094819D02*
X122372857Y-28142438D01*
X122372857Y-28142438D02*
X122468095Y-28237676D01*
X122468095Y-28237676D02*
X122515714Y-28332914D01*
X122515714Y-28332914D02*
X122563333Y-28523390D01*
X122563333Y-28523390D02*
X122563333Y-28666247D01*
X122563333Y-28666247D02*
X122515714Y-28856723D01*
X122515714Y-28856723D02*
X122468095Y-28951961D01*
X122468095Y-28951961D02*
X122372857Y-29047200D01*
X122372857Y-29047200D02*
X122230000Y-29094819D01*
X122230000Y-29094819D02*
X121991905Y-29094819D01*
X123134762Y-28523390D02*
X123039524Y-28475771D01*
X123039524Y-28475771D02*
X122991905Y-28428152D01*
X122991905Y-28428152D02*
X122944286Y-28332914D01*
X122944286Y-28332914D02*
X122944286Y-28285295D01*
X122944286Y-28285295D02*
X122991905Y-28190057D01*
X122991905Y-28190057D02*
X123039524Y-28142438D01*
X123039524Y-28142438D02*
X123134762Y-28094819D01*
X123134762Y-28094819D02*
X123325238Y-28094819D01*
X123325238Y-28094819D02*
X123420476Y-28142438D01*
X123420476Y-28142438D02*
X123468095Y-28190057D01*
X123468095Y-28190057D02*
X123515714Y-28285295D01*
X123515714Y-28285295D02*
X123515714Y-28332914D01*
X123515714Y-28332914D02*
X123468095Y-28428152D01*
X123468095Y-28428152D02*
X123420476Y-28475771D01*
X123420476Y-28475771D02*
X123325238Y-28523390D01*
X123325238Y-28523390D02*
X123134762Y-28523390D01*
X123134762Y-28523390D02*
X123039524Y-28571009D01*
X123039524Y-28571009D02*
X122991905Y-28618628D01*
X122991905Y-28618628D02*
X122944286Y-28713866D01*
X122944286Y-28713866D02*
X122944286Y-28904342D01*
X122944286Y-28904342D02*
X122991905Y-28999580D01*
X122991905Y-28999580D02*
X123039524Y-29047200D01*
X123039524Y-29047200D02*
X123134762Y-29094819D01*
X123134762Y-29094819D02*
X123325238Y-29094819D01*
X123325238Y-29094819D02*
X123420476Y-29047200D01*
X123420476Y-29047200D02*
X123468095Y-28999580D01*
X123468095Y-28999580D02*
X123515714Y-28904342D01*
X123515714Y-28904342D02*
X123515714Y-28713866D01*
X123515714Y-28713866D02*
X123468095Y-28618628D01*
X123468095Y-28618628D02*
X123420476Y-28571009D01*
X123420476Y-28571009D02*
X123325238Y-28523390D01*
X56690476Y-37124819D02*
X56690476Y-37839104D01*
X56690476Y-37839104D02*
X56642857Y-37981961D01*
X56642857Y-37981961D02*
X56547619Y-38077200D01*
X56547619Y-38077200D02*
X56404762Y-38124819D01*
X56404762Y-38124819D02*
X56309524Y-38124819D01*
X57119048Y-37220057D02*
X57166667Y-37172438D01*
X57166667Y-37172438D02*
X57261905Y-37124819D01*
X57261905Y-37124819D02*
X57500000Y-37124819D01*
X57500000Y-37124819D02*
X57595238Y-37172438D01*
X57595238Y-37172438D02*
X57642857Y-37220057D01*
X57642857Y-37220057D02*
X57690476Y-37315295D01*
X57690476Y-37315295D02*
X57690476Y-37410533D01*
X57690476Y-37410533D02*
X57642857Y-37553390D01*
X57642857Y-37553390D02*
X57071429Y-38124819D01*
X57071429Y-38124819D02*
X57690476Y-38124819D01*
X58023810Y-37124819D02*
X58642857Y-37124819D01*
X58642857Y-37124819D02*
X58309524Y-37505771D01*
X58309524Y-37505771D02*
X58452381Y-37505771D01*
X58452381Y-37505771D02*
X58547619Y-37553390D01*
X58547619Y-37553390D02*
X58595238Y-37601009D01*
X58595238Y-37601009D02*
X58642857Y-37696247D01*
X58642857Y-37696247D02*
X58642857Y-37934342D01*
X58642857Y-37934342D02*
X58595238Y-38029580D01*
X58595238Y-38029580D02*
X58547619Y-38077200D01*
X58547619Y-38077200D02*
X58452381Y-38124819D01*
X58452381Y-38124819D02*
X58166667Y-38124819D01*
X58166667Y-38124819D02*
X58071429Y-38077200D01*
X58071429Y-38077200D02*
X58023810Y-38029580D01*
X88334819Y-33122857D02*
X87858628Y-33456190D01*
X88334819Y-33694285D02*
X87334819Y-33694285D01*
X87334819Y-33694285D02*
X87334819Y-33313333D01*
X87334819Y-33313333D02*
X87382438Y-33218095D01*
X87382438Y-33218095D02*
X87430057Y-33170476D01*
X87430057Y-33170476D02*
X87525295Y-33122857D01*
X87525295Y-33122857D02*
X87668152Y-33122857D01*
X87668152Y-33122857D02*
X87763390Y-33170476D01*
X87763390Y-33170476D02*
X87811009Y-33218095D01*
X87811009Y-33218095D02*
X87858628Y-33313333D01*
X87858628Y-33313333D02*
X87858628Y-33694285D01*
X88334819Y-32170476D02*
X88334819Y-32741904D01*
X88334819Y-32456190D02*
X87334819Y-32456190D01*
X87334819Y-32456190D02*
X87477676Y-32551428D01*
X87477676Y-32551428D02*
X87572914Y-32646666D01*
X87572914Y-32646666D02*
X87620533Y-32741904D01*
X87334819Y-31313333D02*
X87334819Y-31503809D01*
X87334819Y-31503809D02*
X87382438Y-31599047D01*
X87382438Y-31599047D02*
X87430057Y-31646666D01*
X87430057Y-31646666D02*
X87572914Y-31741904D01*
X87572914Y-31741904D02*
X87763390Y-31789523D01*
X87763390Y-31789523D02*
X88144342Y-31789523D01*
X88144342Y-31789523D02*
X88239580Y-31741904D01*
X88239580Y-31741904D02*
X88287200Y-31694285D01*
X88287200Y-31694285D02*
X88334819Y-31599047D01*
X88334819Y-31599047D02*
X88334819Y-31408571D01*
X88334819Y-31408571D02*
X88287200Y-31313333D01*
X88287200Y-31313333D02*
X88239580Y-31265714D01*
X88239580Y-31265714D02*
X88144342Y-31218095D01*
X88144342Y-31218095D02*
X87906247Y-31218095D01*
X87906247Y-31218095D02*
X87811009Y-31265714D01*
X87811009Y-31265714D02*
X87763390Y-31313333D01*
X87763390Y-31313333D02*
X87715771Y-31408571D01*
X87715771Y-31408571D02*
X87715771Y-31599047D01*
X87715771Y-31599047D02*
X87763390Y-31694285D01*
X87763390Y-31694285D02*
X87811009Y-31741904D01*
X87811009Y-31741904D02*
X87906247Y-31789523D01*
X114284819Y-33222857D02*
X113808628Y-33556190D01*
X114284819Y-33794285D02*
X113284819Y-33794285D01*
X113284819Y-33794285D02*
X113284819Y-33413333D01*
X113284819Y-33413333D02*
X113332438Y-33318095D01*
X113332438Y-33318095D02*
X113380057Y-33270476D01*
X113380057Y-33270476D02*
X113475295Y-33222857D01*
X113475295Y-33222857D02*
X113618152Y-33222857D01*
X113618152Y-33222857D02*
X113713390Y-33270476D01*
X113713390Y-33270476D02*
X113761009Y-33318095D01*
X113761009Y-33318095D02*
X113808628Y-33413333D01*
X113808628Y-33413333D02*
X113808628Y-33794285D01*
X113380057Y-32841904D02*
X113332438Y-32794285D01*
X113332438Y-32794285D02*
X113284819Y-32699047D01*
X113284819Y-32699047D02*
X113284819Y-32460952D01*
X113284819Y-32460952D02*
X113332438Y-32365714D01*
X113332438Y-32365714D02*
X113380057Y-32318095D01*
X113380057Y-32318095D02*
X113475295Y-32270476D01*
X113475295Y-32270476D02*
X113570533Y-32270476D01*
X113570533Y-32270476D02*
X113713390Y-32318095D01*
X113713390Y-32318095D02*
X114284819Y-32889523D01*
X114284819Y-32889523D02*
X114284819Y-32270476D01*
X113284819Y-31651428D02*
X113284819Y-31556190D01*
X113284819Y-31556190D02*
X113332438Y-31460952D01*
X113332438Y-31460952D02*
X113380057Y-31413333D01*
X113380057Y-31413333D02*
X113475295Y-31365714D01*
X113475295Y-31365714D02*
X113665771Y-31318095D01*
X113665771Y-31318095D02*
X113903866Y-31318095D01*
X113903866Y-31318095D02*
X114094342Y-31365714D01*
X114094342Y-31365714D02*
X114189580Y-31413333D01*
X114189580Y-31413333D02*
X114237200Y-31460952D01*
X114237200Y-31460952D02*
X114284819Y-31556190D01*
X114284819Y-31556190D02*
X114284819Y-31651428D01*
X114284819Y-31651428D02*
X114237200Y-31746666D01*
X114237200Y-31746666D02*
X114189580Y-31794285D01*
X114189580Y-31794285D02*
X114094342Y-31841904D01*
X114094342Y-31841904D02*
X113903866Y-31889523D01*
X113903866Y-31889523D02*
X113665771Y-31889523D01*
X113665771Y-31889523D02*
X113475295Y-31841904D01*
X113475295Y-31841904D02*
X113380057Y-31794285D01*
X113380057Y-31794285D02*
X113332438Y-31746666D01*
X113332438Y-31746666D02*
X113284819Y-31651428D01*
X101384819Y-33122857D02*
X100908628Y-33456190D01*
X101384819Y-33694285D02*
X100384819Y-33694285D01*
X100384819Y-33694285D02*
X100384819Y-33313333D01*
X100384819Y-33313333D02*
X100432438Y-33218095D01*
X100432438Y-33218095D02*
X100480057Y-33170476D01*
X100480057Y-33170476D02*
X100575295Y-33122857D01*
X100575295Y-33122857D02*
X100718152Y-33122857D01*
X100718152Y-33122857D02*
X100813390Y-33170476D01*
X100813390Y-33170476D02*
X100861009Y-33218095D01*
X100861009Y-33218095D02*
X100908628Y-33313333D01*
X100908628Y-33313333D02*
X100908628Y-33694285D01*
X101384819Y-32170476D02*
X101384819Y-32741904D01*
X101384819Y-32456190D02*
X100384819Y-32456190D01*
X100384819Y-32456190D02*
X100527676Y-32551428D01*
X100527676Y-32551428D02*
X100622914Y-32646666D01*
X100622914Y-32646666D02*
X100670533Y-32741904D01*
X101384819Y-31694285D02*
X101384819Y-31503809D01*
X101384819Y-31503809D02*
X101337200Y-31408571D01*
X101337200Y-31408571D02*
X101289580Y-31360952D01*
X101289580Y-31360952D02*
X101146723Y-31265714D01*
X101146723Y-31265714D02*
X100956247Y-31218095D01*
X100956247Y-31218095D02*
X100575295Y-31218095D01*
X100575295Y-31218095D02*
X100480057Y-31265714D01*
X100480057Y-31265714D02*
X100432438Y-31313333D01*
X100432438Y-31313333D02*
X100384819Y-31408571D01*
X100384819Y-31408571D02*
X100384819Y-31599047D01*
X100384819Y-31599047D02*
X100432438Y-31694285D01*
X100432438Y-31694285D02*
X100480057Y-31741904D01*
X100480057Y-31741904D02*
X100575295Y-31789523D01*
X100575295Y-31789523D02*
X100813390Y-31789523D01*
X100813390Y-31789523D02*
X100908628Y-31741904D01*
X100908628Y-31741904D02*
X100956247Y-31694285D01*
X100956247Y-31694285D02*
X101003866Y-31599047D01*
X101003866Y-31599047D02*
X101003866Y-31408571D01*
X101003866Y-31408571D02*
X100956247Y-31313333D01*
X100956247Y-31313333D02*
X100908628Y-31265714D01*
X100908628Y-31265714D02*
X100813390Y-31218095D01*
X73083333Y-36359580D02*
X73035714Y-36407200D01*
X73035714Y-36407200D02*
X72892857Y-36454819D01*
X72892857Y-36454819D02*
X72797619Y-36454819D01*
X72797619Y-36454819D02*
X72654762Y-36407200D01*
X72654762Y-36407200D02*
X72559524Y-36311961D01*
X72559524Y-36311961D02*
X72511905Y-36216723D01*
X72511905Y-36216723D02*
X72464286Y-36026247D01*
X72464286Y-36026247D02*
X72464286Y-35883390D01*
X72464286Y-35883390D02*
X72511905Y-35692914D01*
X72511905Y-35692914D02*
X72559524Y-35597676D01*
X72559524Y-35597676D02*
X72654762Y-35502438D01*
X72654762Y-35502438D02*
X72797619Y-35454819D01*
X72797619Y-35454819D02*
X72892857Y-35454819D01*
X72892857Y-35454819D02*
X73035714Y-35502438D01*
X73035714Y-35502438D02*
X73083333Y-35550057D01*
X73559524Y-36454819D02*
X73750000Y-36454819D01*
X73750000Y-36454819D02*
X73845238Y-36407200D01*
X73845238Y-36407200D02*
X73892857Y-36359580D01*
X73892857Y-36359580D02*
X73988095Y-36216723D01*
X73988095Y-36216723D02*
X74035714Y-36026247D01*
X74035714Y-36026247D02*
X74035714Y-35645295D01*
X74035714Y-35645295D02*
X73988095Y-35550057D01*
X73988095Y-35550057D02*
X73940476Y-35502438D01*
X73940476Y-35502438D02*
X73845238Y-35454819D01*
X73845238Y-35454819D02*
X73654762Y-35454819D01*
X73654762Y-35454819D02*
X73559524Y-35502438D01*
X73559524Y-35502438D02*
X73511905Y-35550057D01*
X73511905Y-35550057D02*
X73464286Y-35645295D01*
X73464286Y-35645295D02*
X73464286Y-35883390D01*
X73464286Y-35883390D02*
X73511905Y-35978628D01*
X73511905Y-35978628D02*
X73559524Y-36026247D01*
X73559524Y-36026247D02*
X73654762Y-36073866D01*
X73654762Y-36073866D02*
X73845238Y-36073866D01*
X73845238Y-36073866D02*
X73940476Y-36026247D01*
X73940476Y-36026247D02*
X73988095Y-35978628D01*
X73988095Y-35978628D02*
X74035714Y-35883390D01*
X73083333Y-29359580D02*
X73035714Y-29407200D01*
X73035714Y-29407200D02*
X72892857Y-29454819D01*
X72892857Y-29454819D02*
X72797619Y-29454819D01*
X72797619Y-29454819D02*
X72654762Y-29407200D01*
X72654762Y-29407200D02*
X72559524Y-29311961D01*
X72559524Y-29311961D02*
X72511905Y-29216723D01*
X72511905Y-29216723D02*
X72464286Y-29026247D01*
X72464286Y-29026247D02*
X72464286Y-28883390D01*
X72464286Y-28883390D02*
X72511905Y-28692914D01*
X72511905Y-28692914D02*
X72559524Y-28597676D01*
X72559524Y-28597676D02*
X72654762Y-28502438D01*
X72654762Y-28502438D02*
X72797619Y-28454819D01*
X72797619Y-28454819D02*
X72892857Y-28454819D01*
X72892857Y-28454819D02*
X73035714Y-28502438D01*
X73035714Y-28502438D02*
X73083333Y-28550057D01*
X73416667Y-28454819D02*
X74083333Y-28454819D01*
X74083333Y-28454819D02*
X73654762Y-29454819D01*
X95991905Y-29244819D02*
X95991905Y-28244819D01*
X95991905Y-28244819D02*
X96230000Y-28244819D01*
X96230000Y-28244819D02*
X96372857Y-28292438D01*
X96372857Y-28292438D02*
X96468095Y-28387676D01*
X96468095Y-28387676D02*
X96515714Y-28482914D01*
X96515714Y-28482914D02*
X96563333Y-28673390D01*
X96563333Y-28673390D02*
X96563333Y-28816247D01*
X96563333Y-28816247D02*
X96515714Y-29006723D01*
X96515714Y-29006723D02*
X96468095Y-29101961D01*
X96468095Y-29101961D02*
X96372857Y-29197200D01*
X96372857Y-29197200D02*
X96230000Y-29244819D01*
X96230000Y-29244819D02*
X95991905Y-29244819D01*
X97468095Y-28244819D02*
X96991905Y-28244819D01*
X96991905Y-28244819D02*
X96944286Y-28721009D01*
X96944286Y-28721009D02*
X96991905Y-28673390D01*
X96991905Y-28673390D02*
X97087143Y-28625771D01*
X97087143Y-28625771D02*
X97325238Y-28625771D01*
X97325238Y-28625771D02*
X97420476Y-28673390D01*
X97420476Y-28673390D02*
X97468095Y-28721009D01*
X97468095Y-28721009D02*
X97515714Y-28816247D01*
X97515714Y-28816247D02*
X97515714Y-29054342D01*
X97515714Y-29054342D02*
X97468095Y-29149580D01*
X97468095Y-29149580D02*
X97420476Y-29197200D01*
X97420476Y-29197200D02*
X97325238Y-29244819D01*
X97325238Y-29244819D02*
X97087143Y-29244819D01*
X97087143Y-29244819D02*
X96991905Y-29197200D01*
X96991905Y-29197200D02*
X96944286Y-29149580D01*
D11*
%TO.C,Q2*%
X85350000Y-34050000D02*
X85350000Y-30450000D01*
X80900000Y-32250000D02*
G75*
G02*
X85338478Y-30411522I2600000J0D01*
G01*
X85338478Y-34088478D02*
G75*
G02*
X80899999Y-32250000I-1838478J1838478D01*
G01*
%TO.C,R15*%
X61130000Y-29230000D02*
X61130000Y-35770000D01*
X61130000Y-35770000D02*
X63870000Y-35770000D01*
X62500000Y-28460000D02*
X62500000Y-29230000D01*
X62500000Y-36540000D02*
X62500000Y-35770000D01*
X63870000Y-29230000D02*
X61130000Y-29230000D01*
X63870000Y-35770000D02*
X63870000Y-29230000D01*
%TO.C,D10*%
X133185000Y-31055000D02*
X133185000Y-34145000D01*
X133185000Y-31055170D02*
G75*
G02*
X138735000Y-32599952I2560000J-1544830D01*
G01*
X138735000Y-32600048D02*
G75*
G02*
X133185000Y-34144830I-2990000J48D01*
G01*
X138245000Y-32600000D02*
G75*
G02*
X133245000Y-32600000I-2500000J0D01*
G01*
X133245000Y-32600000D02*
G75*
G02*
X138245000Y-32600000I2500000J0D01*
G01*
%TO.C,R22*%
X74630000Y-29060000D02*
X74630000Y-35600000D01*
X74630000Y-35600000D02*
X77370000Y-35600000D01*
X76000000Y-28290000D02*
X76000000Y-29060000D01*
X76000000Y-36370000D02*
X76000000Y-35600000D01*
X77370000Y-29060000D02*
X74630000Y-29060000D01*
X77370000Y-35600000D02*
X77370000Y-29060000D01*
%TO.C,D7*%
X106870000Y-31155000D02*
X106870000Y-34245000D01*
X106870000Y-31155170D02*
G75*
G02*
X112420000Y-32699952I2560000J-1544830D01*
G01*
X112420000Y-32700048D02*
G75*
G02*
X106870000Y-34244830I-2990000J48D01*
G01*
X111930000Y-32700000D02*
G75*
G02*
X106930000Y-32700000I-2500000J0D01*
G01*
X106930000Y-32700000D02*
G75*
G02*
X111930000Y-32700000I2500000J0D01*
G01*
%TO.C,R23*%
X127880000Y-29210000D02*
X127880000Y-35750000D01*
X127880000Y-35750000D02*
X130620000Y-35750000D01*
X129250000Y-28440000D02*
X129250000Y-29210000D01*
X129250000Y-36520000D02*
X129250000Y-35750000D01*
X130620000Y-29210000D02*
X127880000Y-29210000D01*
X130620000Y-35750000D02*
X130620000Y-29210000D01*
%TO.C,J21*%
X140620000Y-33520000D02*
X140620000Y-28330000D01*
X143380000Y-28330000D02*
X140620000Y-28330000D01*
X143380000Y-33520000D02*
X140620000Y-33520000D01*
X143380000Y-33520000D02*
X143380000Y-28330000D01*
X143380000Y-34790000D02*
X143380000Y-36170000D01*
X143380000Y-36170000D02*
X142000000Y-36170000D01*
%TO.C,D8*%
X120170000Y-31055000D02*
X120170000Y-34145000D01*
X120170000Y-31055170D02*
G75*
G02*
X125720000Y-32599952I2560000J-1544830D01*
G01*
X125720000Y-32600048D02*
G75*
G02*
X120170000Y-34144830I-2990000J48D01*
G01*
X125230000Y-32600000D02*
G75*
G02*
X120230000Y-32600000I-2500000J0D01*
G01*
X120230000Y-32600000D02*
G75*
G02*
X125230000Y-32600000I2500000J0D01*
G01*
%TO.C,J23*%
X56120000Y-34020000D02*
X56120000Y-28830000D01*
X58880000Y-28830000D02*
X56120000Y-28830000D01*
X58880000Y-34020000D02*
X56120000Y-34020000D01*
X58880000Y-34020000D02*
X58880000Y-28830000D01*
X58880000Y-35290000D02*
X58880000Y-36670000D01*
X58880000Y-36670000D02*
X57500000Y-36670000D01*
%TO.C,R16*%
X88880000Y-29210000D02*
X88880000Y-35750000D01*
X88880000Y-35750000D02*
X91620000Y-35750000D01*
X90250000Y-28440000D02*
X90250000Y-29210000D01*
X90250000Y-36520000D02*
X90250000Y-35750000D01*
X91620000Y-29210000D02*
X88880000Y-29210000D01*
X91620000Y-35750000D02*
X91620000Y-29210000D01*
%TO.C,R20*%
X114830000Y-29310000D02*
X114830000Y-35850000D01*
X114830000Y-35850000D02*
X117570000Y-35850000D01*
X116200000Y-28540000D02*
X116200000Y-29310000D01*
X116200000Y-36620000D02*
X116200000Y-35850000D01*
X117570000Y-29310000D02*
X114830000Y-29310000D01*
X117570000Y-35850000D02*
X117570000Y-29310000D01*
%TO.C,R19*%
X101930000Y-29210000D02*
X101930000Y-35750000D01*
X101930000Y-35750000D02*
X104670000Y-35750000D01*
X103300000Y-28440000D02*
X103300000Y-29210000D01*
X103300000Y-36520000D02*
X103300000Y-35750000D01*
X104670000Y-29210000D02*
X101930000Y-29210000D01*
X104670000Y-35750000D02*
X104670000Y-29210000D01*
%TO.C,C9*%
X65499759Y-34161000D02*
X66129759Y-34161000D01*
X65814759Y-33846000D02*
X65814759Y-34476000D01*
X69000000Y-32770000D02*
X69000000Y-39230000D01*
X69040000Y-32770000D02*
X69040000Y-39230000D01*
X69080000Y-32771000D02*
X69080000Y-39229000D01*
X69120000Y-32772000D02*
X69120000Y-39228000D01*
X69160000Y-32774000D02*
X69160000Y-39226000D01*
X69200000Y-32776000D02*
X69200000Y-39224000D01*
X69240000Y-32779000D02*
X69240000Y-34960000D01*
X69240000Y-37040000D02*
X69240000Y-39221000D01*
X69280000Y-32782000D02*
X69280000Y-34960000D01*
X69280000Y-37040000D02*
X69280000Y-39218000D01*
X69320000Y-32786000D02*
X69320000Y-34960000D01*
X69320000Y-37040000D02*
X69320000Y-39214000D01*
X69360000Y-32790000D02*
X69360000Y-34960000D01*
X69360000Y-37040000D02*
X69360000Y-39210000D01*
X69400000Y-32795000D02*
X69400000Y-34960000D01*
X69400000Y-37040000D02*
X69400000Y-39205000D01*
X69440000Y-32800000D02*
X69440000Y-34960000D01*
X69440000Y-37040000D02*
X69440000Y-39200000D01*
X69480000Y-32805000D02*
X69480000Y-34960000D01*
X69480000Y-37040000D02*
X69480000Y-39195000D01*
X69520000Y-32812000D02*
X69520000Y-34960000D01*
X69520000Y-37040000D02*
X69520000Y-39188000D01*
X69560000Y-32818000D02*
X69560000Y-34960000D01*
X69560000Y-37040000D02*
X69560000Y-39182000D01*
X69600000Y-32826000D02*
X69600000Y-34960000D01*
X69600000Y-37040000D02*
X69600000Y-39174000D01*
X69640000Y-32833000D02*
X69640000Y-34960000D01*
X69640000Y-37040000D02*
X69640000Y-39167000D01*
X69680000Y-32841000D02*
X69680000Y-34960000D01*
X69680000Y-37040000D02*
X69680000Y-39159000D01*
X69720000Y-32850000D02*
X69720000Y-34960000D01*
X69720000Y-37040000D02*
X69720000Y-39150000D01*
X69760000Y-32860000D02*
X69760000Y-34960000D01*
X69760000Y-37040000D02*
X69760000Y-39140000D01*
X69800000Y-32869000D02*
X69800000Y-34960000D01*
X69800000Y-37040000D02*
X69800000Y-39131000D01*
X69840000Y-32880000D02*
X69840000Y-34960000D01*
X69840000Y-37040000D02*
X69840000Y-39120000D01*
X69880000Y-32891000D02*
X69880000Y-34960000D01*
X69880000Y-37040000D02*
X69880000Y-39109000D01*
X69920000Y-32902000D02*
X69920000Y-34960000D01*
X69920000Y-37040000D02*
X69920000Y-39098000D01*
X69960000Y-32914000D02*
X69960000Y-34960000D01*
X69960000Y-37040000D02*
X69960000Y-39086000D01*
X70000000Y-32927000D02*
X70000000Y-34960000D01*
X70000000Y-37040000D02*
X70000000Y-39073000D01*
X70040000Y-32940000D02*
X70040000Y-34960000D01*
X70040000Y-37040000D02*
X70040000Y-39060000D01*
X70080000Y-32953000D02*
X70080000Y-34960000D01*
X70080000Y-37040000D02*
X70080000Y-39047000D01*
X70120000Y-32968000D02*
X70120000Y-34960000D01*
X70120000Y-37040000D02*
X70120000Y-39032000D01*
X70160000Y-32983000D02*
X70160000Y-34960000D01*
X70160000Y-37040000D02*
X70160000Y-39017000D01*
X70200000Y-32998000D02*
X70200000Y-34960000D01*
X70200000Y-37040000D02*
X70200000Y-39002000D01*
X70240000Y-33014000D02*
X70240000Y-34960000D01*
X70240000Y-37040000D02*
X70240000Y-38986000D01*
X70280000Y-33031000D02*
X70280000Y-34960000D01*
X70280000Y-37040000D02*
X70280000Y-38969000D01*
X70320000Y-33048000D02*
X70320000Y-34960000D01*
X70320000Y-37040000D02*
X70320000Y-38952000D01*
X70360000Y-33066000D02*
X70360000Y-34960000D01*
X70360000Y-37040000D02*
X70360000Y-38934000D01*
X70400000Y-33085000D02*
X70400000Y-34960000D01*
X70400000Y-37040000D02*
X70400000Y-38915000D01*
X70440000Y-33104000D02*
X70440000Y-34960000D01*
X70440000Y-37040000D02*
X70440000Y-38896000D01*
X70480000Y-33124000D02*
X70480000Y-34960000D01*
X70480000Y-37040000D02*
X70480000Y-38876000D01*
X70520000Y-33145000D02*
X70520000Y-34960000D01*
X70520000Y-37040000D02*
X70520000Y-38855000D01*
X70560000Y-33166000D02*
X70560000Y-34960000D01*
X70560000Y-37040000D02*
X70560000Y-38834000D01*
X70600000Y-33188000D02*
X70600000Y-34960000D01*
X70600000Y-37040000D02*
X70600000Y-38812000D01*
X70640000Y-33211000D02*
X70640000Y-34960000D01*
X70640000Y-37040000D02*
X70640000Y-38789000D01*
X70680000Y-33235000D02*
X70680000Y-34960000D01*
X70680000Y-37040000D02*
X70680000Y-38765000D01*
X70720000Y-33259000D02*
X70720000Y-34960000D01*
X70720000Y-37040000D02*
X70720000Y-38741000D01*
X70760000Y-33284000D02*
X70760000Y-34960000D01*
X70760000Y-37040000D02*
X70760000Y-38716000D01*
X70800000Y-33310000D02*
X70800000Y-34960000D01*
X70800000Y-37040000D02*
X70800000Y-38690000D01*
X70840000Y-33337000D02*
X70840000Y-34960000D01*
X70840000Y-37040000D02*
X70840000Y-38663000D01*
X70880000Y-33364000D02*
X70880000Y-34960000D01*
X70880000Y-37040000D02*
X70880000Y-38636000D01*
X70920000Y-33393000D02*
X70920000Y-34960000D01*
X70920000Y-37040000D02*
X70920000Y-38607000D01*
X70960000Y-33423000D02*
X70960000Y-34960000D01*
X70960000Y-37040000D02*
X70960000Y-38577000D01*
X71000000Y-33453000D02*
X71000000Y-34960000D01*
X71000000Y-37040000D02*
X71000000Y-38547000D01*
X71040000Y-33484000D02*
X71040000Y-34960000D01*
X71040000Y-37040000D02*
X71040000Y-38516000D01*
X71080000Y-33517000D02*
X71080000Y-34960000D01*
X71080000Y-37040000D02*
X71080000Y-38483000D01*
X71120000Y-33550000D02*
X71120000Y-34960000D01*
X71120000Y-37040000D02*
X71120000Y-38450000D01*
X71160000Y-33585000D02*
X71160000Y-34960000D01*
X71160000Y-37040000D02*
X71160000Y-38415000D01*
X71200000Y-33621000D02*
X71200000Y-34960000D01*
X71200000Y-37040000D02*
X71200000Y-38379000D01*
X71240000Y-33658000D02*
X71240000Y-34960000D01*
X71240000Y-37040000D02*
X71240000Y-38342000D01*
X71280000Y-33696000D02*
X71280000Y-34960000D01*
X71280000Y-37040000D02*
X71280000Y-38304000D01*
X71320000Y-33736000D02*
X71320000Y-38264000D01*
X71360000Y-33777000D02*
X71360000Y-38223000D01*
X71400000Y-33819000D02*
X71400000Y-38181000D01*
X71440000Y-33863000D02*
X71440000Y-38137000D01*
X71480000Y-33909000D02*
X71480000Y-38091000D01*
X71520000Y-33956000D02*
X71520000Y-38044000D01*
X71560000Y-34005000D02*
X71560000Y-37995000D01*
X71600000Y-34057000D02*
X71600000Y-37943000D01*
X71640000Y-34110000D02*
X71640000Y-37890000D01*
X71680000Y-34166000D02*
X71680000Y-37834000D01*
X71720000Y-34225000D02*
X71720000Y-37775000D01*
X71760000Y-34286000D02*
X71760000Y-37714000D01*
X71800000Y-34351000D02*
X71800000Y-37649000D01*
X71840000Y-34419000D02*
X71840000Y-37581000D01*
X71880000Y-34491000D02*
X71880000Y-37509000D01*
X71920000Y-34568000D02*
X71920000Y-37432000D01*
X71960000Y-34650000D02*
X71960000Y-37350000D01*
X72000000Y-34739000D02*
X72000000Y-37261000D01*
X72040000Y-34835000D02*
X72040000Y-37165000D01*
X72080000Y-34942000D02*
X72080000Y-37058000D01*
X72120000Y-35061000D02*
X72120000Y-36939000D01*
X72160000Y-35199000D02*
X72160000Y-36801000D01*
X72200000Y-35367000D02*
X72200000Y-36633000D01*
X72240000Y-35598000D02*
X72240000Y-36402000D01*
X72270000Y-36000000D02*
G75*
G02*
X65730000Y-36000000I-3270000J0D01*
G01*
X65730000Y-36000000D02*
G75*
G02*
X72270000Y-36000000I3270000J0D01*
G01*
%TO.C,C7*%
X65499759Y-27161000D02*
X66129759Y-27161000D01*
X65814759Y-26846000D02*
X65814759Y-27476000D01*
X69000000Y-25770000D02*
X69000000Y-32230000D01*
X69040000Y-25770000D02*
X69040000Y-32230000D01*
X69080000Y-25771000D02*
X69080000Y-32229000D01*
X69120000Y-25772000D02*
X69120000Y-32228000D01*
X69160000Y-25774000D02*
X69160000Y-32226000D01*
X69200000Y-25776000D02*
X69200000Y-32224000D01*
X69240000Y-25779000D02*
X69240000Y-27960000D01*
X69240000Y-30040000D02*
X69240000Y-32221000D01*
X69280000Y-25782000D02*
X69280000Y-27960000D01*
X69280000Y-30040000D02*
X69280000Y-32218000D01*
X69320000Y-25786000D02*
X69320000Y-27960000D01*
X69320000Y-30040000D02*
X69320000Y-32214000D01*
X69360000Y-25790000D02*
X69360000Y-27960000D01*
X69360000Y-30040000D02*
X69360000Y-32210000D01*
X69400000Y-25795000D02*
X69400000Y-27960000D01*
X69400000Y-30040000D02*
X69400000Y-32205000D01*
X69440000Y-25800000D02*
X69440000Y-27960000D01*
X69440000Y-30040000D02*
X69440000Y-32200000D01*
X69480000Y-25805000D02*
X69480000Y-27960000D01*
X69480000Y-30040000D02*
X69480000Y-32195000D01*
X69520000Y-25812000D02*
X69520000Y-27960000D01*
X69520000Y-30040000D02*
X69520000Y-32188000D01*
X69560000Y-25818000D02*
X69560000Y-27960000D01*
X69560000Y-30040000D02*
X69560000Y-32182000D01*
X69600000Y-25826000D02*
X69600000Y-27960000D01*
X69600000Y-30040000D02*
X69600000Y-32174000D01*
X69640000Y-25833000D02*
X69640000Y-27960000D01*
X69640000Y-30040000D02*
X69640000Y-32167000D01*
X69680000Y-25841000D02*
X69680000Y-27960000D01*
X69680000Y-30040000D02*
X69680000Y-32159000D01*
X69720000Y-25850000D02*
X69720000Y-27960000D01*
X69720000Y-30040000D02*
X69720000Y-32150000D01*
X69760000Y-25860000D02*
X69760000Y-27960000D01*
X69760000Y-30040000D02*
X69760000Y-32140000D01*
X69800000Y-25869000D02*
X69800000Y-27960000D01*
X69800000Y-30040000D02*
X69800000Y-32131000D01*
X69840000Y-25880000D02*
X69840000Y-27960000D01*
X69840000Y-30040000D02*
X69840000Y-32120000D01*
X69880000Y-25891000D02*
X69880000Y-27960000D01*
X69880000Y-30040000D02*
X69880000Y-32109000D01*
X69920000Y-25902000D02*
X69920000Y-27960000D01*
X69920000Y-30040000D02*
X69920000Y-32098000D01*
X69960000Y-25914000D02*
X69960000Y-27960000D01*
X69960000Y-30040000D02*
X69960000Y-32086000D01*
X70000000Y-25927000D02*
X70000000Y-27960000D01*
X70000000Y-30040000D02*
X70000000Y-32073000D01*
X70040000Y-25940000D02*
X70040000Y-27960000D01*
X70040000Y-30040000D02*
X70040000Y-32060000D01*
X70080000Y-25953000D02*
X70080000Y-27960000D01*
X70080000Y-30040000D02*
X70080000Y-32047000D01*
X70120000Y-25968000D02*
X70120000Y-27960000D01*
X70120000Y-30040000D02*
X70120000Y-32032000D01*
X70160000Y-25983000D02*
X70160000Y-27960000D01*
X70160000Y-30040000D02*
X70160000Y-32017000D01*
X70200000Y-25998000D02*
X70200000Y-27960000D01*
X70200000Y-30040000D02*
X70200000Y-32002000D01*
X70240000Y-26014000D02*
X70240000Y-27960000D01*
X70240000Y-30040000D02*
X70240000Y-31986000D01*
X70280000Y-26031000D02*
X70280000Y-27960000D01*
X70280000Y-30040000D02*
X70280000Y-31969000D01*
X70320000Y-26048000D02*
X70320000Y-27960000D01*
X70320000Y-30040000D02*
X70320000Y-31952000D01*
X70360000Y-26066000D02*
X70360000Y-27960000D01*
X70360000Y-30040000D02*
X70360000Y-31934000D01*
X70400000Y-26085000D02*
X70400000Y-27960000D01*
X70400000Y-30040000D02*
X70400000Y-31915000D01*
X70440000Y-26104000D02*
X70440000Y-27960000D01*
X70440000Y-30040000D02*
X70440000Y-31896000D01*
X70480000Y-26124000D02*
X70480000Y-27960000D01*
X70480000Y-30040000D02*
X70480000Y-31876000D01*
X70520000Y-26145000D02*
X70520000Y-27960000D01*
X70520000Y-30040000D02*
X70520000Y-31855000D01*
X70560000Y-26166000D02*
X70560000Y-27960000D01*
X70560000Y-30040000D02*
X70560000Y-31834000D01*
X70600000Y-26188000D02*
X70600000Y-27960000D01*
X70600000Y-30040000D02*
X70600000Y-31812000D01*
X70640000Y-26211000D02*
X70640000Y-27960000D01*
X70640000Y-30040000D02*
X70640000Y-31789000D01*
X70680000Y-26235000D02*
X70680000Y-27960000D01*
X70680000Y-30040000D02*
X70680000Y-31765000D01*
X70720000Y-26259000D02*
X70720000Y-27960000D01*
X70720000Y-30040000D02*
X70720000Y-31741000D01*
X70760000Y-26284000D02*
X70760000Y-27960000D01*
X70760000Y-30040000D02*
X70760000Y-31716000D01*
X70800000Y-26310000D02*
X70800000Y-27960000D01*
X70800000Y-30040000D02*
X70800000Y-31690000D01*
X70840000Y-26337000D02*
X70840000Y-27960000D01*
X70840000Y-30040000D02*
X70840000Y-31663000D01*
X70880000Y-26364000D02*
X70880000Y-27960000D01*
X70880000Y-30040000D02*
X70880000Y-31636000D01*
X70920000Y-26393000D02*
X70920000Y-27960000D01*
X70920000Y-30040000D02*
X70920000Y-31607000D01*
X70960000Y-26423000D02*
X70960000Y-27960000D01*
X70960000Y-30040000D02*
X70960000Y-31577000D01*
X71000000Y-26453000D02*
X71000000Y-27960000D01*
X71000000Y-30040000D02*
X71000000Y-31547000D01*
X71040000Y-26484000D02*
X71040000Y-27960000D01*
X71040000Y-30040000D02*
X71040000Y-31516000D01*
X71080000Y-26517000D02*
X71080000Y-27960000D01*
X71080000Y-30040000D02*
X71080000Y-31483000D01*
X71120000Y-26550000D02*
X71120000Y-27960000D01*
X71120000Y-30040000D02*
X71120000Y-31450000D01*
X71160000Y-26585000D02*
X71160000Y-27960000D01*
X71160000Y-30040000D02*
X71160000Y-31415000D01*
X71200000Y-26621000D02*
X71200000Y-27960000D01*
X71200000Y-30040000D02*
X71200000Y-31379000D01*
X71240000Y-26658000D02*
X71240000Y-27960000D01*
X71240000Y-30040000D02*
X71240000Y-31342000D01*
X71280000Y-26696000D02*
X71280000Y-27960000D01*
X71280000Y-30040000D02*
X71280000Y-31304000D01*
X71320000Y-26736000D02*
X71320000Y-31264000D01*
X71360000Y-26777000D02*
X71360000Y-31223000D01*
X71400000Y-26819000D02*
X71400000Y-31181000D01*
X71440000Y-26863000D02*
X71440000Y-31137000D01*
X71480000Y-26909000D02*
X71480000Y-31091000D01*
X71520000Y-26956000D02*
X71520000Y-31044000D01*
X71560000Y-27005000D02*
X71560000Y-30995000D01*
X71600000Y-27057000D02*
X71600000Y-30943000D01*
X71640000Y-27110000D02*
X71640000Y-30890000D01*
X71680000Y-27166000D02*
X71680000Y-30834000D01*
X71720000Y-27225000D02*
X71720000Y-30775000D01*
X71760000Y-27286000D02*
X71760000Y-30714000D01*
X71800000Y-27351000D02*
X71800000Y-30649000D01*
X71840000Y-27419000D02*
X71840000Y-30581000D01*
X71880000Y-27491000D02*
X71880000Y-30509000D01*
X71920000Y-27568000D02*
X71920000Y-30432000D01*
X71960000Y-27650000D02*
X71960000Y-30350000D01*
X72000000Y-27739000D02*
X72000000Y-30261000D01*
X72040000Y-27835000D02*
X72040000Y-30165000D01*
X72080000Y-27942000D02*
X72080000Y-30058000D01*
X72120000Y-28061000D02*
X72120000Y-29939000D01*
X72160000Y-28199000D02*
X72160000Y-29801000D01*
X72200000Y-28367000D02*
X72200000Y-29633000D01*
X72240000Y-28598000D02*
X72240000Y-29402000D01*
X72270000Y-29000000D02*
G75*
G02*
X65730000Y-29000000I-3270000J0D01*
G01*
X65730000Y-29000000D02*
G75*
G02*
X72270000Y-29000000I3270000J0D01*
G01*
%TO.C,D5*%
X94170000Y-31205000D02*
X94170000Y-34295000D01*
X94170000Y-31205170D02*
G75*
G02*
X99720000Y-32749952I2560000J-1544830D01*
G01*
X99720000Y-32750048D02*
G75*
G02*
X94170000Y-34294830I-2990000J48D01*
G01*
X99230000Y-32750000D02*
G75*
G02*
X94230000Y-32750000I-2500000J0D01*
G01*
X94230000Y-32750000D02*
G75*
G02*
X99230000Y-32750000I2500000J0D01*
G01*
%TD*%
M02*
