%TF.GenerationSoftware,KiCad,Pcbnew,9.0.0*%
%TF.CreationDate,2025-06-20T16:33:01-04:00*%
%TF.ProjectId,proyecto_2_modulo,70726f79-6563-4746-9f5f-325f6d6f6475,rev?*%
%TF.SameCoordinates,Original*%
%TF.FileFunction,Copper,L1,Top*%
%TF.FilePolarity,Positive*%
%FSLAX46Y46*%
G04 Gerber Fmt 4.6, Leading zero omitted, Abs format (unit mm)*
G04 Created by KiCad (PCBNEW 9.0.0) date 2025-06-20 16:33:01*
%MOMM*%
%LPD*%
G01*
G04 APERTURE LIST*
%TA.AperFunction,ComponentPad*%
%ADD10R,1.300000X1.300000*%
%TD*%
%TA.AperFunction,ComponentPad*%
%ADD11C,1.300000*%
%TD*%
%TA.AperFunction,ComponentPad*%
%ADD12C,1.600000*%
%TD*%
%TA.AperFunction,ComponentPad*%
%ADD13O,1.600000X1.600000*%
%TD*%
%TA.AperFunction,ComponentPad*%
%ADD14R,1.800000X1.800000*%
%TD*%
%TA.AperFunction,ComponentPad*%
%ADD15C,1.800000*%
%TD*%
%TA.AperFunction,ComponentPad*%
%ADD16R,1.700000X1.700000*%
%TD*%
%TA.AperFunction,ComponentPad*%
%ADD17C,1.700000*%
%TD*%
%TA.AperFunction,ComponentPad*%
%ADD18R,1.600000X1.600000*%
%TD*%
%TA.AperFunction,Conductor*%
%ADD19C,0.750000*%
%TD*%
G04 APERTURE END LIST*
D10*
%TO.P,Q2,1,E*%
%TO.N,GND1*%
X83500000Y-33520000D03*
D11*
%TO.P,Q2,2,B*%
%TO.N,Net-(Q2-B)*%
X82230000Y-32250000D03*
%TO.P,Q2,3,C*%
%TO.N,Net-(D10-K)*%
X83500000Y-30980000D03*
%TD*%
D12*
%TO.P,R15,1*%
%TO.N,Net-(J21-Pin_2)*%
X62500000Y-37580000D03*
D13*
%TO.P,R15,2*%
%TO.N,Net-(Q2-B)*%
X62500000Y-27420000D03*
%TD*%
D14*
%TO.P,D10,1,K*%
%TO.N,Net-(D10-K)*%
X134475000Y-32600000D03*
D15*
%TO.P,D10,2,A*%
%TO.N,Net-(D10-A)*%
X137015000Y-32600000D03*
%TD*%
D12*
%TO.P,R22,1*%
%TO.N,Net-(Q2-B)*%
X76000000Y-37410000D03*
D13*
%TO.P,R22,2*%
%TO.N,GND1*%
X76000000Y-27250000D03*
%TD*%
D14*
%TO.P,D7,1,K*%
%TO.N,Net-(D10-K)*%
X108160000Y-32700000D03*
D15*
%TO.P,D7,2,A*%
%TO.N,Net-(D7-A)*%
X110700000Y-32700000D03*
%TD*%
D12*
%TO.P,R23,1*%
%TO.N,VCC*%
X129250000Y-37560000D03*
D13*
%TO.P,R23,2*%
%TO.N,Net-(D10-A)*%
X129250000Y-27400000D03*
%TD*%
D16*
%TO.P,J21,1,Pin_1*%
%TO.N,VCC*%
X142000000Y-34790000D03*
D17*
%TO.P,J21,2,Pin_2*%
%TO.N,Net-(J21-Pin_2)*%
X142000000Y-32250000D03*
%TO.P,J21,3,Pin_3*%
%TO.N,GND1*%
X142000000Y-29710000D03*
%TD*%
D14*
%TO.P,D8,1,K*%
%TO.N,Net-(D10-K)*%
X121460000Y-32600000D03*
D15*
%TO.P,D8,2,A*%
%TO.N,Net-(D8-A)*%
X124000000Y-32600000D03*
%TD*%
D16*
%TO.P,J23,1,Pin_1*%
%TO.N,VCC*%
X57500000Y-35290000D03*
D17*
%TO.P,J23,2,Pin_2*%
%TO.N,Net-(J21-Pin_2)*%
X57500000Y-32750000D03*
%TO.P,J23,3,Pin_3*%
%TO.N,GND1*%
X57500000Y-30210000D03*
%TD*%
D12*
%TO.P,R16,1*%
%TO.N,VCC*%
X90250000Y-37560000D03*
D13*
%TO.P,R16,2*%
%TO.N,Net-(D5-A)*%
X90250000Y-27400000D03*
%TD*%
D12*
%TO.P,R20,1*%
%TO.N,VCC*%
X116200000Y-37660000D03*
D13*
%TO.P,R20,2*%
%TO.N,Net-(D8-A)*%
X116200000Y-27500000D03*
%TD*%
D12*
%TO.P,R19,1*%
%TO.N,VCC*%
X103300000Y-37560000D03*
D13*
%TO.P,R19,2*%
%TO.N,Net-(D7-A)*%
X103300000Y-27400000D03*
%TD*%
D18*
%TO.P,C9,1*%
%TO.N,Net-(Q2-B)*%
X67750000Y-36000000D03*
D12*
%TO.P,C9,2*%
%TO.N,GND1*%
X70250000Y-36000000D03*
%TD*%
D18*
%TO.P,C7,1*%
%TO.N,Net-(Q2-B)*%
X67750000Y-29000000D03*
D12*
%TO.P,C7,2*%
%TO.N,GND1*%
X70250000Y-29000000D03*
%TD*%
D14*
%TO.P,D5,1,K*%
%TO.N,Net-(D10-K)*%
X95460000Y-32750000D03*
D15*
%TO.P,D5,2,A*%
%TO.N,Net-(D5-A)*%
X98000000Y-32750000D03*
%TD*%
D19*
%TO.N,Net-(J21-Pin_2)*%
X57500000Y-32750000D02*
X76750000Y-32750000D01*
X76750000Y-32750000D02*
X81000000Y-28500000D01*
X81000000Y-28500000D02*
X87000000Y-28500000D01*
X87000000Y-28500000D02*
X89000000Y-30500000D01*
X138500000Y-30000000D02*
X140750000Y-32250000D01*
X89000000Y-30500000D02*
X89500000Y-30000000D01*
X89500000Y-30000000D02*
X138500000Y-30000000D01*
X140750000Y-32250000D02*
X142000000Y-32250000D01*
%TO.N,VCC*%
X137666000Y-39124000D02*
X142000000Y-34790000D01*
X116200000Y-37660000D02*
X116200000Y-38824000D01*
X90250000Y-37560000D02*
X90250000Y-38874000D01*
X129250000Y-37560000D02*
X129250000Y-38774000D01*
X103600000Y-39124000D02*
X116500000Y-39124000D01*
X90250000Y-38874000D02*
X90500000Y-39124000D01*
X116500000Y-39124000D02*
X129600000Y-39124000D01*
X103300000Y-37560000D02*
X103300000Y-38824000D01*
X116200000Y-38824000D02*
X116500000Y-39124000D01*
X103300000Y-38824000D02*
X103600000Y-39124000D01*
X59300000Y-39124000D02*
X90500000Y-39124000D01*
X90500000Y-39124000D02*
X103600000Y-39124000D01*
X129250000Y-38774000D02*
X129600000Y-39124000D01*
X57500000Y-37324000D02*
X59300000Y-39124000D01*
X57500000Y-35290000D02*
X57500000Y-37324000D01*
X129600000Y-39124000D02*
X137666000Y-39124000D01*
%TD*%
M02*
