  0
SECTION
  2
HEADER
  9
$ACADVER
  1
AC1006
  9
$EXTMIN
 10
0.000000
 20
0.000000
 30
0.000000
  9
$EXTMAX
 10
1042.000000
 20
1042.000000
 30
0.000000
  0
ENDSEC
  0
SECTION
  2
ENTITIES
  0
POLYLINE
  8
0
 66
1
 70
1
  0
VERTEX
  8
0
 10
737.000000
 20
678.826569
 42
-0.003073
  0
VERTEX
  8
0
 10
732.564070
 20
678.502549
 42
-0.000920
  0
VERTEX
  8
0
 10
725.800144
 20
678.062764
 42
-0.000923
  0
VERTEX
  8
0
 10
718.205503
 20
677.597067
 42
-0.000999
  0
VERTEX
  8
0
 10
710.809000
 20
677.172050
 42
0.003375
  0
VERTEX
  8
0
 10
703.946675
 20
676.745003
 42
0.005102
  0
VERTEX
  8
0
 10
697.979523
 20
676.271987
 42
0.002126
  0
VERTEX
  8
0
 10
692.891372
 20
675.794548
 42
0.114437
  0
VERTEX
  8
0
 10
691.976864
 20
675.485701
 42
-0.137530
  0
VERTEX
  8
0
 10
689.342697
 20
674.727584
 42
-0.000019
  0
VERTEX
  8
0
 10
521.460540
 20
673.578392
 42
-0.000042
  0
VERTEX
  8
0
 10
355.287664
 20
672.461141
 42
-0.058006
  0
VERTEX
  8
0
 10
349.000000
 20
673.150767
 42
0.056200
  0
VERTEX
  8
0
 10
341.499443
 20
674.000760
 42
0.000416
  0
VERTEX
  8
0
 10
279.053540
 20
673.983801
 42
0.000112
  0
VERTEX
  8
0
 10
214.106904
 20
673.897543
 42
0.259519
  0
VERTEX
  8
0
 10
212.500000
 20
673.000000
 42
-0.224901
  0
VERTEX
  8
0
 10
211.879872
 20
672.598321
 42
-0.009348
  0
VERTEX
  8
0
 10
209.186773
 20
672.290934
 42
-0.014486
  0
VERTEX
  8
0
 10
205.866984
 20
672.071570
 42
-0.009253
  0
VERTEX
  8
0
 10
202.000000
 20
672.000000
 42
0.009253
  0
VERTEX
  8
0
 10
198.133016
 20
671.928430
 42
0.014486
  0
VERTEX
  8
0
 10
194.813227
 20
671.709066
 42
0.009348
  0
VERTEX
  8
0
 10
192.120128
 20
671.401679
 42
0.224901
  0
VERTEX
  8
0
 10
191.500000
 20
671.000000
 42
-0.204118
  0
VERTEX
  8
0
 10
190.943608
 20
670.607373
 42
-0.017481
  0
VERTEX
  8
0
 10
189.188811
 20
670.293750
 42
-0.020871
  0
VERTEX
  8
0
 10
186.989820
 20
670.072756
 42
-0.014608
  0
VERTEX
  8
0
 10
184.500000
 20
670.000000
 42
0.014608
  0
VERTEX
  8
0
 10
182.010180
 20
669.927244
 42
0.020871
  0
VERTEX
  8
0
 10
179.811189
 20
669.706250
 42
0.017481
  0
VERTEX
  8
0
 10
178.056392
 20
669.392627
 42
0.204118
  0
VERTEX
  8
0
 10
177.500000
 20
669.000000
 42
-0.178630
  0
VERTEX
  8
0
 10
177.002915
 20
668.611261
 42
-0.028079
  0
VERTEX
  8
0
 10
175.779957
 20
668.293750
 42
-0.028211
  0
VERTEX
  8
0
 10
174.230871
 20
668.073131
 42
-0.021268
  0
VERTEX
  8
0
 10
172.512412
 20
668.000000
 42
0.028549
  0
VERTEX
  8
0
 10
170.665248
 20
667.894446
 42
0.034023
  0
VERTEX
  8
0
 10
168.949474
 20
667.578358
 42
0.037614
  0
VERTEX
  8
0
 10
167.534757
 20
667.101051
 42
0.096500
  0
VERTEX
  8
0
 10
166.642857
 20
666.500000
 42
-0.097248
  0
VERTEX
  8
0
 10
165.737844
 20
665.892059
 42
-0.038302
  0
VERTEX
  8
0
 10
164.306997
 20
665.416208
 42
-0.034135
  0
VERTEX
  8
0
 10
162.553790
 20
665.103967
 42
-0.027008
  0
VERTEX
  8
0
 10
160.630446
 20
665.000000
 42
0.020602
  0
VERTEX
  8
0
 10
158.857238
 20
664.926905
 42
0.027533
  0
VERTEX
  8
0
 10
157.262007
 20
664.706250
 42
0.027094
  0
VERTEX
  8
0
 10
156.002274
 20
664.389043
 42
0.181032
  0
VERTEX
  8
0
 10
155.500000
 20
664.000000
 42
-0.128561
  0
VERTEX
  8
0
 10
155.096789
 20
663.615613
 42
-0.046040
  0
VERTEX
  8
0
 10
154.363811
 20
663.293750
 42
-0.041947
  0
VERTEX
  8
0
 10
153.457084
 20
663.073871
 42
-0.038534
  0
VERTEX
  8
0
 10
152.500000
 20
663.000000
 42
0.038534
  0
VERTEX
  8
0
 10
151.542916
 20
662.926129
 42
0.041947
  0
VERTEX
  8
0
 10
150.636189
 20
662.706250
 42
0.046040
  0
VERTEX
  8
0
 10
149.903211
 20
662.384387
 42
0.128561
  0
VERTEX
  8
0
 10
149.500000
 20
662.000000
 42
-0.158284
  0
VERTEX
  8
0
 10
149.044084
 20
661.613440
 42
-0.036095
  0
VERTEX
  8
0
 10
148.070061
 20
661.293750
 42
-0.033884
  0
VERTEX
  8
0
 10
146.840047
 20
661.073436
 42
-0.027380
  0
VERTEX
  8
0
 10
145.500000
 20
661.000000
 42
0.027380
  0
VERTEX
  8
0
 10
144.159953
 20
660.926564
 42
0.033884
  0
VERTEX
  8
0
 10
142.929939
 20
660.706250
 42
0.036095
  0
VERTEX
  8
0
 10
141.955916
 20
660.386560
 42
0.158284
  0
VERTEX
  8
0
 10
141.500000
 20
660.000000
 42
-0.170670
  0
VERTEX
  8
0
 10
141.019590
 20
659.612194
 42
-0.031293
  0
VERTEX
  8
0
 10
139.905850
 20
659.293750
 42
-0.030444
  0
VERTEX
  8
0
 10
138.495210
 20
659.073250
 42
-0.023552
  0
VERTEX
  8
0
 10
136.940983
 20
659.000000
 42
0.023957
  0
VERTEX
  8
0
 10
135.430680
 20
658.927595
 42
0.038191
  0
VERTEX
  8
0
 10
134.157664
 20
658.706250
 42
0.044731
  0
VERTEX
  8
0
 10
133.248983
 20
658.386960
 42
0.293924
  0
VERTEX
  8
0
 10
133.000000
 20
658.000000
 42
-0.251914
  0
VERTEX
  8
0
 10
132.793368
 20
657.615903
 42
-0.064068
  0
VERTEX
  8
0
 10
132.136086
 20
657.293750
 42
-0.049716
  0
VERTEX
  8
0
 10
131.185620
 20
657.072800
 42
-0.032276
  0
VERTEX
  8
0
 10
130.059017
 20
657.000000
 42
0.031397
  0
VERTEX
  8
0
 10
128.887885
 20
656.926388
 42
0.037109
  0
VERTEX
  8
0
 10
127.800400
 20
656.706250
 42
0.040338
  0
VERTEX
  8
0
 10
126.934161
 20
656.385578
 42
0.146547
  0
VERTEX
  8
0
 10
126.500000
 20
656.000000
 42
-0.128561
  0
VERTEX
  8
0
 10
126.096789
 20
655.615613
 42
-0.046040
  0
VERTEX
  8
0
 10
125.363811
 20
655.293750
 42
-0.041947
  0
VERTEX
  8
0
 10
124.457084
 20
655.073871
 42
-0.038534
  0
VERTEX
  8
0
 10
123.500000
 20
655.000000
 42
0.038534
  0
VERTEX
  8
0
 10
122.542916
 20
654.926129
 42
0.041947
  0
VERTEX
  8
0
 10
121.636189
 20
654.706250
 42
0.046040
  0
VERTEX
  8
0
 10
120.903211
 20
654.384387
 42
0.128561
  0
VERTEX
  8
0
 10
120.500000
 20
654.000000
 42
-0.128561
  0
VERTEX
  8
0
 10
120.096789
 20
653.615613
 42
-0.046040
  0
VERTEX
  8
0
 10
119.363811
 20
653.293750
 42
-0.041947
  0
VERTEX
  8
0
 10
118.457084
 20
653.073871
 42
-0.038534
  0
VERTEX
  8
0
 10
117.500000
 20
653.000000
 42
0.038534
  0
VERTEX
  8
0
 10
116.542916
 20
652.926129
 42
0.041947
  0
VERTEX
  8
0
 10
115.636189
 20
652.706250
 42
0.046040
  0
VERTEX
  8
0
 10
114.903211
 20
652.384387
 42
0.128561
  0
VERTEX
  8
0
 10
114.500000
 20
652.000000
 42
-0.107043
  0
VERTEX
  8
0
 10
114.130580
 20
651.616614
 42
-0.051098
  0
VERTEX
  8
0
 10
113.523179
 20
651.293750
 42
-0.047364
  0
VERTEX
  8
0
 10
112.791990
 20
651.074117
 42
-0.049327
  0
VERTEX
  8
0
 10
112.042529
 20
651.000000
 42
0.081595
  0
VERTEX
  8
0
 10
111.000854
 20
650.828869
 42
0.013226
  0
VERTEX
  8
0
 10
109.068143
 20
650.118750
 42
0.014288
  0
VERTEX
  8
0
 10
106.818350
 20
649.148573
 42
0.012137
  0
VERTEX
  8
0
 10
104.500000
 20
648.000000
 42
-0.012058
  0
VERTEX
  8
0
 10
102.182557
 20
646.851421
 42
-0.014226
  0
VERTEX
  8
0
 10
99.935503
 20
645.881250
 42
-0.013141
  0
VERTEX
  8
0
 10
98.006015
 20
645.170702
 42
-0.081823
  0
VERTEX
  8
0
 10
96.969883
 20
645.000000
 42
0.070460
  0
VERTEX
  8
0
 10
96.154008
 20
644.884453
 42
0.038893
  0
VERTEX
  8
0
 10
95.209388
 20
644.529842
 42
0.037879
  0
VERTEX
  8
0
 10
94.289357
 20
644.012081
 42
0.049311
  0
VERTEX
  8
0
 10
93.542320
 20
643.399463
 42
-0.040280
  0
VERTEX
  8
0
 10
92.648237
 20
642.638894
 42
-0.012085
  0
VERTEX
  8
0
 10
91.172053
 20
641.628554
 42
-0.012030
  0
VERTEX
  8
0
 10
89.454238
 20
640.570689
 42
-0.012768
  0
VERTEX
  8
0
 10
87.720891
 20
639.618401
 42
0.010062
  0
VERTEX
  8
0
 10
85.788550
 20
638.570361
 42
0.005430
  0
VERTEX
  8
0
 10
83.449447
 20
637.206281
 42
0.005406
  0
VERTEX
  8
0
 10
81.095719
 20
635.764433
 42
0.008474
  0
VERTEX
  8
0
 10
79.107013
 20
634.468939
 42
-0.002512
  0
VERTEX
  8
0
 10
77.281281
 20
633.248359
 42
-0.002450
  0
VERTEX
  8
0
 10
75.428295
 20
632.035996
 42
-0.002414
  0
VERTEX
  8
0
 10
73.790457
 20
630.987010
 42
-0.009176
  0
VERTEX
  8
0
 10
72.752593
 20
630.355727
 42
0.051989
  0
VERTEX
  8
0
 10
70.192024
 20
628.480934
 42
0.012177
  0
VERTEX
  8
0
 10
66.334348
 20
624.812676
 42
0.006537
  0
VERTEX
  8
0
 10
62.507340
 20
620.890634
 42
0.192336
  0
VERTEX
  8
0
 10
62.000000
 20
619.620533
 42
-0.103797
  0
VERTEX
  8
0
 10
61.898393
 20
619.136356
 42
-0.028093
  0
VERTEX
  8
0
 10
61.541722
 20
618.433986
 42
-0.027172
  0
VERTEX
  8
0
 10
61.037023
 20
617.664290
 42
-0.025219
  0
VERTEX
  8
0
 10
60.439906
 20
616.933596
 42
0.059814
  0
VERTEX
  8
0
 10
58.136013
 20
613.679533
 42
0.011458
  0
VERTEX
  8
0
 10
54.828708
 20
607.227527
 42
0.006174
  0
VERTEX
  8
0
 10
51.638437
 20
600.423007
 42
0.200752
  0
VERTEX
  8
0
 10
51.585192
 20
598.638588
 42
-0.118485
  0
VERTEX
  8
0
 10
51.663887
 20
598.039166
 42
-0.068848
  0
VERTEX
  8
0
 10
51.488438
 20
597.330856
 42
-0.062632
  0
VERTEX
  8
0
 10
51.098704
 20
596.626508
 42
-0.061974
  0
VERTEX
  8
0
 10
50.545509
 20
596.037769
 42
0.070051
  0
VERTEX
  8
0
 10
49.953701
 20
595.387282
 42
0.044595
  0
VERTEX
  8
0
 10
49.453993
 20
594.492235
 42
0.044051
  0
VERTEX
  8
0
 10
49.113752
 20
593.505412
 42
0.061070
  0
VERTEX
  8
0
 10
49.000000
 20
592.577555
 42
-0.040044
  0
VERTEX
  8
0
 10
48.927326
 20
591.671577
 42
-0.035485
  0
VERTEX
  8
0
 10
48.710605
 20
590.750262
 42
-0.037214
  0
VERTEX
  8
0
 10
48.393091
 20
589.946837
 42
-0.083856
  0
VERTEX
  8
0
 10
48.014826
 20
589.414826
 42
0.142102
  0
VERTEX
  8
0
 10
47.583538
 20
588.631112
 42
0.008337
  0
VERTEX
  8
0
 10
47.026280
 20
585.938754
 42
0.012068
  0
VERTEX
  8
0
 10
46.486479
 20
582.662377
 42
0.008560
  0
VERTEX
  8
0
 10
46.032997
 20
578.964826
 42
-0.006080
  0
VERTEX
  8
0
 10
45.576690
 20
575.085028
 42
-0.006255
  0
VERTEX
  8
0
 10
45.030022
 20
571.254107
 42
-0.006073
  0
VERTEX
  8
0
 10
44.474338
 20
567.945476
 42
-0.026270
  0
VERTEX
  8
0
 10
44.018171
 20
566.006602
 42
0.065278
  0
VERTEX
  8
0
 10
43.189888
 20
560.643415
 42
0.005592
  0
VERTEX
  8
0
 10
43.027339
 20
546.718646
 42
0.006265
  0
VERTEX
  8
0
 10
43.193863
 20
532.887934
 42
0.052378
  0
VERTEX
  8
0
 10
43.998938
 20
526.692820
 42
-0.016988
  0
VERTEX
  8
0
 10
44.445801
 20
524.487438
 42
-0.005041
  0
VERTEX
  8
0
 10
44.980002
 20
521.087891
 42
-0.005051
  0
VERTEX
  8
0
 10
45.503509
 20
517.253209
 42
-0.005430
  0
VERTEX
  8
0
 10
45.935966
 20
513.500000
 42
0.012355
  0
VERTEX
  8
0
 10
47.157698
 20
504.049675
 42
0.008110
  0
VERTEX
  8
0
 10
49.009017
 20
493.231885
 42
0.007769
  0
VERTEX
  8
0
 10
51.332395
 20
481.843578
 42
0.007999
  0
VERTEX
  8
0
 10
53.987825
 20
470.643317
 42
-0.004185
  0
VERTEX
  8
0
 10
55.141425
 20
465.937785
 42
-0.005438
  0
VERTEX
  8
0
 10
56.115174
 20
461.607128
 42
-0.004130
  0
VERTEX
  8
0
 10
56.860234
 20
457.969677
 42
-0.048482
  0
VERTEX
  8
0
 10
57.000000
 20
456.531633
 42
0.070255
  0
VERTEX
  8
0
 10
57.179945
 20
455.257294
 42
0.012085
  0
VERTEX
  8
0
 10
57.914179
 20
452.922859
 42
0.012951
  0
VERTEX
  8
0
 10
58.920650
 20
450.206154
 42
0.011250
  0
VERTEX
  8
0
 10
60.112098
 20
447.413045
 42
-0.009161
  0
VERTEX
  8
0
 10
61.549438
 20
444.082121
 42
-0.004069
  0
VERTEX
  8
0
 10
63.328179
 20
439.640535
 42
-0.004026
  0
VERTEX
  8
0
 10
65.135792
 20
434.906154
 42
-0.005428
  0
VERTEX
  8
0
 10
66.690278
 20
430.591664
 42
0.015479
  0
VERTEX
  8
0
 10
70.895794
 20
419.616129
 42
0.022351
  0
VERTEX
  8
0
 10
75.336487
 20
410.221675
 42
0.022789
  0
VERTEX
  8
0
 10
80.527548
 20
401.398968
 42
0.017062
  0
VERTEX
  8
0
 10
87.002397
 20
392.164780
 42
0.018716
  0
VERTEX
  8
0
 10
93.296880
 20
384.429594
 42
0.019214
  0
VERTEX
  8
0
 10
100.099497
 20
377.256811
 42
0.020405
  0
VERTEX
  8
0
 10
106.859922
 20
371.174431
 42
0.035392
  0
VERTEX
  8
0
 10
113.000000
 20
366.780830
 42
-0.003306
  0
VERTEX
  8
0
 10
114.413102
 20
365.900876
 42
-0.000636
  0
VERTEX
  8
0
 10
116.961470
 20
364.285962
 42
-0.000677
  0
VERTEX
  8
0
 10
119.929995
 20
362.393850
 42
-0.000624
  0
VERTEX
  8
0
 10
122.975216
 20
360.441693
 42
0.034787
  0
VERTEX
  8
0
 10
134.318355
 20
354.218897
 42
0.017314
  0
VERTEX
  8
0
 10
149.438863
 20
347.868890
 42
0.017318
  0
VERTEX
  8
0
 10
165.056590
 20
342.548438
 42
0.032804
  0
VERTEX
  8
0
 10
178.000000
 20
339.543473
 42
-0.002932
  0
VERTEX
  8
0
 10
181.597365
 20
338.931878
 42
-0.002513
  0
VERTEX
  8
0
 10
185.377673
 20
338.246743
 42
-0.002531
  0
VERTEX
  8
0
 10
188.805842
 20
337.589646
 42
-0.007245
  0
VERTEX
  8
0
 10
191.179313
 20
337.086412
 42
0.016582
  0
VERTEX
  8
0
 10
201.214010
 20
335.153842
 42
0.020584
  0
VERTEX
  8
0
 10
210.656795
 20
334.054137
 42
0.019197
  0
VERTEX
  8
0
 10
220.674964
 20
333.689448
 42
0.011740
  0
VERTEX
  8
0
 10
232.500000
 20
333.990839
 42
0.030714
  0
VERTEX
  8
0
 10
274.329092
 20
338.626323
 42
0.038912
  0
VERTEX
  8
0
 10
311.999631
 20
348.227642
 42
0.042483
  0
VERTEX
  8
0
 10
344.781669
 20
362.563998
 42
0.053646
  0
VERTEX
  8
0
 10
372.000000
 20
381.360054
 42
-0.003763
  0
VERTEX
  8
0
 10
375.056154
 20
383.955346
 42
-0.001940
  0
VERTEX
  8
0
 10
378.917580
 20
387.159401
 42
-0.001928
  0
VERTEX
  8
0
 10
382.915162
 20
390.424550
 42
-0.002917
  0
VERTEX
  8
0
 10
386.421550
 20
393.232300
 42
0.008016
  0
VERTEX
  8
0
 10
392.564126
 20
398.254630
 42
0.026057
  0
VERTEX
  8
0
 10
396.398896
 20
401.852452
 42
0.020300
  0
VERTEX
  8
0
 10
400.299496
 20
406.258975
 42
0.003454
  0
VERTEX
  8
0
 10
407.325756
 20
415.000000
 42
0.017219
  0
VERTEX
  8
0
 10
416.483236
 20
427.409788
 42
0.011235
  0
VERTEX
  8
0
 10
426.220776
 20
442.310623
 42
0.011259
  0
VERTEX
  8
0
 10
435.230864
 20
457.553925
 42
0.018001
  0
VERTEX
  8
0
 10
442.151295
 20
471.000000
 42
0.002965
  0
VERTEX
  8
0
 10
448.792846
 20
485.352798
 42
0.009842
  0
VERTEX
  8
0
 10
452.917923
 20
494.901662
 42
0.013832
  0
VERTEX
  8
0
 10
455.854151
 20
502.692111
 42
0.012917
  0
VERTEX
  8
0
 10
458.427772
 20
510.811857
 42
0.007269
  0
VERTEX
  8
0
 10
460.592908
 20
518.740690
 42
0.009374
  0
VERTEX
  8
0
 10
462.338182
 20
526.085673
 42
0.006454
  0
VERTEX
  8
0
 10
464.230003
 20
535.340636
 42
0.001625
  0
VERTEX
  8
0
 10
467.066669
 20
550.458916
 42
-0.012987
  0
VERTEX
  8
0
 10
467.591113
 20
552.941384
 42
-0.011826
  0
VERTEX
  8
0
 10
468.258593
 20
555.472693
 42
-0.011930
  0
VERTEX
  8
0
 10
468.962778
 20
557.706875
 42
-0.037032
  0
VERTEX
  8
0
 10
469.582354
 20
559.159256
 42
0.044315
  0
VERTEX
  8
0
 10
470.126450
 20
560.487902
 42
0.022415
  0
VERTEX
  8
0
 10
470.583567
 20
562.239447
 42
0.022072
  0
VERTEX
  8
0
 10
470.896516
 20
564.103614
 42
0.030556
  0
VERTEX
  8
0
 10
471.000000
 20
565.795353
 42
-0.091188
  0
VERTEX
  8
0
 10
471.657262
 20
569.369287
 42
-0.151163
  0
VERTEX
  8
0
 10
473.530318
 20
571.763850
 42
-0.078442
  0
VERTEX
  8
0
 10
477.398785
 20
573.634331
 42
-0.012630
  0
VERTEX
  8
0
 10
485.500000
 20
575.863799
 42
-0.034470
  0
VERTEX
  8
0
 10
496.976274
 20
577.885589
 42
-0.023451
  0
VERTEX
  8
0
 10
510.216926
 20
578.662061
 42
-0.022812
  0
VERTEX
  8
0
 10
523.979512
 20
578.194861
 42
-0.025960
  0
VERTEX
  8
0
 10
537.054138
 20
576.466122
 42
-0.004736
  0
VERTEX
  8
0
 10
545.740985
 20
574.769898
 42
-0.122411
  0
VERTEX
  8
0
 10
547.885035
 20
573.744978
 42
-0.205663
  0
VERTEX
  8
0
 10
548.813718
 20
571.941816
 42
-0.017484
  0
VERTEX
  8
0
 10
549.000000
 20
566.616272
 42
0.020266
  0
VERTEX
  8
0
 10
549.266790
 20
560.036714
 42
0.021128
  0
VERTEX
  8
0
 10
550.065488
 20
553.591997
 42
0.016756
  0
VERTEX
  8
0
 10
551.580640
 20
546.081261
 42
0.006879
  0
VERTEX
  8
0
 10
554.115390
 20
536.000000
 42
0.005212
  0
VERTEX
  8
0
 10
558.064844
 20
521.757761
 42
0.013212
  0
VERTEX
  8
0
 10
561.313811
 20
511.522046
 42
0.017238
  0
VERTEX
  8
0
 10
564.497026
 20
503.272213
 42
0.018791
  0
VERTEX
  8
0
 10
568.158874
 20
495.500000
 42
-0.001017
  0
VERTEX
  8
0
 10
570.391741
 20
491.167170
 42
-0.000775
  0
VERTEX
  8
0
 10
572.819927
 20
486.413556
 42
-0.000784
  0
VERTEX
  8
0
 10
575.081936
 20
481.950976
 42
-0.001841
  0
VERTEX
  8
0
 10
576.753445
 20
478.609977
 42
0.011122
  0
VERTEX
  8
0
 10
578.455388
 20
475.360313
 42
0.005162
  0
VERTEX
  8
0
 10
580.801648
 20
471.214718
 42
0.005111
  0
VERTEX
  8
0
 10
583.356264
 20
466.909770
 42
0.007098
  0
VERTEX
  8
0
 10
585.738430
 20
463.109977
 42
-0.006351
  0
VERTEX
  8
0
 10
588.013311
 20
459.493330
 42
-0.005976
  0
VERTEX
  8
0
 10
590.243054
 20
455.746578
 42
-0.005955
  0
VERTEX
  8
0
 10
592.139951
 20
452.378783
 42
-0.020533
  0
VERTEX
  8
0
 10
593.252237
 20
450.133694
 42
0.030448
  0
VERTEX
  8
0
 10
595.763405
 20
445.307855
 42
0.007514
  0
VERTEX
  8
0
 10
600.475703
 20
437.719426
 42
0.007914
  0
VERTEX
  8
0
 10
605.947269
 20
429.486421
 42
0.009898
  0
VERTEX
  8
0
 10
611.293833
 20
422.031789
 42
0.028738
  0
VERTEX
  8
0
 10
617.540048
 20
414.607605
 42
0.004481
  0
VERTEX
  8
0
 10
630.830824
 20
400.787171
 42
0.001152
  0
VERTEX
  8
0
 10
645.528024
 20
385.844938
 42
0.200462
  0
VERTEX
  8
0
 10
647.550809
 20
385.000000
 42
-0.142685
  0
VERTEX
  8
0
 10
648.131903
 20
384.830727
 42
-0.020687
  0
VERTEX
  8
0
 10
649.154325
 20
384.118750
 42
-0.022037
  0
VERTEX
  8
0
 10
650.320759
 20
383.148742
 42
-0.017260
  0
VERTEX
  8
0
 10
651.500000
 20
382.000000
 42
0.017050
  0
VERTEX
  8
0
 10
652.678356
 20
380.851156
 42
0.021828
  0
VERTEX
  8
0
 10
653.842121
 20
379.880891
 42
0.020402
  0
VERTEX
  8
0
 10
654.861366
 20
379.167726
 42
0.143109
  0
VERTEX
  8
0
 10
655.437091
 20
378.998779
 42
-0.120970
  0
VERTEX
  8
0
 10
656.016425
 20
378.855827
 42
-0.019524
  0
VERTEX
  8
0
 10
657.031503
 20
378.272294
 42
-0.020584
  0
VERTEX
  8
0
 10
658.194665
 20
377.473219
 42
-0.016796
  0
VERTEX
  8
0
 10
659.372282
 20
376.527355
 42
0.017112
  0
VERTEX
  8
0
 10
660.602972
 20
375.540142
 42
0.016013
  0
VERTEX
  8
0
 10
661.925274
 20
374.616324
 42
0.016224
  0
VERTEX
  8
0
 10
663.151116
 20
373.872579
 42
0.051438
  0
VERTEX
  8
0
 10
664.029901
 20
373.490510
 42
-0.057064
  0
VERTEX
  8
0
 10
664.754488
 20
373.165767
 42
-0.044417
  0
VERTEX
  8
0
 10
665.455588
 20
372.660875
 42
-0.045660
  0
VERTEX
  8
0
 10
666.031251
 20
372.063206
 42
-0.077399
  0
VERTEX
  8
0
 10
666.376234
 20
371.461933
 42
0.106691
  0
VERTEX
  8
0
 10
666.741748
 20
370.902803
 42
0.066536
  0
VERTEX
  8
0
 10
667.369157
 20
370.429443
 42
0.062189
  0
VERTEX
  8
0
 10
668.150089
 20
370.109112
 42
0.066358
  0
VERTEX
  8
0
 10
668.968615
 20
370.000000
 42
-0.047258
  0
VERTEX
  8
0
 10
669.746082
 20
369.926353
 42
-0.067241
  0
VERTEX
  8
0
 10
670.403281
 20
369.706250
 42
-0.087393
  0
VERTEX
  8
0
 10
670.846416
 20
369.381936
 42
-0.193529
  0
VERTEX
  8
0
 10
671.000000
 20
369.000000
 42
0.190423
  0
VERTEX
  8
0
 10
671.150905
 20
368.618132
 42
0.088422
  0
VERTEX
  8
0
 10
671.585011
 20
368.293750
 42
0.068240
  0
VERTEX
  8
0
 10
672.229361
 20
368.073706
 42
0.048240
  0
VERTEX
  8
0
 10
672.991526
 20
368.000000
 42
-0.085407
  0
VERTEX
  8
0
 10
673.845653
 20
367.853032
 42
-0.053089
  0
VERTEX
  8
0
 10
674.764941
 20
367.412500
 42
-0.051408
  0
VERTEX
  8
0
 10
675.606640
 20
366.765059
 42
-0.063621
  0
VERTEX
  8
0
 10
676.232073
 20
366.000000
 42
0.036344
  0
VERTEX
  8
0
 10
676.791147
 20
365.234669
 42
0.040456
  0
VERTEX
  8
0
 10
677.437062
 20
364.587500
 42
0.044346
  0
VERTEX
  8
0
 10
678.071474
 20
364.137582
 42
0.132831
  0
VERTEX
  8
0
 10
678.580219
 20
364.000000
 42
-0.104529
  0
VERTEX
  8
0
 10
679.331326
 20
363.841240
 42
-0.003197
  0
VERTEX
  8
0
 10
682.241294
 20
362.531250
 42
-0.006170
  0
VERTEX
  8
0
 10
685.657302
 20
360.915831
 42
-0.004214
  0
VERTEX
  8
0
 10
689.500000
 20
359.000000
 42
0.004992
  0
VERTEX
  8
0
 10
693.357293
 20
357.084385
 42
0.007141
  0
VERTEX
  8
0
 10
696.818943
 20
355.468750
 42
0.004194
  0
VERTEX
  8
0
 10
699.754030
 20
354.179071
 42
0.101753
  0
VERTEX
  8
0
 10
700.624845
 20
354.000000
 42
-0.090009
  0
VERTEX
  8
0
 10
701.379356
 20
353.863065
 42
-0.012356
  0
VERTEX
  8
0
 10
702.867640
 20
353.262096
 42
-0.013858
  0
VERTEX
  8
0
 10
704.610153
 20
352.449824
 42
-0.011318
  0
VERTEX
  8
0
 10
706.428478
 20
351.487987
 42
0.010250
  0
VERTEX
  8
0
 10
708.209335
 20
350.541095
 42
0.014432
  0
VERTEX
  8
0
 10
709.837110
 20
349.776105
 42
0.010581
  0
VERTEX
  8
0
 10
711.206135
 20
349.214471
 42
0.159172
  0
VERTEX
  8
0
 10
711.713961
 20
349.187812
 42
-0.147304
  0
VERTEX
  8
0
 10
712.222565
 20
349.172926
 42
-0.010468
  0
VERTEX
  8
0
 10
713.572713
 20
348.691224
 42
-0.014039
  0
VERTEX
  8
0
 10
715.180628
 20
348.027066
 42
-0.010104
  0
VERTEX
  8
0
 10
716.937829
 20
347.199825
 42
0.021615
  0
VERTEX
  8
0
 10
718.838907
 20
346.357738
 42
0.019222
  0
VERTEX
  8
0
 10
720.880785
 20
345.646199
 42
0.019654
  0
VERTEX
  8
0
 10
722.767734
 20
345.149133
 42
0.054621
  0
VERTEX
  8
0
 10
724.128812
 20
345.000000
 42
-0.033484
  0
VERTEX
  8
0
 10
725.228013
 20
344.926305
 42
-0.038638
  0
VERTEX
  8
0
 10
726.254775
 20
344.706250
 42
-0.042237
  0
VERTEX
  8
0
 10
727.075806
 20
344.385167
 42
-0.140925
  0
VERTEX
  8
0
 10
727.500000
 20
344.000000
 42
0.128561
  0
VERTEX
  8
0
 10
727.903211
 20
343.615613
 42
0.046040
  0
VERTEX
  8
0
 10
728.636189
 20
343.293750
 42
0.041947
  0
VERTEX
  8
0
 10
729.542916
 20
343.073871
 42
0.038534
  0
VERTEX
  8
0
 10
730.500000
 20
343.000000
 42
-0.038534
  0
VERTEX
  8
0
 10
731.457084
 20
342.926129
 42
-0.041947
  0
VERTEX
  8
0
 10
732.363811
 20
342.706250
 42
-0.046040
  0
VERTEX
  8
0
 10
733.096789
 20
342.384387
 42
-0.128561
  0
VERTEX
  8
0
 10
733.500000
 20
342.000000
 42
0.186738
  0
VERTEX
  8
0
 10
734.014908
 20
341.610188
 42
0.024736
  0
VERTEX
  8
0
 10
735.370564
 20
341.293750
 42
0.025914
  0
VERTEX
  8
0
 10
737.085157
 20
341.073011
 42
0.019058
  0
VERTEX
  8
0
 10
739.000000
 20
341.000000
 42
-0.019058
  0
VERTEX
  8
0
 10
740.914843
 20
340.926989
 42
-0.025914
  0
VERTEX
  8
0
 10
742.629436
 20
340.706250
 42
-0.024736
  0
VERTEX
  8
0
 10
743.985092
 20
340.389812
 42
-0.186738
  0
VERTEX
  8
0
 10
744.500000
 20
340.000000
 42
0.193442
  0
VERTEX
  8
0
 10
745.030344
 20
339.609194
 42
0.021940
  0
VERTEX
  8
0
 10
746.517439
 20
339.293750
 42
0.023992
  0
VERTEX
  8
0
 10
748.393511
 20
339.072912
 42
0.017301
  0
VERTEX
  8
0
 10
750.500000
 20
339.000000
 42
-0.017301
  0
VERTEX
  8
0
 10
752.606489
 20
338.927088
 42
-0.023992
  0
VERTEX
  8
0
 10
754.482561
 20
338.706250
 42
-0.021940
  0
VERTEX
  8
0
 10
755.969656
 20
338.390806
 42
-0.193442
  0
VERTEX
  8
0
 10
756.500000
 20
338.000000
 42
0.215801
  0
VERTEX
  8
0
 10
757.087271
 20
337.604968
 42
0.012687
  0
VERTEX
  8
0
 10
759.269150
 20
337.293750
 42
0.017326
  0
VERTEX
  8
0
 10
761.971513
 20
337.072585
 42
0.011753
  0
VERTEX
  8
0
 10
765.059017
 20
337.000000
 42
-0.010716
  0
VERTEX
  8
0
 10
768.231142
 20
336.932010
 42
-0.020605
  0
VERTEX
  8
0
 10
770.764754
 20
336.718518
 42
-0.017187
  0
VERTEX
  8
0
 10
772.659946
 20
336.413371
 42
-0.358465
  0
VERTEX
  8
0
 10
773.000000
 20
336.000000
 42
0.400053
  0
VERTEX
  8
0
 10
773.444033
 20
335.533850
 42
0.002515
  0
VERTEX
  8
0
 10
779.735246
 20
335.259637
 42
0.006921
  0
VERTEX
  8
0
 10
787.804442
 20
335.060389
 42
0.002711
  0
VERTEX
  8
0
 10
798.940983
 20
335.000000
 42
0.002865
  0
VERTEX
  8
0
 10
809.895357
 20
335.062769
 42
0.006544
  0
VERTEX
  8
0
 10
818.156358
 20
335.265593
 42
0.002476
  0
VERTEX
  8
0
 10
824.728766
 20
335.545653
 42
0.247284
  0
VERTEX
  8
0
 10
825.500000
 20
336.000000
 42
-0.215439
  0
VERTEX
  8
0
 10
826.086273
 20
336.394950
 42
-0.012833
  0
VERTEX
  8
0
 10
828.251814
 20
336.706250
 42
-0.017439
  0
VERTEX
  8
0
 10
830.935123
 20
336.927410
 42
-0.011841
  0
VERTEX
  8
0
 10
834.000000
 20
337.000000
 42
0.011841
  0
VERTEX
  8
0
 10
837.064877
 20
337.072590
 42
0.017439
  0
VERTEX
  8
0
 10
839.748186
 20
337.293750
 42
0.012833
  0
VERTEX
  8
0
 10
841.913727
 20
337.605050
 42
0.215439
  0
VERTEX
  8
0
 10
842.500000
 20
338.000000
 42
-0.193442
  0
VERTEX
  8
0
 10
843.030344
 20
338.390806
 42
-0.021940
  0
VERTEX
  8
0
 10
844.517439
 20
338.706250
 42
-0.023992
  0
VERTEX
  8
0
 10
846.393511
 20
338.927088
 42
-0.017301
  0
VERTEX
  8
0
 10
848.500000
 20
339.000000
 42
0.017301
  0
VERTEX
  8
0
 10
850.606489
 20
339.072912
 42
0.023992
  0
VERTEX
  8
0
 10
852.482561
 20
339.293750
 42
0.021940
  0
VERTEX
  8
0
 10
853.969656
 20
339.609194
 42
0.193442
  0
VERTEX
  8
0
 10
854.500000
 20
340.000000
 42
-0.128561
  0
VERTEX
  8
0
 10
854.903211
 20
340.384387
 42
-0.046040
  0
VERTEX
  8
0
 10
855.636189
 20
340.706250
 42
-0.041947
  0
VERTEX
  8
0
 10
856.542916
 20
340.926129
 42
-0.038534
  0
VERTEX
  8
0
 10
857.500000
 20
341.000000
 42
0.038534
  0
VERTEX
  8
0
 10
858.457084
 20
341.073871
 42
0.041947
  0
VERTEX
  8
0
 10
859.363811
 20
341.293750
 42
0.046040
  0
VERTEX
  8
0
 10
860.096789
 20
341.615613
 42
0.128561
  0
VERTEX
  8
0
 10
860.500000
 20
342.000000
 42
-0.170670
  0
VERTEX
  8
0
 10
860.980410
 20
342.387806
 42
-0.031293
  0
VERTEX
  8
0
 10
862.094150
 20
342.706250
 42
-0.030444
  0
VERTEX
  8
0
 10
863.504790
 20
342.926750
 42
-0.023552
  0
VERTEX
  8
0
 10
865.059017
 20
343.000000
 42
0.023957
  0
VERTEX
  8
0
 10
866.569320
 20
343.072405
 42
0.038191
  0
VERTEX
  8
0
 10
867.842336
 20
343.293750
 42
0.044731
  0
VERTEX
  8
0
 10
868.751017
 20
343.613040
 42
0.293924
  0
VERTEX
  8
0
 10
869.000000
 20
344.000000
 42
-0.276442
  0
VERTEX
  8
0
 10
869.230835
 20
344.385604
 42
-0.052888
  0
VERTEX
  8
0
 10
870.019190
 20
344.706250
 42
-0.042920
  0
VERTEX
  8
0
 10
871.140143
 20
344.927447
 42
-0.027267
  0
VERTEX
  8
0
 10
872.469584
 20
345.000000
 42
0.045012
  0
VERTEX
  8
0
 10
874.055130
 20
345.143027
 42
0.024312
  0
VERTEX
  8
0
 10
875.965972
 20
345.587500
 42
0.024022
  0
VERTEX
  8
0
 10
877.883213
 20
346.233920
 42
0.034646
  0
VERTEX
  8
0
 10
879.500000
 20
347.000000
 42
-0.020403
  0
VERTEX
  8
0
 10
881.003493
 20
347.765531
 42
-0.019929
  0
VERTEX
  8
0
 10
882.576067
 20
348.412500
 42
-0.020286
  0
VERTEX
  8
0
 10
883.999758
 20
348.868364
 42
-0.067431
  0
VERTEX
  8
0
 10
884.971399
 20
349.000000
 42
0.044720
  0
VERTEX
  8
0
 10
885.745186
 20
349.069346
 42
0.045309
  0
VERTEX
  8
0
 10
886.490788
 20
349.275149
 42
0.049383
  0
VERTEX
  8
0
 10
887.102750
 20
349.577246
 42
0.115504
  0
VERTEX
  8
0
 10
887.460864
 20
349.936676
 42
-0.121563
  0
VERTEX
  8
0
 10
888.522699
 20
350.977243
 42
-0.017864
  0
VERTEX
  8
0
 10
891.188783
 20
352.425501
 42
-0.019164
  0
VERTEX
  8
0
 10
893.962560
 20
353.676100
 42
-0.096611
  0
VERTEX
  8
0
 10
895.623222
 20
354.000000
 42
0.081845
  0
VERTEX
  8
0
 10
896.346575
 20
354.119204
 42
0.015636
  0
VERTEX
  8
0
 10
897.598603
 20
354.587500
 42
0.016292
  0
VERTEX
  8
0
 10
899.040225
 20
355.234351
 42
0.014352
  0
VERTEX
  8
0
 10
900.500000
 20
356.000000
 42
-0.015946
  0
VERTEX
  8
0
 10
901.971055
 20
356.765596
 42
-0.017391
  0
VERTEX
  8
0
 10
903.446528
 20
357.412500
 42
-0.017095
  0
VERTEX
  8
0
 10
904.741277
 20
357.876676
 42
-0.077667
  0
VERTEX
  8
0
 10
905.530416
 20
358.000000
 42
0.066260
  0
VERTEX
  8
0
 10
906.092197
 20
358.074775
 42
0.083403
  0
VERTEX
  8
0
 10
906.568310
 20
358.293750
 42
0.099304
  0
VERTEX
  8
0
 10
906.886745
 20
358.618654
 42
0.145357
  0
VERTEX
  8
0
 10
907.000000
 20
359.000000
 42
-0.173062
  0
VERTEX
  8
0
 10
907.136147
 20
359.381567
 42
-0.093597
  0
VERTEX
  8
0
 10
907.522652
 20
359.706250
 42
-0.073949
  0
VERTEX
  8
0
 10
908.098578
 20
359.925933
 42
-0.054248
  0
VERTEX
  8
0
 10
908.779241
 20
360.000000
 42
0.091287
  0
VERTEX
  8
0
 10
909.565449
 20
360.144747
 42
0.047927
  0
VERTEX
  8
0
 10
910.459276
 20
360.587500
 42
0.045499
  0
VERTEX
  8
0
 10
911.316802
 20
361.234851
 42
0.052224
  0
VERTEX
  8
0
 10
912.000000
 20
362.000000
 42
-0.033908
  0
VERTEX
  8
0
 10
912.634666
 20
362.765367
 42
-0.037227
  0
VERTEX
  8
0
 10
913.348718
 20
363.412500
 42
-0.040231
  0
VERTEX
  8
0
 10
914.035743
 20
363.864029
 42
-0.125913
  0
VERTEX
  8
0
 10
914.567121
 20
364.000000
 42
0.101824
  0
VERTEX
  8
0
 10
916.230074
 20
364.342204
 42
0.021342
  0
VERTEX
  8
0
 10
918.922445
 20
365.638029
 42
0.022676
  0
VERTEX
  8
0
 10
921.527430
 20
367.187496
 42
0.074169
  0
VERTEX
  8
0
 10
923.017220
 20
368.520749
 42
-0.045408
  0
VERTEX
  8
0
 10
923.581046
 20
369.086744
 42
-0.040624
  0
VERTEX
  8
0
 10
924.258237
 20
369.565470
 42
-0.042905
  0
VERTEX
  8
0
 10
924.941935
 20
369.894387
 42
-0.090910
  0
VERTEX
  8
0
 10
925.517998
 20
370.000000
 42
0.204435
  0
VERTEX
  8
0
 10
927.283974
 20
370.753548
 42
0.002008
  0
VERTEX
  8
0
 10
936.998325
 20
380.971141
 42
0.005537
  0
VERTEX
  8
0
 10
945.888976
 20
390.609526
 42
0.046525
  0
VERTEX
  8
0
 10
949.424154
 20
395.347664
 42
-0.003219
  0
VERTEX
  8
0
 10
950.440110
 20
396.988259
 42
-0.000956
  0
VERTEX
  8
0
 10
952.014204
 20
399.483376
 42
-0.000959
  0
VERTEX
  8
0
 10
953.793664
 20
402.280238
 42
-0.001035
  0
VERTEX
  8
0
 10
955.539340
 20
405.000000
 42
0.025213
  0
VERTEX
  8
0
 10
959.863664
 20
412.512859
 42
0.012868
  0
VERTEX
  8
0
 10
964.562183
 20
422.336459
 42
0.012581
  0
VERTEX
  8
0
 10
968.991436
 20
432.953418
 42
0.015844
  0
VERTEX
  8
0
 10
972.527081
 20
443.000000
 42
0.002911
  0
VERTEX
  8
0
 10
978.015512
 20
460.687276
 42
0.012508
  0
VERTEX
  8
0
 10
980.956990
 20
471.313704
 42
0.013518
  0
VERTEX
  8
0
 10
983.255540
 20
481.690099
 42
0.003801
  0
VERTEX
  8
0
 10
986.280112
 20
498.000000
 42
0.015701
  0
VERTEX
  8
0
 10
987.518806
 20
506.520907
 42
0.017817
  0
VERTEX
  8
0
 10
988.156497
 20
514.750747
 42
0.009250
  0
VERTEX
  8
0
 10
988.428940
 20
526.491444
 42
0.001301
  0
VERTEX
  8
0
 10
988.479818
 20
550.720182
 42
0.001404
  0
VERTEX
  8
0
 10
988.413884
 20
570.641576
 42
0.006008
  0
VERTEX
  8
0
 10
988.198447
 20
582.521410
 42
0.003976
  0
VERTEX
  8
0
 10
987.887438
 20
590.680518
 42
0.186971
  0
VERTEX
  8
0
 10
987.229818
 20
592.170182
 42
-0.072642
  0
VERTEX
  8
0
 10
986.758301
 20
592.802990
 42
-0.038722
  0
VERTEX
  8
0
 10
986.361259
 20
593.697030
 42
-0.037550
  0
VERTEX
  8
0
 10
986.090547
 20
594.692731
 42
-0.047636
  0
VERTEX
  8
0
 10
986.000000
 20
595.640983
 42
0.040867
  0
VERTEX
  8
0
 10
985.926061
 20
596.544102
 42
0.043300
  0
VERTEX
  8
0
 10
985.706250
 20
597.405225
 42
0.047457
  0
VERTEX
  8
0
 10
985.384107
 20
598.105214
 42
0.123387
  0
VERTEX
  8
0
 10
985.000000
 20
598.500000
 42
-0.146547
  0
VERTEX
  8
0
 10
984.614422
 20
598.934161
 42
-0.040338
  0
VERTEX
  8
0
 10
984.293750
 20
599.800400
 42
-0.037109
  0
VERTEX
  8
0
 10
984.073612
 20
600.887885
 42
-0.031397
  0
VERTEX
  8
0
 10
984.000000
 20
602.059017
 42
0.032276
  0
VERTEX
  8
0
 10
983.927200
 20
603.185620
 42
0.049716
  0
VERTEX
  8
0
 10
983.706250
 20
604.136086
 42
0.064068
  0
VERTEX
  8
0
 10
983.384097
 20
604.793368
 42
0.251914
  0
VERTEX
  8
0
 10
983.000000
 20
605.000000
 42
-0.191087
  0
VERTEX
  8
0
 10
982.618118
 20
605.151477
 42
-0.088204
  0
VERTEX
  8
0
 10
982.293750
 20
605.587500
 42
-0.068025
  0
VERTEX
  8
0
 10
982.073693
 20
606.234582
 42
-0.048028
  0
VERTEX
  8
0
 10
982.000000
 20
607.000000
 42
0.048028
  0
VERTEX
  8
0
 10
981.926307
 20
607.765418
 42
0.068025
  0
VERTEX
  8
0
 10
981.706250
 20
608.412500
 42
0.088204
  0
VERTEX
  8
0
 10
981.381882
 20
608.848523
 42
0.191087
  0
VERTEX
  8
0
 10
981.000000
 20
609.000000
 42
-0.191087
  0
VERTEX
  8
0
 10
980.618118
 20
609.151477
 42
-0.088204
  0
VERTEX
  8
0
 10
980.293750
 20
609.587500
 42
-0.068025
  0
VERTEX
  8
0
 10
980.073693
 20
610.234582
 42
-0.048028
  0
VERTEX
  8
0
 10
980.000000
 20
611.000000
 42
0.048028
  0
VERTEX
  8
0
 10
979.926307
 20
611.765418
 42
0.068025
  0
VERTEX
  8
0
 10
979.706250
 20
612.412500
 42
0.088204
  0
VERTEX
  8
0
 10
979.381882
 20
612.848523
 42
0.191087
  0
VERTEX
  8
0
 10
979.000000
 20
613.000000
 42
-0.178587
  0
VERTEX
  8
0
 10
978.618352
 20
613.140806
 42
-0.092064
  0
VERTEX
  8
0
 10
978.293750
 20
613.541972
 42
-0.072110
  0
VERTEX
  8
0
 10
978.073946
 20
614.139098
 42
-0.052233
  0
VERTEX
  8
0
 10
978.000000
 20
614.845012
 42
0.084684
  0
VERTEX
  8
0
 10
977.857209
 20
615.682053
 42
0.040713
  0
VERTEX
  8
0
 10
977.412500
 20
616.679733
 42
0.038833
  0
VERTEX
  8
0
 10
976.765311
 20
617.671193
 42
0.044853
  0
VERTEX
  8
0
 10
976.000000
 20
618.500000
 42
-0.028049
  0
VERTEX
  8
0
 10
975.234533
 20
619.275095
 42
-0.030977
  0
VERTEX
  8
0
 10
974.587500
 20
620.106846
 42
-0.032561
  0
VERTEX
  8
0
 10
974.131555
 20
620.877764
 42
-0.117789
  0
VERTEX
  8
0
 10
974.000000
 20
621.428448
 42
0.195732
  0
VERTEX
  8
0
 10
973.337690
 20
623.055507
 42
0.003151
  0
VERTEX
  8
0
 10
966.236226
 20
630.241849
 42
0.003153
  0
VERTEX
  8
0
 10
959.045028
 20
637.337762
 42
0.195542
  0
VERTEX
  8
0
 10
957.416438
 20
638.000000
 42
-0.112373
  0
VERTEX
  8
0
 10
956.884351
 20
638.121114
 42
-0.026547
  0
VERTEX
  8
0
 10
956.079949
 20
638.561288
 42
-0.026013
  0
VERTEX
  8
0
 10
955.187633
 20
639.179371
 42
-0.023059
  0
VERTEX
  8
0
 10
954.326153
 20
639.910769
 42
0.065910
  0
VERTEX
  8
0
 10
951.432319
 20
641.969702
 42
0.005388
  0
VERTEX
  8
0
 10
943.159825
 20
646.234382
 42
0.003765
  0
VERTEX
  8
0
 10
934.570891
 20
650.465021
 42
0.113016
  0
VERTEX
  8
0
 10
932.234299
 20
651.000000
 42
-0.086038
  0
VERTEX
  8
0
 10
931.573443
 20
651.114566
 42
-0.014101
  0
VERTEX
  8
0
 10
930.359544
 20
651.587500
 42
-0.015158
  0
VERTEX
  8
0
 10
928.949336
 20
652.234288
 42
-0.012856
  0
VERTEX
  8
0
 10
927.500000
 20
653.000000
 42
0.015633
  0
VERTEX
  8
0
 10
926.031180
 20
653.765605
 42
0.017183
  0
VERTEX
  8
0
 10
924.562406
 20
654.412500
 42
0.016822
  0
VERTEX
  8
0
 10
923.276229
 20
654.877429
 42
0.078467
  0
VERTEX
  8
0
 10
922.500000
 20
655.000000
 42
-0.078467
  0
VERTEX
  8
0
 10
921.723771
 20
655.122571
 42
-0.016822
  0
VERTEX
  8
0
 10
920.437594
 20
655.587500
 42
-0.017183
  0
VERTEX
  8
0
 10
918.968820
 20
656.234395
 42
-0.015633
  0
VERTEX
  8
0
 10
917.500000
 20
657.000000
 42
0.025786
  0
VERTEX
  8
0
 10
915.955485
 20
657.765606
 42
0.022104
  0
VERTEX
  8
0
 10
914.259722
 20
658.412500
 42
0.022695
  0
VERTEX
  8
0
 10
912.664758
 20
658.862266
 42
0.057431
  0
VERTEX
  8
0
 10
911.469584
 20
659.000000
 42
-0.038615
  0
VERTEX
  8
0
 10
910.523903
 20
659.073144
 42
-0.057655
  0
VERTEX
  8
0
 10
909.725440
 20
659.293750
 42
-0.075787
  0
VERTEX
  8
0
 10
909.181059
 20
659.617138
 42
-0.224533
  0
VERTEX
  8
0
 10
909.000000
 20
660.000000
 42
0.293924
  0
VERTEX
  8
0
 10
908.751017
 20
660.386960
 42
0.044731
  0
VERTEX
  8
0
 10
907.842336
 20
660.706250
 42
0.038191
  0
VERTEX
  8
0
 10
906.569320
 20
660.927595
 42
0.023957
  0
VERTEX
  8
0
 10
905.059017
 20
661.000000
 42
-0.023552
  0
VERTEX
  8
0
 10
903.504790
 20
661.073250
 42
-0.030444
  0
VERTEX
  8
0
 10
902.094150
 20
661.293750
 42
-0.031293
  0
VERTEX
  8
0
 10
900.980410
 20
661.612194
 42
-0.170670
  0
VERTEX
  8
0
 10
900.500000
 20
662.000000
 42
0.128561
  0
VERTEX
  8
0
 10
900.096789
 20
662.384387
 42
0.046040
  0
VERTEX
  8
0
 10
899.363811
 20
662.706250
 42
0.041947
  0
VERTEX
  8
0
 10
898.457084
 20
662.926129
 42
0.038534
  0
VERTEX
  8
0
 10
897.500000
 20
663.000000
 42
-0.038534
  0
VERTEX
  8
0
 10
896.542916
 20
663.073871
 42
-0.041947
  0
VERTEX
  8
0
 10
895.636189
 20
663.293750
 42
-0.046040
  0
VERTEX
  8
0
 10
894.903211
 20
663.615613
 42
-0.128561
  0
VERTEX
  8
0
 10
894.500000
 20
664.000000
 42
0.156712
  0
VERTEX
  8
0
 10
894.047075
 20
664.386418
 42
0.036683
  0
VERTEX
  8
0
 10
893.088693
 20
664.706250
 42
0.034318
  0
VERTEX
  8
0
 10
891.879177
 20
664.926540
 42
0.027894
  0
VERTEX
  8
0
 10
890.563428
 20
665.000000
 42
-0.040628
  0
VERTEX
  8
0
 10
889.201672
 20
665.110834
 42
-0.038807
  0
VERTEX
  8
0
 10
887.854024
 20
665.440625
 42
-0.041356
  0
VERTEX
  8
0
 10
886.711665
 20
665.923929
 42
-0.099115
  0
VERTEX
  8
0
 10
886.000000
 20
666.500000
 42
0.099115
  0
VERTEX
  8
0
 10
885.288335
 20
667.076071
 42
0.041356
  0
VERTEX
  8
0
 10
884.145976
 20
667.559375
 42
0.038807
  0
VERTEX
  8
0
 10
882.798328
 20
667.889166
 42
0.040628
  0
VERTEX
  8
0
 10
881.436572
 20
668.000000
 42
-0.027894
  0
VERTEX
  8
0
 10
880.120823
 20
668.073460
 42
-0.034318
  0
VERTEX
  8
0
 10
878.911307
 20
668.293750
 42
-0.036683
  0
VERTEX
  8
0
 10
877.952925
 20
668.613582
 42
-0.156712
  0
VERTEX
  8
0
 10
877.500000
 20
669.000000
 42
0.169477
  0
VERTEX
  8
0
 10
877.022024
 20
669.387676
 42
0.031768
  0
VERTEX
  8
0
 10
875.923186
 20
669.706250
 42
0.030777
  0
VERTEX
  8
0
 10
874.531614
 20
669.926732
 42
0.023905
  0
VERTEX
  8
0
 10
873.000000
 20
670.000000
 42
-0.023905
  0
VERTEX
  8
0
 10
871.468386
 20
670.073268
 42
-0.030777
  0
VERTEX
  8
0
 10
870.076814
 20
670.293750
 42
-0.031768
  0
VERTEX
  8
0
 10
868.977976
 20
670.612324
 42
-0.169477
  0
VERTEX
  8
0
 10
868.500000
 20
671.000000
 42
0.193442
  0
VERTEX
  8
0
 10
867.969656
 20
671.390806
 42
0.021940
  0
VERTEX
  8
0
 10
866.482561
 20
671.706250
 42
0.023992
  0
VERTEX
  8
0
 10
864.606489
 20
671.927088
 42
0.017301
  0
VERTEX
  8
0
 10
862.500000
 20
672.000000
 42
-0.017301
  0
VERTEX
  8
0
 10
860.393511
 20
672.072912
 42
-0.023992
  0
VERTEX
  8
0
 10
858.517439
 20
672.293750
 42
-0.021940
  0
VERTEX
  8
0
 10
857.030344
 20
672.609194
 42
-0.193442
  0
VERTEX
  8
0
 10
856.500000
 20
673.000000
 42
0.178843
  0
VERTEX
  8
0
 10
856.002457
 20
673.388765
 42
0.027992
  0
VERTEX
  8
0
 10
854.776311
 20
673.706250
 42
0.028151
  0
VERTEX
  8
0
 10
853.223215
 20
673.926872
 42
0.021209
  0
VERTEX
  8
0
 10
851.500000
 20
674.000000
 42
-0.021209
  0
VERTEX
  8
0
 10
849.776785
 20
674.073128
 42
-0.028151
  0
VERTEX
  8
0
 10
848.223689
 20
674.293750
 42
-0.027992
  0
VERTEX
  8
0
 10
846.997543
 20
674.611235
 42
-0.178843
  0
VERTEX
  8
0
 10
846.500000
 20
675.000000
 42
0.215439
  0
VERTEX
  8
0
 10
845.913727
 20
675.394950
 42
0.012833
  0
VERTEX
  8
0
 10
843.748186
 20
675.706250
 42
0.017439
  0
VERTEX
  8
0
 10
841.064877
 20
675.927410
 42
0.011841
  0
VERTEX
  8
0
 10
838.000000
 20
676.000000
 42
-0.009990
  0
VERTEX
  8
0
 10
834.941858
 20
676.061109
 42
-0.015012
  0
VERTEX
  8
0
 10
832.280290
 20
676.247675
 42
-0.009808
  0
VERTEX
  8
0
 10
830.109585
 20
676.508578
 42
-0.223091
  0
VERTEX
  8
0
 10
829.596939
 20
676.843150
 42
0.253179
  0
VERTEX
  8
0
 10
826.915141
 20
678.383222
 42
0.000983
  0
VERTEX
  8
0
 10
790.532608
 20
679.234066
 42
0.004994
  0
VERTEX
  8
0
 10
757.282403
 20
679.614119
 42
0.020129
  0
SEQEND
  0
POLYLINE
  8
0
 66
1
 70
1
  0
VERTEX
  8
0
 10
618.880785
 20
657.547451
 42
-0.104024
  0
VERTEX
  8
0
 10
618.488549
 20
657.291537
 42
-0.001566
  0
VERTEX
  8
0
 10
615.927963
 20
656.305258
 42
-0.004156
  0
VERTEX
  8
0
 10
612.932334
 20
655.190614
 42
-0.002726
  0
VERTEX
  8
0
 10
609.464118
 20
653.954203
 42
0.048483
  0
VERTEX
  8
0
 10
595.694117
 20
647.574072
 42
0.033115
  0
VERTEX
  8
0
 10
581.422523
 20
637.873414
 42
0.033196
  0
VERTEX
  8
0
 10
568.611648
 20
626.418928
 42
0.050092
  0
VERTEX
  8
0
 10
559.266961
 20
614.738747
 42
0.012832
  0
VERTEX
  8
0
 10
555.817209
 20
609.099483
 42
0.029086
  0
VERTEX
  8
0
 10
553.574893
 20
604.632066
 42
0.031761
  0
VERTEX
  8
0
 10
551.983684
 20
600.183833
 42
0.018419
  0
VERTEX
  8
0
 10
550.616303
 20
594.672651
 42
-0.012359
  0
VERTEX
  8
0
 10
549.935055
 20
591.777233
 42
-0.045479
  0
VERTEX
  8
0
 10
549.296526
 20
590.009847
 42
-0.089442
  0
VERTEX
  8
0
 10
548.638153
 20
589.079788
 42
-0.267996
  0
VERTEX
  8
0
 10
547.912041
 20
588.892289
 42
0.030091
  0
VERTEX
  8
0
 10
543.126612
 20
589.916365
 42
0.006987
  0
VERTEX
  8
0
 10
534.973602
 20
591.037724
 42
0.007525
  0
VERTEX
  8
0
 10
526.590552
 20
591.943734
 42
0.019305
  0
VERTEX
  8
0
 10
520.500000
 20
592.272965
 42
0.013712
  0
VERTEX
  8
0
 10
512.378448
 20
592.175312
 42
0.005941
  0
VERTEX
  8
0
 10
501.584553
 20
591.620812
 42
0.002097
  0
VERTEX
  8
0
 10
490.534936
 20
590.874910
 42
0.120490
  0
VERTEX
  8
0
 10
488.607248
 20
590.254397
 42
-0.085072
  0
VERTEX
  8
0
 10
487.345582
 20
589.748261
 42
-0.002046
  0
VERTEX
  8
0
 10
481.150169
 20
588.442757
 42
-0.004735
  0
VERTEX
  8
0
 10
475.205685
 20
587.274083
 42
-0.018457
  0
VERTEX
  8
0
 10
471.500000
 20
586.722577
 42
-0.058188
  0
VERTEX
  8
0
 10
470.548981
 20
586.727724
 42
-0.177885
  0
VERTEX
  8
0
 10
469.983946
 20
587.017407
 42
-0.164863
  0
VERTEX
  8
0
 10
469.715215
 20
587.622121
 42
-0.048451
  0
VERTEX
  8
0
 10
469.720808
 20
588.651783
 42
0.064548
  0
VERTEX
  8
0
 10
469.696448
 20
589.565351
 42
0.049886
  0
VERTEX
  8
0
 10
469.444703
 20
590.530049
 42
0.051019
  0
VERTEX
  8
0
 10
469.017603
 20
591.398854
 42
0.079975
  0
VERTEX
  8
0
 10
468.470808
 20
592.024227
 42
-0.076777
  0
VERTEX
  8
0
 10
467.907336
 20
592.660466
 42
-0.044455
  0
VERTEX
  8
0
 10
467.432050
 20
593.567391
 42
-0.043202
  0
VERTEX
  8
0
 10
467.108514
 20
594.586123
 42
-0.055347
  0
VERTEX
  8
0
 10
467.000000
 20
595.563428
 42
0.039551
  0
VERTEX
  8
0
 10
466.926099
 20
596.496232
 42
0.042550
  0
VERTEX
  8
0
 10
466.706250
 20
597.382443
 42
0.046682
  0
VERTEX
  8
0
 10
466.384260
 20
598.100548
 42
0.126268
  0
VERTEX
  8
0
 10
466.000000
 20
598.500000
 42
-0.111412
  0
VERTEX
  8
0
 10
465.616444
 20
598.876024
 42
-0.050262
  0
VERTEX
  8
0
 10
465.293750
 20
599.506650
 42
-0.046318
  0
VERTEX
  8
0
 10
465.074077
 20
600.270704
 42
-0.046881
  0
VERTEX
  8
0
 10
465.000000
 20
601.059017
 42
0.049547
  0
VERTEX
  8
0
 10
464.926216
 20
601.801778
 42
0.069539
  0
VERTEX
  8
0
 10
464.706250
 20
602.429836
 42
0.089706
  0
VERTEX
  8
0
 10
464.381787
 20
602.852535
 42
0.186414
  0
VERTEX
  8
0
 10
464.000000
 20
603.000000
 42
-0.243162
  0
VERTEX
  8
0
 10
463.616345
 20
603.198306
 42
-0.067924
  0
VERTEX
  8
0
 10
463.293750
 20
603.816402
 42
-0.052207
  0
VERTEX
  8
0
 10
463.072901
 20
604.714710
 42
-0.034201
  0
VERTEX
  8
0
 10
463.000000
 20
605.779241
 42
0.058124
  0
VERTEX
  8
0
 10
462.858496
 20
606.992383
 42
0.052617
  0
VERTEX
  8
0
 10
462.440426
 20
608.184204
 42
0.054179
  0
VERTEX
  8
0
 10
461.799784
 20
609.227337
 42
0.071939
  0
VERTEX
  8
0
 10
461.000000
 20
610.000000
 42
-0.038805
  0
VERTEX
  8
0
 10
460.234740
 20
610.647313
 42
-0.040055
  0
VERTEX
  8
0
 10
459.587500
 20
611.398710
 42
-0.043332
  0
VERTEX
  8
0
 10
459.139431
 20
612.138816
 42
-0.114947
  0
VERTEX
  8
0
 10
459.000000
 20
612.737306
 42
0.158162
  0
VERTEX
  8
0
 10
458.747611
 20
613.515230
 42
0.009720
  0
VERTEX
  8
0
 10
457.260934
 20
615.483533
 42
0.013673
  0
VERTEX
  8
0
 10
455.347779
 20
617.784291
 42
0.009653
  0
VERTEX
  8
0
 10
453.079775
 20
620.266547
 42
-0.004826
  0
VERTEX
  8
0
 10
450.569174
 20
622.961606
 42
-0.003884
  0
VERTEX
  8
0
 10
447.920495
 20
625.906095
 42
-0.003925
  0
VERTEX
  8
0
 10
445.515837
 20
628.664771
 42
-0.010026
  0
VERTEX
  8
0
 10
443.829775
 20
630.711649
 42
0.038736
  0
VERTEX
  8
0
 10
439.892558
 20
634.968388
 42
0.041344
  0
VERTEX
  8
0
 10
435.425809
 20
638.465922
 42
0.025203
  0
VERTEX
  8
0
 10
428.843747
 20
642.333623
 42
0.005381
  0
VERTEX
  8
0
 10
417.012743
 20
648.344911
 42
0.000000
  0
VERTEX
  8
0
 10
400.525487
 20
656.500000
 42
0.000000
  0
VERTEX
  8
0
 10
445.012743
 20
657.015637
 42
-0.001301
  0
VERTEX
  8
0
 10
496.237061
 20
657.476081
 42
-0.000832
  0
VERTEX
  8
0
 10
555.754722
 20
657.757175
 42
-0.000029
  0
VERTEX
  8
0
 10
618.714945
 20
657.946162
 42
-0.669244
  0
SEQEND
  0
ENDSEC
  0
EOF
