<?xml version="1.0" encoding="UTF-8" standalone="yes"?>
<!-- Created with sK1/UniConvertor (http://sk1project.org/) -->
<svg xmlns="http://www.w3.org/2000/svg" xmlns:xlink="http://www.w3.org/1999/xlink"
  width="595.276pt" height="841.89pt" viewBox="0 0 595.276 841.89"
  fill-rule="evenodd">
<g>
<path style="stroke:#000000; stroke-width:0.72; fill:none" d="M 594.127 294.659L 590.551 294.92L 585.098 295.275L 578.976 295.65L 573.013 295.993L 567.481 296.337L 562.671 296.719L 558.569 297.103L 557.832 297.352L 555.708 297.964L 420.371 298.89L 286.412 299.791L 281.344 299.235L 275.297 298.549L 224.957 298.563L 172.601 298.633L 171.305 299.356L 170.805 299.68L 168.634 299.928L 165.958 300.105L 162.841 300.162L 159.723 300.22L 157.047 300.397L 154.876 300.645L 154.376 300.968L 153.928 301.285L 152.513 301.538L 150.74 301.716L 148.733 301.775L 146.726 301.833L 144.953 302.011L 143.539 302.264L 143.09 302.581L 142.689 302.894L 141.704 303.15L 140.455 303.328L 139.07 303.387L 137.58 303.472L 136.197 303.727L 135.057 304.112L 134.338 304.596L 133.608 305.086L 132.455 305.47L 131.041 305.721L 129.491 305.805L 128.061 305.864L 126.776 306.042L 125.76 306.298L 125.355 306.611L 125.03 306.921L 124.439 307.181L 123.708 307.358L 122.937 307.418L 122.165 307.477L 121.434 307.654L 120.843 307.914L 120.518 308.224L 120.151 308.535L 119.366 308.793L 118.374 308.971L 117.294 309.03L 116.213 309.089L 115.222 309.267L 114.437 309.524L 114.069 309.836L 113.682 310.149L 112.784 310.405L 111.647 310.583L 110.394 310.642L 109.176 310.701L 108.15 310.879L 107.418 311.136L 107.217 311.448L 107.05 311.758L 106.52 312.018L 105.754 312.196L 104.846 312.254L 103.902 312.314L 103.025 312.491L 102.327 312.75L 101.977 313.061L 101.652 313.37L 101.061 313.63L 100.33 313.807L 99.5585 313.867L 98.787 313.926L 98.056 314.104L 97.4652 314.363L 97.1401 314.673L 96.8151 314.983L 96.2242 315.242L 95.4932 315.419L 94.7217 315.479L 93.9501 315.539L 93.2192 315.716L 92.6283 315.975L 92.3033 316.285L 92.0055 316.594L 91.5158 316.854L 90.9264 317.032L 90.3222 317.091L 89.4825 317.229L 87.9244 317.802L 86.1108 318.584L 84.2418 319.51L 82.3737 320.436L 80.5622 321.218L 79.0068 321.791L 78.1715 321.928L 77.5138 322.021L 76.7523 322.307L 76.0106 322.725L 75.4084 323.218L 74.6876 323.832L 73.4976 324.646L 72.1128 325.499L 70.7155 326.266L 69.1578 327.111L 67.2721 328.211L 65.3747 329.373L 63.7715 330.418L 62.2997 331.402L 60.8059 332.379L 59.4856 333.225L 58.6489 333.734L 56.5847 335.245L 53.4749 338.202L 50.3898 341.364L 49.9808 342.388L 49.8989 342.778L 49.6114 343.344L 49.2045 343.965L 48.7231 344.554L 46.8659 347.177L 44.1997 352.378L 41.6279 357.864L 41.585 359.302L 41.6484 359.785L 41.507 360.356L 41.1928 360.924L 40.7469 361.399L 40.2698 361.923L 39.8669 362.645L 39.5927 363.44L 39.501 364.188L 39.4424 364.918L 39.2677 365.661L 39.0117 366.309L 38.7068 366.738L 38.3591 367.369L 37.9099 369.54L 37.4747 372.181L 37.1091 375.162L 36.7413 378.29L 36.3006 381.378L 35.8526 384.045L 35.4849 385.608L 34.8172 389.932L 34.6861 401.157L 34.8204 412.306L 35.4694 417.301L 35.8296 419.078L 36.2603 421.819L 36.6823 424.91L 37.0309 427.936L 38.0158 435.554L 39.5082 444.275L 41.3812 453.455L 43.5219 462.484L 44.4518 466.278L 45.2368 469.769L 45.8374 472.701L 45.9501 473.86L 46.0952 474.888L 46.6871 476.77L 47.4984 478.96L 48.4589 481.211L 49.6176 483.897L 51.0515 487.477L 52.5087 491.294L 53.7618 494.772L 57.1521 503.62L 60.7319 511.193L 64.9166 518.305L 70.1363 525.749L 75.2105 531.985L 80.6944 537.767L 86.1443 542.67L 91.094 546.212L 92.2332 546.922L 94.2876 548.224L 96.6806 549.749L 99.1355 551.323L 108.28 556.339L 120.469 561.458L 133.059 565.747L 143.493 568.169L 146.393 568.663L 149.441 569.215L 152.204 569.745L 154.118 570.15L 162.207 571.708L 169.819 572.595L 177.895 572.889L 187.428 572.646L 221.148 568.909L 251.516 561.169L 277.943 549.612L 299.885 534.459L 302.349 532.367L 305.461 529.784L 308.684 527.152L 311.511 524.889L 316.462 520.84L 319.554 517.94L 322.698 514.387L 328.362 507.341L 335.745 497.337L 343.594 485.325L 350.858 473.036L 356.437 462.197L 361.791 450.626L 365.116 442.929L 367.483 436.649L 369.558 430.103L 371.303 423.711L 372.71 417.79L 374.235 410.329L 376.522 398.142L 376.945 396.14L 377.483 394.1L 378.051 392.299L 378.55 391.128L 378.989 390.057L 379.357 388.645L 379.609 387.142L 379.693 385.778L 380.223 382.897L 381.733 380.967L 384.851 379.459L 391.382 377.662L 400.633 376.032L 411.307 375.406L 422.402 375.783L 432.942 377.176L 439.945 378.544L 441.673 379.37L 442.422 380.823L 442.572 385.117L 442.787 390.421L 443.431 395.616L 444.652 401.671L 446.696 409.798L 449.88 421.279L 452.499 429.53L 455.065 436.181L 458.017 442.446L 459.817 445.939L 461.774 449.771L 463.598 453.369L 464.945 456.062L 466.317 458.682L 468.209 462.024L 470.268 465.494L 472.188 468.557L 474.022 471.473L 475.82 474.493L 477.349 477.208L 478.246 479.018L 480.27 482.908L 484.069 489.026L 488.48 495.663L 492.79 501.672L 497.825 507.657L 508.539 518.798L 520.387 530.844L 522.018 531.525L 522.486 531.662L 523.311 532.235L 524.251 533.017L 525.202 533.943L 526.151 534.87L 527.09 535.652L 527.911 536.227L 528.375 536.363L 528.842 536.478L 529.661 536.949L 530.598 537.593L 531.548 538.355L 532.54 539.151L 533.606 539.896L 534.594 540.495L 535.302 540.803L 535.887 541.065L 536.452 541.472L 536.916 541.954L 537.194 542.439L 537.489 542.889L 537.994 543.271L 538.624 543.529L 539.284 543.617L 539.91 543.677L 540.44 543.854L 540.797 544.115L 540.921 544.423L 541.043 544.731L 541.393 544.993L 541.912 545.17L 542.527 545.229L 543.215 545.348L 543.956 545.703L 544.635 546.225L 545.139 546.842L 545.59 547.459L 546.11 547.98L 546.622 548.343L 547.032 548.454L 547.638 548.582L 549.983 549.638L 552.737 550.94L 555.835 552.485L 558.944 554.029L 561.735 555.331L 564.101 556.371L 564.803 556.516L 565.411 556.626L 566.611 557.11L 568.016 557.765L 569.482 558.541L 570.917 559.304L 572.23 559.921L 573.333 560.373L 573.743 560.395L 574.153 560.407L 575.241 560.795L 576.537 561.331L 577.954 561.997L 579.486 562.676L 581.132 563.25L 582.653 563.651L 583.751 563.771L 584.637 563.83L 585.464 564.008L 586.126 564.266L 586.468 564.577L 586.793 564.887L 587.384 565.146L 588.115 565.323L 588.887 565.383L 589.658 565.443L 590.389 565.62L 590.98 565.879L 591.305 566.189L 591.72 566.503L 592.813 566.759L 594.195 566.937L 595.739 566.995L 597.283 567.054L 598.665 567.232L 599.758 567.487L 600.173 567.802L 600.6 568.117L 601.799 568.371L 603.311 568.549L 605.01 568.608L 606.708 568.666L 608.22 568.844L 609.419 569.099L 609.846 569.414L 610.32 569.732L 612.079 569.983L 614.257 570.161L 616.746 570.22L 619.303 570.275L 621.346 570.447L 622.874 570.693L 623.148 571.026L 623.506 571.402L 628.577 571.623L 635.082 571.784L 644.06 571.832L 652.891 571.782L 659.55 571.618L 664.849 571.392L 665.47 571.026L 665.943 570.708L 667.689 570.457L 669.852 570.278L 672.322 570.22L 674.793 570.161L 676.956 569.983L 678.702 569.732L 679.175 569.414L 679.602 569.099L 680.801 568.844L 682.313 568.666L 684.012 568.608L 685.71 568.549L 687.222 568.371L 688.421 568.117L 688.848 567.802L 689.173 567.492L 689.764 567.232L 690.495 567.055L 691.267 566.995L 692.038 566.936L 692.769 566.759L 693.36 566.499L 693.685 566.189L 694.073 565.877L 694.97 565.62L 696.107 565.442L 697.36 565.383L 698.578 565.325L 699.604 565.146L 700.337 564.889L 700.537 564.577L 700.724 564.266L 701.359 564.008L 702.263 563.829L 703.334 563.771L 704.613 563.655L 706.153 563.297L 707.699 562.776L 709.002 562.158L 710.214 561.541L 711.482 561.02L 712.629 560.652L 713.413 560.546L 714.036 560.49L 714.638 560.324L 715.131 560.081L 715.419 559.791L 716.276 558.952L 718.425 557.785L 720.661 556.777L 722 556.516L 722.583 556.419L 723.592 556.042L 724.754 555.52L 725.931 554.903L 727.117 554.286L 728.306 553.765L 729.35 553.39L 729.986 553.291L 730.439 553.231L 730.823 553.054L 731.08 552.792L 731.171 552.485L 731.281 552.177L 731.592 551.915L 732.056 551.738L 732.605 551.679L 733.239 551.562L 733.959 551.205L 734.651 550.683L 735.202 550.066L 735.713 549.449L 736.289 548.928L 736.843 548.564L 737.271 548.454L 738.612 548.178L 740.782 547.134L 742.882 545.885L 744.083 544.81L 744.537 544.353L 745.083 543.968L 745.635 543.702L 746.099 543.617L 747.523 543.01L 755.354 534.773L 762.521 527.003L 765.371 523.183L 766.19 521.861L 767.459 519.849L 768.893 517.595L 770.3 515.402L 773.786 509.346L 777.574 501.427L 781.145 492.868L 783.995 484.769L 788.419 470.51L 790.791 461.944L 792.644 453.579L 795.082 440.431L 796.08 433.562L 796.594 426.928L 796.814 417.463L 796.855 397.931L 796.802 381.872L 796.628 372.295L 796.378 365.717L 795.847 364.517L 795.467 364.006L 795.147 363.286L 794.929 362.483L 794.856 361.719L 794.796 360.991L 794.619 360.296L 794.36 359.732L 794.05 359.414L 793.739 359.064L 793.481 358.365L 793.303 357.489L 793.244 356.545L 793.185 355.636L 793.007 354.87L 792.747 354.34L 792.438 354.174L 792.13 354.052L 791.868 353.7L 791.691 353.179L 791.631 352.562L 791.572 351.945L 791.395 351.423L 791.133 351.071L 790.825 350.949L 790.517 350.827L 790.256 350.476L 790.079 349.954L 790.019 349.337L 789.96 348.72L 789.782 348.198L 789.521 347.847L 789.213 347.725L 788.905 347.611L 788.644 347.288L 788.466 346.806L 788.407 346.237L 788.292 345.563L 787.933 344.758L 787.412 343.959L 786.795 343.291L 786.178 342.666L 785.656 341.996L 785.288 341.374L 785.182 340.93L 784.648 339.619L 778.924 333.825L 773.127 328.105L 771.814 327.571L 771.385 327.474L 770.736 327.119L 770.017 326.62L 769.322 326.031L 766.99 324.371L 760.321 320.933L 753.397 317.523L 751.513 317.091L 750.981 316.999L 750.002 316.618L 748.865 316.096L 747.697 315.479L 746.513 314.862L 745.329 314.34L 744.292 313.966L 743.666 313.867L 743.04 313.768L 742.003 313.393L 740.819 312.872L 739.635 312.254L 738.39 311.637L 737.023 311.116L 735.737 310.753L 734.774 310.642L 734.012 310.583L 733.368 310.405L 732.929 310.145L 732.783 309.836L 732.582 309.524L 731.85 309.267L 730.824 309.088L 729.606 309.03L 728.353 308.971L 727.216 308.793L 726.318 308.536L 725.931 308.224L 725.606 307.914L 725.015 307.654L 724.284 307.477L 723.512 307.418L 722.741 307.358L 722.01 307.181L 721.419 306.921L 721.094 306.611L 720.729 306.3L 719.956 306.042L 718.981 305.865L 717.921 305.805L 716.823 305.716L 715.736 305.45L 714.816 305.06L 714.242 304.596L 713.668 304.132L 712.747 303.742L 711.661 303.476L 710.563 303.387L 709.502 303.328L 708.527 303.15L 707.755 302.892L 707.39 302.581L 707.004 302.268L 706.118 302.011L 704.997 301.834L 703.762 301.775L 702.527 301.716L 701.406 301.538L 700.52 301.281L 700.134 300.968L 699.707 300.653L 698.508 300.399L 696.996 300.221L 695.297 300.162L 693.599 300.104L 692.087 299.926L 690.888 299.671L 690.461 299.356L 690.06 299.043L 689.071 298.787L 687.819 298.609L 686.43 298.55L 685.041 298.491L 683.789 298.313L 682.8 298.057L 682.399 297.744L 681.927 297.426L 680.181 297.175L 678.018 296.996L 675.547 296.938L 673.082 296.888L 670.936 296.738L 669.186 296.528L 668.773 296.258L 666.611 295.017L 637.282 294.331L 610.477 294.024L 594.127 294.659z"/>
<path style="stroke:#000000; stroke-width:0.72; fill:none" d="M 498.906 311.813L 498.59 312.019L 496.525 312.815L 494.111 313.713L 491.315 314.71L 480.214 319.853L 468.709 327.673L 458.382 336.907L 450.849 346.323L 448.068 350.869L 446.26 354.47L 444.977 358.056L 443.875 362.499L 443.326 364.833L 442.811 366.258L 442.28 367.008L 441.695 367.159L 437.837 366.333L 431.265 365.429L 424.507 364.699L 419.597 364.434L 413.05 364.512L 404.348 364.959L 395.441 365.561L 393.887 366.061L 392.87 366.469L 387.875 367.521L 383.083 368.463L 380.096 368.908L 379.329 368.904L 378.874 368.67L 378.657 368.183L 378.662 367.353L 378.642 366.616L 378.439 365.839L 378.095 365.138L 377.654 364.634L 377.2 364.121L 376.817 363.39L 376.556 362.569L 376.468 361.781L 376.409 361.029L 376.232 360.315L 375.972 359.736L 375.662 359.414L 375.353 359.111L 375.093 358.602L 374.916 357.986L 374.856 357.351L 374.797 356.752L 374.619 356.246L 374.358 355.905L 374.05 355.786L 373.741 355.626L 373.481 355.128L 373.303 354.404L 373.244 353.546L 373.13 352.568L 372.793 351.607L 372.276 350.766L 371.631 350.143L 371.015 349.621L 370.493 349.016L 370.132 348.419L 370.019 347.936L 369.816 347.309L 368.617 345.723L 367.075 343.868L 365.247 341.867L 363.223 339.694L 361.088 337.321L 359.149 335.097L 357.79 333.447L 354.616 330.015L 351.015 327.196L 345.709 324.078L 336.172 319.232L 322.88 312.658L 358.743 312.242L 400.038 311.871L 448.017 311.644L 498.772 311.492L 498.906 311.813z"/>
</g>
</svg>