%TF.GenerationSoftware,KiCad,Pcbnew,9.0.2*%
%TF.CreationDate,2025-06-20T16:00:47-04:00*%
%TF.ProjectId,proj02-g05,70726f6a-3032-42d6-9730-352e6b696361,rev?*%
%TF.SameCoordinates,Original*%
%TF.FileFunction,Legend,Top*%
%TF.FilePolarity,Positive*%
%FSLAX46Y46*%
G04 Gerber Fmt 4.6, Leading zero omitted, Abs format (unit mm)*
G04 Created by KiCad (PCBNEW 9.0.2) date 2025-06-20 16:00:47*
%MOMM*%
%LPD*%
G01*
G04 APERTURE LIST*
%ADD10C,0.100000*%
%ADD11C,0.150000*%
%ADD12C,0.120000*%
G04 APERTURE END LIST*
D10*
G36*
X57879206Y-113069400D02*
G01*
X57948318Y-113066496D01*
X58013027Y-113057887D01*
X58071376Y-113044276D01*
X58125460Y-113025616D01*
X58173972Y-113002722D01*
X58218307Y-112975306D01*
X58257867Y-112943976D01*
X58293242Y-112908505D01*
X58351282Y-112825482D01*
X58392343Y-112725464D01*
X58415084Y-112607136D01*
X58418952Y-112527639D01*
X58418952Y-112500345D01*
X58244654Y-112500345D01*
X58244654Y-112533959D01*
X58241708Y-112593117D01*
X58232812Y-112648640D01*
X58219124Y-112696620D01*
X58200142Y-112740720D01*
X58177549Y-112778123D01*
X58150210Y-112811534D01*
X58119628Y-112839441D01*
X58084618Y-112863193D01*
X58045813Y-112882258D01*
X58002627Y-112896819D01*
X57901699Y-112911518D01*
X57879206Y-112911955D01*
X57822835Y-112909048D01*
X57770315Y-112900421D01*
X57723482Y-112886836D01*
X57680450Y-112868203D01*
X57642254Y-112845293D01*
X57607881Y-112817823D01*
X57551289Y-112750100D01*
X57510537Y-112664273D01*
X57487049Y-112558646D01*
X57482342Y-112477264D01*
X57482342Y-112132882D01*
X57485249Y-112068354D01*
X57493874Y-112008432D01*
X57507355Y-111955535D01*
X57525818Y-111907151D01*
X57548141Y-111865037D01*
X57574837Y-111827351D01*
X57604932Y-111795027D01*
X57638967Y-111767140D01*
X57717901Y-111725350D01*
X57812685Y-111702282D01*
X57879206Y-111698190D01*
X57935780Y-111701075D01*
X57987405Y-111709545D01*
X58032696Y-111722797D01*
X58073456Y-111740768D01*
X58109224Y-111762841D01*
X58140691Y-111789010D01*
X58191403Y-111853507D01*
X58226114Y-111935237D01*
X58243316Y-112035888D01*
X58244654Y-112076187D01*
X58244654Y-112092948D01*
X58418952Y-112092948D01*
X58418952Y-112082415D01*
X58416035Y-112013128D01*
X58407343Y-111947839D01*
X58393627Y-111889033D01*
X58374734Y-111834239D01*
X58351668Y-111785324D01*
X58323922Y-111740432D01*
X58292430Y-111700672D01*
X58256618Y-111665000D01*
X58216968Y-111633838D01*
X58173207Y-111606939D01*
X58072889Y-111566224D01*
X57954101Y-111544082D01*
X57879206Y-111540654D01*
X57809297Y-111543576D01*
X57743078Y-111552307D01*
X57683133Y-111566112D01*
X57626942Y-111585180D01*
X57576463Y-111608514D01*
X57529793Y-111636659D01*
X57488124Y-111668674D01*
X57450362Y-111705178D01*
X57417002Y-111745652D01*
X57387740Y-111790442D01*
X57341901Y-111893312D01*
X57313964Y-112015432D01*
X57305937Y-112137095D01*
X57305937Y-112473051D01*
X57308839Y-112547547D01*
X57317430Y-112617283D01*
X57331022Y-112680288D01*
X57349638Y-112738734D01*
X57372462Y-112791261D01*
X57399760Y-112839378D01*
X57430868Y-112882408D01*
X57466032Y-112921087D01*
X57547870Y-112985179D01*
X57645717Y-113031995D01*
X57760644Y-113060687D01*
X57879206Y-113069400D01*
G37*
G36*
X58696198Y-113040000D02*
G01*
X58872602Y-113040000D01*
X58872602Y-111570054D01*
X58696198Y-111570054D01*
X58696198Y-113040000D01*
G37*
G36*
X59898122Y-111576646D02*
G01*
X60007057Y-111603100D01*
X60097093Y-111646857D01*
X60168036Y-111705390D01*
X60219988Y-111777280D01*
X60238747Y-111818142D01*
X60252472Y-111862236D01*
X60260980Y-111909926D01*
X60263871Y-111960690D01*
X60263871Y-111983771D01*
X60256939Y-112065086D01*
X60245524Y-112112006D01*
X60229244Y-112154342D01*
X60207560Y-112193778D01*
X60181656Y-112228390D01*
X60149973Y-112260126D01*
X60114799Y-112286582D01*
X60073980Y-112309214D01*
X60030771Y-112326047D01*
X60030771Y-112355448D01*
X60058292Y-112358122D01*
X60119016Y-112377906D01*
X60164192Y-112414691D01*
X60181185Y-112439867D01*
X60193911Y-112469640D01*
X60202209Y-112505517D01*
X60205069Y-112546507D01*
X60205069Y-113040000D01*
X60030771Y-113040000D01*
X60030771Y-112567573D01*
X60025350Y-112521456D01*
X60003275Y-112477714D01*
X59985017Y-112461147D01*
X59961984Y-112448845D01*
X59930228Y-112440235D01*
X59892194Y-112437330D01*
X59384047Y-112437330D01*
X59384047Y-113040000D01*
X59207643Y-113040000D01*
X59207643Y-112277779D01*
X59384047Y-112277779D01*
X59785124Y-112277779D01*
X59838831Y-112274976D01*
X59926846Y-112254950D01*
X59994587Y-112218345D01*
X60044197Y-112166370D01*
X60062538Y-112134051D01*
X60075950Y-112098011D01*
X60084561Y-112056435D01*
X60087466Y-112011065D01*
X60087466Y-111996319D01*
X60085289Y-111955726D01*
X60066179Y-111879200D01*
X60028724Y-111818556D01*
X60002603Y-111793340D01*
X59971874Y-111772179D01*
X59934481Y-111754331D01*
X59892124Y-111741234D01*
X59841360Y-111732605D01*
X59785124Y-111729698D01*
X59384047Y-111729698D01*
X59384047Y-112277779D01*
X59207643Y-112277779D01*
X59207643Y-111570054D01*
X59801885Y-111570054D01*
X59898122Y-111576646D01*
G37*
G36*
X61063644Y-113069400D02*
G01*
X61132757Y-113066496D01*
X61197465Y-113057887D01*
X61255814Y-113044276D01*
X61309898Y-113025616D01*
X61358410Y-113002722D01*
X61402745Y-112975306D01*
X61442305Y-112943976D01*
X61477681Y-112908505D01*
X61535720Y-112825482D01*
X61576781Y-112725464D01*
X61599522Y-112607136D01*
X61603390Y-112527639D01*
X61603390Y-112500345D01*
X61429092Y-112500345D01*
X61429092Y-112533959D01*
X61426147Y-112593117D01*
X61417251Y-112648640D01*
X61403562Y-112696620D01*
X61384581Y-112740720D01*
X61361987Y-112778123D01*
X61334648Y-112811534D01*
X61304066Y-112839441D01*
X61269056Y-112863193D01*
X61230251Y-112882258D01*
X61187065Y-112896819D01*
X61086137Y-112911518D01*
X61063644Y-112911955D01*
X61007273Y-112909048D01*
X60954754Y-112900421D01*
X60907921Y-112886836D01*
X60864889Y-112868203D01*
X60826692Y-112845293D01*
X60792319Y-112817823D01*
X60735727Y-112750100D01*
X60694975Y-112664273D01*
X60671487Y-112558646D01*
X60666780Y-112477264D01*
X60666780Y-112132882D01*
X60669687Y-112068354D01*
X60678312Y-112008432D01*
X60691793Y-111955535D01*
X60710257Y-111907151D01*
X60732579Y-111865037D01*
X60759275Y-111827351D01*
X60789371Y-111795027D01*
X60823405Y-111767140D01*
X60902339Y-111725350D01*
X60997123Y-111702282D01*
X61063644Y-111698190D01*
X61120219Y-111701075D01*
X61171843Y-111709545D01*
X61217135Y-111722797D01*
X61257894Y-111740768D01*
X61293662Y-111762841D01*
X61325129Y-111789010D01*
X61375841Y-111853507D01*
X61410552Y-111935237D01*
X61427754Y-112035888D01*
X61429092Y-112076187D01*
X61429092Y-112092948D01*
X61603390Y-112092948D01*
X61603390Y-112082415D01*
X61600473Y-112013128D01*
X61591781Y-111947839D01*
X61578065Y-111889033D01*
X61559172Y-111834239D01*
X61536107Y-111785324D01*
X61508360Y-111740432D01*
X61476869Y-111700672D01*
X61441056Y-111665000D01*
X61401406Y-111633838D01*
X61357645Y-111606939D01*
X61257327Y-111566224D01*
X61138539Y-111544082D01*
X61063644Y-111540654D01*
X60993736Y-111543576D01*
X60927516Y-111552307D01*
X60867571Y-111566112D01*
X60811380Y-111585180D01*
X60760902Y-111608514D01*
X60714231Y-111636659D01*
X60672563Y-111668674D01*
X60634800Y-111705178D01*
X60601440Y-111745652D01*
X60572179Y-111790442D01*
X60526340Y-111893312D01*
X60498403Y-112015432D01*
X60490375Y-112137095D01*
X60490375Y-112473051D01*
X60493277Y-112547547D01*
X60501868Y-112617283D01*
X60515460Y-112680288D01*
X60534076Y-112738734D01*
X60556900Y-112791261D01*
X60584198Y-112839378D01*
X60615306Y-112882408D01*
X60650471Y-112921087D01*
X60732308Y-112985179D01*
X60830155Y-113031995D01*
X60945082Y-113060687D01*
X61063644Y-113069400D01*
G37*
G36*
X62411864Y-113069400D02*
G01*
X62483125Y-113066475D01*
X62550351Y-113057723D01*
X62610444Y-113043992D01*
X62666448Y-113025032D01*
X62715933Y-113002064D01*
X62761316Y-112974378D01*
X62801045Y-112943218D01*
X62836622Y-112907715D01*
X62867328Y-112868698D01*
X62893730Y-112825548D01*
X62932994Y-112727003D01*
X62953390Y-112610242D01*
X62955824Y-112548613D01*
X62955824Y-111570054D01*
X62779419Y-111570054D01*
X62779419Y-112550720D01*
X62776511Y-112609379D01*
X62767873Y-112662896D01*
X62754599Y-112708638D01*
X62736459Y-112749780D01*
X62714569Y-112784941D01*
X62688395Y-112815837D01*
X62624329Y-112864378D01*
X62542472Y-112896634D01*
X62439439Y-112911367D01*
X62411864Y-112911955D01*
X62351688Y-112909027D01*
X62296499Y-112900256D01*
X62249834Y-112886893D01*
X62207695Y-112868521D01*
X62172161Y-112846590D01*
X62140849Y-112820218D01*
X62114506Y-112790284D01*
X62092339Y-112756163D01*
X62060644Y-112674535D01*
X62046854Y-112571641D01*
X62046508Y-112550720D01*
X62046508Y-111570054D01*
X61870103Y-111570054D01*
X61870103Y-112548613D01*
X61873003Y-112615727D01*
X61881578Y-112678327D01*
X61895138Y-112734698D01*
X61913689Y-112786775D01*
X61936518Y-112833569D01*
X61963807Y-112876203D01*
X62030644Y-112948489D01*
X62114259Y-113004627D01*
X62215706Y-113044351D01*
X62336418Y-113066067D01*
X62411864Y-113069400D01*
G37*
G36*
X63278682Y-113040000D02*
G01*
X63455087Y-113040000D01*
X63455087Y-111570054D01*
X63278682Y-111570054D01*
X63278682Y-113040000D01*
G37*
G36*
X64151270Y-113040000D02*
G01*
X64327675Y-113040000D01*
X64327675Y-111729698D01*
X64800193Y-111729698D01*
X64800193Y-111570054D01*
X63678844Y-111570054D01*
X63678844Y-111729698D01*
X64151270Y-111729698D01*
X64151270Y-113040000D01*
G37*
G36*
X65614476Y-111549630D02*
G01*
X65730039Y-111578516D01*
X65828214Y-111625408D01*
X65910193Y-111689461D01*
X65945393Y-111728090D01*
X65976515Y-111771045D01*
X66003828Y-111819092D01*
X66026653Y-111871529D01*
X66045281Y-111929920D01*
X66058876Y-111992859D01*
X66067475Y-112062597D01*
X66070378Y-112137095D01*
X66070378Y-112473051D01*
X66062106Y-112596421D01*
X66033953Y-112718039D01*
X65987938Y-112820439D01*
X65958583Y-112865026D01*
X65925116Y-112905322D01*
X65887210Y-112941685D01*
X65845367Y-112973580D01*
X65798441Y-113001645D01*
X65747654Y-113024918D01*
X65691024Y-113043958D01*
X65630559Y-113057746D01*
X65563628Y-113066478D01*
X65492896Y-113069400D01*
X65372831Y-113060558D01*
X65257579Y-113031772D01*
X65159565Y-112984923D01*
X65077658Y-112920859D01*
X65042476Y-112882209D01*
X65011362Y-112839221D01*
X64984057Y-112791144D01*
X64961233Y-112738666D01*
X64942612Y-112680252D01*
X64929019Y-112617283D01*
X64920424Y-112547547D01*
X64917521Y-112473051D01*
X64917521Y-112137095D01*
X64917942Y-112130775D01*
X65093926Y-112130775D01*
X65093926Y-112479371D01*
X65098649Y-112560275D01*
X65122172Y-112665186D01*
X65163012Y-112750548D01*
X65219799Y-112818003D01*
X65254331Y-112845398D01*
X65292728Y-112868256D01*
X65336020Y-112886859D01*
X65383168Y-112900429D01*
X65436071Y-112909049D01*
X65492896Y-112911955D01*
X65561529Y-112907733D01*
X65657364Y-112884533D01*
X65736908Y-112842769D01*
X65771126Y-112814975D01*
X65801350Y-112782800D01*
X65828135Y-112745323D01*
X65850510Y-112703485D01*
X65869015Y-112655419D01*
X65882514Y-112602917D01*
X65891156Y-112543404D01*
X65894065Y-112479371D01*
X65894065Y-112130775D01*
X65889222Y-112048889D01*
X65865568Y-111944300D01*
X65824626Y-111859236D01*
X65767698Y-111791994D01*
X65733044Y-111764664D01*
X65694493Y-111741855D01*
X65650964Y-111723274D01*
X65603527Y-111709717D01*
X65550211Y-111701097D01*
X65492896Y-111698190D01*
X65425712Y-111702297D01*
X65330289Y-111725367D01*
X65250947Y-111767087D01*
X65216780Y-111794892D01*
X65186586Y-111827100D01*
X65159822Y-111864620D01*
X65137455Y-111906521D01*
X65118963Y-111954633D01*
X65105467Y-112007197D01*
X65096834Y-112066722D01*
X65093926Y-112130775D01*
X64917942Y-112130775D01*
X64925675Y-112014544D01*
X64953725Y-111892673D01*
X64999658Y-111790034D01*
X65028968Y-111745345D01*
X65062384Y-111704958D01*
X65100219Y-111668523D01*
X65141977Y-111636567D01*
X65188774Y-111608462D01*
X65239406Y-111585158D01*
X65295814Y-111566104D01*
X65356015Y-111552307D01*
X65422584Y-111543576D01*
X65492896Y-111540654D01*
X65614476Y-111549630D01*
G37*
G36*
X67593237Y-111576646D02*
G01*
X67702172Y-111603100D01*
X67792208Y-111646857D01*
X67863151Y-111705390D01*
X67915103Y-111777280D01*
X67933863Y-111818142D01*
X67947587Y-111862236D01*
X67956096Y-111909926D01*
X67958986Y-111960690D01*
X67958986Y-111983771D01*
X67952054Y-112065086D01*
X67940639Y-112112006D01*
X67924359Y-112154342D01*
X67902675Y-112193778D01*
X67876771Y-112228390D01*
X67845088Y-112260126D01*
X67809914Y-112286582D01*
X67769095Y-112309214D01*
X67725887Y-112326047D01*
X67725887Y-112355448D01*
X67753407Y-112358122D01*
X67814131Y-112377906D01*
X67859307Y-112414691D01*
X67876300Y-112439867D01*
X67889026Y-112469640D01*
X67897324Y-112505517D01*
X67900184Y-112546507D01*
X67900184Y-113040000D01*
X67725887Y-113040000D01*
X67725887Y-112567573D01*
X67720465Y-112521456D01*
X67698391Y-112477714D01*
X67680132Y-112461147D01*
X67657099Y-112448845D01*
X67625343Y-112440235D01*
X67587309Y-112437330D01*
X67079162Y-112437330D01*
X67079162Y-113040000D01*
X66902758Y-113040000D01*
X66902758Y-112277779D01*
X67079162Y-112277779D01*
X67480239Y-112277779D01*
X67533946Y-112274976D01*
X67621961Y-112254950D01*
X67689702Y-112218345D01*
X67739312Y-112166370D01*
X67757653Y-112134051D01*
X67771065Y-112098011D01*
X67779676Y-112056435D01*
X67782581Y-112011065D01*
X67782581Y-111996319D01*
X67780405Y-111955726D01*
X67761294Y-111879200D01*
X67723840Y-111818556D01*
X67697718Y-111793340D01*
X67666989Y-111772179D01*
X67629596Y-111754331D01*
X67587239Y-111741234D01*
X67536475Y-111732605D01*
X67480239Y-111729698D01*
X67079162Y-111729698D01*
X67079162Y-112277779D01*
X66902758Y-112277779D01*
X66902758Y-111570054D01*
X67497001Y-111570054D01*
X67593237Y-111576646D01*
G37*
G36*
X68758759Y-113069400D02*
G01*
X68830019Y-113066475D01*
X68897245Y-113057723D01*
X68957339Y-113043992D01*
X69013342Y-113025032D01*
X69062828Y-113002064D01*
X69108211Y-112974378D01*
X69147939Y-112943218D01*
X69183517Y-112907715D01*
X69214222Y-112868698D01*
X69240625Y-112825548D01*
X69279888Y-112727003D01*
X69300284Y-112610242D01*
X69302718Y-112548613D01*
X69302718Y-111570054D01*
X69126314Y-111570054D01*
X69126314Y-112550720D01*
X69123405Y-112609379D01*
X69114768Y-112662896D01*
X69101493Y-112708638D01*
X69083354Y-112749780D01*
X69061463Y-112784941D01*
X69035290Y-112815837D01*
X68971224Y-112864378D01*
X68889366Y-112896634D01*
X68786334Y-112911367D01*
X68758759Y-112911955D01*
X68698582Y-112909027D01*
X68643394Y-112900256D01*
X68596729Y-112886893D01*
X68554590Y-112868521D01*
X68519055Y-112846590D01*
X68487744Y-112820218D01*
X68461401Y-112790284D01*
X68439233Y-112756163D01*
X68407539Y-112674535D01*
X68393748Y-112571641D01*
X68393402Y-112550720D01*
X68393402Y-111570054D01*
X68216998Y-111570054D01*
X68216998Y-112548613D01*
X68219898Y-112615727D01*
X68228473Y-112678327D01*
X68242032Y-112734698D01*
X68260583Y-112786775D01*
X68283413Y-112833569D01*
X68310702Y-112876203D01*
X68377539Y-112948489D01*
X68461153Y-113004627D01*
X68562601Y-113044351D01*
X68683313Y-113066067D01*
X68758759Y-113069400D01*
G37*
G36*
X69625577Y-113040000D02*
G01*
X70545334Y-113040000D01*
X70545334Y-112880448D01*
X69801981Y-112880448D01*
X69801981Y-111570054D01*
X69625577Y-111570054D01*
X69625577Y-113040000D01*
G37*
G36*
X70771564Y-113040000D02*
G01*
X71687109Y-113040000D01*
X71687109Y-112880448D01*
X70947969Y-112880448D01*
X70947969Y-112380635D01*
X71617866Y-112380635D01*
X71617866Y-112221084D01*
X70947969Y-112221084D01*
X70947969Y-111729698D01*
X71676667Y-111729698D01*
X71676667Y-111570054D01*
X70771564Y-111570054D01*
X70771564Y-113040000D01*
G37*
G36*
X72313866Y-113040000D02*
G01*
X72490271Y-113040000D01*
X72490271Y-111729698D01*
X72962789Y-111729698D01*
X72962789Y-111570054D01*
X71841440Y-111570054D01*
X71841440Y-111729698D01*
X72313866Y-111729698D01*
X72313866Y-113040000D01*
G37*
G36*
X74132315Y-113040000D02*
G01*
X73949591Y-113040000D01*
X73836202Y-112668323D01*
X73210451Y-112668323D01*
X73096970Y-113040000D01*
X72914337Y-113040000D01*
X73078250Y-112508771D01*
X73256613Y-112508771D01*
X73790040Y-112508771D01*
X73537981Y-111677124D01*
X73508580Y-111677124D01*
X73256613Y-112508771D01*
X73078250Y-112508771D01*
X73367896Y-111570054D01*
X73678665Y-111570054D01*
X74132315Y-113040000D01*
G37*
X65553884Y-38241466D02*
X66315789Y-38241466D01*
X65934836Y-38622419D02*
X65934836Y-37860514D01*
X66839598Y-38622419D02*
X67030074Y-38622419D01*
X67030074Y-38622419D02*
X67125312Y-38574800D01*
X67125312Y-38574800D02*
X67172931Y-38527180D01*
X67172931Y-38527180D02*
X67268169Y-38384323D01*
X67268169Y-38384323D02*
X67315788Y-38193847D01*
X67315788Y-38193847D02*
X67315788Y-37812895D01*
X67315788Y-37812895D02*
X67268169Y-37717657D01*
X67268169Y-37717657D02*
X67220550Y-37670038D01*
X67220550Y-37670038D02*
X67125312Y-37622419D01*
X67125312Y-37622419D02*
X66934836Y-37622419D01*
X66934836Y-37622419D02*
X66839598Y-37670038D01*
X66839598Y-37670038D02*
X66791979Y-37717657D01*
X66791979Y-37717657D02*
X66744360Y-37812895D01*
X66744360Y-37812895D02*
X66744360Y-38050990D01*
X66744360Y-38050990D02*
X66791979Y-38146228D01*
X66791979Y-38146228D02*
X66839598Y-38193847D01*
X66839598Y-38193847D02*
X66934836Y-38241466D01*
X66934836Y-38241466D02*
X67125312Y-38241466D01*
X67125312Y-38241466D02*
X67220550Y-38193847D01*
X67220550Y-38193847D02*
X67268169Y-38146228D01*
X67268169Y-38146228D02*
X67315788Y-38050990D01*
X67649122Y-37955752D02*
X67887217Y-38622419D01*
X67887217Y-38622419D02*
X68125312Y-37955752D01*
D11*
X49238095Y-44804819D02*
X49238095Y-43804819D01*
X49238095Y-44281009D02*
X49809523Y-44281009D01*
X49809523Y-44804819D02*
X49809523Y-43804819D01*
X50809523Y-44804819D02*
X50238095Y-44804819D01*
X50523809Y-44804819D02*
X50523809Y-43804819D01*
X50523809Y-43804819D02*
X50428571Y-43947676D01*
X50428571Y-43947676D02*
X50333333Y-44042914D01*
X50333333Y-44042914D02*
X50238095Y-44090533D01*
X23041905Y-69394819D02*
X23041905Y-68394819D01*
X23041905Y-68394819D02*
X23280000Y-68394819D01*
X23280000Y-68394819D02*
X23422857Y-68442438D01*
X23422857Y-68442438D02*
X23518095Y-68537676D01*
X23518095Y-68537676D02*
X23565714Y-68632914D01*
X23565714Y-68632914D02*
X23613333Y-68823390D01*
X23613333Y-68823390D02*
X23613333Y-68966247D01*
X23613333Y-68966247D02*
X23565714Y-69156723D01*
X23565714Y-69156723D02*
X23518095Y-69251961D01*
X23518095Y-69251961D02*
X23422857Y-69347200D01*
X23422857Y-69347200D02*
X23280000Y-69394819D01*
X23280000Y-69394819D02*
X23041905Y-69394819D01*
X24470476Y-68728152D02*
X24470476Y-69394819D01*
X24232381Y-68347200D02*
X23994286Y-69061485D01*
X23994286Y-69061485D02*
X24613333Y-69061485D01*
X80333333Y-87954819D02*
X80000000Y-87478628D01*
X79761905Y-87954819D02*
X79761905Y-86954819D01*
X79761905Y-86954819D02*
X80142857Y-86954819D01*
X80142857Y-86954819D02*
X80238095Y-87002438D01*
X80238095Y-87002438D02*
X80285714Y-87050057D01*
X80285714Y-87050057D02*
X80333333Y-87145295D01*
X80333333Y-87145295D02*
X80333333Y-87288152D01*
X80333333Y-87288152D02*
X80285714Y-87383390D01*
X80285714Y-87383390D02*
X80238095Y-87431009D01*
X80238095Y-87431009D02*
X80142857Y-87478628D01*
X80142857Y-87478628D02*
X79761905Y-87478628D01*
X81190476Y-87288152D02*
X81190476Y-87954819D01*
X80952381Y-86907200D02*
X80714286Y-87621485D01*
X80714286Y-87621485D02*
X81333333Y-87621485D01*
X69916666Y-35704819D02*
X69916666Y-36419104D01*
X69916666Y-36419104D02*
X69869047Y-36561961D01*
X69869047Y-36561961D02*
X69773809Y-36657200D01*
X69773809Y-36657200D02*
X69630952Y-36704819D01*
X69630952Y-36704819D02*
X69535714Y-36704819D01*
X70916666Y-36704819D02*
X70345238Y-36704819D01*
X70630952Y-36704819D02*
X70630952Y-35704819D01*
X70630952Y-35704819D02*
X70535714Y-35847676D01*
X70535714Y-35847676D02*
X70440476Y-35942914D01*
X70440476Y-35942914D02*
X70345238Y-35990533D01*
X64695715Y-82274819D02*
X64695715Y-83084342D01*
X64695715Y-83084342D02*
X64743334Y-83179580D01*
X64743334Y-83179580D02*
X64790953Y-83227200D01*
X64790953Y-83227200D02*
X64886191Y-83274819D01*
X64886191Y-83274819D02*
X65076667Y-83274819D01*
X65076667Y-83274819D02*
X65171905Y-83227200D01*
X65171905Y-83227200D02*
X65219524Y-83179580D01*
X65219524Y-83179580D02*
X65267143Y-83084342D01*
X65267143Y-83084342D02*
X65267143Y-82274819D01*
X66171905Y-82608152D02*
X66171905Y-83274819D01*
X65933810Y-82227200D02*
X65695715Y-82941485D01*
X65695715Y-82941485D02*
X66314762Y-82941485D01*
X37250953Y-78554819D02*
X36917620Y-78078628D01*
X36679525Y-78554819D02*
X36679525Y-77554819D01*
X36679525Y-77554819D02*
X37060477Y-77554819D01*
X37060477Y-77554819D02*
X37155715Y-77602438D01*
X37155715Y-77602438D02*
X37203334Y-77650057D01*
X37203334Y-77650057D02*
X37250953Y-77745295D01*
X37250953Y-77745295D02*
X37250953Y-77888152D01*
X37250953Y-77888152D02*
X37203334Y-77983390D01*
X37203334Y-77983390D02*
X37155715Y-78031009D01*
X37155715Y-78031009D02*
X37060477Y-78078628D01*
X37060477Y-78078628D02*
X36679525Y-78078628D01*
X38203334Y-78554819D02*
X37631906Y-78554819D01*
X37917620Y-78554819D02*
X37917620Y-77554819D01*
X37917620Y-77554819D02*
X37822382Y-77697676D01*
X37822382Y-77697676D02*
X37727144Y-77792914D01*
X37727144Y-77792914D02*
X37631906Y-77840533D01*
X57333333Y-104454819D02*
X57000000Y-103978628D01*
X56761905Y-104454819D02*
X56761905Y-103454819D01*
X56761905Y-103454819D02*
X57142857Y-103454819D01*
X57142857Y-103454819D02*
X57238095Y-103502438D01*
X57238095Y-103502438D02*
X57285714Y-103550057D01*
X57285714Y-103550057D02*
X57333333Y-103645295D01*
X57333333Y-103645295D02*
X57333333Y-103788152D01*
X57333333Y-103788152D02*
X57285714Y-103883390D01*
X57285714Y-103883390D02*
X57238095Y-103931009D01*
X57238095Y-103931009D02*
X57142857Y-103978628D01*
X57142857Y-103978628D02*
X56761905Y-103978628D01*
X58190476Y-103454819D02*
X58000000Y-103454819D01*
X58000000Y-103454819D02*
X57904762Y-103502438D01*
X57904762Y-103502438D02*
X57857143Y-103550057D01*
X57857143Y-103550057D02*
X57761905Y-103692914D01*
X57761905Y-103692914D02*
X57714286Y-103883390D01*
X57714286Y-103883390D02*
X57714286Y-104264342D01*
X57714286Y-104264342D02*
X57761905Y-104359580D01*
X57761905Y-104359580D02*
X57809524Y-104407200D01*
X57809524Y-104407200D02*
X57904762Y-104454819D01*
X57904762Y-104454819D02*
X58095238Y-104454819D01*
X58095238Y-104454819D02*
X58190476Y-104407200D01*
X58190476Y-104407200D02*
X58238095Y-104359580D01*
X58238095Y-104359580D02*
X58285714Y-104264342D01*
X58285714Y-104264342D02*
X58285714Y-104026247D01*
X58285714Y-104026247D02*
X58238095Y-103931009D01*
X58238095Y-103931009D02*
X58190476Y-103883390D01*
X58190476Y-103883390D02*
X58095238Y-103835771D01*
X58095238Y-103835771D02*
X57904762Y-103835771D01*
X57904762Y-103835771D02*
X57809524Y-103883390D01*
X57809524Y-103883390D02*
X57761905Y-103931009D01*
X57761905Y-103931009D02*
X57714286Y-104026247D01*
X23131905Y-81944819D02*
X23131905Y-80944819D01*
X23131905Y-80944819D02*
X23370000Y-80944819D01*
X23370000Y-80944819D02*
X23512857Y-80992438D01*
X23512857Y-80992438D02*
X23608095Y-81087676D01*
X23608095Y-81087676D02*
X23655714Y-81182914D01*
X23655714Y-81182914D02*
X23703333Y-81373390D01*
X23703333Y-81373390D02*
X23703333Y-81516247D01*
X23703333Y-81516247D02*
X23655714Y-81706723D01*
X23655714Y-81706723D02*
X23608095Y-81801961D01*
X23608095Y-81801961D02*
X23512857Y-81897200D01*
X23512857Y-81897200D02*
X23370000Y-81944819D01*
X23370000Y-81944819D02*
X23131905Y-81944819D01*
X24036667Y-80944819D02*
X24655714Y-80944819D01*
X24655714Y-80944819D02*
X24322381Y-81325771D01*
X24322381Y-81325771D02*
X24465238Y-81325771D01*
X24465238Y-81325771D02*
X24560476Y-81373390D01*
X24560476Y-81373390D02*
X24608095Y-81421009D01*
X24608095Y-81421009D02*
X24655714Y-81516247D01*
X24655714Y-81516247D02*
X24655714Y-81754342D01*
X24655714Y-81754342D02*
X24608095Y-81849580D01*
X24608095Y-81849580D02*
X24560476Y-81897200D01*
X24560476Y-81897200D02*
X24465238Y-81944819D01*
X24465238Y-81944819D02*
X24179524Y-81944819D01*
X24179524Y-81944819D02*
X24084286Y-81897200D01*
X24084286Y-81897200D02*
X24036667Y-81849580D01*
X64495715Y-62524819D02*
X64495715Y-63334342D01*
X64495715Y-63334342D02*
X64543334Y-63429580D01*
X64543334Y-63429580D02*
X64590953Y-63477200D01*
X64590953Y-63477200D02*
X64686191Y-63524819D01*
X64686191Y-63524819D02*
X64876667Y-63524819D01*
X64876667Y-63524819D02*
X64971905Y-63477200D01*
X64971905Y-63477200D02*
X65019524Y-63429580D01*
X65019524Y-63429580D02*
X65067143Y-63334342D01*
X65067143Y-63334342D02*
X65067143Y-62524819D01*
X66067143Y-63524819D02*
X65495715Y-63524819D01*
X65781429Y-63524819D02*
X65781429Y-62524819D01*
X65781429Y-62524819D02*
X65686191Y-62667676D01*
X65686191Y-62667676D02*
X65590953Y-62762914D01*
X65590953Y-62762914D02*
X65495715Y-62810533D01*
X80606905Y-32594819D02*
X80606905Y-31594819D01*
X80606905Y-31594819D02*
X80845000Y-31594819D01*
X80845000Y-31594819D02*
X80987857Y-31642438D01*
X80987857Y-31642438D02*
X81083095Y-31737676D01*
X81083095Y-31737676D02*
X81130714Y-31832914D01*
X81130714Y-31832914D02*
X81178333Y-32023390D01*
X81178333Y-32023390D02*
X81178333Y-32166247D01*
X81178333Y-32166247D02*
X81130714Y-32356723D01*
X81130714Y-32356723D02*
X81083095Y-32451961D01*
X81083095Y-32451961D02*
X80987857Y-32547200D01*
X80987857Y-32547200D02*
X80845000Y-32594819D01*
X80845000Y-32594819D02*
X80606905Y-32594819D01*
X81749762Y-32023390D02*
X81654524Y-31975771D01*
X81654524Y-31975771D02*
X81606905Y-31928152D01*
X81606905Y-31928152D02*
X81559286Y-31832914D01*
X81559286Y-31832914D02*
X81559286Y-31785295D01*
X81559286Y-31785295D02*
X81606905Y-31690057D01*
X81606905Y-31690057D02*
X81654524Y-31642438D01*
X81654524Y-31642438D02*
X81749762Y-31594819D01*
X81749762Y-31594819D02*
X81940238Y-31594819D01*
X81940238Y-31594819D02*
X82035476Y-31642438D01*
X82035476Y-31642438D02*
X82083095Y-31690057D01*
X82083095Y-31690057D02*
X82130714Y-31785295D01*
X82130714Y-31785295D02*
X82130714Y-31832914D01*
X82130714Y-31832914D02*
X82083095Y-31928152D01*
X82083095Y-31928152D02*
X82035476Y-31975771D01*
X82035476Y-31975771D02*
X81940238Y-32023390D01*
X81940238Y-32023390D02*
X81749762Y-32023390D01*
X81749762Y-32023390D02*
X81654524Y-32071009D01*
X81654524Y-32071009D02*
X81606905Y-32118628D01*
X81606905Y-32118628D02*
X81559286Y-32213866D01*
X81559286Y-32213866D02*
X81559286Y-32404342D01*
X81559286Y-32404342D02*
X81606905Y-32499580D01*
X81606905Y-32499580D02*
X81654524Y-32547200D01*
X81654524Y-32547200D02*
X81749762Y-32594819D01*
X81749762Y-32594819D02*
X81940238Y-32594819D01*
X81940238Y-32594819D02*
X82035476Y-32547200D01*
X82035476Y-32547200D02*
X82083095Y-32499580D01*
X82083095Y-32499580D02*
X82130714Y-32404342D01*
X82130714Y-32404342D02*
X82130714Y-32213866D01*
X82130714Y-32213866D02*
X82083095Y-32118628D01*
X82083095Y-32118628D02*
X82035476Y-32071009D01*
X82035476Y-32071009D02*
X81940238Y-32023390D01*
X79833333Y-104454819D02*
X79500000Y-103978628D01*
X79261905Y-104454819D02*
X79261905Y-103454819D01*
X79261905Y-103454819D02*
X79642857Y-103454819D01*
X79642857Y-103454819D02*
X79738095Y-103502438D01*
X79738095Y-103502438D02*
X79785714Y-103550057D01*
X79785714Y-103550057D02*
X79833333Y-103645295D01*
X79833333Y-103645295D02*
X79833333Y-103788152D01*
X79833333Y-103788152D02*
X79785714Y-103883390D01*
X79785714Y-103883390D02*
X79738095Y-103931009D01*
X79738095Y-103931009D02*
X79642857Y-103978628D01*
X79642857Y-103978628D02*
X79261905Y-103978628D01*
X80738095Y-103454819D02*
X80261905Y-103454819D01*
X80261905Y-103454819D02*
X80214286Y-103931009D01*
X80214286Y-103931009D02*
X80261905Y-103883390D01*
X80261905Y-103883390D02*
X80357143Y-103835771D01*
X80357143Y-103835771D02*
X80595238Y-103835771D01*
X80595238Y-103835771D02*
X80690476Y-103883390D01*
X80690476Y-103883390D02*
X80738095Y-103931009D01*
X80738095Y-103931009D02*
X80785714Y-104026247D01*
X80785714Y-104026247D02*
X80785714Y-104264342D01*
X80785714Y-104264342D02*
X80738095Y-104359580D01*
X80738095Y-104359580D02*
X80690476Y-104407200D01*
X80690476Y-104407200D02*
X80595238Y-104454819D01*
X80595238Y-104454819D02*
X80357143Y-104454819D01*
X80357143Y-104454819D02*
X80261905Y-104407200D01*
X80261905Y-104407200D02*
X80214286Y-104359580D01*
X79955714Y-54894819D02*
X79955714Y-53894819D01*
X79955714Y-53894819D02*
X80193809Y-53894819D01*
X80193809Y-53894819D02*
X80336666Y-53942438D01*
X80336666Y-53942438D02*
X80431904Y-54037676D01*
X80431904Y-54037676D02*
X80479523Y-54132914D01*
X80479523Y-54132914D02*
X80527142Y-54323390D01*
X80527142Y-54323390D02*
X80527142Y-54466247D01*
X80527142Y-54466247D02*
X80479523Y-54656723D01*
X80479523Y-54656723D02*
X80431904Y-54751961D01*
X80431904Y-54751961D02*
X80336666Y-54847200D01*
X80336666Y-54847200D02*
X80193809Y-54894819D01*
X80193809Y-54894819D02*
X79955714Y-54894819D01*
X81479523Y-54894819D02*
X80908095Y-54894819D01*
X81193809Y-54894819D02*
X81193809Y-53894819D01*
X81193809Y-53894819D02*
X81098571Y-54037676D01*
X81098571Y-54037676D02*
X81003333Y-54132914D01*
X81003333Y-54132914D02*
X80908095Y-54180533D01*
X82098571Y-53894819D02*
X82193809Y-53894819D01*
X82193809Y-53894819D02*
X82289047Y-53942438D01*
X82289047Y-53942438D02*
X82336666Y-53990057D01*
X82336666Y-53990057D02*
X82384285Y-54085295D01*
X82384285Y-54085295D02*
X82431904Y-54275771D01*
X82431904Y-54275771D02*
X82431904Y-54513866D01*
X82431904Y-54513866D02*
X82384285Y-54704342D01*
X82384285Y-54704342D02*
X82336666Y-54799580D01*
X82336666Y-54799580D02*
X82289047Y-54847200D01*
X82289047Y-54847200D02*
X82193809Y-54894819D01*
X82193809Y-54894819D02*
X82098571Y-54894819D01*
X82098571Y-54894819D02*
X82003333Y-54847200D01*
X82003333Y-54847200D02*
X81955714Y-54799580D01*
X81955714Y-54799580D02*
X81908095Y-54704342D01*
X81908095Y-54704342D02*
X81860476Y-54513866D01*
X81860476Y-54513866D02*
X81860476Y-54275771D01*
X81860476Y-54275771D02*
X81908095Y-54085295D01*
X81908095Y-54085295D02*
X81955714Y-53990057D01*
X81955714Y-53990057D02*
X82003333Y-53942438D01*
X82003333Y-53942438D02*
X82098571Y-53894819D01*
X65083333Y-47359580D02*
X65035714Y-47407200D01*
X65035714Y-47407200D02*
X64892857Y-47454819D01*
X64892857Y-47454819D02*
X64797619Y-47454819D01*
X64797619Y-47454819D02*
X64654762Y-47407200D01*
X64654762Y-47407200D02*
X64559524Y-47311961D01*
X64559524Y-47311961D02*
X64511905Y-47216723D01*
X64511905Y-47216723D02*
X64464286Y-47026247D01*
X64464286Y-47026247D02*
X64464286Y-46883390D01*
X64464286Y-46883390D02*
X64511905Y-46692914D01*
X64511905Y-46692914D02*
X64559524Y-46597676D01*
X64559524Y-46597676D02*
X64654762Y-46502438D01*
X64654762Y-46502438D02*
X64797619Y-46454819D01*
X64797619Y-46454819D02*
X64892857Y-46454819D01*
X64892857Y-46454819D02*
X65035714Y-46502438D01*
X65035714Y-46502438D02*
X65083333Y-46550057D01*
X65464286Y-46550057D02*
X65511905Y-46502438D01*
X65511905Y-46502438D02*
X65607143Y-46454819D01*
X65607143Y-46454819D02*
X65845238Y-46454819D01*
X65845238Y-46454819D02*
X65940476Y-46502438D01*
X65940476Y-46502438D02*
X65988095Y-46550057D01*
X65988095Y-46550057D02*
X66035714Y-46645295D01*
X66035714Y-46645295D02*
X66035714Y-46740533D01*
X66035714Y-46740533D02*
X65988095Y-46883390D01*
X65988095Y-46883390D02*
X65416667Y-47454819D01*
X65416667Y-47454819D02*
X66035714Y-47454819D01*
X48515715Y-54994819D02*
X48515715Y-55804342D01*
X48515715Y-55804342D02*
X48563334Y-55899580D01*
X48563334Y-55899580D02*
X48610953Y-55947200D01*
X48610953Y-55947200D02*
X48706191Y-55994819D01*
X48706191Y-55994819D02*
X48896667Y-55994819D01*
X48896667Y-55994819D02*
X48991905Y-55947200D01*
X48991905Y-55947200D02*
X49039524Y-55899580D01*
X49039524Y-55899580D02*
X49087143Y-55804342D01*
X49087143Y-55804342D02*
X49087143Y-54994819D01*
X49515715Y-55090057D02*
X49563334Y-55042438D01*
X49563334Y-55042438D02*
X49658572Y-54994819D01*
X49658572Y-54994819D02*
X49896667Y-54994819D01*
X49896667Y-54994819D02*
X49991905Y-55042438D01*
X49991905Y-55042438D02*
X50039524Y-55090057D01*
X50039524Y-55090057D02*
X50087143Y-55185295D01*
X50087143Y-55185295D02*
X50087143Y-55280533D01*
X50087143Y-55280533D02*
X50039524Y-55423390D01*
X50039524Y-55423390D02*
X49468096Y-55994819D01*
X49468096Y-55994819D02*
X50087143Y-55994819D01*
X23156905Y-94044819D02*
X23156905Y-93044819D01*
X23156905Y-93044819D02*
X23395000Y-93044819D01*
X23395000Y-93044819D02*
X23537857Y-93092438D01*
X23537857Y-93092438D02*
X23633095Y-93187676D01*
X23633095Y-93187676D02*
X23680714Y-93282914D01*
X23680714Y-93282914D02*
X23728333Y-93473390D01*
X23728333Y-93473390D02*
X23728333Y-93616247D01*
X23728333Y-93616247D02*
X23680714Y-93806723D01*
X23680714Y-93806723D02*
X23633095Y-93901961D01*
X23633095Y-93901961D02*
X23537857Y-93997200D01*
X23537857Y-93997200D02*
X23395000Y-94044819D01*
X23395000Y-94044819D02*
X23156905Y-94044819D01*
X24109286Y-93140057D02*
X24156905Y-93092438D01*
X24156905Y-93092438D02*
X24252143Y-93044819D01*
X24252143Y-93044819D02*
X24490238Y-93044819D01*
X24490238Y-93044819D02*
X24585476Y-93092438D01*
X24585476Y-93092438D02*
X24633095Y-93140057D01*
X24633095Y-93140057D02*
X24680714Y-93235295D01*
X24680714Y-93235295D02*
X24680714Y-93330533D01*
X24680714Y-93330533D02*
X24633095Y-93473390D01*
X24633095Y-93473390D02*
X24061667Y-94044819D01*
X24061667Y-94044819D02*
X24680714Y-94044819D01*
X72540953Y-101569580D02*
X72493334Y-101617200D01*
X72493334Y-101617200D02*
X72350477Y-101664819D01*
X72350477Y-101664819D02*
X72255239Y-101664819D01*
X72255239Y-101664819D02*
X72112382Y-101617200D01*
X72112382Y-101617200D02*
X72017144Y-101521961D01*
X72017144Y-101521961D02*
X71969525Y-101426723D01*
X71969525Y-101426723D02*
X71921906Y-101236247D01*
X71921906Y-101236247D02*
X71921906Y-101093390D01*
X71921906Y-101093390D02*
X71969525Y-100902914D01*
X71969525Y-100902914D02*
X72017144Y-100807676D01*
X72017144Y-100807676D02*
X72112382Y-100712438D01*
X72112382Y-100712438D02*
X72255239Y-100664819D01*
X72255239Y-100664819D02*
X72350477Y-100664819D01*
X72350477Y-100664819D02*
X72493334Y-100712438D01*
X72493334Y-100712438D02*
X72540953Y-100760057D01*
X73398096Y-100998152D02*
X73398096Y-101664819D01*
X73160001Y-100617200D02*
X72921906Y-101331485D01*
X72921906Y-101331485D02*
X73540953Y-101331485D01*
X23291905Y-58244819D02*
X23291905Y-57244819D01*
X23291905Y-57244819D02*
X23530000Y-57244819D01*
X23530000Y-57244819D02*
X23672857Y-57292438D01*
X23672857Y-57292438D02*
X23768095Y-57387676D01*
X23768095Y-57387676D02*
X23815714Y-57482914D01*
X23815714Y-57482914D02*
X23863333Y-57673390D01*
X23863333Y-57673390D02*
X23863333Y-57816247D01*
X23863333Y-57816247D02*
X23815714Y-58006723D01*
X23815714Y-58006723D02*
X23768095Y-58101961D01*
X23768095Y-58101961D02*
X23672857Y-58197200D01*
X23672857Y-58197200D02*
X23530000Y-58244819D01*
X23530000Y-58244819D02*
X23291905Y-58244819D01*
X24768095Y-57244819D02*
X24291905Y-57244819D01*
X24291905Y-57244819D02*
X24244286Y-57721009D01*
X24244286Y-57721009D02*
X24291905Y-57673390D01*
X24291905Y-57673390D02*
X24387143Y-57625771D01*
X24387143Y-57625771D02*
X24625238Y-57625771D01*
X24625238Y-57625771D02*
X24720476Y-57673390D01*
X24720476Y-57673390D02*
X24768095Y-57721009D01*
X24768095Y-57721009D02*
X24815714Y-57816247D01*
X24815714Y-57816247D02*
X24815714Y-58054342D01*
X24815714Y-58054342D02*
X24768095Y-58149580D01*
X24768095Y-58149580D02*
X24720476Y-58197200D01*
X24720476Y-58197200D02*
X24625238Y-58244819D01*
X24625238Y-58244819D02*
X24387143Y-58244819D01*
X24387143Y-58244819D02*
X24291905Y-58197200D01*
X24291905Y-58197200D02*
X24244286Y-58149580D01*
X49238095Y-87304819D02*
X49238095Y-86304819D01*
X49238095Y-86781009D02*
X49809523Y-86781009D01*
X49809523Y-87304819D02*
X49809523Y-86304819D01*
X50238095Y-86400057D02*
X50285714Y-86352438D01*
X50285714Y-86352438D02*
X50380952Y-86304819D01*
X50380952Y-86304819D02*
X50619047Y-86304819D01*
X50619047Y-86304819D02*
X50714285Y-86352438D01*
X50714285Y-86352438D02*
X50761904Y-86400057D01*
X50761904Y-86400057D02*
X50809523Y-86495295D01*
X50809523Y-86495295D02*
X50809523Y-86590533D01*
X50809523Y-86590533D02*
X50761904Y-86733390D01*
X50761904Y-86733390D02*
X50190476Y-87304819D01*
X50190476Y-87304819D02*
X50809523Y-87304819D01*
X23041905Y-106744819D02*
X23041905Y-105744819D01*
X23041905Y-105744819D02*
X23280000Y-105744819D01*
X23280000Y-105744819D02*
X23422857Y-105792438D01*
X23422857Y-105792438D02*
X23518095Y-105887676D01*
X23518095Y-105887676D02*
X23565714Y-105982914D01*
X23565714Y-105982914D02*
X23613333Y-106173390D01*
X23613333Y-106173390D02*
X23613333Y-106316247D01*
X23613333Y-106316247D02*
X23565714Y-106506723D01*
X23565714Y-106506723D02*
X23518095Y-106601961D01*
X23518095Y-106601961D02*
X23422857Y-106697200D01*
X23422857Y-106697200D02*
X23280000Y-106744819D01*
X23280000Y-106744819D02*
X23041905Y-106744819D01*
X24565714Y-106744819D02*
X23994286Y-106744819D01*
X24280000Y-106744819D02*
X24280000Y-105744819D01*
X24280000Y-105744819D02*
X24184762Y-105887676D01*
X24184762Y-105887676D02*
X24089524Y-105982914D01*
X24089524Y-105982914D02*
X23994286Y-106030533D01*
X43404761Y-43954819D02*
X43071428Y-43478628D01*
X42833333Y-43954819D02*
X42833333Y-42954819D01*
X42833333Y-42954819D02*
X43214285Y-42954819D01*
X43214285Y-42954819D02*
X43309523Y-43002438D01*
X43309523Y-43002438D02*
X43357142Y-43050057D01*
X43357142Y-43050057D02*
X43404761Y-43145295D01*
X43404761Y-43145295D02*
X43404761Y-43288152D01*
X43404761Y-43288152D02*
X43357142Y-43383390D01*
X43357142Y-43383390D02*
X43309523Y-43431009D01*
X43309523Y-43431009D02*
X43214285Y-43478628D01*
X43214285Y-43478628D02*
X42833333Y-43478628D01*
X43690476Y-42954819D02*
X44023809Y-43954819D01*
X44023809Y-43954819D02*
X44357142Y-42954819D01*
X45214285Y-43954819D02*
X44642857Y-43954819D01*
X44928571Y-43954819D02*
X44928571Y-42954819D01*
X44928571Y-42954819D02*
X44833333Y-43097676D01*
X44833333Y-43097676D02*
X44738095Y-43192914D01*
X44738095Y-43192914D02*
X44642857Y-43240533D01*
X39900953Y-68214819D02*
X39567620Y-67738628D01*
X39329525Y-68214819D02*
X39329525Y-67214819D01*
X39329525Y-67214819D02*
X39710477Y-67214819D01*
X39710477Y-67214819D02*
X39805715Y-67262438D01*
X39805715Y-67262438D02*
X39853334Y-67310057D01*
X39853334Y-67310057D02*
X39900953Y-67405295D01*
X39900953Y-67405295D02*
X39900953Y-67548152D01*
X39900953Y-67548152D02*
X39853334Y-67643390D01*
X39853334Y-67643390D02*
X39805715Y-67691009D01*
X39805715Y-67691009D02*
X39710477Y-67738628D01*
X39710477Y-67738628D02*
X39329525Y-67738628D01*
X40281906Y-67310057D02*
X40329525Y-67262438D01*
X40329525Y-67262438D02*
X40424763Y-67214819D01*
X40424763Y-67214819D02*
X40662858Y-67214819D01*
X40662858Y-67214819D02*
X40758096Y-67262438D01*
X40758096Y-67262438D02*
X40805715Y-67310057D01*
X40805715Y-67310057D02*
X40853334Y-67405295D01*
X40853334Y-67405295D02*
X40853334Y-67500533D01*
X40853334Y-67500533D02*
X40805715Y-67643390D01*
X40805715Y-67643390D02*
X40234287Y-68214819D01*
X40234287Y-68214819D02*
X40853334Y-68214819D01*
X51706667Y-39757200D02*
X51849524Y-39804819D01*
X51849524Y-39804819D02*
X52087619Y-39804819D01*
X52087619Y-39804819D02*
X52182857Y-39757200D01*
X52182857Y-39757200D02*
X52230476Y-39709580D01*
X52230476Y-39709580D02*
X52278095Y-39614342D01*
X52278095Y-39614342D02*
X52278095Y-39519104D01*
X52278095Y-39519104D02*
X52230476Y-39423866D01*
X52230476Y-39423866D02*
X52182857Y-39376247D01*
X52182857Y-39376247D02*
X52087619Y-39328628D01*
X52087619Y-39328628D02*
X51897143Y-39281009D01*
X51897143Y-39281009D02*
X51801905Y-39233390D01*
X51801905Y-39233390D02*
X51754286Y-39185771D01*
X51754286Y-39185771D02*
X51706667Y-39090533D01*
X51706667Y-39090533D02*
X51706667Y-38995295D01*
X51706667Y-38995295D02*
X51754286Y-38900057D01*
X51754286Y-38900057D02*
X51801905Y-38852438D01*
X51801905Y-38852438D02*
X51897143Y-38804819D01*
X51897143Y-38804819D02*
X52135238Y-38804819D01*
X52135238Y-38804819D02*
X52278095Y-38852438D01*
X52611429Y-38804819D02*
X52849524Y-39804819D01*
X52849524Y-39804819D02*
X53040000Y-39090533D01*
X53040000Y-39090533D02*
X53230476Y-39804819D01*
X53230476Y-39804819D02*
X53468572Y-38804819D01*
X54373333Y-39804819D02*
X53801905Y-39804819D01*
X54087619Y-39804819D02*
X54087619Y-38804819D01*
X54087619Y-38804819D02*
X53992381Y-38947676D01*
X53992381Y-38947676D02*
X53897143Y-39042914D01*
X53897143Y-39042914D02*
X53801905Y-39090533D01*
X65290953Y-77319580D02*
X65243334Y-77367200D01*
X65243334Y-77367200D02*
X65100477Y-77414819D01*
X65100477Y-77414819D02*
X65005239Y-77414819D01*
X65005239Y-77414819D02*
X64862382Y-77367200D01*
X64862382Y-77367200D02*
X64767144Y-77271961D01*
X64767144Y-77271961D02*
X64719525Y-77176723D01*
X64719525Y-77176723D02*
X64671906Y-76986247D01*
X64671906Y-76986247D02*
X64671906Y-76843390D01*
X64671906Y-76843390D02*
X64719525Y-76652914D01*
X64719525Y-76652914D02*
X64767144Y-76557676D01*
X64767144Y-76557676D02*
X64862382Y-76462438D01*
X64862382Y-76462438D02*
X65005239Y-76414819D01*
X65005239Y-76414819D02*
X65100477Y-76414819D01*
X65100477Y-76414819D02*
X65243334Y-76462438D01*
X65243334Y-76462438D02*
X65290953Y-76510057D01*
X66243334Y-77414819D02*
X65671906Y-77414819D01*
X65957620Y-77414819D02*
X65957620Y-76414819D01*
X65957620Y-76414819D02*
X65862382Y-76557676D01*
X65862382Y-76557676D02*
X65767144Y-76652914D01*
X65767144Y-76652914D02*
X65671906Y-76700533D01*
X23291905Y-35294819D02*
X23291905Y-34294819D01*
X23291905Y-34294819D02*
X23530000Y-34294819D01*
X23530000Y-34294819D02*
X23672857Y-34342438D01*
X23672857Y-34342438D02*
X23768095Y-34437676D01*
X23768095Y-34437676D02*
X23815714Y-34532914D01*
X23815714Y-34532914D02*
X23863333Y-34723390D01*
X23863333Y-34723390D02*
X23863333Y-34866247D01*
X23863333Y-34866247D02*
X23815714Y-35056723D01*
X23815714Y-35056723D02*
X23768095Y-35151961D01*
X23768095Y-35151961D02*
X23672857Y-35247200D01*
X23672857Y-35247200D02*
X23530000Y-35294819D01*
X23530000Y-35294819D02*
X23291905Y-35294819D01*
X24196667Y-34294819D02*
X24863333Y-34294819D01*
X24863333Y-34294819D02*
X24434762Y-35294819D01*
X39645715Y-88234819D02*
X39645715Y-89044342D01*
X39645715Y-89044342D02*
X39693334Y-89139580D01*
X39693334Y-89139580D02*
X39740953Y-89187200D01*
X39740953Y-89187200D02*
X39836191Y-89234819D01*
X39836191Y-89234819D02*
X40026667Y-89234819D01*
X40026667Y-89234819D02*
X40121905Y-89187200D01*
X40121905Y-89187200D02*
X40169524Y-89139580D01*
X40169524Y-89139580D02*
X40217143Y-89044342D01*
X40217143Y-89044342D02*
X40217143Y-88234819D01*
X40598096Y-88234819D02*
X41217143Y-88234819D01*
X41217143Y-88234819D02*
X40883810Y-88615771D01*
X40883810Y-88615771D02*
X41026667Y-88615771D01*
X41026667Y-88615771D02*
X41121905Y-88663390D01*
X41121905Y-88663390D02*
X41169524Y-88711009D01*
X41169524Y-88711009D02*
X41217143Y-88806247D01*
X41217143Y-88806247D02*
X41217143Y-89044342D01*
X41217143Y-89044342D02*
X41169524Y-89139580D01*
X41169524Y-89139580D02*
X41121905Y-89187200D01*
X41121905Y-89187200D02*
X41026667Y-89234819D01*
X41026667Y-89234819D02*
X40740953Y-89234819D01*
X40740953Y-89234819D02*
X40645715Y-89187200D01*
X40645715Y-89187200D02*
X40598096Y-89139580D01*
X65333333Y-104454819D02*
X65000000Y-103978628D01*
X64761905Y-104454819D02*
X64761905Y-103454819D01*
X64761905Y-103454819D02*
X65142857Y-103454819D01*
X65142857Y-103454819D02*
X65238095Y-103502438D01*
X65238095Y-103502438D02*
X65285714Y-103550057D01*
X65285714Y-103550057D02*
X65333333Y-103645295D01*
X65333333Y-103645295D02*
X65333333Y-103788152D01*
X65333333Y-103788152D02*
X65285714Y-103883390D01*
X65285714Y-103883390D02*
X65238095Y-103931009D01*
X65238095Y-103931009D02*
X65142857Y-103978628D01*
X65142857Y-103978628D02*
X64761905Y-103978628D01*
X65666667Y-103454819D02*
X66333333Y-103454819D01*
X66333333Y-103454819D02*
X65904762Y-104454819D01*
X80641905Y-44244819D02*
X80641905Y-43244819D01*
X80641905Y-43244819D02*
X80880000Y-43244819D01*
X80880000Y-43244819D02*
X81022857Y-43292438D01*
X81022857Y-43292438D02*
X81118095Y-43387676D01*
X81118095Y-43387676D02*
X81165714Y-43482914D01*
X81165714Y-43482914D02*
X81213333Y-43673390D01*
X81213333Y-43673390D02*
X81213333Y-43816247D01*
X81213333Y-43816247D02*
X81165714Y-44006723D01*
X81165714Y-44006723D02*
X81118095Y-44101961D01*
X81118095Y-44101961D02*
X81022857Y-44197200D01*
X81022857Y-44197200D02*
X80880000Y-44244819D01*
X80880000Y-44244819D02*
X80641905Y-44244819D01*
X81689524Y-44244819D02*
X81880000Y-44244819D01*
X81880000Y-44244819D02*
X81975238Y-44197200D01*
X81975238Y-44197200D02*
X82022857Y-44149580D01*
X82022857Y-44149580D02*
X82118095Y-44006723D01*
X82118095Y-44006723D02*
X82165714Y-43816247D01*
X82165714Y-43816247D02*
X82165714Y-43435295D01*
X82165714Y-43435295D02*
X82118095Y-43340057D01*
X82118095Y-43340057D02*
X82070476Y-43292438D01*
X82070476Y-43292438D02*
X81975238Y-43244819D01*
X81975238Y-43244819D02*
X81784762Y-43244819D01*
X81784762Y-43244819D02*
X81689524Y-43292438D01*
X81689524Y-43292438D02*
X81641905Y-43340057D01*
X81641905Y-43340057D02*
X81594286Y-43435295D01*
X81594286Y-43435295D02*
X81594286Y-43673390D01*
X81594286Y-43673390D02*
X81641905Y-43768628D01*
X81641905Y-43768628D02*
X81689524Y-43816247D01*
X81689524Y-43816247D02*
X81784762Y-43863866D01*
X81784762Y-43863866D02*
X81975238Y-43863866D01*
X81975238Y-43863866D02*
X82070476Y-43816247D01*
X82070476Y-43816247D02*
X82118095Y-43768628D01*
X82118095Y-43768628D02*
X82165714Y-43673390D01*
X23141905Y-46694819D02*
X23141905Y-45694819D01*
X23141905Y-45694819D02*
X23380000Y-45694819D01*
X23380000Y-45694819D02*
X23522857Y-45742438D01*
X23522857Y-45742438D02*
X23618095Y-45837676D01*
X23618095Y-45837676D02*
X23665714Y-45932914D01*
X23665714Y-45932914D02*
X23713333Y-46123390D01*
X23713333Y-46123390D02*
X23713333Y-46266247D01*
X23713333Y-46266247D02*
X23665714Y-46456723D01*
X23665714Y-46456723D02*
X23618095Y-46551961D01*
X23618095Y-46551961D02*
X23522857Y-46647200D01*
X23522857Y-46647200D02*
X23380000Y-46694819D01*
X23380000Y-46694819D02*
X23141905Y-46694819D01*
X24570476Y-45694819D02*
X24380000Y-45694819D01*
X24380000Y-45694819D02*
X24284762Y-45742438D01*
X24284762Y-45742438D02*
X24237143Y-45790057D01*
X24237143Y-45790057D02*
X24141905Y-45932914D01*
X24141905Y-45932914D02*
X24094286Y-46123390D01*
X24094286Y-46123390D02*
X24094286Y-46504342D01*
X24094286Y-46504342D02*
X24141905Y-46599580D01*
X24141905Y-46599580D02*
X24189524Y-46647200D01*
X24189524Y-46647200D02*
X24284762Y-46694819D01*
X24284762Y-46694819D02*
X24475238Y-46694819D01*
X24475238Y-46694819D02*
X24570476Y-46647200D01*
X24570476Y-46647200D02*
X24618095Y-46599580D01*
X24618095Y-46599580D02*
X24665714Y-46504342D01*
X24665714Y-46504342D02*
X24665714Y-46266247D01*
X24665714Y-46266247D02*
X24618095Y-46171009D01*
X24618095Y-46171009D02*
X24570476Y-46123390D01*
X24570476Y-46123390D02*
X24475238Y-46075771D01*
X24475238Y-46075771D02*
X24284762Y-46075771D01*
X24284762Y-46075771D02*
X24189524Y-46123390D01*
X24189524Y-46123390D02*
X24141905Y-46171009D01*
X24141905Y-46171009D02*
X24094286Y-46266247D01*
X57484819Y-43214285D02*
X56484819Y-43214285D01*
X56484819Y-43214285D02*
X56484819Y-42976190D01*
X56484819Y-42976190D02*
X56532438Y-42833333D01*
X56532438Y-42833333D02*
X56627676Y-42738095D01*
X56627676Y-42738095D02*
X56722914Y-42690476D01*
X56722914Y-42690476D02*
X56913390Y-42642857D01*
X56913390Y-42642857D02*
X57056247Y-42642857D01*
X57056247Y-42642857D02*
X57246723Y-42690476D01*
X57246723Y-42690476D02*
X57341961Y-42738095D01*
X57341961Y-42738095D02*
X57437200Y-42833333D01*
X57437200Y-42833333D02*
X57484819Y-42976190D01*
X57484819Y-42976190D02*
X57484819Y-43214285D01*
X57484819Y-41690476D02*
X57484819Y-42261904D01*
X57484819Y-41976190D02*
X56484819Y-41976190D01*
X56484819Y-41976190D02*
X56627676Y-42071428D01*
X56627676Y-42071428D02*
X56722914Y-42166666D01*
X56722914Y-42166666D02*
X56770533Y-42261904D01*
X56580057Y-41309523D02*
X56532438Y-41261904D01*
X56532438Y-41261904D02*
X56484819Y-41166666D01*
X56484819Y-41166666D02*
X56484819Y-40928571D01*
X56484819Y-40928571D02*
X56532438Y-40833333D01*
X56532438Y-40833333D02*
X56580057Y-40785714D01*
X56580057Y-40785714D02*
X56675295Y-40738095D01*
X56675295Y-40738095D02*
X56770533Y-40738095D01*
X56770533Y-40738095D02*
X56913390Y-40785714D01*
X56913390Y-40785714D02*
X57484819Y-41357142D01*
X57484819Y-41357142D02*
X57484819Y-40738095D01*
X57854819Y-47341904D02*
X56854819Y-47341904D01*
X57854819Y-46770476D02*
X57283390Y-47199047D01*
X56854819Y-46770476D02*
X57426247Y-47341904D01*
X80333333Y-70954819D02*
X80000000Y-70478628D01*
X79761905Y-70954819D02*
X79761905Y-69954819D01*
X79761905Y-69954819D02*
X80142857Y-69954819D01*
X80142857Y-69954819D02*
X80238095Y-70002438D01*
X80238095Y-70002438D02*
X80285714Y-70050057D01*
X80285714Y-70050057D02*
X80333333Y-70145295D01*
X80333333Y-70145295D02*
X80333333Y-70288152D01*
X80333333Y-70288152D02*
X80285714Y-70383390D01*
X80285714Y-70383390D02*
X80238095Y-70431009D01*
X80238095Y-70431009D02*
X80142857Y-70478628D01*
X80142857Y-70478628D02*
X79761905Y-70478628D01*
X80666667Y-69954819D02*
X81285714Y-69954819D01*
X81285714Y-69954819D02*
X80952381Y-70335771D01*
X80952381Y-70335771D02*
X81095238Y-70335771D01*
X81095238Y-70335771D02*
X81190476Y-70383390D01*
X81190476Y-70383390D02*
X81238095Y-70431009D01*
X81238095Y-70431009D02*
X81285714Y-70526247D01*
X81285714Y-70526247D02*
X81285714Y-70764342D01*
X81285714Y-70764342D02*
X81238095Y-70859580D01*
X81238095Y-70859580D02*
X81190476Y-70907200D01*
X81190476Y-70907200D02*
X81095238Y-70954819D01*
X81095238Y-70954819D02*
X80809524Y-70954819D01*
X80809524Y-70954819D02*
X80714286Y-70907200D01*
X80714286Y-70907200D02*
X80666667Y-70859580D01*
X50333333Y-78359580D02*
X50285714Y-78407200D01*
X50285714Y-78407200D02*
X50142857Y-78454819D01*
X50142857Y-78454819D02*
X50047619Y-78454819D01*
X50047619Y-78454819D02*
X49904762Y-78407200D01*
X49904762Y-78407200D02*
X49809524Y-78311961D01*
X49809524Y-78311961D02*
X49761905Y-78216723D01*
X49761905Y-78216723D02*
X49714286Y-78026247D01*
X49714286Y-78026247D02*
X49714286Y-77883390D01*
X49714286Y-77883390D02*
X49761905Y-77692914D01*
X49761905Y-77692914D02*
X49809524Y-77597676D01*
X49809524Y-77597676D02*
X49904762Y-77502438D01*
X49904762Y-77502438D02*
X50047619Y-77454819D01*
X50047619Y-77454819D02*
X50142857Y-77454819D01*
X50142857Y-77454819D02*
X50285714Y-77502438D01*
X50285714Y-77502438D02*
X50333333Y-77550057D01*
X50666667Y-77454819D02*
X51285714Y-77454819D01*
X51285714Y-77454819D02*
X50952381Y-77835771D01*
X50952381Y-77835771D02*
X51095238Y-77835771D01*
X51095238Y-77835771D02*
X51190476Y-77883390D01*
X51190476Y-77883390D02*
X51238095Y-77931009D01*
X51238095Y-77931009D02*
X51285714Y-78026247D01*
X51285714Y-78026247D02*
X51285714Y-78264342D01*
X51285714Y-78264342D02*
X51238095Y-78359580D01*
X51238095Y-78359580D02*
X51190476Y-78407200D01*
X51190476Y-78407200D02*
X51095238Y-78454819D01*
X51095238Y-78454819D02*
X50809524Y-78454819D01*
X50809524Y-78454819D02*
X50714286Y-78407200D01*
X50714286Y-78407200D02*
X50666667Y-78359580D01*
D12*
%TO.C,D4*%
X21220000Y-71355000D02*
X21220000Y-74445000D01*
X21220000Y-71355170D02*
G75*
G02*
X26770000Y-72899952I2560000J-1544830D01*
G01*
X26770000Y-72900048D02*
G75*
G02*
X21220000Y-74444830I-2990000J48D01*
G01*
X26280000Y-72900000D02*
G75*
G02*
X21280000Y-72900000I-2500000J0D01*
G01*
X21280000Y-72900000D02*
G75*
G02*
X26280000Y-72900000I2500000J0D01*
G01*
%TO.C,R4*%
X76087620Y-84190000D02*
X76087620Y-90730000D01*
X76087620Y-90730000D02*
X78827620Y-90730000D01*
X77457620Y-83420000D02*
X77457620Y-84190000D01*
X77457620Y-91500000D02*
X77457620Y-90730000D01*
X78827620Y-84190000D02*
X76087620Y-84190000D01*
X78827620Y-90730000D02*
X78827620Y-84190000D01*
%TO.C,J1*%
X64880000Y-37120000D02*
X64880000Y-29080000D01*
X65688000Y-32500000D02*
X64880000Y-32500000D01*
X65688000Y-33500000D02*
X64880000Y-33500000D01*
X66957000Y-31200000D02*
X64880000Y-31200000D01*
X70620000Y-31200000D02*
X68043000Y-31200000D01*
X70620000Y-32500000D02*
X69312000Y-32500000D01*
X70620000Y-33500000D02*
X69312000Y-33500000D01*
X72200000Y-29080000D02*
X64880000Y-29080000D01*
X75620000Y-29080000D02*
X72800000Y-29080000D01*
X75620000Y-31200000D02*
X74380000Y-31200000D01*
X75620000Y-32500000D02*
X74380000Y-32500000D01*
X75620000Y-33500000D02*
X74380000Y-33500000D01*
X75620000Y-37120000D02*
X64880000Y-37120000D01*
X75620000Y-37120000D02*
X75620000Y-29080000D01*
X72500000Y-29080000D02*
X72060000Y-28470000D01*
X72940000Y-28470000D01*
X72500000Y-29080000D01*
G36*
X72500000Y-29080000D02*
G01*
X72060000Y-28470000D01*
X72940000Y-28470000D01*
X72500000Y-29080000D01*
G37*
%TO.C,U4*%
X63207620Y-83820000D02*
X63207620Y-94100000D01*
X63207620Y-94100000D02*
X67707620Y-94100000D01*
X64457620Y-83820000D02*
X63207620Y-83820000D01*
X67707620Y-83820000D02*
X66457620Y-83820000D01*
X67707620Y-94100000D02*
X67707620Y-83820000D01*
X60207620Y-83760000D02*
X70707620Y-83760000D01*
X70707620Y-94160000D01*
X60207620Y-94160000D01*
X60207620Y-83760000D01*
X66457620Y-83820000D02*
G75*
G02*
X64457620Y-83820000I-1000000J0D01*
G01*
%TO.C,R1*%
X35867620Y-78850000D02*
X38917620Y-78850000D01*
X35867620Y-83150000D02*
X38917620Y-83150000D01*
X35867620Y-83150000D02*
G75*
G02*
X35889386Y-78834475I1550000J2150000D01*
G01*
X38917620Y-78850000D02*
G75*
G02*
X38962133Y-83118249I-1500000J-2150000D01*
G01*
%TO.C,R6*%
X53297620Y-100380000D02*
X53297620Y-106920000D01*
X53297620Y-106920000D02*
X56037620Y-106920000D01*
X54667620Y-99610000D02*
X54667620Y-100380000D01*
X54667620Y-107690000D02*
X54667620Y-106920000D01*
X56037620Y-100380000D02*
X53297620Y-100380000D01*
X56037620Y-106920000D02*
X56037620Y-100380000D01*
%TO.C,D3*%
X21310000Y-83905000D02*
X21310000Y-86995000D01*
X21310000Y-83905170D02*
G75*
G02*
X26860000Y-85449952I2560000J-1544830D01*
G01*
X26860000Y-85450048D02*
G75*
G02*
X21310000Y-86994830I-2990000J48D01*
G01*
X26370000Y-85450000D02*
G75*
G02*
X21370000Y-85450000I-2500000J0D01*
G01*
X21370000Y-85450000D02*
G75*
G02*
X26370000Y-85450000I2500000J0D01*
G01*
%TO.C,U1*%
X63007620Y-64070000D02*
X63007620Y-74350000D01*
X63007620Y-74350000D02*
X67507620Y-74350000D01*
X64257620Y-64070000D02*
X63007620Y-64070000D01*
X67507620Y-64070000D02*
X66257620Y-64070000D01*
X67507620Y-74350000D02*
X67507620Y-64070000D01*
X60007620Y-64010000D02*
X70507620Y-64010000D01*
X70507620Y-74410000D01*
X60007620Y-74410000D01*
X60007620Y-64010000D01*
X66257620Y-64070000D02*
G75*
G02*
X64257620Y-64070000I-1000000J0D01*
G01*
%TO.C,D8*%
X78785000Y-34555000D02*
X78785000Y-37645000D01*
X78785000Y-34555170D02*
G75*
G02*
X84335000Y-36099952I2560000J-1544830D01*
G01*
X84335000Y-36100048D02*
G75*
G02*
X78785000Y-37644830I-2990000J48D01*
G01*
X83845000Y-36100000D02*
G75*
G02*
X78845000Y-36100000I-2500000J0D01*
G01*
X78845000Y-36100000D02*
G75*
G02*
X83845000Y-36100000I2500000J0D01*
G01*
%TO.C,R5*%
X75837620Y-100690000D02*
X75837620Y-107230000D01*
X75837620Y-107230000D02*
X78577620Y-107230000D01*
X77207620Y-99920000D02*
X77207620Y-100690000D01*
X77207620Y-108000000D02*
X77207620Y-107230000D01*
X78577620Y-100690000D02*
X75837620Y-100690000D01*
X78577620Y-107230000D02*
X78577620Y-100690000D01*
%TO.C,D10*%
X78610000Y-56855000D02*
X78610000Y-59945000D01*
X78610000Y-56855170D02*
G75*
G02*
X84160000Y-58399952I2560000J-1544830D01*
G01*
X84160000Y-58400048D02*
G75*
G02*
X78610000Y-59944830I-2990000J48D01*
G01*
X83670000Y-58400000D02*
G75*
G02*
X78670000Y-58400000I-2500000J0D01*
G01*
X78670000Y-58400000D02*
G75*
G02*
X83670000Y-58400000I2500000J0D01*
G01*
%TO.C,C2*%
X62010000Y-51802000D02*
X62010000Y-50998000D01*
X62050000Y-52033000D02*
X62050000Y-50767000D01*
X62090000Y-52201000D02*
X62090000Y-50599000D01*
X62130000Y-52339000D02*
X62130000Y-50461000D01*
X62170000Y-52458000D02*
X62170000Y-50342000D01*
X62210000Y-52565000D02*
X62210000Y-50235000D01*
X62250000Y-52661000D02*
X62250000Y-50139000D01*
X62290000Y-52750000D02*
X62290000Y-50050000D01*
X62330000Y-52832000D02*
X62330000Y-49968000D01*
X62370000Y-52909000D02*
X62370000Y-49891000D01*
X62410000Y-52981000D02*
X62410000Y-49819000D01*
X62450000Y-53049000D02*
X62450000Y-49751000D01*
X62490000Y-53114000D02*
X62490000Y-49686000D01*
X62530000Y-53175000D02*
X62530000Y-49625000D01*
X62570000Y-53234000D02*
X62570000Y-49566000D01*
X62610000Y-53290000D02*
X62610000Y-49510000D01*
X62650000Y-53343000D02*
X62650000Y-49457000D01*
X62690000Y-53395000D02*
X62690000Y-49405000D01*
X62730000Y-53444000D02*
X62730000Y-49356000D01*
X62770000Y-53491000D02*
X62770000Y-49309000D01*
X62810000Y-53537000D02*
X62810000Y-49263000D01*
X62850000Y-53581000D02*
X62850000Y-49219000D01*
X62890000Y-53623000D02*
X62890000Y-49177000D01*
X62930000Y-53664000D02*
X62930000Y-49136000D01*
X62970000Y-50360000D02*
X62970000Y-49096000D01*
X62970000Y-53704000D02*
X62970000Y-52440000D01*
X63010000Y-50360000D02*
X63010000Y-49058000D01*
X63010000Y-53742000D02*
X63010000Y-52440000D01*
X63050000Y-50360000D02*
X63050000Y-49021000D01*
X63050000Y-53779000D02*
X63050000Y-52440000D01*
X63090000Y-50360000D02*
X63090000Y-48985000D01*
X63090000Y-53815000D02*
X63090000Y-52440000D01*
X63130000Y-50360000D02*
X63130000Y-48950000D01*
X63130000Y-53850000D02*
X63130000Y-52440000D01*
X63170000Y-50360000D02*
X63170000Y-48917000D01*
X63170000Y-53883000D02*
X63170000Y-52440000D01*
X63210000Y-50360000D02*
X63210000Y-48884000D01*
X63210000Y-53916000D02*
X63210000Y-52440000D01*
X63250000Y-50360000D02*
X63250000Y-48853000D01*
X63250000Y-53947000D02*
X63250000Y-52440000D01*
X63290000Y-50360000D02*
X63290000Y-48823000D01*
X63290000Y-53977000D02*
X63290000Y-52440000D01*
X63330000Y-50360000D02*
X63330000Y-48793000D01*
X63330000Y-54007000D02*
X63330000Y-52440000D01*
X63370000Y-50360000D02*
X63370000Y-48764000D01*
X63370000Y-54036000D02*
X63370000Y-52440000D01*
X63410000Y-50360000D02*
X63410000Y-48737000D01*
X63410000Y-54063000D02*
X63410000Y-52440000D01*
X63450000Y-50360000D02*
X63450000Y-48710000D01*
X63450000Y-54090000D02*
X63450000Y-52440000D01*
X63490000Y-50360000D02*
X63490000Y-48684000D01*
X63490000Y-54116000D02*
X63490000Y-52440000D01*
X63530000Y-50360000D02*
X63530000Y-48659000D01*
X63530000Y-54141000D02*
X63530000Y-52440000D01*
X63570000Y-50360000D02*
X63570000Y-48635000D01*
X63570000Y-54165000D02*
X63570000Y-52440000D01*
X63610000Y-50360000D02*
X63610000Y-48611000D01*
X63610000Y-54189000D02*
X63610000Y-52440000D01*
X63650000Y-50360000D02*
X63650000Y-48588000D01*
X63650000Y-54212000D02*
X63650000Y-52440000D01*
X63690000Y-50360000D02*
X63690000Y-48566000D01*
X63690000Y-54234000D02*
X63690000Y-52440000D01*
X63730000Y-50360000D02*
X63730000Y-48545000D01*
X63730000Y-54255000D02*
X63730000Y-52440000D01*
X63770000Y-50360000D02*
X63770000Y-48524000D01*
X63770000Y-54276000D02*
X63770000Y-52440000D01*
X63810000Y-50360000D02*
X63810000Y-48504000D01*
X63810000Y-54296000D02*
X63810000Y-52440000D01*
X63850000Y-50360000D02*
X63850000Y-48485000D01*
X63850000Y-54315000D02*
X63850000Y-52440000D01*
X63890000Y-50360000D02*
X63890000Y-48466000D01*
X63890000Y-54334000D02*
X63890000Y-52440000D01*
X63930000Y-50360000D02*
X63930000Y-48448000D01*
X63930000Y-54352000D02*
X63930000Y-52440000D01*
X63970000Y-50360000D02*
X63970000Y-48431000D01*
X63970000Y-54369000D02*
X63970000Y-52440000D01*
X64010000Y-50360000D02*
X64010000Y-48414000D01*
X64010000Y-54386000D02*
X64010000Y-52440000D01*
X64050000Y-50360000D02*
X64050000Y-48398000D01*
X64050000Y-54402000D02*
X64050000Y-52440000D01*
X64090000Y-50360000D02*
X64090000Y-48383000D01*
X64090000Y-54417000D02*
X64090000Y-52440000D01*
X64130000Y-50360000D02*
X64130000Y-48368000D01*
X64130000Y-54432000D02*
X64130000Y-52440000D01*
X64170000Y-50360000D02*
X64170000Y-48353000D01*
X64170000Y-54447000D02*
X64170000Y-52440000D01*
X64210000Y-50360000D02*
X64210000Y-48340000D01*
X64210000Y-54460000D02*
X64210000Y-52440000D01*
X64250000Y-50360000D02*
X64250000Y-48327000D01*
X64250000Y-54473000D02*
X64250000Y-52440000D01*
X64290000Y-50360000D02*
X64290000Y-48314000D01*
X64290000Y-54486000D02*
X64290000Y-52440000D01*
X64330000Y-50360000D02*
X64330000Y-48302000D01*
X64330000Y-54498000D02*
X64330000Y-52440000D01*
X64370000Y-50360000D02*
X64370000Y-48291000D01*
X64370000Y-54509000D02*
X64370000Y-52440000D01*
X64410000Y-50360000D02*
X64410000Y-48280000D01*
X64410000Y-54520000D02*
X64410000Y-52440000D01*
X64450000Y-50360000D02*
X64450000Y-48269000D01*
X64450000Y-54531000D02*
X64450000Y-52440000D01*
X64490000Y-50360000D02*
X64490000Y-48260000D01*
X64490000Y-54540000D02*
X64490000Y-52440000D01*
X64530000Y-50360000D02*
X64530000Y-48250000D01*
X64530000Y-54550000D02*
X64530000Y-52440000D01*
X64570000Y-50360000D02*
X64570000Y-48241000D01*
X64570000Y-54559000D02*
X64570000Y-52440000D01*
X64610000Y-50360000D02*
X64610000Y-48233000D01*
X64610000Y-54567000D02*
X64610000Y-52440000D01*
X64650000Y-50360000D02*
X64650000Y-48226000D01*
X64650000Y-54574000D02*
X64650000Y-52440000D01*
X64690000Y-50360000D02*
X64690000Y-48218000D01*
X64690000Y-54582000D02*
X64690000Y-52440000D01*
X64730000Y-50360000D02*
X64730000Y-48212000D01*
X64730000Y-54588000D02*
X64730000Y-52440000D01*
X64770000Y-50360000D02*
X64770000Y-48205000D01*
X64770000Y-54595000D02*
X64770000Y-52440000D01*
X64810000Y-50360000D02*
X64810000Y-48200000D01*
X64810000Y-54600000D02*
X64810000Y-52440000D01*
X64850000Y-50360000D02*
X64850000Y-48195000D01*
X64850000Y-54605000D02*
X64850000Y-52440000D01*
X64890000Y-50360000D02*
X64890000Y-48190000D01*
X64890000Y-54610000D02*
X64890000Y-52440000D01*
X64930000Y-50360000D02*
X64930000Y-48186000D01*
X64930000Y-54614000D02*
X64930000Y-52440000D01*
X64970000Y-50360000D02*
X64970000Y-48182000D01*
X64970000Y-54618000D02*
X64970000Y-52440000D01*
X65010000Y-50360000D02*
X65010000Y-48179000D01*
X65010000Y-54621000D02*
X65010000Y-52440000D01*
X65050000Y-54624000D02*
X65050000Y-48176000D01*
X65090000Y-54626000D02*
X65090000Y-48174000D01*
X65130000Y-54628000D02*
X65130000Y-48172000D01*
X65170000Y-54629000D02*
X65170000Y-48171000D01*
X65210000Y-54630000D02*
X65210000Y-48170000D01*
X65250000Y-54630000D02*
X65250000Y-48170000D01*
X68435241Y-53554000D02*
X68435241Y-52924000D01*
X68750241Y-53239000D02*
X68120241Y-53239000D01*
X68520000Y-51400000D02*
G75*
G02*
X61980000Y-51400000I-3270000J0D01*
G01*
X61980000Y-51400000D02*
G75*
G02*
X68520000Y-51400000I3270000J0D01*
G01*
%TO.C,U2*%
X47027620Y-56540000D02*
X47027620Y-74440000D01*
X47027620Y-74440000D02*
X51527620Y-74440000D01*
X48277620Y-56540000D02*
X47027620Y-56540000D01*
X51527620Y-56540000D02*
X50277620Y-56540000D01*
X51527620Y-74440000D02*
X51527620Y-56540000D01*
X44027620Y-56480000D02*
X54527620Y-56480000D01*
X54527620Y-74500000D01*
X44027620Y-74500000D01*
X44027620Y-56480000D01*
X50277620Y-56540000D02*
G75*
G02*
X48277620Y-56540000I-1000000J0D01*
G01*
%TO.C,D2*%
X21335000Y-96005000D02*
X21335000Y-99095000D01*
X21335000Y-96005170D02*
G75*
G02*
X26885000Y-97549952I2560000J-1544830D01*
G01*
X26885000Y-97550048D02*
G75*
G02*
X21335000Y-99094830I-2990000J48D01*
G01*
X26395000Y-97550000D02*
G75*
G02*
X21395000Y-97550000I-2500000J0D01*
G01*
X21395000Y-97550000D02*
G75*
G02*
X26395000Y-97550000I2500000J0D01*
G01*
%TO.C,C4*%
X68337620Y-98340000D02*
X68337620Y-103580000D01*
X68674620Y-98340000D02*
X68337620Y-98340000D01*
X68674620Y-103580000D02*
X68337620Y-103580000D01*
X71077620Y-98340000D02*
X70740620Y-98340000D01*
X71077620Y-98340000D02*
X71077620Y-103580000D01*
X71077620Y-103580000D02*
X70740620Y-103580000D01*
%TO.C,D5*%
X21470000Y-60205000D02*
X21470000Y-63295000D01*
X21470000Y-60205170D02*
G75*
G02*
X27020000Y-61749952I2560000J-1544830D01*
G01*
X27020000Y-61750048D02*
G75*
G02*
X21470000Y-63294830I-2990000J48D01*
G01*
X26530000Y-61750000D02*
G75*
G02*
X21530000Y-61750000I-2500000J0D01*
G01*
X21530000Y-61750000D02*
G75*
G02*
X26530000Y-61750000I2500000J0D01*
G01*
%TO.C,D1*%
X21220000Y-108705000D02*
X21220000Y-111795000D01*
X21220000Y-108705170D02*
G75*
G02*
X26770000Y-110249952I2560000J-1544830D01*
G01*
X26770000Y-110250048D02*
G75*
G02*
X21220000Y-111794830I-2990000J48D01*
G01*
X26280000Y-110250000D02*
G75*
G02*
X21280000Y-110250000I-2500000J0D01*
G01*
X21280000Y-110250000D02*
G75*
G02*
X26280000Y-110250000I2500000J0D01*
G01*
%TO.C,RV1*%
X30040000Y-45240000D02*
X46260000Y-45240000D01*
X30040000Y-52960000D02*
X30040000Y-45240000D01*
X30040000Y-52960000D02*
X46260000Y-52960000D01*
X34540000Y-40240000D02*
X41760000Y-40240000D01*
X34540000Y-45240000D02*
X34540000Y-40240000D01*
X34540000Y-45240000D02*
X41760000Y-45240000D01*
X36040000Y-30240000D02*
X40260000Y-30240000D01*
X36040000Y-40240000D02*
X36040000Y-30240000D01*
X36040000Y-40240000D02*
X40260000Y-40240000D01*
X40260000Y-40240000D02*
X40260000Y-30240000D01*
X41760000Y-45240000D02*
X41760000Y-40240000D01*
X46260000Y-52960000D02*
X46260000Y-45240000D01*
%TO.C,R2*%
X35697620Y-64160000D02*
X35697620Y-70700000D01*
X35697620Y-70700000D02*
X38437620Y-70700000D01*
X37067620Y-63390000D02*
X37067620Y-64160000D01*
X37067620Y-71470000D02*
X37067620Y-70700000D01*
X38437620Y-64160000D02*
X35697620Y-64160000D01*
X38437620Y-70700000D02*
X38437620Y-64160000D01*
D11*
%TO.C,SW1*%
X48722000Y-31222000D02*
X57358000Y-31222000D01*
X48722000Y-34778000D02*
X48722000Y-31222000D01*
X51262000Y-32238000D02*
X54818000Y-32238000D01*
X51262000Y-33000000D02*
X51262000Y-32238000D01*
X51262000Y-33762000D02*
X51262000Y-33000000D01*
X53802000Y-33762000D02*
X53802000Y-32238000D01*
X54818000Y-32238000D02*
X54818000Y-33000000D01*
X54818000Y-33000000D02*
X54818000Y-33762000D01*
X54818000Y-33762000D02*
X51262000Y-33762000D01*
X57358000Y-31222000D02*
X57358000Y-34778000D01*
X57358000Y-34778000D02*
X48722000Y-34778000D01*
D12*
%TO.C,C1*%
X62587620Y-78427000D02*
X62587620Y-78090000D01*
X62587620Y-80830000D02*
X62587620Y-80493000D01*
X67827620Y-78090000D02*
X62587620Y-78090000D01*
X67827620Y-78427000D02*
X67827620Y-78090000D01*
X67827620Y-80830000D02*
X62587620Y-80830000D01*
X67827620Y-80830000D02*
X67827620Y-80493000D01*
%TO.C,D7*%
X21470000Y-37255000D02*
X21470000Y-40345000D01*
X21470000Y-37255170D02*
G75*
G02*
X27020000Y-38799952I2560000J-1544830D01*
G01*
X27020000Y-38800048D02*
G75*
G02*
X21470000Y-40344830I-2990000J48D01*
G01*
X26530000Y-38800000D02*
G75*
G02*
X21530000Y-38800000I-2500000J0D01*
G01*
X21530000Y-38800000D02*
G75*
G02*
X26530000Y-38800000I2500000J0D01*
G01*
%TO.C,U3*%
X38157620Y-89780000D02*
X38157620Y-110220000D01*
X38157620Y-110220000D02*
X42657620Y-110220000D01*
X39407620Y-89780000D02*
X38157620Y-89780000D01*
X42657620Y-89780000D02*
X41407620Y-89780000D01*
X42657620Y-110220000D02*
X42657620Y-89780000D01*
X35157620Y-89720000D02*
X45657620Y-89720000D01*
X45657620Y-110280000D01*
X35157620Y-110280000D01*
X35157620Y-89720000D01*
X41407620Y-89780000D02*
G75*
G02*
X39407620Y-89780000I-1000000J0D01*
G01*
%TO.C,R7*%
X61180000Y-100430000D02*
X61180000Y-106970000D01*
X61180000Y-106970000D02*
X63920000Y-106970000D01*
X62550000Y-99660000D02*
X62550000Y-100430000D01*
X62550000Y-107740000D02*
X62550000Y-106970000D01*
X63920000Y-100430000D02*
X61180000Y-100430000D01*
X63920000Y-106970000D02*
X63920000Y-100430000D01*
%TO.C,D9*%
X78820000Y-46205000D02*
X78820000Y-49295000D01*
X78820000Y-46205170D02*
G75*
G02*
X84370000Y-47749952I2560000J-1544830D01*
G01*
X84370000Y-47750048D02*
G75*
G02*
X78820000Y-49294830I-2990000J48D01*
G01*
X83880000Y-47750000D02*
G75*
G02*
X78880000Y-47750000I-2500000J0D01*
G01*
X78880000Y-47750000D02*
G75*
G02*
X83880000Y-47750000I2500000J0D01*
G01*
%TO.C,D6*%
X21320000Y-48655000D02*
X21320000Y-51745000D01*
X21320000Y-48655170D02*
G75*
G02*
X26870000Y-50199952I2560000J-1544830D01*
G01*
X26870000Y-50200048D02*
G75*
G02*
X21320000Y-51744830I-2990000J48D01*
G01*
X26380000Y-50200000D02*
G75*
G02*
X21380000Y-50200000I-2500000J0D01*
G01*
X21380000Y-50200000D02*
G75*
G02*
X26380000Y-50200000I2500000J0D01*
G01*
%TO.C,D12*%
X58030000Y-43700000D02*
X60970000Y-43700000D01*
X58030000Y-43820000D02*
X60970000Y-43820000D01*
X58030000Y-43940000D02*
X60970000Y-43940000D01*
X59500000Y-38260000D02*
X59500000Y-39280000D01*
X59500000Y-45740000D02*
X59500000Y-44720000D01*
X58030000Y-44720000D02*
X60970000Y-44720000D01*
X60970000Y-39280000D01*
X58030000Y-39280000D01*
X58030000Y-44720000D01*
%TO.C,R3*%
X76087620Y-66940000D02*
X76087620Y-73480000D01*
X76087620Y-73480000D02*
X78827620Y-73480000D01*
X77457620Y-66170000D02*
X77457620Y-66940000D01*
X77457620Y-74250000D02*
X77457620Y-73480000D01*
X78827620Y-66940000D02*
X76087620Y-66940000D01*
X78827620Y-73480000D02*
X78827620Y-66940000D01*
%TO.C,C3*%
X47210000Y-82952000D02*
X47210000Y-82148000D01*
X47250000Y-83183000D02*
X47250000Y-81917000D01*
X47290000Y-83351000D02*
X47290000Y-81749000D01*
X47330000Y-83489000D02*
X47330000Y-81611000D01*
X47370000Y-83608000D02*
X47370000Y-81492000D01*
X47410000Y-83715000D02*
X47410000Y-81385000D01*
X47450000Y-83811000D02*
X47450000Y-81289000D01*
X47490000Y-83900000D02*
X47490000Y-81200000D01*
X47530000Y-83982000D02*
X47530000Y-81118000D01*
X47570000Y-84059000D02*
X47570000Y-81041000D01*
X47610000Y-84131000D02*
X47610000Y-80969000D01*
X47650000Y-84199000D02*
X47650000Y-80901000D01*
X47690000Y-84264000D02*
X47690000Y-80836000D01*
X47730000Y-84325000D02*
X47730000Y-80775000D01*
X47770000Y-84384000D02*
X47770000Y-80716000D01*
X47810000Y-84440000D02*
X47810000Y-80660000D01*
X47850000Y-84493000D02*
X47850000Y-80607000D01*
X47890000Y-84545000D02*
X47890000Y-80555000D01*
X47930000Y-84594000D02*
X47930000Y-80506000D01*
X47970000Y-84641000D02*
X47970000Y-80459000D01*
X48010000Y-84687000D02*
X48010000Y-80413000D01*
X48050000Y-84731000D02*
X48050000Y-80369000D01*
X48090000Y-84773000D02*
X48090000Y-80327000D01*
X48130000Y-84814000D02*
X48130000Y-80286000D01*
X48170000Y-81510000D02*
X48170000Y-80246000D01*
X48170000Y-84854000D02*
X48170000Y-83590000D01*
X48210000Y-81510000D02*
X48210000Y-80208000D01*
X48210000Y-84892000D02*
X48210000Y-83590000D01*
X48250000Y-81510000D02*
X48250000Y-80171000D01*
X48250000Y-84929000D02*
X48250000Y-83590000D01*
X48290000Y-81510000D02*
X48290000Y-80135000D01*
X48290000Y-84965000D02*
X48290000Y-83590000D01*
X48330000Y-81510000D02*
X48330000Y-80100000D01*
X48330000Y-85000000D02*
X48330000Y-83590000D01*
X48370000Y-81510000D02*
X48370000Y-80067000D01*
X48370000Y-85033000D02*
X48370000Y-83590000D01*
X48410000Y-81510000D02*
X48410000Y-80034000D01*
X48410000Y-85066000D02*
X48410000Y-83590000D01*
X48450000Y-81510000D02*
X48450000Y-80003000D01*
X48450000Y-85097000D02*
X48450000Y-83590000D01*
X48490000Y-81510000D02*
X48490000Y-79973000D01*
X48490000Y-85127000D02*
X48490000Y-83590000D01*
X48530000Y-81510000D02*
X48530000Y-79943000D01*
X48530000Y-85157000D02*
X48530000Y-83590000D01*
X48570000Y-81510000D02*
X48570000Y-79914000D01*
X48570000Y-85186000D02*
X48570000Y-83590000D01*
X48610000Y-81510000D02*
X48610000Y-79887000D01*
X48610000Y-85213000D02*
X48610000Y-83590000D01*
X48650000Y-81510000D02*
X48650000Y-79860000D01*
X48650000Y-85240000D02*
X48650000Y-83590000D01*
X48690000Y-81510000D02*
X48690000Y-79834000D01*
X48690000Y-85266000D02*
X48690000Y-83590000D01*
X48730000Y-81510000D02*
X48730000Y-79809000D01*
X48730000Y-85291000D02*
X48730000Y-83590000D01*
X48770000Y-81510000D02*
X48770000Y-79785000D01*
X48770000Y-85315000D02*
X48770000Y-83590000D01*
X48810000Y-81510000D02*
X48810000Y-79761000D01*
X48810000Y-85339000D02*
X48810000Y-83590000D01*
X48850000Y-81510000D02*
X48850000Y-79738000D01*
X48850000Y-85362000D02*
X48850000Y-83590000D01*
X48890000Y-81510000D02*
X48890000Y-79716000D01*
X48890000Y-85384000D02*
X48890000Y-83590000D01*
X48930000Y-81510000D02*
X48930000Y-79695000D01*
X48930000Y-85405000D02*
X48930000Y-83590000D01*
X48970000Y-81510000D02*
X48970000Y-79674000D01*
X48970000Y-85426000D02*
X48970000Y-83590000D01*
X49010000Y-81510000D02*
X49010000Y-79654000D01*
X49010000Y-85446000D02*
X49010000Y-83590000D01*
X49050000Y-81510000D02*
X49050000Y-79635000D01*
X49050000Y-85465000D02*
X49050000Y-83590000D01*
X49090000Y-81510000D02*
X49090000Y-79616000D01*
X49090000Y-85484000D02*
X49090000Y-83590000D01*
X49130000Y-81510000D02*
X49130000Y-79598000D01*
X49130000Y-85502000D02*
X49130000Y-83590000D01*
X49170000Y-81510000D02*
X49170000Y-79581000D01*
X49170000Y-85519000D02*
X49170000Y-83590000D01*
X49210000Y-81510000D02*
X49210000Y-79564000D01*
X49210000Y-85536000D02*
X49210000Y-83590000D01*
X49250000Y-81510000D02*
X49250000Y-79548000D01*
X49250000Y-85552000D02*
X49250000Y-83590000D01*
X49290000Y-81510000D02*
X49290000Y-79533000D01*
X49290000Y-85567000D02*
X49290000Y-83590000D01*
X49330000Y-81510000D02*
X49330000Y-79518000D01*
X49330000Y-85582000D02*
X49330000Y-83590000D01*
X49370000Y-81510000D02*
X49370000Y-79503000D01*
X49370000Y-85597000D02*
X49370000Y-83590000D01*
X49410000Y-81510000D02*
X49410000Y-79490000D01*
X49410000Y-85610000D02*
X49410000Y-83590000D01*
X49450000Y-81510000D02*
X49450000Y-79477000D01*
X49450000Y-85623000D02*
X49450000Y-83590000D01*
X49490000Y-81510000D02*
X49490000Y-79464000D01*
X49490000Y-85636000D02*
X49490000Y-83590000D01*
X49530000Y-81510000D02*
X49530000Y-79452000D01*
X49530000Y-85648000D02*
X49530000Y-83590000D01*
X49570000Y-81510000D02*
X49570000Y-79441000D01*
X49570000Y-85659000D02*
X49570000Y-83590000D01*
X49610000Y-81510000D02*
X49610000Y-79430000D01*
X49610000Y-85670000D02*
X49610000Y-83590000D01*
X49650000Y-81510000D02*
X49650000Y-79419000D01*
X49650000Y-85681000D02*
X49650000Y-83590000D01*
X49690000Y-81510000D02*
X49690000Y-79410000D01*
X49690000Y-85690000D02*
X49690000Y-83590000D01*
X49730000Y-81510000D02*
X49730000Y-79400000D01*
X49730000Y-85700000D02*
X49730000Y-83590000D01*
X49770000Y-81510000D02*
X49770000Y-79391000D01*
X49770000Y-85709000D02*
X49770000Y-83590000D01*
X49810000Y-81510000D02*
X49810000Y-79383000D01*
X49810000Y-85717000D02*
X49810000Y-83590000D01*
X49850000Y-81510000D02*
X49850000Y-79376000D01*
X49850000Y-85724000D02*
X49850000Y-83590000D01*
X49890000Y-81510000D02*
X49890000Y-79368000D01*
X49890000Y-85732000D02*
X49890000Y-83590000D01*
X49930000Y-81510000D02*
X49930000Y-79362000D01*
X49930000Y-85738000D02*
X49930000Y-83590000D01*
X49970000Y-81510000D02*
X49970000Y-79355000D01*
X49970000Y-85745000D02*
X49970000Y-83590000D01*
X50010000Y-81510000D02*
X50010000Y-79350000D01*
X50010000Y-85750000D02*
X50010000Y-83590000D01*
X50050000Y-81510000D02*
X50050000Y-79345000D01*
X50050000Y-85755000D02*
X50050000Y-83590000D01*
X50090000Y-81510000D02*
X50090000Y-79340000D01*
X50090000Y-85760000D02*
X50090000Y-83590000D01*
X50130000Y-81510000D02*
X50130000Y-79336000D01*
X50130000Y-85764000D02*
X50130000Y-83590000D01*
X50170000Y-81510000D02*
X50170000Y-79332000D01*
X50170000Y-85768000D02*
X50170000Y-83590000D01*
X50210000Y-81510000D02*
X50210000Y-79329000D01*
X50210000Y-85771000D02*
X50210000Y-83590000D01*
X50250000Y-85774000D02*
X50250000Y-79326000D01*
X50290000Y-85776000D02*
X50290000Y-79324000D01*
X50330000Y-85778000D02*
X50330000Y-79322000D01*
X50370000Y-85779000D02*
X50370000Y-79321000D01*
X50410000Y-85780000D02*
X50410000Y-79320000D01*
X50450000Y-85780000D02*
X50450000Y-79320000D01*
X53635241Y-84704000D02*
X53635241Y-84074000D01*
X53950241Y-84389000D02*
X53320241Y-84389000D01*
X53720000Y-82550000D02*
G75*
G02*
X47180000Y-82550000I-3270000J0D01*
G01*
X47180000Y-82550000D02*
G75*
G02*
X53720000Y-82550000I3270000J0D01*
G01*
%TD*%
M02*
