%TF.GenerationSoftware,KiCad,Pcbnew,9.0.2*%
%TF.CreationDate,2025-06-20T16:00:47-04:00*%
%TF.ProjectId,proj02-g05,70726f6a-3032-42d6-9730-352e6b696361,rev?*%
%TF.SameCoordinates,Original*%
%TF.FileFunction,Soldermask,Top*%
%TF.FilePolarity,Negative*%
%FSLAX46Y46*%
G04 Gerber Fmt 4.6, Leading zero omitted, Abs format (unit mm)*
G04 Created by KiCad (PCBNEW 9.0.2) date 2025-06-20 16:00:47*
%MOMM*%
%LPD*%
G01*
G04 APERTURE LIST*
G04 Aperture macros list*
%AMRoundRect*
0 Rectangle with rounded corners*
0 $1 Rounding radius*
0 $2 $3 $4 $5 $6 $7 $8 $9 X,Y pos of 4 corners*
0 Add a 4 corners polygon primitive as box body*
4,1,4,$2,$3,$4,$5,$6,$7,$8,$9,$2,$3,0*
0 Add four circle primitives for the rounded corners*
1,1,$1+$1,$2,$3*
1,1,$1+$1,$4,$5*
1,1,$1+$1,$6,$7*
1,1,$1+$1,$8,$9*
0 Add four rect primitives between the rounded corners*
20,1,$1+$1,$2,$3,$4,$5,0*
20,1,$1+$1,$4,$5,$6,$7,0*
20,1,$1+$1,$6,$7,$8,$9,0*
20,1,$1+$1,$8,$9,$2,$3,0*%
G04 Aperture macros list end*
%ADD10C,3.200000*%
%ADD11R,1.800000X1.800000*%
%ADD12C,1.800000*%
%ADD13C,1.600000*%
%ADD14O,1.600000X1.600000*%
%ADD15RoundRect,0.250001X1.149999X1.149999X-1.149999X1.149999X-1.149999X-1.149999X1.149999X-1.149999X0*%
%ADD16C,2.800000*%
%ADD17RoundRect,0.250000X-0.950000X-0.550000X0.950000X-0.550000X0.950000X0.550000X-0.950000X0.550000X0*%
%ADD18O,2.400000X1.600000*%
%ADD19C,1.500000*%
%ADD20R,1.600000X1.600000*%
%ADD21C,2.340000*%
%ADD22R,1.500000X1.500000*%
%ADD23RoundRect,0.249999X0.850001X-0.850001X0.850001X0.850001X-0.850001X0.850001X-0.850001X-0.850001X0*%
%ADD24C,2.200000*%
G04 APERTURE END LIST*
D10*
%TO.C,H1*%
X50000000Y-48500000D03*
%TD*%
D11*
%TO.C,D4*%
X22510000Y-72900000D03*
D12*
X25050000Y-72900000D03*
%TD*%
D13*
%TO.C,R4*%
X77457620Y-82380000D03*
D14*
X77457620Y-92540000D03*
%TD*%
D15*
%TO.C,J1*%
X72500000Y-33000000D03*
D16*
X67500000Y-33000000D03*
%TD*%
D17*
%TO.C,U4*%
X61647620Y-85150000D03*
D18*
X61647620Y-87690000D03*
X61647620Y-90230000D03*
X61647620Y-92770000D03*
X69267620Y-92770000D03*
X69267620Y-90230000D03*
X69267620Y-87690000D03*
X69267620Y-85150000D03*
%TD*%
D19*
%TO.C,R1*%
X35717620Y-81000000D03*
X39117620Y-81000000D03*
%TD*%
D13*
%TO.C,R6*%
X54667620Y-98570000D03*
D14*
X54667620Y-108730000D03*
%TD*%
D11*
%TO.C,D3*%
X22600000Y-85450000D03*
D12*
X25140000Y-85450000D03*
%TD*%
D17*
%TO.C,U1*%
X61447620Y-65400000D03*
D18*
X61447620Y-67940000D03*
X61447620Y-70480000D03*
X61447620Y-73020000D03*
X69067620Y-73020000D03*
X69067620Y-70480000D03*
X69067620Y-67940000D03*
X69067620Y-65400000D03*
%TD*%
D11*
%TO.C,D8*%
X80075000Y-36100000D03*
D12*
X82615000Y-36100000D03*
%TD*%
D13*
%TO.C,R5*%
X77207620Y-98880000D03*
D14*
X77207620Y-109040000D03*
%TD*%
D11*
%TO.C,D10*%
X79900000Y-58400000D03*
D12*
X82440000Y-58400000D03*
%TD*%
D20*
%TO.C,C2*%
X66500000Y-51400000D03*
D13*
X64000000Y-51400000D03*
%TD*%
D17*
%TO.C,U2*%
X45467620Y-57870000D03*
D18*
X45467620Y-60410000D03*
X45467620Y-62950000D03*
X45467620Y-65490000D03*
X45467620Y-68030000D03*
X45467620Y-70570000D03*
X45467620Y-73110000D03*
X53087620Y-73110000D03*
X53087620Y-70570000D03*
X53087620Y-68030000D03*
X53087620Y-65490000D03*
X53087620Y-62950000D03*
X53087620Y-60410000D03*
X53087620Y-57870000D03*
%TD*%
D11*
%TO.C,D2*%
X22625000Y-97550000D03*
D12*
X25165000Y-97550000D03*
%TD*%
D13*
%TO.C,C4*%
X69707620Y-98460000D03*
X69707620Y-103460000D03*
%TD*%
D11*
%TO.C,D5*%
X22760000Y-61750000D03*
D12*
X25300000Y-61750000D03*
%TD*%
D10*
%TO.C,H2*%
X50000000Y-91000000D03*
%TD*%
D11*
%TO.C,D1*%
X22510000Y-110250000D03*
D12*
X25050000Y-110250000D03*
%TD*%
D21*
%TO.C,RV1*%
X43150000Y-46850000D03*
X38150000Y-46850000D03*
X33150000Y-46850000D03*
%TD*%
D13*
%TO.C,R2*%
X37067620Y-72510000D03*
D14*
X37067620Y-62350000D03*
%TD*%
D22*
%TO.C,SW1*%
X55580000Y-33000000D03*
X53040000Y-33000000D03*
X50500000Y-33000000D03*
%TD*%
D13*
%TO.C,C1*%
X67707620Y-79460000D03*
X62707620Y-79460000D03*
%TD*%
D11*
%TO.C,D7*%
X22760000Y-38800000D03*
D12*
X25300000Y-38800000D03*
%TD*%
D17*
%TO.C,U3*%
X36597620Y-91110000D03*
D18*
X36597620Y-93650000D03*
X36597620Y-96190000D03*
X36597620Y-98730000D03*
X36597620Y-101270000D03*
X36597620Y-103810000D03*
X36597620Y-106350000D03*
X36597620Y-108890000D03*
X44217620Y-108890000D03*
X44217620Y-106350000D03*
X44217620Y-103810000D03*
X44217620Y-101270000D03*
X44217620Y-98730000D03*
X44217620Y-96190000D03*
X44217620Y-93650000D03*
X44217620Y-91110000D03*
%TD*%
D13*
%TO.C,R7*%
X62550000Y-108780000D03*
D14*
X62550000Y-98620000D03*
%TD*%
D11*
%TO.C,D9*%
X80110000Y-47750000D03*
D12*
X82650000Y-47750000D03*
%TD*%
D11*
%TO.C,D6*%
X22610000Y-50200000D03*
D12*
X25150000Y-50200000D03*
%TD*%
D23*
%TO.C,D12*%
X59500000Y-47080000D03*
D24*
X59500000Y-36920000D03*
%TD*%
D13*
%TO.C,R3*%
X77457620Y-75290000D03*
D14*
X77457620Y-65130000D03*
%TD*%
D20*
%TO.C,C3*%
X51700000Y-82550000D03*
D13*
X49200000Y-82550000D03*
%TD*%
M02*
