%TF.GenerationSoftware,KiCad,Pcbnew,9.0.2*%
%TF.CreationDate,2025-06-20T16:00:47-04:00*%
%TF.ProjectId,proj02-g05,70726f6a-3032-42d6-9730-352e6b696361,rev?*%
%TF.SameCoordinates,Original*%
%TF.FileFunction,Copper,L2,Bot*%
%TF.FilePolarity,Positive*%
%FSLAX46Y46*%
G04 Gerber Fmt 4.6, Leading zero omitted, Abs format (unit mm)*
G04 Created by KiCad (PCBNEW 9.0.2) date 2025-06-20 16:00:47*
%MOMM*%
%LPD*%
G01*
G04 APERTURE LIST*
G04 Aperture macros list*
%AMRoundRect*
0 Rectangle with rounded corners*
0 $1 Rounding radius*
0 $2 $3 $4 $5 $6 $7 $8 $9 X,Y pos of 4 corners*
0 Add a 4 corners polygon primitive as box body*
4,1,4,$2,$3,$4,$5,$6,$7,$8,$9,$2,$3,0*
0 Add four circle primitives for the rounded corners*
1,1,$1+$1,$2,$3*
1,1,$1+$1,$4,$5*
1,1,$1+$1,$6,$7*
1,1,$1+$1,$8,$9*
0 Add four rect primitives between the rounded corners*
20,1,$1+$1,$2,$3,$4,$5,0*
20,1,$1+$1,$4,$5,$6,$7,0*
20,1,$1+$1,$6,$7,$8,$9,0*
20,1,$1+$1,$8,$9,$2,$3,0*%
G04 Aperture macros list end*
%TA.AperFunction,ComponentPad*%
%ADD10R,1.800000X1.800000*%
%TD*%
%TA.AperFunction,ComponentPad*%
%ADD11C,1.800000*%
%TD*%
%TA.AperFunction,ComponentPad*%
%ADD12C,1.600000*%
%TD*%
%TA.AperFunction,ComponentPad*%
%ADD13O,1.600000X1.600000*%
%TD*%
%TA.AperFunction,ComponentPad*%
%ADD14RoundRect,0.250001X1.149999X1.149999X-1.149999X1.149999X-1.149999X-1.149999X1.149999X-1.149999X0*%
%TD*%
%TA.AperFunction,ComponentPad*%
%ADD15C,2.800000*%
%TD*%
%TA.AperFunction,ComponentPad*%
%ADD16RoundRect,0.250000X-0.950000X-0.550000X0.950000X-0.550000X0.950000X0.550000X-0.950000X0.550000X0*%
%TD*%
%TA.AperFunction,ComponentPad*%
%ADD17O,2.400000X1.600000*%
%TD*%
%TA.AperFunction,ComponentPad*%
%ADD18C,1.500000*%
%TD*%
%TA.AperFunction,ComponentPad*%
%ADD19R,1.600000X1.600000*%
%TD*%
%TA.AperFunction,ComponentPad*%
%ADD20C,2.340000*%
%TD*%
%TA.AperFunction,ComponentPad*%
%ADD21R,1.500000X1.500000*%
%TD*%
%TA.AperFunction,ComponentPad*%
%ADD22RoundRect,0.249999X0.850001X-0.850001X0.850001X0.850001X-0.850001X0.850001X-0.850001X-0.850001X0*%
%TD*%
%TA.AperFunction,ComponentPad*%
%ADD23C,2.200000*%
%TD*%
%TA.AperFunction,ViaPad*%
%ADD24C,0.900000*%
%TD*%
%TA.AperFunction,Conductor*%
%ADD25C,0.500000*%
%TD*%
G04 APERTURE END LIST*
D10*
%TO.P,D4,1,K*%
%TO.N,Net-(D1-K)*%
X22510000Y-72900000D03*
D11*
%TO.P,D4,2,A*%
%TO.N,Net-(D4-A)*%
X25050000Y-72900000D03*
%TD*%
D12*
%TO.P,R4,1*%
%TO.N,+9V*%
X77457620Y-82380000D03*
D13*
%TO.P,R4,2*%
%TO.N,Net-(U4-DIS)*%
X77457620Y-92540000D03*
%TD*%
D14*
%TO.P,J1,1,Pin_1*%
%TO.N,GND*%
X72500000Y-33000000D03*
D15*
%TO.P,J1,2,Pin_2*%
%TO.N,Net-(D12-A)*%
X67500000Y-33000000D03*
%TD*%
D16*
%TO.P,U4,1,GND*%
%TO.N,GND*%
X61647620Y-85150000D03*
D17*
%TO.P,U4,2,TR*%
%TO.N,Net-(U4-THR)*%
X61647620Y-87690000D03*
%TO.P,U4,3,Q*%
%TO.N,Net-(U3-CLK)*%
X61647620Y-90230000D03*
%TO.P,U4,4,R*%
%TO.N,Net-(U1-Q)*%
X61647620Y-92770000D03*
%TO.P,U4,5,CV*%
%TO.N,Net-(U4-CV)*%
X69267620Y-92770000D03*
%TO.P,U4,6,THR*%
%TO.N,Net-(U4-THR)*%
X69267620Y-90230000D03*
%TO.P,U4,7,DIS*%
%TO.N,Net-(U4-DIS)*%
X69267620Y-87690000D03*
%TO.P,U4,8,VCC*%
%TO.N,+9V*%
X69267620Y-85150000D03*
%TD*%
D18*
%TO.P,R1,1*%
%TO.N,+9V*%
X35717620Y-81000000D03*
%TO.P,R1,2*%
%TO.N,Net-(U2A-+)*%
X39117620Y-81000000D03*
%TD*%
D12*
%TO.P,R6,1*%
%TO.N,Net-(U3-CKEN)*%
X54667620Y-98570000D03*
D13*
%TO.P,R6,2*%
%TO.N,GND*%
X54667620Y-108730000D03*
%TD*%
D10*
%TO.P,D3,1,K*%
%TO.N,Net-(D1-K)*%
X22600000Y-85450000D03*
D11*
%TO.P,D3,2,A*%
%TO.N,Net-(D3-A)*%
X25140000Y-85450000D03*
%TD*%
D16*
%TO.P,U1,1,GND*%
%TO.N,GND*%
X61447620Y-65400000D03*
D17*
%TO.P,U1,2,TR*%
%TO.N,Net-(U1-TR)*%
X61447620Y-67940000D03*
%TO.P,U1,3,Q*%
%TO.N,Net-(U1-Q)*%
X61447620Y-70480000D03*
%TO.P,U1,4,R*%
%TO.N,+9V*%
X61447620Y-73020000D03*
%TO.P,U1,5,CV*%
%TO.N,Net-(U1-CV)*%
X69067620Y-73020000D03*
%TO.P,U1,6,THR*%
%TO.N,Net-(U1-DIS)*%
X69067620Y-70480000D03*
%TO.P,U1,7,DIS*%
X69067620Y-67940000D03*
%TO.P,U1,8,VCC*%
%TO.N,+9V*%
X69067620Y-65400000D03*
%TD*%
D10*
%TO.P,D8,1,K*%
%TO.N,Net-(D1-K)*%
X80075000Y-36100000D03*
D11*
%TO.P,D8,2,A*%
%TO.N,Net-(D8-A)*%
X82615000Y-36100000D03*
%TD*%
D12*
%TO.P,R5,1*%
%TO.N,Net-(U4-DIS)*%
X77207620Y-98880000D03*
D13*
%TO.P,R5,2*%
%TO.N,Net-(U4-THR)*%
X77207620Y-109040000D03*
%TD*%
D10*
%TO.P,D10,1,K*%
%TO.N,Net-(D1-K)*%
X79900000Y-58400000D03*
D11*
%TO.P,D10,2,A*%
%TO.N,Net-(D10-A)*%
X82440000Y-58400000D03*
%TD*%
D19*
%TO.P,C2,1*%
%TO.N,Net-(U1-DIS)*%
X66500000Y-51400000D03*
D12*
%TO.P,C2,2*%
%TO.N,GND*%
X64000000Y-51400000D03*
%TD*%
D16*
%TO.P,U2,1*%
%TO.N,Net-(U1-TR)*%
X45467620Y-57870000D03*
D17*
%TO.P,U2,2,-*%
%TO.N,Net-(U2A--)*%
X45467620Y-60410000D03*
%TO.P,U2,3,+*%
%TO.N,Net-(U2A-+)*%
X45467620Y-62950000D03*
%TO.P,U2,4*%
%TO.N,N/C*%
X45467620Y-65490000D03*
%TO.P,U2,5*%
X45467620Y-68030000D03*
%TO.P,U2,6*%
X45467620Y-70570000D03*
%TO.P,U2,7*%
X45467620Y-73110000D03*
%TO.P,U2,8*%
X53087620Y-73110000D03*
%TO.P,U2,9*%
X53087620Y-70570000D03*
%TO.P,U2,10*%
X53087620Y-68030000D03*
%TO.P,U2,11*%
X53087620Y-65490000D03*
%TO.P,U2,12*%
X53087620Y-62950000D03*
%TO.P,U2,13*%
X53087620Y-60410000D03*
%TO.P,U2,14*%
X53087620Y-57870000D03*
%TD*%
D10*
%TO.P,D2,1,K*%
%TO.N,Net-(D1-K)*%
X22625000Y-97550000D03*
D11*
%TO.P,D2,2,A*%
%TO.N,Net-(D2-A)*%
X25165000Y-97550000D03*
%TD*%
D12*
%TO.P,C4,1*%
%TO.N,Net-(U4-CV)*%
X69707620Y-98460000D03*
%TO.P,C4,2*%
%TO.N,GND*%
X69707620Y-103460000D03*
%TD*%
D10*
%TO.P,D5,1,K*%
%TO.N,Net-(D1-K)*%
X22760000Y-61750000D03*
D11*
%TO.P,D5,2,A*%
%TO.N,Net-(D5-A)*%
X25300000Y-61750000D03*
%TD*%
D10*
%TO.P,D1,1,K*%
%TO.N,Net-(D1-K)*%
X22510000Y-110250000D03*
D11*
%TO.P,D1,2,A*%
%TO.N,Net-(D1-A)*%
X25050000Y-110250000D03*
%TD*%
D20*
%TO.P,RV1,1,1*%
%TO.N,+9V*%
X43150000Y-46850000D03*
%TO.P,RV1,2,2*%
%TO.N,Net-(U2A--)*%
X38150000Y-46850000D03*
%TO.P,RV1,3,3*%
%TO.N,GND*%
X33150000Y-46850000D03*
%TD*%
D12*
%TO.P,R2,1*%
%TO.N,GND*%
X37067620Y-72510000D03*
D13*
%TO.P,R2,2*%
%TO.N,Net-(U2A-+)*%
X37067620Y-62350000D03*
%TD*%
D21*
%TO.P,SW1,1,A*%
%TO.N,unconnected-(SW1-A-Pad1)*%
X55580000Y-33000000D03*
%TO.P,SW1,2,B*%
%TO.N,Net-(D12-K)*%
X53040000Y-33000000D03*
%TO.P,SW1,3,C*%
%TO.N,+9V*%
X50500000Y-33000000D03*
%TD*%
D12*
%TO.P,C1,1*%
%TO.N,Net-(U1-CV)*%
X67707620Y-79460000D03*
%TO.P,C1,2*%
%TO.N,GND*%
X62707620Y-79460000D03*
%TD*%
D10*
%TO.P,D7,1,K*%
%TO.N,Net-(D1-K)*%
X22760000Y-38800000D03*
D11*
%TO.P,D7,2,A*%
%TO.N,Net-(D7-A)*%
X25300000Y-38800000D03*
%TD*%
D16*
%TO.P,U3,1,Q5*%
%TO.N,Net-(D6-A)*%
X36597620Y-91110000D03*
D17*
%TO.P,U3,2,Q1*%
%TO.N,Net-(D2-A)*%
X36597620Y-93650000D03*
%TO.P,U3,3,Q0*%
%TO.N,Net-(D1-A)*%
X36597620Y-96190000D03*
%TO.P,U3,4,Q2*%
%TO.N,Net-(D3-A)*%
X36597620Y-98730000D03*
%TO.P,U3,5,Q6*%
%TO.N,Net-(D7-A)*%
X36597620Y-101270000D03*
%TO.P,U3,6,Q7*%
%TO.N,Net-(D8-A)*%
X36597620Y-103810000D03*
%TO.P,U3,7,Q3*%
%TO.N,Net-(D4-A)*%
X36597620Y-106350000D03*
%TO.P,U3,8,VSS*%
%TO.N,GND*%
X36597620Y-108890000D03*
%TO.P,U3,9,Q8*%
%TO.N,Net-(D9-A)*%
X44217620Y-108890000D03*
%TO.P,U3,10,Q4*%
%TO.N,Net-(D5-A)*%
X44217620Y-106350000D03*
%TO.P,U3,11,Q9*%
%TO.N,Net-(D10-A)*%
X44217620Y-103810000D03*
%TO.P,U3,12,Cout*%
%TO.N,unconnected-(U3-Cout-Pad12)*%
X44217620Y-101270000D03*
%TO.P,U3,13,CKEN*%
%TO.N,Net-(U3-CKEN)*%
X44217620Y-98730000D03*
%TO.P,U3,14,CLK*%
%TO.N,Net-(U3-CLK)*%
X44217620Y-96190000D03*
%TO.P,U3,15,Reset*%
%TO.N,GND*%
X44217620Y-93650000D03*
%TO.P,U3,16,VDD*%
%TO.N,+9V*%
X44217620Y-91110000D03*
%TD*%
D12*
%TO.P,R7,1*%
%TO.N,Net-(D1-K)*%
X62550000Y-108780000D03*
D13*
%TO.P,R7,2*%
%TO.N,GND*%
X62550000Y-98620000D03*
%TD*%
D10*
%TO.P,D9,1,K*%
%TO.N,Net-(D1-K)*%
X80110000Y-47750000D03*
D11*
%TO.P,D9,2,A*%
%TO.N,Net-(D9-A)*%
X82650000Y-47750000D03*
%TD*%
D10*
%TO.P,D6,1,K*%
%TO.N,Net-(D1-K)*%
X22610000Y-50200000D03*
D11*
%TO.P,D6,2,A*%
%TO.N,Net-(D6-A)*%
X25150000Y-50200000D03*
%TD*%
D22*
%TO.P,D12,1,K*%
%TO.N,Net-(D12-K)*%
X59500000Y-47080000D03*
D23*
%TO.P,D12,2,A*%
%TO.N,Net-(D12-A)*%
X59500000Y-36920000D03*
%TD*%
D12*
%TO.P,R3,1*%
%TO.N,+9V*%
X77457620Y-75290000D03*
D13*
%TO.P,R3,2*%
%TO.N,Net-(U1-DIS)*%
X77457620Y-65130000D03*
%TD*%
D19*
%TO.P,C3,1*%
%TO.N,Net-(U4-THR)*%
X51700000Y-82550000D03*
D12*
%TO.P,C3,2*%
%TO.N,GND*%
X49200000Y-82550000D03*
%TD*%
D24*
%TO.N,Net-(D6-A)*%
X33000000Y-89500000D03*
X33000000Y-83500000D03*
%TO.N,Net-(D7-A)*%
X31500000Y-80000000D03*
X33030207Y-101030207D03*
%TO.N,Net-(D1-K)*%
X29500000Y-114500000D03*
X54500000Y-112500000D03*
%TO.N,Net-(U1-Q)*%
X65500000Y-89500000D03*
X65500000Y-85500000D03*
%TD*%
D25*
%TO.N,Net-(U1-CV)*%
X67707620Y-74380000D02*
X69067620Y-73020000D01*
X67707620Y-79460000D02*
X67707620Y-74380000D01*
%TO.N,Net-(U1-DIS)*%
X66500000Y-51400000D02*
X70718620Y-55618620D01*
X75370000Y-65130000D02*
X72500000Y-68000000D01*
X77457620Y-65130000D02*
X75370000Y-65130000D01*
X70718620Y-66289000D02*
X69067620Y-67940000D01*
X72440000Y-67940000D02*
X69067620Y-67940000D01*
X72500000Y-68000000D02*
X72440000Y-67940000D01*
X70718620Y-55618620D02*
X70718620Y-66289000D01*
X69067620Y-67940000D02*
X69067620Y-70480000D01*
%TO.N,Net-(U4-THR)*%
X66727620Y-87690000D02*
X69267620Y-90230000D01*
X61647620Y-87690000D02*
X66727620Y-87690000D01*
X75540000Y-109040000D02*
X77207620Y-109040000D01*
X73500000Y-94462380D02*
X73500000Y-107000000D01*
X56507620Y-82550000D02*
X61647620Y-87690000D01*
X51700000Y-82550000D02*
X56507620Y-82550000D01*
X69267620Y-90230000D02*
X73500000Y-94462380D01*
X73500000Y-107000000D02*
X75540000Y-109040000D01*
%TO.N,Net-(U4-CV)*%
X69707620Y-98460000D02*
X69707620Y-93210000D01*
X69707620Y-93210000D02*
X69267620Y-92770000D01*
%TO.N,Net-(D2-A)*%
X32697620Y-97550000D02*
X36597620Y-93650000D01*
X25165000Y-97550000D02*
X32697620Y-97550000D01*
%TO.N,Net-(D1-A)*%
X25050000Y-110250000D02*
X25050000Y-107737620D01*
X25050000Y-107737620D02*
X36597620Y-96190000D01*
%TO.N,Net-(D3-A)*%
X32089000Y-92399000D02*
X37515801Y-92399000D01*
X38248620Y-97079000D02*
X36597620Y-98730000D01*
X37515801Y-92399000D02*
X38248620Y-93131819D01*
X38248620Y-93131819D02*
X38248620Y-97079000D01*
X25140000Y-85450000D02*
X32089000Y-92399000D01*
%TO.N,Net-(D4-A)*%
X38949620Y-90963708D02*
X38949620Y-103998000D01*
X25050000Y-72900000D02*
X25050000Y-79550000D01*
X25050000Y-79550000D02*
X33500000Y-88000000D01*
X33500000Y-88000000D02*
X35985912Y-88000000D01*
X38949620Y-103998000D02*
X36597620Y-106350000D01*
X35985912Y-88000000D02*
X38949620Y-90963708D01*
%TO.N,Net-(D5-A)*%
X28500000Y-64950000D02*
X28500000Y-81000000D01*
X40000000Y-90500000D02*
X40000000Y-102132380D01*
X34500000Y-87000000D02*
X36500000Y-87000000D01*
X36500000Y-87000000D02*
X40000000Y-90500000D01*
X28500000Y-81000000D02*
X34500000Y-87000000D01*
X25300000Y-61750000D02*
X28500000Y-64950000D01*
X40000000Y-102132380D02*
X44217620Y-106350000D01*
%TO.N,Net-(D6-A)*%
X33000000Y-89500000D02*
X34987620Y-89500000D01*
X25150000Y-50200000D02*
X30000000Y-55050000D01*
X34987620Y-89500000D02*
X36597620Y-91110000D01*
X30000000Y-80500000D02*
X33000000Y-83500000D01*
X30000000Y-55050000D02*
X30000000Y-80500000D01*
%TO.N,Net-(D7-A)*%
X25300000Y-48300000D02*
X29000000Y-52000000D01*
X25300000Y-38800000D02*
X25300000Y-48300000D01*
X36357827Y-101030207D02*
X36597620Y-101270000D01*
X31500000Y-54500000D02*
X31500000Y-80000000D01*
X29000000Y-52000000D02*
X31500000Y-54500000D01*
X33030207Y-101030207D02*
X36357827Y-101030207D01*
%TO.N,Net-(D8-A)*%
X86000000Y-113000000D02*
X83500000Y-115500000D01*
X86000000Y-39485000D02*
X86000000Y-113000000D01*
X82615000Y-36100000D02*
X86000000Y-39485000D01*
X83500000Y-115500000D02*
X30500000Y-115500000D01*
X30500000Y-109907620D02*
X36597620Y-103810000D01*
X30500000Y-115500000D02*
X30500000Y-109907620D01*
%TO.N,Net-(D9-A)*%
X82650000Y-47750000D02*
X85000000Y-50100000D01*
X49827620Y-114500000D02*
X44217620Y-108890000D01*
X83000000Y-114500000D02*
X49827620Y-114500000D01*
X85000000Y-112500000D02*
X83000000Y-114500000D01*
X85000000Y-50100000D02*
X85000000Y-112500000D01*
%TO.N,Net-(D10-A)*%
X44217620Y-104180819D02*
X44217620Y-103810000D01*
X82440000Y-58400000D02*
X84000000Y-59960000D01*
X82500000Y-113500000D02*
X53536801Y-113500000D01*
X53536801Y-113500000D02*
X44217620Y-104180819D01*
X84000000Y-59960000D02*
X84000000Y-112000000D01*
X84000000Y-112000000D02*
X82500000Y-113500000D01*
%TO.N,Net-(D1-K)*%
X62550000Y-111450000D02*
X61500000Y-112500000D01*
X78000000Y-30000000D02*
X80075000Y-32075000D01*
X26760000Y-114500000D02*
X22510000Y-110250000D01*
X22600000Y-72990000D02*
X22510000Y-72900000D01*
X22510000Y-110250000D02*
X22510000Y-97665000D01*
X29500000Y-114500000D02*
X26760000Y-114500000D01*
X80075000Y-47715000D02*
X80110000Y-47750000D01*
X22510000Y-62000000D02*
X22760000Y-61750000D01*
X22625000Y-97550000D02*
X22625000Y-85475000D01*
X31560000Y-30000000D02*
X78000000Y-30000000D01*
X61500000Y-112500000D02*
X54500000Y-112500000D01*
X80075000Y-32075000D02*
X80075000Y-36100000D01*
X62550000Y-108780000D02*
X62550000Y-111450000D01*
X22600000Y-85450000D02*
X22600000Y-72990000D01*
X80075000Y-36100000D02*
X80075000Y-47715000D01*
X22760000Y-38800000D02*
X22760000Y-50050000D01*
X22760000Y-38800000D02*
X31560000Y-30000000D01*
X80110000Y-58190000D02*
X79900000Y-58400000D01*
X22760000Y-50050000D02*
X22610000Y-50200000D01*
X22760000Y-60760000D02*
X22610000Y-60610000D01*
X22510000Y-72900000D02*
X22510000Y-62000000D01*
X22760000Y-61750000D02*
X22760000Y-60760000D01*
X22510000Y-97665000D02*
X22625000Y-97550000D01*
X22625000Y-85475000D02*
X22600000Y-85450000D01*
X80110000Y-47750000D02*
X80110000Y-58190000D01*
X22610000Y-60610000D02*
X22610000Y-50200000D01*
%TO.N,Net-(U2A-+)*%
X41500000Y-78617620D02*
X41500000Y-62350000D01*
X41500000Y-62350000D02*
X37067620Y-62350000D01*
X45467620Y-62950000D02*
X43550000Y-62950000D01*
X42950000Y-62350000D02*
X41500000Y-62350000D01*
X43550000Y-62950000D02*
X42950000Y-62350000D01*
X39117620Y-81000000D02*
X41500000Y-78617620D01*
%TO.N,+9V*%
X69067620Y-65400000D02*
X61447620Y-73020000D01*
%TO.N,Net-(U1-TR)*%
X57708620Y-64201000D02*
X61447620Y-67940000D01*
X45467620Y-57870000D02*
X51798620Y-64201000D01*
X51798620Y-64201000D02*
X57708620Y-64201000D01*
%TO.N,Net-(U4-DIS)*%
X77207620Y-92790000D02*
X77457620Y-92540000D01*
X72607620Y-87690000D02*
X77457620Y-92540000D01*
X77207620Y-98880000D02*
X77207620Y-92790000D01*
X69267620Y-87690000D02*
X72607620Y-87690000D01*
%TO.N,Net-(U3-CKEN)*%
X44217620Y-98730000D02*
X54507620Y-98730000D01*
X54507620Y-98730000D02*
X54667620Y-98570000D01*
%TO.N,Net-(U1-Q)*%
X61447620Y-70480000D02*
X59000000Y-72927620D01*
X62000000Y-82000000D02*
X65500000Y-85500000D01*
X60000000Y-82000000D02*
X60500000Y-82000000D01*
X59000000Y-72927620D02*
X59000000Y-81000000D01*
X59000000Y-81000000D02*
X60000000Y-82000000D01*
X62230000Y-92770000D02*
X61647620Y-92770000D01*
X65500000Y-89500000D02*
X62230000Y-92770000D01*
X60500000Y-82000000D02*
X62000000Y-82000000D01*
%TO.N,Net-(U2A--)*%
X43910000Y-60410000D02*
X45467620Y-60410000D01*
X38150000Y-46850000D02*
X38150000Y-54650000D01*
X38150000Y-54650000D02*
X43910000Y-60410000D01*
%TO.N,Net-(U3-CLK)*%
X51310000Y-96190000D02*
X44217620Y-96190000D01*
X61647620Y-90230000D02*
X57270000Y-90230000D01*
X57270000Y-90230000D02*
X51310000Y-96190000D01*
%TD*%
%TA.AperFunction,Conductor*%
%TO.N,GND*%
G36*
X39905323Y-103099516D02*
G01*
X39911801Y-103105548D01*
X42569614Y-105763361D01*
X42603099Y-105824684D01*
X42599864Y-105889360D01*
X42549143Y-106045461D01*
X42549143Y-106045464D01*
X42517120Y-106247648D01*
X42517120Y-106452351D01*
X42549142Y-106654534D01*
X42612401Y-106849223D01*
X42705335Y-107031613D01*
X42825648Y-107197213D01*
X42970406Y-107341971D01*
X43123764Y-107453390D01*
X43136010Y-107462287D01*
X43227460Y-107508883D01*
X43228700Y-107509515D01*
X43279496Y-107557490D01*
X43296291Y-107625311D01*
X43273754Y-107691446D01*
X43228700Y-107730485D01*
X43136006Y-107777715D01*
X42970406Y-107898028D01*
X42825648Y-108042786D01*
X42705335Y-108208386D01*
X42612401Y-108390776D01*
X42549142Y-108585465D01*
X42517120Y-108787648D01*
X42517120Y-108992351D01*
X42549142Y-109194534D01*
X42612401Y-109389223D01*
X42705335Y-109571613D01*
X42825648Y-109737213D01*
X42970406Y-109881971D01*
X43125369Y-109994556D01*
X43136010Y-110002287D01*
X43252227Y-110061503D01*
X43318396Y-110095218D01*
X43318398Y-110095218D01*
X43318401Y-110095220D01*
X43422757Y-110129127D01*
X43513085Y-110158477D01*
X43614177Y-110174488D01*
X43715268Y-110190500D01*
X44405390Y-110190500D01*
X44472429Y-110210185D01*
X44493071Y-110226819D01*
X46717583Y-112451331D01*
X48804072Y-114537819D01*
X48837557Y-114599142D01*
X48832573Y-114668834D01*
X48790701Y-114724767D01*
X48725237Y-114749184D01*
X48716391Y-114749500D01*
X31374500Y-114749500D01*
X31307461Y-114729815D01*
X31261706Y-114677011D01*
X31250500Y-114625500D01*
X31250500Y-110269849D01*
X31270185Y-110202810D01*
X31286814Y-110182173D01*
X34757936Y-106711050D01*
X34819257Y-106677567D01*
X34888949Y-106682551D01*
X34944882Y-106724423D01*
X34963545Y-106760414D01*
X34992400Y-106849219D01*
X35069272Y-107000089D01*
X35085335Y-107031613D01*
X35205648Y-107197213D01*
X35350406Y-107341971D01*
X35503764Y-107453390D01*
X35516010Y-107462287D01*
X35588044Y-107498990D01*
X35609249Y-107509795D01*
X35660045Y-107557770D01*
X35676840Y-107625591D01*
X35654302Y-107691726D01*
X35609249Y-107730765D01*
X35516270Y-107778140D01*
X35350725Y-107898417D01*
X35350724Y-107898417D01*
X35206037Y-108043104D01*
X35206037Y-108043105D01*
X35085760Y-108208650D01*
X34992864Y-108390970D01*
X34929629Y-108585586D01*
X34921011Y-108640000D01*
X36281934Y-108640000D01*
X36277540Y-108644394D01*
X36224879Y-108735606D01*
X36197620Y-108837339D01*
X36197620Y-108942661D01*
X36224879Y-109044394D01*
X36277540Y-109135606D01*
X36281934Y-109140000D01*
X34921011Y-109140000D01*
X34929629Y-109194413D01*
X34992864Y-109389029D01*
X35085760Y-109571349D01*
X35206037Y-109736894D01*
X35206037Y-109736895D01*
X35350724Y-109881582D01*
X35516270Y-110001859D01*
X35698588Y-110094755D01*
X35893202Y-110157990D01*
X36095303Y-110190000D01*
X36347620Y-110190000D01*
X36347620Y-109205686D01*
X36352014Y-109210080D01*
X36443226Y-109262741D01*
X36544959Y-109290000D01*
X36650281Y-109290000D01*
X36752014Y-109262741D01*
X36843226Y-109210080D01*
X36847620Y-109205686D01*
X36847620Y-110190000D01*
X37099937Y-110190000D01*
X37302037Y-110157990D01*
X37496651Y-110094755D01*
X37678969Y-110001859D01*
X37844514Y-109881582D01*
X37844515Y-109881582D01*
X37989202Y-109736895D01*
X37989202Y-109736894D01*
X38109479Y-109571349D01*
X38202375Y-109389029D01*
X38265610Y-109194413D01*
X38274229Y-109140000D01*
X36913306Y-109140000D01*
X36917700Y-109135606D01*
X36970361Y-109044394D01*
X36997620Y-108942661D01*
X36997620Y-108837339D01*
X36970361Y-108735606D01*
X36917700Y-108644394D01*
X36913306Y-108640000D01*
X38274229Y-108640000D01*
X38265610Y-108585586D01*
X38202375Y-108390970D01*
X38109479Y-108208650D01*
X37989202Y-108043105D01*
X37989202Y-108043104D01*
X37844515Y-107898417D01*
X37678969Y-107778140D01*
X37585990Y-107730765D01*
X37535194Y-107682790D01*
X37518399Y-107614969D01*
X37540936Y-107548835D01*
X37585990Y-107509795D01*
X37586540Y-107509515D01*
X37679230Y-107462287D01*
X37758451Y-107404730D01*
X37844833Y-107341971D01*
X37844835Y-107341968D01*
X37844839Y-107341966D01*
X37989586Y-107197219D01*
X37989588Y-107197215D01*
X37989591Y-107197213D01*
X38079167Y-107073920D01*
X38109907Y-107031610D01*
X38202840Y-106849219D01*
X38266097Y-106654534D01*
X38298120Y-106452352D01*
X38298120Y-106247648D01*
X38266097Y-106045466D01*
X38266096Y-106045464D01*
X38215375Y-105889361D01*
X38213380Y-105819519D01*
X38245623Y-105763363D01*
X39532571Y-104476416D01*
X39614704Y-104353495D01*
X39671278Y-104216913D01*
X39700120Y-104071918D01*
X39700120Y-103924083D01*
X39700120Y-103193229D01*
X39719805Y-103126190D01*
X39772609Y-103080435D01*
X39841767Y-103070491D01*
X39905323Y-103099516D01*
G37*
%TD.AperFunction*%
%TA.AperFunction,Conductor*%
G36*
X77704809Y-30770185D02*
G01*
X77725451Y-30786819D01*
X79288181Y-32349548D01*
X79321666Y-32410871D01*
X79324500Y-32437229D01*
X79324500Y-34575500D01*
X79304815Y-34642539D01*
X79252011Y-34688294D01*
X79200502Y-34699500D01*
X79127130Y-34699500D01*
X79127123Y-34699501D01*
X79067516Y-34705908D01*
X78932671Y-34756202D01*
X78932664Y-34756206D01*
X78817455Y-34842452D01*
X78817452Y-34842455D01*
X78731206Y-34957664D01*
X78731202Y-34957671D01*
X78680908Y-35092517D01*
X78674501Y-35152116D01*
X78674500Y-35152135D01*
X78674500Y-37047870D01*
X78674501Y-37047876D01*
X78680908Y-37107483D01*
X78731202Y-37242328D01*
X78731206Y-37242335D01*
X78817452Y-37357544D01*
X78817455Y-37357547D01*
X78932664Y-37443793D01*
X78932671Y-37443797D01*
X78965942Y-37456206D01*
X79067517Y-37494091D01*
X79127127Y-37500500D01*
X79200500Y-37500499D01*
X79267538Y-37520183D01*
X79313294Y-37572986D01*
X79324500Y-37624499D01*
X79324500Y-46225500D01*
X79304815Y-46292539D01*
X79252011Y-46338294D01*
X79200503Y-46349500D01*
X79162131Y-46349500D01*
X79162123Y-46349501D01*
X79102516Y-46355908D01*
X78967671Y-46406202D01*
X78967664Y-46406206D01*
X78852455Y-46492452D01*
X78852452Y-46492455D01*
X78766206Y-46607664D01*
X78766202Y-46607671D01*
X78715908Y-46742517D01*
X78709501Y-46802116D01*
X78709500Y-46802135D01*
X78709500Y-48697870D01*
X78709501Y-48697876D01*
X78715908Y-48757483D01*
X78766202Y-48892328D01*
X78766206Y-48892335D01*
X78852452Y-49007544D01*
X78852455Y-49007547D01*
X78967664Y-49093793D01*
X78967671Y-49093797D01*
X78988496Y-49101564D01*
X79102517Y-49144091D01*
X79162127Y-49150500D01*
X79235500Y-49150499D01*
X79302538Y-49170183D01*
X79348294Y-49222986D01*
X79359500Y-49274499D01*
X79359500Y-56875500D01*
X79339815Y-56942539D01*
X79287011Y-56988294D01*
X79235500Y-56999500D01*
X78952130Y-56999500D01*
X78952123Y-56999501D01*
X78892516Y-57005908D01*
X78757671Y-57056202D01*
X78757664Y-57056206D01*
X78642455Y-57142452D01*
X78642452Y-57142455D01*
X78556206Y-57257664D01*
X78556202Y-57257671D01*
X78505908Y-57392517D01*
X78499501Y-57452116D01*
X78499500Y-57452135D01*
X78499500Y-59347870D01*
X78499501Y-59347876D01*
X78505908Y-59407483D01*
X78556202Y-59542328D01*
X78556206Y-59542335D01*
X78642452Y-59657544D01*
X78642455Y-59657547D01*
X78757664Y-59743793D01*
X78757671Y-59743797D01*
X78892517Y-59794091D01*
X78892516Y-59794091D01*
X78899444Y-59794835D01*
X78952127Y-59800500D01*
X80847872Y-59800499D01*
X80907483Y-59794091D01*
X81042331Y-59743796D01*
X81157546Y-59657546D01*
X81243796Y-59542331D01*
X81245213Y-59538533D01*
X81273601Y-59462420D01*
X81315471Y-59406486D01*
X81380936Y-59382068D01*
X81449209Y-59396919D01*
X81477464Y-59418071D01*
X81527636Y-59468243D01*
X81527641Y-59468247D01*
X81657764Y-59562786D01*
X81705978Y-59597815D01*
X81834375Y-59663237D01*
X81902393Y-59697895D01*
X81902396Y-59697896D01*
X81996237Y-59728386D01*
X82112049Y-59766015D01*
X82329778Y-59800500D01*
X82329779Y-59800500D01*
X82550220Y-59800500D01*
X82550222Y-59800500D01*
X82685431Y-59779084D01*
X82754722Y-59788038D01*
X82792508Y-59813876D01*
X83213181Y-60234548D01*
X83246666Y-60295871D01*
X83249500Y-60322229D01*
X83249500Y-111637770D01*
X83229815Y-111704809D01*
X83213181Y-111725451D01*
X82225451Y-112713181D01*
X82164128Y-112746666D01*
X82137770Y-112749500D01*
X62611230Y-112749500D01*
X62544191Y-112729815D01*
X62498436Y-112677011D01*
X62488492Y-112607853D01*
X62517517Y-112544297D01*
X62523549Y-112537819D01*
X63132948Y-111928419D01*
X63132947Y-111928419D01*
X63132951Y-111928416D01*
X63215084Y-111805495D01*
X63271658Y-111668913D01*
X63286601Y-111593793D01*
X63300500Y-111523920D01*
X63300500Y-109905416D01*
X63320185Y-109838377D01*
X63351613Y-109805099D01*
X63397219Y-109771966D01*
X63541966Y-109627219D01*
X63541968Y-109627215D01*
X63541971Y-109627213D01*
X63605901Y-109539219D01*
X63662287Y-109461610D01*
X63755220Y-109279219D01*
X63818477Y-109084534D01*
X63850500Y-108882352D01*
X63850500Y-108677648D01*
X63828821Y-108540776D01*
X63818477Y-108475465D01*
X63756421Y-108284477D01*
X63755220Y-108280781D01*
X63755218Y-108280778D01*
X63755218Y-108280776D01*
X63710382Y-108192781D01*
X63662287Y-108098390D01*
X63626149Y-108048650D01*
X63541971Y-107932786D01*
X63397213Y-107788028D01*
X63231613Y-107667715D01*
X63231612Y-107667714D01*
X63231610Y-107667713D01*
X63148392Y-107625311D01*
X63049223Y-107574781D01*
X62854534Y-107511522D01*
X62679995Y-107483878D01*
X62652352Y-107479500D01*
X62447648Y-107479500D01*
X62423329Y-107483351D01*
X62245465Y-107511522D01*
X62050776Y-107574781D01*
X61868386Y-107667715D01*
X61702786Y-107788028D01*
X61558028Y-107932786D01*
X61437715Y-108098386D01*
X61344781Y-108280776D01*
X61281522Y-108475465D01*
X61264100Y-108585466D01*
X61249500Y-108677648D01*
X61249500Y-108882352D01*
X61253278Y-108906202D01*
X61281522Y-109084534D01*
X61344781Y-109279223D01*
X61437715Y-109461613D01*
X61558028Y-109627213D01*
X61558034Y-109627219D01*
X61702781Y-109771966D01*
X61748384Y-109805098D01*
X61791050Y-109860425D01*
X61799500Y-109905416D01*
X61799500Y-111087770D01*
X61779815Y-111154809D01*
X61763181Y-111175451D01*
X61225451Y-111713181D01*
X61164128Y-111746666D01*
X61137770Y-111749500D01*
X55125267Y-111749500D01*
X55058228Y-111729815D01*
X55056376Y-111728602D01*
X54950236Y-111657681D01*
X54950228Y-111657676D01*
X54777251Y-111586027D01*
X54777243Y-111586025D01*
X54593620Y-111549500D01*
X54593616Y-111549500D01*
X54406384Y-111549500D01*
X54406379Y-111549500D01*
X54222756Y-111586025D01*
X54222748Y-111586027D01*
X54049771Y-111657676D01*
X54049762Y-111657681D01*
X53894092Y-111761697D01*
X53894088Y-111761700D01*
X53761700Y-111894088D01*
X53761697Y-111894092D01*
X53657681Y-112049762D01*
X53657676Y-112049771D01*
X53586024Y-112222755D01*
X53584377Y-112228186D01*
X53546078Y-112286624D01*
X53482265Y-112315078D01*
X53413198Y-112304515D01*
X53378037Y-112279868D01*
X49578169Y-108480000D01*
X53391011Y-108480000D01*
X54351934Y-108480000D01*
X54347540Y-108484394D01*
X54294879Y-108575606D01*
X54267620Y-108677339D01*
X54267620Y-108782661D01*
X54294879Y-108884394D01*
X54347540Y-108975606D01*
X54351934Y-108980000D01*
X53391011Y-108980000D01*
X53399629Y-109034413D01*
X53462864Y-109229029D01*
X53555760Y-109411349D01*
X53676037Y-109576894D01*
X53676037Y-109576895D01*
X53820724Y-109721582D01*
X53986270Y-109841859D01*
X54168588Y-109934754D01*
X54363198Y-109997988D01*
X54417620Y-110006607D01*
X54417620Y-109045686D01*
X54422014Y-109050080D01*
X54513226Y-109102741D01*
X54614959Y-109130000D01*
X54720281Y-109130000D01*
X54822014Y-109102741D01*
X54913226Y-109050080D01*
X54917620Y-109045686D01*
X54917620Y-110006606D01*
X54972041Y-109997988D01*
X55166651Y-109934754D01*
X55348969Y-109841859D01*
X55514514Y-109721582D01*
X55514515Y-109721582D01*
X55659202Y-109576895D01*
X55659202Y-109576894D01*
X55779479Y-109411349D01*
X55872375Y-109229029D01*
X55935610Y-109034413D01*
X55944229Y-108980000D01*
X54983306Y-108980000D01*
X54987700Y-108975606D01*
X55040361Y-108884394D01*
X55067620Y-108782661D01*
X55067620Y-108677339D01*
X55040361Y-108575606D01*
X54987700Y-108484394D01*
X54983306Y-108480000D01*
X55944229Y-108480000D01*
X55935610Y-108425586D01*
X55872375Y-108230970D01*
X55779479Y-108048650D01*
X55659202Y-107883105D01*
X55659202Y-107883104D01*
X55514515Y-107738417D01*
X55348969Y-107618140D01*
X55166649Y-107525244D01*
X54972033Y-107462009D01*
X54917620Y-107453390D01*
X54917620Y-108414314D01*
X54913226Y-108409920D01*
X54822014Y-108357259D01*
X54720281Y-108330000D01*
X54614959Y-108330000D01*
X54513226Y-108357259D01*
X54422014Y-108409920D01*
X54417620Y-108414314D01*
X54417620Y-107453390D01*
X54363206Y-107462009D01*
X54168590Y-107525244D01*
X53986270Y-107618140D01*
X53820725Y-107738417D01*
X53820724Y-107738417D01*
X53676037Y-107883104D01*
X53676037Y-107883105D01*
X53555760Y-108048650D01*
X53462864Y-108230970D01*
X53399629Y-108425586D01*
X53391011Y-108480000D01*
X49578169Y-108480000D01*
X45745786Y-104647617D01*
X45733675Y-104625439D01*
X45718143Y-104605503D01*
X45717214Y-104595292D01*
X45712301Y-104586294D01*
X45714103Y-104561086D01*
X45711815Y-104535920D01*
X45716819Y-104523106D01*
X45717285Y-104516602D01*
X45723509Y-104502620D01*
X45727574Y-104494820D01*
X45729907Y-104491610D01*
X45822840Y-104309219D01*
X45886097Y-104114534D01*
X45918120Y-103912352D01*
X45918120Y-103707648D01*
X45903350Y-103614394D01*
X45886097Y-103505465D01*
X45870434Y-103457259D01*
X45838079Y-103357682D01*
X68407620Y-103357682D01*
X68407620Y-103562317D01*
X68439629Y-103764417D01*
X68502864Y-103959031D01*
X68595761Y-104141350D01*
X68595767Y-104141359D01*
X68628143Y-104185921D01*
X68628144Y-104185922D01*
X69307620Y-103506446D01*
X69307620Y-103512661D01*
X69334879Y-103614394D01*
X69387540Y-103705606D01*
X69462014Y-103780080D01*
X69553226Y-103832741D01*
X69654959Y-103860000D01*
X69661173Y-103860000D01*
X68981696Y-104539474D01*
X69026270Y-104571859D01*
X69208588Y-104664755D01*
X69403202Y-104727990D01*
X69605303Y-104760000D01*
X69809937Y-104760000D01*
X70012037Y-104727990D01*
X70206651Y-104664755D01*
X70388969Y-104571859D01*
X70433541Y-104539474D01*
X69754067Y-103860000D01*
X69760281Y-103860000D01*
X69862014Y-103832741D01*
X69953226Y-103780080D01*
X70027700Y-103705606D01*
X70080361Y-103614394D01*
X70107620Y-103512661D01*
X70107620Y-103506447D01*
X70787094Y-104185921D01*
X70819479Y-104141349D01*
X70912375Y-103959031D01*
X70975610Y-103764417D01*
X71007620Y-103562317D01*
X71007620Y-103357682D01*
X70975610Y-103155582D01*
X70912375Y-102960968D01*
X70819479Y-102778650D01*
X70787094Y-102734077D01*
X70787094Y-102734076D01*
X70107620Y-103413551D01*
X70107620Y-103407339D01*
X70080361Y-103305606D01*
X70027700Y-103214394D01*
X69953226Y-103139920D01*
X69862014Y-103087259D01*
X69760281Y-103060000D01*
X69754066Y-103060000D01*
X70433542Y-102380524D01*
X70433541Y-102380523D01*
X70388979Y-102348147D01*
X70388970Y-102348141D01*
X70206651Y-102255244D01*
X70012037Y-102192009D01*
X69809937Y-102160000D01*
X69605303Y-102160000D01*
X69403202Y-102192009D01*
X69208588Y-102255244D01*
X69026264Y-102348143D01*
X68981697Y-102380523D01*
X68981697Y-102380524D01*
X69661174Y-103060000D01*
X69654959Y-103060000D01*
X69553226Y-103087259D01*
X69462014Y-103139920D01*
X69387540Y-103214394D01*
X69334879Y-103305606D01*
X69307620Y-103407339D01*
X69307620Y-103413553D01*
X68628144Y-102734077D01*
X68628143Y-102734077D01*
X68595763Y-102778644D01*
X68502864Y-102960968D01*
X68439629Y-103155582D01*
X68407620Y-103357682D01*
X45838079Y-103357682D01*
X45822840Y-103310781D01*
X45729907Y-103128390D01*
X45713964Y-103106446D01*
X45609591Y-102962786D01*
X45464833Y-102818028D01*
X45299234Y-102697715D01*
X45292626Y-102694348D01*
X45206537Y-102650483D01*
X45200751Y-102645019D01*
X45193174Y-102642584D01*
X45175717Y-102621375D01*
X45155743Y-102602511D01*
X45153829Y-102594783D01*
X45148771Y-102588638D01*
X45145551Y-102561354D01*
X45138948Y-102534690D01*
X45141515Y-102527156D01*
X45140582Y-102519250D01*
X45152624Y-102494556D01*
X45161485Y-102468555D01*
X45168500Y-102462002D01*
X45171208Y-102456450D01*
X45188815Y-102443026D01*
X45198458Y-102434020D01*
X45202410Y-102431618D01*
X45299230Y-102382287D01*
X45464839Y-102261966D01*
X45609586Y-102117219D01*
X45609588Y-102117215D01*
X45609591Y-102117213D01*
X45662352Y-102044590D01*
X45729907Y-101951610D01*
X45822840Y-101769219D01*
X45886097Y-101574534D01*
X45918120Y-101372352D01*
X45918120Y-101167648D01*
X45886097Y-100965466D01*
X45822840Y-100770781D01*
X45822838Y-100770778D01*
X45822838Y-100770776D01*
X45789123Y-100704607D01*
X45729907Y-100588390D01*
X45722176Y-100577749D01*
X45609591Y-100422786D01*
X45464833Y-100278028D01*
X45299234Y-100157715D01*
X45260659Y-100138060D01*
X45206537Y-100110483D01*
X45155743Y-100062511D01*
X45138948Y-99994690D01*
X45161485Y-99928555D01*
X45206537Y-99889516D01*
X45299230Y-99842287D01*
X45391541Y-99775220D01*
X45464833Y-99721971D01*
X45464835Y-99721968D01*
X45464839Y-99721966D01*
X45609586Y-99577219D01*
X45613171Y-99572284D01*
X45642720Y-99531615D01*
X45698049Y-99488949D01*
X45743038Y-99480500D01*
X53687573Y-99480500D01*
X53754612Y-99500185D01*
X53775254Y-99516819D01*
X53820406Y-99561971D01*
X53952858Y-99658201D01*
X53986010Y-99682287D01*
X54102227Y-99741503D01*
X54168396Y-99775218D01*
X54168398Y-99775218D01*
X54168401Y-99775220D01*
X54272757Y-99809127D01*
X54363085Y-99838477D01*
X54464177Y-99854488D01*
X54565268Y-99870500D01*
X54565269Y-99870500D01*
X54769971Y-99870500D01*
X54769972Y-99870500D01*
X54972154Y-99838477D01*
X55166839Y-99775220D01*
X55349230Y-99682287D01*
X55490890Y-99579366D01*
X55514833Y-99561971D01*
X55514835Y-99561968D01*
X55514839Y-99561966D01*
X55659586Y-99417219D01*
X55659588Y-99417215D01*
X55659591Y-99417213D01*
X55739509Y-99307213D01*
X55779907Y-99251610D01*
X55872840Y-99069219D01*
X55936097Y-98874534D01*
X55946708Y-98807544D01*
X55964955Y-98692335D01*
X55968120Y-98672352D01*
X55968120Y-98467648D01*
X55952654Y-98370000D01*
X61273391Y-98370000D01*
X62234314Y-98370000D01*
X62229920Y-98374394D01*
X62177259Y-98465606D01*
X62150000Y-98567339D01*
X62150000Y-98672661D01*
X62177259Y-98774394D01*
X62229920Y-98865606D01*
X62234314Y-98870000D01*
X61273391Y-98870000D01*
X61282009Y-98924413D01*
X61345244Y-99119029D01*
X61438140Y-99301349D01*
X61558417Y-99466894D01*
X61558417Y-99466895D01*
X61703104Y-99611582D01*
X61868650Y-99731859D01*
X62050968Y-99824754D01*
X62245578Y-99887988D01*
X62300000Y-99896607D01*
X62300000Y-98935686D01*
X62304394Y-98940080D01*
X62395606Y-98992741D01*
X62497339Y-99020000D01*
X62602661Y-99020000D01*
X62704394Y-98992741D01*
X62795606Y-98940080D01*
X62800000Y-98935686D01*
X62800000Y-99896606D01*
X62854421Y-99887988D01*
X63049031Y-99824754D01*
X63231349Y-99731859D01*
X63396894Y-99611582D01*
X63396895Y-99611582D01*
X63541582Y-99466895D01*
X63541582Y-99466894D01*
X63661859Y-99301349D01*
X63754755Y-99119029D01*
X63817990Y-98924413D01*
X63826609Y-98870000D01*
X62865686Y-98870000D01*
X62870080Y-98865606D01*
X62922741Y-98774394D01*
X62950000Y-98672661D01*
X62950000Y-98567339D01*
X62922741Y-98465606D01*
X62870080Y-98374394D01*
X62865686Y-98370000D01*
X63826609Y-98370000D01*
X63817990Y-98315586D01*
X63754755Y-98120970D01*
X63661859Y-97938650D01*
X63541582Y-97773105D01*
X63541582Y-97773104D01*
X63396895Y-97628417D01*
X63231349Y-97508140D01*
X63049029Y-97415244D01*
X62854413Y-97352009D01*
X62800000Y-97343390D01*
X62800000Y-98304314D01*
X62795606Y-98299920D01*
X62704394Y-98247259D01*
X62602661Y-98220000D01*
X62497339Y-98220000D01*
X62395606Y-98247259D01*
X62304394Y-98299920D01*
X62300000Y-98304314D01*
X62300000Y-97343390D01*
X62245586Y-97352009D01*
X62050970Y-97415244D01*
X61868650Y-97508140D01*
X61703105Y-97628417D01*
X61703104Y-97628417D01*
X61558417Y-97773104D01*
X61558417Y-97773105D01*
X61438140Y-97938650D01*
X61345244Y-98120970D01*
X61282009Y-98315586D01*
X61273391Y-98370000D01*
X55952654Y-98370000D01*
X55936097Y-98265466D01*
X55872840Y-98070781D01*
X55872838Y-98070778D01*
X55872838Y-98070776D01*
X55826330Y-97979500D01*
X55779907Y-97888390D01*
X55715377Y-97799571D01*
X55659591Y-97722786D01*
X55514833Y-97578028D01*
X55349233Y-97457715D01*
X55349232Y-97457714D01*
X55349230Y-97457713D01*
X55265880Y-97415244D01*
X55166843Y-97364781D01*
X54972154Y-97301522D01*
X54797615Y-97273878D01*
X54769972Y-97269500D01*
X54565268Y-97269500D01*
X54540949Y-97273351D01*
X54363085Y-97301522D01*
X54168396Y-97364781D01*
X53986006Y-97457715D01*
X53820406Y-97578028D01*
X53675648Y-97722786D01*
X53555333Y-97888388D01*
X53543408Y-97911794D01*
X53495434Y-97962590D01*
X53432923Y-97979500D01*
X45743038Y-97979500D01*
X45675999Y-97959815D01*
X45642720Y-97928385D01*
X45609591Y-97882787D01*
X45609587Y-97882782D01*
X45464833Y-97738028D01*
X45299234Y-97617715D01*
X45289550Y-97612781D01*
X45206537Y-97570483D01*
X45155743Y-97522511D01*
X45138948Y-97454690D01*
X45161485Y-97388555D01*
X45206537Y-97349516D01*
X45299230Y-97302287D01*
X45344358Y-97269500D01*
X45464833Y-97181971D01*
X45464835Y-97181968D01*
X45464839Y-97181966D01*
X45609586Y-97037219D01*
X45612270Y-97033524D01*
X45642720Y-96991615D01*
X45698049Y-96948949D01*
X45743038Y-96940500D01*
X51383920Y-96940500D01*
X51481462Y-96921096D01*
X51528913Y-96911658D01*
X51665495Y-96855084D01*
X51714729Y-96822186D01*
X51788416Y-96772952D01*
X57544549Y-91016819D01*
X57605872Y-90983334D01*
X57632230Y-90980500D01*
X60122202Y-90980500D01*
X60189241Y-91000185D01*
X60222520Y-91031615D01*
X60255648Y-91077212D01*
X60255652Y-91077217D01*
X60400406Y-91221971D01*
X60555369Y-91334556D01*
X60566010Y-91342287D01*
X60657460Y-91388883D01*
X60658700Y-91389515D01*
X60709496Y-91437490D01*
X60726291Y-91505311D01*
X60703754Y-91571446D01*
X60658700Y-91610485D01*
X60566006Y-91657715D01*
X60400406Y-91778028D01*
X60255648Y-91922786D01*
X60135335Y-92088386D01*
X60042401Y-92270776D01*
X59979142Y-92465465D01*
X59947120Y-92667648D01*
X59947120Y-92872351D01*
X59979142Y-93074534D01*
X60042401Y-93269223D01*
X60135335Y-93451613D01*
X60255648Y-93617213D01*
X60400406Y-93761971D01*
X60544081Y-93866355D01*
X60566010Y-93882287D01*
X60682227Y-93941503D01*
X60748396Y-93975218D01*
X60748398Y-93975218D01*
X60748401Y-93975220D01*
X60852757Y-94009127D01*
X60943085Y-94038477D01*
X61015838Y-94050000D01*
X61145268Y-94070500D01*
X61145269Y-94070500D01*
X62149971Y-94070500D01*
X62149972Y-94070500D01*
X62352154Y-94038477D01*
X62546839Y-93975220D01*
X62729230Y-93882287D01*
X62822210Y-93814732D01*
X62894833Y-93761971D01*
X62894835Y-93761968D01*
X62894839Y-93761966D01*
X63039586Y-93617219D01*
X63039588Y-93617215D01*
X63039591Y-93617213D01*
X63127942Y-93495606D01*
X63159907Y-93451610D01*
X63252840Y-93269219D01*
X63316097Y-93074534D01*
X63348120Y-92872352D01*
X63348120Y-92764608D01*
X63367805Y-92697569D01*
X63384434Y-92676932D01*
X65588553Y-90472812D01*
X65649874Y-90439329D01*
X65651945Y-90438897D01*
X65777251Y-90413973D01*
X65950231Y-90342322D01*
X66105908Y-90238302D01*
X66238302Y-90105908D01*
X66342322Y-89950231D01*
X66413973Y-89777251D01*
X66450500Y-89593616D01*
X66450500Y-89406384D01*
X66413973Y-89222749D01*
X66342322Y-89049769D01*
X66342321Y-89049768D01*
X66342318Y-89049762D01*
X66238302Y-88894092D01*
X66238299Y-88894088D01*
X66105911Y-88761700D01*
X66105907Y-88761697D01*
X65965084Y-88667602D01*
X65920279Y-88613990D01*
X65911572Y-88544665D01*
X65941726Y-88481637D01*
X66001169Y-88444918D01*
X66033975Y-88440500D01*
X66365390Y-88440500D01*
X66432429Y-88460185D01*
X66453071Y-88476819D01*
X67619614Y-89643362D01*
X67653099Y-89704685D01*
X67649864Y-89769361D01*
X67599143Y-89925461D01*
X67599143Y-89925464D01*
X67583919Y-90021584D01*
X67567120Y-90127648D01*
X67567120Y-90332352D01*
X67568699Y-90342322D01*
X67599142Y-90534534D01*
X67662401Y-90729223D01*
X67726311Y-90854653D01*
X67746386Y-90894051D01*
X67755335Y-90911613D01*
X67875648Y-91077213D01*
X68020406Y-91221971D01*
X68175369Y-91334556D01*
X68186010Y-91342287D01*
X68277460Y-91388883D01*
X68278700Y-91389515D01*
X68329496Y-91437490D01*
X68346291Y-91505311D01*
X68323754Y-91571446D01*
X68278700Y-91610485D01*
X68186006Y-91657715D01*
X68020406Y-91778028D01*
X67875648Y-91922786D01*
X67755335Y-92088386D01*
X67662401Y-92270776D01*
X67599142Y-92465465D01*
X67567120Y-92667648D01*
X67567120Y-92872351D01*
X67599142Y-93074534D01*
X67662401Y-93269223D01*
X67755335Y-93451613D01*
X67875648Y-93617213D01*
X68020406Y-93761971D01*
X68164081Y-93866355D01*
X68186010Y-93882287D01*
X68302227Y-93941503D01*
X68368396Y-93975218D01*
X68368398Y-93975218D01*
X68368401Y-93975220D01*
X68472757Y-94009127D01*
X68563085Y-94038477D01*
X68635838Y-94050000D01*
X68765268Y-94070500D01*
X68833120Y-94070500D01*
X68900159Y-94090185D01*
X68945914Y-94142989D01*
X68957120Y-94194500D01*
X68957120Y-97334582D01*
X68937435Y-97401621D01*
X68906005Y-97434900D01*
X68860407Y-97468028D01*
X68860402Y-97468032D01*
X68715648Y-97612786D01*
X68595335Y-97778386D01*
X68502401Y-97960776D01*
X68439142Y-98155465D01*
X68407120Y-98357648D01*
X68407120Y-98562351D01*
X68439142Y-98764534D01*
X68502401Y-98959223D01*
X68539270Y-99031581D01*
X68594724Y-99140415D01*
X68595335Y-99141613D01*
X68715648Y-99307213D01*
X68860406Y-99451971D01*
X68970029Y-99531615D01*
X69026010Y-99572287D01*
X69103131Y-99611582D01*
X69208396Y-99665218D01*
X69208398Y-99665218D01*
X69208401Y-99665220D01*
X69260919Y-99682284D01*
X69403085Y-99728477D01*
X69504177Y-99744488D01*
X69605268Y-99760500D01*
X69605269Y-99760500D01*
X69809971Y-99760500D01*
X69809972Y-99760500D01*
X70012154Y-99728477D01*
X70206839Y-99665220D01*
X70389230Y-99572287D01*
X70534291Y-99466895D01*
X70554833Y-99451971D01*
X70554835Y-99451968D01*
X70554839Y-99451966D01*
X70699586Y-99307219D01*
X70699588Y-99307215D01*
X70699591Y-99307213D01*
X70788721Y-99184534D01*
X70819907Y-99141610D01*
X70912840Y-98959219D01*
X70976097Y-98764534D01*
X71008120Y-98562352D01*
X71008120Y-98357648D01*
X71000407Y-98308949D01*
X70976097Y-98155465D01*
X70918922Y-97979500D01*
X70912840Y-97960781D01*
X70912838Y-97960778D01*
X70912838Y-97960776D01*
X70873100Y-97882787D01*
X70819907Y-97778390D01*
X70779505Y-97722781D01*
X70699591Y-97612786D01*
X70554837Y-97468032D01*
X70554832Y-97468028D01*
X70509235Y-97434900D01*
X70466569Y-97379571D01*
X70458120Y-97334582D01*
X70458120Y-93866355D01*
X70477805Y-93799316D01*
X70509237Y-93766035D01*
X70514839Y-93761966D01*
X70659586Y-93617219D01*
X70659588Y-93617215D01*
X70659591Y-93617213D01*
X70747942Y-93495606D01*
X70779907Y-93451610D01*
X70872840Y-93269219D01*
X70901694Y-93180413D01*
X70941130Y-93122741D01*
X71005488Y-93095542D01*
X71074335Y-93107456D01*
X71107305Y-93131053D01*
X72713181Y-94736928D01*
X72746666Y-94798251D01*
X72749500Y-94824609D01*
X72749500Y-107073918D01*
X72749500Y-107073920D01*
X72749499Y-107073920D01*
X72778340Y-107218907D01*
X72778343Y-107218917D01*
X72834914Y-107355492D01*
X72867812Y-107404727D01*
X72867813Y-107404730D01*
X72917046Y-107478414D01*
X72917052Y-107478421D01*
X74535712Y-109097079D01*
X75061585Y-109622952D01*
X75082726Y-109637077D01*
X75093225Y-109644093D01*
X75184498Y-109705080D01*
X75184511Y-109705087D01*
X75234665Y-109725861D01*
X75241080Y-109728518D01*
X75321088Y-109761659D01*
X75437241Y-109784763D01*
X75460380Y-109789365D01*
X75466081Y-109790500D01*
X75466082Y-109790500D01*
X75466083Y-109790500D01*
X75613918Y-109790500D01*
X76082202Y-109790500D01*
X76149241Y-109810185D01*
X76182520Y-109841615D01*
X76215648Y-109887212D01*
X76215652Y-109887217D01*
X76360406Y-110031971D01*
X76447463Y-110095220D01*
X76526010Y-110152287D01*
X76625167Y-110202810D01*
X76708396Y-110245218D01*
X76708398Y-110245218D01*
X76708401Y-110245220D01*
X76812757Y-110279127D01*
X76903085Y-110308477D01*
X77004177Y-110324488D01*
X77105268Y-110340500D01*
X77105269Y-110340500D01*
X77309971Y-110340500D01*
X77309972Y-110340500D01*
X77512154Y-110308477D01*
X77706839Y-110245220D01*
X77889230Y-110152287D01*
X77982210Y-110084732D01*
X78054833Y-110031971D01*
X78054835Y-110031968D01*
X78054839Y-110031966D01*
X78199586Y-109887219D01*
X78199588Y-109887215D01*
X78199591Y-109887213D01*
X78274024Y-109784763D01*
X78319907Y-109721610D01*
X78412840Y-109539219D01*
X78476097Y-109344534D01*
X78508120Y-109142352D01*
X78508120Y-108937648D01*
X78495174Y-108855909D01*
X78476097Y-108735465D01*
X78427359Y-108585466D01*
X78412840Y-108540781D01*
X78412838Y-108540778D01*
X78412838Y-108540776D01*
X78354145Y-108425586D01*
X78319907Y-108358390D01*
X78264628Y-108282304D01*
X78199591Y-108192786D01*
X78054833Y-108048028D01*
X77889233Y-107927715D01*
X77889232Y-107927714D01*
X77889230Y-107927713D01*
X77830970Y-107898028D01*
X77706843Y-107834781D01*
X77512154Y-107771522D01*
X77337615Y-107743878D01*
X77309972Y-107739500D01*
X77105268Y-107739500D01*
X77080949Y-107743351D01*
X76903085Y-107771522D01*
X76708396Y-107834781D01*
X76526006Y-107927715D01*
X76360406Y-108048028D01*
X76215652Y-108192782D01*
X76215648Y-108192787D01*
X76182520Y-108238385D01*
X76178188Y-108241725D01*
X76175915Y-108246703D01*
X76150815Y-108262833D01*
X76127191Y-108281051D01*
X76120517Y-108282304D01*
X76117137Y-108284477D01*
X76082202Y-108289500D01*
X75902229Y-108289500D01*
X75835190Y-108269815D01*
X75814548Y-108253181D01*
X74286819Y-106725451D01*
X74253334Y-106664128D01*
X74250500Y-106637770D01*
X74250500Y-94388459D01*
X74221659Y-94243472D01*
X74221658Y-94243471D01*
X74221658Y-94243467D01*
X74195568Y-94180479D01*
X74165087Y-94106891D01*
X74165080Y-94106878D01*
X74082952Y-93983965D01*
X74053400Y-93954413D01*
X73978416Y-93879429D01*
X72473956Y-92374969D01*
X70915625Y-90816637D01*
X70882140Y-90755314D01*
X70885374Y-90690640D01*
X70936097Y-90534534D01*
X70968120Y-90332352D01*
X70968120Y-90127648D01*
X70943104Y-89969706D01*
X70936097Y-89925465D01*
X70887943Y-89777263D01*
X70872840Y-89730781D01*
X70872838Y-89730778D01*
X70872838Y-89730776D01*
X70823522Y-89633989D01*
X70779907Y-89548390D01*
X70772176Y-89537749D01*
X70659591Y-89382786D01*
X70514833Y-89238028D01*
X70349234Y-89117715D01*
X70342626Y-89114348D01*
X70256537Y-89070483D01*
X70205743Y-89022511D01*
X70188948Y-88954690D01*
X70211485Y-88888555D01*
X70256537Y-88849516D01*
X70349230Y-88802287D01*
X70405094Y-88761700D01*
X70514833Y-88681971D01*
X70514835Y-88681968D01*
X70514839Y-88681966D01*
X70659586Y-88537219D01*
X70677190Y-88512989D01*
X70692720Y-88491615D01*
X70748049Y-88448949D01*
X70793038Y-88440500D01*
X72245390Y-88440500D01*
X72312429Y-88460185D01*
X72333071Y-88476819D01*
X76131146Y-92274894D01*
X76164631Y-92336217D01*
X76165938Y-92381972D01*
X76157120Y-92437648D01*
X76157120Y-92642352D01*
X76160426Y-92663222D01*
X76189142Y-92844534D01*
X76252401Y-93039223D01*
X76345333Y-93221610D01*
X76433439Y-93342877D01*
X76456918Y-93408681D01*
X76457120Y-93415761D01*
X76457120Y-97754582D01*
X76437435Y-97821621D01*
X76406005Y-97854900D01*
X76360407Y-97888028D01*
X76360402Y-97888032D01*
X76215648Y-98032786D01*
X76095335Y-98198386D01*
X76002401Y-98380776D01*
X75939142Y-98575465D01*
X75911845Y-98747815D01*
X75907120Y-98777648D01*
X75907120Y-98982352D01*
X75911097Y-99007460D01*
X75939142Y-99184534D01*
X76002401Y-99379223D01*
X76047073Y-99466895D01*
X76089858Y-99550865D01*
X76095335Y-99561613D01*
X76215648Y-99727213D01*
X76360406Y-99871971D01*
X76515369Y-99984556D01*
X76526010Y-99992287D01*
X76642227Y-100051503D01*
X76708396Y-100085218D01*
X76708398Y-100085218D01*
X76708401Y-100085220D01*
X76786159Y-100110485D01*
X76903085Y-100148477D01*
X76961411Y-100157715D01*
X77105268Y-100180500D01*
X77105269Y-100180500D01*
X77309971Y-100180500D01*
X77309972Y-100180500D01*
X77512154Y-100148477D01*
X77706839Y-100085220D01*
X77889230Y-99992287D01*
X77982210Y-99924732D01*
X78054833Y-99871971D01*
X78054835Y-99871968D01*
X78054839Y-99871966D01*
X78199586Y-99727219D01*
X78199588Y-99727215D01*
X78199591Y-99727213D01*
X78252352Y-99654590D01*
X78319907Y-99561610D01*
X78412840Y-99379219D01*
X78476097Y-99184534D01*
X78508120Y-98982352D01*
X78508120Y-98777648D01*
X78494606Y-98692326D01*
X78476097Y-98575465D01*
X78439347Y-98462361D01*
X78412840Y-98380781D01*
X78412838Y-98380778D01*
X78412838Y-98380776D01*
X78354083Y-98265465D01*
X78319907Y-98198390D01*
X78288721Y-98155466D01*
X78199591Y-98032786D01*
X78054837Y-97888032D01*
X78054832Y-97888028D01*
X78009235Y-97854900D01*
X77966569Y-97799571D01*
X77958120Y-97754582D01*
X77958120Y-93820554D01*
X77977805Y-93753515D01*
X78025826Y-93710069D01*
X78040365Y-93702661D01*
X78139230Y-93652287D01*
X78214860Y-93597339D01*
X78304833Y-93531971D01*
X78304835Y-93531968D01*
X78304839Y-93531966D01*
X78449586Y-93387219D01*
X78449588Y-93387215D01*
X78449591Y-93387213D01*
X78535314Y-93269223D01*
X78569907Y-93221610D01*
X78662840Y-93039219D01*
X78726097Y-92844534D01*
X78758120Y-92642352D01*
X78758120Y-92437648D01*
X78748748Y-92378477D01*
X78726097Y-92235465D01*
X78662838Y-92040776D01*
X78602718Y-91922786D01*
X78569907Y-91858390D01*
X78542171Y-91820214D01*
X78449591Y-91692786D01*
X78304833Y-91548028D01*
X78139233Y-91427715D01*
X78139232Y-91427714D01*
X78139230Y-91427713D01*
X78082273Y-91398691D01*
X77956843Y-91334781D01*
X77762154Y-91271522D01*
X77587615Y-91243878D01*
X77559972Y-91239500D01*
X77355268Y-91239500D01*
X77299592Y-91248318D01*
X77230299Y-91239363D01*
X77192514Y-91213526D01*
X73086041Y-87107052D01*
X73086034Y-87107046D01*
X73012349Y-87057812D01*
X73012349Y-87057813D01*
X72963111Y-87024913D01*
X72826537Y-86968343D01*
X72826527Y-86968340D01*
X72681540Y-86939500D01*
X72681538Y-86939500D01*
X70793038Y-86939500D01*
X70725999Y-86919815D01*
X70692720Y-86888385D01*
X70659591Y-86842787D01*
X70659587Y-86842782D01*
X70514833Y-86698028D01*
X70349234Y-86577715D01*
X70342504Y-86574286D01*
X70256537Y-86530483D01*
X70205743Y-86482511D01*
X70188948Y-86414690D01*
X70211485Y-86348555D01*
X70256537Y-86309516D01*
X70349230Y-86262287D01*
X70416819Y-86213181D01*
X70514833Y-86141971D01*
X70514835Y-86141968D01*
X70514839Y-86141966D01*
X70659586Y-85997219D01*
X70659588Y-85997215D01*
X70659591Y-85997213D01*
X70712352Y-85924590D01*
X70779907Y-85831610D01*
X70872840Y-85649219D01*
X70936097Y-85454534D01*
X70968120Y-85252352D01*
X70968120Y-85047648D01*
X70946697Y-84912393D01*
X70936097Y-84845465D01*
X70902499Y-84742063D01*
X70872840Y-84650781D01*
X70872838Y-84650778D01*
X70872838Y-84650776D01*
X70815192Y-84537641D01*
X70779907Y-84468390D01*
X70740371Y-84413973D01*
X70659591Y-84302786D01*
X70514833Y-84158028D01*
X70349233Y-84037715D01*
X70349232Y-84037714D01*
X70349230Y-84037713D01*
X70290295Y-84007684D01*
X70166843Y-83944781D01*
X69972154Y-83881522D01*
X69797615Y-83853878D01*
X69769972Y-83849500D01*
X68765268Y-83849500D01*
X68740949Y-83853351D01*
X68563085Y-83881522D01*
X68368396Y-83944781D01*
X68186006Y-84037715D01*
X68020406Y-84158028D01*
X67875648Y-84302786D01*
X67755335Y-84468386D01*
X67662401Y-84650776D01*
X67599142Y-84845465D01*
X67567120Y-85047648D01*
X67567120Y-85252351D01*
X67599142Y-85454534D01*
X67662401Y-85649223D01*
X67755335Y-85831613D01*
X67875648Y-85997213D01*
X68020406Y-86141971D01*
X68152993Y-86238299D01*
X68186010Y-86262287D01*
X68277460Y-86308883D01*
X68278700Y-86309515D01*
X68329496Y-86357490D01*
X68346291Y-86425311D01*
X68323754Y-86491446D01*
X68278700Y-86530485D01*
X68186006Y-86577715D01*
X68020406Y-86698028D01*
X67875648Y-86842786D01*
X67755335Y-87008386D01*
X67662401Y-87190776D01*
X67633546Y-87279584D01*
X67594108Y-87337259D01*
X67529749Y-87364457D01*
X67460903Y-87352542D01*
X67427934Y-87328946D01*
X67206041Y-87107052D01*
X67206034Y-87107046D01*
X67132349Y-87057812D01*
X67132349Y-87057813D01*
X67083111Y-87024913D01*
X66946537Y-86968343D01*
X66946527Y-86968340D01*
X66801540Y-86939500D01*
X66801538Y-86939500D01*
X63173038Y-86939500D01*
X63105999Y-86919815D01*
X63072720Y-86888385D01*
X63039591Y-86842787D01*
X63039587Y-86842782D01*
X62894837Y-86698032D01*
X62894832Y-86698028D01*
X62800671Y-86629616D01*
X62758005Y-86574286D01*
X62752026Y-86504673D01*
X62784632Y-86442878D01*
X62834553Y-86411592D01*
X62916737Y-86384359D01*
X62916744Y-86384356D01*
X63065965Y-86292315D01*
X63189935Y-86168345D01*
X63281976Y-86019124D01*
X63281978Y-86019119D01*
X63337125Y-85852697D01*
X63337126Y-85852690D01*
X63347619Y-85749986D01*
X63347620Y-85749973D01*
X63347620Y-85400000D01*
X61963306Y-85400000D01*
X61967700Y-85395606D01*
X62020361Y-85304394D01*
X62047620Y-85202661D01*
X62047620Y-85097339D01*
X62020361Y-84995606D01*
X61967700Y-84904394D01*
X61963306Y-84900000D01*
X63347619Y-84900000D01*
X63347619Y-84708348D01*
X63367304Y-84641309D01*
X63420108Y-84595554D01*
X63489266Y-84585610D01*
X63552822Y-84614635D01*
X63559300Y-84620667D01*
X64527185Y-85588552D01*
X64560670Y-85649875D01*
X64561121Y-85652042D01*
X64586025Y-85777243D01*
X64586027Y-85777251D01*
X64657676Y-85950228D01*
X64657681Y-85950237D01*
X64761697Y-86105907D01*
X64761700Y-86105911D01*
X64894088Y-86238299D01*
X64894092Y-86238302D01*
X65049762Y-86342318D01*
X65049771Y-86342323D01*
X65080905Y-86355219D01*
X65222749Y-86413973D01*
X65388381Y-86446919D01*
X65406379Y-86450499D01*
X65406383Y-86450500D01*
X65406384Y-86450500D01*
X65593617Y-86450500D01*
X65593618Y-86450499D01*
X65777251Y-86413973D01*
X65950231Y-86342322D01*
X66105908Y-86238302D01*
X66238302Y-86105908D01*
X66342322Y-85950231D01*
X66413973Y-85777251D01*
X66450500Y-85593616D01*
X66450500Y-85406384D01*
X66413973Y-85222749D01*
X66342322Y-85049769D01*
X66342321Y-85049768D01*
X66342318Y-85049762D01*
X66238302Y-84894092D01*
X66238299Y-84894088D01*
X66105911Y-84761700D01*
X66105907Y-84761697D01*
X65950237Y-84657681D01*
X65950228Y-84657676D01*
X65777251Y-84586027D01*
X65777243Y-84586025D01*
X65652042Y-84561121D01*
X65590131Y-84528736D01*
X65588552Y-84527185D01*
X63421825Y-82360457D01*
X63339016Y-82277648D01*
X76157120Y-82277648D01*
X76157120Y-82482351D01*
X76189142Y-82684534D01*
X76252401Y-82879223D01*
X76316311Y-83004653D01*
X76339296Y-83049762D01*
X76345335Y-83061613D01*
X76465648Y-83227213D01*
X76610406Y-83371971D01*
X76728106Y-83457483D01*
X76776010Y-83492287D01*
X76892227Y-83551503D01*
X76958396Y-83585218D01*
X76958398Y-83585218D01*
X76958401Y-83585220D01*
X76984254Y-83593620D01*
X77153085Y-83648477D01*
X77237575Y-83661859D01*
X77355268Y-83680500D01*
X77355269Y-83680500D01*
X77559971Y-83680500D01*
X77559972Y-83680500D01*
X77762154Y-83648477D01*
X77956839Y-83585220D01*
X78139230Y-83492287D01*
X78232210Y-83424732D01*
X78304833Y-83371971D01*
X78304835Y-83371968D01*
X78304839Y-83371966D01*
X78449586Y-83227219D01*
X78449588Y-83227215D01*
X78449591Y-83227213D01*
X78502352Y-83154590D01*
X78569907Y-83061610D01*
X78662840Y-82879219D01*
X78726097Y-82684534D01*
X78758120Y-82482352D01*
X78758120Y-82277648D01*
X78726097Y-82075466D01*
X78724166Y-82069524D01*
X78669247Y-81900500D01*
X78662840Y-81880781D01*
X78662838Y-81880778D01*
X78662838Y-81880776D01*
X78611395Y-81779815D01*
X78569907Y-81698390D01*
X78538677Y-81655405D01*
X78449591Y-81532786D01*
X78304833Y-81388028D01*
X78139233Y-81267715D01*
X78139232Y-81267714D01*
X78139230Y-81267713D01*
X78043455Y-81218913D01*
X77956843Y-81174781D01*
X77762154Y-81111522D01*
X77587615Y-81083878D01*
X77559972Y-81079500D01*
X77355268Y-81079500D01*
X77330949Y-81083351D01*
X77153085Y-81111522D01*
X76958396Y-81174781D01*
X76776006Y-81267715D01*
X76610406Y-81388028D01*
X76465648Y-81532786D01*
X76345335Y-81698386D01*
X76252401Y-81880776D01*
X76189142Y-82075465D01*
X76157120Y-82277648D01*
X63339016Y-82277648D01*
X62478421Y-81417052D01*
X62478414Y-81417046D01*
X62404729Y-81367812D01*
X62404729Y-81367813D01*
X62355491Y-81334913D01*
X62218917Y-81278343D01*
X62218907Y-81278340D01*
X62073920Y-81249500D01*
X62073918Y-81249500D01*
X60573918Y-81249500D01*
X60362229Y-81249500D01*
X60295190Y-81229815D01*
X60274548Y-81213181D01*
X59786819Y-80725451D01*
X59772115Y-80698523D01*
X59755523Y-80672705D01*
X59754631Y-80666504D01*
X59753334Y-80664128D01*
X59750500Y-80637770D01*
X59750500Y-79357682D01*
X61407620Y-79357682D01*
X61407620Y-79562317D01*
X61439629Y-79764417D01*
X61502864Y-79959031D01*
X61595761Y-80141350D01*
X61595767Y-80141359D01*
X61628143Y-80185921D01*
X61628144Y-80185922D01*
X62307620Y-79506446D01*
X62307620Y-79512661D01*
X62334879Y-79614394D01*
X62387540Y-79705606D01*
X62462014Y-79780080D01*
X62553226Y-79832741D01*
X62654959Y-79860000D01*
X62661173Y-79860000D01*
X61981696Y-80539474D01*
X62026270Y-80571859D01*
X62208588Y-80664755D01*
X62403202Y-80727990D01*
X62605303Y-80760000D01*
X62809937Y-80760000D01*
X63012037Y-80727990D01*
X63206651Y-80664755D01*
X63388969Y-80571859D01*
X63433541Y-80539474D01*
X62754067Y-79860000D01*
X62760281Y-79860000D01*
X62862014Y-79832741D01*
X62953226Y-79780080D01*
X63027700Y-79705606D01*
X63080361Y-79614394D01*
X63107620Y-79512661D01*
X63107620Y-79506447D01*
X63787094Y-80185921D01*
X63819479Y-80141349D01*
X63912375Y-79959031D01*
X63975610Y-79764417D01*
X64007620Y-79562317D01*
X64007620Y-79357682D01*
X63975610Y-79155582D01*
X63912375Y-78960968D01*
X63819479Y-78778650D01*
X63787094Y-78734077D01*
X63787094Y-78734076D01*
X63107620Y-79413551D01*
X63107620Y-79407339D01*
X63080361Y-79305606D01*
X63027700Y-79214394D01*
X62953226Y-79139920D01*
X62862014Y-79087259D01*
X62760281Y-79060000D01*
X62754066Y-79060000D01*
X63433542Y-78380524D01*
X63433541Y-78380523D01*
X63388979Y-78348147D01*
X63388970Y-78348141D01*
X63206651Y-78255244D01*
X63012037Y-78192009D01*
X62809937Y-78160000D01*
X62605303Y-78160000D01*
X62403202Y-78192009D01*
X62208588Y-78255244D01*
X62026264Y-78348143D01*
X61981697Y-78380523D01*
X61981697Y-78380524D01*
X62661174Y-79060000D01*
X62654959Y-79060000D01*
X62553226Y-79087259D01*
X62462014Y-79139920D01*
X62387540Y-79214394D01*
X62334879Y-79305606D01*
X62307620Y-79407339D01*
X62307620Y-79413553D01*
X61628144Y-78734077D01*
X61628143Y-78734077D01*
X61595763Y-78778644D01*
X61502864Y-78960968D01*
X61439629Y-79155582D01*
X61407620Y-79357682D01*
X59750500Y-79357682D01*
X59750500Y-73828843D01*
X59770185Y-73761804D01*
X59822989Y-73716049D01*
X59892147Y-73706105D01*
X59955703Y-73735130D01*
X59974818Y-73755958D01*
X60055648Y-73867213D01*
X60200406Y-74011971D01*
X60355369Y-74124556D01*
X60366010Y-74132287D01*
X60482227Y-74191503D01*
X60548396Y-74225218D01*
X60548398Y-74225218D01*
X60548401Y-74225220D01*
X60652757Y-74259127D01*
X60743085Y-74288477D01*
X60818995Y-74300500D01*
X60945268Y-74320500D01*
X60945269Y-74320500D01*
X61949971Y-74320500D01*
X61949972Y-74320500D01*
X62152154Y-74288477D01*
X62346839Y-74225220D01*
X62529230Y-74132287D01*
X62644272Y-74048705D01*
X62694833Y-74011971D01*
X62694835Y-74011968D01*
X62694839Y-74011966D01*
X62839586Y-73867219D01*
X62839588Y-73867215D01*
X62839591Y-73867213D01*
X62935553Y-73735130D01*
X62959907Y-73701610D01*
X63052840Y-73519219D01*
X63116097Y-73324534D01*
X63148120Y-73122352D01*
X63148120Y-72917648D01*
X63116097Y-72715466D01*
X63113902Y-72708712D01*
X63082081Y-72610776D01*
X63065374Y-72559359D01*
X63063380Y-72489519D01*
X63095623Y-72433363D01*
X67227936Y-68301049D01*
X67289257Y-68267566D01*
X67358949Y-68272550D01*
X67414882Y-68314422D01*
X67433544Y-68350411D01*
X67462400Y-68439219D01*
X67535634Y-68582949D01*
X67555335Y-68621613D01*
X67675648Y-68787213D01*
X67820406Y-68931971D01*
X67944276Y-69021966D01*
X67986010Y-69052287D01*
X68077460Y-69098883D01*
X68078700Y-69099515D01*
X68129496Y-69147490D01*
X68146291Y-69215311D01*
X68123754Y-69281446D01*
X68078700Y-69320485D01*
X67986006Y-69367715D01*
X67820406Y-69488028D01*
X67675648Y-69632786D01*
X67555335Y-69798386D01*
X67462401Y-69980776D01*
X67399142Y-70175465D01*
X67367120Y-70377648D01*
X67367120Y-70582351D01*
X67399142Y-70784534D01*
X67462401Y-70979223D01*
X67555335Y-71161613D01*
X67675648Y-71327213D01*
X67820406Y-71471971D01*
X67936348Y-71556206D01*
X67986010Y-71592287D01*
X68077460Y-71638883D01*
X68078700Y-71639515D01*
X68129496Y-71687490D01*
X68146291Y-71755311D01*
X68123754Y-71821446D01*
X68078700Y-71860485D01*
X67986006Y-71907715D01*
X67820406Y-72028028D01*
X67675648Y-72172786D01*
X67555335Y-72338386D01*
X67462401Y-72520776D01*
X67399142Y-72715465D01*
X67367120Y-72917648D01*
X67367120Y-73122351D01*
X67399143Y-73324535D01*
X67399143Y-73324538D01*
X67449863Y-73480638D01*
X67451858Y-73550479D01*
X67419614Y-73606637D01*
X67124666Y-73901586D01*
X67106081Y-73929401D01*
X67087495Y-73957219D01*
X67042539Y-74024499D01*
X67042532Y-74024511D01*
X66985963Y-74161082D01*
X66985960Y-74161092D01*
X66957120Y-74306079D01*
X66957120Y-78334582D01*
X66937435Y-78401621D01*
X66906005Y-78434900D01*
X66860407Y-78468028D01*
X66860402Y-78468032D01*
X66715648Y-78612786D01*
X66595335Y-78778386D01*
X66502401Y-78960776D01*
X66439142Y-79155465D01*
X66407120Y-79357648D01*
X66407120Y-79562351D01*
X66439142Y-79764534D01*
X66502401Y-79959223D01*
X66537660Y-80028421D01*
X66595205Y-80141359D01*
X66595335Y-80141613D01*
X66715648Y-80307213D01*
X66860406Y-80451971D01*
X66980846Y-80539474D01*
X67026010Y-80572287D01*
X67142227Y-80631503D01*
X67208396Y-80665218D01*
X67208398Y-80665218D01*
X67208401Y-80665220D01*
X67281995Y-80689132D01*
X67403085Y-80728477D01*
X67504177Y-80744488D01*
X67605268Y-80760500D01*
X67605269Y-80760500D01*
X67809971Y-80760500D01*
X67809972Y-80760500D01*
X68012154Y-80728477D01*
X68206839Y-80665220D01*
X68389230Y-80572287D01*
X68482210Y-80504732D01*
X68554833Y-80451971D01*
X68554835Y-80451968D01*
X68554839Y-80451966D01*
X68699586Y-80307219D01*
X68699588Y-80307215D01*
X68699591Y-80307213D01*
X68752352Y-80234590D01*
X68819907Y-80141610D01*
X68912840Y-79959219D01*
X68976097Y-79764534D01*
X69008120Y-79562352D01*
X69008120Y-79357648D01*
X68989349Y-79239132D01*
X68976097Y-79155465D01*
X68941669Y-79049508D01*
X68912840Y-78960781D01*
X68912838Y-78960778D01*
X68912838Y-78960776D01*
X68820039Y-78778650D01*
X68819907Y-78778390D01*
X68787712Y-78734077D01*
X68699591Y-78612786D01*
X68554837Y-78468032D01*
X68554832Y-78468028D01*
X68509235Y-78434900D01*
X68466569Y-78379571D01*
X68458120Y-78334582D01*
X68458120Y-75187648D01*
X76157120Y-75187648D01*
X76157120Y-75392351D01*
X76189142Y-75594534D01*
X76252401Y-75789223D01*
X76345335Y-75971613D01*
X76465648Y-76137213D01*
X76610406Y-76281971D01*
X76765369Y-76394556D01*
X76776010Y-76402287D01*
X76892227Y-76461503D01*
X76958396Y-76495218D01*
X76958398Y-76495218D01*
X76958401Y-76495220D01*
X77062757Y-76529127D01*
X77153085Y-76558477D01*
X77254177Y-76574488D01*
X77355268Y-76590500D01*
X77355269Y-76590500D01*
X77559971Y-76590500D01*
X77559972Y-76590500D01*
X77762154Y-76558477D01*
X77956839Y-76495220D01*
X78139230Y-76402287D01*
X78232210Y-76334732D01*
X78304833Y-76281971D01*
X78304835Y-76281968D01*
X78304839Y-76281966D01*
X78449586Y-76137219D01*
X78449588Y-76137215D01*
X78449591Y-76137213D01*
X78502352Y-76064590D01*
X78569907Y-75971610D01*
X78662840Y-75789219D01*
X78726097Y-75594534D01*
X78758120Y-75392352D01*
X78758120Y-75187648D01*
X78726097Y-74985466D01*
X78662840Y-74790781D01*
X78662838Y-74790778D01*
X78662838Y-74790776D01*
X78603943Y-74675190D01*
X78569907Y-74608390D01*
X78562176Y-74597749D01*
X78449591Y-74442786D01*
X78304833Y-74298028D01*
X78139233Y-74177715D01*
X78139232Y-74177714D01*
X78139230Y-74177713D01*
X78050071Y-74132284D01*
X77956843Y-74084781D01*
X77762154Y-74021522D01*
X77587615Y-73993878D01*
X77559972Y-73989500D01*
X77355268Y-73989500D01*
X77330949Y-73993351D01*
X77153085Y-74021522D01*
X76958396Y-74084781D01*
X76776006Y-74177715D01*
X76610406Y-74298028D01*
X76465648Y-74442786D01*
X76345335Y-74608386D01*
X76252401Y-74790776D01*
X76189142Y-74985465D01*
X76157120Y-75187648D01*
X68458120Y-75187648D01*
X68458120Y-74742229D01*
X68477805Y-74675190D01*
X68494439Y-74654548D01*
X68792169Y-74356819D01*
X68853492Y-74323334D01*
X68879850Y-74320500D01*
X69569971Y-74320500D01*
X69569972Y-74320500D01*
X69772154Y-74288477D01*
X69966839Y-74225220D01*
X70149230Y-74132287D01*
X70264272Y-74048705D01*
X70314833Y-74011971D01*
X70314835Y-74011968D01*
X70314839Y-74011966D01*
X70459586Y-73867219D01*
X70459588Y-73867215D01*
X70459591Y-73867213D01*
X70555553Y-73735130D01*
X70579907Y-73701610D01*
X70672840Y-73519219D01*
X70736097Y-73324534D01*
X70768120Y-73122352D01*
X70768120Y-72917648D01*
X70736097Y-72715466D01*
X70733902Y-72708712D01*
X70702081Y-72610776D01*
X70672840Y-72520781D01*
X70672838Y-72520778D01*
X70672838Y-72520776D01*
X70615213Y-72407682D01*
X70579907Y-72338390D01*
X70572176Y-72327749D01*
X70459591Y-72172786D01*
X70314833Y-72028028D01*
X70149234Y-71907715D01*
X70142626Y-71904348D01*
X70056537Y-71860483D01*
X70005743Y-71812511D01*
X69988948Y-71744690D01*
X70011485Y-71678555D01*
X70056537Y-71639516D01*
X70149230Y-71592287D01*
X70198892Y-71556206D01*
X70314833Y-71471971D01*
X70314835Y-71471968D01*
X70314839Y-71471966D01*
X70459586Y-71327219D01*
X70459588Y-71327215D01*
X70459591Y-71327213D01*
X70544750Y-71210000D01*
X70579907Y-71161610D01*
X70672840Y-70979219D01*
X70736097Y-70784534D01*
X70768120Y-70582352D01*
X70768120Y-70377648D01*
X70736097Y-70175465D01*
X70672838Y-69980776D01*
X70625762Y-69888386D01*
X70579907Y-69798390D01*
X70524978Y-69722786D01*
X70459591Y-69632786D01*
X70314833Y-69488028D01*
X70149234Y-69367715D01*
X70142626Y-69364348D01*
X70056537Y-69320483D01*
X70005743Y-69272511D01*
X69988948Y-69204690D01*
X70011485Y-69138555D01*
X70056537Y-69099516D01*
X70149230Y-69052287D01*
X70190964Y-69021966D01*
X70314833Y-68931971D01*
X70314835Y-68931968D01*
X70314839Y-68931966D01*
X70459586Y-68787219D01*
X70462270Y-68783524D01*
X70492720Y-68741615D01*
X70548049Y-68698949D01*
X70593038Y-68690500D01*
X72181201Y-68690500D01*
X72228653Y-68699938D01*
X72281088Y-68721658D01*
X72281092Y-68721658D01*
X72281093Y-68721659D01*
X72426080Y-68750500D01*
X72426083Y-68750500D01*
X72573920Y-68750500D01*
X72671462Y-68731096D01*
X72718913Y-68721658D01*
X72794135Y-68690500D01*
X72855491Y-68665086D01*
X72855492Y-68665085D01*
X72855495Y-68665084D01*
X72978416Y-68582952D01*
X73082952Y-68478416D01*
X75644549Y-65916819D01*
X75705872Y-65883334D01*
X75732230Y-65880500D01*
X76332202Y-65880500D01*
X76399241Y-65900185D01*
X76432520Y-65931615D01*
X76465648Y-65977212D01*
X76465652Y-65977217D01*
X76610406Y-66121971D01*
X76738565Y-66215082D01*
X76776010Y-66242287D01*
X76892227Y-66301503D01*
X76958396Y-66335218D01*
X76958398Y-66335218D01*
X76958401Y-66335220D01*
X77043644Y-66362917D01*
X77153085Y-66398477D01*
X77254177Y-66414488D01*
X77355268Y-66430500D01*
X77355269Y-66430500D01*
X77559971Y-66430500D01*
X77559972Y-66430500D01*
X77762154Y-66398477D01*
X77956839Y-66335220D01*
X78139230Y-66242287D01*
X78236509Y-66171610D01*
X78304833Y-66121971D01*
X78304835Y-66121968D01*
X78304839Y-66121966D01*
X78449586Y-65977219D01*
X78449588Y-65977215D01*
X78449591Y-65977213D01*
X78534286Y-65860638D01*
X78569907Y-65811610D01*
X78662840Y-65629219D01*
X78726097Y-65434534D01*
X78758120Y-65232352D01*
X78758120Y-65027648D01*
X78726097Y-64825466D01*
X78720547Y-64808386D01*
X78684454Y-64697302D01*
X78662840Y-64630781D01*
X78662838Y-64630778D01*
X78662838Y-64630776D01*
X78629123Y-64564607D01*
X78569907Y-64448390D01*
X78553968Y-64426452D01*
X78449591Y-64282786D01*
X78304833Y-64138028D01*
X78139233Y-64017715D01*
X78139232Y-64017714D01*
X78139230Y-64017713D01*
X78082273Y-63988691D01*
X77956843Y-63924781D01*
X77762154Y-63861522D01*
X77587615Y-63833878D01*
X77559972Y-63829500D01*
X77355268Y-63829500D01*
X77330949Y-63833351D01*
X77153085Y-63861522D01*
X76958396Y-63924781D01*
X76776006Y-64017715D01*
X76610406Y-64138028D01*
X76465652Y-64282782D01*
X76465648Y-64282787D01*
X76432520Y-64328385D01*
X76377191Y-64371051D01*
X76332202Y-64379500D01*
X75296080Y-64379500D01*
X75151092Y-64408340D01*
X75151082Y-64408343D01*
X75014509Y-64464913D01*
X75014500Y-64464918D01*
X75004528Y-64471582D01*
X75004526Y-64471584D01*
X74891579Y-64547051D01*
X74891578Y-64547052D01*
X72285451Y-67153181D01*
X72224128Y-67186666D01*
X72197770Y-67189500D01*
X71178849Y-67189500D01*
X71111810Y-67169815D01*
X71066055Y-67117011D01*
X71056111Y-67047853D01*
X71085136Y-66984297D01*
X71091168Y-66977819D01*
X71301570Y-66767417D01*
X71301572Y-66767415D01*
X71346283Y-66700500D01*
X71383704Y-66644495D01*
X71407138Y-66587920D01*
X71440279Y-66507912D01*
X71469120Y-66362917D01*
X71469120Y-66215082D01*
X71469120Y-55544702D01*
X71463383Y-55515861D01*
X71440279Y-55399708D01*
X71386028Y-55268737D01*
X71384384Y-55264142D01*
X71301574Y-55140208D01*
X71301573Y-55140207D01*
X71301571Y-55140204D01*
X71197036Y-55035669D01*
X67836818Y-51675450D01*
X67803333Y-51614127D01*
X67800499Y-51587769D01*
X67800499Y-50552129D01*
X67800498Y-50552123D01*
X67800497Y-50552116D01*
X67794091Y-50492517D01*
X67743796Y-50357669D01*
X67743795Y-50357668D01*
X67743793Y-50357664D01*
X67657547Y-50242455D01*
X67657544Y-50242452D01*
X67542335Y-50156206D01*
X67542328Y-50156202D01*
X67407482Y-50105908D01*
X67407483Y-50105908D01*
X67347883Y-50099501D01*
X67347881Y-50099500D01*
X67347873Y-50099500D01*
X67347864Y-50099500D01*
X65652129Y-50099500D01*
X65652123Y-50099501D01*
X65592516Y-50105908D01*
X65457671Y-50156202D01*
X65457664Y-50156206D01*
X65342455Y-50242452D01*
X65342452Y-50242455D01*
X65256206Y-50357664D01*
X65256202Y-50357671D01*
X65205908Y-50492517D01*
X65199501Y-50552116D01*
X65199501Y-50552123D01*
X65199322Y-50555452D01*
X65197741Y-50555367D01*
X65179815Y-50616419D01*
X65127011Y-50662174D01*
X65083726Y-50669824D01*
X64400000Y-51353551D01*
X64400000Y-51347339D01*
X64372741Y-51245606D01*
X64320080Y-51154394D01*
X64245606Y-51079920D01*
X64154394Y-51027259D01*
X64052661Y-51000000D01*
X64046446Y-51000000D01*
X64725922Y-50320524D01*
X64725921Y-50320523D01*
X64681359Y-50288147D01*
X64681350Y-50288141D01*
X64499031Y-50195244D01*
X64304417Y-50132009D01*
X64102317Y-50100000D01*
X63897683Y-50100000D01*
X63695582Y-50132009D01*
X63500968Y-50195244D01*
X63318644Y-50288143D01*
X63274077Y-50320523D01*
X63274077Y-50320524D01*
X63953554Y-51000000D01*
X63947339Y-51000000D01*
X63845606Y-51027259D01*
X63754394Y-51079920D01*
X63679920Y-51154394D01*
X63627259Y-51245606D01*
X63600000Y-51347339D01*
X63600000Y-51353553D01*
X62920524Y-50674077D01*
X62920523Y-50674077D01*
X62888143Y-50718644D01*
X62795244Y-50900968D01*
X62732009Y-51095582D01*
X62700000Y-51297682D01*
X62700000Y-51502317D01*
X62732009Y-51704417D01*
X62795244Y-51899031D01*
X62888141Y-52081350D01*
X62888147Y-52081359D01*
X62920523Y-52125921D01*
X62920524Y-52125922D01*
X63600000Y-51446446D01*
X63600000Y-51452661D01*
X63627259Y-51554394D01*
X63679920Y-51645606D01*
X63754394Y-51720080D01*
X63845606Y-51772741D01*
X63947339Y-51800000D01*
X63953553Y-51800000D01*
X63274076Y-52479474D01*
X63318650Y-52511859D01*
X63500968Y-52604755D01*
X63695582Y-52667990D01*
X63897683Y-52700000D01*
X64102317Y-52700000D01*
X64304417Y-52667990D01*
X64499031Y-52604755D01*
X64681349Y-52511859D01*
X64725921Y-52479474D01*
X64046447Y-51800000D01*
X64052661Y-51800000D01*
X64154394Y-51772741D01*
X64245606Y-51720080D01*
X64320080Y-51645606D01*
X64372741Y-51554394D01*
X64400000Y-51452661D01*
X64400000Y-51446447D01*
X65084483Y-52130931D01*
X65134147Y-52141364D01*
X65183905Y-52190415D01*
X65198000Y-52244634D01*
X65199099Y-52244576D01*
X65199146Y-52244571D01*
X65199146Y-52244573D01*
X65199324Y-52244564D01*
X65199501Y-52247876D01*
X65205908Y-52307483D01*
X65256202Y-52442328D01*
X65256206Y-52442335D01*
X65342452Y-52557544D01*
X65342455Y-52557547D01*
X65457664Y-52643793D01*
X65457671Y-52643797D01*
X65592517Y-52694091D01*
X65592516Y-52694091D01*
X65599444Y-52694835D01*
X65652127Y-52700500D01*
X66687769Y-52700499D01*
X66754808Y-52720183D01*
X66775450Y-52736818D01*
X69931801Y-55893168D01*
X69965286Y-55954491D01*
X69968120Y-55980849D01*
X69968120Y-64024524D01*
X69948435Y-64091563D01*
X69895631Y-64137318D01*
X69826473Y-64147262D01*
X69805803Y-64142455D01*
X69772162Y-64131524D01*
X69772155Y-64131523D01*
X69633203Y-64109515D01*
X69569972Y-64099500D01*
X68565268Y-64099500D01*
X68540949Y-64103351D01*
X68363085Y-64131522D01*
X68168396Y-64194781D01*
X67986006Y-64287715D01*
X67820406Y-64408028D01*
X67675648Y-64552786D01*
X67555335Y-64718386D01*
X67462401Y-64900776D01*
X67399142Y-65095465D01*
X67367120Y-65297648D01*
X67367120Y-65502351D01*
X67399143Y-65704535D01*
X67399143Y-65704538D01*
X67449864Y-65860638D01*
X67451859Y-65930479D01*
X67419614Y-65986637D01*
X63287305Y-70118945D01*
X63225982Y-70152430D01*
X63156290Y-70147446D01*
X63100357Y-70105574D01*
X63081693Y-70069582D01*
X63052840Y-69980781D01*
X62959907Y-69798390D01*
X62904978Y-69722786D01*
X62839591Y-69632786D01*
X62694833Y-69488028D01*
X62529234Y-69367715D01*
X62522626Y-69364348D01*
X62436537Y-69320483D01*
X62385743Y-69272511D01*
X62368948Y-69204690D01*
X62391485Y-69138555D01*
X62436537Y-69099516D01*
X62529230Y-69052287D01*
X62570964Y-69021966D01*
X62694833Y-68931971D01*
X62694835Y-68931968D01*
X62694839Y-68931966D01*
X62839586Y-68787219D01*
X62839588Y-68787215D01*
X62839591Y-68787213D01*
X62928320Y-68665086D01*
X62959907Y-68621610D01*
X63052840Y-68439219D01*
X63116097Y-68244534D01*
X63148120Y-68042352D01*
X63148120Y-67837648D01*
X63116097Y-67635466D01*
X63116096Y-67635464D01*
X63052838Y-67440776D01*
X63005762Y-67348386D01*
X62959907Y-67258390D01*
X62904978Y-67182786D01*
X62839591Y-67092786D01*
X62694837Y-66948032D01*
X62694832Y-66948028D01*
X62600671Y-66879616D01*
X62558005Y-66824286D01*
X62552026Y-66754673D01*
X62584632Y-66692878D01*
X62634553Y-66661592D01*
X62716737Y-66634359D01*
X62716744Y-66634356D01*
X62865965Y-66542315D01*
X62989935Y-66418345D01*
X63081976Y-66269124D01*
X63081978Y-66269119D01*
X63137125Y-66102697D01*
X63137126Y-66102690D01*
X63147619Y-65999986D01*
X63147620Y-65999973D01*
X63147620Y-65650000D01*
X61763306Y-65650000D01*
X61767700Y-65645606D01*
X61820361Y-65554394D01*
X61847620Y-65452661D01*
X61847620Y-65347339D01*
X61820361Y-65245606D01*
X61767700Y-65154394D01*
X61763306Y-65150000D01*
X63147619Y-65150000D01*
X63147619Y-64800028D01*
X63147618Y-64800013D01*
X63137125Y-64697302D01*
X63081978Y-64530880D01*
X63081976Y-64530875D01*
X62989935Y-64381654D01*
X62865965Y-64257684D01*
X62716744Y-64165643D01*
X62716739Y-64165641D01*
X62550317Y-64110494D01*
X62550310Y-64110493D01*
X62447606Y-64100000D01*
X61697620Y-64100000D01*
X61697620Y-65084314D01*
X61693226Y-65079920D01*
X61602014Y-65027259D01*
X61500281Y-65000000D01*
X61394959Y-65000000D01*
X61293226Y-65027259D01*
X61202014Y-65079920D01*
X61197620Y-65084314D01*
X61197620Y-64100000D01*
X60447648Y-64100000D01*
X60447632Y-64100001D01*
X60344922Y-64110494D01*
X60178500Y-64165641D01*
X60178495Y-64165643D01*
X60029274Y-64257684D01*
X59905304Y-64381654D01*
X59813263Y-64530875D01*
X59813261Y-64530880D01*
X59758114Y-64697302D01*
X59758113Y-64697309D01*
X59747620Y-64800013D01*
X59747620Y-64879269D01*
X59727935Y-64946308D01*
X59675131Y-64992063D01*
X59605973Y-65002007D01*
X59542417Y-64972982D01*
X59535939Y-64966950D01*
X58187041Y-63618052D01*
X58187034Y-63618046D01*
X58113349Y-63568812D01*
X58113349Y-63568813D01*
X58064111Y-63535913D01*
X57927537Y-63479343D01*
X57927527Y-63479340D01*
X57782540Y-63450500D01*
X57782538Y-63450500D01*
X54863096Y-63450500D01*
X54796057Y-63430815D01*
X54750302Y-63378011D01*
X54740358Y-63308853D01*
X54745165Y-63288183D01*
X54756095Y-63254542D01*
X54756095Y-63254538D01*
X54756097Y-63254534D01*
X54788120Y-63052352D01*
X54788120Y-62847648D01*
X54782540Y-62812418D01*
X54756097Y-62645465D01*
X54692838Y-62450776D01*
X54659123Y-62384607D01*
X54599907Y-62268390D01*
X54544628Y-62192304D01*
X54479591Y-62102786D01*
X54334833Y-61958028D01*
X54169234Y-61837715D01*
X54162626Y-61834348D01*
X54076537Y-61790483D01*
X54025743Y-61742511D01*
X54008948Y-61674690D01*
X54031485Y-61608555D01*
X54076537Y-61569516D01*
X54169230Y-61522287D01*
X54196078Y-61502781D01*
X54334833Y-61401971D01*
X54334835Y-61401968D01*
X54334839Y-61401966D01*
X54479586Y-61257219D01*
X54479588Y-61257215D01*
X54479591Y-61257213D01*
X54561277Y-61144780D01*
X54599907Y-61091610D01*
X54692840Y-60909219D01*
X54756097Y-60714534D01*
X54788120Y-60512352D01*
X54788120Y-60307648D01*
X54786255Y-60295871D01*
X54756097Y-60105465D01*
X54692838Y-59910776D01*
X54630299Y-59788038D01*
X54599907Y-59728390D01*
X54548437Y-59657547D01*
X54479591Y-59562786D01*
X54334833Y-59418028D01*
X54169234Y-59297715D01*
X54083968Y-59254270D01*
X54076537Y-59250483D01*
X54025743Y-59202511D01*
X54008948Y-59134690D01*
X54031485Y-59068555D01*
X54076537Y-59029516D01*
X54169230Y-58982287D01*
X54224016Y-58942483D01*
X54334833Y-58861971D01*
X54334835Y-58861968D01*
X54334839Y-58861966D01*
X54479586Y-58717219D01*
X54479588Y-58717215D01*
X54479591Y-58717213D01*
X54584512Y-58572799D01*
X54599907Y-58551610D01*
X54692840Y-58369219D01*
X54756097Y-58174534D01*
X54788120Y-57972352D01*
X54788120Y-57767648D01*
X54756097Y-57565466D01*
X54730808Y-57487636D01*
X54726747Y-57475137D01*
X54692840Y-57370781D01*
X54692838Y-57370778D01*
X54692838Y-57370776D01*
X54641485Y-57269991D01*
X54599907Y-57188390D01*
X54566533Y-57142454D01*
X54479591Y-57022786D01*
X54334833Y-56878028D01*
X54169233Y-56757715D01*
X54169232Y-56757714D01*
X54169230Y-56757713D01*
X54109518Y-56727288D01*
X53986843Y-56664781D01*
X53792154Y-56601522D01*
X53617615Y-56573878D01*
X53589972Y-56569500D01*
X52585268Y-56569500D01*
X52560949Y-56573351D01*
X52383085Y-56601522D01*
X52188396Y-56664781D01*
X52006006Y-56757715D01*
X51840406Y-56878028D01*
X51695648Y-57022786D01*
X51575335Y-57188386D01*
X51482401Y-57370776D01*
X51419142Y-57565465D01*
X51387120Y-57767648D01*
X51387120Y-57972351D01*
X51419142Y-58174534D01*
X51482401Y-58369223D01*
X51533755Y-58470009D01*
X51572194Y-58545450D01*
X51575335Y-58551613D01*
X51695648Y-58717213D01*
X51840406Y-58861971D01*
X51951224Y-58942483D01*
X52006010Y-58982287D01*
X52097460Y-59028883D01*
X52098700Y-59029515D01*
X52149496Y-59077490D01*
X52166291Y-59145311D01*
X52143754Y-59211446D01*
X52098700Y-59250485D01*
X52006006Y-59297715D01*
X51840406Y-59418028D01*
X51695648Y-59562786D01*
X51575335Y-59728386D01*
X51482401Y-59910776D01*
X51419142Y-60105465D01*
X51387120Y-60307648D01*
X51387120Y-60512351D01*
X51419142Y-60714534D01*
X51482401Y-60909223D01*
X51546311Y-61034653D01*
X51570193Y-61081523D01*
X51575335Y-61091613D01*
X51695648Y-61257213D01*
X51840406Y-61401971D01*
X51979162Y-61502781D01*
X52006010Y-61522287D01*
X52097460Y-61568883D01*
X52098700Y-61569515D01*
X52149496Y-61617490D01*
X52166291Y-61685311D01*
X52143754Y-61751446D01*
X52098700Y-61790485D01*
X52006006Y-61837715D01*
X51840406Y-61958028D01*
X51695648Y-62102786D01*
X51575335Y-62268386D01*
X51482401Y-62450776D01*
X51453546Y-62539584D01*
X51414108Y-62597259D01*
X51349749Y-62624457D01*
X51280903Y-62612542D01*
X51247934Y-62588946D01*
X47204438Y-58545450D01*
X47170953Y-58484127D01*
X47168119Y-58457778D01*
X47168119Y-57269992D01*
X47166860Y-57257671D01*
X47157619Y-57167203D01*
X47157618Y-57167200D01*
X47149417Y-57142452D01*
X47102434Y-57000666D01*
X47010332Y-56851344D01*
X46886276Y-56727288D01*
X46736954Y-56635186D01*
X46570417Y-56580001D01*
X46570415Y-56580000D01*
X46467630Y-56569500D01*
X44467618Y-56569500D01*
X44467601Y-56569501D01*
X44364823Y-56580000D01*
X44364820Y-56580001D01*
X44198288Y-56635185D01*
X44198283Y-56635187D01*
X44048962Y-56727289D01*
X43924909Y-56851342D01*
X43832807Y-57000663D01*
X43832805Y-57000668D01*
X43825478Y-57022781D01*
X43777621Y-57167203D01*
X43777621Y-57167204D01*
X43777620Y-57167204D01*
X43767120Y-57269983D01*
X43767120Y-58470001D01*
X43767121Y-58470018D01*
X43777620Y-58572796D01*
X43777621Y-58572799D01*
X43825476Y-58717213D01*
X43832806Y-58739334D01*
X43924908Y-58888656D01*
X44048964Y-59012712D01*
X44198286Y-59104814D01*
X44280190Y-59131954D01*
X44287777Y-59137207D01*
X44296855Y-59138859D01*
X44316046Y-59156779D01*
X44337635Y-59171727D01*
X44341177Y-59180246D01*
X44347922Y-59186545D01*
X44354378Y-59211998D01*
X44364458Y-59236243D01*
X44362831Y-59245326D01*
X44365100Y-59254270D01*
X44356771Y-59279170D01*
X44352143Y-59305018D01*
X44345275Y-59313538D01*
X44342937Y-59320531D01*
X44324390Y-59339451D01*
X44318849Y-59346327D01*
X44316495Y-59348217D01*
X44220401Y-59418034D01*
X44182826Y-59455608D01*
X44177563Y-59459837D01*
X44151244Y-59470692D01*
X44126255Y-59484337D01*
X44119360Y-59483843D01*
X44112972Y-59486479D01*
X44084965Y-59481383D01*
X44056563Y-59479351D01*
X44049756Y-59474976D01*
X44044231Y-59473971D01*
X44035485Y-59465804D01*
X44012219Y-59450851D01*
X38936819Y-54375451D01*
X38903334Y-54314128D01*
X38900500Y-54287770D01*
X38900500Y-48417216D01*
X38920185Y-48350177D01*
X38962501Y-48309828D01*
X39080071Y-48241950D01*
X39253800Y-48108643D01*
X39408643Y-47953800D01*
X39541950Y-47780071D01*
X39651440Y-47590428D01*
X39735241Y-47388117D01*
X39791917Y-47176598D01*
X39820500Y-46959490D01*
X39820500Y-46740510D01*
X39820499Y-46740502D01*
X41479500Y-46740502D01*
X41479500Y-46959497D01*
X41498754Y-47105739D01*
X41508083Y-47176598D01*
X41517675Y-47212396D01*
X41564715Y-47387956D01*
X41564759Y-47388117D01*
X41648560Y-47590428D01*
X41648562Y-47590433D01*
X41648565Y-47590438D01*
X41758049Y-47780070D01*
X41891355Y-47953798D01*
X41891361Y-47953805D01*
X42046194Y-48108638D01*
X42046201Y-48108644D01*
X42219929Y-48241950D01*
X42409561Y-48351434D01*
X42409563Y-48351434D01*
X42409572Y-48351440D01*
X42611883Y-48435241D01*
X42823402Y-48491917D01*
X43040510Y-48520500D01*
X43040517Y-48520500D01*
X43259483Y-48520500D01*
X43259490Y-48520500D01*
X43476598Y-48491917D01*
X43688117Y-48435241D01*
X43824591Y-48378711D01*
X48149500Y-48378711D01*
X48149500Y-48621288D01*
X48181161Y-48861785D01*
X48243947Y-49096104D01*
X48317841Y-49274499D01*
X48336776Y-49320212D01*
X48458064Y-49530289D01*
X48458066Y-49530292D01*
X48458067Y-49530293D01*
X48605733Y-49722736D01*
X48605739Y-49722743D01*
X48777256Y-49894260D01*
X48777262Y-49894265D01*
X48969711Y-50041936D01*
X49179788Y-50163224D01*
X49403900Y-50256054D01*
X49638211Y-50318838D01*
X49818586Y-50342584D01*
X49878711Y-50350500D01*
X49878712Y-50350500D01*
X50121289Y-50350500D01*
X50169388Y-50344167D01*
X50361789Y-50318838D01*
X50596100Y-50256054D01*
X50602937Y-50253222D01*
X50602938Y-50253222D01*
X50668098Y-50226231D01*
X50820212Y-50163224D01*
X51030289Y-50041936D01*
X51222738Y-49894265D01*
X51394265Y-49722738D01*
X51541936Y-49530289D01*
X51663224Y-49320212D01*
X51756054Y-49096100D01*
X51818838Y-48861789D01*
X51850500Y-48621288D01*
X51850500Y-48378712D01*
X51818838Y-48138211D01*
X51756054Y-47903900D01*
X51663224Y-47679788D01*
X51541936Y-47469711D01*
X51394265Y-47277262D01*
X51394260Y-47277256D01*
X51222743Y-47105739D01*
X51222736Y-47105733D01*
X51030293Y-46958067D01*
X51030292Y-46958066D01*
X51030289Y-46958064D01*
X50820212Y-46836776D01*
X50820205Y-46836773D01*
X50596104Y-46743947D01*
X50361785Y-46681161D01*
X50121289Y-46649500D01*
X50121288Y-46649500D01*
X49878712Y-46649500D01*
X49878711Y-46649500D01*
X49638214Y-46681161D01*
X49403895Y-46743947D01*
X49179794Y-46836773D01*
X49179785Y-46836777D01*
X48969706Y-46958067D01*
X48777263Y-47105733D01*
X48777256Y-47105739D01*
X48605739Y-47277256D01*
X48605733Y-47277263D01*
X48458067Y-47469706D01*
X48336777Y-47679785D01*
X48336773Y-47679794D01*
X48243947Y-47903895D01*
X48181161Y-48138214D01*
X48149500Y-48378711D01*
X43824591Y-48378711D01*
X43890428Y-48351440D01*
X43939508Y-48323103D01*
X44036223Y-48267266D01*
X44067276Y-48249337D01*
X44080071Y-48241950D01*
X44253800Y-48108643D01*
X44408643Y-47953800D01*
X44541950Y-47780071D01*
X44651440Y-47590428D01*
X44735241Y-47388117D01*
X44791917Y-47176598D01*
X44820500Y-46959490D01*
X44820500Y-46740510D01*
X44791917Y-46523402D01*
X44735241Y-46311883D01*
X44680605Y-46179982D01*
X57899500Y-46179982D01*
X57899500Y-47980017D01*
X57910000Y-48082796D01*
X57962739Y-48241950D01*
X57965186Y-48249335D01*
X58057288Y-48398656D01*
X58181344Y-48522712D01*
X58330665Y-48614814D01*
X58497202Y-48669999D01*
X58599990Y-48680500D01*
X58599995Y-48680500D01*
X60400005Y-48680500D01*
X60400010Y-48680500D01*
X60502798Y-48669999D01*
X60669335Y-48614814D01*
X60818656Y-48522712D01*
X60942712Y-48398656D01*
X61034814Y-48249335D01*
X61089999Y-48082798D01*
X61100500Y-47980010D01*
X61100500Y-46179990D01*
X61089999Y-46077202D01*
X61034814Y-45910665D01*
X60942712Y-45761344D01*
X60818656Y-45637288D01*
X60669335Y-45545186D01*
X60502798Y-45490001D01*
X60502796Y-45490000D01*
X60400017Y-45479500D01*
X60400010Y-45479500D01*
X58599990Y-45479500D01*
X58599982Y-45479500D01*
X58497203Y-45490000D01*
X58497202Y-45490001D01*
X58414669Y-45517349D01*
X58330667Y-45545185D01*
X58330662Y-45545187D01*
X58181342Y-45637289D01*
X58057289Y-45761342D01*
X57965187Y-45910662D01*
X57965185Y-45910667D01*
X57962021Y-45920215D01*
X57910001Y-46077202D01*
X57910001Y-46077203D01*
X57910000Y-46077203D01*
X57899500Y-46179982D01*
X44680605Y-46179982D01*
X44651440Y-46109572D01*
X44632751Y-46077202D01*
X44541950Y-45919929D01*
X44408644Y-45746201D01*
X44408638Y-45746194D01*
X44253805Y-45591361D01*
X44253798Y-45591355D01*
X44080070Y-45458049D01*
X43890438Y-45348565D01*
X43890433Y-45348562D01*
X43890428Y-45348560D01*
X43688117Y-45264759D01*
X43688118Y-45264759D01*
X43688115Y-45264758D01*
X43582357Y-45236421D01*
X43476598Y-45208083D01*
X43440314Y-45203306D01*
X43259497Y-45179500D01*
X43259490Y-45179500D01*
X43040510Y-45179500D01*
X43040502Y-45179500D01*
X42833853Y-45206707D01*
X42823402Y-45208083D01*
X42778699Y-45220060D01*
X42611884Y-45264758D01*
X42493374Y-45313847D01*
X42409572Y-45348560D01*
X42409569Y-45348561D01*
X42409561Y-45348565D01*
X42219929Y-45458049D01*
X42046201Y-45591355D01*
X42046194Y-45591361D01*
X41891361Y-45746194D01*
X41891355Y-45746201D01*
X41758049Y-45919929D01*
X41648565Y-46109561D01*
X41648561Y-46109569D01*
X41648560Y-46109572D01*
X41613847Y-46193374D01*
X41564758Y-46311884D01*
X41552962Y-46355909D01*
X41516376Y-46492454D01*
X41508084Y-46523399D01*
X41508082Y-46523410D01*
X41479500Y-46740502D01*
X39820499Y-46740502D01*
X39791917Y-46523402D01*
X39735241Y-46311883D01*
X39651440Y-46109572D01*
X39632751Y-46077202D01*
X39541950Y-45919929D01*
X39408644Y-45746201D01*
X39408638Y-45746194D01*
X39253805Y-45591361D01*
X39253798Y-45591355D01*
X39080070Y-45458049D01*
X38890438Y-45348565D01*
X38890433Y-45348562D01*
X38890428Y-45348560D01*
X38688117Y-45264759D01*
X38688118Y-45264759D01*
X38688115Y-45264758D01*
X38582357Y-45236421D01*
X38476598Y-45208083D01*
X38440314Y-45203306D01*
X38259497Y-45179500D01*
X38259490Y-45179500D01*
X38040510Y-45179500D01*
X38040502Y-45179500D01*
X37833853Y-45206707D01*
X37823402Y-45208083D01*
X37778699Y-45220060D01*
X37611884Y-45264758D01*
X37493374Y-45313847D01*
X37409572Y-45348560D01*
X37409569Y-45348561D01*
X37409561Y-45348565D01*
X37219929Y-45458049D01*
X37046201Y-45591355D01*
X37046194Y-45591361D01*
X36891361Y-45746194D01*
X36891355Y-45746201D01*
X36758049Y-45919929D01*
X36648565Y-46109561D01*
X36648561Y-46109569D01*
X36648560Y-46109572D01*
X36613847Y-46193374D01*
X36564758Y-46311884D01*
X36552962Y-46355909D01*
X36516376Y-46492454D01*
X36508084Y-46523399D01*
X36508082Y-46523410D01*
X36479500Y-46740502D01*
X36479500Y-46959497D01*
X36498754Y-47105739D01*
X36508083Y-47176598D01*
X36517675Y-47212396D01*
X36564715Y-47387956D01*
X36564759Y-47388117D01*
X36648560Y-47590428D01*
X36648562Y-47590433D01*
X36648565Y-47590438D01*
X36758049Y-47780070D01*
X36891355Y-47953798D01*
X36891361Y-47953805D01*
X37046194Y-48108638D01*
X37046201Y-48108644D01*
X37219927Y-48241949D01*
X37337499Y-48309828D01*
X37385715Y-48360395D01*
X37399500Y-48417216D01*
X37399500Y-54723918D01*
X37399500Y-54723920D01*
X37399499Y-54723920D01*
X37428340Y-54868907D01*
X37428343Y-54868917D01*
X37484913Y-55005490D01*
X37484916Y-55005495D01*
X37505078Y-55035671D01*
X37505079Y-55035671D01*
X37567048Y-55128416D01*
X43327049Y-60888416D01*
X43431584Y-60992951D01*
X43431585Y-60992952D01*
X43554498Y-61075080D01*
X43554511Y-61075087D01*
X43691082Y-61131656D01*
X43691087Y-61131658D01*
X43691091Y-61131658D01*
X43691092Y-61131659D01*
X43836079Y-61160500D01*
X43836082Y-61160500D01*
X43836083Y-61160500D01*
X43942202Y-61160500D01*
X44009241Y-61180185D01*
X44042520Y-61211615D01*
X44075648Y-61257212D01*
X44075652Y-61257217D01*
X44220406Y-61401971D01*
X44359162Y-61502781D01*
X44386010Y-61522287D01*
X44477460Y-61568883D01*
X44478700Y-61569515D01*
X44529496Y-61617490D01*
X44546291Y-61685311D01*
X44523754Y-61751446D01*
X44478700Y-61790485D01*
X44386006Y-61837715D01*
X44220406Y-61958028D01*
X44075652Y-62102782D01*
X44075648Y-62102787D01*
X44042520Y-62148385D01*
X44038188Y-62151725D01*
X44035915Y-62156703D01*
X44010815Y-62172833D01*
X43987191Y-62191051D01*
X43980517Y-62192304D01*
X43977137Y-62194477D01*
X43942202Y-62199500D01*
X43912229Y-62199500D01*
X43845190Y-62179815D01*
X43824548Y-62163181D01*
X43428421Y-61767052D01*
X43428420Y-61767051D01*
X43343784Y-61710500D01*
X43343783Y-61710499D01*
X43305500Y-61684919D01*
X43305488Y-61684912D01*
X43168917Y-61628343D01*
X43168907Y-61628340D01*
X43023920Y-61599500D01*
X43023918Y-61599500D01*
X41573918Y-61599500D01*
X38193038Y-61599500D01*
X38125999Y-61579815D01*
X38092720Y-61548385D01*
X38059591Y-61502787D01*
X38059587Y-61502782D01*
X37914833Y-61358028D01*
X37749233Y-61237715D01*
X37749232Y-61237714D01*
X37749230Y-61237713D01*
X37692273Y-61208691D01*
X37566843Y-61144781D01*
X37372154Y-61081522D01*
X37197615Y-61053878D01*
X37169972Y-61049500D01*
X36965268Y-61049500D01*
X36940949Y-61053351D01*
X36763085Y-61081522D01*
X36568396Y-61144781D01*
X36386006Y-61237715D01*
X36220406Y-61358028D01*
X36075648Y-61502786D01*
X35955335Y-61668386D01*
X35862401Y-61850776D01*
X35799142Y-62045465D01*
X35767120Y-62247648D01*
X35767120Y-62452351D01*
X35799142Y-62654534D01*
X35862401Y-62849223D01*
X35912637Y-62947815D01*
X35943072Y-63007547D01*
X35955335Y-63031613D01*
X36075648Y-63197213D01*
X36220406Y-63341971D01*
X36339390Y-63428416D01*
X36386010Y-63462287D01*
X36502227Y-63521503D01*
X36568396Y-63555218D01*
X36568398Y-63555218D01*
X36568401Y-63555220D01*
X36672757Y-63589127D01*
X36763085Y-63618477D01*
X36846003Y-63631610D01*
X36965268Y-63650500D01*
X36965269Y-63650500D01*
X37169971Y-63650500D01*
X37169972Y-63650500D01*
X37372154Y-63618477D01*
X37566839Y-63555220D01*
X37749230Y-63462287D01*
X37865227Y-63378011D01*
X37914833Y-63341971D01*
X37914835Y-63341968D01*
X37914839Y-63341966D01*
X38059586Y-63197219D01*
X38077190Y-63172989D01*
X38092720Y-63151615D01*
X38148049Y-63108949D01*
X38193038Y-63100500D01*
X40625500Y-63100500D01*
X40692539Y-63120185D01*
X40738294Y-63172989D01*
X40749500Y-63224500D01*
X40749500Y-78255390D01*
X40729815Y-78322429D01*
X40713181Y-78343071D01*
X39339024Y-79717227D01*
X39277701Y-79750712D01*
X39231944Y-79752019D01*
X39216040Y-79749500D01*
X39216037Y-79749500D01*
X39019203Y-79749500D01*
X39019198Y-79749500D01*
X38824793Y-79780290D01*
X38637590Y-79841117D01*
X38462214Y-79930476D01*
X38422648Y-79959223D01*
X38302974Y-80046172D01*
X38302972Y-80046174D01*
X38302971Y-80046174D01*
X38163794Y-80185351D01*
X38163794Y-80185352D01*
X38163792Y-80185354D01*
X38114105Y-80253741D01*
X38048096Y-80344594D01*
X37958737Y-80519970D01*
X37897910Y-80707173D01*
X37867120Y-80901577D01*
X37867120Y-81098422D01*
X37897910Y-81292826D01*
X37958737Y-81480029D01*
X38041529Y-81642516D01*
X38048096Y-81655405D01*
X38163792Y-81814646D01*
X38302974Y-81953828D01*
X38462215Y-82069524D01*
X38545075Y-82111743D01*
X38637590Y-82158882D01*
X38637592Y-82158882D01*
X38637595Y-82158884D01*
X38737937Y-82191487D01*
X38824793Y-82219709D01*
X39019198Y-82250500D01*
X39019203Y-82250500D01*
X39216042Y-82250500D01*
X39410446Y-82219709D01*
X39597645Y-82158884D01*
X39773025Y-82069524D01*
X39932266Y-81953828D01*
X40071448Y-81814646D01*
X40187144Y-81655405D01*
X40276504Y-81480025D01*
X40337329Y-81292826D01*
X40341306Y-81267715D01*
X40368120Y-81098422D01*
X40368120Y-80901584D01*
X40368119Y-80901577D01*
X40365600Y-80885675D01*
X40374551Y-80816385D01*
X40400388Y-80778597D01*
X42082951Y-79096036D01*
X42114045Y-79049500D01*
X42165084Y-78973115D01*
X42170116Y-78960968D01*
X42221656Y-78836537D01*
X42221658Y-78836533D01*
X42242038Y-78734077D01*
X42250500Y-78691540D01*
X42250500Y-63224500D01*
X42253050Y-63215814D01*
X42251762Y-63206853D01*
X42262740Y-63182812D01*
X42270185Y-63157461D01*
X42277025Y-63151533D01*
X42280787Y-63143297D01*
X42303021Y-63129007D01*
X42322989Y-63111706D01*
X42333503Y-63109418D01*
X42339565Y-63105523D01*
X42374500Y-63100500D01*
X42587770Y-63100500D01*
X42654809Y-63120185D01*
X42675451Y-63136819D01*
X42826816Y-63288183D01*
X42967049Y-63428416D01*
X43071584Y-63532951D01*
X43071587Y-63532953D01*
X43071588Y-63532954D01*
X43194503Y-63615083D01*
X43194506Y-63615085D01*
X43277505Y-63649464D01*
X43331082Y-63671656D01*
X43331087Y-63671658D01*
X43331091Y-63671658D01*
X43331092Y-63671659D01*
X43476079Y-63700500D01*
X43476082Y-63700500D01*
X43623917Y-63700500D01*
X43942202Y-63700500D01*
X44009241Y-63720185D01*
X44042520Y-63751615D01*
X44075648Y-63797212D01*
X44075652Y-63797217D01*
X44220406Y-63941971D01*
X44324661Y-64017715D01*
X44386010Y-64062287D01*
X44459045Y-64099500D01*
X44478700Y-64109515D01*
X44529496Y-64157490D01*
X44546291Y-64225311D01*
X44523754Y-64291446D01*
X44478700Y-64330485D01*
X44386006Y-64377715D01*
X44220406Y-64498028D01*
X44075648Y-64642786D01*
X43955335Y-64808386D01*
X43862401Y-64990776D01*
X43799142Y-65185465D01*
X43767120Y-65387648D01*
X43767120Y-65592351D01*
X43799142Y-65794534D01*
X43862401Y-65989223D01*
X43955335Y-66171613D01*
X44075648Y-66337213D01*
X44220406Y-66481971D01*
X44366235Y-66587920D01*
X44386010Y-66602287D01*
X44448949Y-66634356D01*
X44478700Y-66649515D01*
X44529496Y-66697490D01*
X44546291Y-66765311D01*
X44523754Y-66831446D01*
X44478700Y-66870485D01*
X44386006Y-66917715D01*
X44220406Y-67038028D01*
X44075648Y-67182786D01*
X43955335Y-67348386D01*
X43862401Y-67530776D01*
X43799142Y-67725465D01*
X43767120Y-67927648D01*
X43767120Y-68132352D01*
X43771498Y-68159995D01*
X43799142Y-68334534D01*
X43862401Y-68529223D01*
X43909477Y-68621613D01*
X43949386Y-68699939D01*
X43955335Y-68711613D01*
X44075648Y-68877213D01*
X44220406Y-69021971D01*
X44375369Y-69134556D01*
X44386010Y-69142287D01*
X44477460Y-69188883D01*
X44478700Y-69189515D01*
X44529496Y-69237490D01*
X44546291Y-69305311D01*
X44523754Y-69371446D01*
X44478700Y-69410485D01*
X44386006Y-69457715D01*
X44220406Y-69578028D01*
X44075648Y-69722786D01*
X43955335Y-69888386D01*
X43862401Y-70070776D01*
X43799142Y-70265465D01*
X43767120Y-70467648D01*
X43767120Y-70672351D01*
X43799142Y-70874534D01*
X43862401Y-71069223D01*
X43955335Y-71251613D01*
X44075648Y-71417213D01*
X44220406Y-71561971D01*
X44375369Y-71674556D01*
X44386010Y-71682287D01*
X44477460Y-71728883D01*
X44478700Y-71729515D01*
X44529496Y-71777490D01*
X44546291Y-71845311D01*
X44523754Y-71911446D01*
X44478700Y-71950485D01*
X44386006Y-71997715D01*
X44220406Y-72118028D01*
X44075648Y-72262786D01*
X43955335Y-72428386D01*
X43862401Y-72610776D01*
X43799142Y-72805465D01*
X43767120Y-73007648D01*
X43767120Y-73212351D01*
X43799142Y-73414534D01*
X43862401Y-73609223D01*
X43909477Y-73701613D01*
X43948393Y-73777990D01*
X43955335Y-73791613D01*
X44075648Y-73957213D01*
X44220406Y-74101971D01*
X44324661Y-74177715D01*
X44386010Y-74222287D01*
X44502227Y-74281503D01*
X44568396Y-74315218D01*
X44568398Y-74315218D01*
X44568401Y-74315220D01*
X44672757Y-74349127D01*
X44763085Y-74378477D01*
X44864177Y-74394488D01*
X44965268Y-74410500D01*
X44965269Y-74410500D01*
X45969971Y-74410500D01*
X45969972Y-74410500D01*
X46172154Y-74378477D01*
X46366839Y-74315220D01*
X46549230Y-74222287D01*
X46650069Y-74149024D01*
X46714833Y-74101971D01*
X46714835Y-74101968D01*
X46714839Y-74101966D01*
X46859586Y-73957219D01*
X46859588Y-73957215D01*
X46859591Y-73957213D01*
X46924979Y-73867213D01*
X46979907Y-73791610D01*
X47072840Y-73609219D01*
X47136097Y-73414534D01*
X47168120Y-73212352D01*
X47168120Y-73007648D01*
X47143737Y-72853702D01*
X47136097Y-72805465D01*
X47072838Y-72610776D01*
X47039123Y-72544607D01*
X46979907Y-72428390D01*
X46931960Y-72362396D01*
X46859591Y-72262786D01*
X46714833Y-72118028D01*
X46549234Y-71997715D01*
X46542626Y-71994348D01*
X46456537Y-71950483D01*
X46405743Y-71902511D01*
X46388948Y-71834690D01*
X46411485Y-71768555D01*
X46456537Y-71729516D01*
X46549230Y-71682287D01*
X46570390Y-71666913D01*
X46714833Y-71561971D01*
X46714835Y-71561968D01*
X46714839Y-71561966D01*
X46859586Y-71417219D01*
X46859588Y-71417215D01*
X46859591Y-71417213D01*
X46940940Y-71305244D01*
X46979907Y-71251610D01*
X47072840Y-71069219D01*
X47136097Y-70874534D01*
X47168120Y-70672352D01*
X47168120Y-70467648D01*
X47136097Y-70265466D01*
X47072840Y-70070781D01*
X47072838Y-70070778D01*
X47072838Y-70070776D01*
X47039123Y-70004607D01*
X46979907Y-69888390D01*
X46914516Y-69798386D01*
X46859591Y-69722786D01*
X46714833Y-69578028D01*
X46549234Y-69457715D01*
X46542626Y-69454348D01*
X46456537Y-69410483D01*
X46405743Y-69362511D01*
X46388948Y-69294690D01*
X46411485Y-69228555D01*
X46456537Y-69189516D01*
X46549230Y-69142287D01*
X46608101Y-69099515D01*
X46714833Y-69021971D01*
X46714835Y-69021968D01*
X46714839Y-69021966D01*
X46859586Y-68877219D01*
X46859588Y-68877215D01*
X46859591Y-68877213D01*
X46958107Y-68741615D01*
X46979907Y-68711610D01*
X47072840Y-68529219D01*
X47136097Y-68334534D01*
X47168120Y-68132352D01*
X47168120Y-67927648D01*
X47136097Y-67725466D01*
X47072840Y-67530781D01*
X47072838Y-67530778D01*
X47072838Y-67530776D01*
X47039123Y-67464607D01*
X46979907Y-67348390D01*
X46914516Y-67258386D01*
X46859591Y-67182786D01*
X46714833Y-67038028D01*
X46549234Y-66917715D01*
X46542626Y-66914348D01*
X46456537Y-66870483D01*
X46405743Y-66822511D01*
X46388948Y-66754690D01*
X46411485Y-66688555D01*
X46456537Y-66649516D01*
X46549230Y-66602287D01*
X46631775Y-66542315D01*
X46714833Y-66481971D01*
X46714835Y-66481968D01*
X46714839Y-66481966D01*
X46859586Y-66337219D01*
X46859588Y-66337215D01*
X46859591Y-66337213D01*
X46912352Y-66264590D01*
X46979907Y-66171610D01*
X47072840Y-65989219D01*
X47136097Y-65794534D01*
X47168120Y-65592352D01*
X47168120Y-65387648D01*
X47148040Y-65260867D01*
X47136097Y-65185465D01*
X47084692Y-65027259D01*
X47072840Y-64990781D01*
X47072838Y-64990778D01*
X47072838Y-64990776D01*
X47032370Y-64911354D01*
X46979907Y-64808390D01*
X46899198Y-64697302D01*
X46859591Y-64642786D01*
X46714833Y-64498028D01*
X46549234Y-64377715D01*
X46528297Y-64367047D01*
X46456537Y-64330483D01*
X46405743Y-64282511D01*
X46388948Y-64214690D01*
X46411485Y-64148555D01*
X46456537Y-64109516D01*
X46549230Y-64062287D01*
X46610579Y-64017715D01*
X46714833Y-63941971D01*
X46714835Y-63941968D01*
X46714839Y-63941966D01*
X46859586Y-63797219D01*
X46859588Y-63797215D01*
X46859591Y-63797213D01*
X46929856Y-63700500D01*
X46979907Y-63631610D01*
X47072840Y-63449219D01*
X47136097Y-63254534D01*
X47168120Y-63052352D01*
X47168120Y-62847648D01*
X47162540Y-62812418D01*
X47136097Y-62645465D01*
X47072838Y-62450776D01*
X47039123Y-62384607D01*
X46979907Y-62268390D01*
X46924628Y-62192304D01*
X46859591Y-62102786D01*
X46714833Y-61958028D01*
X46549234Y-61837715D01*
X46542626Y-61834348D01*
X46456537Y-61790483D01*
X46405743Y-61742511D01*
X46388948Y-61674690D01*
X46411485Y-61608555D01*
X46456537Y-61569516D01*
X46549230Y-61522287D01*
X46576078Y-61502781D01*
X46714833Y-61401971D01*
X46714835Y-61401968D01*
X46714839Y-61401966D01*
X46859586Y-61257219D01*
X46859588Y-61257215D01*
X46859591Y-61257213D01*
X46941277Y-61144780D01*
X46979907Y-61091610D01*
X47072840Y-60909219D01*
X47101694Y-60820413D01*
X47141130Y-60762741D01*
X47205488Y-60735542D01*
X47274335Y-60747456D01*
X47307305Y-60771053D01*
X51320206Y-64783954D01*
X51344264Y-64800028D01*
X51393890Y-64833186D01*
X51425577Y-64854358D01*
X51430640Y-64857742D01*
X51445848Y-64875941D01*
X51475442Y-64911354D01*
X51475442Y-64911356D01*
X51475443Y-64911357D01*
X51478892Y-64938827D01*
X51484148Y-64980680D01*
X51479676Y-64999160D01*
X51419143Y-65185461D01*
X51419143Y-65185464D01*
X51387120Y-65387648D01*
X51387120Y-65592351D01*
X51419142Y-65794534D01*
X51482401Y-65989223D01*
X51575335Y-66171613D01*
X51695648Y-66337213D01*
X51840406Y-66481971D01*
X51986235Y-66587920D01*
X52006010Y-66602287D01*
X52068949Y-66634356D01*
X52098700Y-66649515D01*
X52149496Y-66697490D01*
X52166291Y-66765311D01*
X52143754Y-66831446D01*
X52098700Y-66870485D01*
X52006006Y-66917715D01*
X51840406Y-67038028D01*
X51695648Y-67182786D01*
X51575335Y-67348386D01*
X51482401Y-67530776D01*
X51419142Y-67725465D01*
X51387120Y-67927648D01*
X51387120Y-68132352D01*
X51391498Y-68159995D01*
X51419142Y-68334534D01*
X51482401Y-68529223D01*
X51529477Y-68621613D01*
X51569386Y-68699939D01*
X51575335Y-68711613D01*
X51695648Y-68877213D01*
X51840406Y-69021971D01*
X51995369Y-69134556D01*
X52006010Y-69142287D01*
X52097460Y-69188883D01*
X52098700Y-69189515D01*
X52149496Y-69237490D01*
X52166291Y-69305311D01*
X52143754Y-69371446D01*
X52098700Y-69410485D01*
X52006006Y-69457715D01*
X51840406Y-69578028D01*
X51695648Y-69722786D01*
X51575335Y-69888386D01*
X51482401Y-70070776D01*
X51419142Y-70265465D01*
X51387120Y-70467648D01*
X51387120Y-70672351D01*
X51419142Y-70874534D01*
X51482401Y-71069223D01*
X51575335Y-71251613D01*
X51695648Y-71417213D01*
X51840406Y-71561971D01*
X51995369Y-71674556D01*
X52006010Y-71682287D01*
X52097460Y-71728883D01*
X52098700Y-71729515D01*
X52149496Y-71777490D01*
X52166291Y-71845311D01*
X52143754Y-71911446D01*
X52098700Y-71950485D01*
X52006006Y-71997715D01*
X51840406Y-72118028D01*
X51695648Y-72262786D01*
X51575335Y-72428386D01*
X51482401Y-72610776D01*
X51419142Y-72805465D01*
X51387120Y-73007648D01*
X51387120Y-73212351D01*
X51419142Y-73414534D01*
X51482401Y-73609223D01*
X51529477Y-73701613D01*
X51568393Y-73777990D01*
X51575335Y-73791613D01*
X51695648Y-73957213D01*
X51840406Y-74101971D01*
X51944661Y-74177715D01*
X52006010Y-74222287D01*
X52122227Y-74281503D01*
X52188396Y-74315218D01*
X52188398Y-74315218D01*
X52188401Y-74315220D01*
X52292757Y-74349127D01*
X52383085Y-74378477D01*
X52484177Y-74394488D01*
X52585268Y-74410500D01*
X52585269Y-74410500D01*
X53589971Y-74410500D01*
X53589972Y-74410500D01*
X53792154Y-74378477D01*
X53986839Y-74315220D01*
X54169230Y-74222287D01*
X54270069Y-74149024D01*
X54334833Y-74101971D01*
X54334835Y-74101968D01*
X54334839Y-74101966D01*
X54479586Y-73957219D01*
X54479588Y-73957215D01*
X54479591Y-73957213D01*
X54544979Y-73867213D01*
X54599907Y-73791610D01*
X54692840Y-73609219D01*
X54756097Y-73414534D01*
X54788120Y-73212352D01*
X54788120Y-73007648D01*
X54763737Y-72853702D01*
X54756097Y-72805465D01*
X54692838Y-72610776D01*
X54659123Y-72544607D01*
X54599907Y-72428390D01*
X54551960Y-72362396D01*
X54479591Y-72262786D01*
X54334833Y-72118028D01*
X54169234Y-71997715D01*
X54162626Y-71994348D01*
X54076537Y-71950483D01*
X54025743Y-71902511D01*
X54008948Y-71834690D01*
X54031485Y-71768555D01*
X54076537Y-71729516D01*
X54169230Y-71682287D01*
X54190390Y-71666913D01*
X54334833Y-71561971D01*
X54334835Y-71561968D01*
X54334839Y-71561966D01*
X54479586Y-71417219D01*
X54479588Y-71417215D01*
X54479591Y-71417213D01*
X54560940Y-71305244D01*
X54599907Y-71251610D01*
X54692840Y-71069219D01*
X54756097Y-70874534D01*
X54788120Y-70672352D01*
X54788120Y-70467648D01*
X54756097Y-70265466D01*
X54692840Y-70070781D01*
X54692838Y-70070778D01*
X54692838Y-70070776D01*
X54659123Y-70004607D01*
X54599907Y-69888390D01*
X54534516Y-69798386D01*
X54479591Y-69722786D01*
X54334833Y-69578028D01*
X54169234Y-69457715D01*
X54162626Y-69454348D01*
X54076537Y-69410483D01*
X54025743Y-69362511D01*
X54008948Y-69294690D01*
X54031485Y-69228555D01*
X54076537Y-69189516D01*
X54169230Y-69142287D01*
X54228101Y-69099515D01*
X54334833Y-69021971D01*
X54334835Y-69021968D01*
X54334839Y-69021966D01*
X54479586Y-68877219D01*
X54479588Y-68877215D01*
X54479591Y-68877213D01*
X54578107Y-68741615D01*
X54599907Y-68711610D01*
X54692840Y-68529219D01*
X54756097Y-68334534D01*
X54788120Y-68132352D01*
X54788120Y-67927648D01*
X54756097Y-67725466D01*
X54692840Y-67530781D01*
X54692838Y-67530778D01*
X54692838Y-67530776D01*
X54659123Y-67464607D01*
X54599907Y-67348390D01*
X54534516Y-67258386D01*
X54479591Y-67182786D01*
X54334833Y-67038028D01*
X54169234Y-66917715D01*
X54162626Y-66914348D01*
X54076537Y-66870483D01*
X54025743Y-66822511D01*
X54008948Y-66754690D01*
X54031485Y-66688555D01*
X54076537Y-66649516D01*
X54169230Y-66602287D01*
X54251775Y-66542315D01*
X54334833Y-66481971D01*
X54334835Y-66481968D01*
X54334839Y-66481966D01*
X54479586Y-66337219D01*
X54479588Y-66337215D01*
X54479591Y-66337213D01*
X54532352Y-66264590D01*
X54599907Y-66171610D01*
X54692840Y-65989219D01*
X54756097Y-65794534D01*
X54788120Y-65592352D01*
X54788120Y-65387648D01*
X54768040Y-65260867D01*
X54756097Y-65185465D01*
X54732817Y-65113819D01*
X54730821Y-65043978D01*
X54766901Y-64984145D01*
X54829602Y-64953316D01*
X54850748Y-64951500D01*
X57346390Y-64951500D01*
X57413429Y-64971185D01*
X57434071Y-64987819D01*
X58617865Y-66171613D01*
X59799614Y-67353361D01*
X59833099Y-67414684D01*
X59829864Y-67479360D01*
X59779143Y-67635461D01*
X59779143Y-67635464D01*
X59747120Y-67837648D01*
X59747120Y-68042351D01*
X59779142Y-68244534D01*
X59842401Y-68439223D01*
X59935335Y-68621613D01*
X60055648Y-68787213D01*
X60200406Y-68931971D01*
X60324276Y-69021966D01*
X60366010Y-69052287D01*
X60457460Y-69098883D01*
X60458700Y-69099515D01*
X60509496Y-69147490D01*
X60526291Y-69215311D01*
X60503754Y-69281446D01*
X60458700Y-69320485D01*
X60366006Y-69367715D01*
X60200406Y-69488028D01*
X60055648Y-69632786D01*
X59935335Y-69798386D01*
X59842401Y-69980776D01*
X59779142Y-70175465D01*
X59747120Y-70377648D01*
X59747120Y-70582351D01*
X59779143Y-70784535D01*
X59779143Y-70784538D01*
X59829863Y-70940638D01*
X59831858Y-71010479D01*
X59799613Y-71066637D01*
X58417050Y-72449201D01*
X58417044Y-72449209D01*
X58375367Y-72511583D01*
X58375368Y-72511584D01*
X58334913Y-72572128D01*
X58278343Y-72708702D01*
X58278340Y-72708712D01*
X58249500Y-72853699D01*
X58249500Y-72853702D01*
X58249500Y-81073918D01*
X58249500Y-81073920D01*
X58249499Y-81073920D01*
X58278340Y-81218907D01*
X58278343Y-81218917D01*
X58334913Y-81355490D01*
X58334914Y-81355491D01*
X58334916Y-81355495D01*
X58343147Y-81367813D01*
X58356657Y-81388032D01*
X58356658Y-81388034D01*
X58417051Y-81478420D01*
X58417052Y-81478421D01*
X59521585Y-82582952D01*
X59521590Y-82582956D01*
X59558709Y-82607758D01*
X59558720Y-82607764D01*
X59562373Y-82610205D01*
X59644505Y-82665084D01*
X59691462Y-82684534D01*
X59698646Y-82687509D01*
X59698650Y-82687512D01*
X59739407Y-82704394D01*
X59781088Y-82721659D01*
X59897241Y-82744763D01*
X59916468Y-82748587D01*
X59926081Y-82750500D01*
X59926082Y-82750500D01*
X59926083Y-82750500D01*
X60073918Y-82750500D01*
X60426082Y-82750500D01*
X61637770Y-82750500D01*
X61704809Y-82770185D01*
X61725451Y-82786819D01*
X62576952Y-83638320D01*
X62610437Y-83699642D01*
X62605453Y-83769333D01*
X62563581Y-83825267D01*
X62498117Y-83849684D01*
X62489271Y-83850000D01*
X61897620Y-83850000D01*
X61897620Y-84834314D01*
X61893226Y-84829920D01*
X61802014Y-84777259D01*
X61700281Y-84750000D01*
X61594959Y-84750000D01*
X61493226Y-84777259D01*
X61402014Y-84829920D01*
X61397620Y-84834314D01*
X61397620Y-83850000D01*
X60647648Y-83850000D01*
X60647632Y-83850001D01*
X60544922Y-83860494D01*
X60378500Y-83915641D01*
X60378495Y-83915643D01*
X60229274Y-84007684D01*
X60105304Y-84131654D01*
X60013263Y-84280875D01*
X60013261Y-84280880D01*
X59958114Y-84447302D01*
X59958113Y-84447309D01*
X59947620Y-84550013D01*
X59947620Y-84629269D01*
X59927935Y-84696308D01*
X59875131Y-84742063D01*
X59805973Y-84752007D01*
X59742417Y-84722982D01*
X59735939Y-84716950D01*
X56986041Y-81967052D01*
X56986034Y-81967046D01*
X56886438Y-81900499D01*
X56886437Y-81900499D01*
X56863115Y-81884916D01*
X56863108Y-81884912D01*
X56726537Y-81828343D01*
X56726527Y-81828340D01*
X56581540Y-81799500D01*
X56581538Y-81799500D01*
X53122351Y-81799500D01*
X53055312Y-81779815D01*
X53009557Y-81727011D01*
X52999061Y-81688752D01*
X52994091Y-81642516D01*
X52943797Y-81507671D01*
X52943793Y-81507664D01*
X52857547Y-81392455D01*
X52857544Y-81392452D01*
X52742335Y-81306206D01*
X52742328Y-81306202D01*
X52607482Y-81255908D01*
X52607483Y-81255908D01*
X52547883Y-81249501D01*
X52547881Y-81249500D01*
X52547873Y-81249500D01*
X52547864Y-81249500D01*
X50852129Y-81249500D01*
X50852123Y-81249501D01*
X50792516Y-81255908D01*
X50657671Y-81306202D01*
X50657664Y-81306206D01*
X50542455Y-81392452D01*
X50542452Y-81392455D01*
X50456206Y-81507664D01*
X50456202Y-81507671D01*
X50405908Y-81642517D01*
X50399501Y-81702116D01*
X50399322Y-81705452D01*
X50397741Y-81705367D01*
X50379815Y-81766419D01*
X50327011Y-81812174D01*
X50283726Y-81819824D01*
X49600000Y-82503551D01*
X49600000Y-82497339D01*
X49572741Y-82395606D01*
X49520080Y-82304394D01*
X49445606Y-82229920D01*
X49354394Y-82177259D01*
X49252661Y-82150000D01*
X49246446Y-82150000D01*
X49925922Y-81470524D01*
X49925921Y-81470523D01*
X49881359Y-81438147D01*
X49881350Y-81438141D01*
X49699031Y-81345244D01*
X49504417Y-81282009D01*
X49302317Y-81250000D01*
X49097683Y-81250000D01*
X48895582Y-81282009D01*
X48700968Y-81345244D01*
X48518644Y-81438143D01*
X48474077Y-81470523D01*
X48474077Y-81470524D01*
X49153554Y-82150000D01*
X49147339Y-82150000D01*
X49045606Y-82177259D01*
X48954394Y-82229920D01*
X48879920Y-82304394D01*
X48827259Y-82395606D01*
X48800000Y-82497339D01*
X48800000Y-82503553D01*
X48120524Y-81824077D01*
X48120523Y-81824077D01*
X48088143Y-81868644D01*
X47995244Y-82050968D01*
X47932009Y-82245582D01*
X47900000Y-82447682D01*
X47900000Y-82652317D01*
X47932009Y-82854417D01*
X47995244Y-83049031D01*
X48088141Y-83231350D01*
X48088147Y-83231359D01*
X48120523Y-83275921D01*
X48120524Y-83275922D01*
X48800000Y-82596446D01*
X48800000Y-82602661D01*
X48827259Y-82704394D01*
X48879920Y-82795606D01*
X48954394Y-82870080D01*
X49045606Y-82922741D01*
X49147339Y-82950000D01*
X49153553Y-82950000D01*
X48474076Y-83629474D01*
X48518650Y-83661859D01*
X48700968Y-83754755D01*
X48895582Y-83817990D01*
X49097683Y-83850000D01*
X49302317Y-83850000D01*
X49504417Y-83817990D01*
X49699031Y-83754755D01*
X49881349Y-83661859D01*
X49925921Y-83629474D01*
X49246447Y-82950000D01*
X49252661Y-82950000D01*
X49354394Y-82922741D01*
X49445606Y-82870080D01*
X49520080Y-82795606D01*
X49572741Y-82704394D01*
X49600000Y-82602661D01*
X49600000Y-82596448D01*
X50284483Y-83280931D01*
X50334147Y-83291364D01*
X50383905Y-83340415D01*
X50398000Y-83394634D01*
X50399099Y-83394576D01*
X50399146Y-83394571D01*
X50399146Y-83394573D01*
X50399324Y-83394564D01*
X50399501Y-83397876D01*
X50405908Y-83457483D01*
X50456202Y-83592328D01*
X50456206Y-83592335D01*
X50542452Y-83707544D01*
X50542455Y-83707547D01*
X50657664Y-83793793D01*
X50657671Y-83793797D01*
X50792517Y-83844091D01*
X50792516Y-83844091D01*
X50799444Y-83844835D01*
X50852127Y-83850500D01*
X52547872Y-83850499D01*
X52607483Y-83844091D01*
X52742331Y-83793796D01*
X52857546Y-83707546D01*
X52943796Y-83592331D01*
X52994091Y-83457483D01*
X52999062Y-83411242D01*
X53025799Y-83346694D01*
X53083191Y-83306846D01*
X53122351Y-83300500D01*
X56145390Y-83300500D01*
X56212429Y-83320185D01*
X56233071Y-83336819D01*
X59999614Y-87103362D01*
X60033099Y-87164685D01*
X60029864Y-87229361D01*
X59979143Y-87385461D01*
X59979143Y-87385464D01*
X59947120Y-87587648D01*
X59947120Y-87792351D01*
X59979142Y-87994534D01*
X60042401Y-88189223D01*
X60135335Y-88371613D01*
X60255648Y-88537213D01*
X60400406Y-88681971D01*
X60510146Y-88761700D01*
X60566010Y-88802287D01*
X60630048Y-88834916D01*
X60658700Y-88849515D01*
X60709496Y-88897490D01*
X60726291Y-88965311D01*
X60703754Y-89031446D01*
X60658700Y-89070485D01*
X60566006Y-89117715D01*
X60400406Y-89238028D01*
X60255652Y-89382782D01*
X60255648Y-89382787D01*
X60222520Y-89428385D01*
X60167191Y-89471051D01*
X60122202Y-89479500D01*
X57196080Y-89479500D01*
X57051092Y-89508340D01*
X57051082Y-89508343D01*
X56914508Y-89564914D01*
X56871552Y-89593616D01*
X56791581Y-89647049D01*
X56791578Y-89647052D01*
X51035451Y-95403181D01*
X50974128Y-95436666D01*
X50947770Y-95439500D01*
X45743038Y-95439500D01*
X45675999Y-95419815D01*
X45642720Y-95388385D01*
X45609591Y-95342787D01*
X45609587Y-95342782D01*
X45464833Y-95198028D01*
X45299231Y-95077713D01*
X45205989Y-95030203D01*
X45155194Y-94982229D01*
X45138399Y-94914407D01*
X45160937Y-94848273D01*
X45205991Y-94809234D01*
X45298967Y-94761861D01*
X45464514Y-94641582D01*
X45464515Y-94641582D01*
X45609202Y-94496895D01*
X45609202Y-94496894D01*
X45729479Y-94331349D01*
X45822375Y-94149029D01*
X45885610Y-93954413D01*
X45894229Y-93900000D01*
X44533306Y-93900000D01*
X44537700Y-93895606D01*
X44590361Y-93804394D01*
X44617620Y-93702661D01*
X44617620Y-93597339D01*
X44590361Y-93495606D01*
X44537700Y-93404394D01*
X44533306Y-93400000D01*
X45894229Y-93400000D01*
X45885610Y-93345586D01*
X45822375Y-93150970D01*
X45729479Y-92968650D01*
X45609202Y-92803105D01*
X45609202Y-92803104D01*
X45464515Y-92658417D01*
X45298969Y-92538140D01*
X45205990Y-92490765D01*
X45155194Y-92442790D01*
X45138399Y-92374969D01*
X45160936Y-92308835D01*
X45205990Y-92269795D01*
X45299230Y-92222287D01*
X45320390Y-92206913D01*
X45464833Y-92101971D01*
X45464835Y-92101968D01*
X45464839Y-92101966D01*
X45609586Y-91957219D01*
X45609588Y-91957215D01*
X45609591Y-91957213D01*
X45709125Y-91820214D01*
X45729907Y-91791610D01*
X45822840Y-91609219D01*
X45886097Y-91414534D01*
X45918120Y-91212352D01*
X45918120Y-91007648D01*
X45913820Y-90980500D01*
X45900128Y-90894051D01*
X45897698Y-90878711D01*
X48149500Y-90878711D01*
X48149500Y-91121288D01*
X48181161Y-91361785D01*
X48243947Y-91596104D01*
X48319303Y-91778028D01*
X48336776Y-91820212D01*
X48458064Y-92030289D01*
X48458066Y-92030292D01*
X48458067Y-92030293D01*
X48605733Y-92222736D01*
X48605739Y-92222743D01*
X48777256Y-92394260D01*
X48777263Y-92394266D01*
X48833800Y-92437648D01*
X48969711Y-92541936D01*
X49179788Y-92663224D01*
X49403900Y-92756054D01*
X49638211Y-92818838D01*
X49818586Y-92842584D01*
X49878711Y-92850500D01*
X49878712Y-92850500D01*
X50121289Y-92850500D01*
X50169388Y-92844167D01*
X50361789Y-92818838D01*
X50596100Y-92756054D01*
X50820212Y-92663224D01*
X51030289Y-92541936D01*
X51222738Y-92394265D01*
X51394265Y-92222738D01*
X51541936Y-92030289D01*
X51663224Y-91820212D01*
X51756054Y-91596100D01*
X51818838Y-91361789D01*
X51850500Y-91121288D01*
X51850500Y-90878712D01*
X51818838Y-90638211D01*
X51756054Y-90403900D01*
X51663224Y-90179788D01*
X51541936Y-89969711D01*
X51394265Y-89777262D01*
X51394260Y-89777256D01*
X51222743Y-89605739D01*
X51222736Y-89605733D01*
X51030293Y-89458067D01*
X51030292Y-89458066D01*
X51030289Y-89458064D01*
X50820212Y-89336776D01*
X50820205Y-89336773D01*
X50596104Y-89243947D01*
X50361785Y-89181161D01*
X50121289Y-89149500D01*
X50121288Y-89149500D01*
X49878712Y-89149500D01*
X49878711Y-89149500D01*
X49638214Y-89181161D01*
X49403895Y-89243947D01*
X49179794Y-89336773D01*
X49179785Y-89336777D01*
X48969706Y-89458067D01*
X48777263Y-89605733D01*
X48777256Y-89605739D01*
X48605739Y-89777256D01*
X48605733Y-89777263D01*
X48458067Y-89969706D01*
X48336777Y-90179785D01*
X48336773Y-90179794D01*
X48243947Y-90403895D01*
X48181161Y-90638214D01*
X48149500Y-90878711D01*
X45897698Y-90878711D01*
X45886097Y-90805465D01*
X45840421Y-90664891D01*
X45822840Y-90610781D01*
X45822838Y-90610778D01*
X45822838Y-90610776D01*
X45771485Y-90509991D01*
X45729907Y-90428390D01*
X45712114Y-90403900D01*
X45609591Y-90262786D01*
X45464833Y-90118028D01*
X45299233Y-89997715D01*
X45299232Y-89997714D01*
X45299230Y-89997713D01*
X45242273Y-89968691D01*
X45116843Y-89904781D01*
X44922154Y-89841522D01*
X44747615Y-89813878D01*
X44719972Y-89809500D01*
X43715268Y-89809500D01*
X43690949Y-89813351D01*
X43513085Y-89841522D01*
X43318396Y-89904781D01*
X43136006Y-89997715D01*
X42970406Y-90118028D01*
X42825648Y-90262786D01*
X42705335Y-90428386D01*
X42612401Y-90610776D01*
X42549142Y-90805465D01*
X42517120Y-91007648D01*
X42517120Y-91212351D01*
X42549142Y-91414534D01*
X42612401Y-91609223D01*
X42705335Y-91791613D01*
X42825648Y-91957213D01*
X42970406Y-92101971D01*
X43125369Y-92214556D01*
X43136010Y-92222287D01*
X43208044Y-92258990D01*
X43229249Y-92269795D01*
X43280045Y-92317770D01*
X43296840Y-92385591D01*
X43274302Y-92451726D01*
X43229249Y-92490765D01*
X43136270Y-92538140D01*
X42970725Y-92658417D01*
X42970724Y-92658417D01*
X42826037Y-92803104D01*
X42826037Y-92803105D01*
X42705760Y-92968650D01*
X42612864Y-93150970D01*
X42549629Y-93345586D01*
X42541011Y-93400000D01*
X43901934Y-93400000D01*
X43897540Y-93404394D01*
X43844879Y-93495606D01*
X43817620Y-93597339D01*
X43817620Y-93702661D01*
X43844879Y-93804394D01*
X43897540Y-93895606D01*
X43901934Y-93900000D01*
X42541011Y-93900000D01*
X42549629Y-93954413D01*
X42612864Y-94149029D01*
X42705760Y-94331349D01*
X42826037Y-94496894D01*
X42826037Y-94496895D01*
X42970724Y-94641582D01*
X43136272Y-94761861D01*
X43229248Y-94809234D01*
X43280045Y-94857208D01*
X43296840Y-94925029D01*
X43274303Y-94991164D01*
X43229250Y-95030203D01*
X43136008Y-95077713D01*
X42970406Y-95198028D01*
X42825648Y-95342786D01*
X42705335Y-95508386D01*
X42612401Y-95690776D01*
X42549142Y-95885465D01*
X42517120Y-96087648D01*
X42517120Y-96292351D01*
X42549142Y-96494534D01*
X42612401Y-96689223D01*
X42705335Y-96871613D01*
X42825648Y-97037213D01*
X42970406Y-97181971D01*
X43090882Y-97269500D01*
X43136010Y-97302287D01*
X43216679Y-97343390D01*
X43228700Y-97349515D01*
X43279496Y-97397490D01*
X43296291Y-97465311D01*
X43273754Y-97531446D01*
X43228700Y-97570485D01*
X43136006Y-97617715D01*
X42970406Y-97738028D01*
X42825648Y-97882786D01*
X42705335Y-98048386D01*
X42612401Y-98230776D01*
X42549142Y-98425465D01*
X42517120Y-98627648D01*
X42517120Y-98832351D01*
X42549142Y-99034534D01*
X42612401Y-99229223D01*
X42705335Y-99411613D01*
X42825648Y-99577213D01*
X42970406Y-99721971D01*
X43111878Y-99824754D01*
X43136010Y-99842287D01*
X43225703Y-99887988D01*
X43228700Y-99889515D01*
X43279496Y-99937490D01*
X43296291Y-100005311D01*
X43273754Y-100071446D01*
X43228700Y-100110485D01*
X43136006Y-100157715D01*
X42970406Y-100278028D01*
X42825648Y-100422786D01*
X42705335Y-100588386D01*
X42612401Y-100770776D01*
X42549142Y-100965465D01*
X42517120Y-101167648D01*
X42517120Y-101372351D01*
X42549142Y-101574534D01*
X42612401Y-101769223D01*
X42676311Y-101894653D01*
X42701547Y-101944180D01*
X42705335Y-101951613D01*
X42825648Y-102117213D01*
X42970406Y-102261971D01*
X43125369Y-102374556D01*
X43136010Y-102382287D01*
X43227460Y-102428883D01*
X43228700Y-102429515D01*
X43279496Y-102477490D01*
X43296291Y-102545311D01*
X43273754Y-102611446D01*
X43228700Y-102650485D01*
X43136006Y-102697715D01*
X42970406Y-102818028D01*
X42825648Y-102962786D01*
X42705335Y-103128386D01*
X42612401Y-103310776D01*
X42583546Y-103399584D01*
X42544108Y-103457259D01*
X42479749Y-103484457D01*
X42410903Y-103472542D01*
X42377934Y-103448946D01*
X40786819Y-101857831D01*
X40753334Y-101796508D01*
X40750500Y-101770150D01*
X40750500Y-90426079D01*
X40721659Y-90281092D01*
X40721658Y-90281091D01*
X40721658Y-90281087D01*
X40715271Y-90265668D01*
X40665087Y-90144511D01*
X40665080Y-90144498D01*
X40582952Y-90021585D01*
X40531073Y-89969706D01*
X40478416Y-89917049D01*
X39611129Y-89049762D01*
X36978421Y-86417052D01*
X36978420Y-86417051D01*
X36974886Y-86414690D01*
X36885882Y-86355220D01*
X36855495Y-86334916D01*
X36855488Y-86334912D01*
X36718917Y-86278343D01*
X36718907Y-86278340D01*
X36573920Y-86249500D01*
X36573918Y-86249500D01*
X34862229Y-86249500D01*
X34795190Y-86229815D01*
X34774548Y-86213181D01*
X33189470Y-84628103D01*
X33155985Y-84566780D01*
X33160969Y-84497088D01*
X33202841Y-84441155D01*
X33252958Y-84418804D01*
X33277251Y-84413973D01*
X33450231Y-84342322D01*
X33605908Y-84238302D01*
X33738302Y-84105908D01*
X33842322Y-83950231D01*
X33913973Y-83777251D01*
X33950500Y-83593616D01*
X33950500Y-83406384D01*
X33913973Y-83222749D01*
X33842322Y-83049769D01*
X33842321Y-83049768D01*
X33842318Y-83049762D01*
X33738302Y-82894092D01*
X33738299Y-82894088D01*
X33605911Y-82761700D01*
X33605907Y-82761697D01*
X33450237Y-82657681D01*
X33450228Y-82657676D01*
X33277251Y-82586027D01*
X33277243Y-82586025D01*
X33168702Y-82564434D01*
X33168696Y-82564434D01*
X33152039Y-82561120D01*
X33090131Y-82528737D01*
X33088552Y-82527185D01*
X32327786Y-81766419D01*
X31689468Y-81128101D01*
X31655985Y-81066780D01*
X31660969Y-80997088D01*
X31702841Y-80941155D01*
X31752958Y-80918804D01*
X31777251Y-80913973D01*
X31807177Y-80901577D01*
X34467120Y-80901577D01*
X34467120Y-81098422D01*
X34497910Y-81292826D01*
X34558737Y-81480029D01*
X34641529Y-81642516D01*
X34648096Y-81655405D01*
X34763792Y-81814646D01*
X34902974Y-81953828D01*
X35062215Y-82069524D01*
X35145075Y-82111743D01*
X35237590Y-82158882D01*
X35237592Y-82158882D01*
X35237595Y-82158884D01*
X35337937Y-82191487D01*
X35424793Y-82219709D01*
X35619198Y-82250500D01*
X35619203Y-82250500D01*
X35816042Y-82250500D01*
X36010446Y-82219709D01*
X36197645Y-82158884D01*
X36373025Y-82069524D01*
X36532266Y-81953828D01*
X36671448Y-81814646D01*
X36787144Y-81655405D01*
X36876504Y-81480025D01*
X36937329Y-81292826D01*
X36941306Y-81267715D01*
X36968120Y-81098422D01*
X36968120Y-80901577D01*
X36937329Y-80707173D01*
X36904425Y-80605907D01*
X36876504Y-80519975D01*
X36876502Y-80519972D01*
X36876502Y-80519970D01*
X36787143Y-80344594D01*
X36671448Y-80185354D01*
X36532266Y-80046172D01*
X36373025Y-79930476D01*
X36354737Y-79921158D01*
X36197649Y-79841117D01*
X36010446Y-79780290D01*
X35816042Y-79749500D01*
X35816037Y-79749500D01*
X35619203Y-79749500D01*
X35619198Y-79749500D01*
X35424793Y-79780290D01*
X35237590Y-79841117D01*
X35062214Y-79930476D01*
X35022648Y-79959223D01*
X34902974Y-80046172D01*
X34902972Y-80046174D01*
X34902971Y-80046174D01*
X34763794Y-80185351D01*
X34763794Y-80185352D01*
X34763792Y-80185354D01*
X34714105Y-80253741D01*
X34648096Y-80344594D01*
X34558737Y-80519970D01*
X34497910Y-80707173D01*
X34467120Y-80901577D01*
X31807177Y-80901577D01*
X31950231Y-80842322D01*
X31950237Y-80842318D01*
X32023136Y-80793609D01*
X32072686Y-80760500D01*
X32105908Y-80738302D01*
X32238302Y-80605908D01*
X32342322Y-80450231D01*
X32413973Y-80277251D01*
X32450500Y-80093616D01*
X32450500Y-79906384D01*
X32413973Y-79722749D01*
X32342322Y-79549769D01*
X32342321Y-79549767D01*
X32271398Y-79443622D01*
X32250520Y-79376945D01*
X32250500Y-79374732D01*
X32250500Y-72407682D01*
X35767620Y-72407682D01*
X35767620Y-72612317D01*
X35799629Y-72814417D01*
X35862864Y-73009031D01*
X35955761Y-73191350D01*
X35955767Y-73191359D01*
X35988143Y-73235921D01*
X35988144Y-73235922D01*
X36667620Y-72556446D01*
X36667620Y-72562661D01*
X36694879Y-72664394D01*
X36747540Y-72755606D01*
X36822014Y-72830080D01*
X36913226Y-72882741D01*
X37014959Y-72910000D01*
X37021173Y-72910000D01*
X36341696Y-73589474D01*
X36386270Y-73621859D01*
X36568588Y-73714755D01*
X36763202Y-73777990D01*
X36965303Y-73810000D01*
X37169937Y-73810000D01*
X37372037Y-73777990D01*
X37566651Y-73714755D01*
X37748969Y-73621859D01*
X37793541Y-73589474D01*
X37114067Y-72910000D01*
X37120281Y-72910000D01*
X37222014Y-72882741D01*
X37313226Y-72830080D01*
X37387700Y-72755606D01*
X37440361Y-72664394D01*
X37467620Y-72562661D01*
X37467620Y-72556447D01*
X38147094Y-73235921D01*
X38179479Y-73191349D01*
X38272375Y-73009031D01*
X38335610Y-72814417D01*
X38367620Y-72612317D01*
X38367620Y-72407682D01*
X38335610Y-72205582D01*
X38272375Y-72010968D01*
X38179479Y-71828650D01*
X38147094Y-71784077D01*
X38147094Y-71784076D01*
X37467620Y-72463551D01*
X37467620Y-72457339D01*
X37440361Y-72355606D01*
X37387700Y-72264394D01*
X37313226Y-72189920D01*
X37222014Y-72137259D01*
X37120281Y-72110000D01*
X37114066Y-72110000D01*
X37793542Y-71430524D01*
X37793541Y-71430523D01*
X37748979Y-71398147D01*
X37748970Y-71398141D01*
X37566651Y-71305244D01*
X37372037Y-71242009D01*
X37169937Y-71210000D01*
X36965303Y-71210000D01*
X36763202Y-71242009D01*
X36568588Y-71305244D01*
X36386264Y-71398143D01*
X36341697Y-71430523D01*
X36341697Y-71430524D01*
X37021174Y-72110000D01*
X37014959Y-72110000D01*
X36913226Y-72137259D01*
X36822014Y-72189920D01*
X36747540Y-72264394D01*
X36694879Y-72355606D01*
X36667620Y-72457339D01*
X36667620Y-72463553D01*
X35988144Y-71784077D01*
X35988143Y-71784077D01*
X35955763Y-71828644D01*
X35862864Y-72010968D01*
X35799629Y-72205582D01*
X35767620Y-72407682D01*
X32250500Y-72407682D01*
X32250500Y-54426079D01*
X32221659Y-54281092D01*
X32221658Y-54281091D01*
X32221658Y-54281087D01*
X32221656Y-54281082D01*
X32165087Y-54144511D01*
X32165080Y-54144498D01*
X32113329Y-54067048D01*
X32113327Y-54067045D01*
X32082954Y-54021586D01*
X32082952Y-54021584D01*
X29474097Y-51412728D01*
X29474074Y-51412707D01*
X26295657Y-48234289D01*
X26086819Y-48025451D01*
X26053334Y-47964128D01*
X26050500Y-47937770D01*
X26050500Y-46740548D01*
X31480000Y-46740548D01*
X31480000Y-46959451D01*
X31480001Y-46959467D01*
X31508573Y-47176496D01*
X31565234Y-47387956D01*
X31649004Y-47590198D01*
X31649012Y-47590214D01*
X31758460Y-47779782D01*
X31758466Y-47779790D01*
X31805438Y-47841007D01*
X32548958Y-47097487D01*
X32573978Y-47157890D01*
X32645112Y-47264351D01*
X32735649Y-47354888D01*
X32842110Y-47426022D01*
X32902511Y-47451041D01*
X32158991Y-48194560D01*
X32158991Y-48194561D01*
X32220200Y-48241527D01*
X32220208Y-48241532D01*
X32409792Y-48350990D01*
X32409801Y-48350995D01*
X32612043Y-48434765D01*
X32823503Y-48491426D01*
X33040532Y-48519998D01*
X33040549Y-48520000D01*
X33259451Y-48520000D01*
X33259467Y-48519998D01*
X33476496Y-48491426D01*
X33687956Y-48434765D01*
X33890198Y-48350995D01*
X33890214Y-48350987D01*
X34079785Y-48241537D01*
X34079793Y-48241531D01*
X34141007Y-48194560D01*
X33397488Y-47451041D01*
X33457890Y-47426022D01*
X33564351Y-47354888D01*
X33654888Y-47264351D01*
X33726022Y-47157890D01*
X33751041Y-47097488D01*
X34494560Y-47841007D01*
X34541531Y-47779793D01*
X34541537Y-47779785D01*
X34650987Y-47590214D01*
X34650995Y-47590198D01*
X34734765Y-47387956D01*
X34791426Y-47176496D01*
X34819998Y-46959467D01*
X34820000Y-46959451D01*
X34820000Y-46740548D01*
X34819998Y-46740532D01*
X34791426Y-46523503D01*
X34734765Y-46312043D01*
X34650995Y-46109801D01*
X34650990Y-46109792D01*
X34541532Y-45920208D01*
X34541527Y-45920200D01*
X34494560Y-45858991D01*
X33751041Y-46602510D01*
X33726022Y-46542110D01*
X33654888Y-46435649D01*
X33564351Y-46345112D01*
X33457890Y-46273978D01*
X33397487Y-46248957D01*
X34141007Y-45505438D01*
X34141007Y-45505437D01*
X34079790Y-45458466D01*
X34079782Y-45458460D01*
X33890214Y-45349012D01*
X33890198Y-45349004D01*
X33687956Y-45265234D01*
X33476496Y-45208573D01*
X33259467Y-45180001D01*
X33259451Y-45180000D01*
X33040549Y-45180000D01*
X33040532Y-45180001D01*
X32823503Y-45208573D01*
X32612043Y-45265234D01*
X32409801Y-45349004D01*
X32409785Y-45349012D01*
X32220215Y-45458461D01*
X32220200Y-45458471D01*
X32158990Y-45505438D01*
X32902511Y-46248958D01*
X32842110Y-46273978D01*
X32735649Y-46345112D01*
X32645112Y-46435649D01*
X32573978Y-46542110D01*
X32548958Y-46602511D01*
X31805438Y-45858990D01*
X31758471Y-45920200D01*
X31758461Y-45920215D01*
X31649012Y-46109785D01*
X31649004Y-46109801D01*
X31565234Y-46312043D01*
X31508573Y-46523503D01*
X31480001Y-46740532D01*
X31480000Y-46740548D01*
X26050500Y-46740548D01*
X26050500Y-40049024D01*
X26070185Y-39981985D01*
X26101616Y-39948705D01*
X26110390Y-39942331D01*
X26212365Y-39868242D01*
X26368242Y-39712365D01*
X26497815Y-39534022D01*
X26597895Y-39337606D01*
X26666015Y-39127951D01*
X26700500Y-38910222D01*
X26700500Y-38689778D01*
X26666015Y-38472049D01*
X26631955Y-38367221D01*
X26597896Y-38262396D01*
X26597895Y-38262393D01*
X26535936Y-38140794D01*
X26497815Y-38065978D01*
X26422748Y-37962656D01*
X26368247Y-37887641D01*
X26368243Y-37887636D01*
X26212363Y-37731756D01*
X26212358Y-37731752D01*
X26034025Y-37602187D01*
X26034024Y-37602186D01*
X26034022Y-37602185D01*
X25971096Y-37570122D01*
X25837606Y-37502104D01*
X25837603Y-37502103D01*
X25627952Y-37433985D01*
X25564901Y-37423998D01*
X25487986Y-37411816D01*
X25424853Y-37381888D01*
X25387921Y-37322577D01*
X25388919Y-37252714D01*
X25419702Y-37201665D01*
X25827329Y-36794038D01*
X57899500Y-36794038D01*
X57899500Y-37045961D01*
X57938910Y-37294785D01*
X58016760Y-37534383D01*
X58062677Y-37624499D01*
X58117327Y-37731756D01*
X58131132Y-37758848D01*
X58279201Y-37962649D01*
X58279205Y-37962654D01*
X58457345Y-38140794D01*
X58457350Y-38140798D01*
X58624712Y-38262393D01*
X58661155Y-38288870D01*
X58804184Y-38361747D01*
X58885616Y-38403239D01*
X58885618Y-38403239D01*
X58885621Y-38403241D01*
X59125215Y-38481090D01*
X59374038Y-38520500D01*
X59374039Y-38520500D01*
X59625961Y-38520500D01*
X59625962Y-38520500D01*
X59874785Y-38481090D01*
X60114379Y-38403241D01*
X60338845Y-38288870D01*
X60542656Y-38140793D01*
X60720793Y-37962656D01*
X60868870Y-37758845D01*
X60983241Y-37534379D01*
X61061090Y-37294785D01*
X61100500Y-37045962D01*
X61100500Y-36794038D01*
X61061090Y-36545215D01*
X60983241Y-36305621D01*
X60983239Y-36305618D01*
X60983239Y-36305616D01*
X60934631Y-36210219D01*
X60868870Y-36081155D01*
X60802481Y-35989778D01*
X60720798Y-35877350D01*
X60720794Y-35877345D01*
X60542654Y-35699205D01*
X60542649Y-35699201D01*
X60338848Y-35551132D01*
X60338847Y-35551131D01*
X60338845Y-35551130D01*
X60268747Y-35515413D01*
X60114383Y-35436760D01*
X59874785Y-35358910D01*
X59625962Y-35319500D01*
X59374038Y-35319500D01*
X59249626Y-35339205D01*
X59125214Y-35358910D01*
X58885616Y-35436760D01*
X58661151Y-35551132D01*
X58457350Y-35699201D01*
X58457345Y-35699205D01*
X58279205Y-35877345D01*
X58279201Y-35877350D01*
X58131132Y-36081151D01*
X58016760Y-36305616D01*
X57938910Y-36545214D01*
X57899500Y-36794038D01*
X25827329Y-36794038D01*
X30419231Y-32202135D01*
X49249500Y-32202135D01*
X49249500Y-33797870D01*
X49249501Y-33797876D01*
X49255908Y-33857483D01*
X49306202Y-33992328D01*
X49306206Y-33992335D01*
X49392452Y-34107544D01*
X49392455Y-34107547D01*
X49507664Y-34193793D01*
X49507671Y-34193797D01*
X49642517Y-34244091D01*
X49642516Y-34244091D01*
X49649444Y-34244835D01*
X49702127Y-34250500D01*
X51297872Y-34250499D01*
X51357483Y-34244091D01*
X51492331Y-34193796D01*
X51607546Y-34107546D01*
X51670734Y-34023136D01*
X51726667Y-33981267D01*
X51796359Y-33976283D01*
X51857682Y-34009768D01*
X51869260Y-34023130D01*
X51932454Y-34107546D01*
X51978643Y-34142123D01*
X52047664Y-34193793D01*
X52047671Y-34193797D01*
X52182517Y-34244091D01*
X52182516Y-34244091D01*
X52189444Y-34244835D01*
X52242127Y-34250500D01*
X53837872Y-34250499D01*
X53897483Y-34244091D01*
X54032331Y-34193796D01*
X54147546Y-34107546D01*
X54210734Y-34023136D01*
X54266667Y-33981267D01*
X54336359Y-33976283D01*
X54397682Y-34009768D01*
X54409260Y-34023130D01*
X54472454Y-34107546D01*
X54518643Y-34142123D01*
X54587664Y-34193793D01*
X54587671Y-34193797D01*
X54722517Y-34244091D01*
X54722516Y-34244091D01*
X54729444Y-34244835D01*
X54782127Y-34250500D01*
X56377872Y-34250499D01*
X56437483Y-34244091D01*
X56572331Y-34193796D01*
X56687546Y-34107546D01*
X56773796Y-33992331D01*
X56824091Y-33857483D01*
X56830500Y-33797873D01*
X56830499Y-32875441D01*
X65599500Y-32875441D01*
X65599500Y-33124558D01*
X65599501Y-33124575D01*
X65632017Y-33371561D01*
X65696498Y-33612207D01*
X65791830Y-33842361D01*
X65791837Y-33842376D01*
X65916400Y-34058126D01*
X66068060Y-34255774D01*
X66068066Y-34255781D01*
X66244218Y-34431933D01*
X66244225Y-34431939D01*
X66441873Y-34583599D01*
X66657623Y-34708162D01*
X66657638Y-34708169D01*
X66719964Y-34733985D01*
X66887793Y-34803502D01*
X67128435Y-34867982D01*
X67375435Y-34900500D01*
X67375442Y-34900500D01*
X67624558Y-34900500D01*
X67624565Y-34900500D01*
X67871565Y-34867982D01*
X68112207Y-34803502D01*
X68342373Y-34708164D01*
X68558127Y-34583599D01*
X68755776Y-34431938D01*
X68931938Y-34255776D01*
X69083599Y-34058127D01*
X69208164Y-33842373D01*
X69303502Y-33612207D01*
X69367982Y-33371565D01*
X69400500Y-33124565D01*
X69400500Y-32875435D01*
X69367982Y-32628435D01*
X69303502Y-32387793D01*
X69233449Y-32218670D01*
X69208169Y-32157638D01*
X69208162Y-32157623D01*
X69083602Y-31941877D01*
X69045679Y-31892455D01*
X69028639Y-31870248D01*
X68974747Y-31800014D01*
X70600000Y-31800014D01*
X70600000Y-32750000D01*
X71899999Y-32750000D01*
X71874979Y-32810402D01*
X71850000Y-32935981D01*
X71850000Y-33064019D01*
X71874979Y-33189598D01*
X71899999Y-33250000D01*
X70600000Y-33250000D01*
X70600000Y-34199985D01*
X70610493Y-34302689D01*
X70610494Y-34302696D01*
X70665641Y-34469118D01*
X70665643Y-34469123D01*
X70757684Y-34618344D01*
X70881655Y-34742315D01*
X71030876Y-34834356D01*
X71030881Y-34834358D01*
X71197303Y-34889505D01*
X71197310Y-34889506D01*
X71300014Y-34899999D01*
X71300027Y-34900000D01*
X72250000Y-34900000D01*
X72250000Y-33600001D01*
X72310402Y-33625021D01*
X72435981Y-33650000D01*
X72564019Y-33650000D01*
X72689598Y-33625021D01*
X72750000Y-33600001D01*
X72750000Y-34900000D01*
X73699973Y-34900000D01*
X73699985Y-34899999D01*
X73802689Y-34889506D01*
X73802696Y-34889505D01*
X73969118Y-34834358D01*
X73969123Y-34834356D01*
X74118344Y-34742315D01*
X74242315Y-34618344D01*
X74334356Y-34469123D01*
X74334358Y-34469118D01*
X74389505Y-34302696D01*
X74389506Y-34302689D01*
X74399999Y-34199985D01*
X74400000Y-34199972D01*
X74400000Y-33250000D01*
X73100001Y-33250000D01*
X73125021Y-33189598D01*
X73150000Y-33064019D01*
X73150000Y-32935981D01*
X73125021Y-32810402D01*
X73100001Y-32750000D01*
X74400000Y-32750000D01*
X74400000Y-31800027D01*
X74399999Y-31800014D01*
X74389506Y-31697310D01*
X74389505Y-31697303D01*
X74334358Y-31530881D01*
X74334356Y-31530876D01*
X74242315Y-31381655D01*
X74118344Y-31257684D01*
X73969123Y-31165643D01*
X73969118Y-31165641D01*
X73802696Y-31110494D01*
X73802689Y-31110493D01*
X73699985Y-31100000D01*
X72750000Y-31100000D01*
X72750000Y-32399998D01*
X72689598Y-32374979D01*
X72564019Y-32350000D01*
X72435981Y-32350000D01*
X72310402Y-32374979D01*
X72250000Y-32399998D01*
X72250000Y-31100000D01*
X71300014Y-31100000D01*
X71197310Y-31110493D01*
X71197303Y-31110494D01*
X71030881Y-31165641D01*
X71030876Y-31165643D01*
X70881655Y-31257684D01*
X70757684Y-31381655D01*
X70665643Y-31530876D01*
X70665641Y-31530881D01*
X70610494Y-31697303D01*
X70610493Y-31697310D01*
X70600000Y-31800014D01*
X68974747Y-31800014D01*
X68931939Y-31744225D01*
X68931933Y-31744218D01*
X68755781Y-31568066D01*
X68755774Y-31568060D01*
X68558126Y-31416400D01*
X68342376Y-31291837D01*
X68342361Y-31291830D01*
X68112207Y-31196498D01*
X67871561Y-31132017D01*
X67624575Y-31099501D01*
X67624570Y-31099500D01*
X67624565Y-31099500D01*
X67375435Y-31099500D01*
X67375429Y-31099500D01*
X67375424Y-31099501D01*
X67128438Y-31132017D01*
X66887792Y-31196498D01*
X66657638Y-31291830D01*
X66657623Y-31291837D01*
X66441873Y-31416400D01*
X66244225Y-31568060D01*
X66244218Y-31568066D01*
X66068066Y-31744218D01*
X66068060Y-31744225D01*
X65916400Y-31941873D01*
X65791837Y-32157623D01*
X65791830Y-32157638D01*
X65696498Y-32387792D01*
X65632017Y-32628438D01*
X65599501Y-32875424D01*
X65599500Y-32875441D01*
X56830499Y-32875441D01*
X56830499Y-32202128D01*
X56824091Y-32142517D01*
X56773796Y-32007669D01*
X56773795Y-32007668D01*
X56773793Y-32007664D01*
X56687547Y-31892455D01*
X56687544Y-31892452D01*
X56572335Y-31806206D01*
X56572328Y-31806202D01*
X56437482Y-31755908D01*
X56437483Y-31755908D01*
X56377883Y-31749501D01*
X56377881Y-31749500D01*
X56377873Y-31749500D01*
X56377864Y-31749500D01*
X54782129Y-31749500D01*
X54782123Y-31749501D01*
X54722516Y-31755908D01*
X54587671Y-31806202D01*
X54587664Y-31806206D01*
X54472455Y-31892452D01*
X54472452Y-31892455D01*
X54409266Y-31976861D01*
X54353332Y-32018732D01*
X54283641Y-32023716D01*
X54222318Y-31990230D01*
X54210734Y-31976861D01*
X54147547Y-31892455D01*
X54147544Y-31892452D01*
X54032335Y-31806206D01*
X54032328Y-31806202D01*
X53897482Y-31755908D01*
X53897483Y-31755908D01*
X53837883Y-31749501D01*
X53837881Y-31749500D01*
X53837873Y-31749500D01*
X53837864Y-31749500D01*
X52242129Y-31749500D01*
X52242123Y-31749501D01*
X52182516Y-31755908D01*
X52047671Y-31806202D01*
X52047664Y-31806206D01*
X51932455Y-31892452D01*
X51932452Y-31892455D01*
X51869266Y-31976861D01*
X51813332Y-32018732D01*
X51743641Y-32023716D01*
X51682318Y-31990230D01*
X51670734Y-31976861D01*
X51607547Y-31892455D01*
X51607544Y-31892452D01*
X51492335Y-31806206D01*
X51492328Y-31806202D01*
X51357482Y-31755908D01*
X51357483Y-31755908D01*
X51297883Y-31749501D01*
X51297881Y-31749500D01*
X51297873Y-31749500D01*
X51297864Y-31749500D01*
X49702129Y-31749500D01*
X49702123Y-31749501D01*
X49642516Y-31755908D01*
X49507671Y-31806202D01*
X49507664Y-31806206D01*
X49392455Y-31892452D01*
X49392452Y-31892455D01*
X49306206Y-32007664D01*
X49306202Y-32007671D01*
X49255908Y-32142517D01*
X49249501Y-32202116D01*
X49249501Y-32202123D01*
X49249500Y-32202135D01*
X30419231Y-32202135D01*
X31834548Y-30786818D01*
X31895871Y-30753334D01*
X31922229Y-30750500D01*
X77637770Y-30750500D01*
X77704809Y-30770185D01*
G37*
%TD.AperFunction*%
%TD*%
M02*
