M48
; DRILL file {KiCad 9.0.2} date 2025-06-20T16:00:49-0400
; FORMAT={-:-/ absolute / metric / decimal}
; #@! TF.CreationDate,2025-06-20T16:00:49-04:00
; #@! TF.GenerationSoftware,Kicad,Pcbnew,9.0.2
; #@! TF.FileFunction,Plated,1,2,PTH
FMAT,2
METRIC
; #@! TA.AperFunction,Plated,PTH,ViaDrill
T1C0.600
; #@! TA.AperFunction,Plated,PTH,ComponentDrill
T2C0.700
; #@! TA.AperFunction,Plated,PTH,ComponentDrill
T3C0.800
; #@! TA.AperFunction,Plated,PTH,ComponentDrill
T4C0.900
; #@! TA.AperFunction,Plated,PTH,ComponentDrill
T5C1.100
; #@! TA.AperFunction,Plated,PTH,ComponentDrill
T6C1.300
%
G90
G05
T1
X29.5Y-114.5
X31.5Y-80.0
X33.0Y-83.5
X33.0Y-89.5
X33.03Y-101.03
X54.5Y-112.5
X65.5Y-85.5
X65.5Y-89.5
T2
X50.5Y-33.0
X53.04Y-33.0
X55.58Y-33.0
T3
X35.718Y-81.0
X36.598Y-91.11
X36.598Y-93.65
X36.598Y-96.19
X36.598Y-98.73
X36.598Y-101.27
X36.598Y-103.81
X36.598Y-106.35
X36.598Y-108.89
X37.068Y-62.35
X37.068Y-72.51
X39.118Y-81.0
X44.218Y-91.11
X44.218Y-93.65
X44.218Y-96.19
X44.218Y-98.73
X44.218Y-101.27
X44.218Y-103.81
X44.218Y-106.35
X44.218Y-108.89
X45.468Y-57.87
X45.468Y-60.41
X45.468Y-62.95
X45.468Y-65.49
X45.468Y-68.03
X45.468Y-70.57
X45.468Y-73.11
X49.2Y-82.55
X51.7Y-82.55
X53.088Y-57.87
X53.088Y-60.41
X53.088Y-62.95
X53.088Y-65.49
X53.088Y-68.03
X53.088Y-70.57
X53.088Y-73.11
X54.668Y-98.57
X54.668Y-108.73
X61.448Y-65.4
X61.448Y-67.94
X61.448Y-70.48
X61.448Y-73.02
X61.648Y-85.15
X61.648Y-87.69
X61.648Y-90.23
X61.648Y-92.77
X62.55Y-98.62
X62.55Y-108.78
X62.708Y-79.46
X64.0Y-51.4
X66.5Y-51.4
X67.708Y-79.46
X69.068Y-65.4
X69.068Y-67.94
X69.068Y-70.48
X69.068Y-73.02
X69.268Y-85.15
X69.268Y-87.69
X69.268Y-90.23
X69.268Y-92.77
X69.708Y-98.46
X69.708Y-103.46
X77.208Y-98.88
X77.208Y-109.04
X77.458Y-65.13
X77.458Y-75.29
X77.458Y-82.38
X77.458Y-92.54
T4
X22.51Y-72.9
X22.51Y-110.25
X22.6Y-85.45
X22.61Y-50.2
X22.625Y-97.55
X22.76Y-38.8
X22.76Y-61.75
X25.05Y-72.9
X25.05Y-110.25
X25.14Y-85.45
X25.15Y-50.2
X25.165Y-97.55
X25.3Y-38.8
X25.3Y-61.75
X79.9Y-58.4
X80.075Y-36.1
X80.11Y-47.75
X82.44Y-58.4
X82.615Y-36.1
X82.65Y-47.75
T5
X59.5Y-36.92
X59.5Y-47.08
T6
X33.15Y-46.85
X38.15Y-46.85
X43.15Y-46.85
X67.5Y-33.0
X72.5Y-33.0
M30
