%TF.GenerationSoftware,KiCad,Pcbnew,9.0.2*%
%TF.CreationDate,2025-06-20T16:00:47-04:00*%
%TF.ProjectId,proj02-g05,70726f6a-3032-42d6-9730-352e6b696361,rev?*%
%TF.SameCoordinates,Original*%
%TF.FileFunction,Legend,Bot*%
%TF.FilePolarity,Positive*%
%FSLAX46Y46*%
G04 Gerber Fmt 4.6, Leading zero omitted, Abs format (unit mm)*
G04 Created by KiCad (PCBNEW 9.0.2) date 2025-06-20 16:00:47*
%MOMM*%
%LPD*%
G01*
G04 APERTURE LIST*
%ADD10C,0.000000*%
%ADD11C,0.100000*%
G04 APERTURE END LIST*
D10*
G36*
X40283407Y-51339179D02*
G01*
X39727782Y-51339179D01*
X39727782Y-50499815D01*
X40283407Y-50499815D01*
X40283407Y-51339179D01*
G37*
G36*
X30909432Y-37836317D02*
G01*
X30919633Y-37925199D01*
X30923717Y-38014838D01*
X30921725Y-38104656D01*
X30913696Y-38194077D01*
X30899666Y-38282524D01*
X30879677Y-38369422D01*
X30853765Y-38454193D01*
X30821971Y-38536261D01*
X30784333Y-38615051D01*
X30740889Y-38689984D01*
X30691678Y-38760486D01*
X30636740Y-38825978D01*
X30576112Y-38885886D01*
X30509834Y-38939632D01*
X30437944Y-38986640D01*
X30360482Y-39026333D01*
X30277485Y-39058135D01*
X30188993Y-39081470D01*
X30095045Y-39095762D01*
X30009868Y-39102799D01*
X29926126Y-39106649D01*
X29844061Y-39106874D01*
X29763913Y-39103032D01*
X29724634Y-39099449D01*
X29685924Y-39094683D01*
X29647814Y-39088681D01*
X29610334Y-39081388D01*
X29573515Y-39072747D01*
X29537385Y-39062705D01*
X29501976Y-39051206D01*
X29467318Y-39038195D01*
X29433440Y-39023617D01*
X29400373Y-39007417D01*
X29368146Y-38989541D01*
X29336791Y-38969932D01*
X29306337Y-38948537D01*
X29276814Y-38925299D01*
X29248253Y-38900164D01*
X29220683Y-38873078D01*
X29194135Y-38843984D01*
X29168639Y-38812828D01*
X29144224Y-38779555D01*
X29120922Y-38744110D01*
X29098762Y-38706437D01*
X29077774Y-38666483D01*
X29057989Y-38624191D01*
X29039436Y-38579507D01*
X29034673Y-38546883D01*
X29307089Y-38407343D01*
X29335864Y-38464279D01*
X29368235Y-38516407D01*
X29403911Y-38563788D01*
X29442599Y-38606481D01*
X29484005Y-38644548D01*
X29527837Y-38678047D01*
X29573802Y-38707040D01*
X29621607Y-38731587D01*
X29670959Y-38751748D01*
X29721567Y-38767583D01*
X29773135Y-38779152D01*
X29825373Y-38786517D01*
X29877986Y-38789736D01*
X29930683Y-38788870D01*
X29983170Y-38783981D01*
X30035155Y-38775126D01*
X30086344Y-38762368D01*
X30136446Y-38745767D01*
X30185166Y-38725382D01*
X30232213Y-38701273D01*
X30277292Y-38673502D01*
X30320113Y-38642128D01*
X30360381Y-38607212D01*
X30397804Y-38568813D01*
X30432089Y-38526993D01*
X30462944Y-38481811D01*
X30490074Y-38433328D01*
X30513189Y-38381603D01*
X30531994Y-38326698D01*
X30546197Y-38268672D01*
X30555505Y-38207586D01*
X30559625Y-38143500D01*
X28971334Y-38143500D01*
X28965731Y-38087697D01*
X28962067Y-38025486D01*
X28960797Y-37947106D01*
X28961756Y-37903425D01*
X28964148Y-37857587D01*
X28968253Y-37810221D01*
X28968265Y-37810125D01*
X29345188Y-37810125D01*
X30535812Y-37810125D01*
X30525749Y-37750213D01*
X30510187Y-37693946D01*
X30489501Y-37641344D01*
X30464065Y-37592432D01*
X30434253Y-37547229D01*
X30400442Y-37505760D01*
X30363006Y-37468045D01*
X30322319Y-37434107D01*
X30278757Y-37403968D01*
X30232693Y-37377650D01*
X30184504Y-37355175D01*
X30134563Y-37336565D01*
X30083246Y-37321843D01*
X30030928Y-37311030D01*
X29977982Y-37304149D01*
X29924785Y-37301222D01*
X29871710Y-37302270D01*
X29819133Y-37307317D01*
X29767428Y-37316383D01*
X29716970Y-37329491D01*
X29668135Y-37346664D01*
X29621296Y-37367923D01*
X29576829Y-37393290D01*
X29535108Y-37422788D01*
X29496508Y-37456439D01*
X29461405Y-37494265D01*
X29430172Y-37536287D01*
X29403185Y-37582528D01*
X29380818Y-37633010D01*
X29363446Y-37687756D01*
X29351445Y-37746787D01*
X29345188Y-37810125D01*
X28968265Y-37810125D01*
X28974348Y-37761956D01*
X28982711Y-37713421D01*
X28993622Y-37665243D01*
X29007358Y-37618052D01*
X29024198Y-37572476D01*
X29041230Y-37526257D01*
X29060224Y-37481981D01*
X29081112Y-37439638D01*
X29103824Y-37399221D01*
X29128292Y-37360718D01*
X29154448Y-37324123D01*
X29182224Y-37289424D01*
X29211550Y-37256614D01*
X29242359Y-37225683D01*
X29274582Y-37196622D01*
X29308150Y-37169421D01*
X29342996Y-37144073D01*
X29379050Y-37120566D01*
X29416244Y-37098894D01*
X29454510Y-37079046D01*
X29493780Y-37061013D01*
X29575055Y-37030357D01*
X29659521Y-37006852D01*
X29746632Y-36990427D01*
X29835839Y-36981007D01*
X29926595Y-36978520D01*
X30018351Y-36982894D01*
X30110562Y-36994055D01*
X30202678Y-37011930D01*
X30295908Y-37038526D01*
X30382518Y-37073373D01*
X30462547Y-37115893D01*
X30536035Y-37165510D01*
X30603019Y-37221648D01*
X30663539Y-37283730D01*
X30717633Y-37351180D01*
X30765341Y-37423421D01*
X30806700Y-37499876D01*
X30841750Y-37579970D01*
X30870530Y-37663126D01*
X30893078Y-37748767D01*
X30904539Y-37810125D01*
X30909432Y-37836317D01*
G37*
G36*
X38410211Y-57825545D02*
G01*
X38117767Y-58117989D01*
X34040036Y-58117989D01*
X33747592Y-57825545D01*
X33747592Y-57825360D01*
X33747591Y-57825359D01*
X33747592Y-57825359D01*
X33748834Y-54046370D01*
X34305624Y-54046370D01*
X34305624Y-57562180D01*
X37854586Y-57562180D01*
X37854586Y-54046370D01*
X34305624Y-54046370D01*
X33748834Y-54046370D01*
X33750000Y-50500000D01*
X33749999Y-50499815D01*
X34305624Y-50499815D01*
X34305624Y-53490745D01*
X38117767Y-53490745D01*
X38410211Y-53783189D01*
X38410211Y-57562180D01*
X38410211Y-57825545D01*
G37*
G36*
X40283407Y-58117803D02*
G01*
X39727782Y-58117803D01*
X39727782Y-52042971D01*
X40283407Y-52042971D01*
X40283407Y-58117803D01*
G37*
G36*
X44923087Y-42074706D02*
G01*
X44924285Y-42132092D01*
X44928129Y-42192624D01*
X44934993Y-42255357D01*
X44945251Y-42319346D01*
X44959278Y-42383646D01*
X44977448Y-42447312D01*
X45000135Y-42509400D01*
X45027713Y-42568964D01*
X45043453Y-42597504D01*
X45060557Y-42625059D01*
X45079071Y-42651511D01*
X45099041Y-42676741D01*
X45120515Y-42700632D01*
X45143540Y-42723064D01*
X45168161Y-42743921D01*
X45194426Y-42763084D01*
X45222383Y-42780435D01*
X45252076Y-42795856D01*
X45283554Y-42809228D01*
X45316863Y-42820434D01*
X45352050Y-42829355D01*
X45389162Y-42835874D01*
X45428244Y-42839871D01*
X45469346Y-42841230D01*
X45505488Y-42840130D01*
X45539399Y-42836888D01*
X45571150Y-42831591D01*
X45600812Y-42824328D01*
X45628456Y-42815185D01*
X45654153Y-42804250D01*
X45677975Y-42791612D01*
X45699992Y-42777357D01*
X45720275Y-42761573D01*
X45738896Y-42744348D01*
X45755925Y-42725770D01*
X45771434Y-42705925D01*
X45785493Y-42684902D01*
X45798175Y-42662788D01*
X45809549Y-42639670D01*
X45819687Y-42615637D01*
X45828660Y-42590776D01*
X45836539Y-42565174D01*
X45843395Y-42538920D01*
X45849299Y-42512100D01*
X45854322Y-42484802D01*
X45858536Y-42457115D01*
X45864819Y-42400919D01*
X45868716Y-42344215D01*
X45870795Y-42287702D01*
X45871776Y-42178053D01*
X45871776Y-40945042D01*
X46491854Y-40945042D01*
X46491854Y-42401891D01*
X46488962Y-42497805D01*
X46480212Y-42590187D01*
X46465496Y-42678672D01*
X46444705Y-42762892D01*
X46431998Y-42803288D01*
X46417731Y-42842481D01*
X46401890Y-42880425D01*
X46384463Y-42917073D01*
X46365436Y-42952381D01*
X46344795Y-42986301D01*
X46322526Y-43018789D01*
X46298616Y-43049799D01*
X46273051Y-43079284D01*
X46245817Y-43107199D01*
X46216902Y-43133497D01*
X46186291Y-43158135D01*
X46153971Y-43181064D01*
X46119928Y-43202240D01*
X46084149Y-43221617D01*
X46046620Y-43239148D01*
X46007327Y-43254789D01*
X45966257Y-43268493D01*
X45923396Y-43280215D01*
X45878731Y-43289908D01*
X45832247Y-43297526D01*
X45783932Y-43303025D01*
X45733772Y-43306358D01*
X45681753Y-43307479D01*
X45621687Y-43305814D01*
X45562955Y-43300882D01*
X45505591Y-43292774D01*
X45449629Y-43281583D01*
X45395103Y-43267400D01*
X45342047Y-43250318D01*
X45290493Y-43230429D01*
X45240477Y-43207824D01*
X45192033Y-43182596D01*
X45145193Y-43154837D01*
X45099991Y-43124640D01*
X45056463Y-43092095D01*
X45014640Y-43057296D01*
X44974558Y-43020334D01*
X44936250Y-42981302D01*
X44899750Y-42940291D01*
X44890226Y-42940291D01*
X44890226Y-43253901D01*
X44302295Y-43253901D01*
X44302295Y-40945041D01*
X44302533Y-40945041D01*
X44923087Y-40945041D01*
X44923087Y-42074706D01*
G37*
G36*
X32035352Y-39620010D02*
G01*
X32035285Y-39619875D01*
X32035523Y-39619875D01*
X32035352Y-39620010D01*
G37*
G36*
X40515156Y-38758815D02*
G01*
X39823640Y-38758815D01*
X39777996Y-38757596D01*
X39733114Y-38753954D01*
X39689040Y-38747914D01*
X39645817Y-38739501D01*
X39603492Y-38728740D01*
X39562109Y-38715655D01*
X39521714Y-38700272D01*
X39482351Y-38682615D01*
X39444066Y-38662709D01*
X39406903Y-38640578D01*
X39370908Y-38616248D01*
X39336125Y-38589743D01*
X39302600Y-38561088D01*
X39270378Y-38530307D01*
X39239504Y-38497426D01*
X39210022Y-38462469D01*
X39181978Y-38425461D01*
X39155417Y-38386427D01*
X39130384Y-38345391D01*
X39106924Y-38302378D01*
X39085082Y-38257414D01*
X39064903Y-38210522D01*
X39046432Y-38161728D01*
X39029714Y-38111056D01*
X39014794Y-38058531D01*
X39001717Y-38004178D01*
X38990529Y-37948022D01*
X38981273Y-37890087D01*
X38973997Y-37830398D01*
X38968743Y-37768980D01*
X38965558Y-37705858D01*
X38964486Y-37641056D01*
X38964486Y-37534375D01*
X39245234Y-37534375D01*
X39245234Y-37628911D01*
X39248511Y-37727377D01*
X39258158Y-37820596D01*
X39273896Y-37908413D01*
X39283963Y-37950250D01*
X39295449Y-37990678D01*
X39308319Y-38029681D01*
X39322538Y-38067238D01*
X39338072Y-38103331D01*
X39354885Y-38137941D01*
X39372944Y-38171047D01*
X39392214Y-38202633D01*
X39412660Y-38232677D01*
X39434246Y-38261162D01*
X39456939Y-38288068D01*
X39480704Y-38313377D01*
X39505506Y-38337068D01*
X39531310Y-38359124D01*
X39558082Y-38379525D01*
X39585786Y-38398251D01*
X39614389Y-38415285D01*
X39643856Y-38430607D01*
X39674151Y-38444197D01*
X39705240Y-38456037D01*
X39737089Y-38466108D01*
X39769662Y-38474390D01*
X39802925Y-38480865D01*
X39836844Y-38485514D01*
X39871383Y-38488317D01*
X39906508Y-38489256D01*
X40217260Y-38489256D01*
X40217260Y-36674030D01*
X39906508Y-36674030D01*
X39871383Y-36674968D01*
X39836844Y-36677771D01*
X39802925Y-36682420D01*
X39769662Y-36688895D01*
X39737089Y-36697178D01*
X39705240Y-36707248D01*
X39674151Y-36719089D01*
X39643856Y-36732679D01*
X39614389Y-36748001D01*
X39585786Y-36765034D01*
X39558082Y-36783761D01*
X39531310Y-36804162D01*
X39505506Y-36826217D01*
X39480704Y-36849909D01*
X39456939Y-36875217D01*
X39434246Y-36902124D01*
X39412660Y-36930609D01*
X39392214Y-36960653D01*
X39372944Y-36992238D01*
X39354885Y-37025345D01*
X39338072Y-37059955D01*
X39322538Y-37096048D01*
X39308319Y-37133605D01*
X39295449Y-37172607D01*
X39283963Y-37213036D01*
X39273896Y-37254873D01*
X39265283Y-37298097D01*
X39258158Y-37342691D01*
X39252556Y-37388634D01*
X39248511Y-37435909D01*
X39246059Y-37484495D01*
X39245234Y-37534375D01*
X38964486Y-37534375D01*
X38964486Y-37517946D01*
X38968743Y-37389983D01*
X38981274Y-37268847D01*
X39001717Y-37154736D01*
X39014794Y-37100376D01*
X39029714Y-37047846D01*
X39046432Y-36997171D01*
X39064903Y-36948375D01*
X39085082Y-36901483D01*
X39106924Y-36856520D01*
X39130384Y-36813510D01*
X39155418Y-36772477D01*
X39181979Y-36733447D01*
X39210022Y-36696444D01*
X39239504Y-36661493D01*
X39270379Y-36628619D01*
X39302601Y-36597845D01*
X39336126Y-36569197D01*
X39370908Y-36542699D01*
X39406904Y-36518376D01*
X39444066Y-36496253D01*
X39482352Y-36476354D01*
X39521715Y-36458703D01*
X39562110Y-36443326D01*
X39603493Y-36430248D01*
X39645818Y-36419491D01*
X39689040Y-36411083D01*
X39733115Y-36405046D01*
X39777997Y-36401406D01*
X39823641Y-36400187D01*
X39823640Y-36399949D01*
X40515156Y-36399949D01*
X40515156Y-38489256D01*
X40515156Y-38758815D01*
G37*
G36*
X32809312Y-39591364D02*
G01*
X32835178Y-39592703D01*
X32860885Y-39595086D01*
X32886382Y-39598515D01*
X32911616Y-39602993D01*
X32936536Y-39608521D01*
X32961090Y-39615100D01*
X32985226Y-39622733D01*
X33008892Y-39631420D01*
X33032035Y-39641163D01*
X33054604Y-39651965D01*
X33076547Y-39663827D01*
X33097812Y-39676750D01*
X33118347Y-39690736D01*
X33138100Y-39705787D01*
X33157018Y-39721904D01*
X33175051Y-39739089D01*
X33192146Y-39757344D01*
X33208251Y-39776671D01*
X33223314Y-39797070D01*
X33237283Y-39818544D01*
X33250106Y-39841095D01*
X33261731Y-39864724D01*
X33272107Y-39889432D01*
X33023504Y-40073265D01*
X32988500Y-40061596D01*
X32973586Y-40035570D01*
X32958534Y-40012587D01*
X32943350Y-39992516D01*
X32928036Y-39975223D01*
X32912595Y-39960576D01*
X32897031Y-39948440D01*
X32881347Y-39938684D01*
X32865546Y-39931175D01*
X32849631Y-39925779D01*
X32833605Y-39922363D01*
X32817472Y-39920795D01*
X32801236Y-39920942D01*
X32784898Y-39922670D01*
X32768463Y-39925847D01*
X32751934Y-39930340D01*
X32735313Y-39936016D01*
X32718605Y-39942741D01*
X32701812Y-39950384D01*
X32667984Y-39967888D01*
X32599455Y-40008052D01*
X32564806Y-40028584D01*
X32529933Y-40047998D01*
X32494864Y-40065230D01*
X32477264Y-40072696D01*
X32459624Y-40079218D01*
X32432781Y-40087822D01*
X32406148Y-40095375D01*
X32379734Y-40101879D01*
X32353550Y-40107337D01*
X32327604Y-40111750D01*
X32301906Y-40115120D01*
X32276465Y-40117451D01*
X32251291Y-40118743D01*
X32226392Y-40119000D01*
X32201779Y-40118224D01*
X32177460Y-40116416D01*
X32153446Y-40113579D01*
X32129745Y-40109716D01*
X32106366Y-40104828D01*
X32083320Y-40098918D01*
X32060616Y-40091988D01*
X32038262Y-40084039D01*
X32016269Y-40075076D01*
X31994645Y-40065099D01*
X31973400Y-40054110D01*
X31952544Y-40042113D01*
X31932086Y-40029109D01*
X31912034Y-40015101D01*
X31892399Y-40000090D01*
X31873191Y-39984079D01*
X31854417Y-39967070D01*
X31836088Y-39949066D01*
X31818213Y-39930069D01*
X31800802Y-39910080D01*
X31783863Y-39889102D01*
X31767406Y-39867138D01*
X31751441Y-39844189D01*
X32035352Y-39620010D01*
X32050766Y-39650985D01*
X32066353Y-39678562D01*
X32082048Y-39702758D01*
X32097847Y-39723729D01*
X32113750Y-39741627D01*
X32129756Y-39756607D01*
X32145864Y-39768824D01*
X32162072Y-39778429D01*
X32178379Y-39785579D01*
X32194783Y-39790426D01*
X32211285Y-39793125D01*
X32227882Y-39793828D01*
X32244573Y-39792692D01*
X32261357Y-39789868D01*
X32278232Y-39785512D01*
X32295198Y-39779776D01*
X32312254Y-39772816D01*
X32329398Y-39764784D01*
X32363944Y-39746123D01*
X32398828Y-39725025D01*
X32434040Y-39702720D01*
X32469570Y-39680441D01*
X32505409Y-39659418D01*
X32541546Y-39640882D01*
X32559723Y-39632932D01*
X32577972Y-39626066D01*
X32602924Y-39618075D01*
X32628185Y-39611114D01*
X32653704Y-39605185D01*
X32679428Y-39600288D01*
X32705306Y-39596427D01*
X32731285Y-39593602D01*
X32757314Y-39591816D01*
X32783340Y-39591069D01*
X32809312Y-39591364D01*
G37*
G36*
X32715425Y-36978971D02*
G01*
X32782343Y-36987731D01*
X32847705Y-37000954D01*
X32911068Y-37018657D01*
X32971991Y-37040852D01*
X33030030Y-37067555D01*
X33084743Y-37098781D01*
X33135686Y-37134543D01*
X33182418Y-37174856D01*
X33224496Y-37219735D01*
X33261477Y-37269195D01*
X33292919Y-37323249D01*
X33318378Y-37381912D01*
X33337412Y-37445200D01*
X33349579Y-37513126D01*
X33354436Y-37585704D01*
X33351540Y-37662951D01*
X33340449Y-37744879D01*
X33336512Y-37763312D01*
X33331516Y-37781287D01*
X33325506Y-37798808D01*
X33318525Y-37815876D01*
X33310616Y-37832493D01*
X33301825Y-37848664D01*
X33292193Y-37864389D01*
X33281766Y-37879673D01*
X33270587Y-37894517D01*
X33258700Y-37908924D01*
X33232975Y-37936438D01*
X33204943Y-37962236D01*
X33174953Y-37986338D01*
X33143355Y-38008767D01*
X33110501Y-38029541D01*
X33076739Y-38048684D01*
X33042421Y-38066215D01*
X33007896Y-38082155D01*
X32973515Y-38096525D01*
X32939628Y-38109347D01*
X32906585Y-38120641D01*
X32883563Y-38127565D01*
X32858219Y-38134261D01*
X32801434Y-38147180D01*
X32669562Y-38172581D01*
X32524875Y-38200170D01*
X32452073Y-38215824D01*
X32381282Y-38233273D01*
X32363586Y-38238379D01*
X32346157Y-38244174D01*
X32329034Y-38250636D01*
X32312258Y-38257745D01*
X32295872Y-38265482D01*
X32279916Y-38273824D01*
X32264431Y-38282753D01*
X32249458Y-38292246D01*
X32235038Y-38302285D01*
X32221212Y-38312848D01*
X32208022Y-38323915D01*
X32195508Y-38335465D01*
X32183712Y-38347478D01*
X32172675Y-38359934D01*
X32162437Y-38372811D01*
X32153039Y-38386090D01*
X32144524Y-38399750D01*
X32136931Y-38413770D01*
X32130303Y-38428130D01*
X32124679Y-38442809D01*
X32120102Y-38457788D01*
X32116611Y-38473045D01*
X32114249Y-38488559D01*
X32113057Y-38504312D01*
X32113074Y-38520281D01*
X32114343Y-38536447D01*
X32116905Y-38552788D01*
X32120800Y-38569285D01*
X32126070Y-38585918D01*
X32132756Y-38602664D01*
X32140898Y-38619505D01*
X32150539Y-38636419D01*
X32166081Y-38658495D01*
X32184196Y-38678503D01*
X32204712Y-38696493D01*
X32227455Y-38712519D01*
X32252253Y-38726632D01*
X32278933Y-38738883D01*
X32307322Y-38749326D01*
X32337247Y-38758012D01*
X32368536Y-38764993D01*
X32401015Y-38770321D01*
X32434512Y-38774047D01*
X32468855Y-38776225D01*
X32539384Y-38776141D01*
X32611220Y-38770484D01*
X32682981Y-38759670D01*
X32753285Y-38744116D01*
X32820748Y-38724235D01*
X32883989Y-38700446D01*
X32941625Y-38673162D01*
X32967909Y-38658340D01*
X32992274Y-38642801D01*
X33014546Y-38626596D01*
X33034554Y-38609777D01*
X33052123Y-38592397D01*
X33067082Y-38574507D01*
X33083092Y-38552433D01*
X33098235Y-38530256D01*
X33112468Y-38507873D01*
X33119230Y-38496572D01*
X33125749Y-38485180D01*
X33132020Y-38473685D01*
X33138037Y-38462074D01*
X33143796Y-38450334D01*
X33149290Y-38438452D01*
X33154515Y-38426414D01*
X33159466Y-38414210D01*
X33164137Y-38401824D01*
X33168522Y-38389245D01*
X33168763Y-38389243D01*
X33494994Y-38556408D01*
X33482712Y-38583536D01*
X33467104Y-38614360D01*
X33444958Y-38653950D01*
X33431380Y-38676389D01*
X33416103Y-38700248D01*
X33399107Y-38725270D01*
X33380370Y-38751198D01*
X33359871Y-38777774D01*
X33337588Y-38804743D01*
X33313500Y-38831846D01*
X33287587Y-38858826D01*
X33245311Y-38897446D01*
X33199004Y-38933048D01*
X33149032Y-38965594D01*
X33095761Y-38995049D01*
X33039556Y-39021376D01*
X32980783Y-39044538D01*
X32919809Y-39064498D01*
X32856998Y-39081221D01*
X32792716Y-39094669D01*
X32727330Y-39104805D01*
X32661204Y-39111594D01*
X32594705Y-39114997D01*
X32528198Y-39114980D01*
X32462050Y-39111505D01*
X32396625Y-39104536D01*
X32332289Y-39094035D01*
X32269409Y-39079967D01*
X32208350Y-39062294D01*
X32149478Y-39040981D01*
X32093158Y-39015990D01*
X32039756Y-38987284D01*
X31989639Y-38954828D01*
X31943171Y-38918585D01*
X31900718Y-38878517D01*
X31862646Y-38834589D01*
X31829321Y-38786763D01*
X31801109Y-38735004D01*
X31778375Y-38679274D01*
X31761486Y-38619536D01*
X31750806Y-38555755D01*
X31746701Y-38487894D01*
X31749538Y-38415915D01*
X31755827Y-38366556D01*
X31765733Y-38320666D01*
X31779073Y-38278091D01*
X31795665Y-38238676D01*
X31815324Y-38202265D01*
X31837870Y-38168706D01*
X31863119Y-38137843D01*
X31890888Y-38109522D01*
X31920995Y-38083588D01*
X31953257Y-38059887D01*
X31987491Y-38038265D01*
X32023515Y-38018566D01*
X32100202Y-37984321D01*
X32181854Y-37955916D01*
X32267012Y-37932116D01*
X32354213Y-37911684D01*
X32528899Y-37875980D01*
X32613461Y-37858236D01*
X32694220Y-37838915D01*
X32769715Y-37816781D01*
X32838484Y-37790598D01*
X32863081Y-37778710D01*
X32885507Y-37765741D01*
X32905800Y-37751779D01*
X32923998Y-37736913D01*
X32940138Y-37721231D01*
X32954260Y-37704821D01*
X32966399Y-37687772D01*
X32976595Y-37670171D01*
X32984885Y-37652108D01*
X32991307Y-37633670D01*
X32995898Y-37614945D01*
X32998697Y-37596023D01*
X32999742Y-37576991D01*
X32999070Y-37557937D01*
X32996719Y-37538951D01*
X32992727Y-37520119D01*
X32987132Y-37501531D01*
X32979972Y-37483275D01*
X32971284Y-37465439D01*
X32961107Y-37448111D01*
X32949478Y-37431380D01*
X32936435Y-37415334D01*
X32922015Y-37400061D01*
X32906258Y-37385649D01*
X32889200Y-37372188D01*
X32870880Y-37359764D01*
X32851335Y-37348467D01*
X32830603Y-37338384D01*
X32808723Y-37329605D01*
X32785731Y-37322217D01*
X32761665Y-37316308D01*
X32736565Y-37311968D01*
X32704989Y-37308080D01*
X32674233Y-37305211D01*
X32644278Y-37303360D01*
X32615109Y-37302526D01*
X32586707Y-37302709D01*
X32559058Y-37303907D01*
X32532142Y-37306119D01*
X32505945Y-37309345D01*
X32480448Y-37313583D01*
X32455635Y-37318834D01*
X32431489Y-37325095D01*
X32407993Y-37332365D01*
X32385130Y-37340645D01*
X32362884Y-37349933D01*
X32341237Y-37360228D01*
X32320173Y-37371529D01*
X32299675Y-37383835D01*
X32279726Y-37397146D01*
X32260309Y-37411460D01*
X32241407Y-37426777D01*
X32223003Y-37443096D01*
X32205080Y-37460415D01*
X32187622Y-37478734D01*
X32170612Y-37498051D01*
X32154033Y-37518367D01*
X32137867Y-37539680D01*
X32122099Y-37561989D01*
X32106710Y-37585293D01*
X32077007Y-37634883D01*
X32048621Y-37688443D01*
X31755252Y-37527233D01*
X31758935Y-37515754D01*
X31763816Y-37502105D01*
X31770967Y-37483804D01*
X31780575Y-37461318D01*
X31792822Y-37435111D01*
X31807894Y-37405651D01*
X31816546Y-37389847D01*
X31825974Y-37373403D01*
X31863110Y-37316943D01*
X31905330Y-37264729D01*
X31952191Y-37216776D01*
X32003250Y-37173098D01*
X32058066Y-37133710D01*
X32116196Y-37098627D01*
X32177196Y-37067863D01*
X32240624Y-37041432D01*
X32306037Y-37019349D01*
X32372994Y-37001628D01*
X32441050Y-36988285D01*
X32509764Y-36979333D01*
X32578693Y-36974787D01*
X32647394Y-36974662D01*
X32715425Y-36978971D01*
G37*
G36*
X30202438Y-33000000D02*
G01*
X29750000Y-33000000D01*
X29750000Y-32523750D01*
X30202438Y-32523750D01*
X30202438Y-33000000D01*
G37*
G36*
X33552498Y-34466314D02*
G01*
X33548741Y-34573947D01*
X33536563Y-34680723D01*
X33516007Y-34785671D01*
X33487118Y-34887818D01*
X33449942Y-34986192D01*
X33404522Y-35079821D01*
X33350904Y-35167734D01*
X33289132Y-35248957D01*
X33219250Y-35322518D01*
X33141304Y-35387446D01*
X33055339Y-35442769D01*
X32961397Y-35487513D01*
X32859525Y-35520708D01*
X32749767Y-35541380D01*
X32632168Y-35548558D01*
X32506772Y-35541270D01*
X32462809Y-35535153D01*
X32421139Y-35527285D01*
X32381537Y-35517718D01*
X32343779Y-35506504D01*
X32307642Y-35493692D01*
X32272900Y-35479337D01*
X32239329Y-35463488D01*
X32206705Y-35446199D01*
X32174804Y-35427519D01*
X32143402Y-35407501D01*
X32112273Y-35386197D01*
X32081195Y-35363659D01*
X32049942Y-35339936D01*
X32018290Y-35315083D01*
X31952893Y-35262187D01*
X31838832Y-35503646D01*
X31607375Y-35500313D01*
X31607373Y-35500313D01*
X31607218Y-34508076D01*
X31932624Y-34508076D01*
X31938203Y-34583277D01*
X31949718Y-34657514D01*
X31967159Y-34730087D01*
X31990514Y-34800296D01*
X32019770Y-34867440D01*
X32054917Y-34930820D01*
X32095941Y-34989737D01*
X32142833Y-35043489D01*
X32195579Y-35091377D01*
X32254168Y-35132701D01*
X32318589Y-35166762D01*
X32388830Y-35192859D01*
X32464878Y-35210292D01*
X32546723Y-35218361D01*
X32634352Y-35216367D01*
X32727754Y-35203609D01*
X32784693Y-35189119D01*
X32838028Y-35168349D01*
X32887737Y-35141724D01*
X32933800Y-35109674D01*
X32976197Y-35072625D01*
X33014908Y-35031006D01*
X33049911Y-34985242D01*
X33081187Y-34935763D01*
X33108714Y-34882995D01*
X33132474Y-34827366D01*
X33152444Y-34769303D01*
X33168605Y-34709233D01*
X33180936Y-34647586D01*
X33189417Y-34584786D01*
X33194027Y-34521264D01*
X33194746Y-34457444D01*
X33191553Y-34393756D01*
X33184428Y-34330627D01*
X33173351Y-34268483D01*
X33158301Y-34207754D01*
X33139257Y-34148865D01*
X33116200Y-34092245D01*
X33089108Y-34038320D01*
X33057961Y-33987520D01*
X33022740Y-33940270D01*
X32983422Y-33896998D01*
X32939989Y-33858133D01*
X32892419Y-33824101D01*
X32840691Y-33795330D01*
X32784787Y-33772247D01*
X32724684Y-33755279D01*
X32660364Y-33744855D01*
X32569355Y-33740294D01*
X32484472Y-33745968D01*
X32405701Y-33761176D01*
X32333032Y-33785219D01*
X32266452Y-33817397D01*
X32205950Y-33857010D01*
X32151514Y-33903358D01*
X32103132Y-33955741D01*
X32060793Y-34013460D01*
X32024484Y-34075813D01*
X31994195Y-34142102D01*
X31969913Y-34211626D01*
X31951626Y-34283685D01*
X31939324Y-34357580D01*
X31932994Y-34432610D01*
X31932624Y-34508076D01*
X31607218Y-34508076D01*
X31606897Y-32454456D01*
X31964561Y-32452313D01*
X31964561Y-33690562D01*
X32014453Y-33646378D01*
X32066780Y-33602434D01*
X32093851Y-33580982D01*
X32121524Y-33560108D01*
X32149797Y-33539983D01*
X32178666Y-33520779D01*
X32208129Y-33502670D01*
X32238184Y-33485826D01*
X32268829Y-33470421D01*
X32300061Y-33456627D01*
X32331878Y-33444616D01*
X32364277Y-33434561D01*
X32397255Y-33426633D01*
X32430811Y-33421005D01*
X32567875Y-33410127D01*
X32695803Y-33413947D01*
X32814640Y-33431492D01*
X32924429Y-33461791D01*
X33025217Y-33503872D01*
X33117046Y-33556763D01*
X33199963Y-33619491D01*
X33274012Y-33691083D01*
X33339236Y-33770569D01*
X33395682Y-33856976D01*
X33443394Y-33949332D01*
X33482415Y-34046664D01*
X33512792Y-34148000D01*
X33534568Y-34252369D01*
X33547789Y-34358797D01*
X33552110Y-34457444D01*
X33552498Y-34466314D01*
G37*
G36*
X46695927Y-38758815D02*
G01*
X46398271Y-38758815D01*
X46398271Y-37682013D01*
X45395288Y-37682013D01*
X45395288Y-37424125D01*
X46398271Y-37424125D01*
X46398271Y-36678793D01*
X45215504Y-36678793D01*
X45215504Y-36399949D01*
X46695927Y-36399949D01*
X46695927Y-38758815D01*
G37*
G36*
X42733527Y-38758815D02*
G01*
X42422060Y-38758815D01*
X42185126Y-38033724D01*
X41429317Y-38033724D01*
X41192382Y-38758815D01*
X40880915Y-38758815D01*
X41218350Y-37795839D01*
X41506946Y-37795839D01*
X42107259Y-37795839D01*
X41812698Y-36894773D01*
X41801268Y-36894773D01*
X41506946Y-37795839D01*
X41218350Y-37795839D01*
X41534092Y-36894773D01*
X41533853Y-36894772D01*
X41707208Y-36399949D01*
X41906996Y-36399949D01*
X42080350Y-36894772D01*
X42396092Y-37795839D01*
X42733527Y-38758815D01*
G37*
G36*
X30821563Y-33785812D02*
G01*
X30131000Y-33785812D01*
X30131000Y-35166937D01*
X30893000Y-35166937D01*
X30893000Y-35500313D01*
X28988001Y-35500313D01*
X28988001Y-35166937D01*
X29773813Y-35166937D01*
X29773813Y-33476250D01*
X30821563Y-33476250D01*
X30821563Y-33785812D01*
G37*
G36*
X44803548Y-38758815D02*
G01*
X44492081Y-38758815D01*
X44255146Y-38033724D01*
X43499338Y-38033724D01*
X43262403Y-38758815D01*
X42950936Y-38758815D01*
X43288371Y-37795839D01*
X43576966Y-37795839D01*
X44177279Y-37795839D01*
X43882719Y-36894773D01*
X43871288Y-36894773D01*
X43576966Y-37795839D01*
X43288371Y-37795839D01*
X43604113Y-36894773D01*
X43603875Y-36894772D01*
X43777229Y-36399949D01*
X43977016Y-36399949D01*
X44150372Y-36894772D01*
X44466113Y-37795839D01*
X44803548Y-38758815D01*
G37*
G36*
X32529441Y-40546407D02*
G01*
X32573552Y-40550899D01*
X32617375Y-40557863D01*
X32660777Y-40567297D01*
X32703620Y-40579200D01*
X32745771Y-40593572D01*
X32787094Y-40610412D01*
X32827452Y-40629717D01*
X32866711Y-40651489D01*
X32904736Y-40675725D01*
X32941391Y-40702424D01*
X32976541Y-40731586D01*
X33010050Y-40763209D01*
X33041782Y-40797293D01*
X33071604Y-40833836D01*
X33095606Y-40794842D01*
X33121551Y-40754410D01*
X33147853Y-40714587D01*
X33172926Y-40677418D01*
X33213050Y-40619223D01*
X33229243Y-40596188D01*
X33464511Y-40596188D01*
X33464511Y-42620250D01*
X33085654Y-42620250D01*
X33085654Y-41532971D01*
X33083519Y-41461152D01*
X33080852Y-41426464D01*
X33077117Y-41392621D01*
X33072315Y-41359647D01*
X33066448Y-41327564D01*
X33059513Y-41296397D01*
X33051513Y-41266167D01*
X33042447Y-41236899D01*
X33032314Y-41208616D01*
X33021117Y-41181340D01*
X33008853Y-41155095D01*
X32995525Y-41129905D01*
X32981131Y-41105791D01*
X32965673Y-41082778D01*
X32949149Y-41060889D01*
X32931561Y-41040147D01*
X32912909Y-41020575D01*
X32893192Y-41002196D01*
X32872412Y-40985033D01*
X32850567Y-40969111D01*
X32827659Y-40954451D01*
X32803687Y-40941077D01*
X32778652Y-40929013D01*
X32752554Y-40918281D01*
X32725392Y-40908904D01*
X32697168Y-40900907D01*
X32667881Y-40894312D01*
X32637532Y-40889141D01*
X32606120Y-40885420D01*
X32573646Y-40883170D01*
X32540110Y-40882415D01*
X32497194Y-40883970D01*
X32454657Y-40888650D01*
X32412830Y-40896476D01*
X32392286Y-40901575D01*
X32372043Y-40907470D01*
X32352141Y-40914161D01*
X32332624Y-40921653D01*
X32313530Y-40929948D01*
X32294903Y-40939048D01*
X32276782Y-40948956D01*
X32259210Y-40959676D01*
X32242227Y-40971208D01*
X32225875Y-40983558D01*
X32210195Y-40996726D01*
X32195227Y-41010716D01*
X32181014Y-41025530D01*
X32167596Y-41041172D01*
X32155015Y-41057643D01*
X32143312Y-41074947D01*
X32132528Y-41093086D01*
X32122704Y-41112063D01*
X32113881Y-41131881D01*
X32106101Y-41152542D01*
X32099405Y-41174049D01*
X32093834Y-41196405D01*
X32089430Y-41219612D01*
X32086233Y-41243674D01*
X32084284Y-41268592D01*
X32083625Y-41294370D01*
X32083625Y-42620250D01*
X31726438Y-42620250D01*
X31726318Y-42620369D01*
X31726197Y-42620487D01*
X31726197Y-41272225D01*
X31726772Y-41244693D01*
X31728462Y-41217642D01*
X31731217Y-41191070D01*
X31734986Y-41164978D01*
X31739717Y-41139367D01*
X31745360Y-41114235D01*
X31751864Y-41089584D01*
X31759178Y-41065412D01*
X31767251Y-41041721D01*
X31776033Y-41018509D01*
X31785471Y-40995777D01*
X31795515Y-40973526D01*
X31806115Y-40951754D01*
X31817219Y-40930463D01*
X31828777Y-40909651D01*
X31840737Y-40889320D01*
X31866860Y-40849153D01*
X31895133Y-40811476D01*
X31925421Y-40776288D01*
X31957589Y-40743587D01*
X31991500Y-40713373D01*
X32027020Y-40685645D01*
X32064013Y-40660401D01*
X32102343Y-40637640D01*
X32141876Y-40617362D01*
X32182476Y-40599565D01*
X32224008Y-40584249D01*
X32266335Y-40571413D01*
X32309324Y-40561055D01*
X32352838Y-40553174D01*
X32396742Y-40547770D01*
X32440901Y-40544842D01*
X32485179Y-40544388D01*
X32529441Y-40546407D01*
G37*
G36*
X42231243Y-59768196D02*
G01*
X41928427Y-60063603D01*
X33747591Y-60063603D01*
X33747591Y-59507978D01*
X41675248Y-59507978D01*
X41675248Y-50499815D01*
X42230873Y-50499815D01*
X42231243Y-59768196D01*
G37*
G36*
X37680514Y-37704397D02*
G01*
X34750149Y-37704397D01*
X34750149Y-37451984D01*
X37680514Y-37451984D01*
X37680514Y-37704397D01*
G37*
G36*
X30914633Y-41622400D02*
G01*
X30910383Y-41722161D01*
X30898632Y-41821047D01*
X30879330Y-41918275D01*
X30852426Y-42013059D01*
X30817871Y-42104613D01*
X30775614Y-42192153D01*
X30725605Y-42274892D01*
X30667794Y-42352046D01*
X30602130Y-42422828D01*
X30528563Y-42486455D01*
X30447043Y-42542139D01*
X30357521Y-42589097D01*
X30259944Y-42626542D01*
X30154264Y-42653690D01*
X30040430Y-42669755D01*
X29918392Y-42673951D01*
X29788099Y-42665493D01*
X29683193Y-42647544D01*
X29585356Y-42618518D01*
X29494623Y-42579213D01*
X29411029Y-42530427D01*
X29334610Y-42472958D01*
X29265402Y-42407605D01*
X29203439Y-42335164D01*
X29148756Y-42256435D01*
X29101390Y-42172215D01*
X29061375Y-42083303D01*
X29028746Y-41990495D01*
X29003540Y-41894592D01*
X28985791Y-41796389D01*
X28975535Y-41696687D01*
X28973820Y-41633594D01*
X29337455Y-41633594D01*
X29338101Y-41682417D01*
X29340835Y-41730406D01*
X29345682Y-41777446D01*
X29352663Y-41823422D01*
X29361802Y-41868219D01*
X29373123Y-41911721D01*
X29386647Y-41953814D01*
X29402399Y-41994381D01*
X29420401Y-42033307D01*
X29440677Y-42070478D01*
X29463249Y-42105778D01*
X29488141Y-42139091D01*
X29515375Y-42170303D01*
X29544976Y-42199298D01*
X29576966Y-42225961D01*
X29611368Y-42250176D01*
X29648205Y-42271829D01*
X29687500Y-42290803D01*
X29729277Y-42306985D01*
X29773559Y-42320257D01*
X29820368Y-42330506D01*
X29869728Y-42337615D01*
X29921662Y-42341470D01*
X29976193Y-42341956D01*
X30033344Y-42338956D01*
X30093139Y-42332356D01*
X30148610Y-42321108D01*
X30200462Y-42303493D01*
X30248703Y-42279928D01*
X30293340Y-42250832D01*
X30334383Y-42216623D01*
X30371839Y-42177718D01*
X30405717Y-42134535D01*
X30436024Y-42087493D01*
X30462769Y-42037009D01*
X30485960Y-41983501D01*
X30505606Y-41927387D01*
X30521714Y-41869085D01*
X30534292Y-41809013D01*
X30543350Y-41747589D01*
X30548894Y-41685231D01*
X30550934Y-41622357D01*
X30549478Y-41559384D01*
X30544533Y-41496730D01*
X30536108Y-41434815D01*
X30524211Y-41374054D01*
X30508850Y-41314867D01*
X30490033Y-41257671D01*
X30467770Y-41202885D01*
X30442067Y-41150925D01*
X30412933Y-41102211D01*
X30380376Y-41057159D01*
X30344405Y-41016188D01*
X30305027Y-40979717D01*
X30262252Y-40948161D01*
X30216086Y-40921941D01*
X30166538Y-40901473D01*
X30113617Y-40887176D01*
X30113617Y-40887413D01*
X30080590Y-40881348D01*
X30047919Y-40876633D01*
X30015634Y-40873260D01*
X29983763Y-40871224D01*
X29952334Y-40870517D01*
X29921378Y-40871133D01*
X29890921Y-40873065D01*
X29860994Y-40876307D01*
X29831624Y-40880852D01*
X29802840Y-40886692D01*
X29774672Y-40893822D01*
X29747148Y-40902235D01*
X29720297Y-40911924D01*
X29694147Y-40922883D01*
X29668727Y-40935104D01*
X29644066Y-40948582D01*
X29620192Y-40963309D01*
X29597135Y-40979278D01*
X29574923Y-40996484D01*
X29553585Y-41014919D01*
X29533150Y-41034578D01*
X29513646Y-41055452D01*
X29495101Y-41077535D01*
X29477546Y-41100822D01*
X29461008Y-41125304D01*
X29445516Y-41150976D01*
X29431099Y-41177831D01*
X29417786Y-41205861D01*
X29405605Y-41235062D01*
X29394586Y-41265424D01*
X29384756Y-41296943D01*
X29376145Y-41329612D01*
X29364745Y-41381014D01*
X29355294Y-41432275D01*
X29347817Y-41483279D01*
X29342336Y-41533910D01*
X29338874Y-41584053D01*
X29337455Y-41633594D01*
X28973820Y-41633594D01*
X28972806Y-41596281D01*
X28977641Y-41495972D01*
X28990075Y-41396556D01*
X29010142Y-41298832D01*
X29037879Y-41203597D01*
X29073320Y-41111651D01*
X29116501Y-41023790D01*
X29167457Y-40940813D01*
X29226224Y-40863518D01*
X29292837Y-40792703D01*
X29367331Y-40729166D01*
X29449741Y-40673706D01*
X29540103Y-40627119D01*
X29638452Y-40590204D01*
X29744823Y-40563760D01*
X29859253Y-40548584D01*
X29981775Y-40545475D01*
X30112425Y-40555229D01*
X30214662Y-40573848D01*
X30310151Y-40603374D01*
X30398842Y-40643021D01*
X30480686Y-40692004D01*
X30555631Y-40749539D01*
X30623628Y-40814838D01*
X30684626Y-40887118D01*
X30738575Y-40965593D01*
X30785426Y-41049477D01*
X30825127Y-41137986D01*
X30857628Y-41230333D01*
X30882879Y-41325733D01*
X30900831Y-41423401D01*
X30911432Y-41522552D01*
X30914631Y-41622357D01*
X30914633Y-41622400D01*
G37*
G36*
X44102170Y-42211064D02*
G01*
X44092395Y-42327448D01*
X44075755Y-42440955D01*
X44051966Y-42550822D01*
X44020743Y-42656286D01*
X43981801Y-42756583D01*
X43959347Y-42804555D01*
X43934856Y-42850950D01*
X43908293Y-42895671D01*
X43879623Y-42938624D01*
X43848810Y-42979712D01*
X43815818Y-43018841D01*
X43780611Y-43055915D01*
X43743155Y-43090839D01*
X43703414Y-43123518D01*
X43661351Y-43153855D01*
X43616932Y-43181755D01*
X43570120Y-43207124D01*
X43520881Y-43229866D01*
X43469179Y-43249885D01*
X43414977Y-43267085D01*
X43358241Y-43281373D01*
X43298935Y-43292651D01*
X43237023Y-43300825D01*
X43172471Y-43305800D01*
X43105241Y-43307479D01*
X43051073Y-43306419D01*
X42997813Y-43303194D01*
X42945508Y-43297739D01*
X42894206Y-43289988D01*
X42843954Y-43279875D01*
X42794801Y-43267333D01*
X42746794Y-43252298D01*
X42699981Y-43234702D01*
X42654410Y-43214481D01*
X42610129Y-43191568D01*
X42567185Y-43165897D01*
X42525626Y-43137402D01*
X42485500Y-43106018D01*
X42446854Y-43071678D01*
X42409737Y-43034317D01*
X42374197Y-42993869D01*
X42365148Y-42993869D01*
X42365148Y-43253662D01*
X42365148Y-43253900D01*
X41763167Y-43253900D01*
X41763928Y-42092802D01*
X42387532Y-42092802D01*
X42389141Y-42154419D01*
X42394108Y-42217668D01*
X42402642Y-42281775D01*
X42414954Y-42345966D01*
X42431253Y-42409468D01*
X42451751Y-42471507D01*
X42476656Y-42531310D01*
X42506178Y-42588102D01*
X42522737Y-42615127D01*
X42540528Y-42641110D01*
X42559579Y-42665954D01*
X42579916Y-42689561D01*
X42601565Y-42711835D01*
X42624551Y-42732680D01*
X42648902Y-42751999D01*
X42674644Y-42769695D01*
X42701803Y-42785671D01*
X42730405Y-42799830D01*
X42760476Y-42812077D01*
X42792043Y-42822314D01*
X42825131Y-42830444D01*
X42859768Y-42836371D01*
X42895979Y-42839998D01*
X42933791Y-42841229D01*
X42971536Y-42839985D01*
X43007554Y-42836319D01*
X43041880Y-42830330D01*
X43074547Y-42822118D01*
X43105591Y-42811783D01*
X43135046Y-42799422D01*
X43162947Y-42785137D01*
X43189329Y-42769025D01*
X43214226Y-42751187D01*
X43237673Y-42731721D01*
X43259706Y-42710727D01*
X43280357Y-42688305D01*
X43299664Y-42664554D01*
X43317659Y-42639572D01*
X43334377Y-42613460D01*
X43349855Y-42586316D01*
X43364125Y-42558240D01*
X43377223Y-42529332D01*
X43389184Y-42499690D01*
X43400041Y-42469414D01*
X43409831Y-42438604D01*
X43418588Y-42407358D01*
X43433139Y-42343957D01*
X43443974Y-42280006D01*
X43451369Y-42216300D01*
X43455602Y-42153634D01*
X43456952Y-42092802D01*
X43457189Y-42092802D01*
X43455842Y-42033493D01*
X43451624Y-41972269D01*
X43444272Y-41909923D01*
X43433522Y-41847247D01*
X43419109Y-41785032D01*
X43400769Y-41724071D01*
X43378238Y-41665157D01*
X43351253Y-41609081D01*
X43336008Y-41582355D01*
X43319549Y-41556635D01*
X43301845Y-41532021D01*
X43282863Y-41508612D01*
X43262568Y-41486507D01*
X43240929Y-41465804D01*
X43217912Y-41446603D01*
X43193484Y-41429003D01*
X43167613Y-41413102D01*
X43140265Y-41399001D01*
X43111407Y-41386797D01*
X43081006Y-41376590D01*
X43049030Y-41368479D01*
X43015445Y-41362562D01*
X42980218Y-41358940D01*
X42943316Y-41357711D01*
X42906294Y-41358903D01*
X42870717Y-41362419D01*
X42836566Y-41368166D01*
X42803825Y-41376053D01*
X42772475Y-41385988D01*
X42742499Y-41397879D01*
X42713880Y-41411634D01*
X42686599Y-41427161D01*
X42660639Y-41444369D01*
X42635982Y-41463166D01*
X42612611Y-41483460D01*
X42590508Y-41505159D01*
X42569656Y-41528172D01*
X42550036Y-41552405D01*
X42531631Y-41577769D01*
X42514423Y-41604170D01*
X42498395Y-41631517D01*
X42483529Y-41659719D01*
X42469808Y-41688682D01*
X42457213Y-41718316D01*
X42445727Y-41748529D01*
X42435333Y-41779229D01*
X42417748Y-41841722D01*
X42404317Y-41905060D01*
X42394898Y-41968509D01*
X42389350Y-42031335D01*
X42387532Y-42092802D01*
X41763928Y-42092802D01*
X41765310Y-39983016D01*
X42385388Y-39983016D01*
X42383484Y-41214122D01*
X42392294Y-41214122D01*
X42427464Y-41174276D01*
X42463471Y-41137144D01*
X42500403Y-41102707D01*
X42538351Y-41070945D01*
X42577401Y-41041839D01*
X42617645Y-41015368D01*
X42659170Y-40991512D01*
X42702065Y-40970252D01*
X42746420Y-40951568D01*
X42792324Y-40935439D01*
X42839864Y-40921846D01*
X42889131Y-40910769D01*
X42940213Y-40902188D01*
X42993200Y-40896084D01*
X43048179Y-40892436D01*
X43105241Y-40891224D01*
X43172450Y-40892865D01*
X43236984Y-40897726D01*
X43298880Y-40905717D01*
X43358173Y-40916747D01*
X43414898Y-40930727D01*
X43469090Y-40947566D01*
X43520786Y-40967173D01*
X43570020Y-40989458D01*
X43616828Y-41014331D01*
X43661245Y-41041701D01*
X43703308Y-41071477D01*
X43743050Y-41103570D01*
X43780509Y-41137888D01*
X43815719Y-41174342D01*
X43848715Y-41212840D01*
X43879534Y-41253293D01*
X43908210Y-41295611D01*
X43934779Y-41339702D01*
X43959277Y-41385476D01*
X43981738Y-41432843D01*
X44002199Y-41481712D01*
X44020695Y-41531993D01*
X44037261Y-41583596D01*
X44051932Y-41636429D01*
X44064745Y-41690404D01*
X44075735Y-41745428D01*
X44092385Y-41858266D01*
X44102168Y-41974220D01*
X44105365Y-42092566D01*
X44105359Y-42092802D01*
X44102170Y-42211064D01*
G37*
G36*
X41477180Y-44194732D02*
G01*
X40857102Y-44194732D01*
X40857102Y-42989105D01*
X40847815Y-42989105D01*
X40807035Y-43034787D01*
X40766176Y-43076144D01*
X40725173Y-43113366D01*
X40683959Y-43146643D01*
X40642468Y-43176166D01*
X40600632Y-43202124D01*
X40558385Y-43224707D01*
X40515661Y-43244107D01*
X40472392Y-43260512D01*
X40428513Y-43274113D01*
X40383956Y-43285100D01*
X40338656Y-43293663D01*
X40292544Y-43299992D01*
X40245556Y-43304277D01*
X40197623Y-43306709D01*
X40148681Y-43307478D01*
X40080197Y-43305785D01*
X40014472Y-43300774D01*
X39951466Y-43292541D01*
X39891142Y-43281185D01*
X39833460Y-43266804D01*
X39778384Y-43249494D01*
X39725873Y-43229354D01*
X39675891Y-43206483D01*
X39628398Y-43180977D01*
X39583358Y-43152935D01*
X39540730Y-43122454D01*
X39500477Y-43089632D01*
X39462562Y-43054568D01*
X39426944Y-43017358D01*
X39393587Y-42978102D01*
X39362451Y-42936896D01*
X39333500Y-42893838D01*
X39306693Y-42849027D01*
X39281994Y-42802560D01*
X39259363Y-42754535D01*
X39238763Y-42705050D01*
X39220154Y-42654202D01*
X39203500Y-42602090D01*
X39188762Y-42548812D01*
X39164878Y-42439146D01*
X39148197Y-42325988D01*
X39138414Y-42210121D01*
X39135221Y-42092327D01*
X39782921Y-42092327D01*
X39784323Y-42151670D01*
X39788699Y-42213237D01*
X39796307Y-42276193D01*
X39807403Y-42339702D01*
X39822244Y-42402928D01*
X39841087Y-42465038D01*
X39864188Y-42525196D01*
X39891804Y-42582567D01*
X39907385Y-42609946D01*
X39924191Y-42636316D01*
X39942255Y-42661571D01*
X39961608Y-42685607D01*
X39982282Y-42708321D01*
X40004309Y-42729607D01*
X40027722Y-42749361D01*
X40052553Y-42767479D01*
X40078833Y-42783856D01*
X40106595Y-42798389D01*
X40135871Y-42810972D01*
X40166693Y-42821501D01*
X40199093Y-42829872D01*
X40233103Y-42835980D01*
X40268755Y-42839722D01*
X40306082Y-42840993D01*
X40343474Y-42839776D01*
X40379320Y-42836187D01*
X40413641Y-42830321D01*
X40446463Y-42822272D01*
X40477808Y-42812134D01*
X40507700Y-42800001D01*
X40536162Y-42785966D01*
X40563219Y-42770124D01*
X40588895Y-42752570D01*
X40613211Y-42733396D01*
X40636193Y-42712697D01*
X40657864Y-42690568D01*
X40678247Y-42667101D01*
X40697367Y-42642392D01*
X40715246Y-42616534D01*
X40731909Y-42589622D01*
X40747378Y-42561749D01*
X40761679Y-42533009D01*
X40774834Y-42503496D01*
X40786866Y-42473306D01*
X40797801Y-42442530D01*
X40807660Y-42411265D01*
X40824249Y-42347638D01*
X40836823Y-42283179D01*
X40845570Y-42218639D01*
X40850679Y-42154771D01*
X40852340Y-42092327D01*
X40850473Y-42030035D01*
X40844789Y-41966598D01*
X40835168Y-41902728D01*
X40821488Y-41839137D01*
X40803628Y-41776538D01*
X40781467Y-41715643D01*
X40754882Y-41657166D01*
X40723753Y-41601819D01*
X40706446Y-41575542D01*
X40687958Y-41550315D01*
X40668273Y-41526226D01*
X40647376Y-41503365D01*
X40625252Y-41481822D01*
X40601886Y-41461684D01*
X40577262Y-41443041D01*
X40551365Y-41425983D01*
X40524181Y-41410598D01*
X40495694Y-41396975D01*
X40465888Y-41385203D01*
X40434749Y-41375372D01*
X40402262Y-41367571D01*
X40368411Y-41361888D01*
X40333181Y-41358414D01*
X40296677Y-41357239D01*
X40259892Y-41358467D01*
X40224665Y-41362095D01*
X40191080Y-41368021D01*
X40159104Y-41376144D01*
X40128703Y-41386366D01*
X40099845Y-41398587D01*
X40072497Y-41412708D01*
X40046625Y-41428628D01*
X40022198Y-41446250D01*
X39999181Y-41465473D01*
X39977542Y-41486198D01*
X39957247Y-41508326D01*
X39938265Y-41531757D01*
X39920561Y-41556391D01*
X39904102Y-41582130D01*
X39888857Y-41608874D01*
X39874791Y-41636523D01*
X39861872Y-41664979D01*
X39850066Y-41694141D01*
X39839341Y-41723911D01*
X39829664Y-41754188D01*
X39821001Y-41784874D01*
X39806588Y-41847073D01*
X39795838Y-41909714D01*
X39788486Y-41971999D01*
X39784268Y-42033135D01*
X39782921Y-42092327D01*
X39135221Y-42092327D01*
X39138410Y-41974690D01*
X39148170Y-41859268D01*
X39164785Y-41746803D01*
X39188542Y-41638036D01*
X39219726Y-41533709D01*
X39258622Y-41434563D01*
X39281052Y-41387165D01*
X39305517Y-41341340D01*
X39332053Y-41297182D01*
X39360695Y-41254782D01*
X39391480Y-41214233D01*
X39424444Y-41175629D01*
X39459621Y-41139062D01*
X39497047Y-41104624D01*
X39536759Y-41072409D01*
X39578792Y-41042509D01*
X39623182Y-41015016D01*
X39669964Y-40990024D01*
X39719174Y-40967625D01*
X39770848Y-40947911D01*
X39825021Y-40930977D01*
X39881730Y-40916913D01*
X39941009Y-40905813D01*
X40002896Y-40897770D01*
X40067424Y-40892876D01*
X40134631Y-40891224D01*
X40201779Y-40893046D01*
X40265918Y-40898424D01*
X40327096Y-40907222D01*
X40385362Y-40919308D01*
X40440765Y-40934547D01*
X40493354Y-40952806D01*
X40543177Y-40973950D01*
X40590284Y-40997845D01*
X40634722Y-41024358D01*
X40676542Y-41053354D01*
X40715792Y-41084700D01*
X40752521Y-41118262D01*
X40786777Y-41153905D01*
X40818610Y-41191496D01*
X40848068Y-41230901D01*
X40875200Y-41271986D01*
X40884725Y-41271986D01*
X40884725Y-40945041D01*
X41477180Y-40945041D01*
X41477180Y-42092327D01*
X41477180Y-44194732D01*
G37*
D11*
G36*
X48047218Y-32351220D02*
G01*
X48066818Y-32351220D01*
X48084446Y-32323966D01*
X48107288Y-32297730D01*
X48130623Y-32277621D01*
X48158340Y-32259719D01*
X48187333Y-32246061D01*
X48220435Y-32235244D01*
X48255895Y-32228057D01*
X48295522Y-32224304D01*
X48316007Y-32223847D01*
X48352889Y-32225784D01*
X48388533Y-32231527D01*
X48422625Y-32240943D01*
X48455045Y-32253940D01*
X48485403Y-32270313D01*
X48513677Y-32290026D01*
X48539460Y-32312791D01*
X48562769Y-32338650D01*
X48583243Y-32367268D01*
X48600869Y-32398742D01*
X48615360Y-32432754D01*
X48626634Y-32469398D01*
X48634467Y-32508433D01*
X48638708Y-32549897D01*
X48639445Y-32576656D01*
X48639445Y-32594852D01*
X48637525Y-32637764D01*
X48631901Y-32678264D01*
X48622769Y-32716296D01*
X48610334Y-32751746D01*
X48594736Y-32784657D01*
X48576222Y-32814798D01*
X48530911Y-32866769D01*
X48475724Y-32906795D01*
X48412109Y-32933811D01*
X48341769Y-32946657D01*
X48316007Y-32947600D01*
X48275051Y-32945707D01*
X48238198Y-32940274D01*
X48205108Y-32931631D01*
X48175684Y-32920163D01*
X48125517Y-32889131D01*
X48085528Y-32847795D01*
X48064009Y-32814610D01*
X48044409Y-32814610D01*
X48044409Y-32928000D01*
X47936637Y-32928000D01*
X47936637Y-32579404D01*
X48047218Y-32579404D01*
X48047218Y-32592043D01*
X48049140Y-32630136D01*
X48054784Y-32665501D01*
X48063763Y-32697480D01*
X48075971Y-32726659D01*
X48091004Y-32752618D01*
X48108838Y-32775688D01*
X48152037Y-32812716D01*
X48204797Y-32837462D01*
X48266626Y-32848994D01*
X48286637Y-32849659D01*
X48320824Y-32847721D01*
X48353092Y-32841970D01*
X48382518Y-32832785D01*
X48409756Y-32820157D01*
X48434115Y-32804550D01*
X48456038Y-32785814D01*
X48475146Y-32764301D01*
X48491545Y-32739891D01*
X48505087Y-32712629D01*
X48515584Y-32682623D01*
X48526847Y-32613806D01*
X48527460Y-32592043D01*
X48527460Y-32579404D01*
X48525537Y-32541312D01*
X48519888Y-32505951D01*
X48510908Y-32474013D01*
X48498693Y-32444869D01*
X48483658Y-32418961D01*
X48465814Y-32395930D01*
X48422562Y-32358953D01*
X48369640Y-32334185D01*
X48307450Y-32322555D01*
X48286637Y-32321850D01*
X48252466Y-32323788D01*
X48220263Y-32329539D01*
X48190978Y-32338710D01*
X48163904Y-32351317D01*
X48139722Y-32366892D01*
X48117980Y-32385590D01*
X48099025Y-32407086D01*
X48082773Y-32431478D01*
X48058938Y-32488846D01*
X48047802Y-32557994D01*
X48047218Y-32579404D01*
X47936637Y-32579404D01*
X47936637Y-31948036D01*
X48047218Y-31948036D01*
X48047218Y-32351220D01*
G37*
G36*
X47650445Y-32137019D02*
G01*
X47631164Y-32135118D01*
X47613650Y-32129630D01*
X47598154Y-32120792D01*
X47585194Y-32108961D01*
X47575181Y-32094537D01*
X47568416Y-32077795D01*
X47565082Y-32053061D01*
X47566979Y-32033695D01*
X47572442Y-32016269D01*
X47592916Y-31988165D01*
X47607351Y-31978135D01*
X47624053Y-31971293D01*
X47650445Y-31967637D01*
X47669248Y-31969541D01*
X47686413Y-31975055D01*
X47701665Y-31983962D01*
X47714471Y-31995928D01*
X47724398Y-32010570D01*
X47731129Y-32027639D01*
X47734465Y-32053061D01*
X47732571Y-32071913D01*
X47727131Y-32088963D01*
X47706573Y-32116868D01*
X47692070Y-32126864D01*
X47675350Y-32133621D01*
X47650445Y-32137019D01*
G37*
G36*
X47705033Y-32928000D02*
G01*
X47594452Y-32928000D01*
X47594452Y-32243448D01*
X47705033Y-32243448D01*
X47705033Y-32928000D01*
G37*
G36*
X47086366Y-32947600D02*
G01*
X47041168Y-32945659D01*
X46999314Y-32939892D01*
X46962937Y-32930965D01*
X46929962Y-32918740D01*
X46902205Y-32904282D01*
X46877796Y-32887020D01*
X46857903Y-32868125D01*
X46841300Y-32846812D01*
X46828489Y-32823914D01*
X46819018Y-32798837D01*
X46810603Y-32742497D01*
X46810555Y-32737612D01*
X46812473Y-32708865D01*
X46818083Y-32682979D01*
X46826913Y-32660302D01*
X46838854Y-32640013D01*
X46872537Y-32604928D01*
X46921900Y-32575510D01*
X46992791Y-32550823D01*
X47068170Y-32534646D01*
X47125567Y-32524816D01*
X47174969Y-32513766D01*
X47214970Y-32498586D01*
X47234741Y-32486228D01*
X47250054Y-32471208D01*
X47259200Y-32456367D01*
X47264878Y-32439166D01*
X47266923Y-32418448D01*
X47264994Y-32398423D01*
X47259310Y-32380452D01*
X47238123Y-32351618D01*
X47202953Y-32330472D01*
X47150897Y-32318115D01*
X47115736Y-32316232D01*
X47080004Y-32318247D01*
X47047230Y-32324531D01*
X47021878Y-32333554D01*
X46999227Y-32346183D01*
X46981364Y-32360813D01*
X46966071Y-32378707D01*
X46953965Y-32399135D01*
X46944562Y-32422876D01*
X46937928Y-32450627D01*
X46834369Y-32424065D01*
X46843570Y-32391212D01*
X46856125Y-32361056D01*
X46871402Y-32334511D01*
X46889689Y-32310637D01*
X46934306Y-32271663D01*
X46990343Y-32243717D01*
X47058941Y-32227437D01*
X47115736Y-32223847D01*
X47158765Y-32225782D01*
X47198683Y-32231512D01*
X47233739Y-32240445D01*
X47265485Y-32252651D01*
X47292286Y-32267132D01*
X47315728Y-32284373D01*
X47334692Y-32303206D01*
X47350298Y-32324376D01*
X47362035Y-32346982D01*
X47370337Y-32371638D01*
X47376160Y-32419852D01*
X47374243Y-32447692D01*
X47368640Y-32473094D01*
X47347557Y-32516598D01*
X47313076Y-32553097D01*
X47262913Y-32583938D01*
X47192986Y-32609054D01*
X47136741Y-32621414D01*
X47079344Y-32631244D01*
X47014569Y-32645749D01*
X46965235Y-32665371D01*
X46947165Y-32678017D01*
X46933473Y-32693220D01*
X46925474Y-32708377D01*
X46920876Y-32725930D01*
X46919732Y-32741825D01*
X46921658Y-32762111D01*
X46927331Y-32780683D01*
X46948903Y-32811924D01*
X46984715Y-32835999D01*
X47036593Y-32851362D01*
X47086366Y-32855215D01*
X47124414Y-32853164D01*
X47160713Y-32846621D01*
X47189359Y-32837216D01*
X47215837Y-32823875D01*
X47237089Y-32808535D01*
X47256024Y-32789613D01*
X47271381Y-32768454D01*
X47284213Y-32743753D01*
X47294156Y-32715751D01*
X47301183Y-32683930D01*
X47301972Y-32678811D01*
X47406935Y-32702624D01*
X47399817Y-32739400D01*
X47389352Y-32773014D01*
X47376035Y-32802852D01*
X47359801Y-32829759D01*
X47319253Y-32874856D01*
X47267484Y-32909463D01*
X47203378Y-32933615D01*
X47125500Y-32946211D01*
X47086366Y-32947600D01*
G37*
G36*
X46354500Y-31930370D02*
G01*
X46401092Y-31936096D01*
X46443801Y-31945232D01*
X46483483Y-31957763D01*
X46518478Y-31972892D01*
X46550163Y-31990957D01*
X46576985Y-32010765D01*
X46600370Y-32033058D01*
X46619229Y-32056499D01*
X46634591Y-32082044D01*
X46645916Y-32108594D01*
X46653649Y-32136970D01*
X46658147Y-32183242D01*
X46658147Y-32198629D01*
X46656257Y-32229082D01*
X46650842Y-32256990D01*
X46630166Y-32306816D01*
X46597087Y-32349042D01*
X46552118Y-32383318D01*
X46497395Y-32407503D01*
X46488765Y-32410021D01*
X46488765Y-32428218D01*
X46518550Y-32436296D01*
X46549778Y-32449311D01*
X46577838Y-32465564D01*
X46604552Y-32486350D01*
X46625602Y-32508114D01*
X46643994Y-32533593D01*
X46657489Y-32559488D01*
X46667738Y-32588553D01*
X46673882Y-32618516D01*
X46676320Y-32651404D01*
X46676344Y-32655058D01*
X46676344Y-32670445D01*
X46674408Y-32703498D01*
X46668677Y-32734866D01*
X46659398Y-32764113D01*
X46646631Y-32791537D01*
X46610926Y-32840716D01*
X46561432Y-32882184D01*
X46497532Y-32914986D01*
X46418654Y-32937428D01*
X46324745Y-32947329D01*
X46305339Y-32947600D01*
X46254297Y-32945669D01*
X46206380Y-32939970D01*
X46162838Y-32930919D01*
X46122587Y-32918547D01*
X46086929Y-32903542D01*
X46054642Y-32885667D01*
X46026832Y-32865821D01*
X46002416Y-32843520D01*
X45982130Y-32819683D01*
X45965264Y-32793737D01*
X45952168Y-32766359D01*
X45942577Y-32737137D01*
X45936618Y-32706289D01*
X45934353Y-32673789D01*
X45934334Y-32670445D01*
X45934334Y-32655058D01*
X45934416Y-32653654D01*
X46047724Y-32653654D01*
X46047724Y-32664828D01*
X46049656Y-32692308D01*
X46055367Y-32717616D01*
X46064413Y-32740100D01*
X46076787Y-32760482D01*
X46111366Y-32795087D01*
X46160428Y-32821815D01*
X46226297Y-32839442D01*
X46305339Y-32845445D01*
X46351339Y-32843500D01*
X46393516Y-32837700D01*
X46429129Y-32828877D01*
X46460979Y-32816799D01*
X46486883Y-32802780D01*
X46509222Y-32786052D01*
X46526725Y-32768002D01*
X46540831Y-32747644D01*
X46551088Y-32725849D01*
X46557933Y-32701958D01*
X46561549Y-32664828D01*
X46561549Y-32653654D01*
X46559614Y-32625792D01*
X46553882Y-32600168D01*
X46544848Y-32577569D01*
X46532478Y-32557108D01*
X46498032Y-32522626D01*
X46449187Y-32496164D01*
X46383400Y-32478818D01*
X46305339Y-32473036D01*
X46258606Y-32474981D01*
X46215923Y-32480781D01*
X46180122Y-32489570D01*
X46148193Y-32501594D01*
X46122315Y-32515528D01*
X46100037Y-32532148D01*
X46082586Y-32550099D01*
X46068530Y-32570344D01*
X46058277Y-32592083D01*
X46051419Y-32615919D01*
X46047724Y-32653654D01*
X45934416Y-32653654D01*
X45936223Y-32622729D01*
X45941629Y-32593178D01*
X45962175Y-32540723D01*
X45994770Y-32496662D01*
X46038653Y-32461144D01*
X46091648Y-32436016D01*
X46120569Y-32428218D01*
X46120569Y-32410021D01*
X46089890Y-32399529D01*
X46059190Y-32384353D01*
X46033038Y-32366750D01*
X46008959Y-32345088D01*
X45990408Y-32322734D01*
X45974837Y-32297044D01*
X45963885Y-32270903D01*
X45956371Y-32241869D01*
X45952530Y-32198629D01*
X45952530Y-32195821D01*
X46065920Y-32195821D01*
X46065920Y-32207056D01*
X46067855Y-32232883D01*
X46073589Y-32256651D01*
X46082660Y-32277663D01*
X46095091Y-32296657D01*
X46130006Y-32328666D01*
X46180010Y-32352840D01*
X46247764Y-32367604D01*
X46305339Y-32370821D01*
X46350242Y-32368881D01*
X46391099Y-32363123D01*
X46425365Y-32354383D01*
X46455710Y-32342467D01*
X46480118Y-32328683D01*
X46500858Y-32312301D01*
X46516808Y-32294673D01*
X46529292Y-32274868D01*
X46537962Y-32253656D01*
X46543152Y-32230487D01*
X46544758Y-32207056D01*
X46544758Y-32195821D01*
X46542826Y-32170048D01*
X46537121Y-32146326D01*
X46528057Y-32125214D01*
X46515659Y-32106125D01*
X46480781Y-32073767D01*
X46430953Y-32049209D01*
X46363856Y-32034090D01*
X46305339Y-32030651D01*
X46260435Y-32032592D01*
X46219578Y-32038362D01*
X46185388Y-32047106D01*
X46155099Y-32059037D01*
X46130754Y-32072831D01*
X46110049Y-32089240D01*
X46094103Y-32106917D01*
X46081598Y-32126799D01*
X46072874Y-32148140D01*
X46067612Y-32171477D01*
X46065920Y-32195821D01*
X45952530Y-32195821D01*
X45952530Y-32183242D01*
X45954458Y-32152482D01*
X45960137Y-32123421D01*
X45982055Y-32070769D01*
X46017805Y-32024856D01*
X46067824Y-31986002D01*
X46132818Y-31955495D01*
X46212956Y-31935467D01*
X46305339Y-31928436D01*
X46354500Y-31930370D01*
G37*
G36*
X45476629Y-31930377D02*
G01*
X45519537Y-31936149D01*
X45558335Y-31945283D01*
X45594450Y-31957846D01*
X45626768Y-31973215D01*
X45656377Y-31991673D01*
X45682607Y-32012639D01*
X45706069Y-32036437D01*
X45726504Y-32062764D01*
X45744044Y-32091758D01*
X45770222Y-32157985D01*
X45783738Y-32235915D01*
X45785285Y-32275627D01*
X45785285Y-32617262D01*
X45783357Y-32657012D01*
X45777684Y-32694594D01*
X45768504Y-32729675D01*
X45755949Y-32762455D01*
X45740186Y-32792833D01*
X45721365Y-32820749D01*
X45674790Y-32869185D01*
X45616789Y-32907090D01*
X45547901Y-32933332D01*
X45468935Y-32946417D01*
X45435285Y-32947600D01*
X45392632Y-32945666D01*
X45351805Y-32939942D01*
X45313407Y-32930661D01*
X45277224Y-32917898D01*
X45244000Y-32902059D01*
X45213327Y-32883071D01*
X45185932Y-32861510D01*
X45161372Y-32837133D01*
X45140220Y-32810589D01*
X45122156Y-32781532D01*
X45107549Y-32750534D01*
X45096287Y-32717282D01*
X45088583Y-32682135D01*
X45084511Y-32644950D01*
X45083880Y-32622818D01*
X45083880Y-32610240D01*
X45197270Y-32610240D01*
X45197270Y-32621414D01*
X45199195Y-32654464D01*
X45204856Y-32685257D01*
X45213909Y-32713253D01*
X45226250Y-32738856D01*
X45241622Y-32761844D01*
X45259924Y-32782262D01*
X45305087Y-32815218D01*
X45361423Y-32836803D01*
X45428569Y-32845381D01*
X45435285Y-32845445D01*
X45471239Y-32843513D01*
X45504884Y-32837801D01*
X45535231Y-32828734D01*
X45563022Y-32816326D01*
X45587439Y-32801161D01*
X45609100Y-32783055D01*
X45627499Y-32762556D01*
X45642934Y-32739440D01*
X45655180Y-32713976D01*
X45664190Y-32686131D01*
X45671890Y-32623164D01*
X45671895Y-32621414D01*
X45671895Y-32610240D01*
X45669970Y-32577109D01*
X45664315Y-32546097D01*
X45655223Y-32517638D01*
X45642825Y-32491514D01*
X45627362Y-32467949D01*
X45608960Y-32446957D01*
X45563763Y-32413069D01*
X45507959Y-32390934D01*
X45442312Y-32382131D01*
X45435285Y-32382056D01*
X45400419Y-32383984D01*
X45367594Y-32389670D01*
X45337459Y-32398798D01*
X45309705Y-32411280D01*
X45284945Y-32426674D01*
X45262866Y-32445032D01*
X45243920Y-32465882D01*
X45227940Y-32489346D01*
X45215193Y-32515082D01*
X45205720Y-32543135D01*
X45199694Y-32573414D01*
X45197304Y-32605758D01*
X45197270Y-32610240D01*
X45083880Y-32610240D01*
X45083880Y-32606026D01*
X45085800Y-32567513D01*
X45091424Y-32531066D01*
X45100604Y-32496602D01*
X45113112Y-32464411D01*
X45147740Y-32406628D01*
X45194253Y-32358610D01*
X45251499Y-32321636D01*
X45317936Y-32297271D01*
X45354028Y-32290308D01*
X45391481Y-32287085D01*
X45404449Y-32286862D01*
X45446983Y-32288745D01*
X45485219Y-32294109D01*
X45519886Y-32302696D01*
X45550490Y-32313994D01*
X45601915Y-32344180D01*
X45640350Y-32382667D01*
X45652294Y-32400252D01*
X45671895Y-32400252D01*
X45671895Y-32264453D01*
X45669954Y-32227927D01*
X45664181Y-32194107D01*
X45655186Y-32164507D01*
X45642848Y-32137576D01*
X45627852Y-32114240D01*
X45609870Y-32093572D01*
X45565905Y-32061005D01*
X45510324Y-32039709D01*
X45441723Y-32030794D01*
X45431071Y-32030651D01*
X45392295Y-32032572D01*
X45357158Y-32038203D01*
X45326786Y-32046939D01*
X45299796Y-32058750D01*
X45276819Y-32073002D01*
X45257044Y-32089826D01*
X45227304Y-32130190D01*
X45210018Y-32179810D01*
X45205696Y-32225252D01*
X45090902Y-32225252D01*
X45092845Y-32188470D01*
X45098628Y-32153376D01*
X45107928Y-32120871D01*
X45120769Y-32090315D01*
X45136759Y-32062374D01*
X45156042Y-32036628D01*
X45178319Y-32013452D01*
X45203708Y-31992734D01*
X45232166Y-31974618D01*
X45263622Y-31959268D01*
X45336050Y-31937326D01*
X45421390Y-31928519D01*
X45431071Y-31928436D01*
X45476629Y-31930377D01*
G37*
G36*
X44967682Y-32593448D02*
G01*
X44967682Y-32727842D01*
X44456665Y-32727842D01*
X44456665Y-32928000D01*
X44343275Y-32928000D01*
X44343275Y-32727842D01*
X44175297Y-32727842D01*
X44175297Y-32625627D01*
X44343275Y-32625627D01*
X44456665Y-32625627D01*
X44854292Y-32625627D01*
X44854292Y-32608835D01*
X44476265Y-32016668D01*
X44456665Y-32016668D01*
X44456665Y-32625627D01*
X44343275Y-32625627D01*
X44343275Y-31948036D01*
X44556071Y-31948036D01*
X44967682Y-32593448D01*
G37*
G36*
X44093292Y-32593448D02*
G01*
X44093292Y-32727842D01*
X43582275Y-32727842D01*
X43582275Y-32928000D01*
X43468885Y-32928000D01*
X43468885Y-32727842D01*
X43300907Y-32727842D01*
X43300907Y-32625627D01*
X43468885Y-32625627D01*
X43582275Y-32625627D01*
X43979903Y-32625627D01*
X43979903Y-32608835D01*
X43601876Y-32016668D01*
X43582275Y-32016668D01*
X43582275Y-32625627D01*
X43468885Y-32625627D01*
X43468885Y-31948036D01*
X43681682Y-31948036D01*
X44093292Y-32593448D01*
G37*
G36*
X43153079Y-32618605D02*
G01*
X42738721Y-32618605D01*
X42738721Y-32516450D01*
X43153079Y-32516450D01*
X43153079Y-32618605D01*
G37*
G36*
X42552486Y-32928000D02*
G01*
X41859508Y-32928000D01*
X41859508Y-32825845D01*
X42437692Y-32825845D01*
X42437692Y-32802031D01*
X42435739Y-32767533D01*
X42429886Y-32737503D01*
X42421276Y-32713848D01*
X42409511Y-32693029D01*
X42376941Y-32658722D01*
X42326864Y-32628635D01*
X42244493Y-32596962D01*
X42224896Y-32590639D01*
X42149302Y-32566825D01*
X42084151Y-32544039D01*
X42025402Y-32517841D01*
X41986857Y-32495844D01*
X41952484Y-32471006D01*
X41926686Y-32447247D01*
X41904341Y-32420843D01*
X41887073Y-32394121D01*
X41873009Y-32364757D01*
X41862590Y-32333634D01*
X41855442Y-32299662D01*
X41851143Y-32240639D01*
X41851143Y-32228061D01*
X41853071Y-32192398D01*
X41858756Y-32158476D01*
X41868019Y-32126483D01*
X41880717Y-32096452D01*
X41916042Y-32042473D01*
X41964108Y-31997318D01*
X42024421Y-31962193D01*
X42096305Y-31938707D01*
X42178661Y-31928674D01*
X42194121Y-31928436D01*
X42237988Y-31930379D01*
X42279958Y-31936170D01*
X42318794Y-31945454D01*
X42355369Y-31958275D01*
X42388423Y-31974011D01*
X42418938Y-31992961D01*
X42445875Y-32014328D01*
X42470050Y-32038615D01*
X42490777Y-32065054D01*
X42508528Y-32094180D01*
X42522942Y-32125474D01*
X42534130Y-32159295D01*
X42541913Y-32195519D01*
X42546152Y-32234175D01*
X42546930Y-32260240D01*
X42546930Y-32278436D01*
X42434883Y-32278436D01*
X42434883Y-32258835D01*
X42432958Y-32223051D01*
X42427298Y-32190332D01*
X42418433Y-32161597D01*
X42406392Y-32135722D01*
X42391576Y-32113022D01*
X42373978Y-32093090D01*
X42330466Y-32061202D01*
X42275149Y-32040025D01*
X42206962Y-32030859D01*
X42194121Y-32030651D01*
X42158078Y-32032581D01*
X42124285Y-32038275D01*
X42093689Y-32047337D01*
X42065736Y-32059721D01*
X42041414Y-32074755D01*
X42020020Y-32092657D01*
X42002299Y-32112617D01*
X41987735Y-32135043D01*
X41976729Y-32159282D01*
X41969131Y-32185674D01*
X41964533Y-32230808D01*
X41964533Y-32236426D01*
X41966459Y-32269229D01*
X41972127Y-32298975D01*
X41981001Y-32324998D01*
X41993062Y-32348537D01*
X42026735Y-32389434D01*
X42075496Y-32424558D01*
X42144902Y-32455714D01*
X42175925Y-32466014D01*
X42252922Y-32489828D01*
X42326708Y-32515185D01*
X42391413Y-32544159D01*
X42427528Y-32565453D01*
X42459466Y-32589612D01*
X42483120Y-32612738D01*
X42503515Y-32638644D01*
X42519412Y-32665443D01*
X42532310Y-32695182D01*
X42548619Y-32763648D01*
X42552486Y-32825845D01*
X42552486Y-32928000D01*
G37*
G36*
X41379912Y-31930387D02*
G01*
X41422712Y-31936229D01*
X41461147Y-31945421D01*
X41497102Y-31958131D01*
X41529236Y-31973653D01*
X41558886Y-31992399D01*
X41585307Y-32013764D01*
X41609190Y-32038168D01*
X41648730Y-32095559D01*
X41677473Y-32165540D01*
X41694515Y-32249631D01*
X41698613Y-32323254D01*
X41698613Y-32552842D01*
X41696678Y-32604605D01*
X41690948Y-32652731D01*
X41681958Y-32695602D01*
X41669661Y-32735108D01*
X41654704Y-32770137D01*
X41636835Y-32802012D01*
X41616597Y-32830177D01*
X41593738Y-32855318D01*
X41540701Y-32896402D01*
X41477202Y-32925837D01*
X41402156Y-32943225D01*
X41334630Y-32947600D01*
X41288593Y-32945646D01*
X41245132Y-32939784D01*
X41206362Y-32930602D01*
X41170130Y-32917896D01*
X41137931Y-32902437D01*
X41108244Y-32883751D01*
X41081899Y-32862507D01*
X41058097Y-32838218D01*
X41037111Y-32811155D01*
X41018787Y-32781104D01*
X40990227Y-32711294D01*
X40973274Y-32627056D01*
X40969182Y-32552842D01*
X40969182Y-32323254D01*
X40969447Y-32316232D01*
X41082633Y-32316232D01*
X41082633Y-32558460D01*
X41084587Y-32604422D01*
X41090449Y-32646800D01*
X41099382Y-32682793D01*
X41111679Y-32715483D01*
X41126224Y-32742974D01*
X41143711Y-32767397D01*
X41163174Y-32787792D01*
X41185326Y-32805230D01*
X41236899Y-32830668D01*
X41300143Y-32843851D01*
X41334630Y-32845445D01*
X41372447Y-32843505D01*
X41407187Y-32837739D01*
X41437306Y-32828805D01*
X41464648Y-32816570D01*
X41488494Y-32801627D01*
X41509724Y-32783714D01*
X41544313Y-32739246D01*
X41569003Y-32681705D01*
X41582908Y-32608645D01*
X41585224Y-32558460D01*
X41585224Y-32316232D01*
X41583276Y-32271329D01*
X41577459Y-32229834D01*
X41568515Y-32194109D01*
X41556228Y-32161610D01*
X41541599Y-32134001D01*
X41524051Y-32109452D01*
X41504472Y-32088838D01*
X41482249Y-32071209D01*
X41430701Y-32045483D01*
X41368078Y-32032222D01*
X41334630Y-32030651D01*
X41297330Y-32032591D01*
X41262882Y-32038352D01*
X41232706Y-32047335D01*
X41205193Y-32059645D01*
X41181038Y-32074724D01*
X41159458Y-32092806D01*
X41124185Y-32137628D01*
X41099018Y-32195254D01*
X41084929Y-32267642D01*
X41082633Y-32316232D01*
X40969447Y-32316232D01*
X40971118Y-32271977D01*
X40976851Y-32224199D01*
X40985863Y-32181491D01*
X40998199Y-32142060D01*
X41013223Y-32107004D01*
X41031183Y-32075046D01*
X41051535Y-32046761D01*
X41074533Y-32021473D01*
X41127873Y-31980095D01*
X41191642Y-31950420D01*
X41266818Y-31932877D01*
X41334630Y-31928436D01*
X41379912Y-31930387D01*
G37*
G36*
X40811523Y-32928000D02*
G01*
X40118545Y-32928000D01*
X40118545Y-32825845D01*
X40696729Y-32825845D01*
X40696729Y-32802031D01*
X40694776Y-32767533D01*
X40688923Y-32737503D01*
X40680313Y-32713848D01*
X40668548Y-32693029D01*
X40635978Y-32658722D01*
X40585901Y-32628635D01*
X40503530Y-32596962D01*
X40483933Y-32590639D01*
X40408339Y-32566825D01*
X40343188Y-32544039D01*
X40284439Y-32517841D01*
X40245894Y-32495844D01*
X40211521Y-32471006D01*
X40185723Y-32447247D01*
X40163378Y-32420843D01*
X40146110Y-32394121D01*
X40132046Y-32364757D01*
X40121627Y-32333634D01*
X40114479Y-32299662D01*
X40110180Y-32240639D01*
X40110180Y-32228061D01*
X40112108Y-32192398D01*
X40117793Y-32158476D01*
X40127056Y-32126483D01*
X40139754Y-32096452D01*
X40175079Y-32042473D01*
X40223145Y-31997318D01*
X40283458Y-31962193D01*
X40355342Y-31938707D01*
X40437698Y-31928674D01*
X40453158Y-31928436D01*
X40497025Y-31930379D01*
X40538994Y-31936170D01*
X40577831Y-31945454D01*
X40614406Y-31958275D01*
X40647460Y-31974011D01*
X40677975Y-31992961D01*
X40704912Y-32014328D01*
X40729087Y-32038615D01*
X40749814Y-32065054D01*
X40767565Y-32094180D01*
X40781979Y-32125474D01*
X40793167Y-32159295D01*
X40800950Y-32195519D01*
X40805189Y-32234175D01*
X40805967Y-32260240D01*
X40805967Y-32278436D01*
X40693920Y-32278436D01*
X40693920Y-32258835D01*
X40691995Y-32223051D01*
X40686335Y-32190332D01*
X40677470Y-32161597D01*
X40665429Y-32135722D01*
X40650612Y-32113022D01*
X40633015Y-32093090D01*
X40589503Y-32061202D01*
X40534186Y-32040025D01*
X40465999Y-32030859D01*
X40453158Y-32030651D01*
X40417115Y-32032581D01*
X40383322Y-32038275D01*
X40352726Y-32047337D01*
X40324773Y-32059721D01*
X40300451Y-32074755D01*
X40279057Y-32092657D01*
X40261336Y-32112617D01*
X40246772Y-32135043D01*
X40235766Y-32159282D01*
X40228168Y-32185674D01*
X40223570Y-32230808D01*
X40223570Y-32236426D01*
X40225496Y-32269229D01*
X40231164Y-32298975D01*
X40240038Y-32324998D01*
X40252099Y-32348537D01*
X40285772Y-32389434D01*
X40334533Y-32424558D01*
X40403939Y-32455714D01*
X40434962Y-32466014D01*
X40511959Y-32489828D01*
X40585745Y-32515185D01*
X40650450Y-32544159D01*
X40686565Y-32565453D01*
X40718503Y-32589612D01*
X40742157Y-32612738D01*
X40762552Y-32638644D01*
X40778449Y-32665443D01*
X40791347Y-32695182D01*
X40807656Y-32763648D01*
X40811523Y-32825845D01*
X40811523Y-32928000D01*
G37*
G36*
X39618824Y-32947600D02*
G01*
X39575443Y-32945671D01*
X39534515Y-32939982D01*
X39496675Y-32930841D01*
X39461409Y-32918335D01*
X39429181Y-32902809D01*
X39399649Y-32884271D01*
X39373066Y-32863004D01*
X39349324Y-32839033D01*
X39310689Y-32783445D01*
X39284356Y-32718020D01*
X39271375Y-32643181D01*
X39270229Y-32611644D01*
X39270229Y-32596257D01*
X39272148Y-32555461D01*
X39277770Y-32517059D01*
X39286882Y-32481144D01*
X39299281Y-32447779D01*
X39314834Y-32416918D01*
X39333284Y-32388791D01*
X39378508Y-32340667D01*
X39433744Y-32304281D01*
X39497629Y-32280794D01*
X39568450Y-32271513D01*
X39576815Y-32271414D01*
X39616138Y-32273293D01*
X39651393Y-32278629D01*
X39683445Y-32287196D01*
X39711633Y-32298429D01*
X39759168Y-32328579D01*
X39794671Y-32367149D01*
X39807868Y-32389017D01*
X39827469Y-32389017D01*
X39827469Y-32050252D01*
X39296851Y-32050252D01*
X39296851Y-31948036D01*
X39940859Y-31948036D01*
X39940859Y-32478654D01*
X39786863Y-32478654D01*
X39765699Y-32444709D01*
X39734630Y-32411520D01*
X39712392Y-32395675D01*
X39685825Y-32382612D01*
X39658892Y-32374230D01*
X39628022Y-32369212D01*
X39602033Y-32368012D01*
X39569986Y-32369941D01*
X39539833Y-32375633D01*
X39512146Y-32384783D01*
X39486661Y-32397308D01*
X39463796Y-32412879D01*
X39443435Y-32431480D01*
X39425811Y-32452895D01*
X39411019Y-32477049D01*
X39390554Y-32533340D01*
X39383618Y-32597661D01*
X39383618Y-32610240D01*
X39385556Y-32646500D01*
X39391299Y-32680155D01*
X39400308Y-32709918D01*
X39412648Y-32737044D01*
X39427702Y-32760711D01*
X39445717Y-32781689D01*
X39489659Y-32814809D01*
X39544732Y-32836389D01*
X39611840Y-32845316D01*
X39621633Y-32845445D01*
X39658416Y-32843503D01*
X39692652Y-32837718D01*
X39722758Y-32828685D01*
X39750215Y-32816278D01*
X39773899Y-32801270D01*
X39794859Y-32783266D01*
X39812537Y-32762873D01*
X39827358Y-32739726D01*
X39847875Y-32685455D01*
X39855428Y-32619401D01*
X39855435Y-32617262D01*
X39855435Y-32604622D01*
X39970229Y-32604622D01*
X39970229Y-32621414D01*
X39968294Y-32660717D01*
X39962570Y-32698091D01*
X39953326Y-32732940D01*
X39940621Y-32765650D01*
X39924742Y-32795808D01*
X39905691Y-32823618D01*
X39858701Y-32871542D01*
X39800177Y-32908766D01*
X39730405Y-32934273D01*
X39649652Y-32946666D01*
X39618824Y-32947600D01*
G37*
G36*
X39092786Y-32618605D02*
G01*
X38678428Y-32618605D01*
X38678428Y-32516450D01*
X39092786Y-32516450D01*
X39092786Y-32618605D01*
G37*
G36*
X38206612Y-32928000D02*
G01*
X38093222Y-32928000D01*
X38093222Y-31948036D01*
X38307423Y-31948036D01*
X38541225Y-32372225D01*
X38418004Y-32372225D01*
X38227617Y-32023629D01*
X38206612Y-32023629D01*
X38206612Y-32928000D01*
G37*
G36*
X48353275Y-33905784D02*
G01*
X48389275Y-33911527D01*
X48423662Y-33920933D01*
X48456338Y-33933916D01*
X48486854Y-33950237D01*
X48515241Y-33969881D01*
X48541029Y-33992505D01*
X48564301Y-34018193D01*
X48584646Y-34046541D01*
X48602108Y-34077704D01*
X48616375Y-34111298D01*
X48627399Y-34147479D01*
X48634950Y-34185960D01*
X48638890Y-34226823D01*
X48639445Y-34249634D01*
X48639445Y-34269235D01*
X48637525Y-34311284D01*
X48631895Y-34351006D01*
X48622749Y-34388330D01*
X48610289Y-34423145D01*
X48594646Y-34455483D01*
X48576066Y-34485113D01*
X48530525Y-34536215D01*
X48474940Y-34575538D01*
X48410710Y-34601958D01*
X48339492Y-34614259D01*
X48316007Y-34615021D01*
X48275094Y-34613136D01*
X48238298Y-34607757D01*
X48204938Y-34599145D01*
X48175392Y-34587789D01*
X48125081Y-34557164D01*
X48085964Y-34517196D01*
X48066818Y-34487649D01*
X48047218Y-34487649D01*
X48047218Y-34748012D01*
X48049170Y-34764165D01*
X48055024Y-34776415D01*
X48073793Y-34788260D01*
X48089227Y-34790021D01*
X48524651Y-34790021D01*
X48524651Y-34888024D01*
X48059857Y-34888024D01*
X48033485Y-34886101D01*
X48010246Y-34880452D01*
X47991236Y-34871869D01*
X47975115Y-34860285D01*
X47952101Y-34829507D01*
X47940529Y-34787554D01*
X47939445Y-34767612D01*
X47939445Y-34253847D01*
X48047218Y-34253847D01*
X48047218Y-34265021D01*
X48049140Y-34302158D01*
X48054784Y-34336669D01*
X48063778Y-34367946D01*
X48076009Y-34396506D01*
X48091110Y-34421984D01*
X48109029Y-34444633D01*
X48152570Y-34481062D01*
X48205895Y-34505367D01*
X48268469Y-34516481D01*
X48286637Y-34517019D01*
X48321082Y-34515082D01*
X48353578Y-34509339D01*
X48383213Y-34500166D01*
X48410617Y-34487561D01*
X48435084Y-34472006D01*
X48457067Y-34453348D01*
X48476156Y-34431981D01*
X48492492Y-34407763D01*
X48505896Y-34380805D01*
X48516220Y-34351172D01*
X48526998Y-34283478D01*
X48527460Y-34265021D01*
X48527460Y-34253847D01*
X48525537Y-34216711D01*
X48519888Y-34182200D01*
X48510892Y-34150957D01*
X48498653Y-34122424D01*
X48483550Y-34096989D01*
X48465618Y-34074371D01*
X48422021Y-34037979D01*
X48368534Y-34013642D01*
X48305600Y-34002425D01*
X48286637Y-34001850D01*
X48252219Y-34003787D01*
X48219799Y-34009530D01*
X48190311Y-34018690D01*
X48163076Y-34031272D01*
X48138788Y-34046799D01*
X48116986Y-34065420D01*
X48098048Y-34086773D01*
X48081855Y-34110976D01*
X48058320Y-34167675D01*
X48047658Y-34235703D01*
X48047218Y-34253847D01*
X47939445Y-34253847D01*
X47939445Y-33923448D01*
X48044409Y-33923448D01*
X48044409Y-34036838D01*
X48064009Y-34036838D01*
X48082045Y-34008075D01*
X48105107Y-33980647D01*
X48128232Y-33959968D01*
X48155564Y-33941594D01*
X48184042Y-33927565D01*
X48216495Y-33916374D01*
X48251302Y-33908786D01*
X48290184Y-33904581D01*
X48316007Y-33903847D01*
X48353275Y-33905784D01*
G37*
G36*
X47420526Y-33610387D02*
G01*
X47463327Y-33616229D01*
X47501761Y-33625421D01*
X47537716Y-33638131D01*
X47569850Y-33653653D01*
X47599500Y-33672399D01*
X47625921Y-33693764D01*
X47649804Y-33718168D01*
X47689344Y-33775559D01*
X47718088Y-33845540D01*
X47735129Y-33929631D01*
X47739227Y-34003254D01*
X47739227Y-34232842D01*
X47737292Y-34284605D01*
X47731562Y-34332731D01*
X47722573Y-34375602D01*
X47710275Y-34415108D01*
X47695319Y-34450137D01*
X47677450Y-34482012D01*
X47657211Y-34510177D01*
X47634352Y-34535318D01*
X47581315Y-34576402D01*
X47517816Y-34605837D01*
X47442770Y-34623225D01*
X47375244Y-34627600D01*
X47329207Y-34625646D01*
X47285746Y-34619784D01*
X47246976Y-34610602D01*
X47210745Y-34597896D01*
X47178545Y-34582437D01*
X47148859Y-34563751D01*
X47122513Y-34542507D01*
X47098711Y-34518218D01*
X47077726Y-34491155D01*
X47059401Y-34461104D01*
X47030841Y-34391294D01*
X47013888Y-34307056D01*
X47009796Y-34232842D01*
X47009796Y-34003254D01*
X47010061Y-33996232D01*
X47123247Y-33996232D01*
X47123247Y-34238460D01*
X47125201Y-34284422D01*
X47131063Y-34326800D01*
X47139996Y-34362793D01*
X47152293Y-34395483D01*
X47166838Y-34422974D01*
X47184326Y-34447397D01*
X47203788Y-34467792D01*
X47225940Y-34485230D01*
X47277513Y-34510668D01*
X47340758Y-34523851D01*
X47375244Y-34525445D01*
X47413061Y-34523505D01*
X47447801Y-34517739D01*
X47477920Y-34508805D01*
X47505262Y-34496570D01*
X47529108Y-34481627D01*
X47550338Y-34463714D01*
X47584927Y-34419246D01*
X47609617Y-34361705D01*
X47623522Y-34288645D01*
X47625838Y-34238460D01*
X47625838Y-33996232D01*
X47623890Y-33951329D01*
X47618073Y-33909834D01*
X47609129Y-33874109D01*
X47596842Y-33841610D01*
X47582213Y-33814001D01*
X47564665Y-33789452D01*
X47545086Y-33768838D01*
X47522863Y-33751209D01*
X47471315Y-33725483D01*
X47408692Y-33712222D01*
X47375244Y-33710651D01*
X47337944Y-33712591D01*
X47303497Y-33718352D01*
X47273320Y-33727335D01*
X47245807Y-33739645D01*
X47221652Y-33754724D01*
X47200072Y-33772806D01*
X47164799Y-33817628D01*
X47139632Y-33875254D01*
X47125543Y-33947642D01*
X47123247Y-33996232D01*
X47010061Y-33996232D01*
X47011732Y-33951977D01*
X47017465Y-33904199D01*
X47026477Y-33861491D01*
X47038813Y-33822060D01*
X47053837Y-33787004D01*
X47071797Y-33755046D01*
X47092149Y-33726761D01*
X47115147Y-33701473D01*
X47168487Y-33660095D01*
X47232256Y-33630420D01*
X47307432Y-33612877D01*
X47375244Y-33608436D01*
X47420526Y-33610387D01*
G37*
G36*
X46503542Y-34627600D02*
G01*
X46460160Y-34625671D01*
X46419232Y-34619982D01*
X46381393Y-34610841D01*
X46346127Y-34598335D01*
X46313898Y-34582809D01*
X46284366Y-34564271D01*
X46257783Y-34543004D01*
X46234042Y-34519033D01*
X46195407Y-34463445D01*
X46169074Y-34398020D01*
X46156093Y-34323181D01*
X46154946Y-34291644D01*
X46154946Y-34276257D01*
X46156866Y-34235461D01*
X46162487Y-34197059D01*
X46171600Y-34161144D01*
X46183999Y-34127779D01*
X46199551Y-34096918D01*
X46218002Y-34068791D01*
X46263225Y-34020667D01*
X46318461Y-33984281D01*
X46382347Y-33960794D01*
X46453168Y-33951513D01*
X46461532Y-33951414D01*
X46500855Y-33953293D01*
X46536111Y-33958629D01*
X46568163Y-33967196D01*
X46596350Y-33978429D01*
X46643886Y-34008579D01*
X46679388Y-34047149D01*
X46692586Y-34069017D01*
X46712186Y-34069017D01*
X46712186Y-33730252D01*
X46181569Y-33730252D01*
X46181569Y-33628036D01*
X46825576Y-33628036D01*
X46825576Y-34158654D01*
X46671581Y-34158654D01*
X46650416Y-34124709D01*
X46619347Y-34091520D01*
X46597109Y-34075675D01*
X46570542Y-34062612D01*
X46543610Y-34054230D01*
X46512739Y-34049212D01*
X46486750Y-34048012D01*
X46454703Y-34049941D01*
X46424550Y-34055633D01*
X46396863Y-34064783D01*
X46371379Y-34077308D01*
X46348513Y-34092879D01*
X46328153Y-34111480D01*
X46310528Y-34132895D01*
X46295737Y-34157049D01*
X46275271Y-34213340D01*
X46268336Y-34277661D01*
X46268336Y-34290240D01*
X46270273Y-34326500D01*
X46276016Y-34360155D01*
X46285026Y-34389918D01*
X46297366Y-34417044D01*
X46312419Y-34440711D01*
X46330434Y-34461689D01*
X46374376Y-34494809D01*
X46429449Y-34516389D01*
X46496558Y-34525316D01*
X46506351Y-34525445D01*
X46543133Y-34523503D01*
X46577370Y-34517718D01*
X46607475Y-34508685D01*
X46634933Y-34496278D01*
X46658616Y-34481270D01*
X46679576Y-34463266D01*
X46697255Y-34442873D01*
X46712076Y-34419726D01*
X46732592Y-34365455D01*
X46740145Y-34299401D01*
X46740152Y-34297262D01*
X46740152Y-34284622D01*
X46854946Y-34284622D01*
X46854946Y-34301414D01*
X46853012Y-34340717D01*
X46847288Y-34378091D01*
X46838043Y-34412940D01*
X46825338Y-34445650D01*
X46809459Y-34475808D01*
X46790409Y-34503618D01*
X46743418Y-34551542D01*
X46684894Y-34588766D01*
X46615122Y-34614273D01*
X46534370Y-34626666D01*
X46503542Y-34627600D01*
G37*
G36*
X45977504Y-34298605D02*
G01*
X45563146Y-34298605D01*
X45563146Y-34196450D01*
X45977504Y-34196450D01*
X45977504Y-34298605D01*
G37*
G36*
X45334901Y-34608000D02*
G01*
X45224320Y-34608000D01*
X45224320Y-34190833D01*
X45222398Y-34158343D01*
X45216757Y-34129399D01*
X45208128Y-34105152D01*
X45196476Y-34084046D01*
X45182357Y-34066459D01*
X45165669Y-34051807D01*
X45124407Y-34030942D01*
X45071222Y-34021727D01*
X45059151Y-34021450D01*
X44970918Y-34021450D01*
X44970918Y-33920639D01*
X45052129Y-33920639D01*
X45088458Y-33922620D01*
X45120043Y-33928668D01*
X45143546Y-33937238D01*
X45163813Y-33949031D01*
X45179868Y-33962984D01*
X45193330Y-33979896D01*
X45207528Y-34007467D01*
X45227129Y-34007467D01*
X45227129Y-33923448D01*
X45334901Y-33923448D01*
X45334901Y-34608000D01*
G37*
G36*
X44545569Y-34620639D02*
G01*
X44505127Y-34618748D01*
X44469041Y-34613329D01*
X44437104Y-34604775D01*
X44409017Y-34593458D01*
X44362372Y-34563162D01*
X44326872Y-34523329D01*
X44308959Y-34491801D01*
X44289358Y-34491801D01*
X44289358Y-34608000D01*
X44181586Y-34608000D01*
X44181586Y-33923448D01*
X44292167Y-33923448D01*
X44292167Y-34267830D01*
X44294088Y-34308454D01*
X44299717Y-34345622D01*
X44308542Y-34378388D01*
X44320493Y-34407871D01*
X44335031Y-34433517D01*
X44352214Y-34455996D01*
X44393531Y-34491211D01*
X44444038Y-34514003D01*
X44503836Y-34523776D01*
X44516199Y-34524041D01*
X44551410Y-34522066D01*
X44583530Y-34516056D01*
X44609518Y-34507138D01*
X44632712Y-34494786D01*
X44651567Y-34480209D01*
X44667782Y-34462537D01*
X44691350Y-34418942D01*
X44703726Y-34361339D01*
X44705182Y-34329441D01*
X44705182Y-33923448D01*
X44815763Y-33923448D01*
X44815763Y-34337806D01*
X44813844Y-34377129D01*
X44808228Y-34413656D01*
X44799244Y-34446995D01*
X44787055Y-34477526D01*
X44771906Y-34505146D01*
X44753973Y-34529900D01*
X44710131Y-34570983D01*
X44656259Y-34600427D01*
X44593088Y-34617214D01*
X44545569Y-34620639D01*
G37*
G36*
X43950532Y-34608000D02*
G01*
X43839951Y-34608000D01*
X43839951Y-33628036D01*
X43950532Y-33628036D01*
X43950532Y-34608000D01*
G37*
G36*
X43340752Y-33905778D02*
G01*
X43378679Y-33911481D01*
X43414480Y-33920759D01*
X43448213Y-33933498D01*
X43479619Y-33949498D01*
X43508684Y-33968666D01*
X43559160Y-34015907D01*
X43580356Y-34043784D01*
X43598636Y-34074298D01*
X43613911Y-34107460D01*
X43625955Y-34143011D01*
X43634660Y-34181039D01*
X43639801Y-34221209D01*
X43641260Y-34258061D01*
X43641260Y-34274852D01*
X43639328Y-34317314D01*
X43633621Y-34357664D01*
X43624403Y-34395325D01*
X43611756Y-34430657D01*
X43596004Y-34463171D01*
X43577149Y-34493148D01*
X43555506Y-34520246D01*
X43531052Y-34544597D01*
X43504003Y-34566009D01*
X43474402Y-34584442D01*
X43407854Y-34611929D01*
X43331915Y-34625998D01*
X43294069Y-34627600D01*
X43252053Y-34625706D01*
X43213755Y-34620263D01*
X43178536Y-34611493D01*
X43146739Y-34599819D01*
X43090586Y-34567792D01*
X43043459Y-34524637D01*
X43004239Y-34470079D01*
X42987483Y-34438617D01*
X43082676Y-34392455D01*
X43100027Y-34426224D01*
X43121568Y-34456957D01*
X43141755Y-34478114D01*
X43165343Y-34496304D01*
X43189429Y-34509562D01*
X43216754Y-34519750D01*
X43246187Y-34526307D01*
X43279061Y-34529432D01*
X43291260Y-34529659D01*
X43325390Y-34527723D01*
X43357633Y-34521992D01*
X43387172Y-34512810D01*
X43414498Y-34500201D01*
X43438928Y-34484628D01*
X43460853Y-34465966D01*
X43479834Y-34444639D01*
X43496018Y-34420501D01*
X43509179Y-34393753D01*
X43519206Y-34364402D01*
X43525952Y-34332332D01*
X43529161Y-34297817D01*
X43529274Y-34294453D01*
X42972034Y-34294453D01*
X42972034Y-34244017D01*
X42973880Y-34203411D01*
X43084081Y-34203411D01*
X43527870Y-34203411D01*
X43521392Y-34169181D01*
X43511481Y-34137829D01*
X43498707Y-34110235D01*
X43482961Y-34085544D01*
X43464768Y-34064248D01*
X43443966Y-34045920D01*
X43395227Y-34018596D01*
X43336718Y-34003993D01*
X43301030Y-34001850D01*
X43267437Y-34003786D01*
X43236026Y-34009527D01*
X43207873Y-34018613D01*
X43182125Y-34031075D01*
X43159555Y-34046343D01*
X43139587Y-34064629D01*
X43122610Y-34085522D01*
X43108474Y-34109180D01*
X43089310Y-34164636D01*
X43084081Y-34203411D01*
X42973880Y-34203411D01*
X42973963Y-34201593D01*
X42979650Y-34161518D01*
X42988804Y-34124365D01*
X43001331Y-34089716D01*
X43016903Y-34057999D01*
X43035496Y-34028942D01*
X43056838Y-34002789D01*
X43080890Y-33979468D01*
X43136625Y-33941700D01*
X43202083Y-33916358D01*
X43276718Y-33904546D01*
X43301030Y-33903847D01*
X43340752Y-33905778D01*
G37*
G36*
X42555539Y-34608000D02*
G01*
X42373517Y-34608000D01*
X42373517Y-34511401D01*
X42526108Y-34511401D01*
X42542684Y-34509448D01*
X42554584Y-34503586D01*
X42565151Y-34485301D01*
X42566713Y-34469453D01*
X42566713Y-34020046D01*
X42342682Y-34020046D01*
X42342682Y-33923448D01*
X42566713Y-33923448D01*
X42566713Y-33679816D01*
X42677294Y-33679816D01*
X42677294Y-33923448D01*
X42883130Y-33923448D01*
X42883130Y-34020046D01*
X42677294Y-34020046D01*
X42677294Y-34487649D01*
X42675356Y-34513615D01*
X42669603Y-34536858D01*
X42660865Y-34555937D01*
X42648955Y-34572302D01*
X42634581Y-34585328D01*
X42617412Y-34595547D01*
X42574501Y-34607037D01*
X42555539Y-34608000D01*
G37*
G36*
X41935587Y-33905759D02*
G01*
X41973727Y-33911326D01*
X42008448Y-33920223D01*
X42040090Y-33932228D01*
X42094821Y-33964896D01*
X42138914Y-34008513D01*
X42172514Y-34062815D01*
X42190946Y-34112431D01*
X42087387Y-34146014D01*
X42078077Y-34115498D01*
X42065241Y-34087845D01*
X42050412Y-34065446D01*
X42032485Y-34045899D01*
X42012741Y-34030340D01*
X41990111Y-34017695D01*
X41965033Y-34008306D01*
X41937038Y-34002087D01*
X41895595Y-33999041D01*
X41862058Y-34000968D01*
X41832241Y-34006642D01*
X41807600Y-34015247D01*
X41786227Y-34026886D01*
X41768739Y-34040826D01*
X41754262Y-34057334D01*
X41734246Y-34097793D01*
X41726224Y-34149868D01*
X41726152Y-34155845D01*
X41726152Y-34206220D01*
X41957144Y-34206220D01*
X41999008Y-34208175D01*
X42038386Y-34214046D01*
X42072750Y-34223135D01*
X42104214Y-34235694D01*
X42130536Y-34250466D01*
X42153791Y-34268239D01*
X42172527Y-34287586D01*
X42188117Y-34309567D01*
X42199911Y-34333135D01*
X42208406Y-34359135D01*
X42214759Y-34413460D01*
X42212840Y-34443965D01*
X42207217Y-34472299D01*
X42198163Y-34498259D01*
X42185857Y-34521985D01*
X42151700Y-34563091D01*
X42104830Y-34595381D01*
X42045118Y-34617530D01*
X41973210Y-34627336D01*
X41958549Y-34627600D01*
X41919178Y-34625722D01*
X41884372Y-34620393D01*
X41853435Y-34611944D01*
X41826520Y-34600896D01*
X41781494Y-34571256D01*
X41746614Y-34532324D01*
X41730365Y-34505845D01*
X41713573Y-34505845D01*
X41713573Y-34512806D01*
X41711659Y-34534041D01*
X41706076Y-34552948D01*
X41697346Y-34568954D01*
X41685587Y-34582437D01*
X41653705Y-34601260D01*
X41611357Y-34608000D01*
X41514759Y-34608000D01*
X41514759Y-34514210D01*
X41577774Y-34514210D01*
X41592504Y-34512256D01*
X41603929Y-34506394D01*
X41615402Y-34487020D01*
X41616975Y-34472262D01*
X41616975Y-34311244D01*
X41726152Y-34311244D01*
X41728077Y-34346015D01*
X41733740Y-34378094D01*
X41742682Y-34406662D01*
X41754847Y-34432519D01*
X41769807Y-34455234D01*
X41787583Y-34475175D01*
X41831028Y-34506461D01*
X41885071Y-34525989D01*
X41945970Y-34532406D01*
X41978961Y-34530474D01*
X42008818Y-34524766D01*
X42033755Y-34516067D01*
X42055359Y-34504252D01*
X42072248Y-34490541D01*
X42085793Y-34474311D01*
X42095380Y-34456602D01*
X42101550Y-34436767D01*
X42104178Y-34410651D01*
X42102264Y-34388381D01*
X42096681Y-34368534D01*
X42076031Y-34336648D01*
X42042657Y-34313296D01*
X41994868Y-34299023D01*
X41952992Y-34295857D01*
X41726152Y-34295857D01*
X41726152Y-34311244D01*
X41616975Y-34311244D01*
X41616975Y-34162806D01*
X41618912Y-34125161D01*
X41624657Y-34090183D01*
X41633684Y-34059119D01*
X41646052Y-34030667D01*
X41661224Y-34005538D01*
X41679396Y-33983019D01*
X41724085Y-33946278D01*
X41780606Y-33920300D01*
X41850086Y-33906033D01*
X41894191Y-33903847D01*
X41935587Y-33905759D01*
G37*
X75315789Y-39302825D02*
X74601504Y-39302825D01*
X75458646Y-39731396D02*
X74958646Y-38231396D01*
X74958646Y-38231396D02*
X74458646Y-39731396D01*
X73958647Y-39731396D02*
X73958647Y-38231396D01*
X73958647Y-38231396D02*
X73101504Y-39731396D01*
X73101504Y-39731396D02*
X73101504Y-38231396D01*
X72601503Y-38231396D02*
X71744361Y-38231396D01*
X72172932Y-39731396D02*
X72172932Y-38231396D01*
X70958646Y-38231396D02*
X70672932Y-38231396D01*
X70672932Y-38231396D02*
X70530075Y-38302825D01*
X70530075Y-38302825D02*
X70387218Y-38445682D01*
X70387218Y-38445682D02*
X70315789Y-38731396D01*
X70315789Y-38731396D02*
X70315789Y-39231396D01*
X70315789Y-39231396D02*
X70387218Y-39517110D01*
X70387218Y-39517110D02*
X70530075Y-39659968D01*
X70530075Y-39659968D02*
X70672932Y-39731396D01*
X70672932Y-39731396D02*
X70958646Y-39731396D01*
X70958646Y-39731396D02*
X71101504Y-39659968D01*
X71101504Y-39659968D02*
X71244361Y-39517110D01*
X71244361Y-39517110D02*
X71315789Y-39231396D01*
X71315789Y-39231396D02*
X71315789Y-38731396D01*
X71315789Y-38731396D02*
X71244361Y-38445682D01*
X71244361Y-38445682D02*
X71101504Y-38302825D01*
X71101504Y-38302825D02*
X70958646Y-38231396D01*
X69672932Y-39731396D02*
X69672932Y-38231396D01*
X69672932Y-38231396D02*
X68815789Y-39731396D01*
X68815789Y-39731396D02*
X68815789Y-38231396D01*
X68101503Y-39731396D02*
X68101503Y-38231396D01*
X67458645Y-39302825D02*
X66744360Y-39302825D01*
X67601502Y-39731396D02*
X67101502Y-38231396D01*
X67101502Y-38231396D02*
X66601502Y-39731396D01*
X64101503Y-39588539D02*
X64172931Y-39659968D01*
X64172931Y-39659968D02*
X64387217Y-39731396D01*
X64387217Y-39731396D02*
X64530074Y-39731396D01*
X64530074Y-39731396D02*
X64744360Y-39659968D01*
X64744360Y-39659968D02*
X64887217Y-39517110D01*
X64887217Y-39517110D02*
X64958646Y-39374253D01*
X64958646Y-39374253D02*
X65030074Y-39088539D01*
X65030074Y-39088539D02*
X65030074Y-38874253D01*
X65030074Y-38874253D02*
X64958646Y-38588539D01*
X64958646Y-38588539D02*
X64887217Y-38445682D01*
X64887217Y-38445682D02*
X64744360Y-38302825D01*
X64744360Y-38302825D02*
X64530074Y-38231396D01*
X64530074Y-38231396D02*
X64387217Y-38231396D01*
X64387217Y-38231396D02*
X64172931Y-38302825D01*
X64172931Y-38302825D02*
X64101503Y-38374253D01*
X62601503Y-39731396D02*
X63101503Y-39017110D01*
X63458646Y-39731396D02*
X63458646Y-38231396D01*
X63458646Y-38231396D02*
X62887217Y-38231396D01*
X62887217Y-38231396D02*
X62744360Y-38302825D01*
X62744360Y-38302825D02*
X62672931Y-38374253D01*
X62672931Y-38374253D02*
X62601503Y-38517110D01*
X62601503Y-38517110D02*
X62601503Y-38731396D01*
X62601503Y-38731396D02*
X62672931Y-38874253D01*
X62672931Y-38874253D02*
X62744360Y-38945682D01*
X62744360Y-38945682D02*
X62887217Y-39017110D01*
X62887217Y-39017110D02*
X63458646Y-39017110D01*
X61958646Y-39731396D02*
X61958646Y-38231396D01*
X61315788Y-39659968D02*
X61101503Y-39731396D01*
X61101503Y-39731396D02*
X60744360Y-39731396D01*
X60744360Y-39731396D02*
X60601503Y-39659968D01*
X60601503Y-39659968D02*
X60530074Y-39588539D01*
X60530074Y-39588539D02*
X60458645Y-39445682D01*
X60458645Y-39445682D02*
X60458645Y-39302825D01*
X60458645Y-39302825D02*
X60530074Y-39159968D01*
X60530074Y-39159968D02*
X60601503Y-39088539D01*
X60601503Y-39088539D02*
X60744360Y-39017110D01*
X60744360Y-39017110D02*
X61030074Y-38945682D01*
X61030074Y-38945682D02*
X61172931Y-38874253D01*
X61172931Y-38874253D02*
X61244360Y-38802825D01*
X61244360Y-38802825D02*
X61315788Y-38659968D01*
X61315788Y-38659968D02*
X61315788Y-38517110D01*
X61315788Y-38517110D02*
X61244360Y-38374253D01*
X61244360Y-38374253D02*
X61172931Y-38302825D01*
X61172931Y-38302825D02*
X61030074Y-38231396D01*
X61030074Y-38231396D02*
X60672931Y-38231396D01*
X60672931Y-38231396D02*
X60458645Y-38302825D01*
X60030074Y-38231396D02*
X59172932Y-38231396D01*
X59601503Y-39731396D02*
X59601503Y-38231396D01*
X58672932Y-39731396D02*
X58672932Y-38231396D01*
X73815789Y-42146312D02*
X73815789Y-40646312D01*
X73815789Y-40646312D02*
X72958646Y-42146312D01*
X72958646Y-42146312D02*
X72958646Y-40646312D01*
X72315788Y-41717741D02*
X71601503Y-41717741D01*
X72458645Y-42146312D02*
X71958645Y-40646312D01*
X71958645Y-40646312D02*
X71458645Y-42146312D01*
X71172931Y-40646312D02*
X70315789Y-40646312D01*
X70744360Y-42146312D02*
X70744360Y-40646312D01*
X69887217Y-41717741D02*
X69172932Y-41717741D01*
X70030074Y-42146312D02*
X69530074Y-40646312D01*
X69530074Y-40646312D02*
X69030074Y-42146312D01*
X67815789Y-42146312D02*
X68530075Y-42146312D01*
X68530075Y-42146312D02*
X68530075Y-40646312D01*
X67315789Y-42146312D02*
X67315789Y-40646312D01*
X66672931Y-41717741D02*
X65958646Y-41717741D01*
X66815788Y-42146312D02*
X66315788Y-40646312D01*
X66315788Y-40646312D02*
X65815788Y-42146312D01*
X64172932Y-42146312D02*
X64172932Y-40646312D01*
X64172932Y-40646312D02*
X63601503Y-40646312D01*
X63601503Y-40646312D02*
X63458646Y-40717741D01*
X63458646Y-40717741D02*
X63387217Y-40789169D01*
X63387217Y-40789169D02*
X63315789Y-40932026D01*
X63315789Y-40932026D02*
X63315789Y-41146312D01*
X63315789Y-41146312D02*
X63387217Y-41289169D01*
X63387217Y-41289169D02*
X63458646Y-41360598D01*
X63458646Y-41360598D02*
X63601503Y-41432026D01*
X63601503Y-41432026D02*
X64172932Y-41432026D01*
X62672932Y-42146312D02*
X62672932Y-40646312D01*
X61244360Y-42146312D02*
X61958646Y-42146312D01*
X61958646Y-42146312D02*
X61958646Y-40646312D01*
X60815788Y-41717741D02*
X60101503Y-41717741D01*
X60958645Y-42146312D02*
X60458645Y-40646312D01*
X60458645Y-40646312D02*
X59958645Y-42146312D01*
X58601503Y-42146312D02*
X59101503Y-41432026D01*
X59458646Y-42146312D02*
X59458646Y-40646312D01*
X59458646Y-40646312D02*
X58887217Y-40646312D01*
X58887217Y-40646312D02*
X58744360Y-40717741D01*
X58744360Y-40717741D02*
X58672931Y-40789169D01*
X58672931Y-40789169D02*
X58601503Y-40932026D01*
X58601503Y-40932026D02*
X58601503Y-41146312D01*
X58601503Y-41146312D02*
X58672931Y-41289169D01*
X58672931Y-41289169D02*
X58744360Y-41360598D01*
X58744360Y-41360598D02*
X58887217Y-41432026D01*
X58887217Y-41432026D02*
X59458646Y-41432026D01*
X76530074Y-44561228D02*
X76530074Y-43061228D01*
X76530074Y-43061228D02*
X75958645Y-43061228D01*
X75958645Y-43061228D02*
X75815788Y-43132657D01*
X75815788Y-43132657D02*
X75744359Y-43204085D01*
X75744359Y-43204085D02*
X75672931Y-43346942D01*
X75672931Y-43346942D02*
X75672931Y-43561228D01*
X75672931Y-43561228D02*
X75744359Y-43704085D01*
X75744359Y-43704085D02*
X75815788Y-43775514D01*
X75815788Y-43775514D02*
X75958645Y-43846942D01*
X75958645Y-43846942D02*
X76530074Y-43846942D01*
X75101502Y-44132657D02*
X74387217Y-44132657D01*
X75244359Y-44561228D02*
X74744359Y-43061228D01*
X74744359Y-43061228D02*
X74244359Y-44561228D01*
X73744360Y-43061228D02*
X73744360Y-44275514D01*
X73744360Y-44275514D02*
X73672931Y-44418371D01*
X73672931Y-44418371D02*
X73601503Y-44489800D01*
X73601503Y-44489800D02*
X73458645Y-44561228D01*
X73458645Y-44561228D02*
X73172931Y-44561228D01*
X73172931Y-44561228D02*
X73030074Y-44489800D01*
X73030074Y-44489800D02*
X72958645Y-44418371D01*
X72958645Y-44418371D02*
X72887217Y-44275514D01*
X72887217Y-44275514D02*
X72887217Y-43061228D01*
X71458645Y-44561228D02*
X72172931Y-44561228D01*
X72172931Y-44561228D02*
X72172931Y-43061228D01*
X70958645Y-44561228D02*
X70958645Y-43061228D01*
X70244359Y-44561228D02*
X70244359Y-43061228D01*
X70244359Y-43061228D02*
X69387216Y-44561228D01*
X69387216Y-44561228D02*
X69387216Y-43061228D01*
X68744358Y-44132657D02*
X68030073Y-44132657D01*
X68887215Y-44561228D02*
X68387215Y-43061228D01*
X68387215Y-43061228D02*
X67887215Y-44561228D01*
X66458644Y-43061228D02*
X65958644Y-44561228D01*
X65958644Y-44561228D02*
X65458644Y-43061228D01*
X65030073Y-44132657D02*
X64315788Y-44132657D01*
X65172930Y-44561228D02*
X64672930Y-43061228D01*
X64672930Y-43061228D02*
X64172930Y-44561228D01*
X62815788Y-44561228D02*
X63315788Y-43846942D01*
X63672931Y-44561228D02*
X63672931Y-43061228D01*
X63672931Y-43061228D02*
X63101502Y-43061228D01*
X63101502Y-43061228D02*
X62958645Y-43132657D01*
X62958645Y-43132657D02*
X62887216Y-43204085D01*
X62887216Y-43204085D02*
X62815788Y-43346942D01*
X62815788Y-43346942D02*
X62815788Y-43561228D01*
X62815788Y-43561228D02*
X62887216Y-43704085D01*
X62887216Y-43704085D02*
X62958645Y-43775514D01*
X62958645Y-43775514D02*
X63101502Y-43846942D01*
X63101502Y-43846942D02*
X63672931Y-43846942D01*
X61387216Y-43132657D02*
X61530074Y-43061228D01*
X61530074Y-43061228D02*
X61744359Y-43061228D01*
X61744359Y-43061228D02*
X61958645Y-43132657D01*
X61958645Y-43132657D02*
X62101502Y-43275514D01*
X62101502Y-43275514D02*
X62172931Y-43418371D01*
X62172931Y-43418371D02*
X62244359Y-43704085D01*
X62244359Y-43704085D02*
X62244359Y-43918371D01*
X62244359Y-43918371D02*
X62172931Y-44204085D01*
X62172931Y-44204085D02*
X62101502Y-44346942D01*
X62101502Y-44346942D02*
X61958645Y-44489800D01*
X61958645Y-44489800D02*
X61744359Y-44561228D01*
X61744359Y-44561228D02*
X61601502Y-44561228D01*
X61601502Y-44561228D02*
X61387216Y-44489800D01*
X61387216Y-44489800D02*
X61315788Y-44418371D01*
X61315788Y-44418371D02*
X61315788Y-43918371D01*
X61315788Y-43918371D02*
X61601502Y-43918371D01*
X60744359Y-44132657D02*
X60030074Y-44132657D01*
X60887216Y-44561228D02*
X60387216Y-43061228D01*
X60387216Y-43061228D02*
X59887216Y-44561228D01*
X59458645Y-44489800D02*
X59244360Y-44561228D01*
X59244360Y-44561228D02*
X58887217Y-44561228D01*
X58887217Y-44561228D02*
X58744360Y-44489800D01*
X58744360Y-44489800D02*
X58672931Y-44418371D01*
X58672931Y-44418371D02*
X58601502Y-44275514D01*
X58601502Y-44275514D02*
X58601502Y-44132657D01*
X58601502Y-44132657D02*
X58672931Y-43989800D01*
X58672931Y-43989800D02*
X58744360Y-43918371D01*
X58744360Y-43918371D02*
X58887217Y-43846942D01*
X58887217Y-43846942D02*
X59172931Y-43775514D01*
X59172931Y-43775514D02*
X59315788Y-43704085D01*
X59315788Y-43704085D02*
X59387217Y-43632657D01*
X59387217Y-43632657D02*
X59458645Y-43489800D01*
X59458645Y-43489800D02*
X59458645Y-43346942D01*
X59458645Y-43346942D02*
X59387217Y-43204085D01*
X59387217Y-43204085D02*
X59315788Y-43132657D01*
X59315788Y-43132657D02*
X59172931Y-43061228D01*
X59172931Y-43061228D02*
X58815788Y-43061228D01*
X58815788Y-43061228D02*
X58601502Y-43132657D01*
M02*
