%TF.GenerationSoftware,KiCad,Pcbnew,9.0.2*%
%TF.CreationDate,2025-06-20T16:00:47-04:00*%
%TF.ProjectId,proj02-g05,70726f6a-3032-42d6-9730-352e6b696361,rev?*%
%TF.SameCoordinates,Original*%
%TF.FileFunction,Copper,L1,Top*%
%TF.FilePolarity,Positive*%
%FSLAX46Y46*%
G04 Gerber Fmt 4.6, Leading zero omitted, Abs format (unit mm)*
G04 Created by KiCad (PCBNEW 9.0.2) date 2025-06-20 16:00:47*
%MOMM*%
%LPD*%
G01*
G04 APERTURE LIST*
G04 Aperture macros list*
%AMRoundRect*
0 Rectangle with rounded corners*
0 $1 Rounding radius*
0 $2 $3 $4 $5 $6 $7 $8 $9 X,Y pos of 4 corners*
0 Add a 4 corners polygon primitive as box body*
4,1,4,$2,$3,$4,$5,$6,$7,$8,$9,$2,$3,0*
0 Add four circle primitives for the rounded corners*
1,1,$1+$1,$2,$3*
1,1,$1+$1,$4,$5*
1,1,$1+$1,$6,$7*
1,1,$1+$1,$8,$9*
0 Add four rect primitives between the rounded corners*
20,1,$1+$1,$2,$3,$4,$5,0*
20,1,$1+$1,$4,$5,$6,$7,0*
20,1,$1+$1,$6,$7,$8,$9,0*
20,1,$1+$1,$8,$9,$2,$3,0*%
G04 Aperture macros list end*
%TA.AperFunction,ComponentPad*%
%ADD10R,1.800000X1.800000*%
%TD*%
%TA.AperFunction,ComponentPad*%
%ADD11C,1.800000*%
%TD*%
%TA.AperFunction,ComponentPad*%
%ADD12C,1.600000*%
%TD*%
%TA.AperFunction,ComponentPad*%
%ADD13O,1.600000X1.600000*%
%TD*%
%TA.AperFunction,ComponentPad*%
%ADD14RoundRect,0.250001X1.149999X1.149999X-1.149999X1.149999X-1.149999X-1.149999X1.149999X-1.149999X0*%
%TD*%
%TA.AperFunction,ComponentPad*%
%ADD15C,2.800000*%
%TD*%
%TA.AperFunction,ComponentPad*%
%ADD16RoundRect,0.250000X-0.950000X-0.550000X0.950000X-0.550000X0.950000X0.550000X-0.950000X0.550000X0*%
%TD*%
%TA.AperFunction,ComponentPad*%
%ADD17O,2.400000X1.600000*%
%TD*%
%TA.AperFunction,ComponentPad*%
%ADD18C,1.500000*%
%TD*%
%TA.AperFunction,ComponentPad*%
%ADD19R,1.600000X1.600000*%
%TD*%
%TA.AperFunction,ComponentPad*%
%ADD20C,2.340000*%
%TD*%
%TA.AperFunction,ComponentPad*%
%ADD21R,1.500000X1.500000*%
%TD*%
%TA.AperFunction,ComponentPad*%
%ADD22RoundRect,0.249999X0.850001X-0.850001X0.850001X0.850001X-0.850001X0.850001X-0.850001X-0.850001X0*%
%TD*%
%TA.AperFunction,ComponentPad*%
%ADD23C,2.200000*%
%TD*%
%TA.AperFunction,ViaPad*%
%ADD24C,0.900000*%
%TD*%
%TA.AperFunction,Conductor*%
%ADD25C,0.500000*%
%TD*%
G04 APERTURE END LIST*
D10*
%TO.P,D4,1,K*%
%TO.N,Net-(D1-K)*%
X22510000Y-72900000D03*
D11*
%TO.P,D4,2,A*%
%TO.N,Net-(D4-A)*%
X25050000Y-72900000D03*
%TD*%
D12*
%TO.P,R4,1*%
%TO.N,+9V*%
X77457620Y-82380000D03*
D13*
%TO.P,R4,2*%
%TO.N,Net-(U4-DIS)*%
X77457620Y-92540000D03*
%TD*%
D14*
%TO.P,J1,1,Pin_1*%
%TO.N,GND*%
X72500000Y-33000000D03*
D15*
%TO.P,J1,2,Pin_2*%
%TO.N,Net-(D12-A)*%
X67500000Y-33000000D03*
%TD*%
D16*
%TO.P,U4,1,GND*%
%TO.N,GND*%
X61647620Y-85150000D03*
D17*
%TO.P,U4,2,TR*%
%TO.N,Net-(U4-THR)*%
X61647620Y-87690000D03*
%TO.P,U4,3,Q*%
%TO.N,Net-(U3-CLK)*%
X61647620Y-90230000D03*
%TO.P,U4,4,R*%
%TO.N,Net-(U1-Q)*%
X61647620Y-92770000D03*
%TO.P,U4,5,CV*%
%TO.N,Net-(U4-CV)*%
X69267620Y-92770000D03*
%TO.P,U4,6,THR*%
%TO.N,Net-(U4-THR)*%
X69267620Y-90230000D03*
%TO.P,U4,7,DIS*%
%TO.N,Net-(U4-DIS)*%
X69267620Y-87690000D03*
%TO.P,U4,8,VCC*%
%TO.N,+9V*%
X69267620Y-85150000D03*
%TD*%
D18*
%TO.P,R1,1*%
%TO.N,+9V*%
X35717620Y-81000000D03*
%TO.P,R1,2*%
%TO.N,Net-(U2A-+)*%
X39117620Y-81000000D03*
%TD*%
D12*
%TO.P,R6,1*%
%TO.N,Net-(U3-CKEN)*%
X54667620Y-98570000D03*
D13*
%TO.P,R6,2*%
%TO.N,GND*%
X54667620Y-108730000D03*
%TD*%
D10*
%TO.P,D3,1,K*%
%TO.N,Net-(D1-K)*%
X22600000Y-85450000D03*
D11*
%TO.P,D3,2,A*%
%TO.N,Net-(D3-A)*%
X25140000Y-85450000D03*
%TD*%
D16*
%TO.P,U1,1,GND*%
%TO.N,GND*%
X61447620Y-65400000D03*
D17*
%TO.P,U1,2,TR*%
%TO.N,Net-(U1-TR)*%
X61447620Y-67940000D03*
%TO.P,U1,3,Q*%
%TO.N,Net-(U1-Q)*%
X61447620Y-70480000D03*
%TO.P,U1,4,R*%
%TO.N,+9V*%
X61447620Y-73020000D03*
%TO.P,U1,5,CV*%
%TO.N,Net-(U1-CV)*%
X69067620Y-73020000D03*
%TO.P,U1,6,THR*%
%TO.N,Net-(U1-DIS)*%
X69067620Y-70480000D03*
%TO.P,U1,7,DIS*%
X69067620Y-67940000D03*
%TO.P,U1,8,VCC*%
%TO.N,+9V*%
X69067620Y-65400000D03*
%TD*%
D10*
%TO.P,D8,1,K*%
%TO.N,Net-(D1-K)*%
X80075000Y-36100000D03*
D11*
%TO.P,D8,2,A*%
%TO.N,Net-(D8-A)*%
X82615000Y-36100000D03*
%TD*%
D12*
%TO.P,R5,1*%
%TO.N,Net-(U4-DIS)*%
X77207620Y-98880000D03*
D13*
%TO.P,R5,2*%
%TO.N,Net-(U4-THR)*%
X77207620Y-109040000D03*
%TD*%
D10*
%TO.P,D10,1,K*%
%TO.N,Net-(D1-K)*%
X79900000Y-58400000D03*
D11*
%TO.P,D10,2,A*%
%TO.N,Net-(D10-A)*%
X82440000Y-58400000D03*
%TD*%
D19*
%TO.P,C2,1*%
%TO.N,Net-(U1-DIS)*%
X66500000Y-51400000D03*
D12*
%TO.P,C2,2*%
%TO.N,GND*%
X64000000Y-51400000D03*
%TD*%
D16*
%TO.P,U2,1*%
%TO.N,Net-(U1-TR)*%
X45467620Y-57870000D03*
D17*
%TO.P,U2,2,-*%
%TO.N,Net-(U2A--)*%
X45467620Y-60410000D03*
%TO.P,U2,3,+*%
%TO.N,Net-(U2A-+)*%
X45467620Y-62950000D03*
%TO.P,U2,4*%
%TO.N,N/C*%
X45467620Y-65490000D03*
%TO.P,U2,5*%
X45467620Y-68030000D03*
%TO.P,U2,6*%
X45467620Y-70570000D03*
%TO.P,U2,7*%
X45467620Y-73110000D03*
%TO.P,U2,8*%
X53087620Y-73110000D03*
%TO.P,U2,9*%
X53087620Y-70570000D03*
%TO.P,U2,10*%
X53087620Y-68030000D03*
%TO.P,U2,11*%
X53087620Y-65490000D03*
%TO.P,U2,12*%
X53087620Y-62950000D03*
%TO.P,U2,13*%
X53087620Y-60410000D03*
%TO.P,U2,14*%
X53087620Y-57870000D03*
%TD*%
D10*
%TO.P,D2,1,K*%
%TO.N,Net-(D1-K)*%
X22625000Y-97550000D03*
D11*
%TO.P,D2,2,A*%
%TO.N,Net-(D2-A)*%
X25165000Y-97550000D03*
%TD*%
D12*
%TO.P,C4,1*%
%TO.N,Net-(U4-CV)*%
X69707620Y-98460000D03*
%TO.P,C4,2*%
%TO.N,GND*%
X69707620Y-103460000D03*
%TD*%
D10*
%TO.P,D5,1,K*%
%TO.N,Net-(D1-K)*%
X22760000Y-61750000D03*
D11*
%TO.P,D5,2,A*%
%TO.N,Net-(D5-A)*%
X25300000Y-61750000D03*
%TD*%
D10*
%TO.P,D1,1,K*%
%TO.N,Net-(D1-K)*%
X22510000Y-110250000D03*
D11*
%TO.P,D1,2,A*%
%TO.N,Net-(D1-A)*%
X25050000Y-110250000D03*
%TD*%
D20*
%TO.P,RV1,1,1*%
%TO.N,+9V*%
X43150000Y-46850000D03*
%TO.P,RV1,2,2*%
%TO.N,Net-(U2A--)*%
X38150000Y-46850000D03*
%TO.P,RV1,3,3*%
%TO.N,GND*%
X33150000Y-46850000D03*
%TD*%
D12*
%TO.P,R2,1*%
%TO.N,GND*%
X37067620Y-72510000D03*
D13*
%TO.P,R2,2*%
%TO.N,Net-(U2A-+)*%
X37067620Y-62350000D03*
%TD*%
D21*
%TO.P,SW1,1,A*%
%TO.N,unconnected-(SW1-A-Pad1)*%
X55580000Y-33000000D03*
%TO.P,SW1,2,B*%
%TO.N,Net-(D12-K)*%
X53040000Y-33000000D03*
%TO.P,SW1,3,C*%
%TO.N,+9V*%
X50500000Y-33000000D03*
%TD*%
D12*
%TO.P,C1,1*%
%TO.N,Net-(U1-CV)*%
X67707620Y-79460000D03*
%TO.P,C1,2*%
%TO.N,GND*%
X62707620Y-79460000D03*
%TD*%
D10*
%TO.P,D7,1,K*%
%TO.N,Net-(D1-K)*%
X22760000Y-38800000D03*
D11*
%TO.P,D7,2,A*%
%TO.N,Net-(D7-A)*%
X25300000Y-38800000D03*
%TD*%
D16*
%TO.P,U3,1,Q5*%
%TO.N,Net-(D6-A)*%
X36597620Y-91110000D03*
D17*
%TO.P,U3,2,Q1*%
%TO.N,Net-(D2-A)*%
X36597620Y-93650000D03*
%TO.P,U3,3,Q0*%
%TO.N,Net-(D1-A)*%
X36597620Y-96190000D03*
%TO.P,U3,4,Q2*%
%TO.N,Net-(D3-A)*%
X36597620Y-98730000D03*
%TO.P,U3,5,Q6*%
%TO.N,Net-(D7-A)*%
X36597620Y-101270000D03*
%TO.P,U3,6,Q7*%
%TO.N,Net-(D8-A)*%
X36597620Y-103810000D03*
%TO.P,U3,7,Q3*%
%TO.N,Net-(D4-A)*%
X36597620Y-106350000D03*
%TO.P,U3,8,VSS*%
%TO.N,GND*%
X36597620Y-108890000D03*
%TO.P,U3,9,Q8*%
%TO.N,Net-(D9-A)*%
X44217620Y-108890000D03*
%TO.P,U3,10,Q4*%
%TO.N,Net-(D5-A)*%
X44217620Y-106350000D03*
%TO.P,U3,11,Q9*%
%TO.N,Net-(D10-A)*%
X44217620Y-103810000D03*
%TO.P,U3,12,Cout*%
%TO.N,unconnected-(U3-Cout-Pad12)*%
X44217620Y-101270000D03*
%TO.P,U3,13,CKEN*%
%TO.N,Net-(U3-CKEN)*%
X44217620Y-98730000D03*
%TO.P,U3,14,CLK*%
%TO.N,Net-(U3-CLK)*%
X44217620Y-96190000D03*
%TO.P,U3,15,Reset*%
%TO.N,GND*%
X44217620Y-93650000D03*
%TO.P,U3,16,VDD*%
%TO.N,+9V*%
X44217620Y-91110000D03*
%TD*%
D12*
%TO.P,R7,1*%
%TO.N,Net-(D1-K)*%
X62550000Y-108780000D03*
D13*
%TO.P,R7,2*%
%TO.N,GND*%
X62550000Y-98620000D03*
%TD*%
D10*
%TO.P,D9,1,K*%
%TO.N,Net-(D1-K)*%
X80110000Y-47750000D03*
D11*
%TO.P,D9,2,A*%
%TO.N,Net-(D9-A)*%
X82650000Y-47750000D03*
%TD*%
D10*
%TO.P,D6,1,K*%
%TO.N,Net-(D1-K)*%
X22610000Y-50200000D03*
D11*
%TO.P,D6,2,A*%
%TO.N,Net-(D6-A)*%
X25150000Y-50200000D03*
%TD*%
D22*
%TO.P,D12,1,K*%
%TO.N,Net-(D12-K)*%
X59500000Y-47080000D03*
D23*
%TO.P,D12,2,A*%
%TO.N,Net-(D12-A)*%
X59500000Y-36920000D03*
%TD*%
D12*
%TO.P,R3,1*%
%TO.N,+9V*%
X77457620Y-75290000D03*
D13*
%TO.P,R3,2*%
%TO.N,Net-(U1-DIS)*%
X77457620Y-65130000D03*
%TD*%
D19*
%TO.P,C3,1*%
%TO.N,Net-(U4-THR)*%
X51700000Y-82550000D03*
D12*
%TO.P,C3,2*%
%TO.N,GND*%
X49200000Y-82550000D03*
%TD*%
D24*
%TO.N,Net-(D6-A)*%
X33000000Y-89500000D03*
X33000000Y-83500000D03*
%TO.N,Net-(D7-A)*%
X31500000Y-80000000D03*
X33030207Y-101030207D03*
%TO.N,Net-(D1-K)*%
X29500000Y-114500000D03*
X54500000Y-112500000D03*
%TO.N,Net-(U1-Q)*%
X65500000Y-89500000D03*
X65500000Y-85500000D03*
%TD*%
D25*
%TO.N,GND*%
X42850000Y-93650000D02*
X44217620Y-93650000D01*
X39360000Y-108890000D02*
X41250000Y-107000000D01*
X41250000Y-95250000D02*
X42850000Y-93650000D01*
X41250000Y-107000000D02*
X41250000Y-95250000D01*
X36597620Y-108890000D02*
X39360000Y-108890000D01*
%TO.N,Net-(D6-A)*%
X33000000Y-83500000D02*
X33000000Y-89500000D01*
%TO.N,Net-(D7-A)*%
X31500000Y-90000000D02*
X33000000Y-91500000D01*
X33000000Y-101000000D02*
X33030207Y-101030207D01*
X31500000Y-80000000D02*
X31500000Y-90000000D01*
X33000000Y-91500000D02*
X33000000Y-101000000D01*
%TO.N,Net-(D1-K)*%
X47500000Y-113500000D02*
X46500000Y-114500000D01*
X46500000Y-114500000D02*
X29500000Y-114500000D01*
X52000000Y-113500000D02*
X47500000Y-113500000D01*
X53000000Y-112500000D02*
X52000000Y-113500000D01*
X54500000Y-112500000D02*
X53000000Y-112500000D01*
%TO.N,+9V*%
X36500000Y-81782380D02*
X35717620Y-81000000D01*
X44217620Y-91110000D02*
X36857620Y-83750000D01*
X43150000Y-46850000D02*
X43150000Y-49650000D01*
X74687620Y-85150000D02*
X77457620Y-82380000D01*
X77457620Y-75290000D02*
X77457620Y-82380000D01*
X43150000Y-49650000D02*
X46000000Y-52500000D01*
X57500000Y-76967620D02*
X61447620Y-73020000D01*
X77457620Y-71957620D02*
X77457620Y-75290000D01*
X70900000Y-65400000D02*
X77457620Y-71957620D01*
X44217620Y-82532380D02*
X49750000Y-77000000D01*
X69067620Y-65067620D02*
X69067620Y-65400000D01*
X44217620Y-91110000D02*
X44217620Y-82532380D01*
X69067620Y-65400000D02*
X70900000Y-65400000D01*
X46000000Y-52500000D02*
X56500000Y-52500000D01*
X69267620Y-85150000D02*
X74687620Y-85150000D01*
X57500000Y-77000000D02*
X57500000Y-76967620D01*
X36500000Y-83750000D02*
X36500000Y-81782380D01*
X43150000Y-46850000D02*
X43150000Y-43100000D01*
X49750000Y-77000000D02*
X57500000Y-77000000D01*
X43150000Y-43100000D02*
X50500000Y-35750000D01*
X36857620Y-83750000D02*
X36500000Y-83750000D01*
X50500000Y-35750000D02*
X50500000Y-33000000D01*
X56500000Y-52500000D02*
X69067620Y-65067620D01*
%TO.N,Net-(U1-Q)*%
X65500000Y-85500000D02*
X65500000Y-89500000D01*
%TO.N,Net-(D12-K)*%
X53040000Y-33000000D02*
X53040000Y-34790000D01*
X53040000Y-34790000D02*
X59500000Y-41250000D01*
X59500000Y-41250000D02*
X59500000Y-47080000D01*
%TO.N,Net-(D12-A)*%
X59500000Y-36920000D02*
X63580000Y-36920000D01*
X63580000Y-36920000D02*
X67500000Y-33000000D01*
%TD*%
M02*
