%TF.GenerationSoftware,KiCad,Pcbnew,9.0.2*%
%TF.CreationDate,2025-06-20T13:08:06-04:00*%
%TF.ProjectId,proyecto_2_control,70726f79-6563-4746-9f5f-325f636f6e74,rev?*%
%TF.SameCoordinates,Original*%
%TF.FileFunction,Copper,L1,Top*%
%TF.FilePolarity,Positive*%
%FSLAX46Y46*%
G04 Gerber Fmt 4.6, Leading zero omitted, Abs format (unit mm)*
G04 Created by KiCad (PCBNEW 9.0.2) date 2025-06-20 13:08:06*
%MOMM*%
%LPD*%
G01*
G04 APERTURE LIST*
G04 Aperture macros list*
%AMRoundRect*
0 Rectangle with rounded corners*
0 $1 Rounding radius*
0 $2 $3 $4 $5 $6 $7 $8 $9 X,Y pos of 4 corners*
0 Add a 4 corners polygon primitive as box body*
4,1,4,$2,$3,$4,$5,$6,$7,$8,$9,$2,$3,0*
0 Add four circle primitives for the rounded corners*
1,1,$1+$1,$2,$3*
1,1,$1+$1,$4,$5*
1,1,$1+$1,$6,$7*
1,1,$1+$1,$8,$9*
0 Add four rect primitives between the rounded corners*
20,1,$1+$1,$2,$3,$4,$5,0*
20,1,$1+$1,$4,$5,$6,$7,0*
20,1,$1+$1,$6,$7,$8,$9,0*
20,1,$1+$1,$8,$9,$2,$3,0*%
G04 Aperture macros list end*
%TA.AperFunction,ComponentPad*%
%ADD10C,1.600000*%
%TD*%
%TA.AperFunction,ComponentPad*%
%ADD11O,1.600000X1.600000*%
%TD*%
%TA.AperFunction,ComponentPad*%
%ADD12R,3.000000X3.000000*%
%TD*%
%TA.AperFunction,ComponentPad*%
%ADD13C,3.000000*%
%TD*%
%TA.AperFunction,ComponentPad*%
%ADD14R,1.600000X1.600000*%
%TD*%
%TA.AperFunction,ComponentPad*%
%ADD15R,1.700000X1.700000*%
%TD*%
%TA.AperFunction,ComponentPad*%
%ADD16C,1.700000*%
%TD*%
%TA.AperFunction,ComponentPad*%
%ADD17RoundRect,0.250000X-0.550000X0.950000X-0.550000X-0.950000X0.550000X-0.950000X0.550000X0.950000X0*%
%TD*%
%TA.AperFunction,ComponentPad*%
%ADD18O,1.600000X2.400000*%
%TD*%
%TA.AperFunction,ComponentPad*%
%ADD19R,1.500000X1.500000*%
%TD*%
%TA.AperFunction,ComponentPad*%
%ADD20RoundRect,0.250000X-0.950000X-0.550000X0.950000X-0.550000X0.950000X0.550000X-0.950000X0.550000X0*%
%TD*%
%TA.AperFunction,ComponentPad*%
%ADD21O,2.400000X1.600000*%
%TD*%
%TA.AperFunction,ComponentPad*%
%ADD22RoundRect,0.249999X0.850001X0.850001X-0.850001X0.850001X-0.850001X-0.850001X0.850001X-0.850001X0*%
%TD*%
%TA.AperFunction,ComponentPad*%
%ADD23C,2.200000*%
%TD*%
%TA.AperFunction,ComponentPad*%
%ADD24RoundRect,0.250000X0.550000X-0.950000X0.550000X0.950000X-0.550000X0.950000X-0.550000X-0.950000X0*%
%TD*%
%TA.AperFunction,ViaPad*%
%ADD25C,0.600000*%
%TD*%
%TA.AperFunction,Conductor*%
%ADD26C,0.750000*%
%TD*%
G04 APERTURE END LIST*
D10*
%TO.P,R7,1*%
%TO.N,Net-(U1C-+)*%
X71240000Y-55400000D03*
D11*
%TO.P,R7,2*%
%TO.N,GND*%
X81400000Y-55400000D03*
%TD*%
D12*
%TO.P,J2,1,Pin_1*%
%TO.N,GND*%
X44000000Y-53960000D03*
D13*
%TO.P,J2,2,Pin_2*%
%TO.N,Net-(J2-Pin_2)*%
X44000000Y-59040000D03*
%TD*%
D14*
%TO.P,C4,1*%
%TO.N,GND*%
X101100000Y-41300000D03*
D10*
%TO.P,C4,2*%
X103600000Y-41300000D03*
%TD*%
D15*
%TO.P,J5,1,Pin_1*%
%TO.N,Vcc*%
X88560000Y-64600000D03*
D16*
%TO.P,J5,2,Pin_2*%
%TO.N,PASO1*%
X91100000Y-64600000D03*
%TO.P,J5,3,Pin_3*%
%TO.N,GND*%
X93640000Y-64600000D03*
%TD*%
D17*
%TO.P,U3,1,Q5*%
%TO.N,unconnected-(U3-Q5-Pad1)*%
X128780000Y-39880000D03*
D18*
%TO.P,U3,2,Q1*%
%TO.N,PASO2*%
X126240000Y-39880000D03*
%TO.P,U3,3,Q0*%
%TO.N,PASO1*%
X123700000Y-39880000D03*
%TO.P,U3,4,Q2*%
%TO.N,PASO3*%
X121160000Y-39880000D03*
%TO.P,U3,5,Q6*%
%TO.N,unconnected-(U3-Q6-Pad5)*%
X118620000Y-39880000D03*
%TO.P,U3,6,Q7*%
%TO.N,unconnected-(U3-Q7-Pad6)*%
X116080000Y-39880000D03*
%TO.P,U3,7,Q3*%
%TO.N,Net-(U3-Q3)*%
X113540000Y-39880000D03*
%TO.P,U3,8,VSS*%
%TO.N,GND*%
X111000000Y-39880000D03*
%TO.P,U3,9,Q8*%
%TO.N,unconnected-(U3-Q8-Pad9)*%
X111000000Y-47500000D03*
%TO.P,U3,10,Q4*%
%TO.N,unconnected-(U3-Q4-Pad10)*%
X113540000Y-47500000D03*
%TO.P,U3,11,Q9*%
%TO.N,unconnected-(U3-Q9-Pad11)*%
X116080000Y-47500000D03*
%TO.P,U3,12,Cout*%
%TO.N,unconnected-(U3-Cout-Pad12)*%
X118620000Y-47500000D03*
%TO.P,U3,13,CKEN*%
%TO.N,Net-(U3-CKEN)*%
X121160000Y-47500000D03*
%TO.P,U3,14,CLK*%
%TO.N,Net-(U2-Q)*%
X123700000Y-47500000D03*
%TO.P,U3,15,Reset*%
%TO.N,Net-(U3-Q3)*%
X126240000Y-47500000D03*
%TO.P,U3,16,VDD*%
%TO.N,Net-(U2-R)*%
X128780000Y-47500000D03*
%TD*%
D12*
%TO.P,RV2,1,1*%
%TO.N,Vcc*%
X55400000Y-66000000D03*
D13*
%TO.P,RV2,2,2*%
%TO.N,Net-(U1A--)*%
X60400000Y-66000000D03*
%TO.P,RV2,3,3*%
%TO.N,GND*%
X65400000Y-66000000D03*
%TD*%
D19*
%TO.P,SW1,1,A*%
%TO.N,Net-(D1-A)*%
X44000000Y-44000000D03*
D10*
%TO.P,SW1,2,B*%
%TO.N,Net-(J2-Pin_2)*%
X44000000Y-46540000D03*
%TO.P,SW1,3,C*%
%TO.N,unconnected-(SW1-C-Pad3)*%
X44000000Y-41460000D03*
%TD*%
D20*
%TO.P,U2,1,GND*%
%TO.N,GND*%
X86480000Y-43060000D03*
D21*
%TO.P,U2,2,TR*%
%TO.N,Net-(U2-THR)*%
X86480000Y-45600000D03*
%TO.P,U2,3,Q*%
%TO.N,Net-(U2-Q)*%
X86480000Y-48140000D03*
%TO.P,U2,4,R*%
%TO.N,Net-(U2-R)*%
X86480000Y-50680000D03*
%TO.P,U2,5,CV*%
%TO.N,Net-(U2-CV)*%
X94100000Y-50680000D03*
%TO.P,U2,6,THR*%
%TO.N,Net-(U2-THR)*%
X94100000Y-48140000D03*
%TO.P,U2,7,DIS*%
%TO.N,Net-(U2-DIS)*%
X94100000Y-45600000D03*
%TO.P,U2,8,VCC*%
%TO.N,Net-(U2-R)*%
X94100000Y-43060000D03*
%TD*%
D10*
%TO.P,R1,1*%
%TO.N,Vcc*%
X49500000Y-55180000D03*
D11*
%TO.P,R1,2*%
%TO.N,Net-(U1A-+)*%
X49500000Y-45020000D03*
%TD*%
D10*
%TO.P,C2,1*%
%TO.N,Net-(U2-CV)*%
X99900000Y-52800000D03*
%TO.P,C2,2*%
%TO.N,GND*%
X104900000Y-52800000D03*
%TD*%
D22*
%TO.P,D1,1,K*%
%TO.N,Vcc*%
X70761084Y-31966693D03*
D23*
%TO.P,D1,2,A*%
%TO.N,Net-(D1-A)*%
X60601084Y-31966693D03*
%TD*%
D10*
%TO.P,R2,1*%
%TO.N,Net-(U1A-+)*%
X53360000Y-34100000D03*
%TO.P,R2,2*%
%TO.N,GND*%
X55900000Y-34100000D03*
%TD*%
D15*
%TO.P,J7,1,Pin_1*%
%TO.N,Vcc*%
X75960000Y-64600000D03*
D16*
%TO.P,J7,2,Pin_2*%
%TO.N,PASO3*%
X78500000Y-64600000D03*
%TO.P,J7,3,Pin_3*%
%TO.N,GND*%
X81040000Y-64600000D03*
%TD*%
D10*
%TO.P,R4,1*%
%TO.N,Net-(U1B-+)*%
X55120000Y-54500000D03*
D11*
%TO.P,R4,2*%
%TO.N,GND*%
X65280000Y-54500000D03*
%TD*%
D14*
%TO.P,C3,1*%
%TO.N,Net-(U2-R)*%
X133600000Y-53700000D03*
D10*
%TO.P,C3,2*%
%TO.N,GND*%
X136100000Y-53700000D03*
%TD*%
D12*
%TO.P,RV1,1,1*%
%TO.N,unconnected-(RV1-Pad1)*%
X115900000Y-66000000D03*
D13*
%TO.P,RV1,2,2*%
%TO.N,Net-(U2-DIS)*%
X120900000Y-66000000D03*
%TO.P,RV1,3,3*%
%TO.N,Net-(U2-THR)*%
X125900000Y-66000000D03*
%TD*%
D10*
%TO.P,R8,1*%
%TO.N,Net-(U1D-+)*%
X72720000Y-35300000D03*
D11*
%TO.P,R8,2*%
%TO.N,GND*%
X82880000Y-35300000D03*
%TD*%
D24*
%TO.P,U1,1*%
%TO.N,Net-(U2-R)*%
X53200000Y-47520000D03*
D18*
%TO.P,U1,2,-*%
%TO.N,Net-(U1A--)*%
X55740000Y-47520000D03*
%TO.P,U1,3,+*%
%TO.N,Net-(U1A-+)*%
X58280000Y-47520000D03*
%TO.P,U1,4,V+*%
%TO.N,Vcc*%
X60820000Y-47520000D03*
%TO.P,U1,5,+*%
%TO.N,Net-(U1B-+)*%
X63360000Y-47520000D03*
%TO.P,U1,6,-*%
%TO.N,Net-(U1B--)*%
X65900000Y-47520000D03*
%TO.P,U1,7*%
X68440000Y-47520000D03*
%TO.P,U1,8*%
%TO.N,Net-(U1C--)*%
X68440000Y-39900000D03*
%TO.P,U1,9,-*%
X65900000Y-39900000D03*
%TO.P,U1,10,+*%
%TO.N,Net-(U1C-+)*%
X63360000Y-39900000D03*
%TO.P,U1,11,V-*%
%TO.N,GND*%
X60820000Y-39900000D03*
%TO.P,U1,12,+*%
%TO.N,Net-(U1D-+)*%
X58280000Y-39900000D03*
%TO.P,U1,13,-*%
%TO.N,Net-(U1D--)*%
X55740000Y-39900000D03*
%TO.P,U1,14*%
X53200000Y-39900000D03*
%TD*%
D15*
%TO.P,J1,1,Pin_1*%
%TO.N,GND*%
X91325000Y-35000000D03*
D16*
%TO.P,J1,2,Pin_2*%
%TO.N,Vcc*%
X93865000Y-35000000D03*
%TD*%
D15*
%TO.P,J6,1,Pin_1*%
%TO.N,Vcc*%
X100860000Y-64600000D03*
D16*
%TO.P,J6,2,Pin_2*%
%TO.N,PASO2*%
X103400000Y-64600000D03*
%TO.P,J6,3,Pin_3*%
%TO.N,GND*%
X105940000Y-64600000D03*
%TD*%
D14*
%TO.P,C1,1*%
%TO.N,Net-(U2-THR)*%
X76500000Y-44500000D03*
D10*
%TO.P,C1,2*%
%TO.N,GND*%
X79000000Y-44500000D03*
%TD*%
%TO.P,R3,1*%
%TO.N,Net-(U2-R)*%
X85640000Y-57500000D03*
D11*
%TO.P,R3,2*%
%TO.N,Net-(U2-DIS)*%
X95800000Y-57500000D03*
%TD*%
D25*
%TO.N,GND*%
X102727541Y-47072459D03*
X81172459Y-36172459D03*
X91300000Y-38100000D03*
X75400000Y-34200000D03*
%TO.N,Net-(U2-CV)*%
X88600000Y-44649000D03*
%TO.N,Net-(U2-R)*%
X132000000Y-58500000D03*
X120500000Y-60500000D03*
X106000000Y-60500000D03*
%TD*%
D26*
%TO.N,GND*%
X109920000Y-39880000D02*
X111000000Y-39880000D01*
X91300000Y-35025000D02*
X91325000Y-35000000D01*
X102727541Y-47072459D02*
X109920000Y-39880000D01*
X91300000Y-38100000D02*
X91300000Y-35025000D01*
X77372459Y-36172459D02*
X75400000Y-34200000D01*
X81172459Y-36172459D02*
X77372459Y-36172459D01*
%TO.N,Net-(U2-CV)*%
X88600000Y-48600000D02*
X90680000Y-50680000D01*
X88600000Y-44649000D02*
X88600000Y-48600000D01*
X90680000Y-50680000D02*
X94100000Y-50680000D01*
%TO.N,Net-(U2-R)*%
X120500000Y-60500000D02*
X106000000Y-60500000D01*
X85640000Y-57500000D02*
X85640000Y-51520000D01*
X133600000Y-53700000D02*
X133600000Y-56900000D01*
X133600000Y-56900000D02*
X132000000Y-58500000D01*
X85640000Y-51520000D02*
X86480000Y-50680000D01*
%TO.N,Vcc*%
X100860000Y-64600000D02*
X100860000Y-67840000D01*
X130800000Y-50400000D02*
X134600000Y-46600000D01*
X91644917Y-39100000D02*
X93865000Y-36879917D01*
X58100000Y-51500000D02*
X60820000Y-48780000D01*
X76100000Y-68200000D02*
X88500000Y-68200000D01*
X100860000Y-67840000D02*
X100500000Y-68200000D01*
X88560000Y-68140000D02*
X88500000Y-68200000D01*
X57600000Y-68200000D02*
X76100000Y-68200000D01*
X128300000Y-68200000D02*
X130800000Y-65700000D01*
X134600000Y-46600000D02*
X134600000Y-42200000D01*
X81276000Y-43124000D02*
X85300000Y-39100000D01*
X75960000Y-64600000D02*
X75960000Y-68060000D01*
X100500000Y-68200000D02*
X128300000Y-68200000D01*
X48000000Y-59500000D02*
X48000000Y-56680000D01*
X52100000Y-66000000D02*
X48010963Y-61910963D01*
X60820000Y-47520000D02*
X65216000Y-43124000D01*
X48000000Y-56680000D02*
X49500000Y-55180000D01*
X93865000Y-36879917D02*
X93865000Y-35000000D01*
X72000000Y-43124000D02*
X81276000Y-43124000D01*
X48010963Y-61910963D02*
X48000000Y-59500000D01*
X134600000Y-42200000D02*
X127400000Y-35000000D01*
X60820000Y-48780000D02*
X60820000Y-47520000D01*
X55400000Y-66000000D02*
X52100000Y-66000000D01*
X75960000Y-68060000D02*
X76100000Y-68200000D01*
X88560000Y-64600000D02*
X88560000Y-68140000D01*
X51520000Y-55180000D02*
X55100000Y-51600000D01*
X130800000Y-65700000D02*
X130800000Y-50400000D01*
X85300000Y-39100000D02*
X91644917Y-39100000D01*
X72000000Y-38000000D02*
X72000000Y-43124000D01*
X65216000Y-43124000D02*
X72000000Y-43124000D01*
X127400000Y-35000000D02*
X93865000Y-35000000D01*
X88500000Y-68200000D02*
X100500000Y-68200000D01*
X55400000Y-66000000D02*
X57600000Y-68200000D01*
X55100000Y-51600000D02*
X58100000Y-51600000D01*
X70761084Y-31966693D02*
X70761084Y-36761084D01*
X70761084Y-36761084D02*
X72000000Y-38000000D01*
X58100000Y-51600000D02*
X58100000Y-51500000D01*
X49500000Y-55180000D02*
X51520000Y-55180000D01*
%TO.N,PASO2*%
X103400000Y-52354042D02*
X103400000Y-64600000D01*
X110100000Y-45900000D02*
X109854042Y-45900000D01*
X126240000Y-39880000D02*
X120396000Y-45724000D01*
X109854042Y-45900000D02*
X103400000Y-52354042D01*
X120396000Y-45724000D02*
X110276000Y-45724000D01*
X110276000Y-45724000D02*
X110100000Y-45900000D01*
%TO.N,PASO3*%
X118640000Y-42400000D02*
X109400000Y-42400000D01*
X83600000Y-59500000D02*
X78500000Y-64600000D01*
X121160000Y-39880000D02*
X118640000Y-42400000D01*
X97300000Y-51100000D02*
X88900000Y-59500000D01*
X100700000Y-51100000D02*
X97300000Y-51100000D01*
X109400000Y-42400000D02*
X100700000Y-51100000D01*
X88900000Y-59500000D02*
X83600000Y-59500000D01*
%TO.N,PASO1*%
X101276000Y-57024000D02*
X97900000Y-60400000D01*
X123700000Y-39880000D02*
X119480000Y-44100000D01*
X95300000Y-60400000D02*
X91100000Y-64600000D01*
X119480000Y-44100000D02*
X109700000Y-44100000D01*
X101276000Y-52524000D02*
X101276000Y-57024000D01*
X109700000Y-44100000D02*
X101276000Y-52524000D01*
X97900000Y-60400000D02*
X95300000Y-60400000D01*
%TO.N,Net-(J2-Pin_2)*%
X46500000Y-58000000D02*
X46500000Y-50000000D01*
X44796137Y-47336137D02*
X44000000Y-46540000D01*
X44796137Y-48296137D02*
X44796137Y-47336137D01*
X45460000Y-59040000D02*
X46500000Y-58000000D01*
X46500000Y-50000000D02*
X44796137Y-48296137D01*
X44000000Y-59040000D02*
X45460000Y-59040000D01*
%TO.N,Net-(D1-A)*%
X62000000Y-35500000D02*
X62000000Y-33365609D01*
X62000000Y-33365609D02*
X60601084Y-31966693D01*
X44000000Y-44000000D02*
X45500000Y-42500000D01*
X49000000Y-37000000D02*
X60500000Y-37000000D01*
X45500000Y-42500000D02*
X45500000Y-40500000D01*
X45500000Y-40500000D02*
X49000000Y-37000000D01*
X60500000Y-37000000D02*
X62000000Y-35500000D01*
%TD*%
M02*
