%TF.GenerationSoftware,KiCad,Pcbnew,9.0.2*%
%TF.CreationDate,2025-06-20T13:08:06-04:00*%
%TF.ProjectId,proyecto_2_control,70726f79-6563-4746-9f5f-325f636f6e74,rev?*%
%TF.SameCoordinates,Original*%
%TF.FileFunction,Copper,L2,Bot*%
%TF.FilePolarity,Positive*%
%FSLAX46Y46*%
G04 Gerber Fmt 4.6, Leading zero omitted, Abs format (unit mm)*
G04 Created by KiCad (PCBNEW 9.0.2) date 2025-06-20 13:08:06*
%MOMM*%
%LPD*%
G01*
G04 APERTURE LIST*
G04 Aperture macros list*
%AMRoundRect*
0 Rectangle with rounded corners*
0 $1 Rounding radius*
0 $2 $3 $4 $5 $6 $7 $8 $9 X,Y pos of 4 corners*
0 Add a 4 corners polygon primitive as box body*
4,1,4,$2,$3,$4,$5,$6,$7,$8,$9,$2,$3,0*
0 Add four circle primitives for the rounded corners*
1,1,$1+$1,$2,$3*
1,1,$1+$1,$4,$5*
1,1,$1+$1,$6,$7*
1,1,$1+$1,$8,$9*
0 Add four rect primitives between the rounded corners*
20,1,$1+$1,$2,$3,$4,$5,0*
20,1,$1+$1,$4,$5,$6,$7,0*
20,1,$1+$1,$6,$7,$8,$9,0*
20,1,$1+$1,$8,$9,$2,$3,0*%
G04 Aperture macros list end*
%TA.AperFunction,ComponentPad*%
%ADD10C,1.600000*%
%TD*%
%TA.AperFunction,ComponentPad*%
%ADD11O,1.600000X1.600000*%
%TD*%
%TA.AperFunction,ComponentPad*%
%ADD12R,3.000000X3.000000*%
%TD*%
%TA.AperFunction,ComponentPad*%
%ADD13C,3.000000*%
%TD*%
%TA.AperFunction,ComponentPad*%
%ADD14R,1.600000X1.600000*%
%TD*%
%TA.AperFunction,ComponentPad*%
%ADD15R,1.700000X1.700000*%
%TD*%
%TA.AperFunction,ComponentPad*%
%ADD16C,1.700000*%
%TD*%
%TA.AperFunction,ComponentPad*%
%ADD17RoundRect,0.250000X-0.550000X0.950000X-0.550000X-0.950000X0.550000X-0.950000X0.550000X0.950000X0*%
%TD*%
%TA.AperFunction,ComponentPad*%
%ADD18O,1.600000X2.400000*%
%TD*%
%TA.AperFunction,ComponentPad*%
%ADD19R,1.500000X1.500000*%
%TD*%
%TA.AperFunction,ComponentPad*%
%ADD20RoundRect,0.250000X-0.950000X-0.550000X0.950000X-0.550000X0.950000X0.550000X-0.950000X0.550000X0*%
%TD*%
%TA.AperFunction,ComponentPad*%
%ADD21O,2.400000X1.600000*%
%TD*%
%TA.AperFunction,ComponentPad*%
%ADD22RoundRect,0.249999X0.850001X0.850001X-0.850001X0.850001X-0.850001X-0.850001X0.850001X-0.850001X0*%
%TD*%
%TA.AperFunction,ComponentPad*%
%ADD23C,2.200000*%
%TD*%
%TA.AperFunction,ComponentPad*%
%ADD24RoundRect,0.250000X0.550000X-0.950000X0.550000X0.950000X-0.550000X0.950000X-0.550000X-0.950000X0*%
%TD*%
%TA.AperFunction,ViaPad*%
%ADD25C,0.600000*%
%TD*%
%TA.AperFunction,Conductor*%
%ADD26C,0.750000*%
%TD*%
G04 APERTURE END LIST*
D10*
%TO.P,R7,1*%
%TO.N,Net-(U1C-+)*%
X71240000Y-55400000D03*
D11*
%TO.P,R7,2*%
%TO.N,GND*%
X81400000Y-55400000D03*
%TD*%
D12*
%TO.P,J2,1,Pin_1*%
%TO.N,GND*%
X44000000Y-53960000D03*
D13*
%TO.P,J2,2,Pin_2*%
%TO.N,Net-(J2-Pin_2)*%
X44000000Y-59040000D03*
%TD*%
D14*
%TO.P,C4,1*%
%TO.N,GND*%
X101100000Y-41300000D03*
D10*
%TO.P,C4,2*%
X103600000Y-41300000D03*
%TD*%
D15*
%TO.P,J5,1,Pin_1*%
%TO.N,Vcc*%
X88560000Y-64600000D03*
D16*
%TO.P,J5,2,Pin_2*%
%TO.N,PASO1*%
X91100000Y-64600000D03*
%TO.P,J5,3,Pin_3*%
%TO.N,GND*%
X93640000Y-64600000D03*
%TD*%
D17*
%TO.P,U3,1,Q5*%
%TO.N,unconnected-(U3-Q5-Pad1)*%
X128780000Y-39880000D03*
D18*
%TO.P,U3,2,Q1*%
%TO.N,PASO2*%
X126240000Y-39880000D03*
%TO.P,U3,3,Q0*%
%TO.N,PASO1*%
X123700000Y-39880000D03*
%TO.P,U3,4,Q2*%
%TO.N,PASO3*%
X121160000Y-39880000D03*
%TO.P,U3,5,Q6*%
%TO.N,unconnected-(U3-Q6-Pad5)*%
X118620000Y-39880000D03*
%TO.P,U3,6,Q7*%
%TO.N,unconnected-(U3-Q7-Pad6)*%
X116080000Y-39880000D03*
%TO.P,U3,7,Q3*%
%TO.N,Net-(U3-Q3)*%
X113540000Y-39880000D03*
%TO.P,U3,8,VSS*%
%TO.N,GND*%
X111000000Y-39880000D03*
%TO.P,U3,9,Q8*%
%TO.N,unconnected-(U3-Q8-Pad9)*%
X111000000Y-47500000D03*
%TO.P,U3,10,Q4*%
%TO.N,unconnected-(U3-Q4-Pad10)*%
X113540000Y-47500000D03*
%TO.P,U3,11,Q9*%
%TO.N,unconnected-(U3-Q9-Pad11)*%
X116080000Y-47500000D03*
%TO.P,U3,12,Cout*%
%TO.N,unconnected-(U3-Cout-Pad12)*%
X118620000Y-47500000D03*
%TO.P,U3,13,CKEN*%
%TO.N,Net-(U3-CKEN)*%
X121160000Y-47500000D03*
%TO.P,U3,14,CLK*%
%TO.N,Net-(U2-Q)*%
X123700000Y-47500000D03*
%TO.P,U3,15,Reset*%
%TO.N,Net-(U3-Q3)*%
X126240000Y-47500000D03*
%TO.P,U3,16,VDD*%
%TO.N,Net-(U2-R)*%
X128780000Y-47500000D03*
%TD*%
D12*
%TO.P,RV2,1,1*%
%TO.N,Vcc*%
X55400000Y-66000000D03*
D13*
%TO.P,RV2,2,2*%
%TO.N,Net-(U1A--)*%
X60400000Y-66000000D03*
%TO.P,RV2,3,3*%
%TO.N,GND*%
X65400000Y-66000000D03*
%TD*%
D19*
%TO.P,SW1,1,A*%
%TO.N,Net-(D1-A)*%
X44000000Y-44000000D03*
D10*
%TO.P,SW1,2,B*%
%TO.N,Net-(J2-Pin_2)*%
X44000000Y-46540000D03*
%TO.P,SW1,3,C*%
%TO.N,unconnected-(SW1-C-Pad3)*%
X44000000Y-41460000D03*
%TD*%
D20*
%TO.P,U2,1,GND*%
%TO.N,GND*%
X86480000Y-43060000D03*
D21*
%TO.P,U2,2,TR*%
%TO.N,Net-(U2-THR)*%
X86480000Y-45600000D03*
%TO.P,U2,3,Q*%
%TO.N,Net-(U2-Q)*%
X86480000Y-48140000D03*
%TO.P,U2,4,R*%
%TO.N,Net-(U2-R)*%
X86480000Y-50680000D03*
%TO.P,U2,5,CV*%
%TO.N,Net-(U2-CV)*%
X94100000Y-50680000D03*
%TO.P,U2,6,THR*%
%TO.N,Net-(U2-THR)*%
X94100000Y-48140000D03*
%TO.P,U2,7,DIS*%
%TO.N,Net-(U2-DIS)*%
X94100000Y-45600000D03*
%TO.P,U2,8,VCC*%
%TO.N,Net-(U2-R)*%
X94100000Y-43060000D03*
%TD*%
D10*
%TO.P,R1,1*%
%TO.N,Vcc*%
X49500000Y-55180000D03*
D11*
%TO.P,R1,2*%
%TO.N,Net-(U1A-+)*%
X49500000Y-45020000D03*
%TD*%
D10*
%TO.P,C2,1*%
%TO.N,Net-(U2-CV)*%
X99900000Y-52800000D03*
%TO.P,C2,2*%
%TO.N,GND*%
X104900000Y-52800000D03*
%TD*%
D22*
%TO.P,D1,1,K*%
%TO.N,Vcc*%
X70761084Y-31966693D03*
D23*
%TO.P,D1,2,A*%
%TO.N,Net-(D1-A)*%
X60601084Y-31966693D03*
%TD*%
D10*
%TO.P,R2,1*%
%TO.N,Net-(U1A-+)*%
X53360000Y-34100000D03*
%TO.P,R2,2*%
%TO.N,GND*%
X55900000Y-34100000D03*
%TD*%
D15*
%TO.P,J7,1,Pin_1*%
%TO.N,Vcc*%
X75960000Y-64600000D03*
D16*
%TO.P,J7,2,Pin_2*%
%TO.N,PASO3*%
X78500000Y-64600000D03*
%TO.P,J7,3,Pin_3*%
%TO.N,GND*%
X81040000Y-64600000D03*
%TD*%
D10*
%TO.P,R4,1*%
%TO.N,Net-(U1B-+)*%
X55120000Y-54500000D03*
D11*
%TO.P,R4,2*%
%TO.N,GND*%
X65280000Y-54500000D03*
%TD*%
D14*
%TO.P,C3,1*%
%TO.N,Net-(U2-R)*%
X133600000Y-53700000D03*
D10*
%TO.P,C3,2*%
%TO.N,GND*%
X136100000Y-53700000D03*
%TD*%
D12*
%TO.P,RV1,1,1*%
%TO.N,unconnected-(RV1-Pad1)*%
X115900000Y-66000000D03*
D13*
%TO.P,RV1,2,2*%
%TO.N,Net-(U2-DIS)*%
X120900000Y-66000000D03*
%TO.P,RV1,3,3*%
%TO.N,Net-(U2-THR)*%
X125900000Y-66000000D03*
%TD*%
D10*
%TO.P,R8,1*%
%TO.N,Net-(U1D-+)*%
X72720000Y-35300000D03*
D11*
%TO.P,R8,2*%
%TO.N,GND*%
X82880000Y-35300000D03*
%TD*%
D24*
%TO.P,U1,1*%
%TO.N,Net-(U2-R)*%
X53200000Y-47520000D03*
D18*
%TO.P,U1,2,-*%
%TO.N,Net-(U1A--)*%
X55740000Y-47520000D03*
%TO.P,U1,3,+*%
%TO.N,Net-(U1A-+)*%
X58280000Y-47520000D03*
%TO.P,U1,4,V+*%
%TO.N,Vcc*%
X60820000Y-47520000D03*
%TO.P,U1,5,+*%
%TO.N,Net-(U1B-+)*%
X63360000Y-47520000D03*
%TO.P,U1,6,-*%
%TO.N,Net-(U1B--)*%
X65900000Y-47520000D03*
%TO.P,U1,7*%
X68440000Y-47520000D03*
%TO.P,U1,8*%
%TO.N,Net-(U1C--)*%
X68440000Y-39900000D03*
%TO.P,U1,9,-*%
X65900000Y-39900000D03*
%TO.P,U1,10,+*%
%TO.N,Net-(U1C-+)*%
X63360000Y-39900000D03*
%TO.P,U1,11,V-*%
%TO.N,GND*%
X60820000Y-39900000D03*
%TO.P,U1,12,+*%
%TO.N,Net-(U1D-+)*%
X58280000Y-39900000D03*
%TO.P,U1,13,-*%
%TO.N,Net-(U1D--)*%
X55740000Y-39900000D03*
%TO.P,U1,14*%
X53200000Y-39900000D03*
%TD*%
D15*
%TO.P,J1,1,Pin_1*%
%TO.N,GND*%
X91325000Y-35000000D03*
D16*
%TO.P,J1,2,Pin_2*%
%TO.N,Vcc*%
X93865000Y-35000000D03*
%TD*%
D15*
%TO.P,J6,1,Pin_1*%
%TO.N,Vcc*%
X100860000Y-64600000D03*
D16*
%TO.P,J6,2,Pin_2*%
%TO.N,PASO2*%
X103400000Y-64600000D03*
%TO.P,J6,3,Pin_3*%
%TO.N,GND*%
X105940000Y-64600000D03*
%TD*%
D14*
%TO.P,C1,1*%
%TO.N,Net-(U2-THR)*%
X76500000Y-44500000D03*
D10*
%TO.P,C1,2*%
%TO.N,GND*%
X79000000Y-44500000D03*
%TD*%
%TO.P,R3,1*%
%TO.N,Net-(U2-R)*%
X85640000Y-57500000D03*
D11*
%TO.P,R3,2*%
%TO.N,Net-(U2-DIS)*%
X95800000Y-57500000D03*
%TD*%
D25*
%TO.N,GND*%
X102727541Y-47072459D03*
X81172459Y-36172459D03*
X91300000Y-38100000D03*
X75400000Y-34200000D03*
%TO.N,Net-(U2-CV)*%
X88600000Y-44649000D03*
%TO.N,Net-(U2-R)*%
X132000000Y-58500000D03*
X120500000Y-60500000D03*
X106000000Y-60500000D03*
%TD*%
D26*
%TO.N,Net-(U2-THR)*%
X110300000Y-56300000D02*
X107900000Y-53900000D01*
X122500000Y-62600000D02*
X119800000Y-62600000D01*
X107900000Y-50900000D02*
X97300000Y-40300000D01*
X113500000Y-56300000D02*
X110300000Y-56300000D01*
X86204000Y-45876000D02*
X86480000Y-45600000D01*
X107900000Y-53900000D02*
X107900000Y-50900000D01*
X97300000Y-40300000D02*
X97300000Y-38300000D01*
X76500000Y-44500000D02*
X77876000Y-45876000D01*
X96100000Y-37100000D02*
X83900000Y-37100000D01*
X125900000Y-66000000D02*
X122500000Y-62600000D01*
X91440000Y-48140000D02*
X88900000Y-45600000D01*
X94100000Y-48140000D02*
X91440000Y-48140000D01*
X119800000Y-62600000D02*
X113500000Y-56300000D01*
X77876000Y-45876000D02*
X86204000Y-45876000D01*
X97300000Y-38300000D02*
X96100000Y-37100000D01*
X88900000Y-45600000D02*
X86480000Y-45600000D01*
X83900000Y-37100000D02*
X76500000Y-44500000D01*
%TO.N,GND*%
X56076000Y-33924000D02*
X55900000Y-34100000D01*
X65280000Y-54500000D02*
X65280000Y-65880000D01*
X85900000Y-55400000D02*
X81400000Y-55400000D01*
X70006082Y-44851000D02*
X65006082Y-44851000D01*
X72100000Y-59200000D02*
X80500000Y-59200000D01*
X106000000Y-68200000D02*
X105940000Y-68140000D01*
X91325000Y-35000000D02*
X83180000Y-35000000D01*
X97974000Y-33574000D02*
X92751000Y-33574000D01*
X103100000Y-38700000D02*
X101900000Y-38700000D01*
X83180000Y-35000000D02*
X82880000Y-35300000D01*
X70289000Y-45133918D02*
X70006082Y-44851000D01*
X82880000Y-35300000D02*
X82044918Y-35300000D01*
X87600000Y-57100000D02*
X85900000Y-55400000D01*
X104900000Y-52800000D02*
X105000000Y-52700000D01*
X87600000Y-59900000D02*
X87600000Y-57100000D01*
X106800000Y-38700000D02*
X104700000Y-38700000D01*
X79000000Y-44500000D02*
X85400000Y-38100000D01*
X104900000Y-52800000D02*
X104900000Y-49500000D01*
X83200000Y-68200000D02*
X81100000Y-66100000D01*
X128500000Y-63000000D02*
X129400000Y-63000000D01*
X127900000Y-68200000D02*
X130100000Y-66000000D01*
X101100000Y-39500000D02*
X101100000Y-41300000D01*
X104700000Y-38700000D02*
X103100000Y-38700000D01*
X65400000Y-66000000D02*
X69500000Y-66000000D01*
X107980000Y-39880000D02*
X106800000Y-38700000D01*
X65280000Y-65880000D02*
X65400000Y-66000000D01*
X103600000Y-41300000D02*
X103600000Y-39800000D01*
X85040000Y-44500000D02*
X86480000Y-43060000D01*
X105000000Y-52700000D02*
X105300000Y-52700000D01*
X75124000Y-33924000D02*
X56076000Y-33924000D01*
X93400000Y-68200000D02*
X102280000Y-68200000D01*
X80500000Y-59200000D02*
X81400000Y-58300000D01*
X93640000Y-64600000D02*
X88940000Y-59900000D01*
X93640000Y-67960000D02*
X93640000Y-64600000D01*
X93400000Y-68200000D02*
X83200000Y-68200000D01*
X51900000Y-37000000D02*
X50200000Y-38700000D01*
X51600000Y-43300000D02*
X51600000Y-43400000D01*
X102600000Y-47200000D02*
X102727541Y-47072459D01*
X101900000Y-38700000D02*
X101100000Y-39500000D01*
X82044918Y-35300000D02*
X81172459Y-36172459D01*
X105940000Y-68140000D02*
X105940000Y-64600000D01*
X103600000Y-39800000D02*
X104700000Y-38700000D01*
X60820000Y-40664918D02*
X60820000Y-39900000D01*
X53000000Y-37000000D02*
X51900000Y-37000000D01*
X81100000Y-64660000D02*
X81040000Y-64600000D01*
X85400000Y-38100000D02*
X91300000Y-38100000D01*
X111000000Y-39880000D02*
X107980000Y-39880000D01*
X103100000Y-38700000D02*
X97974000Y-33574000D01*
X88940000Y-59900000D02*
X87600000Y-59900000D01*
X106000000Y-68200000D02*
X127900000Y-68200000D01*
X70289000Y-49491000D02*
X70289000Y-45133918D01*
X93640000Y-67960000D02*
X93400000Y-68200000D01*
X81400000Y-58300000D02*
X81400000Y-55400000D01*
X130100000Y-66000000D02*
X130100000Y-63700000D01*
X50200000Y-38700000D02*
X50200000Y-41900000D01*
X129400000Y-63000000D02*
X130100000Y-63700000D01*
X75400000Y-34200000D02*
X75124000Y-33924000D01*
X65280000Y-54500000D02*
X70289000Y-49491000D01*
X70600000Y-64900000D02*
X70600000Y-60700000D01*
X69500000Y-66000000D02*
X70600000Y-64900000D01*
X70600000Y-60700000D02*
X72100000Y-59200000D01*
X81100000Y-66100000D02*
X81100000Y-64660000D01*
X104900000Y-49500000D02*
X102600000Y-47200000D01*
X79000000Y-44500000D02*
X85040000Y-44500000D01*
X50200000Y-41900000D02*
X51600000Y-43300000D01*
X51600000Y-43400000D02*
X57320000Y-43400000D01*
X65006082Y-44851000D02*
X60820000Y-40664918D01*
X105300000Y-52700000D02*
X105400000Y-52800000D01*
X105880000Y-68080000D02*
X106000000Y-68200000D01*
X57320000Y-43400000D02*
X60820000Y-39900000D01*
X55900000Y-34100000D02*
X53000000Y-37000000D01*
X92751000Y-33574000D02*
X91325000Y-35000000D01*
X102280000Y-68200000D02*
X106000000Y-68200000D01*
%TO.N,Net-(U2-CV)*%
X88600000Y-41900000D02*
X90600000Y-39900000D01*
X98600000Y-43500000D02*
X98600000Y-51500000D01*
X88600000Y-44649000D02*
X88600000Y-41900000D01*
X90600000Y-39900000D02*
X95000000Y-39900000D01*
X98600000Y-51500000D02*
X99900000Y-52800000D01*
X95000000Y-39900000D02*
X98600000Y-43500000D01*
%TO.N,Net-(U2-R)*%
X52017766Y-51690342D02*
X51981459Y-62582554D01*
X94500000Y-60500000D02*
X90000000Y-56000000D01*
X51981459Y-62582554D02*
X53000000Y-63500000D01*
X96500000Y-44400000D02*
X95160000Y-43060000D01*
X86480000Y-52880000D02*
X86900000Y-53300000D01*
X128780000Y-48880000D02*
X133600000Y-53700000D01*
X96500000Y-51900000D02*
X96500000Y-44400000D01*
X69800000Y-68200000D02*
X72400000Y-65600000D01*
X53200000Y-47520000D02*
X53200000Y-50300000D01*
X90000000Y-53300000D02*
X95100000Y-53300000D01*
X95160000Y-43060000D02*
X94100000Y-43060000D01*
X90000000Y-56000000D02*
X90000000Y-53300000D01*
X73200000Y-60400000D02*
X82740000Y-60400000D01*
X58100000Y-66635908D02*
X59664092Y-68200000D01*
X128780000Y-47500000D02*
X128780000Y-48880000D01*
X95100000Y-53300000D02*
X96500000Y-51900000D01*
X86480000Y-50680000D02*
X86480000Y-52880000D01*
X53000000Y-63500000D02*
X58100000Y-63500000D01*
X130000000Y-60500000D02*
X120500000Y-60500000D01*
X106000000Y-60500000D02*
X94500000Y-60500000D01*
X82740000Y-60400000D02*
X85640000Y-57500000D01*
X53200000Y-50300000D02*
X52017766Y-51690342D01*
X72400000Y-65600000D02*
X72400000Y-61200000D01*
X59664092Y-68200000D02*
X69800000Y-68200000D01*
X72400000Y-61200000D02*
X73200000Y-60400000D01*
X86900000Y-53300000D02*
X90000000Y-53300000D01*
X58100000Y-63500000D02*
X58100000Y-66635908D01*
X132000000Y-58500000D02*
X130000000Y-60500000D01*
%TO.N,Net-(U1A-+)*%
X49500000Y-45020000D02*
X48000000Y-43520000D01*
X48900000Y-37300000D02*
X52100000Y-34100000D01*
X58280000Y-47480000D02*
X55800000Y-45000000D01*
X48000000Y-43520000D02*
X48000000Y-40400000D01*
X48900000Y-39500000D02*
X48900000Y-37300000D01*
X58280000Y-47520000D02*
X58280000Y-47480000D01*
X55780000Y-45020000D02*
X49500000Y-45020000D01*
X52100000Y-34100000D02*
X53360000Y-34100000D01*
X48000000Y-40400000D02*
X48900000Y-39500000D01*
X55800000Y-45000000D02*
X55780000Y-45020000D01*
%TO.N,Net-(U2-DIS)*%
X91600000Y-45600000D02*
X94100000Y-45600000D01*
X112400000Y-57500000D02*
X120900000Y-66000000D01*
X95800000Y-57500000D02*
X95800000Y-55400000D01*
X89600000Y-42400000D02*
X89600000Y-43600000D01*
X95800000Y-57500000D02*
X112400000Y-57500000D01*
X94500000Y-41000000D02*
X91000000Y-41000000D01*
X91000000Y-41000000D02*
X89600000Y-42400000D01*
X95800000Y-55400000D02*
X97500000Y-53700000D01*
X97500000Y-44000000D02*
X94500000Y-41000000D01*
X89600000Y-43600000D02*
X91600000Y-45600000D01*
X97500000Y-53700000D02*
X97500000Y-44000000D01*
%TO.N,Net-(U1B-+)*%
X60600000Y-54500000D02*
X55120000Y-54500000D01*
X63360000Y-51740000D02*
X60600000Y-54500000D01*
X63360000Y-47520000D02*
X63360000Y-51740000D01*
%TO.N,Net-(U3-Q3)*%
X113420000Y-39880000D02*
X113540000Y-39880000D01*
X123200000Y-58000000D02*
X116800000Y-58000000D01*
X116800000Y-58000000D02*
X113800000Y-55000000D01*
X113800000Y-55000000D02*
X110700000Y-55000000D01*
X109100000Y-50600000D02*
X105900000Y-47400000D01*
X126240000Y-47500000D02*
X126240000Y-54960000D01*
X105900000Y-47400000D02*
X113420000Y-39880000D01*
X109100000Y-53400000D02*
X109100000Y-50600000D01*
X110700000Y-55000000D02*
X109100000Y-53400000D01*
X126240000Y-54960000D02*
X123200000Y-58000000D01*
%TO.N,Net-(U1C-+)*%
X71240000Y-55400000D02*
X71240000Y-44740000D01*
X63360000Y-41860000D02*
X63360000Y-39900000D01*
X65400000Y-43900000D02*
X63360000Y-41860000D01*
X71240000Y-44740000D02*
X70400000Y-43900000D01*
X70400000Y-43900000D02*
X65400000Y-43900000D01*
%TO.N,Net-(U1D-+)*%
X58280000Y-36820000D02*
X59800000Y-35300000D01*
X58280000Y-39900000D02*
X58280000Y-36820000D01*
X59800000Y-35300000D02*
X72720000Y-35300000D01*
%TO.N,Net-(U1A--)*%
X60400000Y-61900000D02*
X60400000Y-66000000D01*
X60300000Y-61800000D02*
X60400000Y-61900000D01*
X55740000Y-50660000D02*
X53200000Y-53200000D01*
X54700000Y-61800000D02*
X60300000Y-61800000D01*
X53200000Y-53200000D02*
X53215909Y-60295190D01*
X53215909Y-60295190D02*
X54700000Y-61800000D01*
X55740000Y-47520000D02*
X55740000Y-50660000D01*
%TO.N,Net-(U1D--)*%
X55740000Y-39900000D02*
X53200000Y-39900000D01*
%TO.N,Net-(U1B--)*%
X65900000Y-47520000D02*
X68440000Y-47520000D01*
%TO.N,Net-(U1C--)*%
X65900000Y-39900000D02*
X68440000Y-39900000D01*
%TO.N,Net-(U2-Q)*%
X83900000Y-32100000D02*
X126900000Y-32100000D01*
X126800000Y-44400000D02*
X123700000Y-47500000D01*
X126900000Y-32100000D02*
X130900000Y-36100000D01*
X86480000Y-48140000D02*
X76740000Y-48140000D01*
X128900000Y-44400000D02*
X126800000Y-44400000D01*
X130900000Y-42400000D02*
X128900000Y-44400000D01*
X74100000Y-41900000D02*
X83900000Y-32100000D01*
X74100000Y-45500000D02*
X74100000Y-41900000D01*
X76740000Y-48140000D02*
X74100000Y-45500000D01*
X130900000Y-36100000D02*
X130900000Y-42400000D01*
%TD*%
%TA.AperFunction,Conductor*%
%TO.N,GND*%
G36*
X99680703Y-43919293D02*
G01*
X99687181Y-43925325D01*
X106988181Y-51226325D01*
X107021666Y-51287648D01*
X107024500Y-51314006D01*
X107024500Y-53986233D01*
X107058143Y-54155366D01*
X107058146Y-54155378D01*
X107124138Y-54314698D01*
X107124145Y-54314711D01*
X107219954Y-54458098D01*
X107219957Y-54458102D01*
X109174675Y-56412819D01*
X109208160Y-56474142D01*
X109203176Y-56543834D01*
X109161304Y-56599767D01*
X109095840Y-56624184D01*
X109086994Y-56624500D01*
X96815047Y-56624500D01*
X96785606Y-56615855D01*
X96755620Y-56609332D01*
X96750604Y-56605577D01*
X96748008Y-56604815D01*
X96727366Y-56588181D01*
X96711819Y-56572634D01*
X96678334Y-56511311D01*
X96675500Y-56484953D01*
X96675500Y-55814006D01*
X96695185Y-55746967D01*
X96711819Y-55726325D01*
X98180042Y-54258102D01*
X98180045Y-54258099D01*
X98275858Y-54114705D01*
X98341855Y-53955374D01*
X98375500Y-53786229D01*
X98375500Y-53613771D01*
X98375500Y-53063637D01*
X98395185Y-52996598D01*
X98447989Y-52950843D01*
X98517147Y-52940899D01*
X98580703Y-52969924D01*
X98618477Y-53028702D01*
X98621973Y-53044239D01*
X98631522Y-53104534D01*
X98694781Y-53299223D01*
X98743879Y-53395582D01*
X98787585Y-53481359D01*
X98787715Y-53481613D01*
X98908028Y-53647213D01*
X99052786Y-53791971D01*
X99207749Y-53904556D01*
X99218390Y-53912287D01*
X99302953Y-53955374D01*
X99400776Y-54005218D01*
X99400778Y-54005218D01*
X99400781Y-54005220D01*
X99462461Y-54025261D01*
X99595465Y-54068477D01*
X99650786Y-54077239D01*
X99797648Y-54100500D01*
X99797649Y-54100500D01*
X100002351Y-54100500D01*
X100002352Y-54100500D01*
X100204534Y-54068477D01*
X100399219Y-54005220D01*
X100581610Y-53912287D01*
X100674590Y-53844732D01*
X100747213Y-53791971D01*
X100747215Y-53791968D01*
X100747219Y-53791966D01*
X100891966Y-53647219D01*
X100891968Y-53647215D01*
X100891971Y-53647213D01*
X100954004Y-53561830D01*
X101012287Y-53481610D01*
X101105220Y-53299219D01*
X101168477Y-53104534D01*
X101200500Y-52902352D01*
X101200500Y-52697682D01*
X103600000Y-52697682D01*
X103600000Y-52902317D01*
X103632009Y-53104417D01*
X103695244Y-53299031D01*
X103788141Y-53481350D01*
X103788147Y-53481359D01*
X103820523Y-53525921D01*
X103820524Y-53525922D01*
X104500000Y-52846446D01*
X104500000Y-52852661D01*
X104527259Y-52954394D01*
X104579920Y-53045606D01*
X104654394Y-53120080D01*
X104745606Y-53172741D01*
X104847339Y-53200000D01*
X104853553Y-53200000D01*
X104174076Y-53879474D01*
X104218650Y-53911859D01*
X104400968Y-54004755D01*
X104595582Y-54067990D01*
X104797683Y-54100000D01*
X105002317Y-54100000D01*
X105204417Y-54067990D01*
X105399031Y-54004755D01*
X105581349Y-53911859D01*
X105625921Y-53879474D01*
X104946447Y-53200000D01*
X104952661Y-53200000D01*
X105054394Y-53172741D01*
X105145606Y-53120080D01*
X105220080Y-53045606D01*
X105272741Y-52954394D01*
X105300000Y-52852661D01*
X105300000Y-52846447D01*
X105979474Y-53525921D01*
X106011859Y-53481349D01*
X106104755Y-53299031D01*
X106167990Y-53104417D01*
X106200000Y-52902317D01*
X106200000Y-52697682D01*
X106167990Y-52495582D01*
X106104755Y-52300968D01*
X106011859Y-52118650D01*
X105979474Y-52074077D01*
X105979474Y-52074076D01*
X105300000Y-52753551D01*
X105300000Y-52747339D01*
X105272741Y-52645606D01*
X105220080Y-52554394D01*
X105145606Y-52479920D01*
X105054394Y-52427259D01*
X104952661Y-52400000D01*
X104946446Y-52400000D01*
X105625922Y-51720524D01*
X105625921Y-51720523D01*
X105581359Y-51688147D01*
X105581350Y-51688141D01*
X105399031Y-51595244D01*
X105204417Y-51532009D01*
X105002317Y-51500000D01*
X104797683Y-51500000D01*
X104595582Y-51532009D01*
X104400968Y-51595244D01*
X104218644Y-51688143D01*
X104174077Y-51720523D01*
X104174077Y-51720524D01*
X104853554Y-52400000D01*
X104847339Y-52400000D01*
X104745606Y-52427259D01*
X104654394Y-52479920D01*
X104579920Y-52554394D01*
X104527259Y-52645606D01*
X104500000Y-52747339D01*
X104500000Y-52753553D01*
X103820524Y-52074077D01*
X103820523Y-52074077D01*
X103788143Y-52118644D01*
X103695244Y-52300968D01*
X103632009Y-52495582D01*
X103600000Y-52697682D01*
X101200500Y-52697682D01*
X101200500Y-52697648D01*
X101188284Y-52620523D01*
X101168477Y-52495465D01*
X101122066Y-52352627D01*
X101105220Y-52300781D01*
X101105218Y-52300778D01*
X101105218Y-52300776D01*
X101071503Y-52234607D01*
X101012287Y-52118390D01*
X101000967Y-52102809D01*
X100891971Y-51952786D01*
X100747213Y-51808028D01*
X100581613Y-51687715D01*
X100581612Y-51687714D01*
X100581610Y-51687713D01*
X100484471Y-51638218D01*
X100399223Y-51594781D01*
X100204534Y-51531522D01*
X100028743Y-51503680D01*
X100002352Y-51499500D01*
X100002351Y-51499500D01*
X99889006Y-51499500D01*
X99821967Y-51479815D01*
X99801325Y-51463181D01*
X99511819Y-51173675D01*
X99478334Y-51112352D01*
X99475500Y-51085994D01*
X99475500Y-44013006D01*
X99495185Y-43945967D01*
X99547989Y-43900212D01*
X99617147Y-43890268D01*
X99680703Y-43919293D01*
G37*
%TD.AperFunction*%
%TA.AperFunction,Conductor*%
G36*
X126553033Y-32995185D02*
G01*
X126573675Y-33011819D01*
X129988181Y-36426325D01*
X130021666Y-36487648D01*
X130024500Y-36514006D01*
X130024500Y-38263770D01*
X130004815Y-38330809D01*
X129952011Y-38376564D01*
X129882853Y-38386508D01*
X129819297Y-38357483D01*
X129812819Y-38351451D01*
X129798657Y-38337289D01*
X129798656Y-38337288D01*
X129649334Y-38245186D01*
X129482797Y-38190001D01*
X129482795Y-38190000D01*
X129380010Y-38179500D01*
X128179998Y-38179500D01*
X128179981Y-38179501D01*
X128077203Y-38190000D01*
X128077200Y-38190001D01*
X127910668Y-38245185D01*
X127910663Y-38245187D01*
X127761342Y-38337289D01*
X127637289Y-38461342D01*
X127545187Y-38610663D01*
X127545186Y-38610666D01*
X127518045Y-38692571D01*
X127478271Y-38750016D01*
X127413755Y-38776838D01*
X127344979Y-38764522D01*
X127300021Y-38726452D01*
X127231966Y-38632781D01*
X127087219Y-38488034D01*
X127087213Y-38488028D01*
X126921613Y-38367715D01*
X126921612Y-38367714D01*
X126921610Y-38367713D01*
X126849182Y-38330809D01*
X126739223Y-38274781D01*
X126544534Y-38211522D01*
X126369995Y-38183878D01*
X126342352Y-38179500D01*
X126137648Y-38179500D01*
X126113329Y-38183351D01*
X125935465Y-38211522D01*
X125740776Y-38274781D01*
X125558386Y-38367715D01*
X125392786Y-38488028D01*
X125248028Y-38632786D01*
X125127715Y-38798386D01*
X125080485Y-38891080D01*
X125032510Y-38941876D01*
X124964689Y-38958671D01*
X124898554Y-38936134D01*
X124859515Y-38891080D01*
X124853865Y-38879991D01*
X124812287Y-38798390D01*
X124760021Y-38726451D01*
X124691971Y-38632786D01*
X124547213Y-38488028D01*
X124381613Y-38367715D01*
X124381612Y-38367714D01*
X124381610Y-38367713D01*
X124309182Y-38330809D01*
X124199223Y-38274781D01*
X124004534Y-38211522D01*
X123829995Y-38183878D01*
X123802352Y-38179500D01*
X123597648Y-38179500D01*
X123573329Y-38183351D01*
X123395465Y-38211522D01*
X123200776Y-38274781D01*
X123018386Y-38367715D01*
X122852786Y-38488028D01*
X122708028Y-38632786D01*
X122587715Y-38798386D01*
X122540485Y-38891080D01*
X122492510Y-38941876D01*
X122424689Y-38958671D01*
X122358554Y-38936134D01*
X122319515Y-38891080D01*
X122313865Y-38879991D01*
X122272287Y-38798390D01*
X122220021Y-38726451D01*
X122151971Y-38632786D01*
X122007213Y-38488028D01*
X121841613Y-38367715D01*
X121841612Y-38367714D01*
X121841610Y-38367713D01*
X121769182Y-38330809D01*
X121659223Y-38274781D01*
X121464534Y-38211522D01*
X121289995Y-38183878D01*
X121262352Y-38179500D01*
X121057648Y-38179500D01*
X121033329Y-38183351D01*
X120855465Y-38211522D01*
X120660776Y-38274781D01*
X120478386Y-38367715D01*
X120312786Y-38488028D01*
X120168028Y-38632786D01*
X120047715Y-38798386D01*
X120000485Y-38891080D01*
X119952510Y-38941876D01*
X119884689Y-38958671D01*
X119818554Y-38936134D01*
X119779515Y-38891080D01*
X119773865Y-38879991D01*
X119732287Y-38798390D01*
X119680021Y-38726451D01*
X119611971Y-38632786D01*
X119467213Y-38488028D01*
X119301613Y-38367715D01*
X119301612Y-38367714D01*
X119301610Y-38367713D01*
X119229182Y-38330809D01*
X119119223Y-38274781D01*
X118924534Y-38211522D01*
X118749995Y-38183878D01*
X118722352Y-38179500D01*
X118517648Y-38179500D01*
X118493329Y-38183351D01*
X118315465Y-38211522D01*
X118120776Y-38274781D01*
X117938386Y-38367715D01*
X117772786Y-38488028D01*
X117628028Y-38632786D01*
X117507715Y-38798386D01*
X117460485Y-38891080D01*
X117412510Y-38941876D01*
X117344689Y-38958671D01*
X117278554Y-38936134D01*
X117239515Y-38891080D01*
X117233865Y-38879991D01*
X117192287Y-38798390D01*
X117140021Y-38726451D01*
X117071971Y-38632786D01*
X116927213Y-38488028D01*
X116761613Y-38367715D01*
X116761612Y-38367714D01*
X116761610Y-38367713D01*
X116689182Y-38330809D01*
X116579223Y-38274781D01*
X116384534Y-38211522D01*
X116209995Y-38183878D01*
X116182352Y-38179500D01*
X115977648Y-38179500D01*
X115953329Y-38183351D01*
X115775465Y-38211522D01*
X115580776Y-38274781D01*
X115398386Y-38367715D01*
X115232786Y-38488028D01*
X115088028Y-38632786D01*
X114967715Y-38798386D01*
X114920485Y-38891080D01*
X114872510Y-38941876D01*
X114804689Y-38958671D01*
X114738554Y-38936134D01*
X114699515Y-38891080D01*
X114693865Y-38879991D01*
X114652287Y-38798390D01*
X114600021Y-38726451D01*
X114531971Y-38632786D01*
X114387213Y-38488028D01*
X114221613Y-38367715D01*
X114221612Y-38367714D01*
X114221610Y-38367713D01*
X114149182Y-38330809D01*
X114039223Y-38274781D01*
X113844534Y-38211522D01*
X113669995Y-38183878D01*
X113642352Y-38179500D01*
X113437648Y-38179500D01*
X113413329Y-38183351D01*
X113235465Y-38211522D01*
X113040776Y-38274781D01*
X112858386Y-38367715D01*
X112692786Y-38488028D01*
X112548028Y-38632786D01*
X112427713Y-38798388D01*
X112380203Y-38891630D01*
X112332228Y-38942426D01*
X112264407Y-38959220D01*
X112198272Y-38936682D01*
X112159234Y-38891628D01*
X112111861Y-38798652D01*
X111991582Y-38633105D01*
X111991582Y-38633104D01*
X111846895Y-38488417D01*
X111681349Y-38368140D01*
X111499029Y-38275244D01*
X111304413Y-38212009D01*
X111250000Y-38203390D01*
X111250000Y-39564314D01*
X111245606Y-39559920D01*
X111154394Y-39507259D01*
X111052661Y-39480000D01*
X110947339Y-39480000D01*
X110845606Y-39507259D01*
X110754394Y-39559920D01*
X110750000Y-39564314D01*
X110750000Y-38203390D01*
X110695586Y-38212009D01*
X110500970Y-38275244D01*
X110318650Y-38368140D01*
X110153105Y-38488417D01*
X110153104Y-38488417D01*
X110008417Y-38633104D01*
X110008417Y-38633105D01*
X109888140Y-38798650D01*
X109795244Y-38980968D01*
X109732009Y-39175582D01*
X109700000Y-39377682D01*
X109700000Y-39630000D01*
X110684314Y-39630000D01*
X110679920Y-39634394D01*
X110627259Y-39725606D01*
X110600000Y-39827339D01*
X110600000Y-39932661D01*
X110627259Y-40034394D01*
X110679920Y-40125606D01*
X110684314Y-40130000D01*
X109700000Y-40130000D01*
X109700000Y-40382317D01*
X109732009Y-40584417D01*
X109795244Y-40779031D01*
X109888140Y-40961349D01*
X110008417Y-41126894D01*
X110008417Y-41126895D01*
X110153104Y-41271582D01*
X110318652Y-41391861D01*
X110399332Y-41432969D01*
X110450129Y-41480943D01*
X110466924Y-41548764D01*
X110444387Y-41614899D01*
X110430719Y-41631135D01*
X105341901Y-46719955D01*
X105237681Y-46824175D01*
X105176358Y-46857660D01*
X105106666Y-46852676D01*
X105062319Y-46824175D01*
X100886319Y-42648175D01*
X100852834Y-42586852D01*
X100850000Y-42560494D01*
X100850000Y-41615686D01*
X100854394Y-41620080D01*
X100945606Y-41672741D01*
X101047339Y-41700000D01*
X101152661Y-41700000D01*
X101254394Y-41672741D01*
X101345606Y-41620080D01*
X101350000Y-41615686D01*
X101350000Y-42600000D01*
X101947828Y-42600000D01*
X101947844Y-42599999D01*
X102007372Y-42593598D01*
X102007379Y-42593596D01*
X102142086Y-42543354D01*
X102142093Y-42543350D01*
X102257187Y-42457190D01*
X102257190Y-42457187D01*
X102343350Y-42342093D01*
X102343355Y-42342084D01*
X102360677Y-42295639D01*
X102403580Y-42120997D01*
X102413900Y-42103240D01*
X102419685Y-42083540D01*
X102431098Y-42073649D01*
X102438690Y-42060589D01*
X102456971Y-42051231D01*
X102472489Y-42037785D01*
X102488908Y-42034882D01*
X102500884Y-42028753D01*
X102515469Y-42030188D01*
X102516428Y-42030018D01*
X103200000Y-41346446D01*
X103200000Y-41352661D01*
X103227259Y-41454394D01*
X103279920Y-41545606D01*
X103354394Y-41620080D01*
X103445606Y-41672741D01*
X103547339Y-41700000D01*
X103553553Y-41700000D01*
X102874076Y-42379474D01*
X102918650Y-42411859D01*
X103100968Y-42504755D01*
X103295582Y-42567990D01*
X103497683Y-42600000D01*
X103702317Y-42600000D01*
X103904417Y-42567990D01*
X104099031Y-42504755D01*
X104281349Y-42411859D01*
X104325921Y-42379474D01*
X103646447Y-41700000D01*
X103652661Y-41700000D01*
X103754394Y-41672741D01*
X103845606Y-41620080D01*
X103920080Y-41545606D01*
X103972741Y-41454394D01*
X104000000Y-41352661D01*
X104000000Y-41346447D01*
X104679474Y-42025921D01*
X104711859Y-41981349D01*
X104804755Y-41799031D01*
X104867990Y-41604417D01*
X104900000Y-41402317D01*
X104900000Y-41197682D01*
X104867990Y-40995582D01*
X104804755Y-40800968D01*
X104711859Y-40618650D01*
X104679474Y-40574077D01*
X104679474Y-40574076D01*
X104000000Y-41253551D01*
X104000000Y-41247339D01*
X103972741Y-41145606D01*
X103920080Y-41054394D01*
X103845606Y-40979920D01*
X103754394Y-40927259D01*
X103652661Y-40900000D01*
X103646446Y-40900000D01*
X104325922Y-40220524D01*
X104325921Y-40220523D01*
X104281359Y-40188147D01*
X104281350Y-40188141D01*
X104099031Y-40095244D01*
X103904417Y-40032009D01*
X103702317Y-40000000D01*
X103497683Y-40000000D01*
X103295582Y-40032009D01*
X103100968Y-40095244D01*
X102918644Y-40188143D01*
X102874077Y-40220523D01*
X102874077Y-40220524D01*
X103553554Y-40900000D01*
X103547339Y-40900000D01*
X103445606Y-40927259D01*
X103354394Y-40979920D01*
X103279920Y-41054394D01*
X103227259Y-41145606D01*
X103200000Y-41247339D01*
X103200000Y-41253553D01*
X102515696Y-40569249D01*
X102465352Y-40558674D01*
X102415595Y-40509623D01*
X102403580Y-40479002D01*
X102360679Y-40304364D01*
X102343353Y-40257911D01*
X102343350Y-40257906D01*
X102257190Y-40142812D01*
X102257187Y-40142809D01*
X102142093Y-40056649D01*
X102142086Y-40056645D01*
X102007379Y-40006403D01*
X102007372Y-40006401D01*
X101947844Y-40000000D01*
X101350000Y-40000000D01*
X101350000Y-40984314D01*
X101345606Y-40979920D01*
X101254394Y-40927259D01*
X101152661Y-40900000D01*
X101047339Y-40900000D01*
X100945606Y-40927259D01*
X100854394Y-40979920D01*
X100850000Y-40984314D01*
X100850000Y-40000000D01*
X100252155Y-40000000D01*
X100192627Y-40006401D01*
X100192620Y-40006403D01*
X100057913Y-40056645D01*
X100057906Y-40056649D01*
X99942812Y-40142809D01*
X99942809Y-40142812D01*
X99856649Y-40257906D01*
X99856645Y-40257913D01*
X99806403Y-40392620D01*
X99806401Y-40392627D01*
X99800000Y-40452155D01*
X99800000Y-41050000D01*
X100784314Y-41050000D01*
X100779920Y-41054394D01*
X100727259Y-41145606D01*
X100700000Y-41247339D01*
X100700000Y-41352661D01*
X100727259Y-41454394D01*
X100779920Y-41545606D01*
X100784314Y-41550000D01*
X99839506Y-41550000D01*
X99772467Y-41530315D01*
X99751825Y-41513681D01*
X98211819Y-39973675D01*
X98178334Y-39912352D01*
X98175500Y-39885994D01*
X98175500Y-38213768D01*
X98175499Y-38213766D01*
X98168683Y-38179500D01*
X98141855Y-38044626D01*
X98113222Y-37975500D01*
X98075861Y-37885301D01*
X98075854Y-37885288D01*
X97980046Y-37741902D01*
X97952149Y-37714005D01*
X97858099Y-37619955D01*
X97276638Y-37038494D01*
X96658102Y-36419957D01*
X96658098Y-36419954D01*
X96514711Y-36324145D01*
X96514698Y-36324138D01*
X96355378Y-36258146D01*
X96355366Y-36258143D01*
X96186232Y-36224500D01*
X96186229Y-36224500D01*
X94849758Y-36224500D01*
X94782719Y-36204815D01*
X94736964Y-36152011D01*
X94727020Y-36082853D01*
X94756045Y-36019297D01*
X94762077Y-36012819D01*
X94818379Y-35956517D01*
X94895104Y-35879792D01*
X94895106Y-35879788D01*
X94895109Y-35879786D01*
X95020048Y-35707820D01*
X95020047Y-35707820D01*
X95020051Y-35707816D01*
X95116557Y-35518412D01*
X95182246Y-35316243D01*
X95215500Y-35106287D01*
X95215500Y-34893713D01*
X95182246Y-34683757D01*
X95116557Y-34481588D01*
X95020051Y-34292184D01*
X95020049Y-34292181D01*
X95020048Y-34292179D01*
X94895109Y-34120213D01*
X94744786Y-33969890D01*
X94572820Y-33844951D01*
X94383414Y-33748444D01*
X94383413Y-33748443D01*
X94383412Y-33748443D01*
X94181243Y-33682754D01*
X94181241Y-33682753D01*
X94181240Y-33682753D01*
X94019957Y-33657208D01*
X93971287Y-33649500D01*
X93758713Y-33649500D01*
X93710042Y-33657208D01*
X93548760Y-33682753D01*
X93346585Y-33748444D01*
X93157179Y-33844951D01*
X92985215Y-33969889D01*
X92871285Y-34083819D01*
X92809962Y-34117303D01*
X92740270Y-34112319D01*
X92684337Y-34070447D01*
X92667422Y-34039470D01*
X92618354Y-33907913D01*
X92618350Y-33907906D01*
X92532190Y-33792812D01*
X92532187Y-33792809D01*
X92417093Y-33706649D01*
X92417086Y-33706645D01*
X92282379Y-33656403D01*
X92282372Y-33656401D01*
X92222844Y-33650000D01*
X91575000Y-33650000D01*
X91575000Y-34566988D01*
X91517993Y-34534075D01*
X91390826Y-34500000D01*
X91259174Y-34500000D01*
X91132007Y-34534075D01*
X91075000Y-34566988D01*
X91075000Y-33650000D01*
X90427155Y-33650000D01*
X90367627Y-33656401D01*
X90367620Y-33656403D01*
X90232913Y-33706645D01*
X90232906Y-33706649D01*
X90117812Y-33792809D01*
X90117809Y-33792812D01*
X90031649Y-33907906D01*
X90031645Y-33907913D01*
X89981403Y-34042620D01*
X89981401Y-34042627D01*
X89975000Y-34102155D01*
X89975000Y-34750000D01*
X90891988Y-34750000D01*
X90859075Y-34807007D01*
X90825000Y-34934174D01*
X90825000Y-35065826D01*
X90859075Y-35192993D01*
X90891988Y-35250000D01*
X89975000Y-35250000D01*
X89975000Y-35897844D01*
X89981401Y-35957372D01*
X89981403Y-35957380D01*
X90018621Y-36057167D01*
X90023605Y-36126859D01*
X89990120Y-36188182D01*
X89928796Y-36221666D01*
X89902439Y-36224500D01*
X84058564Y-36224500D01*
X83991525Y-36204815D01*
X83945770Y-36152011D01*
X83935826Y-36082853D01*
X83958246Y-36027614D01*
X83991859Y-35981349D01*
X84084755Y-35799029D01*
X84147990Y-35604413D01*
X84156609Y-35550000D01*
X83195686Y-35550000D01*
X83200080Y-35545606D01*
X83252741Y-35454394D01*
X83280000Y-35352661D01*
X83280000Y-35247339D01*
X83252741Y-35145606D01*
X83200080Y-35054394D01*
X83195686Y-35050000D01*
X84156609Y-35050000D01*
X84147990Y-34995586D01*
X84084755Y-34800970D01*
X83991859Y-34618650D01*
X83871582Y-34453105D01*
X83871582Y-34453104D01*
X83726895Y-34308417D01*
X83583512Y-34204242D01*
X83372688Y-34091991D01*
X83350999Y-34070754D01*
X83327735Y-34051238D01*
X83326275Y-34046546D01*
X83322765Y-34043109D01*
X83315999Y-34013512D01*
X83306981Y-33984521D01*
X83308289Y-33979785D01*
X83307195Y-33974996D01*
X83317502Y-33946444D01*
X83325591Y-33917176D01*
X83330142Y-33911434D01*
X83330921Y-33909279D01*
X83333286Y-33907469D01*
X83343276Y-33894867D01*
X84226325Y-33011819D01*
X84287648Y-32978334D01*
X84314006Y-32975500D01*
X126485994Y-32975500D01*
X126553033Y-32995185D01*
G37*
%TD.AperFunction*%
%TA.AperFunction,Conductor*%
G36*
X95753033Y-37995185D02*
G01*
X95773675Y-38011819D01*
X96388181Y-38626325D01*
X96421666Y-38687648D01*
X96424500Y-38714006D01*
X96424500Y-39786993D01*
X96404815Y-39854032D01*
X96352011Y-39899787D01*
X96282853Y-39909731D01*
X96219297Y-39880706D01*
X96212819Y-39874674D01*
X95558102Y-39219957D01*
X95558098Y-39219954D01*
X95414711Y-39124145D01*
X95414698Y-39124138D01*
X95255378Y-39058146D01*
X95255366Y-39058143D01*
X95086232Y-39024500D01*
X95086229Y-39024500D01*
X90686229Y-39024500D01*
X90513771Y-39024500D01*
X90513768Y-39024500D01*
X90344633Y-39058143D01*
X90344621Y-39058146D01*
X90185301Y-39124138D01*
X90185288Y-39124145D01*
X90041901Y-39219954D01*
X90041897Y-39219957D01*
X88535531Y-40726325D01*
X88041901Y-41219955D01*
X87998171Y-41263685D01*
X87919953Y-41341902D01*
X87824145Y-41485288D01*
X87824138Y-41485301D01*
X87758146Y-41644621D01*
X87758144Y-41644629D01*
X87751189Y-41679591D01*
X87718802Y-41741502D01*
X87658085Y-41776074D01*
X87590570Y-41773104D01*
X87582691Y-41770493D01*
X87479986Y-41760000D01*
X86730000Y-41760000D01*
X86730000Y-42744314D01*
X86725606Y-42739920D01*
X86634394Y-42687259D01*
X86532661Y-42660000D01*
X86427339Y-42660000D01*
X86325606Y-42687259D01*
X86234394Y-42739920D01*
X86230000Y-42744314D01*
X86230000Y-41760000D01*
X85480028Y-41760000D01*
X85480012Y-41760001D01*
X85377302Y-41770494D01*
X85210880Y-41825641D01*
X85210875Y-41825643D01*
X85061654Y-41917684D01*
X84937684Y-42041654D01*
X84845643Y-42190875D01*
X84845641Y-42190880D01*
X84790494Y-42357302D01*
X84790493Y-42357309D01*
X84780000Y-42460013D01*
X84780000Y-42810000D01*
X86164314Y-42810000D01*
X86159920Y-42814394D01*
X86107259Y-42905606D01*
X86080000Y-43007339D01*
X86080000Y-43112661D01*
X86107259Y-43214394D01*
X86159920Y-43305606D01*
X86164314Y-43310000D01*
X84780001Y-43310000D01*
X84780001Y-43659986D01*
X84790494Y-43762697D01*
X84845641Y-43929119D01*
X84845643Y-43929124D01*
X84937684Y-44078345D01*
X85061654Y-44202315D01*
X85210875Y-44294356D01*
X85210882Y-44294359D01*
X85293067Y-44321592D01*
X85350512Y-44361364D01*
X85377336Y-44425880D01*
X85365021Y-44494656D01*
X85326949Y-44539616D01*
X85232787Y-44608028D01*
X85232782Y-44608032D01*
X85088028Y-44752786D01*
X84967714Y-44918386D01*
X84960372Y-44932797D01*
X84912396Y-44983592D01*
X84849888Y-45000500D01*
X80374951Y-45000500D01*
X80307912Y-44980815D01*
X80262157Y-44928011D01*
X80252213Y-44858853D01*
X80257020Y-44838183D01*
X80267988Y-44804425D01*
X80267989Y-44804418D01*
X80300000Y-44602317D01*
X80300000Y-44397682D01*
X80267990Y-44195582D01*
X80204755Y-44000968D01*
X80111859Y-43818650D01*
X80079474Y-43774077D01*
X80079474Y-43774076D01*
X79400000Y-44453551D01*
X79400000Y-44447339D01*
X79372741Y-44345606D01*
X79320080Y-44254394D01*
X79245606Y-44179920D01*
X79154394Y-44127259D01*
X79052661Y-44100000D01*
X79046446Y-44100000D01*
X79725922Y-43420524D01*
X79725921Y-43420523D01*
X79681359Y-43388147D01*
X79681350Y-43388141D01*
X79499031Y-43295244D01*
X79304417Y-43232009D01*
X79287283Y-43229296D01*
X79224148Y-43199367D01*
X79187217Y-43140055D01*
X79188215Y-43070192D01*
X79218998Y-43019145D01*
X84226325Y-38011819D01*
X84287648Y-37978334D01*
X84314006Y-37975500D01*
X95685994Y-37975500D01*
X95753033Y-37995185D01*
G37*
%TD.AperFunction*%
%TA.AperFunction,Conductor*%
G36*
X83130000Y-36580493D02*
G01*
X83110315Y-36647532D01*
X83093681Y-36668174D01*
X76598673Y-43163181D01*
X76537350Y-43196666D01*
X76510992Y-43199500D01*
X75652129Y-43199500D01*
X75652123Y-43199501D01*
X75592516Y-43205908D01*
X75457671Y-43256202D01*
X75457664Y-43256206D01*
X75342455Y-43342452D01*
X75342452Y-43342455D01*
X75256206Y-43457664D01*
X75256202Y-43457671D01*
X75215682Y-43566313D01*
X75173811Y-43622247D01*
X75108347Y-43646664D01*
X75040074Y-43631812D01*
X74990668Y-43582407D01*
X74975500Y-43522980D01*
X74975500Y-42314005D01*
X74995185Y-42246966D01*
X75011814Y-42226329D01*
X81474862Y-35763281D01*
X81536181Y-35729799D01*
X81605873Y-35734783D01*
X81661806Y-35776655D01*
X81672475Y-35794968D01*
X81673031Y-35794686D01*
X81768140Y-35981349D01*
X81888417Y-36146894D01*
X81888417Y-36146895D01*
X82033104Y-36291582D01*
X82198650Y-36411859D01*
X82380968Y-36504754D01*
X82575578Y-36567988D01*
X82630000Y-36576607D01*
X82630000Y-35615686D01*
X82634394Y-35620080D01*
X82725606Y-35672741D01*
X82827339Y-35700000D01*
X82932661Y-35700000D01*
X83034394Y-35672741D01*
X83125606Y-35620080D01*
X83130000Y-35615686D01*
X83130000Y-36580493D01*
G37*
%TD.AperFunction*%
%TA.AperFunction,Conductor*%
G36*
X59581598Y-30520185D02*
G01*
X59627353Y-30572989D01*
X59637297Y-30642147D01*
X59608272Y-30705703D01*
X59587444Y-30724819D01*
X59558427Y-30745900D01*
X59380289Y-30924038D01*
X59380285Y-30924043D01*
X59232216Y-31127844D01*
X59117844Y-31352309D01*
X59039994Y-31591907D01*
X59038663Y-31600310D01*
X59000584Y-31840731D01*
X59000584Y-32092655D01*
X59002979Y-32107777D01*
X59039994Y-32341478D01*
X59117844Y-32581076D01*
X59151112Y-32646367D01*
X59229392Y-32800000D01*
X59232216Y-32805541D01*
X59380285Y-33009342D01*
X59380289Y-33009347D01*
X59558429Y-33187487D01*
X59558434Y-33187491D01*
X59736201Y-33316645D01*
X59762239Y-33335563D01*
X59905268Y-33408440D01*
X59986700Y-33449932D01*
X59986702Y-33449932D01*
X59986705Y-33449934D01*
X60226299Y-33527783D01*
X60475122Y-33567193D01*
X60475123Y-33567193D01*
X60727045Y-33567193D01*
X60727046Y-33567193D01*
X60975869Y-33527783D01*
X61215463Y-33449934D01*
X61439929Y-33335563D01*
X61643740Y-33187486D01*
X61821877Y-33009349D01*
X61969954Y-32805538D01*
X62084325Y-32581072D01*
X62162174Y-32341478D01*
X62201584Y-32092655D01*
X62201584Y-31840731D01*
X62162174Y-31591908D01*
X62084325Y-31352314D01*
X62084323Y-31352311D01*
X62084323Y-31352309D01*
X62036344Y-31258146D01*
X61969954Y-31127848D01*
X61925509Y-31066675D01*
X61821882Y-30924043D01*
X61821878Y-30924038D01*
X61643740Y-30745900D01*
X61614724Y-30724819D01*
X61572058Y-30669489D01*
X61566079Y-30599876D01*
X61598684Y-30538080D01*
X61659522Y-30503723D01*
X61687609Y-30500500D01*
X69187199Y-30500500D01*
X69254238Y-30520185D01*
X69299993Y-30572989D01*
X69309937Y-30642147D01*
X69292738Y-30689595D01*
X69271012Y-30724819D01*
X69226271Y-30797355D01*
X69226269Y-30797360D01*
X69198433Y-30881362D01*
X69171085Y-30963895D01*
X69171085Y-30963896D01*
X69171084Y-30963896D01*
X69160584Y-31066675D01*
X69160584Y-32866710D01*
X69171084Y-32969489D01*
X69212218Y-33093623D01*
X69226270Y-33136028D01*
X69318372Y-33285349D01*
X69442428Y-33409405D01*
X69591749Y-33501507D01*
X69758286Y-33556692D01*
X69861074Y-33567193D01*
X69861079Y-33567193D01*
X71661089Y-33567193D01*
X71661094Y-33567193D01*
X71763882Y-33556692D01*
X71930419Y-33501507D01*
X72079740Y-33409405D01*
X72203796Y-33285349D01*
X72295898Y-33136028D01*
X72351083Y-32969491D01*
X72361584Y-32866703D01*
X72361584Y-31066683D01*
X72351083Y-30963895D01*
X72295898Y-30797358D01*
X72229429Y-30689595D01*
X72210990Y-30622204D01*
X72231913Y-30555541D01*
X72285555Y-30510771D01*
X72334969Y-30500500D01*
X134934108Y-30500500D01*
X134997294Y-30500500D01*
X135002702Y-30500617D01*
X135386771Y-30517386D01*
X135397506Y-30518326D01*
X135775971Y-30568152D01*
X135786597Y-30570025D01*
X136159284Y-30652648D01*
X136169710Y-30655442D01*
X136533765Y-30770227D01*
X136543911Y-30773920D01*
X136896578Y-30920000D01*
X136906369Y-30924566D01*
X136981920Y-30963895D01*
X137244942Y-31100816D01*
X137254310Y-31106224D01*
X137576244Y-31311318D01*
X137585105Y-31317523D01*
X137887930Y-31549889D01*
X137896217Y-31556843D01*
X138177635Y-31814715D01*
X138185284Y-31822364D01*
X138443156Y-32103782D01*
X138450110Y-32112069D01*
X138682476Y-32414894D01*
X138688681Y-32423755D01*
X138893775Y-32745689D01*
X138899183Y-32755057D01*
X139075430Y-33093623D01*
X139080002Y-33103427D01*
X139226075Y-33456078D01*
X139229775Y-33466244D01*
X139344554Y-33830278D01*
X139347354Y-33840727D01*
X139429971Y-34213389D01*
X139431849Y-34224042D01*
X139481671Y-34602473D01*
X139482614Y-34613249D01*
X139499382Y-34997297D01*
X139499500Y-35002706D01*
X139499500Y-64997293D01*
X139499382Y-65002702D01*
X139482614Y-65386750D01*
X139481671Y-65397526D01*
X139431849Y-65775957D01*
X139429971Y-65786610D01*
X139347354Y-66159272D01*
X139344554Y-66169721D01*
X139229775Y-66533755D01*
X139226075Y-66543921D01*
X139080002Y-66896572D01*
X139075430Y-66906376D01*
X138899183Y-67244942D01*
X138893775Y-67254310D01*
X138688681Y-67576244D01*
X138682476Y-67585105D01*
X138450110Y-67887930D01*
X138443156Y-67896217D01*
X138185284Y-68177635D01*
X138177635Y-68185284D01*
X137896217Y-68443156D01*
X137887930Y-68450110D01*
X137585105Y-68682476D01*
X137576244Y-68688681D01*
X137254310Y-68893775D01*
X137244942Y-68899183D01*
X136906376Y-69075430D01*
X136896572Y-69080002D01*
X136543921Y-69226075D01*
X136533755Y-69229775D01*
X136169721Y-69344554D01*
X136159272Y-69347354D01*
X135786610Y-69429971D01*
X135775957Y-69431849D01*
X135397526Y-69481671D01*
X135386750Y-69482614D01*
X135002703Y-69499382D01*
X134997294Y-69499500D01*
X45002706Y-69499500D01*
X44997297Y-69499382D01*
X44613249Y-69482614D01*
X44602473Y-69481671D01*
X44224042Y-69431849D01*
X44213389Y-69429971D01*
X43840727Y-69347354D01*
X43830278Y-69344554D01*
X43466244Y-69229775D01*
X43456078Y-69226075D01*
X43103427Y-69080002D01*
X43093623Y-69075430D01*
X42755057Y-68899183D01*
X42745689Y-68893775D01*
X42423755Y-68688681D01*
X42414894Y-68682476D01*
X42112069Y-68450110D01*
X42103782Y-68443156D01*
X41822364Y-68185284D01*
X41814715Y-68177635D01*
X41556843Y-67896217D01*
X41549889Y-67887930D01*
X41317523Y-67585105D01*
X41311318Y-67576244D01*
X41267384Y-67507282D01*
X41106223Y-67254309D01*
X41100816Y-67244942D01*
X41072311Y-67190185D01*
X40924566Y-66906369D01*
X40919997Y-66896572D01*
X40906395Y-66863733D01*
X40773920Y-66543911D01*
X40770224Y-66533755D01*
X40655442Y-66169710D01*
X40652648Y-66159284D01*
X40570025Y-65786597D01*
X40568152Y-65775971D01*
X40518326Y-65397506D01*
X40517386Y-65386771D01*
X40500618Y-65002702D01*
X40500500Y-64997293D01*
X40500500Y-64828031D01*
X41499500Y-64828031D01*
X41499500Y-64859852D01*
X41499500Y-65171969D01*
X41505305Y-65230911D01*
X41533210Y-65514249D01*
X41600308Y-65851572D01*
X41700150Y-66180706D01*
X41831770Y-66498464D01*
X41831772Y-66498469D01*
X41993893Y-66801775D01*
X41993904Y-66801793D01*
X42184975Y-67087751D01*
X42184985Y-67087765D01*
X42403176Y-67353632D01*
X42646367Y-67596823D01*
X42646372Y-67596827D01*
X42646373Y-67596828D01*
X42912240Y-67815019D01*
X43198213Y-68006100D01*
X43198222Y-68006105D01*
X43198224Y-68006106D01*
X43501530Y-68168227D01*
X43501532Y-68168227D01*
X43501538Y-68168231D01*
X43819295Y-68299850D01*
X44148422Y-68399690D01*
X44485750Y-68466789D01*
X44828031Y-68500500D01*
X44828034Y-68500500D01*
X45171966Y-68500500D01*
X45171969Y-68500500D01*
X45514250Y-68466789D01*
X45851578Y-68399690D01*
X46180705Y-68299850D01*
X46498462Y-68168231D01*
X46801787Y-68006100D01*
X47087760Y-67815019D01*
X47353627Y-67596828D01*
X47596828Y-67353627D01*
X47815019Y-67087760D01*
X48006100Y-66801787D01*
X48168231Y-66498462D01*
X48299850Y-66180705D01*
X48399690Y-65851578D01*
X48466789Y-65514250D01*
X48500500Y-65171969D01*
X48500500Y-64828031D01*
X48466789Y-64485750D01*
X48408147Y-64190939D01*
X48399691Y-64148427D01*
X48399690Y-64148426D01*
X48399690Y-64148422D01*
X48299850Y-63819295D01*
X48168231Y-63501538D01*
X48167533Y-63500233D01*
X48006106Y-63198224D01*
X48006105Y-63198222D01*
X48006100Y-63198213D01*
X47815019Y-62912240D01*
X47596828Y-62646373D01*
X47596827Y-62646372D01*
X47596823Y-62646367D01*
X47353632Y-62403176D01*
X47087765Y-62184985D01*
X47087764Y-62184984D01*
X47087760Y-62184981D01*
X46801787Y-61993900D01*
X46801782Y-61993897D01*
X46801775Y-61993893D01*
X46498469Y-61831772D01*
X46498464Y-61831770D01*
X46480048Y-61824142D01*
X46320713Y-61758143D01*
X46180706Y-61700150D01*
X45851572Y-61600308D01*
X45514248Y-61533210D01*
X45514249Y-61533210D01*
X45256456Y-61507821D01*
X45171969Y-61499500D01*
X44828031Y-61499500D01*
X44749966Y-61507188D01*
X44485750Y-61533210D01*
X44148427Y-61600308D01*
X43819293Y-61700150D01*
X43501535Y-61831770D01*
X43501530Y-61831772D01*
X43198224Y-61993893D01*
X43198206Y-61993904D01*
X42912248Y-62184975D01*
X42912234Y-62184985D01*
X42646367Y-62403176D01*
X42403176Y-62646367D01*
X42184985Y-62912234D01*
X42184975Y-62912248D01*
X41993904Y-63198206D01*
X41993893Y-63198224D01*
X41831772Y-63501530D01*
X41831770Y-63501535D01*
X41700150Y-63819293D01*
X41600308Y-64148427D01*
X41533210Y-64485750D01*
X41511490Y-64706287D01*
X41499500Y-64828031D01*
X40500500Y-64828031D01*
X40500500Y-58908872D01*
X41999500Y-58908872D01*
X41999500Y-59171127D01*
X42026123Y-59373339D01*
X42033730Y-59431116D01*
X42101602Y-59684418D01*
X42101605Y-59684428D01*
X42201953Y-59926690D01*
X42201958Y-59926700D01*
X42333075Y-60153803D01*
X42492718Y-60361851D01*
X42492726Y-60361860D01*
X42678140Y-60547274D01*
X42678148Y-60547281D01*
X42886196Y-60706924D01*
X43113299Y-60838041D01*
X43113309Y-60838046D01*
X43322028Y-60924500D01*
X43355581Y-60938398D01*
X43608884Y-61006270D01*
X43868880Y-61040500D01*
X43868887Y-61040500D01*
X44131113Y-61040500D01*
X44131120Y-61040500D01*
X44391116Y-61006270D01*
X44644419Y-60938398D01*
X44886697Y-60838043D01*
X45113803Y-60706924D01*
X45321851Y-60547282D01*
X45321855Y-60547277D01*
X45321860Y-60547274D01*
X45507274Y-60361860D01*
X45507277Y-60361855D01*
X45507282Y-60361851D01*
X45666924Y-60153803D01*
X45798043Y-59926697D01*
X45898398Y-59684419D01*
X45966270Y-59431116D01*
X46000500Y-59171120D01*
X46000500Y-58908880D01*
X45966270Y-58648884D01*
X45898398Y-58395581D01*
X45878366Y-58347219D01*
X45798046Y-58153309D01*
X45798041Y-58153299D01*
X45666924Y-57926196D01*
X45511883Y-57724145D01*
X45507282Y-57718149D01*
X45507281Y-57718148D01*
X45507274Y-57718140D01*
X45321860Y-57532726D01*
X45321851Y-57532718D01*
X45113803Y-57373075D01*
X44886700Y-57241958D01*
X44886690Y-57241953D01*
X44644428Y-57141605D01*
X44644421Y-57141603D01*
X44644419Y-57141602D01*
X44391116Y-57073730D01*
X44333339Y-57066123D01*
X44131127Y-57039500D01*
X44131120Y-57039500D01*
X43868880Y-57039500D01*
X43868872Y-57039500D01*
X43637772Y-57069926D01*
X43608884Y-57073730D01*
X43492873Y-57104815D01*
X43355581Y-57141602D01*
X43355571Y-57141605D01*
X43113309Y-57241953D01*
X43113299Y-57241958D01*
X42886196Y-57373075D01*
X42678148Y-57532718D01*
X42492718Y-57718148D01*
X42333075Y-57926196D01*
X42201958Y-58153299D01*
X42201953Y-58153309D01*
X42101605Y-58395571D01*
X42101602Y-58395581D01*
X42033730Y-58648885D01*
X41999500Y-58908872D01*
X40500500Y-58908872D01*
X40500500Y-52412155D01*
X42000000Y-52412155D01*
X42000000Y-53710000D01*
X43280936Y-53710000D01*
X43269207Y-53738316D01*
X43240000Y-53885147D01*
X43240000Y-54034853D01*
X43269207Y-54181684D01*
X43280936Y-54210000D01*
X42000000Y-54210000D01*
X42000000Y-55507844D01*
X42006401Y-55567372D01*
X42006403Y-55567379D01*
X42056645Y-55702086D01*
X42056649Y-55702093D01*
X42142809Y-55817187D01*
X42142812Y-55817190D01*
X42257906Y-55903350D01*
X42257913Y-55903354D01*
X42392620Y-55953596D01*
X42392627Y-55953598D01*
X42452155Y-55959999D01*
X42452172Y-55960000D01*
X43750000Y-55960000D01*
X43750000Y-54679064D01*
X43778316Y-54690793D01*
X43925147Y-54720000D01*
X44074853Y-54720000D01*
X44221684Y-54690793D01*
X44250000Y-54679064D01*
X44250000Y-55960000D01*
X45547828Y-55960000D01*
X45547844Y-55959999D01*
X45607372Y-55953598D01*
X45607379Y-55953596D01*
X45742086Y-55903354D01*
X45742093Y-55903350D01*
X45857187Y-55817190D01*
X45857190Y-55817187D01*
X45943350Y-55702093D01*
X45943354Y-55702086D01*
X45993596Y-55567379D01*
X45993598Y-55567372D01*
X45999999Y-55507844D01*
X46000000Y-55507827D01*
X46000000Y-55077648D01*
X48199500Y-55077648D01*
X48199500Y-55282351D01*
X48231522Y-55484534D01*
X48294781Y-55679223D01*
X48387715Y-55861613D01*
X48508028Y-56027213D01*
X48652786Y-56171971D01*
X48807749Y-56284556D01*
X48818390Y-56292287D01*
X48934607Y-56351503D01*
X49000776Y-56385218D01*
X49000778Y-56385218D01*
X49000781Y-56385220D01*
X49091545Y-56414711D01*
X49195465Y-56448477D01*
X49296557Y-56464488D01*
X49397648Y-56480500D01*
X49397649Y-56480500D01*
X49602351Y-56480500D01*
X49602352Y-56480500D01*
X49804534Y-56448477D01*
X49999219Y-56385220D01*
X50181610Y-56292287D01*
X50274590Y-56224732D01*
X50347213Y-56171971D01*
X50347215Y-56171968D01*
X50347219Y-56171966D01*
X50491966Y-56027219D01*
X50491968Y-56027215D01*
X50491971Y-56027213D01*
X50581961Y-55903350D01*
X50612287Y-55861610D01*
X50705220Y-55679219D01*
X50768477Y-55484534D01*
X50800500Y-55282352D01*
X50800500Y-55077648D01*
X50788281Y-55000499D01*
X50768477Y-54875465D01*
X50737287Y-54779474D01*
X50705220Y-54680781D01*
X50705218Y-54680778D01*
X50705218Y-54680776D01*
X50662713Y-54597356D01*
X50612287Y-54498390D01*
X50584860Y-54460640D01*
X50491971Y-54332786D01*
X50347213Y-54188028D01*
X50181613Y-54067715D01*
X50181612Y-54067714D01*
X50181610Y-54067713D01*
X50102994Y-54027656D01*
X49999223Y-53974781D01*
X49804534Y-53911522D01*
X49629995Y-53883878D01*
X49602352Y-53879500D01*
X49397648Y-53879500D01*
X49373329Y-53883351D01*
X49195465Y-53911522D01*
X49000776Y-53974781D01*
X48818386Y-54067715D01*
X48652786Y-54188028D01*
X48508028Y-54332786D01*
X48387715Y-54498386D01*
X48294781Y-54680776D01*
X48231522Y-54875465D01*
X48199500Y-55077648D01*
X46000000Y-55077648D01*
X46000000Y-54210000D01*
X44719064Y-54210000D01*
X44730793Y-54181684D01*
X44760000Y-54034853D01*
X44760000Y-53885147D01*
X44730793Y-53738316D01*
X44719064Y-53710000D01*
X46000000Y-53710000D01*
X46000000Y-52412172D01*
X45999999Y-52412155D01*
X45993598Y-52352627D01*
X45993596Y-52352620D01*
X45943354Y-52217913D01*
X45943350Y-52217906D01*
X45857190Y-52102812D01*
X45857187Y-52102809D01*
X45742093Y-52016649D01*
X45742086Y-52016645D01*
X45607379Y-51966403D01*
X45607372Y-51966401D01*
X45547844Y-51960000D01*
X44250000Y-51960000D01*
X44250000Y-53240935D01*
X44221684Y-53229207D01*
X44074853Y-53200000D01*
X43925147Y-53200000D01*
X43778316Y-53229207D01*
X43750000Y-53240935D01*
X43750000Y-51960000D01*
X42452155Y-51960000D01*
X42392627Y-51966401D01*
X42392620Y-51966403D01*
X42257913Y-52016645D01*
X42257906Y-52016649D01*
X42142812Y-52102809D01*
X42142809Y-52102812D01*
X42056649Y-52217906D01*
X42056645Y-52217913D01*
X42006403Y-52352620D01*
X42006401Y-52352627D01*
X42000000Y-52412155D01*
X40500500Y-52412155D01*
X40500500Y-41357648D01*
X42699500Y-41357648D01*
X42699500Y-41562351D01*
X42731522Y-41764534D01*
X42794781Y-41959223D01*
X42850224Y-42068034D01*
X42868162Y-42103240D01*
X42887715Y-42141613D01*
X43008028Y-42307213D01*
X43152786Y-42451971D01*
X43255463Y-42526569D01*
X43298129Y-42581898D01*
X43304108Y-42651512D01*
X43271503Y-42713307D01*
X43210664Y-42747664D01*
X43195833Y-42750177D01*
X43142516Y-42755909D01*
X43007671Y-42806202D01*
X43007664Y-42806206D01*
X42892455Y-42892452D01*
X42892452Y-42892455D01*
X42806206Y-43007664D01*
X42806202Y-43007671D01*
X42755908Y-43142517D01*
X42750087Y-43196666D01*
X42749501Y-43202123D01*
X42749500Y-43202135D01*
X42749500Y-44797870D01*
X42749501Y-44797876D01*
X42755908Y-44857483D01*
X42806202Y-44992328D01*
X42806206Y-44992335D01*
X42892452Y-45107544D01*
X42892455Y-45107547D01*
X43007664Y-45193793D01*
X43007671Y-45193797D01*
X43052618Y-45210561D01*
X43142517Y-45244091D01*
X43195835Y-45249823D01*
X43260384Y-45276560D01*
X43300232Y-45333952D01*
X43302726Y-45403777D01*
X43267074Y-45463867D01*
X43255463Y-45473430D01*
X43152787Y-45548028D01*
X43152782Y-45548032D01*
X43008028Y-45692786D01*
X42887715Y-45858386D01*
X42794781Y-46040776D01*
X42731522Y-46235465D01*
X42699500Y-46437648D01*
X42699500Y-46642351D01*
X42731522Y-46844534D01*
X42794781Y-47039223D01*
X42838973Y-47125953D01*
X42886722Y-47219666D01*
X42887715Y-47221613D01*
X43008028Y-47387213D01*
X43152786Y-47531971D01*
X43302546Y-47640776D01*
X43318390Y-47652287D01*
X43434607Y-47711503D01*
X43500776Y-47745218D01*
X43500778Y-47745218D01*
X43500781Y-47745220D01*
X43605137Y-47779127D01*
X43695465Y-47808477D01*
X43796557Y-47824488D01*
X43897648Y-47840500D01*
X43897649Y-47840500D01*
X44102351Y-47840500D01*
X44102352Y-47840500D01*
X44304534Y-47808477D01*
X44499219Y-47745220D01*
X44681610Y-47652287D01*
X44774590Y-47584732D01*
X44847213Y-47531971D01*
X44847215Y-47531968D01*
X44847219Y-47531966D01*
X44991966Y-47387219D01*
X44991968Y-47387215D01*
X44991971Y-47387213D01*
X45060575Y-47292786D01*
X45112287Y-47221610D01*
X45205220Y-47039219D01*
X45268477Y-46844534D01*
X45300500Y-46642352D01*
X45300500Y-46437648D01*
X45271220Y-46252786D01*
X45268477Y-46235465D01*
X45210847Y-46058099D01*
X45205220Y-46040781D01*
X45205218Y-46040778D01*
X45205218Y-46040776D01*
X45149701Y-45931819D01*
X45112287Y-45858390D01*
X45092767Y-45831523D01*
X44991971Y-45692786D01*
X44847217Y-45548032D01*
X44847212Y-45548028D01*
X44744536Y-45473430D01*
X44701870Y-45418101D01*
X44695891Y-45348487D01*
X44728496Y-45286692D01*
X44789335Y-45252335D01*
X44804164Y-45249822D01*
X44857483Y-45244091D01*
X44992331Y-45193796D01*
X45107546Y-45107546D01*
X45193796Y-44992331D01*
X45244091Y-44857483D01*
X45250500Y-44797873D01*
X45250499Y-43202128D01*
X45244091Y-43142517D01*
X45232955Y-43112661D01*
X45193797Y-43007671D01*
X45193793Y-43007664D01*
X45107547Y-42892455D01*
X45107544Y-42892452D01*
X44992335Y-42806206D01*
X44992328Y-42806202D01*
X44857482Y-42755908D01*
X44857483Y-42755908D01*
X44804165Y-42750176D01*
X44739614Y-42723438D01*
X44699766Y-42666045D01*
X44697273Y-42596220D01*
X44732926Y-42536131D01*
X44744537Y-42526568D01*
X44774561Y-42504755D01*
X44847219Y-42451966D01*
X44991966Y-42307219D01*
X44991968Y-42307215D01*
X44991971Y-42307213D01*
X45060578Y-42212782D01*
X45112287Y-42141610D01*
X45205220Y-41959219D01*
X45268477Y-41764534D01*
X45300500Y-41562352D01*
X45300500Y-41357648D01*
X45286868Y-41271582D01*
X45268477Y-41155465D01*
X45223651Y-41017507D01*
X45205220Y-40960781D01*
X45205218Y-40960778D01*
X45205218Y-40960776D01*
X45145648Y-40843865D01*
X45112287Y-40778390D01*
X45074460Y-40726325D01*
X44991971Y-40612786D01*
X44847213Y-40468028D01*
X44681613Y-40347715D01*
X44681612Y-40347714D01*
X44681610Y-40347713D01*
X44614995Y-40313771D01*
X44499223Y-40254781D01*
X44304534Y-40191522D01*
X44129995Y-40163878D01*
X44102352Y-40159500D01*
X43897648Y-40159500D01*
X43873329Y-40163351D01*
X43695465Y-40191522D01*
X43500776Y-40254781D01*
X43318386Y-40347715D01*
X43152786Y-40468028D01*
X43008028Y-40612786D01*
X42887715Y-40778386D01*
X42794781Y-40960776D01*
X42731522Y-41155465D01*
X42699500Y-41357648D01*
X40500500Y-41357648D01*
X40500500Y-35002706D01*
X40500618Y-34997297D01*
X40502804Y-34947219D01*
X40508008Y-34828031D01*
X41499500Y-34828031D01*
X41499500Y-34859852D01*
X41499500Y-35171969D01*
X41501571Y-35192993D01*
X41533210Y-35514249D01*
X41600308Y-35851572D01*
X41700150Y-36180706D01*
X41831770Y-36498464D01*
X41831772Y-36498469D01*
X41993893Y-36801775D01*
X41993904Y-36801793D01*
X42184975Y-37087751D01*
X42184985Y-37087765D01*
X42403176Y-37353632D01*
X42646367Y-37596823D01*
X42646372Y-37596827D01*
X42646373Y-37596828D01*
X42912240Y-37815019D01*
X43198213Y-38006100D01*
X43198222Y-38006105D01*
X43198224Y-38006106D01*
X43501530Y-38168227D01*
X43501532Y-38168227D01*
X43501538Y-38168231D01*
X43819295Y-38299850D01*
X44148422Y-38399690D01*
X44485750Y-38466789D01*
X44828031Y-38500500D01*
X44828034Y-38500500D01*
X45171966Y-38500500D01*
X45171969Y-38500500D01*
X45514250Y-38466789D01*
X45851578Y-38399690D01*
X46180705Y-38299850D01*
X46498462Y-38168231D01*
X46801787Y-38006100D01*
X47087760Y-37815019D01*
X47353627Y-37596828D01*
X47596828Y-37353627D01*
X47810553Y-37093201D01*
X47868297Y-37053868D01*
X47938142Y-37051997D01*
X47997910Y-37088184D01*
X48028626Y-37150940D01*
X48028023Y-37196055D01*
X48024500Y-37213768D01*
X48024500Y-39085994D01*
X48004815Y-39153033D01*
X47988181Y-39173675D01*
X47441901Y-39719955D01*
X47406490Y-39755366D01*
X47319953Y-39841902D01*
X47224145Y-39985288D01*
X47224138Y-39985301D01*
X47158146Y-40144621D01*
X47158143Y-40144633D01*
X47124500Y-40313766D01*
X47124500Y-43606233D01*
X47158143Y-43775366D01*
X47158146Y-43775378D01*
X47224138Y-43934698D01*
X47224145Y-43934711D01*
X47319954Y-44078098D01*
X47319957Y-44078102D01*
X48163181Y-44921325D01*
X48196666Y-44982648D01*
X48199500Y-45009006D01*
X48199500Y-45122352D01*
X48203878Y-45149995D01*
X48231522Y-45324534D01*
X48294781Y-45519223D01*
X48328923Y-45586229D01*
X48383214Y-45692781D01*
X48387715Y-45701613D01*
X48508028Y-45867213D01*
X48652786Y-46011971D01*
X48785000Y-46108028D01*
X48818390Y-46132287D01*
X48934607Y-46191503D01*
X49000776Y-46225218D01*
X49000778Y-46225218D01*
X49000781Y-46225220D01*
X49105137Y-46259127D01*
X49195465Y-46288477D01*
X49296557Y-46304488D01*
X49397648Y-46320500D01*
X49397649Y-46320500D01*
X49602351Y-46320500D01*
X49602352Y-46320500D01*
X49804534Y-46288477D01*
X49999219Y-46225220D01*
X50181610Y-46132287D01*
X50283723Y-46058098D01*
X50347213Y-46011971D01*
X50347215Y-46011968D01*
X50347219Y-46011966D01*
X50427366Y-45931819D01*
X50488689Y-45898334D01*
X50515047Y-45895500D01*
X51963923Y-45895500D01*
X52030962Y-45915185D01*
X52076717Y-45967989D01*
X52086661Y-46037147D01*
X52061188Y-46096413D01*
X52057287Y-46101345D01*
X51965187Y-46250663D01*
X51965185Y-46250668D01*
X51942045Y-46320500D01*
X51910001Y-46417203D01*
X51910001Y-46417204D01*
X51910000Y-46417204D01*
X51899500Y-46519983D01*
X51899500Y-48520001D01*
X51899501Y-48520018D01*
X51910000Y-48622796D01*
X51910001Y-48622799D01*
X51965185Y-48789331D01*
X51965187Y-48789336D01*
X51984129Y-48820046D01*
X52038804Y-48908689D01*
X52057289Y-48938657D01*
X52181345Y-49062713D01*
X52181348Y-49062715D01*
X52265595Y-49114678D01*
X52312321Y-49166625D01*
X52324500Y-49220217D01*
X52324500Y-49932500D01*
X52304815Y-49999539D01*
X52294966Y-50012826D01*
X51378019Y-51091181D01*
X51378018Y-51091180D01*
X51374621Y-51095173D01*
X51339585Y-51129979D01*
X51318925Y-51160674D01*
X51314414Y-51165981D01*
X51314408Y-51165990D01*
X51294934Y-51188894D01*
X51273420Y-51227506D01*
X51273419Y-51227505D01*
X51270870Y-51232078D01*
X51243295Y-51273053D01*
X51229017Y-51307197D01*
X51225622Y-51313292D01*
X51210999Y-51339537D01*
X51210996Y-51339544D01*
X51197429Y-51381609D01*
X51193820Y-51391374D01*
X51176770Y-51432154D01*
X51176766Y-51432166D01*
X51170804Y-51461622D01*
X51169421Y-51468454D01*
X51158061Y-51503680D01*
X51152361Y-51552747D01*
X51151326Y-51557863D01*
X51151325Y-51557873D01*
X51142557Y-51601200D01*
X51142457Y-51631249D01*
X51142434Y-51638218D01*
X51138164Y-51674987D01*
X51142146Y-51724228D01*
X51142129Y-51729447D01*
X51106198Y-62509134D01*
X51104913Y-62526534D01*
X51102653Y-62542096D01*
X51102653Y-62542101D01*
X51105702Y-62600487D01*
X51105870Y-62607365D01*
X51105675Y-62665855D01*
X51105676Y-62665866D01*
X51108693Y-62681302D01*
X51108692Y-62681302D01*
X51110371Y-62689895D01*
X51111647Y-62714321D01*
X51126869Y-62774307D01*
X51127534Y-62777710D01*
X51127538Y-62777724D01*
X51138755Y-62835116D01*
X51138757Y-62835122D01*
X51144725Y-62849667D01*
X51144726Y-62849667D01*
X51148046Y-62857759D01*
X51154066Y-62881481D01*
X51180715Y-62937378D01*
X51182019Y-62940556D01*
X51182019Y-62940557D01*
X51190615Y-62961506D01*
X51204223Y-62994671D01*
X51217752Y-63015066D01*
X51228283Y-63037154D01*
X51265318Y-63086770D01*
X51298153Y-63136267D01*
X51299556Y-63138381D01*
X51299555Y-63138381D01*
X51299557Y-63138383D01*
X51316807Y-63155748D01*
X51331443Y-63175356D01*
X51377445Y-63216792D01*
X51421096Y-63260735D01*
X51434148Y-63269519D01*
X51447895Y-63280250D01*
X52397079Y-64135223D01*
X52441901Y-64180045D01*
X52461028Y-64192825D01*
X52467680Y-64198817D01*
X52467681Y-64198818D01*
X52478121Y-64208222D01*
X52478123Y-64208223D01*
X52478124Y-64208224D01*
X52532594Y-64240644D01*
X52585295Y-64275858D01*
X52606547Y-64284661D01*
X52626319Y-64296429D01*
X52683022Y-64316519D01*
X52689035Y-64318827D01*
X52744626Y-64341855D01*
X52767188Y-64346343D01*
X52788875Y-64354027D01*
X52851608Y-64363135D01*
X52913771Y-64375500D01*
X52927820Y-64375500D01*
X52945636Y-64376786D01*
X52959544Y-64378806D01*
X53019613Y-64375669D01*
X53026080Y-64375500D01*
X53275500Y-64375500D01*
X53342539Y-64395185D01*
X53388294Y-64447989D01*
X53399500Y-64499500D01*
X53399500Y-67547870D01*
X53399501Y-67547876D01*
X53405908Y-67607483D01*
X53456202Y-67742328D01*
X53456206Y-67742335D01*
X53542452Y-67857544D01*
X53542455Y-67857547D01*
X53657664Y-67943793D01*
X53657671Y-67943797D01*
X53792517Y-67994091D01*
X53792516Y-67994091D01*
X53799444Y-67994835D01*
X53852127Y-68000500D01*
X56947872Y-68000499D01*
X57007483Y-67994091D01*
X57142331Y-67943796D01*
X57257546Y-67857546D01*
X57343796Y-67742331D01*
X57394091Y-67607483D01*
X57400500Y-67547873D01*
X57400499Y-67473912D01*
X57420183Y-67406875D01*
X57472986Y-67361119D01*
X57542144Y-67351175D01*
X57605701Y-67380199D01*
X57612180Y-67386232D01*
X58984047Y-68758099D01*
X59105990Y-68880042D01*
X59105994Y-68880046D01*
X59249380Y-68975854D01*
X59249393Y-68975861D01*
X59408713Y-69041853D01*
X59408718Y-69041855D01*
X59577511Y-69075430D01*
X59577858Y-69075499D01*
X59577861Y-69075500D01*
X59577863Y-69075500D01*
X69886231Y-69075500D01*
X69886232Y-69075499D01*
X70055374Y-69041855D01*
X70214705Y-68975858D01*
X70358099Y-68880045D01*
X73080045Y-66158099D01*
X73175858Y-66014705D01*
X73241855Y-65855374D01*
X73275500Y-65686229D01*
X73275500Y-65513771D01*
X73275500Y-63702135D01*
X74609500Y-63702135D01*
X74609500Y-65497870D01*
X74609501Y-65497876D01*
X74615908Y-65557483D01*
X74666202Y-65692328D01*
X74666206Y-65692335D01*
X74752452Y-65807544D01*
X74752455Y-65807547D01*
X74867664Y-65893793D01*
X74867671Y-65893797D01*
X75002517Y-65944091D01*
X75002516Y-65944091D01*
X75009444Y-65944835D01*
X75062127Y-65950500D01*
X76857872Y-65950499D01*
X76917483Y-65944091D01*
X77052331Y-65893796D01*
X77167546Y-65807546D01*
X77253796Y-65692331D01*
X77302810Y-65560916D01*
X77344681Y-65504984D01*
X77410145Y-65480566D01*
X77478418Y-65495417D01*
X77506673Y-65516569D01*
X77620213Y-65630109D01*
X77792179Y-65755048D01*
X77792181Y-65755049D01*
X77792184Y-65755051D01*
X77981588Y-65851557D01*
X78183757Y-65917246D01*
X78393713Y-65950500D01*
X78393714Y-65950500D01*
X78606286Y-65950500D01*
X78606287Y-65950500D01*
X78816243Y-65917246D01*
X79018412Y-65851557D01*
X79207816Y-65755051D01*
X79294138Y-65692335D01*
X79379786Y-65630109D01*
X79379788Y-65630106D01*
X79379792Y-65630104D01*
X79530104Y-65479792D01*
X79530106Y-65479788D01*
X79530109Y-65479786D01*
X79615890Y-65361717D01*
X79655051Y-65307816D01*
X79659793Y-65298508D01*
X79707763Y-65247711D01*
X79775583Y-65230911D01*
X79841719Y-65253445D01*
X79880763Y-65298500D01*
X79885373Y-65307547D01*
X79924728Y-65361716D01*
X80557037Y-64729408D01*
X80574075Y-64792993D01*
X80639901Y-64907007D01*
X80732993Y-65000099D01*
X80847007Y-65065925D01*
X80910590Y-65082962D01*
X80278282Y-65715269D01*
X80278282Y-65715270D01*
X80332449Y-65754624D01*
X80521782Y-65851095D01*
X80723870Y-65916757D01*
X80933754Y-65950000D01*
X81146246Y-65950000D01*
X81356127Y-65916757D01*
X81356130Y-65916757D01*
X81558217Y-65851095D01*
X81747554Y-65754622D01*
X81801716Y-65715270D01*
X81801717Y-65715270D01*
X81169408Y-65082962D01*
X81232993Y-65065925D01*
X81347007Y-65000099D01*
X81440099Y-64907007D01*
X81505925Y-64792993D01*
X81522962Y-64729408D01*
X82155270Y-65361717D01*
X82155270Y-65361716D01*
X82194622Y-65307554D01*
X82291095Y-65118217D01*
X82356757Y-64916130D01*
X82356757Y-64916127D01*
X82390000Y-64706246D01*
X82390000Y-64493753D01*
X82356757Y-64283872D01*
X82356757Y-64283869D01*
X82291095Y-64081782D01*
X82194624Y-63892449D01*
X82155270Y-63838282D01*
X82155269Y-63838282D01*
X81522962Y-64470590D01*
X81505925Y-64407007D01*
X81440099Y-64292993D01*
X81347007Y-64199901D01*
X81232993Y-64134075D01*
X81169409Y-64117037D01*
X81584310Y-63702135D01*
X87209500Y-63702135D01*
X87209500Y-65497870D01*
X87209501Y-65497876D01*
X87215908Y-65557483D01*
X87266202Y-65692328D01*
X87266206Y-65692335D01*
X87352452Y-65807544D01*
X87352455Y-65807547D01*
X87467664Y-65893793D01*
X87467671Y-65893797D01*
X87602517Y-65944091D01*
X87602516Y-65944091D01*
X87609444Y-65944835D01*
X87662127Y-65950500D01*
X89457872Y-65950499D01*
X89517483Y-65944091D01*
X89652331Y-65893796D01*
X89767546Y-65807546D01*
X89853796Y-65692331D01*
X89902810Y-65560916D01*
X89944681Y-65504984D01*
X90010145Y-65480566D01*
X90078418Y-65495417D01*
X90106673Y-65516569D01*
X90220213Y-65630109D01*
X90392179Y-65755048D01*
X90392181Y-65755049D01*
X90392184Y-65755051D01*
X90581588Y-65851557D01*
X90783757Y-65917246D01*
X90993713Y-65950500D01*
X90993714Y-65950500D01*
X91206286Y-65950500D01*
X91206287Y-65950500D01*
X91416243Y-65917246D01*
X91618412Y-65851557D01*
X91807816Y-65755051D01*
X91894138Y-65692335D01*
X91979786Y-65630109D01*
X91979788Y-65630106D01*
X91979792Y-65630104D01*
X92130104Y-65479792D01*
X92130106Y-65479788D01*
X92130109Y-65479786D01*
X92215890Y-65361717D01*
X92255051Y-65307816D01*
X92259793Y-65298508D01*
X92307763Y-65247711D01*
X92375583Y-65230911D01*
X92441719Y-65253445D01*
X92480763Y-65298500D01*
X92485373Y-65307547D01*
X92524728Y-65361716D01*
X93157037Y-64729408D01*
X93174075Y-64792993D01*
X93239901Y-64907007D01*
X93332993Y-65000099D01*
X93447007Y-65065925D01*
X93510590Y-65082962D01*
X92878282Y-65715269D01*
X92878282Y-65715270D01*
X92932449Y-65754624D01*
X93121782Y-65851095D01*
X93323870Y-65916757D01*
X93533754Y-65950000D01*
X93746246Y-65950000D01*
X93956127Y-65916757D01*
X93956130Y-65916757D01*
X94158217Y-65851095D01*
X94347554Y-65754622D01*
X94401716Y-65715270D01*
X94401717Y-65715270D01*
X93769408Y-65082962D01*
X93832993Y-65065925D01*
X93947007Y-65000099D01*
X94040099Y-64907007D01*
X94105925Y-64792993D01*
X94122962Y-64729408D01*
X94755270Y-65361717D01*
X94755270Y-65361716D01*
X94794622Y-65307554D01*
X94891095Y-65118217D01*
X94956757Y-64916130D01*
X94956757Y-64916127D01*
X94990000Y-64706246D01*
X94990000Y-64493753D01*
X94956757Y-64283872D01*
X94956757Y-64283869D01*
X94891095Y-64081782D01*
X94794624Y-63892449D01*
X94755270Y-63838282D01*
X94755269Y-63838282D01*
X94122962Y-64470590D01*
X94105925Y-64407007D01*
X94040099Y-64292993D01*
X93947007Y-64199901D01*
X93832993Y-64134075D01*
X93769409Y-64117037D01*
X94184310Y-63702135D01*
X99509500Y-63702135D01*
X99509500Y-65497870D01*
X99509501Y-65497876D01*
X99515908Y-65557483D01*
X99566202Y-65692328D01*
X99566206Y-65692335D01*
X99652452Y-65807544D01*
X99652455Y-65807547D01*
X99767664Y-65893793D01*
X99767671Y-65893797D01*
X99902517Y-65944091D01*
X99902516Y-65944091D01*
X99909444Y-65944835D01*
X99962127Y-65950500D01*
X101757872Y-65950499D01*
X101817483Y-65944091D01*
X101952331Y-65893796D01*
X102067546Y-65807546D01*
X102153796Y-65692331D01*
X102202810Y-65560916D01*
X102244681Y-65504984D01*
X102310145Y-65480566D01*
X102378418Y-65495417D01*
X102406673Y-65516569D01*
X102520213Y-65630109D01*
X102692179Y-65755048D01*
X102692181Y-65755049D01*
X102692184Y-65755051D01*
X102881588Y-65851557D01*
X103083757Y-65917246D01*
X103293713Y-65950500D01*
X103293714Y-65950500D01*
X103506286Y-65950500D01*
X103506287Y-65950500D01*
X103716243Y-65917246D01*
X103918412Y-65851557D01*
X104107816Y-65755051D01*
X104194138Y-65692335D01*
X104279786Y-65630109D01*
X104279788Y-65630106D01*
X104279792Y-65630104D01*
X104430104Y-65479792D01*
X104430106Y-65479788D01*
X104430109Y-65479786D01*
X104515890Y-65361717D01*
X104555051Y-65307816D01*
X104559793Y-65298508D01*
X104607763Y-65247711D01*
X104675583Y-65230911D01*
X104741719Y-65253445D01*
X104780763Y-65298500D01*
X104785373Y-65307547D01*
X104824728Y-65361716D01*
X105457037Y-64729408D01*
X105474075Y-64792993D01*
X105539901Y-64907007D01*
X105632993Y-65000099D01*
X105747007Y-65065925D01*
X105810590Y-65082962D01*
X105178282Y-65715269D01*
X105178282Y-65715270D01*
X105232449Y-65754624D01*
X105421782Y-65851095D01*
X105623870Y-65916757D01*
X105833754Y-65950000D01*
X106046246Y-65950000D01*
X106256127Y-65916757D01*
X106256130Y-65916757D01*
X106458217Y-65851095D01*
X106647554Y-65754622D01*
X106701716Y-65715270D01*
X106701717Y-65715270D01*
X106069408Y-65082962D01*
X106132993Y-65065925D01*
X106247007Y-65000099D01*
X106340099Y-64907007D01*
X106405925Y-64792993D01*
X106422962Y-64729409D01*
X107055270Y-65361717D01*
X107055270Y-65361716D01*
X107094622Y-65307554D01*
X107191095Y-65118217D01*
X107256757Y-64916130D01*
X107256757Y-64916127D01*
X107290000Y-64706246D01*
X107290000Y-64493753D01*
X107256757Y-64283872D01*
X107256757Y-64283869D01*
X107191095Y-64081782D01*
X107094624Y-63892449D01*
X107055270Y-63838282D01*
X107055269Y-63838282D01*
X106422962Y-64470590D01*
X106405925Y-64407007D01*
X106340099Y-64292993D01*
X106247007Y-64199901D01*
X106132993Y-64134075D01*
X106069409Y-64117037D01*
X106701716Y-63484728D01*
X106647550Y-63445375D01*
X106458217Y-63348904D01*
X106256129Y-63283242D01*
X106046246Y-63250000D01*
X105833754Y-63250000D01*
X105623872Y-63283242D01*
X105623869Y-63283242D01*
X105421782Y-63348904D01*
X105232439Y-63445380D01*
X105178282Y-63484727D01*
X105178282Y-63484728D01*
X105810591Y-64117037D01*
X105747007Y-64134075D01*
X105632993Y-64199901D01*
X105539901Y-64292993D01*
X105474075Y-64407007D01*
X105457037Y-64470591D01*
X104824728Y-63838282D01*
X104824727Y-63838282D01*
X104785380Y-63892440D01*
X104785376Y-63892446D01*
X104780760Y-63901505D01*
X104732781Y-63952297D01*
X104664959Y-63969087D01*
X104598826Y-63946543D01*
X104559794Y-63901493D01*
X104555051Y-63892184D01*
X104555049Y-63892181D01*
X104555048Y-63892179D01*
X104430109Y-63720213D01*
X104279786Y-63569890D01*
X104107820Y-63444951D01*
X103918414Y-63348444D01*
X103918413Y-63348443D01*
X103918412Y-63348443D01*
X103716243Y-63282754D01*
X103716241Y-63282753D01*
X103716240Y-63282753D01*
X103554957Y-63257208D01*
X103506287Y-63249500D01*
X103293713Y-63249500D01*
X103245042Y-63257208D01*
X103083760Y-63282753D01*
X102881585Y-63348444D01*
X102692179Y-63444951D01*
X102520215Y-63569889D01*
X102406673Y-63683431D01*
X102345350Y-63716915D01*
X102275658Y-63711931D01*
X102219725Y-63670059D01*
X102202810Y-63639082D01*
X102153797Y-63507671D01*
X102153793Y-63507664D01*
X102067547Y-63392455D01*
X102067544Y-63392452D01*
X101952335Y-63306206D01*
X101952328Y-63306202D01*
X101817482Y-63255908D01*
X101817483Y-63255908D01*
X101757883Y-63249501D01*
X101757881Y-63249500D01*
X101757873Y-63249500D01*
X101757864Y-63249500D01*
X99962129Y-63249500D01*
X99962123Y-63249501D01*
X99902516Y-63255908D01*
X99767671Y-63306202D01*
X99767664Y-63306206D01*
X99652455Y-63392452D01*
X99652452Y-63392455D01*
X99566206Y-63507664D01*
X99566202Y-63507671D01*
X99515908Y-63642517D01*
X99509501Y-63702116D01*
X99509500Y-63702135D01*
X94184310Y-63702135D01*
X94275320Y-63611125D01*
X94401716Y-63484728D01*
X94347550Y-63445375D01*
X94158217Y-63348904D01*
X93956129Y-63283242D01*
X93746246Y-63250000D01*
X93533754Y-63250000D01*
X93323872Y-63283242D01*
X93323869Y-63283242D01*
X93121782Y-63348904D01*
X92932439Y-63445380D01*
X92878282Y-63484727D01*
X92878282Y-63484728D01*
X93510591Y-64117037D01*
X93447007Y-64134075D01*
X93332993Y-64199901D01*
X93239901Y-64292993D01*
X93174075Y-64407007D01*
X93157037Y-64470591D01*
X92524728Y-63838282D01*
X92524727Y-63838282D01*
X92485380Y-63892440D01*
X92485376Y-63892446D01*
X92480760Y-63901505D01*
X92432781Y-63952297D01*
X92364959Y-63969087D01*
X92298826Y-63946543D01*
X92259794Y-63901493D01*
X92255051Y-63892184D01*
X92255049Y-63892181D01*
X92255048Y-63892179D01*
X92130109Y-63720213D01*
X91979786Y-63569890D01*
X91807820Y-63444951D01*
X91618414Y-63348444D01*
X91618413Y-63348443D01*
X91618412Y-63348443D01*
X91416243Y-63282754D01*
X91416241Y-63282753D01*
X91416240Y-63282753D01*
X91254957Y-63257208D01*
X91206287Y-63249500D01*
X90993713Y-63249500D01*
X90945042Y-63257208D01*
X90783760Y-63282753D01*
X90581585Y-63348444D01*
X90392179Y-63444951D01*
X90220215Y-63569889D01*
X90106673Y-63683431D01*
X90045350Y-63716915D01*
X89975658Y-63711931D01*
X89919725Y-63670059D01*
X89902810Y-63639082D01*
X89853797Y-63507671D01*
X89853793Y-63507664D01*
X89767547Y-63392455D01*
X89767544Y-63392452D01*
X89652335Y-63306206D01*
X89652328Y-63306202D01*
X89517482Y-63255908D01*
X89517483Y-63255908D01*
X89457883Y-63249501D01*
X89457881Y-63249500D01*
X89457873Y-63249500D01*
X89457864Y-63249500D01*
X87662129Y-63249500D01*
X87662123Y-63249501D01*
X87602516Y-63255908D01*
X87467671Y-63306202D01*
X87467664Y-63306206D01*
X87352455Y-63392452D01*
X87352452Y-63392455D01*
X87266206Y-63507664D01*
X87266202Y-63507671D01*
X87215908Y-63642517D01*
X87209501Y-63702116D01*
X87209500Y-63702135D01*
X81584310Y-63702135D01*
X81675320Y-63611125D01*
X81801716Y-63484728D01*
X81747550Y-63445375D01*
X81558217Y-63348904D01*
X81356129Y-63283242D01*
X81146246Y-63250000D01*
X80933754Y-63250000D01*
X80723872Y-63283242D01*
X80723869Y-63283242D01*
X80521782Y-63348904D01*
X80332439Y-63445380D01*
X80278282Y-63484727D01*
X80278282Y-63484728D01*
X80910591Y-64117037D01*
X80847007Y-64134075D01*
X80732993Y-64199901D01*
X80639901Y-64292993D01*
X80574075Y-64407007D01*
X80557037Y-64470591D01*
X79924728Y-63838282D01*
X79924727Y-63838282D01*
X79885380Y-63892440D01*
X79885376Y-63892446D01*
X79880760Y-63901505D01*
X79832781Y-63952297D01*
X79764959Y-63969087D01*
X79698826Y-63946543D01*
X79659794Y-63901493D01*
X79655051Y-63892184D01*
X79655049Y-63892181D01*
X79655048Y-63892179D01*
X79530109Y-63720213D01*
X79379786Y-63569890D01*
X79207820Y-63444951D01*
X79018414Y-63348444D01*
X79018413Y-63348443D01*
X79018412Y-63348443D01*
X78816243Y-63282754D01*
X78816241Y-63282753D01*
X78816240Y-63282753D01*
X78654957Y-63257208D01*
X78606287Y-63249500D01*
X78393713Y-63249500D01*
X78345042Y-63257208D01*
X78183760Y-63282753D01*
X77981585Y-63348444D01*
X77792179Y-63444951D01*
X77620215Y-63569889D01*
X77506673Y-63683431D01*
X77445350Y-63716915D01*
X77375658Y-63711931D01*
X77319725Y-63670059D01*
X77302810Y-63639082D01*
X77253797Y-63507671D01*
X77253793Y-63507664D01*
X77167547Y-63392455D01*
X77167544Y-63392452D01*
X77052335Y-63306206D01*
X77052328Y-63306202D01*
X76917482Y-63255908D01*
X76917483Y-63255908D01*
X76857883Y-63249501D01*
X76857881Y-63249500D01*
X76857873Y-63249500D01*
X76857864Y-63249500D01*
X75062129Y-63249500D01*
X75062123Y-63249501D01*
X75002516Y-63255908D01*
X74867671Y-63306202D01*
X74867664Y-63306206D01*
X74752455Y-63392452D01*
X74752452Y-63392455D01*
X74666206Y-63507664D01*
X74666202Y-63507671D01*
X74615908Y-63642517D01*
X74609501Y-63702116D01*
X74609500Y-63702135D01*
X73275500Y-63702135D01*
X73275500Y-61614006D01*
X73295185Y-61546967D01*
X73311819Y-61526325D01*
X73526325Y-61311819D01*
X73587648Y-61278334D01*
X73614006Y-61275500D01*
X82826231Y-61275500D01*
X82826232Y-61275499D01*
X82995374Y-61241855D01*
X83118604Y-61190811D01*
X83154698Y-61175861D01*
X83154698Y-61175860D01*
X83154705Y-61175858D01*
X83298099Y-61080045D01*
X85541325Y-58836819D01*
X85602648Y-58803334D01*
X85629006Y-58800500D01*
X85742351Y-58800500D01*
X85742352Y-58800500D01*
X85944534Y-58768477D01*
X86139219Y-58705220D01*
X86321610Y-58612287D01*
X86414590Y-58544732D01*
X86487213Y-58491971D01*
X86487215Y-58491968D01*
X86487219Y-58491966D01*
X86631966Y-58347219D01*
X86631968Y-58347215D01*
X86631971Y-58347213D01*
X86706498Y-58244633D01*
X86752287Y-58181610D01*
X86845220Y-57999219D01*
X86908477Y-57804534D01*
X86940500Y-57602352D01*
X86940500Y-57397648D01*
X86908477Y-57195466D01*
X86890976Y-57141605D01*
X86873618Y-57088181D01*
X86845220Y-57000781D01*
X86845218Y-57000778D01*
X86845218Y-57000776D01*
X86811503Y-56934607D01*
X86752287Y-56818390D01*
X86744556Y-56807749D01*
X86631971Y-56652786D01*
X86487213Y-56508028D01*
X86321613Y-56387715D01*
X86321612Y-56387714D01*
X86321610Y-56387713D01*
X86264653Y-56358691D01*
X86139223Y-56294781D01*
X85944534Y-56231522D01*
X85769995Y-56203878D01*
X85742352Y-56199500D01*
X85537648Y-56199500D01*
X85513329Y-56203351D01*
X85335465Y-56231522D01*
X85140776Y-56294781D01*
X84958386Y-56387715D01*
X84792786Y-56508028D01*
X84648028Y-56652786D01*
X84527715Y-56818386D01*
X84434781Y-57000776D01*
X84371522Y-57195465D01*
X84339500Y-57397648D01*
X84339500Y-57510994D01*
X84319815Y-57578033D01*
X84303181Y-57598675D01*
X82413675Y-59488181D01*
X82352352Y-59521666D01*
X82325994Y-59524500D01*
X73113768Y-59524500D01*
X72944633Y-59558143D01*
X72944621Y-59558146D01*
X72785301Y-59624138D01*
X72785288Y-59624145D01*
X72641901Y-59719954D01*
X72641897Y-59719957D01*
X72000005Y-60361851D01*
X71841901Y-60519955D01*
X71780927Y-60580929D01*
X71719953Y-60641902D01*
X71624145Y-60785288D01*
X71624138Y-60785301D01*
X71558146Y-60944621D01*
X71558143Y-60944633D01*
X71524500Y-61113766D01*
X71524500Y-65185994D01*
X71504815Y-65253033D01*
X71488181Y-65273675D01*
X69473675Y-67288181D01*
X69412352Y-67321666D01*
X69385994Y-67324500D01*
X67156067Y-67324500D01*
X67089028Y-67304815D01*
X67043273Y-67252011D01*
X67033329Y-67182853D01*
X67057690Y-67125015D01*
X67066504Y-67113527D01*
X67197590Y-66886482D01*
X67197595Y-66886471D01*
X67297924Y-66644255D01*
X67365777Y-66391020D01*
X67365779Y-66391009D01*
X67399999Y-66131094D01*
X67400000Y-66131080D01*
X67400000Y-65868919D01*
X67399999Y-65868905D01*
X67365779Y-65608990D01*
X67365777Y-65608979D01*
X67297924Y-65355744D01*
X67197595Y-65113528D01*
X67197590Y-65113517D01*
X67066511Y-64886483D01*
X67066505Y-64886475D01*
X66979918Y-64773633D01*
X66979917Y-64773633D01*
X65964612Y-65788939D01*
X65959111Y-65768409D01*
X65880119Y-65631592D01*
X65768408Y-65519881D01*
X65631591Y-65440889D01*
X65611057Y-65435387D01*
X66626365Y-64420080D01*
X66513524Y-64333494D01*
X66513516Y-64333488D01*
X66286482Y-64202409D01*
X66286471Y-64202404D01*
X66044255Y-64102075D01*
X65791020Y-64034222D01*
X65791009Y-64034220D01*
X65531094Y-64000000D01*
X65268905Y-64000000D01*
X65008990Y-64034220D01*
X65008979Y-64034222D01*
X64755744Y-64102075D01*
X64513528Y-64202404D01*
X64513517Y-64202409D01*
X64286471Y-64333496D01*
X64173633Y-64420079D01*
X64173633Y-64420080D01*
X65188940Y-65435387D01*
X65168409Y-65440889D01*
X65031592Y-65519881D01*
X64919881Y-65631592D01*
X64840889Y-65768409D01*
X64835387Y-65788940D01*
X63820080Y-64773633D01*
X63820079Y-64773633D01*
X63733496Y-64886471D01*
X63602409Y-65113517D01*
X63602404Y-65113528D01*
X63502075Y-65355744D01*
X63434222Y-65608979D01*
X63434220Y-65608990D01*
X63400000Y-65868905D01*
X63400000Y-66131094D01*
X63434220Y-66391009D01*
X63434222Y-66391020D01*
X63502075Y-66644255D01*
X63602404Y-66886471D01*
X63602409Y-66886482D01*
X63733495Y-67113527D01*
X63742310Y-67125015D01*
X63767503Y-67190185D01*
X63753464Y-67258629D01*
X63704649Y-67308618D01*
X63643933Y-67324500D01*
X62156698Y-67324500D01*
X62089659Y-67304815D01*
X62043904Y-67252011D01*
X62033960Y-67182853D01*
X62058321Y-67125015D01*
X62061619Y-67120715D01*
X62066924Y-67113803D01*
X62198043Y-66886697D01*
X62298398Y-66644419D01*
X62366270Y-66391116D01*
X62400500Y-66131120D01*
X62400500Y-65868880D01*
X62366270Y-65608884D01*
X62298398Y-65355581D01*
X62278502Y-65307547D01*
X62198046Y-65113309D01*
X62198041Y-65113299D01*
X62066924Y-64886196D01*
X61907281Y-64678148D01*
X61907274Y-64678140D01*
X61721860Y-64492726D01*
X61721851Y-64492718D01*
X61513803Y-64333075D01*
X61337500Y-64231287D01*
X61289284Y-64180720D01*
X61275500Y-64123900D01*
X61275500Y-61813768D01*
X61275499Y-61813766D01*
X61241855Y-61644626D01*
X61207897Y-61562644D01*
X61175861Y-61485301D01*
X61175854Y-61485288D01*
X61080046Y-61341902D01*
X61025567Y-61287423D01*
X60958099Y-61219955D01*
X60858099Y-61119955D01*
X60858098Y-61119954D01*
X60858097Y-61119953D01*
X60714711Y-61024145D01*
X60714698Y-61024138D01*
X60555378Y-60958146D01*
X60555366Y-60958143D01*
X60386232Y-60924500D01*
X60386229Y-60924500D01*
X55118069Y-60924500D01*
X55051030Y-60904815D01*
X55029782Y-60887571D01*
X54928920Y-60785301D01*
X54126203Y-59971376D01*
X54093144Y-59909822D01*
X54090490Y-59884583D01*
X54090130Y-59724145D01*
X54080874Y-55596178D01*
X54100409Y-55529096D01*
X54153110Y-55483222D01*
X54222246Y-55473124D01*
X54277759Y-55495583D01*
X54287076Y-55502352D01*
X54438390Y-55612287D01*
X54554607Y-55671503D01*
X54620776Y-55705218D01*
X54620778Y-55705218D01*
X54620781Y-55705220D01*
X54685736Y-55726325D01*
X54815465Y-55768477D01*
X54916557Y-55784488D01*
X55017648Y-55800500D01*
X55017649Y-55800500D01*
X55222351Y-55800500D01*
X55222352Y-55800500D01*
X55424534Y-55768477D01*
X55619219Y-55705220D01*
X55801610Y-55612287D01*
X55931250Y-55518099D01*
X55967213Y-55491971D01*
X55967215Y-55491968D01*
X55967219Y-55491966D01*
X56047366Y-55411819D01*
X56108689Y-55378334D01*
X56135047Y-55375500D01*
X60686231Y-55375500D01*
X60686232Y-55375499D01*
X60855374Y-55341855D01*
X60999027Y-55282352D01*
X61014698Y-55275861D01*
X61014698Y-55275860D01*
X61014705Y-55275858D01*
X61158099Y-55180045D01*
X61433389Y-54904755D01*
X61712889Y-54625256D01*
X62088145Y-54250000D01*
X64003391Y-54250000D01*
X64964314Y-54250000D01*
X64959920Y-54254394D01*
X64907259Y-54345606D01*
X64880000Y-54447339D01*
X64880000Y-54552661D01*
X64907259Y-54654394D01*
X64959920Y-54745606D01*
X64964314Y-54750000D01*
X64003391Y-54750000D01*
X64012009Y-54804413D01*
X64075244Y-54999029D01*
X64168140Y-55181349D01*
X64288417Y-55346894D01*
X64288417Y-55346895D01*
X64433104Y-55491582D01*
X64598650Y-55611859D01*
X64780968Y-55704754D01*
X64975578Y-55767988D01*
X65030000Y-55776607D01*
X65030000Y-54815686D01*
X65034394Y-54820080D01*
X65125606Y-54872741D01*
X65227339Y-54900000D01*
X65332661Y-54900000D01*
X65434394Y-54872741D01*
X65525606Y-54820080D01*
X65530000Y-54815686D01*
X65530000Y-55776606D01*
X65584421Y-55767988D01*
X65779031Y-55704754D01*
X65961349Y-55611859D01*
X66126894Y-55491582D01*
X66126895Y-55491582D01*
X66271582Y-55346895D01*
X66271582Y-55346894D01*
X66391859Y-55181349D01*
X66484755Y-54999029D01*
X66547990Y-54804413D01*
X66556609Y-54750000D01*
X65595686Y-54750000D01*
X65600080Y-54745606D01*
X65652741Y-54654394D01*
X65680000Y-54552661D01*
X65680000Y-54447339D01*
X65652741Y-54345606D01*
X65600080Y-54254394D01*
X65595686Y-54250000D01*
X66556609Y-54250000D01*
X66547990Y-54195586D01*
X66484755Y-54000970D01*
X66391859Y-53818650D01*
X66271582Y-53653105D01*
X66271582Y-53653104D01*
X66126895Y-53508417D01*
X65961349Y-53388140D01*
X65779029Y-53295244D01*
X65584413Y-53232009D01*
X65530000Y-53223390D01*
X65530000Y-54184314D01*
X65525606Y-54179920D01*
X65434394Y-54127259D01*
X65332661Y-54100000D01*
X65227339Y-54100000D01*
X65125606Y-54127259D01*
X65034394Y-54179920D01*
X65030000Y-54184314D01*
X65030000Y-53223390D01*
X64975586Y-53232009D01*
X64780970Y-53295244D01*
X64598650Y-53388140D01*
X64433105Y-53508417D01*
X64433104Y-53508417D01*
X64288417Y-53653104D01*
X64288417Y-53653105D01*
X64168140Y-53818650D01*
X64075244Y-54000970D01*
X64012009Y-54195586D01*
X64003391Y-54250000D01*
X62088145Y-54250000D01*
X62138763Y-54199382D01*
X64040042Y-52298102D01*
X64040045Y-52298099D01*
X64135858Y-52154705D01*
X64201855Y-51995374D01*
X64235500Y-51826229D01*
X64235500Y-51653771D01*
X64235500Y-48935047D01*
X64255185Y-48868008D01*
X64271819Y-48847366D01*
X64299143Y-48820042D01*
X64351966Y-48767219D01*
X64351968Y-48767215D01*
X64351971Y-48767213D01*
X64472284Y-48601614D01*
X64472286Y-48601611D01*
X64472287Y-48601610D01*
X64519516Y-48508917D01*
X64567489Y-48458123D01*
X64635310Y-48441328D01*
X64701445Y-48463865D01*
X64740483Y-48508917D01*
X64777524Y-48581613D01*
X64787715Y-48601614D01*
X64908028Y-48767213D01*
X65052786Y-48911971D01*
X65190858Y-49012284D01*
X65218390Y-49032287D01*
X65311516Y-49079737D01*
X65400776Y-49125218D01*
X65400778Y-49125218D01*
X65400781Y-49125220D01*
X65505137Y-49159127D01*
X65595465Y-49188477D01*
X65671375Y-49200500D01*
X65797648Y-49220500D01*
X65797649Y-49220500D01*
X66002351Y-49220500D01*
X66002352Y-49220500D01*
X66204534Y-49188477D01*
X66399219Y-49125220D01*
X66581610Y-49032287D01*
X66710482Y-48938657D01*
X66747213Y-48911971D01*
X66747215Y-48911968D01*
X66747219Y-48911966D01*
X66891966Y-48767219D01*
X66891968Y-48767215D01*
X66891971Y-48767213D01*
X66996894Y-48622797D01*
X67012287Y-48601610D01*
X67059516Y-48508917D01*
X67107489Y-48458123D01*
X67175310Y-48441327D01*
X67241445Y-48463864D01*
X67280483Y-48508917D01*
X67286140Y-48520018D01*
X67327713Y-48601611D01*
X67448028Y-48767213D01*
X67592786Y-48911971D01*
X67730858Y-49012284D01*
X67758390Y-49032287D01*
X67851516Y-49079737D01*
X67940776Y-49125218D01*
X67940778Y-49125218D01*
X67940781Y-49125220D01*
X68045137Y-49159127D01*
X68135465Y-49188477D01*
X68211375Y-49200500D01*
X68337648Y-49220500D01*
X68337649Y-49220500D01*
X68542351Y-49220500D01*
X68542352Y-49220500D01*
X68744534Y-49188477D01*
X68939219Y-49125220D01*
X69121610Y-49032287D01*
X69250482Y-48938657D01*
X69287213Y-48911971D01*
X69287215Y-48911968D01*
X69287219Y-48911966D01*
X69431966Y-48767219D01*
X69431968Y-48767215D01*
X69431971Y-48767213D01*
X69505524Y-48665974D01*
X69552287Y-48601610D01*
X69645220Y-48419219D01*
X69708477Y-48224534D01*
X69740500Y-48022352D01*
X69740500Y-47017648D01*
X69717356Y-46871523D01*
X69708477Y-46815465D01*
X69674951Y-46712284D01*
X69645220Y-46620781D01*
X69645218Y-46620778D01*
X69645218Y-46620776D01*
X69593865Y-46519991D01*
X69552287Y-46438390D01*
X69511674Y-46382490D01*
X69431971Y-46272786D01*
X69287213Y-46128028D01*
X69121613Y-46007715D01*
X69121612Y-46007714D01*
X69121610Y-46007713D01*
X69061898Y-45977288D01*
X68939223Y-45914781D01*
X68744534Y-45851522D01*
X68569995Y-45823878D01*
X68542352Y-45819500D01*
X68337648Y-45819500D01*
X68313329Y-45823351D01*
X68135465Y-45851522D01*
X67940776Y-45914781D01*
X67758386Y-46007715D01*
X67592786Y-46128028D01*
X67448028Y-46272786D01*
X67327715Y-46438385D01*
X67323214Y-46447219D01*
X67280486Y-46531080D01*
X67280485Y-46531081D01*
X67232511Y-46581877D01*
X67164690Y-46598672D01*
X67098555Y-46576135D01*
X67059515Y-46531081D01*
X67059514Y-46531080D01*
X67012287Y-46438390D01*
X67012285Y-46438387D01*
X67012284Y-46438385D01*
X66891971Y-46272786D01*
X66747213Y-46128028D01*
X66581613Y-46007715D01*
X66581612Y-46007714D01*
X66581610Y-46007713D01*
X66521898Y-45977288D01*
X66399223Y-45914781D01*
X66204534Y-45851522D01*
X66029995Y-45823878D01*
X66002352Y-45819500D01*
X65797648Y-45819500D01*
X65773329Y-45823351D01*
X65595465Y-45851522D01*
X65400776Y-45914781D01*
X65218386Y-46007715D01*
X65052786Y-46128028D01*
X64908028Y-46272786D01*
X64787715Y-46438386D01*
X64740485Y-46531080D01*
X64692510Y-46581876D01*
X64624689Y-46598671D01*
X64558554Y-46576134D01*
X64519515Y-46531080D01*
X64502591Y-46497865D01*
X64472287Y-46438390D01*
X64431674Y-46382490D01*
X64351971Y-46272786D01*
X64207213Y-46128028D01*
X64041613Y-46007715D01*
X64041612Y-46007714D01*
X64041610Y-46007713D01*
X63981898Y-45977288D01*
X63859223Y-45914781D01*
X63664534Y-45851522D01*
X63489995Y-45823878D01*
X63462352Y-45819500D01*
X63257648Y-45819500D01*
X63233329Y-45823351D01*
X63055465Y-45851522D01*
X62860776Y-45914781D01*
X62678386Y-46007715D01*
X62512786Y-46128028D01*
X62368028Y-46272786D01*
X62247715Y-46438386D01*
X62200485Y-46531080D01*
X62152510Y-46581876D01*
X62084689Y-46598671D01*
X62018554Y-46576134D01*
X61979515Y-46531080D01*
X61962591Y-46497865D01*
X61932287Y-46438390D01*
X61891674Y-46382490D01*
X61811971Y-46272786D01*
X61667213Y-46128028D01*
X61501613Y-46007715D01*
X61501612Y-46007714D01*
X61501610Y-46007713D01*
X61441898Y-45977288D01*
X61319223Y-45914781D01*
X61124534Y-45851522D01*
X60949995Y-45823878D01*
X60922352Y-45819500D01*
X60717648Y-45819500D01*
X60693329Y-45823351D01*
X60515465Y-45851522D01*
X60320776Y-45914781D01*
X60138386Y-46007715D01*
X59972786Y-46128028D01*
X59828028Y-46272786D01*
X59707715Y-46438386D01*
X59660485Y-46531080D01*
X59612510Y-46581876D01*
X59544689Y-46598671D01*
X59478554Y-46576134D01*
X59439515Y-46531080D01*
X59422591Y-46497865D01*
X59392287Y-46438390D01*
X59351674Y-46382490D01*
X59271971Y-46272786D01*
X59127213Y-46128028D01*
X58961613Y-46007715D01*
X58961612Y-46007714D01*
X58961610Y-46007713D01*
X58901898Y-45977288D01*
X58779223Y-45914781D01*
X58584534Y-45851522D01*
X58409995Y-45823878D01*
X58382352Y-45819500D01*
X58177648Y-45819500D01*
X58143951Y-45824837D01*
X57975461Y-45851523D01*
X57973784Y-45851926D01*
X57973128Y-45851893D01*
X57970654Y-45852285D01*
X57970571Y-45851764D01*
X57904002Y-45848425D01*
X57857173Y-45819029D01*
X56358102Y-44319957D01*
X56358098Y-44319954D01*
X56214711Y-44224145D01*
X56214698Y-44224138D01*
X56055378Y-44158146D01*
X56055366Y-44158143D01*
X55886232Y-44124500D01*
X55886229Y-44124500D01*
X55713771Y-44124500D01*
X55713770Y-44124500D01*
X55665239Y-44134153D01*
X55625203Y-44142117D01*
X55601013Y-44144500D01*
X50515047Y-44144500D01*
X50448008Y-44124815D01*
X50427366Y-44108181D01*
X50347213Y-44028028D01*
X50181613Y-43907715D01*
X50181612Y-43907714D01*
X50181610Y-43907713D01*
X50124653Y-43878691D01*
X49999223Y-43814781D01*
X49804534Y-43751522D01*
X49629995Y-43723878D01*
X49602352Y-43719500D01*
X49602351Y-43719500D01*
X49489006Y-43719500D01*
X49421967Y-43699815D01*
X49401325Y-43683181D01*
X48911819Y-43193675D01*
X48878334Y-43132352D01*
X48875500Y-43105994D01*
X48875500Y-40814006D01*
X48895185Y-40746967D01*
X48911819Y-40726325D01*
X49580042Y-40058102D01*
X49580045Y-40058099D01*
X49675858Y-39914705D01*
X49741855Y-39755374D01*
X49775500Y-39586229D01*
X49775500Y-39413771D01*
X49775500Y-39397648D01*
X51899500Y-39397648D01*
X51899500Y-40402351D01*
X51931522Y-40604534D01*
X51994781Y-40799223D01*
X52058691Y-40924653D01*
X52077522Y-40961610D01*
X52087715Y-40981613D01*
X52208028Y-41147213D01*
X52352786Y-41291971D01*
X52474016Y-41380048D01*
X52518390Y-41412287D01*
X52584544Y-41445994D01*
X52700776Y-41505218D01*
X52700778Y-41505218D01*
X52700781Y-41505220D01*
X52805137Y-41539127D01*
X52895465Y-41568477D01*
X52971375Y-41580500D01*
X53097648Y-41600500D01*
X53097649Y-41600500D01*
X53302351Y-41600500D01*
X53302352Y-41600500D01*
X53504534Y-41568477D01*
X53699219Y-41505220D01*
X53881610Y-41412287D01*
X53978489Y-41341901D01*
X54047213Y-41291971D01*
X54047215Y-41291968D01*
X54047219Y-41291966D01*
X54191966Y-41147219D01*
X54191968Y-41147215D01*
X54191971Y-41147213D01*
X54276298Y-41031144D01*
X54312287Y-40981610D01*
X54359516Y-40888917D01*
X54407489Y-40838123D01*
X54475310Y-40821327D01*
X54541445Y-40843864D01*
X54580485Y-40888919D01*
X54627713Y-40981611D01*
X54748028Y-41147213D01*
X54892786Y-41291971D01*
X55014016Y-41380048D01*
X55058390Y-41412287D01*
X55124544Y-41445994D01*
X55240776Y-41505218D01*
X55240778Y-41505218D01*
X55240781Y-41505220D01*
X55345137Y-41539127D01*
X55435465Y-41568477D01*
X55511375Y-41580500D01*
X55637648Y-41600500D01*
X55637649Y-41600500D01*
X55842351Y-41600500D01*
X55842352Y-41600500D01*
X56044534Y-41568477D01*
X56239219Y-41505220D01*
X56421610Y-41412287D01*
X56518489Y-41341901D01*
X56587213Y-41291971D01*
X56587215Y-41291968D01*
X56587219Y-41291966D01*
X56731966Y-41147219D01*
X56731968Y-41147215D01*
X56731971Y-41147213D01*
X56842136Y-40995582D01*
X56852287Y-40981610D01*
X56899516Y-40888917D01*
X56947489Y-40838123D01*
X57015310Y-40821328D01*
X57081445Y-40843865D01*
X57120483Y-40888917D01*
X57157525Y-40961614D01*
X57167715Y-40981614D01*
X57288028Y-41147213D01*
X57432786Y-41291971D01*
X57554016Y-41380048D01*
X57598390Y-41412287D01*
X57664544Y-41445994D01*
X57780776Y-41505218D01*
X57780778Y-41505218D01*
X57780781Y-41505220D01*
X57885137Y-41539127D01*
X57975465Y-41568477D01*
X58051375Y-41580500D01*
X58177648Y-41600500D01*
X58177649Y-41600500D01*
X58382351Y-41600500D01*
X58382352Y-41600500D01*
X58584534Y-41568477D01*
X58779219Y-41505220D01*
X58961610Y-41412287D01*
X59058489Y-41341901D01*
X59127213Y-41291971D01*
X59127215Y-41291968D01*
X59127219Y-41291966D01*
X59271966Y-41147219D01*
X59271968Y-41147215D01*
X59271971Y-41147213D01*
X59382136Y-40995582D01*
X59392287Y-40981610D01*
X59439795Y-40888369D01*
X59487770Y-40837574D01*
X59555591Y-40820779D01*
X59621725Y-40843316D01*
X59660765Y-40888370D01*
X59708140Y-40981349D01*
X59828417Y-41146894D01*
X59828417Y-41146895D01*
X59973104Y-41291582D01*
X60138650Y-41411859D01*
X60320968Y-41504754D01*
X60515578Y-41567988D01*
X60570000Y-41576607D01*
X60570000Y-40215686D01*
X60574394Y-40220080D01*
X60665606Y-40272741D01*
X60767339Y-40300000D01*
X60872661Y-40300000D01*
X60974394Y-40272741D01*
X61065606Y-40220080D01*
X61070000Y-40215686D01*
X61070000Y-41576606D01*
X61124421Y-41567988D01*
X61319031Y-41504754D01*
X61501349Y-41411859D01*
X61666894Y-41291582D01*
X61666895Y-41291582D01*
X61811582Y-41146895D01*
X61811582Y-41146894D01*
X61931861Y-40981347D01*
X61979234Y-40888371D01*
X62027208Y-40837575D01*
X62095028Y-40820779D01*
X62161164Y-40843316D01*
X62200203Y-40888369D01*
X62247713Y-40981611D01*
X62368028Y-41147213D01*
X62448181Y-41227366D01*
X62481666Y-41288689D01*
X62484500Y-41315047D01*
X62484500Y-41946233D01*
X62518143Y-42115366D01*
X62518146Y-42115378D01*
X62584138Y-42274698D01*
X62584145Y-42274711D01*
X62679954Y-42418098D01*
X62679957Y-42418102D01*
X64719955Y-44458099D01*
X64801472Y-44539616D01*
X64841902Y-44580046D01*
X64985288Y-44675854D01*
X64985301Y-44675861D01*
X65095885Y-44721666D01*
X65144626Y-44741855D01*
X65313766Y-44775499D01*
X65313769Y-44775500D01*
X65313771Y-44775500D01*
X69985994Y-44775500D01*
X70053033Y-44795185D01*
X70073675Y-44811819D01*
X70328181Y-45066325D01*
X70361666Y-45127648D01*
X70364500Y-45154006D01*
X70364500Y-54384953D01*
X70344815Y-54451992D01*
X70328181Y-54472634D01*
X70248032Y-54552782D01*
X70248028Y-54552786D01*
X70127715Y-54718386D01*
X70034781Y-54900776D01*
X69971522Y-55095465D01*
X69939500Y-55297648D01*
X69939500Y-55502351D01*
X69971522Y-55704534D01*
X70034781Y-55899223D01*
X70127715Y-56081613D01*
X70248028Y-56247213D01*
X70392786Y-56391971D01*
X70547749Y-56504556D01*
X70558390Y-56512287D01*
X70648299Y-56558098D01*
X70740776Y-56605218D01*
X70740778Y-56605218D01*
X70740781Y-56605220D01*
X70800119Y-56624500D01*
X70935465Y-56668477D01*
X71036557Y-56684488D01*
X71137648Y-56700500D01*
X71137649Y-56700500D01*
X71342351Y-56700500D01*
X71342352Y-56700500D01*
X71544534Y-56668477D01*
X71739219Y-56605220D01*
X71921610Y-56512287D01*
X72055913Y-56414711D01*
X72087213Y-56391971D01*
X72087215Y-56391968D01*
X72087219Y-56391966D01*
X72231966Y-56247219D01*
X72231968Y-56247215D01*
X72231971Y-56247213D01*
X72286640Y-56171966D01*
X72352287Y-56081610D01*
X72445220Y-55899219D01*
X72508477Y-55704534D01*
X72540500Y-55502352D01*
X72540500Y-55297648D01*
X72517114Y-55150000D01*
X80123391Y-55150000D01*
X81084314Y-55150000D01*
X81079920Y-55154394D01*
X81027259Y-55245606D01*
X81000000Y-55347339D01*
X81000000Y-55452661D01*
X81027259Y-55554394D01*
X81079920Y-55645606D01*
X81084314Y-55650000D01*
X80123391Y-55650000D01*
X80132009Y-55704413D01*
X80195244Y-55899029D01*
X80288140Y-56081349D01*
X80408417Y-56246894D01*
X80408417Y-56246895D01*
X80553104Y-56391582D01*
X80718650Y-56511859D01*
X80900968Y-56604754D01*
X81095578Y-56667988D01*
X81150000Y-56676607D01*
X81150000Y-55715686D01*
X81154394Y-55720080D01*
X81245606Y-55772741D01*
X81347339Y-55800000D01*
X81452661Y-55800000D01*
X81554394Y-55772741D01*
X81645606Y-55720080D01*
X81650000Y-55715686D01*
X81650000Y-56676606D01*
X81704421Y-56667988D01*
X81899031Y-56604754D01*
X82081349Y-56511859D01*
X82246894Y-56391582D01*
X82246895Y-56391582D01*
X82391582Y-56246895D01*
X82391582Y-56246894D01*
X82511859Y-56081349D01*
X82604755Y-55899029D01*
X82667990Y-55704413D01*
X82676609Y-55650000D01*
X81715686Y-55650000D01*
X81720080Y-55645606D01*
X81772741Y-55554394D01*
X81800000Y-55452661D01*
X81800000Y-55347339D01*
X81772741Y-55245606D01*
X81720080Y-55154394D01*
X81715686Y-55150000D01*
X82676609Y-55150000D01*
X82667990Y-55095586D01*
X82604755Y-54900970D01*
X82511859Y-54718650D01*
X82391582Y-54553105D01*
X82391582Y-54553104D01*
X82246895Y-54408417D01*
X82081349Y-54288140D01*
X81899029Y-54195244D01*
X81704413Y-54132009D01*
X81650000Y-54123390D01*
X81650000Y-55084314D01*
X81645606Y-55079920D01*
X81554394Y-55027259D01*
X81452661Y-55000000D01*
X81347339Y-55000000D01*
X81245606Y-55027259D01*
X81154394Y-55079920D01*
X81150000Y-55084314D01*
X81150000Y-54123390D01*
X81095586Y-54132009D01*
X80900970Y-54195244D01*
X80718650Y-54288140D01*
X80553105Y-54408417D01*
X80553104Y-54408417D01*
X80408417Y-54553104D01*
X80408417Y-54553105D01*
X80288140Y-54718650D01*
X80195244Y-54900970D01*
X80132009Y-55095586D01*
X80123391Y-55150000D01*
X72517114Y-55150000D01*
X72508477Y-55095466D01*
X72445220Y-54900781D01*
X72445218Y-54900778D01*
X72445218Y-54900776D01*
X72396118Y-54804413D01*
X72352287Y-54718390D01*
X72305792Y-54654394D01*
X72231971Y-54552786D01*
X72151819Y-54472634D01*
X72118334Y-54411311D01*
X72115500Y-54384953D01*
X72115500Y-44653768D01*
X72115499Y-44653766D01*
X72081856Y-44484633D01*
X72081855Y-44484626D01*
X72063571Y-44440485D01*
X72015861Y-44325301D01*
X72015854Y-44325288D01*
X71920046Y-44181902D01*
X71862644Y-44124500D01*
X71798099Y-44059955D01*
X71384808Y-43646664D01*
X70958102Y-43219957D01*
X70958098Y-43219954D01*
X70814711Y-43124145D01*
X70814698Y-43124138D01*
X70655378Y-43058146D01*
X70655366Y-43058143D01*
X70486232Y-43024500D01*
X70486229Y-43024500D01*
X65814006Y-43024500D01*
X65746967Y-43004815D01*
X65726325Y-42988181D01*
X64551910Y-41813766D01*
X73224500Y-41813766D01*
X73224500Y-45586233D01*
X73258143Y-45755366D01*
X73258146Y-45755378D01*
X73324138Y-45914698D01*
X73324145Y-45914711D01*
X73419954Y-46058098D01*
X73419957Y-46058102D01*
X76181897Y-48820042D01*
X76181901Y-48820045D01*
X76325288Y-48915854D01*
X76325301Y-48915861D01*
X76446901Y-48966229D01*
X76484626Y-48981855D01*
X76637603Y-49012284D01*
X76653766Y-49015499D01*
X76653769Y-49015500D01*
X76653771Y-49015500D01*
X76826229Y-49015500D01*
X85064953Y-49015500D01*
X85131992Y-49035185D01*
X85152634Y-49051819D01*
X85232786Y-49131971D01*
X85387749Y-49244556D01*
X85398390Y-49252287D01*
X85481626Y-49294698D01*
X85491080Y-49299515D01*
X85541876Y-49347490D01*
X85558671Y-49415311D01*
X85536134Y-49481446D01*
X85491080Y-49520485D01*
X85398386Y-49567715D01*
X85232786Y-49688028D01*
X85088028Y-49832786D01*
X84967715Y-49998386D01*
X84874781Y-50180776D01*
X84811522Y-50375465D01*
X84779500Y-50577648D01*
X84779500Y-50782351D01*
X84811522Y-50984534D01*
X84874781Y-51179223D01*
X84899383Y-51227506D01*
X84956466Y-51339537D01*
X84967715Y-51361613D01*
X85088028Y-51527213D01*
X85232786Y-51671971D01*
X85398388Y-51792286D01*
X85398390Y-51792287D01*
X85536795Y-51862808D01*
X85587591Y-51910781D01*
X85604500Y-51973292D01*
X85604500Y-52966233D01*
X85638143Y-53135366D01*
X85638146Y-53135378D01*
X85704138Y-53294698D01*
X85704145Y-53294711D01*
X85799954Y-53438098D01*
X85799957Y-53438102D01*
X86219955Y-53858099D01*
X86307462Y-53945606D01*
X86341902Y-53980046D01*
X86485288Y-54075854D01*
X86485301Y-54075861D01*
X86644621Y-54141853D01*
X86644626Y-54141855D01*
X86813766Y-54175499D01*
X86813769Y-54175500D01*
X86813771Y-54175500D01*
X89000500Y-54175500D01*
X89067539Y-54195185D01*
X89113294Y-54247989D01*
X89124500Y-54299500D01*
X89124500Y-56086233D01*
X89158143Y-56255366D01*
X89158146Y-56255378D01*
X89224138Y-56414698D01*
X89224145Y-56414711D01*
X89319954Y-56558098D01*
X89319957Y-56558102D01*
X93819955Y-61058099D01*
X93881809Y-61119953D01*
X93941902Y-61180046D01*
X94085288Y-61275854D01*
X94085301Y-61275861D01*
X94244621Y-61341853D01*
X94244626Y-61341855D01*
X94342916Y-61361406D01*
X94413766Y-61375499D01*
X94413769Y-61375500D01*
X94413771Y-61375500D01*
X106086231Y-61375500D01*
X106086232Y-61375499D01*
X106255374Y-61341855D01*
X106386785Y-61287423D01*
X106414698Y-61275861D01*
X106414698Y-61275860D01*
X106414705Y-61275858D01*
X106558099Y-61180045D01*
X106680045Y-61058099D01*
X106775858Y-60914705D01*
X106841855Y-60755374D01*
X106875500Y-60586229D01*
X106875500Y-60413771D01*
X106875500Y-60413768D01*
X106875499Y-60413766D01*
X106841856Y-60244633D01*
X106841855Y-60244626D01*
X106804235Y-60153803D01*
X106775861Y-60085301D01*
X106775854Y-60085288D01*
X106680045Y-59941901D01*
X106680042Y-59941897D01*
X106558102Y-59819957D01*
X106558098Y-59819954D01*
X106414711Y-59724145D01*
X106414698Y-59724138D01*
X106255378Y-59658146D01*
X106255366Y-59658143D01*
X106086232Y-59624500D01*
X106086229Y-59624500D01*
X94914006Y-59624500D01*
X94846967Y-59604815D01*
X94826325Y-59588181D01*
X90911819Y-55673675D01*
X90878334Y-55612352D01*
X90875500Y-55585994D01*
X90875500Y-54299500D01*
X90895185Y-54232461D01*
X90947989Y-54186706D01*
X90999500Y-54175500D01*
X95186231Y-54175500D01*
X95186232Y-54175499D01*
X95355374Y-54141855D01*
X95514705Y-54075858D01*
X95514710Y-54075854D01*
X95514713Y-54075853D01*
X95586844Y-54027656D01*
X95653521Y-54006777D01*
X95720902Y-54025261D01*
X95767592Y-54077239D01*
X95778769Y-54146209D01*
X95750884Y-54210273D01*
X95743417Y-54218438D01*
X95489222Y-54472634D01*
X95241901Y-54719955D01*
X95182382Y-54779474D01*
X95119953Y-54841902D01*
X95024145Y-54985288D01*
X95024138Y-54985301D01*
X94958146Y-55144621D01*
X94958143Y-55144633D01*
X94924500Y-55313766D01*
X94924500Y-56484953D01*
X94904815Y-56551992D01*
X94888181Y-56572634D01*
X94808032Y-56652782D01*
X94808028Y-56652786D01*
X94687715Y-56818386D01*
X94594781Y-57000776D01*
X94531522Y-57195465D01*
X94499500Y-57397648D01*
X94499500Y-57602351D01*
X94531522Y-57804534D01*
X94594781Y-57999223D01*
X94687715Y-58181613D01*
X94808028Y-58347213D01*
X94952786Y-58491971D01*
X95082529Y-58586233D01*
X95118390Y-58612287D01*
X95190216Y-58648884D01*
X95300776Y-58705218D01*
X95300778Y-58705218D01*
X95300781Y-58705220D01*
X95405137Y-58739127D01*
X95495465Y-58768477D01*
X95596557Y-58784488D01*
X95697648Y-58800500D01*
X95697649Y-58800500D01*
X95902351Y-58800500D01*
X95902352Y-58800500D01*
X96104534Y-58768477D01*
X96299219Y-58705220D01*
X96481610Y-58612287D01*
X96574590Y-58544732D01*
X96647213Y-58491971D01*
X96647215Y-58491968D01*
X96647219Y-58491966D01*
X96727366Y-58411819D01*
X96788689Y-58378334D01*
X96815047Y-58375500D01*
X111985994Y-58375500D01*
X112053033Y-58395185D01*
X112073675Y-58411819D01*
X117449675Y-63787819D01*
X117483160Y-63849142D01*
X117478176Y-63918834D01*
X117436304Y-63974767D01*
X117370840Y-63999184D01*
X117361994Y-63999500D01*
X114352129Y-63999500D01*
X114352123Y-63999501D01*
X114292516Y-64005908D01*
X114157671Y-64056202D01*
X114157664Y-64056206D01*
X114042455Y-64142452D01*
X114042452Y-64142455D01*
X113956206Y-64257664D01*
X113956202Y-64257671D01*
X113905908Y-64392517D01*
X113899501Y-64452116D01*
X113899500Y-64452135D01*
X113899500Y-67547870D01*
X113899501Y-67547876D01*
X113905908Y-67607483D01*
X113956202Y-67742328D01*
X113956206Y-67742335D01*
X114042452Y-67857544D01*
X114042455Y-67857547D01*
X114157664Y-67943793D01*
X114157671Y-67943797D01*
X114292517Y-67994091D01*
X114292516Y-67994091D01*
X114299444Y-67994835D01*
X114352127Y-68000500D01*
X117447872Y-68000499D01*
X117507483Y-67994091D01*
X117642331Y-67943796D01*
X117757546Y-67857546D01*
X117843796Y-67742331D01*
X117894091Y-67607483D01*
X117900500Y-67547873D01*
X117900499Y-64538004D01*
X117920184Y-64470966D01*
X117972988Y-64425211D01*
X118042146Y-64415267D01*
X118105702Y-64444292D01*
X118112180Y-64450324D01*
X118954325Y-65292469D01*
X118987810Y-65353792D01*
X118986419Y-65412243D01*
X118933730Y-65608884D01*
X118899500Y-65868872D01*
X118899500Y-66131127D01*
X118926123Y-66333339D01*
X118933730Y-66391116D01*
X118962494Y-66498464D01*
X119001602Y-66644418D01*
X119001605Y-66644428D01*
X119101953Y-66886690D01*
X119101958Y-66886700D01*
X119233075Y-67113803D01*
X119392718Y-67321851D01*
X119392726Y-67321860D01*
X119578140Y-67507274D01*
X119578148Y-67507281D01*
X119786196Y-67666924D01*
X120013299Y-67798041D01*
X120013309Y-67798046D01*
X120255571Y-67898394D01*
X120255581Y-67898398D01*
X120508884Y-67966270D01*
X120757188Y-67998960D01*
X120768864Y-68000498D01*
X120768880Y-68000500D01*
X120768887Y-68000500D01*
X121031113Y-68000500D01*
X121031120Y-68000500D01*
X121291116Y-67966270D01*
X121544419Y-67898398D01*
X121745713Y-67815019D01*
X121786690Y-67798046D01*
X121786691Y-67798045D01*
X121786697Y-67798043D01*
X122013803Y-67666924D01*
X122221851Y-67507282D01*
X122221855Y-67507277D01*
X122221860Y-67507274D01*
X122407274Y-67321860D01*
X122407277Y-67321855D01*
X122407282Y-67321851D01*
X122566924Y-67113803D01*
X122698043Y-66886697D01*
X122798398Y-66644419D01*
X122866270Y-66391116D01*
X122900500Y-66131120D01*
X122900500Y-65868880D01*
X122866270Y-65608884D01*
X122798398Y-65355581D01*
X122778502Y-65307547D01*
X122698046Y-65113309D01*
X122698041Y-65113299D01*
X122566924Y-64886196D01*
X122407281Y-64678148D01*
X122407274Y-64678140D01*
X122221860Y-64492726D01*
X122221851Y-64492718D01*
X122013803Y-64333075D01*
X121786700Y-64201958D01*
X121786690Y-64201953D01*
X121544428Y-64101605D01*
X121544421Y-64101603D01*
X121544419Y-64101602D01*
X121291116Y-64033730D01*
X121233339Y-64026123D01*
X121031127Y-63999500D01*
X121031120Y-63999500D01*
X120768880Y-63999500D01*
X120768872Y-63999500D01*
X120508884Y-64033730D01*
X120312243Y-64086419D01*
X120242393Y-64084756D01*
X120192469Y-64054325D01*
X119825325Y-63687181D01*
X119791840Y-63625858D01*
X119796824Y-63556166D01*
X119838696Y-63500233D01*
X119904160Y-63475816D01*
X119913006Y-63475500D01*
X122085994Y-63475500D01*
X122153033Y-63495185D01*
X122173675Y-63511819D01*
X123954325Y-65292469D01*
X123987810Y-65353792D01*
X123986419Y-65412243D01*
X123933730Y-65608884D01*
X123899500Y-65868872D01*
X123899500Y-66131127D01*
X123926123Y-66333339D01*
X123933730Y-66391116D01*
X123962494Y-66498464D01*
X124001602Y-66644418D01*
X124001605Y-66644428D01*
X124101953Y-66886690D01*
X124101958Y-66886700D01*
X124233075Y-67113803D01*
X124392718Y-67321851D01*
X124392726Y-67321860D01*
X124578140Y-67507274D01*
X124578148Y-67507281D01*
X124786196Y-67666924D01*
X125013299Y-67798041D01*
X125013309Y-67798046D01*
X125255571Y-67898394D01*
X125255581Y-67898398D01*
X125508884Y-67966270D01*
X125757188Y-67998960D01*
X125768864Y-68000498D01*
X125768880Y-68000500D01*
X125768887Y-68000500D01*
X126031113Y-68000500D01*
X126031120Y-68000500D01*
X126291116Y-67966270D01*
X126544419Y-67898398D01*
X126745713Y-67815019D01*
X126786690Y-67798046D01*
X126786691Y-67798045D01*
X126786697Y-67798043D01*
X127013803Y-67666924D01*
X127221851Y-67507282D01*
X127221855Y-67507277D01*
X127221860Y-67507274D01*
X127407274Y-67321860D01*
X127407277Y-67321855D01*
X127407282Y-67321851D01*
X127566924Y-67113803D01*
X127698043Y-66886697D01*
X127798398Y-66644419D01*
X127866270Y-66391116D01*
X127900500Y-66131120D01*
X127900500Y-65868880D01*
X127866270Y-65608884D01*
X127798398Y-65355581D01*
X127778502Y-65307547D01*
X127698046Y-65113309D01*
X127698041Y-65113299D01*
X127567380Y-64886987D01*
X127567378Y-64886981D01*
X127567375Y-64886978D01*
X127566923Y-64886195D01*
X127522292Y-64828031D01*
X131499500Y-64828031D01*
X131499500Y-64859852D01*
X131499500Y-65171969D01*
X131505305Y-65230911D01*
X131533210Y-65514249D01*
X131600308Y-65851572D01*
X131700150Y-66180706D01*
X131831770Y-66498464D01*
X131831772Y-66498469D01*
X131993893Y-66801775D01*
X131993904Y-66801793D01*
X132184975Y-67087751D01*
X132184985Y-67087765D01*
X132403176Y-67353632D01*
X132646367Y-67596823D01*
X132646372Y-67596827D01*
X132646373Y-67596828D01*
X132912240Y-67815019D01*
X133198213Y-68006100D01*
X133198222Y-68006105D01*
X133198224Y-68006106D01*
X133501530Y-68168227D01*
X133501532Y-68168227D01*
X133501538Y-68168231D01*
X133819295Y-68299850D01*
X134148422Y-68399690D01*
X134485750Y-68466789D01*
X134828031Y-68500500D01*
X134828034Y-68500500D01*
X135171966Y-68500500D01*
X135171969Y-68500500D01*
X135514250Y-68466789D01*
X135851578Y-68399690D01*
X136180705Y-68299850D01*
X136498462Y-68168231D01*
X136801787Y-68006100D01*
X137087760Y-67815019D01*
X137353627Y-67596828D01*
X137596828Y-67353627D01*
X137815019Y-67087760D01*
X138006100Y-66801787D01*
X138168231Y-66498462D01*
X138299850Y-66180705D01*
X138399690Y-65851578D01*
X138466789Y-65514250D01*
X138500500Y-65171969D01*
X138500500Y-64828031D01*
X138466789Y-64485750D01*
X138408147Y-64190939D01*
X138399691Y-64148427D01*
X138399690Y-64148426D01*
X138399690Y-64148422D01*
X138299850Y-63819295D01*
X138168231Y-63501538D01*
X138167533Y-63500233D01*
X138006106Y-63198224D01*
X138006105Y-63198222D01*
X138006100Y-63198213D01*
X137815019Y-62912240D01*
X137596828Y-62646373D01*
X137596827Y-62646372D01*
X137596823Y-62646367D01*
X137353632Y-62403176D01*
X137087765Y-62184985D01*
X137087764Y-62184984D01*
X137087760Y-62184981D01*
X136801787Y-61993900D01*
X136801782Y-61993897D01*
X136801775Y-61993893D01*
X136498469Y-61831772D01*
X136498464Y-61831770D01*
X136480048Y-61824142D01*
X136320713Y-61758143D01*
X136180706Y-61700150D01*
X135851572Y-61600308D01*
X135514248Y-61533210D01*
X135514249Y-61533210D01*
X135256456Y-61507821D01*
X135171969Y-61499500D01*
X134828031Y-61499500D01*
X134749966Y-61507188D01*
X134485750Y-61533210D01*
X134148427Y-61600308D01*
X133819293Y-61700150D01*
X133501535Y-61831770D01*
X133501530Y-61831772D01*
X133198224Y-61993893D01*
X133198206Y-61993904D01*
X132912248Y-62184975D01*
X132912234Y-62184985D01*
X132646367Y-62403176D01*
X132403176Y-62646367D01*
X132184985Y-62912234D01*
X132184975Y-62912248D01*
X131993904Y-63198206D01*
X131993893Y-63198224D01*
X131831772Y-63501530D01*
X131831770Y-63501535D01*
X131700150Y-63819293D01*
X131600308Y-64148427D01*
X131533210Y-64485750D01*
X131511490Y-64706287D01*
X131499500Y-64828031D01*
X127522292Y-64828031D01*
X127407281Y-64678148D01*
X127407274Y-64678140D01*
X127221860Y-64492726D01*
X127221851Y-64492718D01*
X127013803Y-64333075D01*
X126786700Y-64201958D01*
X126786690Y-64201953D01*
X126544428Y-64101605D01*
X126544421Y-64101603D01*
X126544419Y-64101602D01*
X126291116Y-64033730D01*
X126233339Y-64026123D01*
X126031127Y-63999500D01*
X126031120Y-63999500D01*
X125768880Y-63999500D01*
X125768872Y-63999500D01*
X125508884Y-64033730D01*
X125312243Y-64086419D01*
X125242393Y-64084756D01*
X125192469Y-64054325D01*
X123058102Y-61919957D01*
X123058098Y-61919954D01*
X122914711Y-61824145D01*
X122914698Y-61824138D01*
X122755378Y-61758146D01*
X122755366Y-61758143D01*
X122586232Y-61724500D01*
X122586229Y-61724500D01*
X120214006Y-61724500D01*
X120146967Y-61704815D01*
X120126325Y-61688181D01*
X119856582Y-61418438D01*
X119823097Y-61357115D01*
X119828081Y-61287423D01*
X119869953Y-61231490D01*
X119935417Y-61207073D01*
X120003690Y-61221925D01*
X120013154Y-61227655D01*
X120084758Y-61275499D01*
X120085295Y-61275858D01*
X120085297Y-61275859D01*
X120085301Y-61275861D01*
X120244621Y-61341853D01*
X120244626Y-61341855D01*
X120342916Y-61361406D01*
X120413766Y-61375499D01*
X120413769Y-61375500D01*
X120413771Y-61375500D01*
X130086231Y-61375500D01*
X130086232Y-61375499D01*
X130255374Y-61341855D01*
X130386785Y-61287423D01*
X130414698Y-61275861D01*
X130414698Y-61275860D01*
X130414705Y-61275858D01*
X130558099Y-61180045D01*
X132680045Y-59058099D01*
X132775858Y-58914705D01*
X132781853Y-58900233D01*
X132833372Y-58775854D01*
X132841855Y-58755374D01*
X132875500Y-58586229D01*
X132875500Y-58413771D01*
X132875500Y-58413768D01*
X132875499Y-58413766D01*
X132841856Y-58244633D01*
X132841855Y-58244626D01*
X132815753Y-58181610D01*
X132775861Y-58085301D01*
X132775854Y-58085288D01*
X132680045Y-57941901D01*
X132680042Y-57941897D01*
X132558102Y-57819957D01*
X132558098Y-57819954D01*
X132414711Y-57724145D01*
X132414698Y-57724138D01*
X132255378Y-57658146D01*
X132255366Y-57658143D01*
X132086232Y-57624500D01*
X132086229Y-57624500D01*
X131913771Y-57624500D01*
X131913768Y-57624500D01*
X131744633Y-57658143D01*
X131744621Y-57658146D01*
X131585301Y-57724138D01*
X131585288Y-57724145D01*
X131441901Y-57819954D01*
X131441897Y-57819957D01*
X129673675Y-59588181D01*
X129612352Y-59621666D01*
X129585994Y-59624500D01*
X120413768Y-59624500D01*
X120244633Y-59658143D01*
X120244621Y-59658146D01*
X120085301Y-59724138D01*
X120085288Y-59724145D01*
X119941901Y-59819954D01*
X119941897Y-59819957D01*
X119819957Y-59941897D01*
X119819954Y-59941901D01*
X119724145Y-60085288D01*
X119724138Y-60085301D01*
X119658146Y-60244621D01*
X119658143Y-60244633D01*
X119624500Y-60413766D01*
X119624500Y-60586233D01*
X119658143Y-60755366D01*
X119658146Y-60755378D01*
X119724138Y-60914698D01*
X119724145Y-60914711D01*
X119772344Y-60986845D01*
X119793222Y-61053522D01*
X119774738Y-61120903D01*
X119722759Y-61167593D01*
X119653789Y-61178769D01*
X119589725Y-61150884D01*
X119581561Y-61143417D01*
X117525325Y-59087181D01*
X117491840Y-59025858D01*
X117496824Y-58956166D01*
X117538696Y-58900233D01*
X117604160Y-58875816D01*
X117613006Y-58875500D01*
X123286231Y-58875500D01*
X123286232Y-58875499D01*
X123455374Y-58841855D01*
X123614705Y-58775858D01*
X123758099Y-58680045D01*
X126920045Y-55518099D01*
X127015858Y-55374705D01*
X127081855Y-55215374D01*
X127115500Y-55046229D01*
X127115500Y-54873771D01*
X127115500Y-48915047D01*
X127135185Y-48848008D01*
X127151819Y-48827366D01*
X127189854Y-48789331D01*
X127231966Y-48747219D01*
X127231968Y-48747215D01*
X127231971Y-48747213D01*
X127352284Y-48581614D01*
X127352285Y-48581613D01*
X127352287Y-48581610D01*
X127399516Y-48488917D01*
X127447489Y-48438123D01*
X127515310Y-48421328D01*
X127581445Y-48443865D01*
X127620483Y-48488917D01*
X127664348Y-48575006D01*
X127667715Y-48581614D01*
X127788028Y-48747213D01*
X127868181Y-48827366D01*
X127901666Y-48888689D01*
X127904500Y-48915047D01*
X127904500Y-48966233D01*
X127938143Y-49135366D01*
X127938146Y-49135378D01*
X128004138Y-49294698D01*
X128004145Y-49294711D01*
X128099954Y-49438098D01*
X128099957Y-49438102D01*
X132263181Y-53601325D01*
X132296666Y-53662648D01*
X132299500Y-53689006D01*
X132299500Y-54547870D01*
X132299501Y-54547876D01*
X132305908Y-54607483D01*
X132356202Y-54742328D01*
X132356206Y-54742335D01*
X132442452Y-54857544D01*
X132442455Y-54857547D01*
X132557664Y-54943793D01*
X132557671Y-54943797D01*
X132692517Y-54994091D01*
X132692516Y-54994091D01*
X132699444Y-54994835D01*
X132752127Y-55000500D01*
X134447872Y-55000499D01*
X134507483Y-54994091D01*
X134642331Y-54943796D01*
X134757546Y-54857546D01*
X134843796Y-54742331D01*
X134894091Y-54607483D01*
X134900500Y-54547873D01*
X134900499Y-54535612D01*
X134904075Y-54521052D01*
X134914342Y-54503380D01*
X134920067Y-54483760D01*
X134931539Y-54473783D01*
X134939177Y-54460640D01*
X134957367Y-54451325D01*
X134972792Y-54437913D01*
X134989280Y-54434984D01*
X135001367Y-54428795D01*
X135016018Y-54430234D01*
X135016254Y-54430192D01*
X135700000Y-53746446D01*
X135700000Y-53752661D01*
X135727259Y-53854394D01*
X135779920Y-53945606D01*
X135854394Y-54020080D01*
X135945606Y-54072741D01*
X136047339Y-54100000D01*
X136053553Y-54100000D01*
X135374076Y-54779474D01*
X135418650Y-54811859D01*
X135600968Y-54904755D01*
X135795582Y-54967990D01*
X135997683Y-55000000D01*
X136202317Y-55000000D01*
X136404417Y-54967990D01*
X136599031Y-54904755D01*
X136781349Y-54811859D01*
X136825921Y-54779474D01*
X136146447Y-54100000D01*
X136152661Y-54100000D01*
X136254394Y-54072741D01*
X136345606Y-54020080D01*
X136420080Y-53945606D01*
X136472741Y-53854394D01*
X136500000Y-53752661D01*
X136500000Y-53746447D01*
X137179474Y-54425921D01*
X137211859Y-54381349D01*
X137304755Y-54199031D01*
X137367990Y-54004417D01*
X137400000Y-53802317D01*
X137400000Y-53597682D01*
X137367990Y-53395582D01*
X137304755Y-53200968D01*
X137211859Y-53018650D01*
X137179474Y-52974077D01*
X137179474Y-52974076D01*
X136500000Y-53653551D01*
X136500000Y-53647339D01*
X136472741Y-53545606D01*
X136420080Y-53454394D01*
X136345606Y-53379920D01*
X136254394Y-53327259D01*
X136152661Y-53300000D01*
X136146446Y-53300000D01*
X136825922Y-52620524D01*
X136825921Y-52620523D01*
X136781359Y-52588147D01*
X136781350Y-52588141D01*
X136599031Y-52495244D01*
X136404417Y-52432009D01*
X136202317Y-52400000D01*
X135997683Y-52400000D01*
X135795582Y-52432009D01*
X135600968Y-52495244D01*
X135418644Y-52588143D01*
X135374077Y-52620523D01*
X135374077Y-52620524D01*
X136053554Y-53300000D01*
X136047339Y-53300000D01*
X135945606Y-53327259D01*
X135854394Y-53379920D01*
X135779920Y-53454394D01*
X135727259Y-53545606D01*
X135700000Y-53647339D01*
X135700000Y-53653553D01*
X135015513Y-52969066D01*
X134965849Y-52958633D01*
X134916093Y-52909581D01*
X134904076Y-52878947D01*
X134900499Y-52864378D01*
X134900499Y-52852128D01*
X134894091Y-52792517D01*
X134861212Y-52704365D01*
X134861211Y-52704359D01*
X134843797Y-52657671D01*
X134843793Y-52657664D01*
X134757547Y-52542455D01*
X134757544Y-52542452D01*
X134642335Y-52456206D01*
X134642328Y-52456202D01*
X134507482Y-52405908D01*
X134507483Y-52405908D01*
X134447883Y-52399501D01*
X134447881Y-52399500D01*
X134447873Y-52399500D01*
X134447865Y-52399500D01*
X133589006Y-52399500D01*
X133521967Y-52379815D01*
X133501325Y-52363181D01*
X129894570Y-48756426D01*
X129861085Y-48695103D01*
X129866069Y-48625411D01*
X129881933Y-48595860D01*
X129892287Y-48581610D01*
X129985220Y-48399219D01*
X130048477Y-48204534D01*
X130080500Y-48002352D01*
X130080500Y-46997648D01*
X130070183Y-46932511D01*
X130048477Y-46795465D01*
X130001816Y-46651858D01*
X129985220Y-46600781D01*
X129985218Y-46600778D01*
X129985218Y-46600776D01*
X129949706Y-46531081D01*
X129892287Y-46418390D01*
X129884556Y-46407749D01*
X129771971Y-46252786D01*
X129627213Y-46108028D01*
X129461613Y-45987715D01*
X129461612Y-45987714D01*
X129461610Y-45987713D01*
X129389276Y-45950857D01*
X129279223Y-45894781D01*
X129084534Y-45831522D01*
X128890654Y-45800815D01*
X128882352Y-45799500D01*
X128677648Y-45799500D01*
X128669346Y-45800815D01*
X128475465Y-45831522D01*
X128280776Y-45894781D01*
X128098386Y-45987715D01*
X127932786Y-46108028D01*
X127788028Y-46252786D01*
X127667715Y-46418386D01*
X127620485Y-46511080D01*
X127572510Y-46561876D01*
X127504689Y-46578671D01*
X127438554Y-46556134D01*
X127399515Y-46511080D01*
X127398883Y-46509840D01*
X127352287Y-46418390D01*
X127344556Y-46407749D01*
X127231971Y-46252786D01*
X127087213Y-46108028D01*
X126921613Y-45987715D01*
X126921612Y-45987714D01*
X126921610Y-45987713D01*
X126849276Y-45950857D01*
X126761541Y-45906153D01*
X126710745Y-45858178D01*
X126693950Y-45790357D01*
X126716488Y-45724222D01*
X126730148Y-45707994D01*
X127126325Y-45311819D01*
X127187648Y-45278334D01*
X127214006Y-45275500D01*
X128986231Y-45275500D01*
X128986232Y-45275499D01*
X129155374Y-45241855D01*
X129314705Y-45175858D01*
X129458099Y-45080045D01*
X131580045Y-42958099D01*
X131675858Y-42814705D01*
X131741855Y-42655374D01*
X131775500Y-42486229D01*
X131775500Y-42313771D01*
X131775500Y-36883701D01*
X131795185Y-36816662D01*
X131847989Y-36770907D01*
X131917147Y-36760963D01*
X131980703Y-36789988D01*
X132002602Y-36814810D01*
X132184975Y-37087751D01*
X132184985Y-37087765D01*
X132403176Y-37353632D01*
X132646367Y-37596823D01*
X132646372Y-37596827D01*
X132646373Y-37596828D01*
X132912240Y-37815019D01*
X133198213Y-38006100D01*
X133198222Y-38006105D01*
X133198224Y-38006106D01*
X133501530Y-38168227D01*
X133501532Y-38168227D01*
X133501538Y-38168231D01*
X133819295Y-38299850D01*
X134148422Y-38399690D01*
X134485750Y-38466789D01*
X134828031Y-38500500D01*
X134828034Y-38500500D01*
X135171966Y-38500500D01*
X135171969Y-38500500D01*
X135514250Y-38466789D01*
X135851578Y-38399690D01*
X136180705Y-38299850D01*
X136498462Y-38168231D01*
X136801787Y-38006100D01*
X137087760Y-37815019D01*
X137353627Y-37596828D01*
X137596828Y-37353627D01*
X137815019Y-37087760D01*
X138006100Y-36801787D01*
X138168231Y-36498462D01*
X138299850Y-36180705D01*
X138399690Y-35851578D01*
X138466789Y-35514250D01*
X138500500Y-35171969D01*
X138500500Y-34828031D01*
X138466789Y-34485750D01*
X138407506Y-34187715D01*
X138399691Y-34148427D01*
X138399690Y-34148426D01*
X138399690Y-34148422D01*
X138299850Y-33819295D01*
X138168231Y-33501538D01*
X138168214Y-33501507D01*
X138006106Y-33198224D01*
X138006105Y-33198222D01*
X138006100Y-33198213D01*
X137815019Y-32912240D01*
X137596828Y-32646373D01*
X137596827Y-32646372D01*
X137596823Y-32646367D01*
X137353632Y-32403176D01*
X137087765Y-32184985D01*
X137087764Y-32184984D01*
X137087760Y-32184981D01*
X136801787Y-31993900D01*
X136801782Y-31993897D01*
X136801775Y-31993893D01*
X136498469Y-31831772D01*
X136498464Y-31831770D01*
X136180706Y-31700150D01*
X135851572Y-31600308D01*
X135514248Y-31533210D01*
X135514249Y-31533210D01*
X135256456Y-31507821D01*
X135171969Y-31499500D01*
X134828031Y-31499500D01*
X134749966Y-31507188D01*
X134485750Y-31533210D01*
X134148427Y-31600308D01*
X133819293Y-31700150D01*
X133501535Y-31831770D01*
X133501530Y-31831772D01*
X133198224Y-31993893D01*
X133198206Y-31993904D01*
X132912248Y-32184975D01*
X132912234Y-32184985D01*
X132646367Y-32403176D01*
X132403176Y-32646367D01*
X132184985Y-32912234D01*
X132184975Y-32912248D01*
X131993904Y-33198206D01*
X131993893Y-33198224D01*
X131831772Y-33501530D01*
X131831770Y-33501535D01*
X131700150Y-33819293D01*
X131600308Y-34148427D01*
X131533210Y-34485750D01*
X131513709Y-34683757D01*
X131502185Y-34800776D01*
X131499500Y-34828034D01*
X131499500Y-35161993D01*
X131479815Y-35229032D01*
X131427011Y-35274787D01*
X131357853Y-35284731D01*
X131294297Y-35255706D01*
X131287819Y-35249674D01*
X127458102Y-31419957D01*
X127458098Y-31419954D01*
X127314711Y-31324145D01*
X127314698Y-31324138D01*
X127155378Y-31258146D01*
X127155366Y-31258143D01*
X126986232Y-31224500D01*
X126986229Y-31224500D01*
X83986229Y-31224500D01*
X83813771Y-31224500D01*
X83813768Y-31224500D01*
X83644633Y-31258143D01*
X83644621Y-31258146D01*
X83485301Y-31324138D01*
X83485288Y-31324145D01*
X83341901Y-31419954D01*
X83341897Y-31419957D01*
X75985018Y-38776838D01*
X73541901Y-41219955D01*
X73498171Y-41263685D01*
X73419953Y-41341902D01*
X73324145Y-41485288D01*
X73324138Y-41485301D01*
X73258146Y-41644621D01*
X73258143Y-41644633D01*
X73224500Y-41813766D01*
X64551910Y-41813766D01*
X64271819Y-41533675D01*
X64257115Y-41506747D01*
X64240523Y-41480929D01*
X64239631Y-41474728D01*
X64238334Y-41472352D01*
X64235500Y-41445994D01*
X64235500Y-41315047D01*
X64255185Y-41248008D01*
X64271819Y-41227366D01*
X64301503Y-41197682D01*
X64351966Y-41147219D01*
X64351968Y-41147215D01*
X64351971Y-41147213D01*
X64462136Y-40995582D01*
X64472287Y-40981610D01*
X64519516Y-40888917D01*
X64567489Y-40838123D01*
X64635310Y-40821328D01*
X64701445Y-40843865D01*
X64740483Y-40888917D01*
X64777525Y-40961614D01*
X64787715Y-40981614D01*
X64908028Y-41147213D01*
X65052786Y-41291971D01*
X65174016Y-41380048D01*
X65218390Y-41412287D01*
X65284544Y-41445994D01*
X65400776Y-41505218D01*
X65400778Y-41505218D01*
X65400781Y-41505220D01*
X65505137Y-41539127D01*
X65595465Y-41568477D01*
X65671375Y-41580500D01*
X65797648Y-41600500D01*
X65797649Y-41600500D01*
X66002351Y-41600500D01*
X66002352Y-41600500D01*
X66204534Y-41568477D01*
X66399219Y-41505220D01*
X66581610Y-41412287D01*
X66678489Y-41341901D01*
X66747213Y-41291971D01*
X66747215Y-41291968D01*
X66747219Y-41291966D01*
X66891966Y-41147219D01*
X66891968Y-41147215D01*
X66891971Y-41147213D01*
X66976298Y-41031144D01*
X67012287Y-40981610D01*
X67059516Y-40888917D01*
X67107489Y-40838123D01*
X67175310Y-40821327D01*
X67241445Y-40843864D01*
X67280485Y-40888919D01*
X67327713Y-40981611D01*
X67448028Y-41147213D01*
X67592786Y-41291971D01*
X67714016Y-41380048D01*
X67758390Y-41412287D01*
X67824544Y-41445994D01*
X67940776Y-41505218D01*
X67940778Y-41505218D01*
X67940781Y-41505220D01*
X68045137Y-41539127D01*
X68135465Y-41568477D01*
X68211375Y-41580500D01*
X68337648Y-41600500D01*
X68337649Y-41600500D01*
X68542351Y-41600500D01*
X68542352Y-41600500D01*
X68744534Y-41568477D01*
X68939219Y-41505220D01*
X69121610Y-41412287D01*
X69218489Y-41341901D01*
X69287213Y-41291971D01*
X69287215Y-41291968D01*
X69287219Y-41291966D01*
X69431966Y-41147219D01*
X69431968Y-41147215D01*
X69431971Y-41147213D01*
X69514551Y-41033549D01*
X69552287Y-40981610D01*
X69645220Y-40799219D01*
X69708477Y-40604534D01*
X69740500Y-40402352D01*
X69740500Y-39397648D01*
X69708477Y-39195466D01*
X69702016Y-39175582D01*
X69663858Y-39058143D01*
X69645220Y-39000781D01*
X69645218Y-39000778D01*
X69645218Y-39000776D01*
X69599515Y-38911080D01*
X69552287Y-38818390D01*
X69502611Y-38750016D01*
X69431971Y-38652786D01*
X69287213Y-38508028D01*
X69121613Y-38387715D01*
X69121612Y-38387714D01*
X69121610Y-38387713D01*
X69050442Y-38351451D01*
X68939223Y-38294781D01*
X68744534Y-38231522D01*
X68566912Y-38203390D01*
X68542352Y-38199500D01*
X68337648Y-38199500D01*
X68313329Y-38203351D01*
X68135465Y-38231522D01*
X67940776Y-38294781D01*
X67758386Y-38387715D01*
X67592786Y-38508028D01*
X67448028Y-38652786D01*
X67327715Y-38818385D01*
X67302943Y-38867003D01*
X67280486Y-38911080D01*
X67280485Y-38911081D01*
X67232511Y-38961877D01*
X67164690Y-38978672D01*
X67098555Y-38956135D01*
X67059515Y-38911081D01*
X67059514Y-38911080D01*
X67012287Y-38818390D01*
X67012285Y-38818387D01*
X67012284Y-38818385D01*
X66891971Y-38652786D01*
X66747213Y-38508028D01*
X66581613Y-38387715D01*
X66581612Y-38387714D01*
X66581610Y-38387713D01*
X66510442Y-38351451D01*
X66399223Y-38294781D01*
X66204534Y-38231522D01*
X66026912Y-38203390D01*
X66002352Y-38199500D01*
X65797648Y-38199500D01*
X65773329Y-38203351D01*
X65595465Y-38231522D01*
X65400776Y-38294781D01*
X65218386Y-38387715D01*
X65052786Y-38508028D01*
X64908028Y-38652786D01*
X64787715Y-38818386D01*
X64740485Y-38911080D01*
X64692510Y-38961876D01*
X64624689Y-38978671D01*
X64558554Y-38956134D01*
X64519515Y-38911080D01*
X64509605Y-38891630D01*
X64472287Y-38818390D01*
X64422611Y-38750016D01*
X64351971Y-38652786D01*
X64207213Y-38508028D01*
X64041613Y-38387715D01*
X64041612Y-38387714D01*
X64041610Y-38387713D01*
X63970442Y-38351451D01*
X63859223Y-38294781D01*
X63664534Y-38231522D01*
X63486912Y-38203390D01*
X63462352Y-38199500D01*
X63257648Y-38199500D01*
X63233329Y-38203351D01*
X63055465Y-38231522D01*
X62860776Y-38294781D01*
X62678386Y-38387715D01*
X62512786Y-38508028D01*
X62368028Y-38652786D01*
X62247713Y-38818388D01*
X62200203Y-38911630D01*
X62152228Y-38962426D01*
X62084407Y-38979220D01*
X62018272Y-38956682D01*
X61979234Y-38911628D01*
X61931861Y-38818652D01*
X61811582Y-38653105D01*
X61811582Y-38653104D01*
X61666895Y-38508417D01*
X61501349Y-38388140D01*
X61319029Y-38295244D01*
X61124413Y-38232009D01*
X61070000Y-38223390D01*
X61070000Y-39584314D01*
X61065606Y-39579920D01*
X60974394Y-39527259D01*
X60872661Y-39500000D01*
X60767339Y-39500000D01*
X60665606Y-39527259D01*
X60574394Y-39579920D01*
X60570000Y-39584314D01*
X60570000Y-38223390D01*
X60515586Y-38232009D01*
X60320970Y-38295244D01*
X60138650Y-38388140D01*
X59973105Y-38508417D01*
X59973104Y-38508417D01*
X59828417Y-38653104D01*
X59828417Y-38653105D01*
X59708140Y-38818650D01*
X59660765Y-38911629D01*
X59612790Y-38962425D01*
X59544969Y-38979220D01*
X59478834Y-38956682D01*
X59439795Y-38911629D01*
X59392419Y-38818650D01*
X59392287Y-38818390D01*
X59342611Y-38750016D01*
X59271971Y-38652786D01*
X59191819Y-38572634D01*
X59158334Y-38511311D01*
X59155500Y-38484953D01*
X59155500Y-37234006D01*
X59175185Y-37166967D01*
X59191819Y-37146325D01*
X60126325Y-36211819D01*
X60187648Y-36178334D01*
X60214006Y-36175500D01*
X71704953Y-36175500D01*
X71771992Y-36195185D01*
X71792634Y-36211819D01*
X71872786Y-36291971D01*
X72027749Y-36404556D01*
X72038390Y-36412287D01*
X72137221Y-36462644D01*
X72220776Y-36505218D01*
X72220778Y-36505218D01*
X72220781Y-36505220D01*
X72247822Y-36514006D01*
X72415465Y-36568477D01*
X72491331Y-36580493D01*
X72617648Y-36600500D01*
X72617649Y-36600500D01*
X72822351Y-36600500D01*
X72822352Y-36600500D01*
X73024534Y-36568477D01*
X73219219Y-36505220D01*
X73401610Y-36412287D01*
X73522928Y-36324145D01*
X73567213Y-36291971D01*
X73567215Y-36291968D01*
X73567219Y-36291966D01*
X73711966Y-36147219D01*
X73711968Y-36147215D01*
X73711971Y-36147213D01*
X73804906Y-36019297D01*
X73832287Y-35981610D01*
X73925220Y-35799219D01*
X73988477Y-35604534D01*
X74020500Y-35402352D01*
X74020500Y-35197648D01*
X74006030Y-35106287D01*
X73988477Y-34995465D01*
X73933388Y-34825921D01*
X73925220Y-34800781D01*
X73925218Y-34800778D01*
X73925218Y-34800776D01*
X73870299Y-34692993D01*
X73832287Y-34618390D01*
X73805353Y-34581318D01*
X73711971Y-34452786D01*
X73567213Y-34308028D01*
X73401613Y-34187715D01*
X73401612Y-34187714D01*
X73401610Y-34187713D01*
X73324507Y-34148427D01*
X73219223Y-34094781D01*
X73024534Y-34031522D01*
X72849995Y-34003878D01*
X72822352Y-33999500D01*
X72617648Y-33999500D01*
X72593329Y-34003351D01*
X72415465Y-34031522D01*
X72220776Y-34094781D01*
X72038386Y-34187715D01*
X71872786Y-34308028D01*
X71872782Y-34308032D01*
X71792634Y-34388181D01*
X71731311Y-34421666D01*
X71704953Y-34424500D01*
X59713768Y-34424500D01*
X59544633Y-34458143D01*
X59544621Y-34458146D01*
X59385299Y-34524139D01*
X59385297Y-34524140D01*
X59272936Y-34599217D01*
X59272935Y-34599219D01*
X59251936Y-34613250D01*
X59241895Y-34619959D01*
X58098572Y-35763284D01*
X57721901Y-36139955D01*
X57686356Y-36175500D01*
X57599953Y-36261902D01*
X57504145Y-36405288D01*
X57504138Y-36405301D01*
X57438146Y-36564621D01*
X57438143Y-36564633D01*
X57404500Y-36733766D01*
X57404500Y-38484953D01*
X57384815Y-38551992D01*
X57368181Y-38572634D01*
X57288032Y-38652782D01*
X57288028Y-38652786D01*
X57167715Y-38818386D01*
X57120485Y-38911080D01*
X57072510Y-38961876D01*
X57004689Y-38978671D01*
X56938554Y-38956134D01*
X56899515Y-38911080D01*
X56889605Y-38891630D01*
X56852287Y-38818390D01*
X56802611Y-38750016D01*
X56731971Y-38652786D01*
X56587213Y-38508028D01*
X56421613Y-38387715D01*
X56421612Y-38387714D01*
X56421610Y-38387713D01*
X56350442Y-38351451D01*
X56239223Y-38294781D01*
X56044534Y-38231522D01*
X55866912Y-38203390D01*
X55842352Y-38199500D01*
X55637648Y-38199500D01*
X55613329Y-38203351D01*
X55435465Y-38231522D01*
X55240776Y-38294781D01*
X55058386Y-38387715D01*
X54892786Y-38508028D01*
X54748028Y-38652786D01*
X54627715Y-38818385D01*
X54602943Y-38867003D01*
X54580486Y-38911080D01*
X54580485Y-38911081D01*
X54532511Y-38961877D01*
X54464690Y-38978672D01*
X54398555Y-38956135D01*
X54359515Y-38911081D01*
X54359514Y-38911080D01*
X54312287Y-38818390D01*
X54312285Y-38818387D01*
X54312284Y-38818385D01*
X54191971Y-38652786D01*
X54047213Y-38508028D01*
X53881613Y-38387715D01*
X53881612Y-38387714D01*
X53881610Y-38387713D01*
X53810442Y-38351451D01*
X53699223Y-38294781D01*
X53504534Y-38231522D01*
X53326912Y-38203390D01*
X53302352Y-38199500D01*
X53097648Y-38199500D01*
X53073329Y-38203351D01*
X52895465Y-38231522D01*
X52700776Y-38294781D01*
X52518386Y-38387715D01*
X52352786Y-38508028D01*
X52208028Y-38652786D01*
X52087715Y-38818386D01*
X51994781Y-39000776D01*
X51931522Y-39195465D01*
X51899500Y-39397648D01*
X49775500Y-39397648D01*
X49775500Y-37714005D01*
X49795185Y-37646966D01*
X49811814Y-37626329D01*
X52341873Y-35096269D01*
X52403194Y-35062786D01*
X52472886Y-35067770D01*
X52510094Y-35089670D01*
X52512793Y-35091976D01*
X52625692Y-35174000D01*
X52678390Y-35212287D01*
X52794607Y-35271503D01*
X52860776Y-35305218D01*
X52860778Y-35305218D01*
X52860781Y-35305220D01*
X52965137Y-35339127D01*
X53055465Y-35368477D01*
X53156557Y-35384488D01*
X53257648Y-35400500D01*
X53257649Y-35400500D01*
X53462351Y-35400500D01*
X53462352Y-35400500D01*
X53664534Y-35368477D01*
X53859219Y-35305220D01*
X54041610Y-35212287D01*
X54160375Y-35126000D01*
X54207213Y-35091971D01*
X54207215Y-35091968D01*
X54207219Y-35091966D01*
X54351966Y-34947219D01*
X54351968Y-34947215D01*
X54351971Y-34947213D01*
X54458221Y-34800970D01*
X54472287Y-34781610D01*
X54519795Y-34688369D01*
X54567769Y-34637573D01*
X54635590Y-34620778D01*
X54701725Y-34643315D01*
X54740765Y-34688369D01*
X54788141Y-34781350D01*
X54788147Y-34781359D01*
X54820523Y-34825921D01*
X54820524Y-34825922D01*
X55500000Y-34146446D01*
X55500000Y-34152661D01*
X55527259Y-34254394D01*
X55579920Y-34345606D01*
X55654394Y-34420080D01*
X55745606Y-34472741D01*
X55847339Y-34500000D01*
X55853553Y-34500000D01*
X55174076Y-35179474D01*
X55218650Y-35211859D01*
X55400968Y-35304755D01*
X55595582Y-35367990D01*
X55797683Y-35400000D01*
X56002317Y-35400000D01*
X56204417Y-35367990D01*
X56399031Y-35304755D01*
X56581349Y-35211859D01*
X56625921Y-35179474D01*
X55946447Y-34500000D01*
X55952661Y-34500000D01*
X56054394Y-34472741D01*
X56145606Y-34420080D01*
X56220080Y-34345606D01*
X56272741Y-34254394D01*
X56300000Y-34152661D01*
X56300000Y-34146447D01*
X56979474Y-34825921D01*
X57011859Y-34781349D01*
X57104755Y-34599031D01*
X57167990Y-34404417D01*
X57200000Y-34202317D01*
X57200000Y-33997682D01*
X57167990Y-33795582D01*
X57104755Y-33600968D01*
X57011859Y-33418650D01*
X56979474Y-33374077D01*
X56979474Y-33374076D01*
X56300000Y-34053551D01*
X56300000Y-34047339D01*
X56272741Y-33945606D01*
X56220080Y-33854394D01*
X56145606Y-33779920D01*
X56054394Y-33727259D01*
X55952661Y-33700000D01*
X55946446Y-33700000D01*
X56625922Y-33020524D01*
X56625921Y-33020523D01*
X56581359Y-32988147D01*
X56581350Y-32988141D01*
X56399031Y-32895244D01*
X56204417Y-32832009D01*
X56002317Y-32800000D01*
X55797683Y-32800000D01*
X55595582Y-32832009D01*
X55400968Y-32895244D01*
X55218644Y-32988143D01*
X55174077Y-33020523D01*
X55174077Y-33020524D01*
X55853554Y-33700000D01*
X55847339Y-33700000D01*
X55745606Y-33727259D01*
X55654394Y-33779920D01*
X55579920Y-33854394D01*
X55527259Y-33945606D01*
X55500000Y-34047339D01*
X55500000Y-34053553D01*
X54820524Y-33374077D01*
X54820523Y-33374077D01*
X54788143Y-33418644D01*
X54740765Y-33511630D01*
X54692790Y-33562426D01*
X54624969Y-33579221D01*
X54558834Y-33556683D01*
X54519795Y-33511630D01*
X54514653Y-33501538D01*
X54472287Y-33418390D01*
X54472285Y-33418387D01*
X54472284Y-33418385D01*
X54351971Y-33252786D01*
X54207213Y-33108028D01*
X54041613Y-32987715D01*
X54041612Y-32987714D01*
X54041610Y-32987713D01*
X53984653Y-32958691D01*
X53859223Y-32894781D01*
X53664534Y-32831522D01*
X53489995Y-32803878D01*
X53462352Y-32799500D01*
X53257648Y-32799500D01*
X53233329Y-32803351D01*
X53055465Y-32831522D01*
X52860776Y-32894781D01*
X52678386Y-32987715D01*
X52512786Y-33108028D01*
X52512782Y-33108032D01*
X52432634Y-33188181D01*
X52371311Y-33221666D01*
X52344953Y-33224500D01*
X52013768Y-33224500D01*
X51844633Y-33258143D01*
X51844621Y-33258146D01*
X51685301Y-33324138D01*
X51685288Y-33324145D01*
X51541901Y-33419954D01*
X51541897Y-33419957D01*
X48400321Y-36561534D01*
X48338998Y-36595019D01*
X48269306Y-36590035D01*
X48213373Y-36548163D01*
X48188956Y-36482699D01*
X48198078Y-36426403D01*
X48299850Y-36180705D01*
X48399690Y-35851578D01*
X48466789Y-35514250D01*
X48500500Y-35171969D01*
X48500500Y-34828031D01*
X48466789Y-34485750D01*
X48407506Y-34187715D01*
X48399691Y-34148427D01*
X48399690Y-34148426D01*
X48399690Y-34148422D01*
X48299850Y-33819295D01*
X48168231Y-33501538D01*
X48168214Y-33501507D01*
X48006106Y-33198224D01*
X48006105Y-33198222D01*
X48006100Y-33198213D01*
X47815019Y-32912240D01*
X47596828Y-32646373D01*
X47596827Y-32646372D01*
X47596823Y-32646367D01*
X47353632Y-32403176D01*
X47087765Y-32184985D01*
X47087764Y-32184984D01*
X47087760Y-32184981D01*
X46801787Y-31993900D01*
X46801782Y-31993897D01*
X46801775Y-31993893D01*
X46498469Y-31831772D01*
X46498464Y-31831770D01*
X46180706Y-31700150D01*
X45851572Y-31600308D01*
X45514248Y-31533210D01*
X45514249Y-31533210D01*
X45256456Y-31507821D01*
X45171969Y-31499500D01*
X44828031Y-31499500D01*
X44749966Y-31507188D01*
X44485750Y-31533210D01*
X44148427Y-31600308D01*
X43819293Y-31700150D01*
X43501535Y-31831770D01*
X43501530Y-31831772D01*
X43198224Y-31993893D01*
X43198206Y-31993904D01*
X42912248Y-32184975D01*
X42912234Y-32184985D01*
X42646367Y-32403176D01*
X42403176Y-32646367D01*
X42184985Y-32912234D01*
X42184975Y-32912248D01*
X41993904Y-33198206D01*
X41993893Y-33198224D01*
X41831772Y-33501530D01*
X41831770Y-33501535D01*
X41700150Y-33819293D01*
X41600308Y-34148427D01*
X41533210Y-34485750D01*
X41513709Y-34683757D01*
X41499500Y-34828031D01*
X40508008Y-34828031D01*
X40517386Y-34613228D01*
X40518326Y-34602495D01*
X40568152Y-34224025D01*
X40570025Y-34213405D01*
X40652649Y-33840709D01*
X40655440Y-33830295D01*
X40770230Y-33466227D01*
X40773917Y-33456095D01*
X40920003Y-33103412D01*
X40924561Y-33093638D01*
X41100822Y-32755045D01*
X41106217Y-32745700D01*
X41311325Y-32423744D01*
X41317515Y-32414905D01*
X41549896Y-32112060D01*
X41556834Y-32103791D01*
X41814726Y-31822352D01*
X41822352Y-31814726D01*
X42103791Y-31556834D01*
X42112060Y-31549896D01*
X42414905Y-31317515D01*
X42423744Y-31311325D01*
X42745700Y-31106217D01*
X42755045Y-31100822D01*
X43093638Y-30924561D01*
X43103412Y-30920003D01*
X43456095Y-30773917D01*
X43466227Y-30770230D01*
X43830295Y-30655440D01*
X43840709Y-30652649D01*
X44213405Y-30570025D01*
X44224025Y-30568152D01*
X44602495Y-30518326D01*
X44613226Y-30517386D01*
X44997297Y-30500617D01*
X45002706Y-30500500D01*
X45065892Y-30500500D01*
X59514559Y-30500500D01*
X59581598Y-30520185D01*
G37*
%TD.AperFunction*%
%TD*%
M02*
