%TF.GenerationSoftware,KiCad,Pcbnew,9.0.2*%
%TF.CreationDate,2025-06-20T13:08:06-04:00*%
%TF.ProjectId,proyecto_2_control,70726f79-6563-4746-9f5f-325f636f6e74,rev?*%
%TF.SameCoordinates,Original*%
%TF.FileFunction,Legend,Top*%
%TF.FilePolarity,Positive*%
%FSLAX46Y46*%
G04 Gerber Fmt 4.6, Leading zero omitted, Abs format (unit mm)*
G04 Created by KiCad (PCBNEW 9.0.2) date 2025-06-20 13:08:06*
%MOMM*%
%LPD*%
G01*
G04 APERTURE LIST*
%ADD10C,0.300000*%
%ADD11C,0.150000*%
%ADD12C,0.120000*%
G04 APERTURE END LIST*
D10*
G36*
X112374763Y-34287978D02*
G01*
X112114370Y-34287978D01*
X112114370Y-34162040D01*
X112076634Y-34162040D01*
X112068600Y-34174653D01*
X112017870Y-34232897D01*
X111950932Y-34277206D01*
X111910184Y-34293836D01*
X111863287Y-34306494D01*
X111809726Y-34314552D01*
X111749013Y-34317378D01*
X111715759Y-34316229D01*
X111613851Y-34297623D01*
X111520765Y-34257474D01*
X111439528Y-34197492D01*
X111372564Y-34119227D01*
X111345150Y-34073718D01*
X111321976Y-34023817D01*
X111303491Y-33969975D01*
X111289874Y-33911962D01*
X111281476Y-33849997D01*
X111278601Y-33784043D01*
X111278601Y-33756749D01*
X111543208Y-33756749D01*
X111543208Y-33777724D01*
X111546867Y-33835560D01*
X111555650Y-33880837D01*
X111569290Y-33921750D01*
X111587500Y-33958331D01*
X111609914Y-33990427D01*
X111636806Y-34018540D01*
X111667372Y-34041866D01*
X111702543Y-34060936D01*
X111740870Y-34074749D01*
X111783571Y-34083466D01*
X111828789Y-34086386D01*
X111885226Y-34081783D01*
X111961776Y-34057830D01*
X112024374Y-34015290D01*
X112050168Y-33987354D01*
X112072088Y-33954921D01*
X112089913Y-33917762D01*
X112103128Y-33876141D01*
X112111499Y-33829196D01*
X112114370Y-33777724D01*
X112114370Y-33756749D01*
X112110668Y-33698121D01*
X112101906Y-33652815D01*
X112088314Y-33611892D01*
X112070238Y-33575457D01*
X112047973Y-33543490D01*
X112021284Y-33515553D01*
X111990893Y-33492363D01*
X111955824Y-33473387D01*
X111917497Y-33459631D01*
X111874503Y-33450916D01*
X111828789Y-33447996D01*
X111772291Y-33452519D01*
X111695611Y-33476237D01*
X111633129Y-33518468D01*
X111607371Y-33546305D01*
X111585509Y-33578642D01*
X111567679Y-33615866D01*
X111554473Y-33657589D01*
X111546082Y-33704870D01*
X111543208Y-33756749D01*
X111278601Y-33756749D01*
X111278601Y-33750430D01*
X111279336Y-33716613D01*
X111285045Y-33652280D01*
X111296131Y-33592025D01*
X111312371Y-33535615D01*
X111333375Y-33483500D01*
X111359092Y-33435292D01*
X111388977Y-33391645D01*
X111423166Y-33352145D01*
X111460914Y-33317513D01*
X111502455Y-33287458D01*
X111546901Y-33262598D01*
X111594401Y-33242843D01*
X111644089Y-33228594D01*
X111695843Y-33219917D01*
X111749013Y-33217003D01*
X111843965Y-33224258D01*
X111895095Y-33235684D01*
X111939272Y-33251485D01*
X111980366Y-33272935D01*
X112014407Y-33297698D01*
X112047573Y-33331127D01*
X112072421Y-33366113D01*
X112110248Y-33366113D01*
X112110248Y-32818032D01*
X112374763Y-32818032D01*
X112374763Y-34287978D01*
G37*
G36*
X112800753Y-33124679D02*
G01*
X112834601Y-33121807D01*
X112865899Y-33113427D01*
X112894030Y-33099945D01*
X112918580Y-33081694D01*
X112938770Y-33059371D01*
X112954471Y-33033086D01*
X112965047Y-33003698D01*
X112970320Y-32971122D01*
X112970838Y-32956610D01*
X112967984Y-32923142D01*
X112959731Y-32892659D01*
X112928593Y-32841576D01*
X112880352Y-32805991D01*
X112850704Y-32795054D01*
X112818273Y-32789384D01*
X112800753Y-32788632D01*
X112766906Y-32791504D01*
X112735608Y-32799883D01*
X112707473Y-32813364D01*
X112682920Y-32831614D01*
X112662727Y-32853934D01*
X112647026Y-32880213D01*
X112636452Y-32909590D01*
X112631184Y-32942149D01*
X112630669Y-32956610D01*
X112633523Y-32990106D01*
X112641775Y-33020611D01*
X112672908Y-33071715D01*
X112721134Y-33107307D01*
X112750774Y-33118248D01*
X112783195Y-33123924D01*
X112800753Y-33124679D01*
G37*
G36*
X112668404Y-34287978D02*
G01*
X112933011Y-34287978D01*
X112933011Y-33246404D01*
X112668404Y-33246404D01*
X112668404Y-34287978D01*
G37*
G36*
X113659420Y-34317378D02*
G01*
X113727666Y-34314468D01*
X113791209Y-34305818D01*
X113847098Y-34292342D01*
X113898117Y-34273869D01*
X113941674Y-34251865D01*
X113980354Y-34225565D01*
X114012408Y-34196631D01*
X114039608Y-34163967D01*
X114061126Y-34128842D01*
X114077695Y-34090361D01*
X114095163Y-34004222D01*
X114096218Y-33975102D01*
X114093338Y-33929826D01*
X114084907Y-33889051D01*
X114071682Y-33853451D01*
X114053788Y-33821566D01*
X114003615Y-33766614D01*
X113930554Y-33720465D01*
X113826008Y-33681232D01*
X113676181Y-33647573D01*
X113617379Y-33637040D01*
X113554343Y-33622606D01*
X113506283Y-33602049D01*
X113485256Y-33585628D01*
X113470724Y-33565523D01*
X113461949Y-33525757D01*
X113464860Y-33502586D01*
X113473513Y-33482106D01*
X113505942Y-33451009D01*
X113562304Y-33431476D01*
X113617379Y-33427021D01*
X113662462Y-33430056D01*
X113702784Y-33439578D01*
X113732488Y-33452946D01*
X113758323Y-33471634D01*
X113778388Y-33493742D01*
X113794800Y-33520902D01*
X113812652Y-33574025D01*
X114058390Y-33498462D01*
X114042761Y-33454694D01*
X114021951Y-33413805D01*
X113996249Y-33376214D01*
X113965734Y-33341976D01*
X113890699Y-33284440D01*
X113797391Y-33243117D01*
X113743851Y-33229251D01*
X113686286Y-33220471D01*
X113617379Y-33217003D01*
X113551211Y-33219914D01*
X113489674Y-33228570D01*
X113435777Y-33242027D01*
X113386730Y-33260474D01*
X113345172Y-33282374D01*
X113308490Y-33308544D01*
X113278432Y-33337257D01*
X113253242Y-33369667D01*
X113233709Y-33404502D01*
X113219166Y-33442669D01*
X113205900Y-33528281D01*
X113205769Y-33538305D01*
X113208643Y-33581735D01*
X113217038Y-33621339D01*
X113248579Y-33689184D01*
X113300002Y-33746256D01*
X113374645Y-33795038D01*
X113478949Y-33836139D01*
X113604740Y-33865926D01*
X113663541Y-33876459D01*
X113736562Y-33893335D01*
X113789173Y-33914142D01*
X113812682Y-33930403D01*
X113828739Y-33949607D01*
X113839910Y-33991163D01*
X113839946Y-33994062D01*
X113837006Y-34018310D01*
X113828151Y-34040489D01*
X113814109Y-34059380D01*
X113794567Y-34075654D01*
X113736926Y-34099373D01*
X113659420Y-34107452D01*
X113607918Y-34104353D01*
X113560233Y-34094390D01*
X113524940Y-34080559D01*
X113493226Y-34061005D01*
X113468457Y-34038418D01*
X113447216Y-34010522D01*
X113430384Y-33978233D01*
X113417444Y-33940317D01*
X113411574Y-33914194D01*
X113167942Y-33977209D01*
X113178952Y-34026532D01*
X113195164Y-34072256D01*
X113215993Y-34113590D01*
X113241531Y-34151317D01*
X113306179Y-34215721D01*
X113389737Y-34265721D01*
X113493710Y-34300146D01*
X113619643Y-34316491D01*
X113659420Y-34317378D01*
G37*
G36*
X114815835Y-32788655D02*
G01*
X114959928Y-32800678D01*
X115082549Y-32832301D01*
X115182348Y-32879820D01*
X115259315Y-32939882D01*
X115314203Y-33010088D01*
X115347603Y-33089252D01*
X115356176Y-33132196D01*
X115359075Y-33177161D01*
X115359075Y-33202349D01*
X115357222Y-33242115D01*
X115349648Y-33289383D01*
X115336874Y-33331853D01*
X115318069Y-33372433D01*
X115294892Y-33407770D01*
X115264969Y-33441193D01*
X115231896Y-33468563D01*
X115192960Y-33492147D01*
X115153270Y-33508904D01*
X115153270Y-33546731D01*
X115228398Y-33580404D01*
X115291244Y-33630873D01*
X115338786Y-33695785D01*
X115369165Y-33774987D01*
X115377223Y-33820240D01*
X115380049Y-33870139D01*
X115380049Y-33895327D01*
X115379949Y-33904671D01*
X115376032Y-33953373D01*
X115366571Y-33999432D01*
X115351534Y-34043345D01*
X115331237Y-34084356D01*
X115304998Y-34123552D01*
X115273631Y-34159453D01*
X115235657Y-34193323D01*
X115192632Y-34223368D01*
X115142496Y-34250590D01*
X115087451Y-34273361D01*
X115025378Y-34292167D01*
X114958703Y-34305872D01*
X114885839Y-34314474D01*
X114808888Y-34317378D01*
X114764802Y-34316442D01*
X114624409Y-34299516D01*
X114505809Y-34264042D01*
X114409666Y-34213441D01*
X114335377Y-34150392D01*
X114281967Y-34076370D01*
X114262942Y-34035378D01*
X114249070Y-33991581D01*
X114240529Y-33944782D01*
X114237634Y-33895327D01*
X114237634Y-33870139D01*
X114238493Y-33857499D01*
X114506454Y-33857499D01*
X114506454Y-33874352D01*
X114506457Y-33875525D01*
X114517742Y-33938972D01*
X114531616Y-33967299D01*
X114550814Y-33992809D01*
X114576636Y-34016426D01*
X114608079Y-34036527D01*
X114647639Y-34053859D01*
X114693256Y-34066716D01*
X114747884Y-34075168D01*
X114808888Y-34078051D01*
X114830094Y-34077721D01*
X114935353Y-34064201D01*
X115013134Y-34034615D01*
X115066963Y-33992711D01*
X115099677Y-33939672D01*
X115108320Y-33908284D01*
X115111230Y-33874352D01*
X115111230Y-33857499D01*
X115111223Y-33855736D01*
X115099946Y-33791917D01*
X115086290Y-33763736D01*
X115067372Y-33738365D01*
X115041982Y-33714994D01*
X115010956Y-33695094D01*
X114971692Y-33677903D01*
X114926167Y-33665136D01*
X114870970Y-33656683D01*
X114808888Y-33653801D01*
X114788611Y-33654090D01*
X114682227Y-33667268D01*
X114604453Y-33696356D01*
X114550806Y-33737851D01*
X114531838Y-33763038D01*
X114518086Y-33791014D01*
X114509373Y-33822933D01*
X114506454Y-33857499D01*
X114238493Y-33857499D01*
X114241659Y-33810946D01*
X114251448Y-33763802D01*
X114266286Y-33721713D01*
X114287520Y-33681038D01*
X114312920Y-33645984D01*
X114345914Y-33612330D01*
X114381523Y-33585361D01*
X114423460Y-33562222D01*
X114464505Y-33546731D01*
X114464505Y-33508904D01*
X114410914Y-33484626D01*
X114347863Y-33436347D01*
X114300121Y-33373175D01*
X114269619Y-33295616D01*
X114261530Y-33251223D01*
X114259305Y-33212790D01*
X114527520Y-33212790D01*
X114527520Y-33229643D01*
X114533908Y-33277513D01*
X114544895Y-33305337D01*
X114561103Y-33330211D01*
X114583950Y-33353364D01*
X114612390Y-33372969D01*
X114649729Y-33390234D01*
X114693345Y-33402986D01*
X114747675Y-33411572D01*
X114808888Y-33414473D01*
X114915153Y-33404947D01*
X114993368Y-33379357D01*
X115046529Y-33341644D01*
X115078733Y-33292545D01*
X115087350Y-33262576D01*
X115090255Y-33229643D01*
X115090255Y-33212790D01*
X115083917Y-33165906D01*
X115072775Y-33137998D01*
X115056339Y-33113034D01*
X115033062Y-33089631D01*
X115004184Y-33069823D01*
X114966465Y-33052392D01*
X114922675Y-33039537D01*
X114868922Y-33030952D01*
X114808888Y-33028051D01*
X114702719Y-33037900D01*
X114624541Y-33063976D01*
X114571178Y-33102089D01*
X114538966Y-33151064D01*
X114530416Y-33180506D01*
X114527520Y-33212790D01*
X114259305Y-33212790D01*
X114258700Y-33202349D01*
X114258700Y-33177161D01*
X114267759Y-33098712D01*
X114280818Y-33056875D01*
X114299365Y-33017414D01*
X114324007Y-32979420D01*
X114354052Y-32944314D01*
X114390710Y-32911138D01*
X114432714Y-32881478D01*
X114481584Y-32854693D01*
X114535662Y-32832129D01*
X114596307Y-32813600D01*
X114661869Y-32800009D01*
X114733144Y-32791519D01*
X114808888Y-32788632D01*
X114815835Y-32788655D01*
G37*
G36*
X116148199Y-32789632D02*
G01*
X116277840Y-32806643D01*
X116387096Y-32842334D01*
X116476567Y-32894155D01*
X116547069Y-32960532D01*
X116575370Y-32999019D01*
X116598965Y-33041008D01*
X116617845Y-33086833D01*
X116631601Y-33136016D01*
X116640189Y-33189571D01*
X116643090Y-33246404D01*
X116370057Y-33246404D01*
X116369934Y-33238209D01*
X116357605Y-33168951D01*
X116326497Y-33112392D01*
X116303981Y-33088883D01*
X116276385Y-33068593D01*
X116243124Y-33051783D01*
X116204277Y-33039134D01*
X116158100Y-33030902D01*
X116105542Y-33028051D01*
X116055176Y-33030724D01*
X115970074Y-33050700D01*
X115903942Y-33087880D01*
X115877186Y-33112770D01*
X115854869Y-33141606D01*
X115836509Y-33175506D01*
X115823109Y-33213311D01*
X115814447Y-33257279D01*
X115811535Y-33305205D01*
X115811535Y-33456422D01*
X115849271Y-33456422D01*
X115887609Y-33418883D01*
X115955455Y-33377594D01*
X115997813Y-33361768D01*
X116047834Y-33349485D01*
X116105704Y-33341618D01*
X116172679Y-33338819D01*
X116188376Y-33339036D01*
X116299639Y-33353549D01*
X116400336Y-33389149D01*
X116486664Y-33443083D01*
X116556322Y-33512771D01*
X116607933Y-33596422D01*
X116626545Y-33643042D01*
X116640241Y-33693179D01*
X116648642Y-33746389D01*
X116651517Y-33802911D01*
X116651517Y-33828099D01*
X116649564Y-33874801D01*
X116642101Y-33928849D01*
X116629226Y-33980138D01*
X116611102Y-34028546D01*
X116587927Y-34073839D01*
X116559626Y-34116184D01*
X116526567Y-34155005D01*
X116488368Y-34190596D01*
X116445667Y-34222189D01*
X116397827Y-34250025D01*
X116345746Y-34273333D01*
X116288687Y-34292180D01*
X116227684Y-34305941D01*
X116162090Y-34314483D01*
X116092903Y-34317378D01*
X116032672Y-34315121D01*
X115908891Y-34294470D01*
X115801860Y-34254291D01*
X115712184Y-34196808D01*
X115640419Y-34123806D01*
X115611458Y-34081876D01*
X115587351Y-34036620D01*
X115568158Y-33987935D01*
X115554211Y-33936304D01*
X115545618Y-33881381D01*
X115542715Y-33823886D01*
X115542715Y-33807124D01*
X115811535Y-33807124D01*
X115811535Y-33823886D01*
X115812660Y-33850717D01*
X115830082Y-33926072D01*
X115846258Y-33958668D01*
X115867168Y-33987751D01*
X115893136Y-34013562D01*
X115923617Y-34035329D01*
X115959684Y-34053376D01*
X116000144Y-34066658D01*
X116046510Y-34075161D01*
X116097116Y-34078051D01*
X116133856Y-34076556D01*
X116220749Y-34058623D01*
X116288995Y-34023089D01*
X116339286Y-33971994D01*
X116357741Y-33940601D01*
X116371257Y-33905732D01*
X116379802Y-33866437D01*
X116382697Y-33823886D01*
X116382697Y-33807124D01*
X116381603Y-33780890D01*
X116364150Y-33705644D01*
X116347852Y-33672934D01*
X116326798Y-33643749D01*
X116300629Y-33617788D01*
X116269967Y-33595903D01*
X116233791Y-33577776D01*
X116193322Y-33564444D01*
X116147234Y-33555940D01*
X116097116Y-33553051D01*
X116060215Y-33554591D01*
X115973634Y-33572729D01*
X115905304Y-33608562D01*
X115854910Y-33659875D01*
X115836466Y-33691217D01*
X115822941Y-33726002D01*
X115814426Y-33764964D01*
X115811535Y-33807124D01*
X115542715Y-33807124D01*
X115542715Y-33322058D01*
X115546121Y-33249767D01*
X115568462Y-33133857D01*
X115586910Y-33082481D01*
X115609955Y-33035264D01*
X115637732Y-32991731D01*
X115669791Y-32952441D01*
X115707037Y-32916422D01*
X115748362Y-32884884D01*
X115795592Y-32856739D01*
X115846749Y-32833462D01*
X115904439Y-32814238D01*
X115965867Y-32800369D01*
X116033993Y-32791564D01*
X116105542Y-32788632D01*
X116148199Y-32789632D01*
G37*
G36*
X117780468Y-33750430D02*
G01*
X118024009Y-33750430D01*
X118024009Y-33989849D01*
X117780468Y-33989849D01*
X117780468Y-34287978D01*
X117511648Y-34287978D01*
X117511648Y-33989849D01*
X116789270Y-33989849D01*
X116789270Y-33716816D01*
X117045450Y-33716816D01*
X117045450Y-33750430D01*
X117511648Y-33750430D01*
X117511648Y-32990224D01*
X117473821Y-32990224D01*
X117045450Y-33716816D01*
X116789270Y-33716816D01*
X116789270Y-33678988D01*
X117297417Y-32818032D01*
X117780468Y-32818032D01*
X117780468Y-33750430D01*
G37*
G36*
X119115500Y-33750430D02*
G01*
X119359040Y-33750430D01*
X119359040Y-33989849D01*
X119115500Y-33989849D01*
X119115500Y-34287978D01*
X118846680Y-34287978D01*
X118846680Y-33989849D01*
X118124301Y-33989849D01*
X118124301Y-33716816D01*
X118380481Y-33716816D01*
X118380481Y-33750430D01*
X118846680Y-33750430D01*
X118846680Y-32990224D01*
X118808853Y-32990224D01*
X118380481Y-33716816D01*
X118124301Y-33716816D01*
X118124301Y-33678988D01*
X118632448Y-32818032D01*
X119115500Y-32818032D01*
X119115500Y-33750430D01*
G37*
G36*
X119547535Y-33872246D02*
G01*
X120169072Y-33872246D01*
X120169072Y-33632827D01*
X119547535Y-33632827D01*
X119547535Y-33872246D01*
G37*
G36*
X120399973Y-34287978D02*
G01*
X121466825Y-34287978D01*
X121466825Y-34048650D01*
X120675112Y-34048650D01*
X120675112Y-34040224D01*
X120678259Y-33998064D01*
X120688562Y-33960596D01*
X120702660Y-33933792D01*
X120722707Y-33909169D01*
X120782393Y-33865566D01*
X120885442Y-33822246D01*
X120906105Y-33815551D01*
X121040469Y-33773510D01*
X121122809Y-33744676D01*
X121199348Y-33710428D01*
X121257347Y-33677573D01*
X121310013Y-33640124D01*
X121351289Y-33603202D01*
X121387568Y-33562159D01*
X121416072Y-33520684D01*
X121439699Y-33475301D01*
X121457413Y-33428113D01*
X121470102Y-33376980D01*
X121479373Y-33273698D01*
X121479373Y-33252724D01*
X121476487Y-33199340D01*
X121468005Y-33148573D01*
X121435116Y-33055016D01*
X121381959Y-32972583D01*
X121309288Y-32902489D01*
X121217909Y-32846797D01*
X121109332Y-32808261D01*
X120986193Y-32789840D01*
X120943932Y-32788632D01*
X120878701Y-32791544D01*
X120815963Y-32800204D01*
X120757140Y-32814202D01*
X120701497Y-32833532D01*
X120650736Y-32857376D01*
X120603708Y-32886073D01*
X120562003Y-32918443D01*
X120524462Y-32955194D01*
X120492271Y-32995024D01*
X120464615Y-33038823D01*
X120442202Y-33085502D01*
X120424704Y-33135832D01*
X120412492Y-33189199D01*
X120405644Y-33245994D01*
X120404186Y-33288444D01*
X120404186Y-33322058D01*
X120673006Y-33322058D01*
X120673006Y-33284231D01*
X120675893Y-33238779D01*
X120684379Y-33197541D01*
X120697609Y-33161857D01*
X120715561Y-33130228D01*
X120763878Y-33080008D01*
X120829117Y-33045899D01*
X120912598Y-33029200D01*
X120943932Y-33028051D01*
X120993011Y-33030934D01*
X121037857Y-33039396D01*
X121076942Y-33052621D01*
X121111544Y-33070543D01*
X121140479Y-33092081D01*
X121164755Y-33117533D01*
X121183781Y-33146010D01*
X121197904Y-33177798D01*
X121210571Y-33250497D01*
X121210645Y-33256937D01*
X121210645Y-33265363D01*
X121207737Y-33306739D01*
X121199104Y-33345016D01*
X121185407Y-33379194D01*
X121166587Y-33410546D01*
X121113122Y-33465691D01*
X121035005Y-33512040D01*
X120971226Y-33536198D01*
X120830542Y-33580345D01*
X120746555Y-33609644D01*
X120671139Y-33643312D01*
X120615521Y-33674964D01*
X120566000Y-33710617D01*
X120527115Y-33746124D01*
X120493246Y-33785504D01*
X120465992Y-33826453D01*
X120443337Y-33871408D01*
X120412322Y-33973292D01*
X120400076Y-34097985D01*
X120399973Y-34111665D01*
X120399973Y-34287978D01*
G37*
G36*
X122354782Y-32796621D02*
G01*
X122471860Y-32824500D01*
X122571224Y-32870344D01*
X122653977Y-32933078D01*
X122689380Y-32970821D01*
X122720696Y-33012822D01*
X122748076Y-33059626D01*
X122770968Y-33110718D01*
X122789593Y-33167420D01*
X122803193Y-33228536D01*
X122811778Y-33296077D01*
X122814680Y-33368220D01*
X122814680Y-33737790D01*
X122808081Y-33848147D01*
X122781940Y-33969403D01*
X122737971Y-34070678D01*
X122709559Y-34114704D01*
X122677048Y-34154356D01*
X122639810Y-34190315D01*
X122598606Y-34221758D01*
X122551749Y-34249670D01*
X122500942Y-34272747D01*
X122443382Y-34291837D01*
X122381831Y-34305617D01*
X122312574Y-34314443D01*
X122239305Y-34317378D01*
X122120031Y-34309304D01*
X122002597Y-34281838D01*
X121904048Y-34236985D01*
X121822535Y-34175637D01*
X121787739Y-34138619D01*
X121756943Y-34097253D01*
X121729964Y-34050884D01*
X121707386Y-34000015D01*
X121688918Y-33943019D01*
X121675416Y-33881230D01*
X121666831Y-33812106D01*
X121663929Y-33737790D01*
X121663929Y-33368220D01*
X121664725Y-33355672D01*
X121932749Y-33355672D01*
X121932749Y-33746216D01*
X121939416Y-33836422D01*
X121963462Y-33922418D01*
X122002966Y-33987290D01*
X122028898Y-34013363D01*
X122058880Y-34035042D01*
X122094905Y-34053146D01*
X122135426Y-34066340D01*
X122184704Y-34075122D01*
X122239305Y-34078051D01*
X122313685Y-34072345D01*
X122393708Y-34048566D01*
X122426804Y-34030203D01*
X122455731Y-34007577D01*
X122481392Y-33979687D01*
X122502682Y-33947395D01*
X122520882Y-33907544D01*
X122534091Y-33862759D01*
X122543003Y-33807374D01*
X122545951Y-33746216D01*
X122545951Y-33355672D01*
X122539579Y-33274075D01*
X122514516Y-33188300D01*
X122472616Y-33121534D01*
X122445239Y-33094401D01*
X122414008Y-33071875D01*
X122377390Y-33053254D01*
X122336970Y-33039733D01*
X122290037Y-33030977D01*
X122239305Y-33028051D01*
X122165397Y-33034541D01*
X122086550Y-33060182D01*
X122023585Y-33103839D01*
X121997536Y-33132781D01*
X121975702Y-33166104D01*
X121957553Y-33205397D01*
X121944258Y-33249200D01*
X121935653Y-33300080D01*
X121932749Y-33355672D01*
X121664725Y-33355672D01*
X121670929Y-33257837D01*
X121697858Y-33138067D01*
X121743019Y-33036805D01*
X121772128Y-32992533D01*
X121805408Y-32952506D01*
X121843297Y-32916259D01*
X121885177Y-32884458D01*
X121932295Y-32856404D01*
X121983313Y-32833139D01*
X122040269Y-32814084D01*
X122101067Y-32800287D01*
X122168308Y-32791554D01*
X122239305Y-32788632D01*
X122354782Y-32796621D01*
G37*
G36*
X123007021Y-34287978D02*
G01*
X124073874Y-34287978D01*
X124073874Y-34048650D01*
X123282160Y-34048650D01*
X123282160Y-34040224D01*
X123285307Y-33998064D01*
X123295610Y-33960596D01*
X123309709Y-33933792D01*
X123329755Y-33909169D01*
X123389441Y-33865566D01*
X123492490Y-33822246D01*
X123513153Y-33815551D01*
X123647517Y-33773510D01*
X123729857Y-33744676D01*
X123806396Y-33710428D01*
X123864395Y-33677573D01*
X123917061Y-33640124D01*
X123958337Y-33603202D01*
X123994616Y-33562159D01*
X124023120Y-33520684D01*
X124046747Y-33475301D01*
X124064462Y-33428113D01*
X124077150Y-33376980D01*
X124086422Y-33273698D01*
X124086422Y-33252724D01*
X124083535Y-33199340D01*
X124075054Y-33148573D01*
X124042164Y-33055016D01*
X123989008Y-32972583D01*
X123916336Y-32902489D01*
X123824957Y-32846797D01*
X123716380Y-32808261D01*
X123593241Y-32789840D01*
X123550980Y-32788632D01*
X123485749Y-32791544D01*
X123423011Y-32800204D01*
X123364188Y-32814202D01*
X123308545Y-32833532D01*
X123257785Y-32857376D01*
X123210756Y-32886073D01*
X123169051Y-32918443D01*
X123131510Y-32955194D01*
X123099319Y-32995024D01*
X123071663Y-33038823D01*
X123049250Y-33085502D01*
X123031753Y-33135832D01*
X123019541Y-33189199D01*
X123012692Y-33245994D01*
X123011234Y-33288444D01*
X123011234Y-33322058D01*
X123280054Y-33322058D01*
X123280054Y-33284231D01*
X123282941Y-33238779D01*
X123291427Y-33197541D01*
X123304658Y-33161857D01*
X123322609Y-33130228D01*
X123370926Y-33080008D01*
X123436165Y-33045899D01*
X123519646Y-33029200D01*
X123550980Y-33028051D01*
X123600059Y-33030934D01*
X123644905Y-33039396D01*
X123683990Y-33052621D01*
X123718592Y-33070543D01*
X123747527Y-33092081D01*
X123771804Y-33117533D01*
X123790829Y-33146010D01*
X123804952Y-33177798D01*
X123817619Y-33250497D01*
X123817693Y-33256937D01*
X123817693Y-33265363D01*
X123814785Y-33306739D01*
X123806152Y-33345016D01*
X123792455Y-33379194D01*
X123773635Y-33410546D01*
X123720170Y-33465691D01*
X123642053Y-33512040D01*
X123578274Y-33536198D01*
X123437590Y-33580345D01*
X123353603Y-33609644D01*
X123278187Y-33643312D01*
X123222569Y-33674964D01*
X123173048Y-33710617D01*
X123134163Y-33746124D01*
X123100294Y-33785504D01*
X123073040Y-33826453D01*
X123050385Y-33871408D01*
X123019371Y-33973292D01*
X123007124Y-34097985D01*
X123007021Y-34111665D01*
X123007021Y-34287978D01*
G37*
G36*
X124802297Y-34317378D02*
G01*
X124873301Y-34314476D01*
X124940057Y-34305880D01*
X125000733Y-34292229D01*
X125057113Y-34273515D01*
X125107731Y-34250584D01*
X125154017Y-34223146D01*
X125195031Y-34192040D01*
X125231645Y-34156883D01*
X125263446Y-34118210D01*
X125290696Y-34075828D01*
X125331178Y-33980124D01*
X125352079Y-33869300D01*
X125354592Y-33811338D01*
X125354592Y-33786150D01*
X125351713Y-33725534D01*
X125343287Y-33668819D01*
X125329699Y-33616281D01*
X125311235Y-33567710D01*
X125288086Y-33522957D01*
X125260644Y-33482310D01*
X125192996Y-33412602D01*
X125109377Y-33359375D01*
X125011090Y-33324312D01*
X124900347Y-33309701D01*
X124882073Y-33309419D01*
X124824662Y-33312210D01*
X124774048Y-33320026D01*
X124689286Y-33348663D01*
X124626210Y-33390803D01*
X124598599Y-33420702D01*
X124560772Y-33420702D01*
X124560772Y-33061665D01*
X125295790Y-33061665D01*
X125295790Y-32818032D01*
X124291952Y-32818032D01*
X124291952Y-33641253D01*
X124617467Y-33641253D01*
X124646585Y-33602387D01*
X124688908Y-33566883D01*
X124720927Y-33550520D01*
X124759568Y-33538680D01*
X124825378Y-33532076D01*
X124868258Y-33534963D01*
X124908516Y-33543448D01*
X124945412Y-33557120D01*
X124978911Y-33575774D01*
X125008184Y-33598766D01*
X125033373Y-33626096D01*
X125053801Y-33657003D01*
X125069516Y-33691643D01*
X125080070Y-33729403D01*
X125085271Y-33770367D01*
X125085772Y-33788257D01*
X125085772Y-33809231D01*
X125082860Y-33854374D01*
X125074205Y-33896326D01*
X125060620Y-33933251D01*
X125041966Y-33966654D01*
X125019159Y-33995381D01*
X124991786Y-34020270D01*
X124960274Y-34040877D01*
X124924469Y-34057209D01*
X124839123Y-34076150D01*
X124798084Y-34078051D01*
X124748952Y-34075189D01*
X124704510Y-34066877D01*
X124665380Y-34053783D01*
X124630828Y-34036207D01*
X124600927Y-34014588D01*
X124575624Y-33989287D01*
X124538378Y-33927975D01*
X124520168Y-33853515D01*
X124518731Y-33823886D01*
X124518731Y-33805018D01*
X124245790Y-33805018D01*
X124245790Y-33825992D01*
X124248696Y-33884869D01*
X124257315Y-33940781D01*
X124271177Y-33992581D01*
X124290252Y-34041189D01*
X124314065Y-34085890D01*
X124342687Y-34127155D01*
X124413574Y-34198539D01*
X124502695Y-34254702D01*
X124610328Y-34294230D01*
X124736801Y-34314927D01*
X124802297Y-34317378D01*
G37*
G36*
X125567632Y-33872246D02*
G01*
X126189169Y-33872246D01*
X126189169Y-33632827D01*
X125567632Y-33632827D01*
X125567632Y-33872246D01*
G37*
G36*
X126873721Y-34287978D02*
G01*
X127142541Y-34287978D01*
X127142541Y-32818032D01*
X126657383Y-32818032D01*
X126357147Y-33481610D01*
X126638515Y-33481610D01*
X126835894Y-33015411D01*
X126873721Y-33015411D01*
X126873721Y-34287978D01*
G37*
G36*
X111826539Y-35741639D02*
G01*
X111878742Y-35751695D01*
X111924166Y-35766449D01*
X111968123Y-35787742D01*
X112004832Y-35812670D01*
X112046190Y-35851998D01*
X112076634Y-35892433D01*
X112114370Y-35892433D01*
X112114370Y-35766404D01*
X112374763Y-35766404D01*
X112374763Y-36992808D01*
X112364475Y-37070626D01*
X112334458Y-37135734D01*
X112312748Y-37162442D01*
X112286924Y-37184945D01*
X112256816Y-37203217D01*
X112223038Y-37216656D01*
X112185024Y-37225129D01*
X112143771Y-37228014D01*
X111446580Y-37228014D01*
X111446580Y-36997021D01*
X112051447Y-36997021D01*
X112071569Y-36994633D01*
X112098876Y-36976611D01*
X112107361Y-36958237D01*
X112110248Y-36934007D01*
X112110248Y-36663080D01*
X112072421Y-36663080D01*
X112065595Y-36673822D01*
X112017274Y-36729244D01*
X111951694Y-36772557D01*
X111911718Y-36788885D01*
X111865321Y-36801445D01*
X111812883Y-36809382D01*
X111753226Y-36812191D01*
X111722098Y-36811232D01*
X111617939Y-36793276D01*
X111523199Y-36753884D01*
X111440805Y-36694889D01*
X111373109Y-36618006D01*
X111345466Y-36573395D01*
X111322135Y-36524573D01*
X111303558Y-36472012D01*
X111289893Y-36415507D01*
X111281478Y-36355312D01*
X111278601Y-36291404D01*
X111278601Y-36264110D01*
X111543208Y-36264110D01*
X111543208Y-36285084D01*
X111546217Y-36334602D01*
X111554567Y-36378353D01*
X111567914Y-36418124D01*
X111586059Y-36454060D01*
X111608566Y-36485750D01*
X111635715Y-36513650D01*
X111666671Y-36536896D01*
X111702157Y-36555864D01*
X111740870Y-36569649D01*
X111783571Y-36578289D01*
X111828789Y-36581198D01*
X111880884Y-36577313D01*
X111959142Y-36554207D01*
X112023227Y-36512475D01*
X112049504Y-36485193D01*
X112071811Y-36453612D01*
X112089805Y-36417820D01*
X112103128Y-36377931D01*
X112111499Y-36333501D01*
X112114370Y-36285084D01*
X112114370Y-36264110D01*
X112111320Y-36213888D01*
X112102986Y-36170110D01*
X112089684Y-36130327D01*
X112071672Y-36094537D01*
X112049313Y-36062976D01*
X112022371Y-36035252D01*
X111991593Y-36012145D01*
X111956210Y-35993271D01*
X111917497Y-35979543D01*
X111874503Y-35970905D01*
X111828789Y-35967996D01*
X111776671Y-35971807D01*
X111698257Y-35994681D01*
X111634281Y-36036102D01*
X111608038Y-36063286D01*
X111585789Y-36094769D01*
X111567788Y-36130618D01*
X111554473Y-36170598D01*
X111546082Y-36215331D01*
X111543208Y-36264110D01*
X111278601Y-36264110D01*
X111278601Y-36257790D01*
X111279210Y-36227972D01*
X111284675Y-36165386D01*
X111295556Y-36106606D01*
X111311640Y-36051432D01*
X111332555Y-36000328D01*
X111358253Y-35952957D01*
X111388213Y-35909962D01*
X111422556Y-35870996D01*
X111460581Y-35836753D01*
X111502485Y-35807008D01*
X111547449Y-35782348D01*
X111595578Y-35762736D01*
X111646087Y-35748557D01*
X111698832Y-35739913D01*
X111753226Y-35737003D01*
X111826539Y-35741639D01*
G37*
G36*
X113317308Y-35316621D02*
G01*
X113434386Y-35344500D01*
X113533750Y-35390344D01*
X113616504Y-35453078D01*
X113651907Y-35490821D01*
X113683222Y-35532822D01*
X113710602Y-35579626D01*
X113733494Y-35630718D01*
X113752119Y-35687420D01*
X113765720Y-35748536D01*
X113774305Y-35816077D01*
X113777206Y-35888220D01*
X113777206Y-36257790D01*
X113770608Y-36368147D01*
X113744466Y-36489403D01*
X113700497Y-36590678D01*
X113672085Y-36634704D01*
X113639574Y-36674356D01*
X113602336Y-36710315D01*
X113561132Y-36741758D01*
X113514275Y-36769670D01*
X113463468Y-36792747D01*
X113405908Y-36811837D01*
X113344357Y-36825617D01*
X113275100Y-36834443D01*
X113201831Y-36837378D01*
X113082557Y-36829304D01*
X112965123Y-36801838D01*
X112866574Y-36756985D01*
X112785061Y-36695637D01*
X112750265Y-36658619D01*
X112719470Y-36617253D01*
X112692491Y-36570884D01*
X112669912Y-36520015D01*
X112651445Y-36463019D01*
X112637942Y-36401230D01*
X112629357Y-36332106D01*
X112626456Y-36257790D01*
X112626456Y-35888220D01*
X112627252Y-35875672D01*
X112895275Y-35875672D01*
X112895275Y-36266216D01*
X112901942Y-36356422D01*
X112925989Y-36442418D01*
X112965493Y-36507290D01*
X112991425Y-36533363D01*
X113021406Y-36555042D01*
X113057431Y-36573146D01*
X113097952Y-36586340D01*
X113147230Y-36595122D01*
X113201831Y-36598051D01*
X113276211Y-36592345D01*
X113356234Y-36568566D01*
X113389330Y-36550203D01*
X113418257Y-36527577D01*
X113443919Y-36499687D01*
X113465208Y-36467395D01*
X113483408Y-36427544D01*
X113496618Y-36382759D01*
X113505530Y-36327374D01*
X113508478Y-36266216D01*
X113508478Y-35875672D01*
X113502105Y-35794075D01*
X113477042Y-35708300D01*
X113435142Y-35641534D01*
X113407765Y-35614401D01*
X113376534Y-35591875D01*
X113339916Y-35573254D01*
X113299496Y-35559733D01*
X113252563Y-35550977D01*
X113201831Y-35548051D01*
X113127924Y-35554541D01*
X113049076Y-35580182D01*
X112986111Y-35623839D01*
X112960062Y-35652781D01*
X112938228Y-35686104D01*
X112920079Y-35725397D01*
X112906784Y-35769200D01*
X112898179Y-35820080D01*
X112895275Y-35875672D01*
X112627252Y-35875672D01*
X112633455Y-35777837D01*
X112660384Y-35658067D01*
X112705545Y-35556805D01*
X112734654Y-35512533D01*
X112767935Y-35472506D01*
X112805823Y-35436259D01*
X112847703Y-35404458D01*
X112894822Y-35376404D01*
X112945839Y-35353139D01*
X113002796Y-35334084D01*
X113063593Y-35320287D01*
X113130835Y-35311554D01*
X113201831Y-35308632D01*
X113317308Y-35316621D01*
G37*
G36*
X114423198Y-36807978D02*
G01*
X114692017Y-36807978D01*
X114692017Y-35338032D01*
X114206860Y-35338032D01*
X113906624Y-36001610D01*
X114187992Y-36001610D01*
X114385371Y-35535411D01*
X114423198Y-35535411D01*
X114423198Y-36807978D01*
G37*
G36*
X114972378Y-36392246D02*
G01*
X115593915Y-36392246D01*
X115593915Y-36152827D01*
X114972378Y-36152827D01*
X114972378Y-36392246D01*
G37*
G36*
X116372988Y-36837378D02*
G01*
X116437801Y-36834499D01*
X116498340Y-36826071D01*
X116554288Y-36812508D01*
X116606079Y-36794080D01*
X116697782Y-36743525D01*
X116774427Y-36675501D01*
X116836041Y-36590372D01*
X116881502Y-36488429D01*
X116895882Y-36438408D01*
X116639610Y-36377499D01*
X116628200Y-36426230D01*
X116611236Y-36470179D01*
X116591518Y-36504360D01*
X116567046Y-36534056D01*
X116540211Y-36557040D01*
X116509010Y-36575636D01*
X116474306Y-36589237D01*
X116435150Y-36598143D01*
X116379216Y-36602264D01*
X116334619Y-36599348D01*
X116292524Y-36590658D01*
X116254623Y-36576853D01*
X116219868Y-36557814D01*
X116189588Y-36534468D01*
X116162991Y-36506363D01*
X116140824Y-36474236D01*
X116122888Y-36437666D01*
X116109539Y-36396787D01*
X116101087Y-36351616D01*
X116097849Y-36297724D01*
X116097849Y-36276749D01*
X116100719Y-36225904D01*
X116109089Y-36179472D01*
X116122323Y-36138211D01*
X116140174Y-36101353D01*
X116162141Y-36069167D01*
X116187988Y-36041463D01*
X116250649Y-35999455D01*
X116327047Y-35976233D01*
X116379216Y-35972209D01*
X116424909Y-35975072D01*
X116465757Y-35983386D01*
X116501125Y-35996387D01*
X116532109Y-36013822D01*
X116581828Y-36061008D01*
X116616459Y-36125076D01*
X116633382Y-36194867D01*
X116889562Y-36140187D01*
X116875710Y-36083372D01*
X116856388Y-36029440D01*
X116832579Y-35980513D01*
X116803718Y-35935005D01*
X116771088Y-35894660D01*
X116733787Y-35858160D01*
X116693053Y-35826661D01*
X116647937Y-35799404D01*
X116599281Y-35777012D01*
X116546413Y-35759298D01*
X116489567Y-35746585D01*
X116428572Y-35739079D01*
X116372988Y-35737003D01*
X116309865Y-35739916D01*
X116249062Y-35748584D01*
X116191850Y-35762625D01*
X116137587Y-35782033D01*
X116087699Y-35806106D01*
X116041289Y-35835119D01*
X115999650Y-35868115D01*
X115961938Y-35905639D01*
X115929108Y-35946685D01*
X115900619Y-35991903D01*
X115877057Y-36040495D01*
X115858265Y-36092982D01*
X115844578Y-36148964D01*
X115836148Y-36208640D01*
X115833242Y-36272536D01*
X115833242Y-36301937D01*
X115836128Y-36365612D01*
X115844602Y-36425629D01*
X115858303Y-36481611D01*
X115876995Y-36533816D01*
X115900444Y-36582231D01*
X115928358Y-36626702D01*
X115997244Y-36704159D01*
X116082616Y-36765463D01*
X116183446Y-36809174D01*
X116298217Y-36833270D01*
X116372988Y-36837378D01*
G37*
G36*
X117686212Y-35741241D02*
G01*
X117802527Y-35765457D01*
X117904270Y-35809140D01*
X117990181Y-35870278D01*
X118059388Y-35947448D01*
X118087422Y-35991755D01*
X118110937Y-36039927D01*
X118129690Y-36091895D01*
X118143419Y-36147546D01*
X118151913Y-36207215D01*
X118154801Y-36270430D01*
X118154801Y-36304043D01*
X118151674Y-36369763D01*
X118143050Y-36428811D01*
X118129171Y-36484273D01*
X118110211Y-36536239D01*
X118086462Y-36584406D01*
X118057808Y-36629194D01*
X118024770Y-36669899D01*
X117986854Y-36707087D01*
X117944933Y-36739830D01*
X117898197Y-36768617D01*
X117847859Y-36792536D01*
X117793006Y-36811834D01*
X117735019Y-36825818D01*
X117673167Y-36834468D01*
X117608735Y-36837378D01*
X117531329Y-36833148D01*
X117415016Y-36808944D01*
X117313277Y-36765273D01*
X117227370Y-36704150D01*
X117158168Y-36626994D01*
X117130137Y-36582696D01*
X117106623Y-36534531D01*
X117087871Y-36482569D01*
X117074142Y-36426923D01*
X117065649Y-36367257D01*
X117062761Y-36304043D01*
X117062761Y-36276749D01*
X117327367Y-36276749D01*
X117327367Y-36297724D01*
X117330714Y-36352403D01*
X117339244Y-36397424D01*
X117352670Y-36438243D01*
X117370629Y-36474687D01*
X117392830Y-36506758D01*
X117419361Y-36534730D01*
X117449601Y-36558007D01*
X117484217Y-36576940D01*
X117522046Y-36590698D01*
X117564068Y-36599353D01*
X117608735Y-36602264D01*
X117660355Y-36598349D01*
X117736955Y-36575263D01*
X117799773Y-36533287D01*
X117825724Y-36505517D01*
X117847741Y-36473292D01*
X117865664Y-36436325D01*
X117878929Y-36395008D01*
X117887321Y-36348523D01*
X117890194Y-36297724D01*
X117890194Y-36276749D01*
X117886808Y-36221323D01*
X117864925Y-36135468D01*
X117847102Y-36099181D01*
X117825050Y-36067250D01*
X117798714Y-36039456D01*
X117768639Y-36016319D01*
X117734104Y-35997477D01*
X117696252Y-35983775D01*
X117653915Y-35975120D01*
X117608735Y-35972209D01*
X117557146Y-35976039D01*
X117480390Y-35998864D01*
X117417699Y-36040485D01*
X117391791Y-36068133D01*
X117369839Y-36100239D01*
X117351913Y-36137262D01*
X117338658Y-36178676D01*
X117330244Y-36225516D01*
X117327367Y-36276749D01*
X117062761Y-36276749D01*
X117062761Y-36270430D01*
X117065889Y-36204693D01*
X117074515Y-36145638D01*
X117088396Y-36090168D01*
X117107360Y-36038193D01*
X117131112Y-35990016D01*
X117159769Y-35945218D01*
X117192810Y-35904504D01*
X117230727Y-35867309D01*
X117272647Y-35834559D01*
X117319377Y-35805769D01*
X117369708Y-35781847D01*
X117424544Y-35762547D01*
X117482512Y-35748563D01*
X117544336Y-35739914D01*
X117608735Y-35737003D01*
X117686212Y-35741241D01*
G37*
G36*
X118398342Y-36807978D02*
G01*
X118662948Y-36807978D01*
X118662948Y-36278856D01*
X118665850Y-36222425D01*
X118674442Y-36171158D01*
X118687596Y-36127752D01*
X118705507Y-36089300D01*
X118726721Y-36057617D01*
X118751950Y-36030684D01*
X118780105Y-36009262D01*
X118811802Y-35992576D01*
X118885608Y-35973931D01*
X118919220Y-35972209D01*
X118964837Y-35975143D01*
X119005562Y-35983954D01*
X119038176Y-35997057D01*
X119066536Y-36015029D01*
X119089386Y-36036560D01*
X119108232Y-36062482D01*
X119133681Y-36128114D01*
X119141786Y-36207415D01*
X119141786Y-36807978D01*
X119406393Y-36807978D01*
X119406393Y-36186441D01*
X119403499Y-36127712D01*
X119394969Y-36072153D01*
X119381223Y-36020635D01*
X119362410Y-35972752D01*
X119339134Y-35929397D01*
X119311359Y-35890086D01*
X119279799Y-35855562D01*
X119244272Y-35825457D01*
X119205425Y-35800268D01*
X119163084Y-35779880D01*
X119117640Y-35764585D01*
X119069113Y-35754521D01*
X119001102Y-35749643D01*
X118943461Y-35752453D01*
X118892778Y-35760404D01*
X118848090Y-35772966D01*
X118809700Y-35789315D01*
X118747905Y-35832411D01*
X118705049Y-35886665D01*
X118696562Y-35902966D01*
X118658735Y-35902966D01*
X118658735Y-35766404D01*
X118398342Y-35766404D01*
X118398342Y-36807978D01*
G37*
G36*
X120060628Y-36807978D02*
G01*
X120354635Y-36807978D01*
X120354635Y-36589624D01*
X120153043Y-36589624D01*
X120130948Y-36586693D01*
X120113811Y-36577893D01*
X120096607Y-36548813D01*
X120094242Y-36526610D01*
X120094242Y-35984849D01*
X120379823Y-35984849D01*
X120379823Y-35766404D01*
X120094242Y-35766404D01*
X120094242Y-35442996D01*
X119829635Y-35442996D01*
X119829635Y-35766404D01*
X119569242Y-35766404D01*
X119569242Y-35984849D01*
X119829635Y-35984849D01*
X119829635Y-36572863D01*
X119832516Y-36615282D01*
X119840958Y-36654222D01*
X119854321Y-36688712D01*
X119872445Y-36719350D01*
X119894697Y-36745535D01*
X119921032Y-36767482D01*
X119984887Y-36797684D01*
X120060628Y-36807978D01*
G37*
G36*
X120618509Y-36807978D02*
G01*
X120883116Y-36807978D01*
X120883116Y-36215841D01*
X120885987Y-36173785D01*
X120894360Y-36136287D01*
X120907362Y-36104321D01*
X120924854Y-36076576D01*
X120972018Y-36033652D01*
X121036133Y-36006593D01*
X121114108Y-35997397D01*
X121244351Y-35997397D01*
X121244351Y-35762191D01*
X121118321Y-35762191D01*
X121073502Y-35765156D01*
X121032550Y-35774191D01*
X120999729Y-35787577D01*
X120970957Y-35806127D01*
X120948499Y-35827825D01*
X120930180Y-35854112D01*
X120916730Y-35884007D01*
X120878902Y-35884007D01*
X120878902Y-35766404D01*
X120618509Y-35766404D01*
X120618509Y-36807978D01*
G37*
G36*
X121984397Y-35741241D02*
G01*
X122100713Y-35765457D01*
X122202455Y-35809140D01*
X122288367Y-35870278D01*
X122357574Y-35947448D01*
X122385607Y-35991755D01*
X122409122Y-36039927D01*
X122427876Y-36091895D01*
X122441605Y-36147546D01*
X122450098Y-36207215D01*
X122452987Y-36270430D01*
X122452987Y-36304043D01*
X122449860Y-36369763D01*
X122441235Y-36428811D01*
X122427357Y-36484273D01*
X122408396Y-36536239D01*
X122384648Y-36584406D01*
X122355994Y-36629194D01*
X122322956Y-36669899D01*
X122285040Y-36707087D01*
X122243119Y-36739830D01*
X122196383Y-36768617D01*
X122146044Y-36792536D01*
X122091192Y-36811834D01*
X122033205Y-36825818D01*
X121971353Y-36834468D01*
X121906921Y-36837378D01*
X121829514Y-36833148D01*
X121713201Y-36808944D01*
X121611463Y-36765273D01*
X121525556Y-36704150D01*
X121456354Y-36626994D01*
X121428322Y-36582696D01*
X121404809Y-36534531D01*
X121386056Y-36482569D01*
X121372328Y-36426923D01*
X121363834Y-36367257D01*
X121360946Y-36304043D01*
X121360946Y-36276749D01*
X121625553Y-36276749D01*
X121625553Y-36297724D01*
X121628899Y-36352403D01*
X121637429Y-36397424D01*
X121650856Y-36438243D01*
X121668815Y-36474687D01*
X121691015Y-36506758D01*
X121717547Y-36534730D01*
X121747787Y-36558007D01*
X121782403Y-36576940D01*
X121820232Y-36590698D01*
X121862254Y-36599353D01*
X121906921Y-36602264D01*
X121958541Y-36598349D01*
X122035141Y-36575263D01*
X122097959Y-36533287D01*
X122123910Y-36505517D01*
X122145927Y-36473292D01*
X122163849Y-36436325D01*
X122177114Y-36395008D01*
X122185506Y-36348523D01*
X122188380Y-36297724D01*
X122188380Y-36276749D01*
X122184994Y-36221323D01*
X122163110Y-36135468D01*
X122145287Y-36099181D01*
X122123236Y-36067250D01*
X122096900Y-36039456D01*
X122066825Y-36016319D01*
X122032290Y-35997477D01*
X121994438Y-35983775D01*
X121952101Y-35975120D01*
X121906921Y-35972209D01*
X121855332Y-35976039D01*
X121778575Y-35998864D01*
X121715884Y-36040485D01*
X121689976Y-36068133D01*
X121668025Y-36100239D01*
X121650099Y-36137262D01*
X121636844Y-36178676D01*
X121628430Y-36225516D01*
X121625553Y-36276749D01*
X121360946Y-36276749D01*
X121360946Y-36270430D01*
X121364075Y-36204693D01*
X121372701Y-36145638D01*
X121386582Y-36090168D01*
X121405546Y-36038193D01*
X121429298Y-35990016D01*
X121457955Y-35945218D01*
X121490996Y-35904504D01*
X121528913Y-35867309D01*
X121570833Y-35834559D01*
X121617563Y-35805769D01*
X121667894Y-35781847D01*
X121722730Y-35762547D01*
X121780698Y-35748563D01*
X121842521Y-35739914D01*
X121906921Y-35737003D01*
X121984397Y-35741241D01*
G37*
G36*
X122696527Y-36807978D02*
G01*
X122961134Y-36807978D01*
X122961134Y-35338032D01*
X122696527Y-35338032D01*
X122696527Y-36807978D01*
G37*
X49054510Y-59729400D02*
X50197368Y-59729400D01*
X49625939Y-60300828D02*
X49625939Y-59157971D01*
D11*
X76153333Y-53484819D02*
X75820000Y-53008628D01*
X75581905Y-53484819D02*
X75581905Y-52484819D01*
X75581905Y-52484819D02*
X75962857Y-52484819D01*
X75962857Y-52484819D02*
X76058095Y-52532438D01*
X76058095Y-52532438D02*
X76105714Y-52580057D01*
X76105714Y-52580057D02*
X76153333Y-52675295D01*
X76153333Y-52675295D02*
X76153333Y-52818152D01*
X76153333Y-52818152D02*
X76105714Y-52913390D01*
X76105714Y-52913390D02*
X76058095Y-52961009D01*
X76058095Y-52961009D02*
X75962857Y-53008628D01*
X75962857Y-53008628D02*
X75581905Y-53008628D01*
X76486667Y-52484819D02*
X77153333Y-52484819D01*
X77153333Y-52484819D02*
X76724762Y-53484819D01*
X48534819Y-56833333D02*
X49249104Y-56833333D01*
X49249104Y-56833333D02*
X49391961Y-56880952D01*
X49391961Y-56880952D02*
X49487200Y-56976190D01*
X49487200Y-56976190D02*
X49534819Y-57119047D01*
X49534819Y-57119047D02*
X49534819Y-57214285D01*
X48630057Y-56404761D02*
X48582438Y-56357142D01*
X48582438Y-56357142D02*
X48534819Y-56261904D01*
X48534819Y-56261904D02*
X48534819Y-56023809D01*
X48534819Y-56023809D02*
X48582438Y-55928571D01*
X48582438Y-55928571D02*
X48630057Y-55880952D01*
X48630057Y-55880952D02*
X48725295Y-55833333D01*
X48725295Y-55833333D02*
X48820533Y-55833333D01*
X48820533Y-55833333D02*
X48963390Y-55880952D01*
X48963390Y-55880952D02*
X49534819Y-56452380D01*
X49534819Y-56452380D02*
X49534819Y-55833333D01*
X102183333Y-37259580D02*
X102135714Y-37307200D01*
X102135714Y-37307200D02*
X101992857Y-37354819D01*
X101992857Y-37354819D02*
X101897619Y-37354819D01*
X101897619Y-37354819D02*
X101754762Y-37307200D01*
X101754762Y-37307200D02*
X101659524Y-37211961D01*
X101659524Y-37211961D02*
X101611905Y-37116723D01*
X101611905Y-37116723D02*
X101564286Y-36926247D01*
X101564286Y-36926247D02*
X101564286Y-36783390D01*
X101564286Y-36783390D02*
X101611905Y-36592914D01*
X101611905Y-36592914D02*
X101659524Y-36497676D01*
X101659524Y-36497676D02*
X101754762Y-36402438D01*
X101754762Y-36402438D02*
X101897619Y-36354819D01*
X101897619Y-36354819D02*
X101992857Y-36354819D01*
X101992857Y-36354819D02*
X102135714Y-36402438D01*
X102135714Y-36402438D02*
X102183333Y-36450057D01*
X103040476Y-36688152D02*
X103040476Y-37354819D01*
X102802381Y-36307200D02*
X102564286Y-37021485D01*
X102564286Y-37021485D02*
X103183333Y-37021485D01*
X85634819Y-64933333D02*
X86349104Y-64933333D01*
X86349104Y-64933333D02*
X86491961Y-64980952D01*
X86491961Y-64980952D02*
X86587200Y-65076190D01*
X86587200Y-65076190D02*
X86634819Y-65219047D01*
X86634819Y-65219047D02*
X86634819Y-65314285D01*
X85634819Y-63980952D02*
X85634819Y-64457142D01*
X85634819Y-64457142D02*
X86111009Y-64504761D01*
X86111009Y-64504761D02*
X86063390Y-64457142D01*
X86063390Y-64457142D02*
X86015771Y-64361904D01*
X86015771Y-64361904D02*
X86015771Y-64123809D01*
X86015771Y-64123809D02*
X86063390Y-64028571D01*
X86063390Y-64028571D02*
X86111009Y-63980952D01*
X86111009Y-63980952D02*
X86206247Y-63933333D01*
X86206247Y-63933333D02*
X86444342Y-63933333D01*
X86444342Y-63933333D02*
X86539580Y-63980952D01*
X86539580Y-63980952D02*
X86587200Y-64028571D01*
X86587200Y-64028571D02*
X86634819Y-64123809D01*
X86634819Y-64123809D02*
X86634819Y-64361904D01*
X86634819Y-64361904D02*
X86587200Y-64457142D01*
X86587200Y-64457142D02*
X86539580Y-64504761D01*
X130564819Y-44451904D02*
X131374342Y-44451904D01*
X131374342Y-44451904D02*
X131469580Y-44404285D01*
X131469580Y-44404285D02*
X131517200Y-44356666D01*
X131517200Y-44356666D02*
X131564819Y-44261428D01*
X131564819Y-44261428D02*
X131564819Y-44070952D01*
X131564819Y-44070952D02*
X131517200Y-43975714D01*
X131517200Y-43975714D02*
X131469580Y-43928095D01*
X131469580Y-43928095D02*
X131374342Y-43880476D01*
X131374342Y-43880476D02*
X130564819Y-43880476D01*
X130564819Y-43499523D02*
X130564819Y-42880476D01*
X130564819Y-42880476D02*
X130945771Y-43213809D01*
X130945771Y-43213809D02*
X130945771Y-43070952D01*
X130945771Y-43070952D02*
X130993390Y-42975714D01*
X130993390Y-42975714D02*
X131041009Y-42928095D01*
X131041009Y-42928095D02*
X131136247Y-42880476D01*
X131136247Y-42880476D02*
X131374342Y-42880476D01*
X131374342Y-42880476D02*
X131469580Y-42928095D01*
X131469580Y-42928095D02*
X131517200Y-42975714D01*
X131517200Y-42975714D02*
X131564819Y-43070952D01*
X131564819Y-43070952D02*
X131564819Y-43356666D01*
X131564819Y-43356666D02*
X131517200Y-43451904D01*
X131517200Y-43451904D02*
X131469580Y-43499523D01*
X71054819Y-66595238D02*
X70578628Y-66928571D01*
X71054819Y-67166666D02*
X70054819Y-67166666D01*
X70054819Y-67166666D02*
X70054819Y-66785714D01*
X70054819Y-66785714D02*
X70102438Y-66690476D01*
X70102438Y-66690476D02*
X70150057Y-66642857D01*
X70150057Y-66642857D02*
X70245295Y-66595238D01*
X70245295Y-66595238D02*
X70388152Y-66595238D01*
X70388152Y-66595238D02*
X70483390Y-66642857D01*
X70483390Y-66642857D02*
X70531009Y-66690476D01*
X70531009Y-66690476D02*
X70578628Y-66785714D01*
X70578628Y-66785714D02*
X70578628Y-67166666D01*
X70054819Y-66309523D02*
X71054819Y-65976190D01*
X71054819Y-65976190D02*
X70054819Y-65642857D01*
X70150057Y-65357142D02*
X70102438Y-65309523D01*
X70102438Y-65309523D02*
X70054819Y-65214285D01*
X70054819Y-65214285D02*
X70054819Y-64976190D01*
X70054819Y-64976190D02*
X70102438Y-64880952D01*
X70102438Y-64880952D02*
X70150057Y-64833333D01*
X70150057Y-64833333D02*
X70245295Y-64785714D01*
X70245295Y-64785714D02*
X70340533Y-64785714D01*
X70340533Y-64785714D02*
X70483390Y-64833333D01*
X70483390Y-64833333D02*
X71054819Y-65404761D01*
X71054819Y-65404761D02*
X71054819Y-64785714D01*
X41867200Y-45333332D02*
X41914819Y-45190475D01*
X41914819Y-45190475D02*
X41914819Y-44952380D01*
X41914819Y-44952380D02*
X41867200Y-44857142D01*
X41867200Y-44857142D02*
X41819580Y-44809523D01*
X41819580Y-44809523D02*
X41724342Y-44761904D01*
X41724342Y-44761904D02*
X41629104Y-44761904D01*
X41629104Y-44761904D02*
X41533866Y-44809523D01*
X41533866Y-44809523D02*
X41486247Y-44857142D01*
X41486247Y-44857142D02*
X41438628Y-44952380D01*
X41438628Y-44952380D02*
X41391009Y-45142856D01*
X41391009Y-45142856D02*
X41343390Y-45238094D01*
X41343390Y-45238094D02*
X41295771Y-45285713D01*
X41295771Y-45285713D02*
X41200533Y-45333332D01*
X41200533Y-45333332D02*
X41105295Y-45333332D01*
X41105295Y-45333332D02*
X41010057Y-45285713D01*
X41010057Y-45285713D02*
X40962438Y-45238094D01*
X40962438Y-45238094D02*
X40914819Y-45142856D01*
X40914819Y-45142856D02*
X40914819Y-44904761D01*
X40914819Y-44904761D02*
X40962438Y-44761904D01*
X40914819Y-44428570D02*
X41914819Y-44190475D01*
X41914819Y-44190475D02*
X41200533Y-43999999D01*
X41200533Y-43999999D02*
X41914819Y-43809523D01*
X41914819Y-43809523D02*
X40914819Y-43571428D01*
X41914819Y-42666666D02*
X41914819Y-43238094D01*
X41914819Y-42952380D02*
X40914819Y-42952380D01*
X40914819Y-42952380D02*
X41057676Y-43047618D01*
X41057676Y-43047618D02*
X41152914Y-43142856D01*
X41152914Y-43142856D02*
X41200533Y-43238094D01*
X89528095Y-40184819D02*
X89528095Y-40994342D01*
X89528095Y-40994342D02*
X89575714Y-41089580D01*
X89575714Y-41089580D02*
X89623333Y-41137200D01*
X89623333Y-41137200D02*
X89718571Y-41184819D01*
X89718571Y-41184819D02*
X89909047Y-41184819D01*
X89909047Y-41184819D02*
X90004285Y-41137200D01*
X90004285Y-41137200D02*
X90051904Y-41089580D01*
X90051904Y-41089580D02*
X90099523Y-40994342D01*
X90099523Y-40994342D02*
X90099523Y-40184819D01*
X90528095Y-40280057D02*
X90575714Y-40232438D01*
X90575714Y-40232438D02*
X90670952Y-40184819D01*
X90670952Y-40184819D02*
X90909047Y-40184819D01*
X90909047Y-40184819D02*
X91004285Y-40232438D01*
X91004285Y-40232438D02*
X91051904Y-40280057D01*
X91051904Y-40280057D02*
X91099523Y-40375295D01*
X91099523Y-40375295D02*
X91099523Y-40470533D01*
X91099523Y-40470533D02*
X91051904Y-40613390D01*
X91051904Y-40613390D02*
X90480476Y-41184819D01*
X90480476Y-41184819D02*
X91099523Y-41184819D01*
X47584819Y-50266666D02*
X47108628Y-50599999D01*
X47584819Y-50838094D02*
X46584819Y-50838094D01*
X46584819Y-50838094D02*
X46584819Y-50457142D01*
X46584819Y-50457142D02*
X46632438Y-50361904D01*
X46632438Y-50361904D02*
X46680057Y-50314285D01*
X46680057Y-50314285D02*
X46775295Y-50266666D01*
X46775295Y-50266666D02*
X46918152Y-50266666D01*
X46918152Y-50266666D02*
X47013390Y-50314285D01*
X47013390Y-50314285D02*
X47061009Y-50361904D01*
X47061009Y-50361904D02*
X47108628Y-50457142D01*
X47108628Y-50457142D02*
X47108628Y-50838094D01*
X47584819Y-49314285D02*
X47584819Y-49885713D01*
X47584819Y-49599999D02*
X46584819Y-49599999D01*
X46584819Y-49599999D02*
X46727676Y-49695237D01*
X46727676Y-49695237D02*
X46822914Y-49790475D01*
X46822914Y-49790475D02*
X46870533Y-49885713D01*
X102233333Y-50659580D02*
X102185714Y-50707200D01*
X102185714Y-50707200D02*
X102042857Y-50754819D01*
X102042857Y-50754819D02*
X101947619Y-50754819D01*
X101947619Y-50754819D02*
X101804762Y-50707200D01*
X101804762Y-50707200D02*
X101709524Y-50611961D01*
X101709524Y-50611961D02*
X101661905Y-50516723D01*
X101661905Y-50516723D02*
X101614286Y-50326247D01*
X101614286Y-50326247D02*
X101614286Y-50183390D01*
X101614286Y-50183390D02*
X101661905Y-49992914D01*
X101661905Y-49992914D02*
X101709524Y-49897676D01*
X101709524Y-49897676D02*
X101804762Y-49802438D01*
X101804762Y-49802438D02*
X101947619Y-49754819D01*
X101947619Y-49754819D02*
X102042857Y-49754819D01*
X102042857Y-49754819D02*
X102185714Y-49802438D01*
X102185714Y-49802438D02*
X102233333Y-49850057D01*
X102614286Y-49850057D02*
X102661905Y-49802438D01*
X102661905Y-49802438D02*
X102757143Y-49754819D01*
X102757143Y-49754819D02*
X102995238Y-49754819D01*
X102995238Y-49754819D02*
X103090476Y-49802438D01*
X103090476Y-49802438D02*
X103138095Y-49850057D01*
X103138095Y-49850057D02*
X103185714Y-49945295D01*
X103185714Y-49945295D02*
X103185714Y-50040533D01*
X103185714Y-50040533D02*
X103138095Y-50183390D01*
X103138095Y-50183390D02*
X102566667Y-50754819D01*
X102566667Y-50754819D02*
X103185714Y-50754819D01*
X64942989Y-34891512D02*
X64942989Y-33891512D01*
X64942989Y-33891512D02*
X65181084Y-33891512D01*
X65181084Y-33891512D02*
X65323941Y-33939131D01*
X65323941Y-33939131D02*
X65419179Y-34034369D01*
X65419179Y-34034369D02*
X65466798Y-34129607D01*
X65466798Y-34129607D02*
X65514417Y-34320083D01*
X65514417Y-34320083D02*
X65514417Y-34462940D01*
X65514417Y-34462940D02*
X65466798Y-34653416D01*
X65466798Y-34653416D02*
X65419179Y-34748654D01*
X65419179Y-34748654D02*
X65323941Y-34843893D01*
X65323941Y-34843893D02*
X65181084Y-34891512D01*
X65181084Y-34891512D02*
X64942989Y-34891512D01*
X66466798Y-34891512D02*
X65895370Y-34891512D01*
X66181084Y-34891512D02*
X66181084Y-33891512D01*
X66181084Y-33891512D02*
X66085846Y-34034369D01*
X66085846Y-34034369D02*
X65990608Y-34129607D01*
X65990608Y-34129607D02*
X65895370Y-34177226D01*
X70499179Y-34521512D02*
X70499179Y-33521512D01*
X71070607Y-34521512D02*
X70642036Y-33950083D01*
X71070607Y-33521512D02*
X70499179Y-34092940D01*
X54463333Y-31654819D02*
X54130000Y-31178628D01*
X53891905Y-31654819D02*
X53891905Y-30654819D01*
X53891905Y-30654819D02*
X54272857Y-30654819D01*
X54272857Y-30654819D02*
X54368095Y-30702438D01*
X54368095Y-30702438D02*
X54415714Y-30750057D01*
X54415714Y-30750057D02*
X54463333Y-30845295D01*
X54463333Y-30845295D02*
X54463333Y-30988152D01*
X54463333Y-30988152D02*
X54415714Y-31083390D01*
X54415714Y-31083390D02*
X54368095Y-31131009D01*
X54368095Y-31131009D02*
X54272857Y-31178628D01*
X54272857Y-31178628D02*
X53891905Y-31178628D01*
X54844286Y-30750057D02*
X54891905Y-30702438D01*
X54891905Y-30702438D02*
X54987143Y-30654819D01*
X54987143Y-30654819D02*
X55225238Y-30654819D01*
X55225238Y-30654819D02*
X55320476Y-30702438D01*
X55320476Y-30702438D02*
X55368095Y-30750057D01*
X55368095Y-30750057D02*
X55415714Y-30845295D01*
X55415714Y-30845295D02*
X55415714Y-30940533D01*
X55415714Y-30940533D02*
X55368095Y-31083390D01*
X55368095Y-31083390D02*
X54796667Y-31654819D01*
X54796667Y-31654819D02*
X55415714Y-31654819D01*
X73034819Y-64933333D02*
X73749104Y-64933333D01*
X73749104Y-64933333D02*
X73891961Y-64980952D01*
X73891961Y-64980952D02*
X73987200Y-65076190D01*
X73987200Y-65076190D02*
X74034819Y-65219047D01*
X74034819Y-65219047D02*
X74034819Y-65314285D01*
X73034819Y-64552380D02*
X73034819Y-63885714D01*
X73034819Y-63885714D02*
X74034819Y-64314285D01*
X60033333Y-52584819D02*
X59700000Y-52108628D01*
X59461905Y-52584819D02*
X59461905Y-51584819D01*
X59461905Y-51584819D02*
X59842857Y-51584819D01*
X59842857Y-51584819D02*
X59938095Y-51632438D01*
X59938095Y-51632438D02*
X59985714Y-51680057D01*
X59985714Y-51680057D02*
X60033333Y-51775295D01*
X60033333Y-51775295D02*
X60033333Y-51918152D01*
X60033333Y-51918152D02*
X59985714Y-52013390D01*
X59985714Y-52013390D02*
X59938095Y-52061009D01*
X59938095Y-52061009D02*
X59842857Y-52108628D01*
X59842857Y-52108628D02*
X59461905Y-52108628D01*
X60890476Y-51918152D02*
X60890476Y-52584819D01*
X60652381Y-51537200D02*
X60414286Y-52251485D01*
X60414286Y-52251485D02*
X61033333Y-52251485D01*
X134683333Y-49659580D02*
X134635714Y-49707200D01*
X134635714Y-49707200D02*
X134492857Y-49754819D01*
X134492857Y-49754819D02*
X134397619Y-49754819D01*
X134397619Y-49754819D02*
X134254762Y-49707200D01*
X134254762Y-49707200D02*
X134159524Y-49611961D01*
X134159524Y-49611961D02*
X134111905Y-49516723D01*
X134111905Y-49516723D02*
X134064286Y-49326247D01*
X134064286Y-49326247D02*
X134064286Y-49183390D01*
X134064286Y-49183390D02*
X134111905Y-48992914D01*
X134111905Y-48992914D02*
X134159524Y-48897676D01*
X134159524Y-48897676D02*
X134254762Y-48802438D01*
X134254762Y-48802438D02*
X134397619Y-48754819D01*
X134397619Y-48754819D02*
X134492857Y-48754819D01*
X134492857Y-48754819D02*
X134635714Y-48802438D01*
X134635714Y-48802438D02*
X134683333Y-48850057D01*
X135016667Y-48754819D02*
X135635714Y-48754819D01*
X135635714Y-48754819D02*
X135302381Y-49135771D01*
X135302381Y-49135771D02*
X135445238Y-49135771D01*
X135445238Y-49135771D02*
X135540476Y-49183390D01*
X135540476Y-49183390D02*
X135588095Y-49231009D01*
X135588095Y-49231009D02*
X135635714Y-49326247D01*
X135635714Y-49326247D02*
X135635714Y-49564342D01*
X135635714Y-49564342D02*
X135588095Y-49659580D01*
X135588095Y-49659580D02*
X135540476Y-49707200D01*
X135540476Y-49707200D02*
X135445238Y-49754819D01*
X135445238Y-49754819D02*
X135159524Y-49754819D01*
X135159524Y-49754819D02*
X135064286Y-49707200D01*
X135064286Y-49707200D02*
X135016667Y-49659580D01*
X131554819Y-66595238D02*
X131078628Y-66928571D01*
X131554819Y-67166666D02*
X130554819Y-67166666D01*
X130554819Y-67166666D02*
X130554819Y-66785714D01*
X130554819Y-66785714D02*
X130602438Y-66690476D01*
X130602438Y-66690476D02*
X130650057Y-66642857D01*
X130650057Y-66642857D02*
X130745295Y-66595238D01*
X130745295Y-66595238D02*
X130888152Y-66595238D01*
X130888152Y-66595238D02*
X130983390Y-66642857D01*
X130983390Y-66642857D02*
X131031009Y-66690476D01*
X131031009Y-66690476D02*
X131078628Y-66785714D01*
X131078628Y-66785714D02*
X131078628Y-67166666D01*
X130554819Y-66309523D02*
X131554819Y-65976190D01*
X131554819Y-65976190D02*
X130554819Y-65642857D01*
X131554819Y-64785714D02*
X131554819Y-65357142D01*
X131554819Y-65071428D02*
X130554819Y-65071428D01*
X130554819Y-65071428D02*
X130697676Y-65166666D01*
X130697676Y-65166666D02*
X130792914Y-65261904D01*
X130792914Y-65261904D02*
X130840533Y-65357142D01*
X77633333Y-33384819D02*
X77300000Y-32908628D01*
X77061905Y-33384819D02*
X77061905Y-32384819D01*
X77061905Y-32384819D02*
X77442857Y-32384819D01*
X77442857Y-32384819D02*
X77538095Y-32432438D01*
X77538095Y-32432438D02*
X77585714Y-32480057D01*
X77585714Y-32480057D02*
X77633333Y-32575295D01*
X77633333Y-32575295D02*
X77633333Y-32718152D01*
X77633333Y-32718152D02*
X77585714Y-32813390D01*
X77585714Y-32813390D02*
X77538095Y-32861009D01*
X77538095Y-32861009D02*
X77442857Y-32908628D01*
X77442857Y-32908628D02*
X77061905Y-32908628D01*
X78204762Y-32813390D02*
X78109524Y-32765771D01*
X78109524Y-32765771D02*
X78061905Y-32718152D01*
X78061905Y-32718152D02*
X78014286Y-32622914D01*
X78014286Y-32622914D02*
X78014286Y-32575295D01*
X78014286Y-32575295D02*
X78061905Y-32480057D01*
X78061905Y-32480057D02*
X78109524Y-32432438D01*
X78109524Y-32432438D02*
X78204762Y-32384819D01*
X78204762Y-32384819D02*
X78395238Y-32384819D01*
X78395238Y-32384819D02*
X78490476Y-32432438D01*
X78490476Y-32432438D02*
X78538095Y-32480057D01*
X78538095Y-32480057D02*
X78585714Y-32575295D01*
X78585714Y-32575295D02*
X78585714Y-32622914D01*
X78585714Y-32622914D02*
X78538095Y-32718152D01*
X78538095Y-32718152D02*
X78490476Y-32765771D01*
X78490476Y-32765771D02*
X78395238Y-32813390D01*
X78395238Y-32813390D02*
X78204762Y-32813390D01*
X78204762Y-32813390D02*
X78109524Y-32861009D01*
X78109524Y-32861009D02*
X78061905Y-32908628D01*
X78061905Y-32908628D02*
X78014286Y-33003866D01*
X78014286Y-33003866D02*
X78014286Y-33194342D01*
X78014286Y-33194342D02*
X78061905Y-33289580D01*
X78061905Y-33289580D02*
X78109524Y-33337200D01*
X78109524Y-33337200D02*
X78204762Y-33384819D01*
X78204762Y-33384819D02*
X78395238Y-33384819D01*
X78395238Y-33384819D02*
X78490476Y-33337200D01*
X78490476Y-33337200D02*
X78538095Y-33289580D01*
X78538095Y-33289580D02*
X78585714Y-33194342D01*
X78585714Y-33194342D02*
X78585714Y-33003866D01*
X78585714Y-33003866D02*
X78538095Y-32908628D01*
X78538095Y-32908628D02*
X78490476Y-32861009D01*
X78490476Y-32861009D02*
X78395238Y-32813390D01*
X50324819Y-44471904D02*
X51134342Y-44471904D01*
X51134342Y-44471904D02*
X51229580Y-44424285D01*
X51229580Y-44424285D02*
X51277200Y-44376666D01*
X51277200Y-44376666D02*
X51324819Y-44281428D01*
X51324819Y-44281428D02*
X51324819Y-44090952D01*
X51324819Y-44090952D02*
X51277200Y-43995714D01*
X51277200Y-43995714D02*
X51229580Y-43948095D01*
X51229580Y-43948095D02*
X51134342Y-43900476D01*
X51134342Y-43900476D02*
X50324819Y-43900476D01*
X51324819Y-42900476D02*
X51324819Y-43471904D01*
X51324819Y-43186190D02*
X50324819Y-43186190D01*
X50324819Y-43186190D02*
X50467676Y-43281428D01*
X50467676Y-43281428D02*
X50562914Y-43376666D01*
X50562914Y-43376666D02*
X50610533Y-43471904D01*
X88399819Y-35333333D02*
X89114104Y-35333333D01*
X89114104Y-35333333D02*
X89256961Y-35380952D01*
X89256961Y-35380952D02*
X89352200Y-35476190D01*
X89352200Y-35476190D02*
X89399819Y-35619047D01*
X89399819Y-35619047D02*
X89399819Y-35714285D01*
X89399819Y-34333333D02*
X89399819Y-34904761D01*
X89399819Y-34619047D02*
X88399819Y-34619047D01*
X88399819Y-34619047D02*
X88542676Y-34714285D01*
X88542676Y-34714285D02*
X88637914Y-34809523D01*
X88637914Y-34809523D02*
X88685533Y-34904761D01*
X97934819Y-64933333D02*
X98649104Y-64933333D01*
X98649104Y-64933333D02*
X98791961Y-64980952D01*
X98791961Y-64980952D02*
X98887200Y-65076190D01*
X98887200Y-65076190D02*
X98934819Y-65219047D01*
X98934819Y-65219047D02*
X98934819Y-65314285D01*
X97934819Y-64028571D02*
X97934819Y-64219047D01*
X97934819Y-64219047D02*
X97982438Y-64314285D01*
X97982438Y-64314285D02*
X98030057Y-64361904D01*
X98030057Y-64361904D02*
X98172914Y-64457142D01*
X98172914Y-64457142D02*
X98363390Y-64504761D01*
X98363390Y-64504761D02*
X98744342Y-64504761D01*
X98744342Y-64504761D02*
X98839580Y-64457142D01*
X98839580Y-64457142D02*
X98887200Y-64409523D01*
X98887200Y-64409523D02*
X98934819Y-64314285D01*
X98934819Y-64314285D02*
X98934819Y-64123809D01*
X98934819Y-64123809D02*
X98887200Y-64028571D01*
X98887200Y-64028571D02*
X98839580Y-63980952D01*
X98839580Y-63980952D02*
X98744342Y-63933333D01*
X98744342Y-63933333D02*
X98506247Y-63933333D01*
X98506247Y-63933333D02*
X98411009Y-63980952D01*
X98411009Y-63980952D02*
X98363390Y-64028571D01*
X98363390Y-64028571D02*
X98315771Y-64123809D01*
X98315771Y-64123809D02*
X98315771Y-64314285D01*
X98315771Y-64314285D02*
X98363390Y-64409523D01*
X98363390Y-64409523D02*
X98411009Y-64457142D01*
X98411009Y-64457142D02*
X98506247Y-64504761D01*
X77583333Y-40459580D02*
X77535714Y-40507200D01*
X77535714Y-40507200D02*
X77392857Y-40554819D01*
X77392857Y-40554819D02*
X77297619Y-40554819D01*
X77297619Y-40554819D02*
X77154762Y-40507200D01*
X77154762Y-40507200D02*
X77059524Y-40411961D01*
X77059524Y-40411961D02*
X77011905Y-40316723D01*
X77011905Y-40316723D02*
X76964286Y-40126247D01*
X76964286Y-40126247D02*
X76964286Y-39983390D01*
X76964286Y-39983390D02*
X77011905Y-39792914D01*
X77011905Y-39792914D02*
X77059524Y-39697676D01*
X77059524Y-39697676D02*
X77154762Y-39602438D01*
X77154762Y-39602438D02*
X77297619Y-39554819D01*
X77297619Y-39554819D02*
X77392857Y-39554819D01*
X77392857Y-39554819D02*
X77535714Y-39602438D01*
X77535714Y-39602438D02*
X77583333Y-39650057D01*
X78535714Y-40554819D02*
X77964286Y-40554819D01*
X78250000Y-40554819D02*
X78250000Y-39554819D01*
X78250000Y-39554819D02*
X78154762Y-39697676D01*
X78154762Y-39697676D02*
X78059524Y-39792914D01*
X78059524Y-39792914D02*
X77964286Y-39840533D01*
X90553333Y-55584819D02*
X90220000Y-55108628D01*
X89981905Y-55584819D02*
X89981905Y-54584819D01*
X89981905Y-54584819D02*
X90362857Y-54584819D01*
X90362857Y-54584819D02*
X90458095Y-54632438D01*
X90458095Y-54632438D02*
X90505714Y-54680057D01*
X90505714Y-54680057D02*
X90553333Y-54775295D01*
X90553333Y-54775295D02*
X90553333Y-54918152D01*
X90553333Y-54918152D02*
X90505714Y-55013390D01*
X90505714Y-55013390D02*
X90458095Y-55061009D01*
X90458095Y-55061009D02*
X90362857Y-55108628D01*
X90362857Y-55108628D02*
X89981905Y-55108628D01*
X90886667Y-54584819D02*
X91505714Y-54584819D01*
X91505714Y-54584819D02*
X91172381Y-54965771D01*
X91172381Y-54965771D02*
X91315238Y-54965771D01*
X91315238Y-54965771D02*
X91410476Y-55013390D01*
X91410476Y-55013390D02*
X91458095Y-55061009D01*
X91458095Y-55061009D02*
X91505714Y-55156247D01*
X91505714Y-55156247D02*
X91505714Y-55394342D01*
X91505714Y-55394342D02*
X91458095Y-55489580D01*
X91458095Y-55489580D02*
X91410476Y-55537200D01*
X91410476Y-55537200D02*
X91315238Y-55584819D01*
X91315238Y-55584819D02*
X91029524Y-55584819D01*
X91029524Y-55584819D02*
X90934286Y-55537200D01*
X90934286Y-55537200D02*
X90886667Y-55489580D01*
D12*
%TO.C,R7*%
X72280000Y-55400000D02*
X73050000Y-55400000D01*
X73050000Y-54030000D02*
X73050000Y-56770000D01*
X73050000Y-56770000D02*
X79590000Y-56770000D01*
X79590000Y-54030000D02*
X73050000Y-54030000D01*
X79590000Y-56770000D02*
X79590000Y-54030000D01*
X80360000Y-55400000D02*
X79590000Y-55400000D01*
%TO.C,J2*%
X40190000Y-51420000D02*
X40190000Y-61580000D01*
X40190000Y-61580000D02*
X47810000Y-61580000D01*
X41460000Y-61580000D02*
X41460000Y-51420000D01*
X47810000Y-51420000D02*
X40190000Y-51420000D01*
X47810000Y-61580000D02*
X47810000Y-51420000D01*
%TO.C,C4*%
X98849759Y-39461000D02*
X99479759Y-39461000D01*
X99164759Y-39146000D02*
X99164759Y-39776000D01*
X102350000Y-38070000D02*
X102350000Y-44530000D01*
X102390000Y-38070000D02*
X102390000Y-44530000D01*
X102430000Y-38071000D02*
X102430000Y-44529000D01*
X102470000Y-38072000D02*
X102470000Y-44528000D01*
X102510000Y-38074000D02*
X102510000Y-44526000D01*
X102550000Y-38076000D02*
X102550000Y-44524000D01*
X102590000Y-38079000D02*
X102590000Y-40260000D01*
X102590000Y-42340000D02*
X102590000Y-44521000D01*
X102630000Y-38082000D02*
X102630000Y-40260000D01*
X102630000Y-42340000D02*
X102630000Y-44518000D01*
X102670000Y-38086000D02*
X102670000Y-40260000D01*
X102670000Y-42340000D02*
X102670000Y-44514000D01*
X102710000Y-38090000D02*
X102710000Y-40260000D01*
X102710000Y-42340000D02*
X102710000Y-44510000D01*
X102750000Y-38095000D02*
X102750000Y-40260000D01*
X102750000Y-42340000D02*
X102750000Y-44505000D01*
X102790000Y-38100000D02*
X102790000Y-40260000D01*
X102790000Y-42340000D02*
X102790000Y-44500000D01*
X102830000Y-38105000D02*
X102830000Y-40260000D01*
X102830000Y-42340000D02*
X102830000Y-44495000D01*
X102870000Y-38112000D02*
X102870000Y-40260000D01*
X102870000Y-42340000D02*
X102870000Y-44488000D01*
X102910000Y-38118000D02*
X102910000Y-40260000D01*
X102910000Y-42340000D02*
X102910000Y-44482000D01*
X102950000Y-38126000D02*
X102950000Y-40260000D01*
X102950000Y-42340000D02*
X102950000Y-44474000D01*
X102990000Y-38133000D02*
X102990000Y-40260000D01*
X102990000Y-42340000D02*
X102990000Y-44467000D01*
X103030000Y-38141000D02*
X103030000Y-40260000D01*
X103030000Y-42340000D02*
X103030000Y-44459000D01*
X103070000Y-38150000D02*
X103070000Y-40260000D01*
X103070000Y-42340000D02*
X103070000Y-44450000D01*
X103110000Y-38160000D02*
X103110000Y-40260000D01*
X103110000Y-42340000D02*
X103110000Y-44440000D01*
X103150000Y-38169000D02*
X103150000Y-40260000D01*
X103150000Y-42340000D02*
X103150000Y-44431000D01*
X103190000Y-38180000D02*
X103190000Y-40260000D01*
X103190000Y-42340000D02*
X103190000Y-44420000D01*
X103230000Y-38191000D02*
X103230000Y-40260000D01*
X103230000Y-42340000D02*
X103230000Y-44409000D01*
X103270000Y-38202000D02*
X103270000Y-40260000D01*
X103270000Y-42340000D02*
X103270000Y-44398000D01*
X103310000Y-38214000D02*
X103310000Y-40260000D01*
X103310000Y-42340000D02*
X103310000Y-44386000D01*
X103350000Y-38227000D02*
X103350000Y-40260000D01*
X103350000Y-42340000D02*
X103350000Y-44373000D01*
X103390000Y-38240000D02*
X103390000Y-40260000D01*
X103390000Y-42340000D02*
X103390000Y-44360000D01*
X103430000Y-38253000D02*
X103430000Y-40260000D01*
X103430000Y-42340000D02*
X103430000Y-44347000D01*
X103470000Y-38268000D02*
X103470000Y-40260000D01*
X103470000Y-42340000D02*
X103470000Y-44332000D01*
X103510000Y-38283000D02*
X103510000Y-40260000D01*
X103510000Y-42340000D02*
X103510000Y-44317000D01*
X103550000Y-38298000D02*
X103550000Y-40260000D01*
X103550000Y-42340000D02*
X103550000Y-44302000D01*
X103590000Y-38314000D02*
X103590000Y-40260000D01*
X103590000Y-42340000D02*
X103590000Y-44286000D01*
X103630000Y-38331000D02*
X103630000Y-40260000D01*
X103630000Y-42340000D02*
X103630000Y-44269000D01*
X103670000Y-38348000D02*
X103670000Y-40260000D01*
X103670000Y-42340000D02*
X103670000Y-44252000D01*
X103710000Y-38366000D02*
X103710000Y-40260000D01*
X103710000Y-42340000D02*
X103710000Y-44234000D01*
X103750000Y-38385000D02*
X103750000Y-40260000D01*
X103750000Y-42340000D02*
X103750000Y-44215000D01*
X103790000Y-38404000D02*
X103790000Y-40260000D01*
X103790000Y-42340000D02*
X103790000Y-44196000D01*
X103830000Y-38424000D02*
X103830000Y-40260000D01*
X103830000Y-42340000D02*
X103830000Y-44176000D01*
X103870000Y-38445000D02*
X103870000Y-40260000D01*
X103870000Y-42340000D02*
X103870000Y-44155000D01*
X103910000Y-38466000D02*
X103910000Y-40260000D01*
X103910000Y-42340000D02*
X103910000Y-44134000D01*
X103950000Y-38488000D02*
X103950000Y-40260000D01*
X103950000Y-42340000D02*
X103950000Y-44112000D01*
X103990000Y-38511000D02*
X103990000Y-40260000D01*
X103990000Y-42340000D02*
X103990000Y-44089000D01*
X104030000Y-38535000D02*
X104030000Y-40260000D01*
X104030000Y-42340000D02*
X104030000Y-44065000D01*
X104070000Y-38559000D02*
X104070000Y-40260000D01*
X104070000Y-42340000D02*
X104070000Y-44041000D01*
X104110000Y-38584000D02*
X104110000Y-40260000D01*
X104110000Y-42340000D02*
X104110000Y-44016000D01*
X104150000Y-38610000D02*
X104150000Y-40260000D01*
X104150000Y-42340000D02*
X104150000Y-43990000D01*
X104190000Y-38637000D02*
X104190000Y-40260000D01*
X104190000Y-42340000D02*
X104190000Y-43963000D01*
X104230000Y-38664000D02*
X104230000Y-40260000D01*
X104230000Y-42340000D02*
X104230000Y-43936000D01*
X104270000Y-38693000D02*
X104270000Y-40260000D01*
X104270000Y-42340000D02*
X104270000Y-43907000D01*
X104310000Y-38723000D02*
X104310000Y-40260000D01*
X104310000Y-42340000D02*
X104310000Y-43877000D01*
X104350000Y-38753000D02*
X104350000Y-40260000D01*
X104350000Y-42340000D02*
X104350000Y-43847000D01*
X104390000Y-38784000D02*
X104390000Y-40260000D01*
X104390000Y-42340000D02*
X104390000Y-43816000D01*
X104430000Y-38817000D02*
X104430000Y-40260000D01*
X104430000Y-42340000D02*
X104430000Y-43783000D01*
X104470000Y-38850000D02*
X104470000Y-40260000D01*
X104470000Y-42340000D02*
X104470000Y-43750000D01*
X104510000Y-38885000D02*
X104510000Y-40260000D01*
X104510000Y-42340000D02*
X104510000Y-43715000D01*
X104550000Y-38921000D02*
X104550000Y-40260000D01*
X104550000Y-42340000D02*
X104550000Y-43679000D01*
X104590000Y-38958000D02*
X104590000Y-40260000D01*
X104590000Y-42340000D02*
X104590000Y-43642000D01*
X104630000Y-38996000D02*
X104630000Y-40260000D01*
X104630000Y-42340000D02*
X104630000Y-43604000D01*
X104670000Y-39036000D02*
X104670000Y-43564000D01*
X104710000Y-39077000D02*
X104710000Y-43523000D01*
X104750000Y-39119000D02*
X104750000Y-43481000D01*
X104790000Y-39163000D02*
X104790000Y-43437000D01*
X104830000Y-39209000D02*
X104830000Y-43391000D01*
X104870000Y-39256000D02*
X104870000Y-43344000D01*
X104910000Y-39305000D02*
X104910000Y-43295000D01*
X104950000Y-39357000D02*
X104950000Y-43243000D01*
X104990000Y-39410000D02*
X104990000Y-43190000D01*
X105030000Y-39466000D02*
X105030000Y-43134000D01*
X105070000Y-39525000D02*
X105070000Y-43075000D01*
X105110000Y-39586000D02*
X105110000Y-43014000D01*
X105150000Y-39651000D02*
X105150000Y-42949000D01*
X105190000Y-39719000D02*
X105190000Y-42881000D01*
X105230000Y-39791000D02*
X105230000Y-42809000D01*
X105270000Y-39868000D02*
X105270000Y-42732000D01*
X105310000Y-39950000D02*
X105310000Y-42650000D01*
X105350000Y-40039000D02*
X105350000Y-42561000D01*
X105390000Y-40135000D02*
X105390000Y-42465000D01*
X105430000Y-40242000D02*
X105430000Y-42358000D01*
X105470000Y-40361000D02*
X105470000Y-42239000D01*
X105510000Y-40499000D02*
X105510000Y-42101000D01*
X105550000Y-40667000D02*
X105550000Y-41933000D01*
X105590000Y-40898000D02*
X105590000Y-41702000D01*
X105620000Y-41300000D02*
G75*
G02*
X99080000Y-41300000I-3270000J0D01*
G01*
X99080000Y-41300000D02*
G75*
G02*
X105620000Y-41300000I3270000J0D01*
G01*
%TO.C,J5*%
X87180000Y-65980000D02*
X87180000Y-64600000D01*
X88560000Y-65980000D02*
X87180000Y-65980000D01*
X89830000Y-63220000D02*
X95020000Y-63220000D01*
X89830000Y-65980000D02*
X89830000Y-63220000D01*
X89830000Y-65980000D02*
X95020000Y-65980000D01*
X95020000Y-65980000D02*
X95020000Y-63220000D01*
%TO.C,U3*%
X109670000Y-41440000D02*
X109670000Y-45940000D01*
X109670000Y-45940000D02*
X130110000Y-45940000D01*
X130110000Y-41440000D02*
X109670000Y-41440000D01*
X130110000Y-42690000D02*
X130110000Y-41440000D01*
X130110000Y-45940000D02*
X130110000Y-44690000D01*
X130170000Y-38440000D02*
X109610000Y-38440000D01*
X109610000Y-48940000D01*
X130170000Y-48940000D01*
X130170000Y-38440000D01*
X130110000Y-44690000D02*
G75*
G02*
X130110000Y-42690000I0J1000000D01*
G01*
%TO.C,RV2*%
X51330000Y-59180000D02*
X51330000Y-69920000D01*
X56780000Y-69920000D02*
X56780000Y-74920000D01*
X57280000Y-74920000D02*
X57280000Y-84920000D01*
X63520000Y-74920000D02*
X63520000Y-84920000D01*
X63520000Y-84920000D02*
X57280000Y-84920000D01*
X64020000Y-69920000D02*
X64020000Y-74920000D01*
X64020000Y-74920000D02*
X56780000Y-74920000D01*
X69470000Y-59180000D02*
X51330000Y-59180000D01*
X69470000Y-59180000D02*
X69470000Y-69920000D01*
X69470000Y-69920000D02*
X51330000Y-69920000D01*
%TO.C,SW1*%
X42640000Y-49110000D02*
X45360000Y-49110000D01*
X45360000Y-38890000D01*
X42640000Y-38890000D01*
X42640000Y-49110000D01*
%TO.C,U2*%
X88040000Y-41730000D02*
X88040000Y-52010000D01*
X88040000Y-52010000D02*
X92540000Y-52010000D01*
X89290000Y-41730000D02*
X88040000Y-41730000D01*
X92540000Y-41730000D02*
X91290000Y-41730000D01*
X92540000Y-52010000D02*
X92540000Y-41730000D01*
X85040000Y-41670000D02*
X95540000Y-41670000D01*
X95540000Y-52070000D01*
X85040000Y-52070000D01*
X85040000Y-41670000D01*
X91290000Y-41730000D02*
G75*
G02*
X89290000Y-41730000I-1000000J0D01*
G01*
%TO.C,R1*%
X48130000Y-46830000D02*
X48130000Y-53370000D01*
X48130000Y-53370000D02*
X50870000Y-53370000D01*
X49500000Y-46060000D02*
X49500000Y-46830000D01*
X49500000Y-54140000D02*
X49500000Y-53370000D01*
X50870000Y-46830000D02*
X48130000Y-46830000D01*
X50870000Y-53370000D02*
X50870000Y-46830000D01*
%TO.C,C2*%
X99280000Y-51430000D02*
X99280000Y-51965000D01*
X99280000Y-51430000D02*
X105520000Y-51430000D01*
X99280000Y-53635000D02*
X99280000Y-54170000D01*
X99280000Y-54170000D02*
X105520000Y-54170000D01*
X105520000Y-51430000D02*
X105520000Y-51965000D01*
X105520000Y-53635000D02*
X105520000Y-54170000D01*
%TO.C,D1*%
X61941084Y-31966693D02*
X62961084Y-31966693D01*
X67381084Y-33436693D02*
X67381084Y-30496693D01*
X67501084Y-33436693D02*
X67501084Y-30496693D01*
X67621084Y-33436693D02*
X67621084Y-30496693D01*
X69421084Y-31966693D02*
X68401084Y-31966693D01*
X68401084Y-33436693D02*
X62961084Y-33436693D01*
X62961084Y-30496693D01*
X68401084Y-30496693D01*
X68401084Y-33436693D01*
%TO.C,R2*%
X53310000Y-31950000D02*
X55960000Y-31950000D01*
X53310000Y-36250000D02*
X55960000Y-36250000D01*
X53310000Y-36250000D02*
G75*
G02*
X53284524Y-31965612I1300000J2150000D01*
G01*
X55960000Y-31950000D02*
G75*
G02*
X55988027Y-36232145I-1350000J-2150000D01*
G01*
%TO.C,J7*%
X74580000Y-65980000D02*
X74580000Y-64600000D01*
X75960000Y-65980000D02*
X74580000Y-65980000D01*
X77230000Y-63220000D02*
X82420000Y-63220000D01*
X77230000Y-65980000D02*
X77230000Y-63220000D01*
X77230000Y-65980000D02*
X82420000Y-65980000D01*
X82420000Y-65980000D02*
X82420000Y-63220000D01*
%TO.C,R4*%
X56160000Y-54500000D02*
X56930000Y-54500000D01*
X56930000Y-53130000D02*
X56930000Y-55870000D01*
X56930000Y-55870000D02*
X63470000Y-55870000D01*
X63470000Y-53130000D02*
X56930000Y-53130000D01*
X63470000Y-55870000D02*
X63470000Y-53130000D01*
X64240000Y-54500000D02*
X63470000Y-54500000D01*
%TO.C,C3*%
X131349759Y-51861000D02*
X131979759Y-51861000D01*
X131664759Y-51546000D02*
X131664759Y-52176000D01*
X134850000Y-50470000D02*
X134850000Y-56930000D01*
X134890000Y-50470000D02*
X134890000Y-56930000D01*
X134930000Y-50471000D02*
X134930000Y-56929000D01*
X134970000Y-50472000D02*
X134970000Y-56928000D01*
X135010000Y-50474000D02*
X135010000Y-56926000D01*
X135050000Y-50476000D02*
X135050000Y-56924000D01*
X135090000Y-50479000D02*
X135090000Y-52660000D01*
X135090000Y-54740000D02*
X135090000Y-56921000D01*
X135130000Y-50482000D02*
X135130000Y-52660000D01*
X135130000Y-54740000D02*
X135130000Y-56918000D01*
X135170000Y-50486000D02*
X135170000Y-52660000D01*
X135170000Y-54740000D02*
X135170000Y-56914000D01*
X135210000Y-50490000D02*
X135210000Y-52660000D01*
X135210000Y-54740000D02*
X135210000Y-56910000D01*
X135250000Y-50495000D02*
X135250000Y-52660000D01*
X135250000Y-54740000D02*
X135250000Y-56905000D01*
X135290000Y-50500000D02*
X135290000Y-52660000D01*
X135290000Y-54740000D02*
X135290000Y-56900000D01*
X135330000Y-50505000D02*
X135330000Y-52660000D01*
X135330000Y-54740000D02*
X135330000Y-56895000D01*
X135370000Y-50512000D02*
X135370000Y-52660000D01*
X135370000Y-54740000D02*
X135370000Y-56888000D01*
X135410000Y-50518000D02*
X135410000Y-52660000D01*
X135410000Y-54740000D02*
X135410000Y-56882000D01*
X135450000Y-50526000D02*
X135450000Y-52660000D01*
X135450000Y-54740000D02*
X135450000Y-56874000D01*
X135490000Y-50533000D02*
X135490000Y-52660000D01*
X135490000Y-54740000D02*
X135490000Y-56867000D01*
X135530000Y-50541000D02*
X135530000Y-52660000D01*
X135530000Y-54740000D02*
X135530000Y-56859000D01*
X135570000Y-50550000D02*
X135570000Y-52660000D01*
X135570000Y-54740000D02*
X135570000Y-56850000D01*
X135610000Y-50560000D02*
X135610000Y-52660000D01*
X135610000Y-54740000D02*
X135610000Y-56840000D01*
X135650000Y-50569000D02*
X135650000Y-52660000D01*
X135650000Y-54740000D02*
X135650000Y-56831000D01*
X135690000Y-50580000D02*
X135690000Y-52660000D01*
X135690000Y-54740000D02*
X135690000Y-56820000D01*
X135730000Y-50591000D02*
X135730000Y-52660000D01*
X135730000Y-54740000D02*
X135730000Y-56809000D01*
X135770000Y-50602000D02*
X135770000Y-52660000D01*
X135770000Y-54740000D02*
X135770000Y-56798000D01*
X135810000Y-50614000D02*
X135810000Y-52660000D01*
X135810000Y-54740000D02*
X135810000Y-56786000D01*
X135850000Y-50627000D02*
X135850000Y-52660000D01*
X135850000Y-54740000D02*
X135850000Y-56773000D01*
X135890000Y-50640000D02*
X135890000Y-52660000D01*
X135890000Y-54740000D02*
X135890000Y-56760000D01*
X135930000Y-50653000D02*
X135930000Y-52660000D01*
X135930000Y-54740000D02*
X135930000Y-56747000D01*
X135970000Y-50668000D02*
X135970000Y-52660000D01*
X135970000Y-54740000D02*
X135970000Y-56732000D01*
X136010000Y-50683000D02*
X136010000Y-52660000D01*
X136010000Y-54740000D02*
X136010000Y-56717000D01*
X136050000Y-50698000D02*
X136050000Y-52660000D01*
X136050000Y-54740000D02*
X136050000Y-56702000D01*
X136090000Y-50714000D02*
X136090000Y-52660000D01*
X136090000Y-54740000D02*
X136090000Y-56686000D01*
X136130000Y-50731000D02*
X136130000Y-52660000D01*
X136130000Y-54740000D02*
X136130000Y-56669000D01*
X136170000Y-50748000D02*
X136170000Y-52660000D01*
X136170000Y-54740000D02*
X136170000Y-56652000D01*
X136210000Y-50766000D02*
X136210000Y-52660000D01*
X136210000Y-54740000D02*
X136210000Y-56634000D01*
X136250000Y-50785000D02*
X136250000Y-52660000D01*
X136250000Y-54740000D02*
X136250000Y-56615000D01*
X136290000Y-50804000D02*
X136290000Y-52660000D01*
X136290000Y-54740000D02*
X136290000Y-56596000D01*
X136330000Y-50824000D02*
X136330000Y-52660000D01*
X136330000Y-54740000D02*
X136330000Y-56576000D01*
X136370000Y-50845000D02*
X136370000Y-52660000D01*
X136370000Y-54740000D02*
X136370000Y-56555000D01*
X136410000Y-50866000D02*
X136410000Y-52660000D01*
X136410000Y-54740000D02*
X136410000Y-56534000D01*
X136450000Y-50888000D02*
X136450000Y-52660000D01*
X136450000Y-54740000D02*
X136450000Y-56512000D01*
X136490000Y-50911000D02*
X136490000Y-52660000D01*
X136490000Y-54740000D02*
X136490000Y-56489000D01*
X136530000Y-50935000D02*
X136530000Y-52660000D01*
X136530000Y-54740000D02*
X136530000Y-56465000D01*
X136570000Y-50959000D02*
X136570000Y-52660000D01*
X136570000Y-54740000D02*
X136570000Y-56441000D01*
X136610000Y-50984000D02*
X136610000Y-52660000D01*
X136610000Y-54740000D02*
X136610000Y-56416000D01*
X136650000Y-51010000D02*
X136650000Y-52660000D01*
X136650000Y-54740000D02*
X136650000Y-56390000D01*
X136690000Y-51037000D02*
X136690000Y-52660000D01*
X136690000Y-54740000D02*
X136690000Y-56363000D01*
X136730000Y-51064000D02*
X136730000Y-52660000D01*
X136730000Y-54740000D02*
X136730000Y-56336000D01*
X136770000Y-51093000D02*
X136770000Y-52660000D01*
X136770000Y-54740000D02*
X136770000Y-56307000D01*
X136810000Y-51123000D02*
X136810000Y-52660000D01*
X136810000Y-54740000D02*
X136810000Y-56277000D01*
X136850000Y-51153000D02*
X136850000Y-52660000D01*
X136850000Y-54740000D02*
X136850000Y-56247000D01*
X136890000Y-51184000D02*
X136890000Y-52660000D01*
X136890000Y-54740000D02*
X136890000Y-56216000D01*
X136930000Y-51217000D02*
X136930000Y-52660000D01*
X136930000Y-54740000D02*
X136930000Y-56183000D01*
X136970000Y-51250000D02*
X136970000Y-52660000D01*
X136970000Y-54740000D02*
X136970000Y-56150000D01*
X137010000Y-51285000D02*
X137010000Y-52660000D01*
X137010000Y-54740000D02*
X137010000Y-56115000D01*
X137050000Y-51321000D02*
X137050000Y-52660000D01*
X137050000Y-54740000D02*
X137050000Y-56079000D01*
X137090000Y-51358000D02*
X137090000Y-52660000D01*
X137090000Y-54740000D02*
X137090000Y-56042000D01*
X137130000Y-51396000D02*
X137130000Y-52660000D01*
X137130000Y-54740000D02*
X137130000Y-56004000D01*
X137170000Y-51436000D02*
X137170000Y-55964000D01*
X137210000Y-51477000D02*
X137210000Y-55923000D01*
X137250000Y-51519000D02*
X137250000Y-55881000D01*
X137290000Y-51563000D02*
X137290000Y-55837000D01*
X137330000Y-51609000D02*
X137330000Y-55791000D01*
X137370000Y-51656000D02*
X137370000Y-55744000D01*
X137410000Y-51705000D02*
X137410000Y-55695000D01*
X137450000Y-51757000D02*
X137450000Y-55643000D01*
X137490000Y-51810000D02*
X137490000Y-55590000D01*
X137530000Y-51866000D02*
X137530000Y-55534000D01*
X137570000Y-51925000D02*
X137570000Y-55475000D01*
X137610000Y-51986000D02*
X137610000Y-55414000D01*
X137650000Y-52051000D02*
X137650000Y-55349000D01*
X137690000Y-52119000D02*
X137690000Y-55281000D01*
X137730000Y-52191000D02*
X137730000Y-55209000D01*
X137770000Y-52268000D02*
X137770000Y-55132000D01*
X137810000Y-52350000D02*
X137810000Y-55050000D01*
X137850000Y-52439000D02*
X137850000Y-54961000D01*
X137890000Y-52535000D02*
X137890000Y-54865000D01*
X137930000Y-52642000D02*
X137930000Y-54758000D01*
X137970000Y-52761000D02*
X137970000Y-54639000D01*
X138010000Y-52899000D02*
X138010000Y-54501000D01*
X138050000Y-53067000D02*
X138050000Y-54333000D01*
X138090000Y-53298000D02*
X138090000Y-54102000D01*
X138120000Y-53700000D02*
G75*
G02*
X131580000Y-53700000I-3270000J0D01*
G01*
X131580000Y-53700000D02*
G75*
G02*
X138120000Y-53700000I3270000J0D01*
G01*
%TO.C,RV1*%
X111830000Y-59180000D02*
X111830000Y-69920000D01*
X117280000Y-69920000D02*
X117280000Y-74920000D01*
X117780000Y-74920000D02*
X117780000Y-84920000D01*
X124020000Y-74920000D02*
X124020000Y-84920000D01*
X124020000Y-84920000D02*
X117780000Y-84920000D01*
X124520000Y-69920000D02*
X124520000Y-74920000D01*
X124520000Y-74920000D02*
X117280000Y-74920000D01*
X129970000Y-59180000D02*
X111830000Y-59180000D01*
X129970000Y-59180000D02*
X129970000Y-69920000D01*
X129970000Y-69920000D02*
X111830000Y-69920000D01*
%TO.C,R8*%
X73760000Y-35300000D02*
X74530000Y-35300000D01*
X74530000Y-33930000D02*
X74530000Y-36670000D01*
X74530000Y-36670000D02*
X81070000Y-36670000D01*
X81070000Y-33930000D02*
X74530000Y-33930000D01*
X81070000Y-36670000D02*
X81070000Y-33930000D01*
X81840000Y-35300000D02*
X81070000Y-35300000D01*
%TO.C,U1*%
X51870000Y-41460000D02*
X51870000Y-42710000D01*
X51870000Y-44710000D02*
X51870000Y-45960000D01*
X51870000Y-45960000D02*
X69770000Y-45960000D01*
X69770000Y-41460000D02*
X51870000Y-41460000D01*
X69770000Y-45960000D02*
X69770000Y-41460000D01*
X51810000Y-48960000D02*
X69830000Y-48960000D01*
X69830000Y-38460000D01*
X51810000Y-38460000D01*
X51810000Y-48960000D01*
X51870000Y-42710000D02*
G75*
G02*
X51870000Y-44710000I0J-1000000D01*
G01*
%TO.C,J1*%
X89945000Y-36380000D02*
X89945000Y-35000000D01*
X91325000Y-36380000D02*
X89945000Y-36380000D01*
X92595000Y-33620000D02*
X95245000Y-33620000D01*
X92595000Y-36380000D02*
X92595000Y-33620000D01*
X92595000Y-36380000D02*
X95245000Y-36380000D01*
X95245000Y-36380000D02*
X95245000Y-33620000D01*
%TO.C,J6*%
X99480000Y-65980000D02*
X99480000Y-64600000D01*
X100860000Y-65980000D02*
X99480000Y-65980000D01*
X102130000Y-63220000D02*
X107320000Y-63220000D01*
X102130000Y-65980000D02*
X102130000Y-63220000D01*
X102130000Y-65980000D02*
X107320000Y-65980000D01*
X107320000Y-65980000D02*
X107320000Y-63220000D01*
%TO.C,C1*%
X74249759Y-42661000D02*
X74879759Y-42661000D01*
X74564759Y-42346000D02*
X74564759Y-42976000D01*
X77750000Y-41270000D02*
X77750000Y-47730000D01*
X77790000Y-41270000D02*
X77790000Y-47730000D01*
X77830000Y-41271000D02*
X77830000Y-47729000D01*
X77870000Y-41272000D02*
X77870000Y-47728000D01*
X77910000Y-41274000D02*
X77910000Y-47726000D01*
X77950000Y-41276000D02*
X77950000Y-47724000D01*
X77990000Y-41279000D02*
X77990000Y-43460000D01*
X77990000Y-45540000D02*
X77990000Y-47721000D01*
X78030000Y-41282000D02*
X78030000Y-43460000D01*
X78030000Y-45540000D02*
X78030000Y-47718000D01*
X78070000Y-41286000D02*
X78070000Y-43460000D01*
X78070000Y-45540000D02*
X78070000Y-47714000D01*
X78110000Y-41290000D02*
X78110000Y-43460000D01*
X78110000Y-45540000D02*
X78110000Y-47710000D01*
X78150000Y-41295000D02*
X78150000Y-43460000D01*
X78150000Y-45540000D02*
X78150000Y-47705000D01*
X78190000Y-41300000D02*
X78190000Y-43460000D01*
X78190000Y-45540000D02*
X78190000Y-47700000D01*
X78230000Y-41305000D02*
X78230000Y-43460000D01*
X78230000Y-45540000D02*
X78230000Y-47695000D01*
X78270000Y-41312000D02*
X78270000Y-43460000D01*
X78270000Y-45540000D02*
X78270000Y-47688000D01*
X78310000Y-41318000D02*
X78310000Y-43460000D01*
X78310000Y-45540000D02*
X78310000Y-47682000D01*
X78350000Y-41326000D02*
X78350000Y-43460000D01*
X78350000Y-45540000D02*
X78350000Y-47674000D01*
X78390000Y-41333000D02*
X78390000Y-43460000D01*
X78390000Y-45540000D02*
X78390000Y-47667000D01*
X78430000Y-41341000D02*
X78430000Y-43460000D01*
X78430000Y-45540000D02*
X78430000Y-47659000D01*
X78470000Y-41350000D02*
X78470000Y-43460000D01*
X78470000Y-45540000D02*
X78470000Y-47650000D01*
X78510000Y-41360000D02*
X78510000Y-43460000D01*
X78510000Y-45540000D02*
X78510000Y-47640000D01*
X78550000Y-41369000D02*
X78550000Y-43460000D01*
X78550000Y-45540000D02*
X78550000Y-47631000D01*
X78590000Y-41380000D02*
X78590000Y-43460000D01*
X78590000Y-45540000D02*
X78590000Y-47620000D01*
X78630000Y-41391000D02*
X78630000Y-43460000D01*
X78630000Y-45540000D02*
X78630000Y-47609000D01*
X78670000Y-41402000D02*
X78670000Y-43460000D01*
X78670000Y-45540000D02*
X78670000Y-47598000D01*
X78710000Y-41414000D02*
X78710000Y-43460000D01*
X78710000Y-45540000D02*
X78710000Y-47586000D01*
X78750000Y-41427000D02*
X78750000Y-43460000D01*
X78750000Y-45540000D02*
X78750000Y-47573000D01*
X78790000Y-41440000D02*
X78790000Y-43460000D01*
X78790000Y-45540000D02*
X78790000Y-47560000D01*
X78830000Y-41453000D02*
X78830000Y-43460000D01*
X78830000Y-45540000D02*
X78830000Y-47547000D01*
X78870000Y-41468000D02*
X78870000Y-43460000D01*
X78870000Y-45540000D02*
X78870000Y-47532000D01*
X78910000Y-41483000D02*
X78910000Y-43460000D01*
X78910000Y-45540000D02*
X78910000Y-47517000D01*
X78950000Y-41498000D02*
X78950000Y-43460000D01*
X78950000Y-45540000D02*
X78950000Y-47502000D01*
X78990000Y-41514000D02*
X78990000Y-43460000D01*
X78990000Y-45540000D02*
X78990000Y-47486000D01*
X79030000Y-41531000D02*
X79030000Y-43460000D01*
X79030000Y-45540000D02*
X79030000Y-47469000D01*
X79070000Y-41548000D02*
X79070000Y-43460000D01*
X79070000Y-45540000D02*
X79070000Y-47452000D01*
X79110000Y-41566000D02*
X79110000Y-43460000D01*
X79110000Y-45540000D02*
X79110000Y-47434000D01*
X79150000Y-41585000D02*
X79150000Y-43460000D01*
X79150000Y-45540000D02*
X79150000Y-47415000D01*
X79190000Y-41604000D02*
X79190000Y-43460000D01*
X79190000Y-45540000D02*
X79190000Y-47396000D01*
X79230000Y-41624000D02*
X79230000Y-43460000D01*
X79230000Y-45540000D02*
X79230000Y-47376000D01*
X79270000Y-41645000D02*
X79270000Y-43460000D01*
X79270000Y-45540000D02*
X79270000Y-47355000D01*
X79310000Y-41666000D02*
X79310000Y-43460000D01*
X79310000Y-45540000D02*
X79310000Y-47334000D01*
X79350000Y-41688000D02*
X79350000Y-43460000D01*
X79350000Y-45540000D02*
X79350000Y-47312000D01*
X79390000Y-41711000D02*
X79390000Y-43460000D01*
X79390000Y-45540000D02*
X79390000Y-47289000D01*
X79430000Y-41735000D02*
X79430000Y-43460000D01*
X79430000Y-45540000D02*
X79430000Y-47265000D01*
X79470000Y-41759000D02*
X79470000Y-43460000D01*
X79470000Y-45540000D02*
X79470000Y-47241000D01*
X79510000Y-41784000D02*
X79510000Y-43460000D01*
X79510000Y-45540000D02*
X79510000Y-47216000D01*
X79550000Y-41810000D02*
X79550000Y-43460000D01*
X79550000Y-45540000D02*
X79550000Y-47190000D01*
X79590000Y-41837000D02*
X79590000Y-43460000D01*
X79590000Y-45540000D02*
X79590000Y-47163000D01*
X79630000Y-41864000D02*
X79630000Y-43460000D01*
X79630000Y-45540000D02*
X79630000Y-47136000D01*
X79670000Y-41893000D02*
X79670000Y-43460000D01*
X79670000Y-45540000D02*
X79670000Y-47107000D01*
X79710000Y-41923000D02*
X79710000Y-43460000D01*
X79710000Y-45540000D02*
X79710000Y-47077000D01*
X79750000Y-41953000D02*
X79750000Y-43460000D01*
X79750000Y-45540000D02*
X79750000Y-47047000D01*
X79790000Y-41984000D02*
X79790000Y-43460000D01*
X79790000Y-45540000D02*
X79790000Y-47016000D01*
X79830000Y-42017000D02*
X79830000Y-43460000D01*
X79830000Y-45540000D02*
X79830000Y-46983000D01*
X79870000Y-42050000D02*
X79870000Y-43460000D01*
X79870000Y-45540000D02*
X79870000Y-46950000D01*
X79910000Y-42085000D02*
X79910000Y-43460000D01*
X79910000Y-45540000D02*
X79910000Y-46915000D01*
X79950000Y-42121000D02*
X79950000Y-43460000D01*
X79950000Y-45540000D02*
X79950000Y-46879000D01*
X79990000Y-42158000D02*
X79990000Y-43460000D01*
X79990000Y-45540000D02*
X79990000Y-46842000D01*
X80030000Y-42196000D02*
X80030000Y-43460000D01*
X80030000Y-45540000D02*
X80030000Y-46804000D01*
X80070000Y-42236000D02*
X80070000Y-46764000D01*
X80110000Y-42277000D02*
X80110000Y-46723000D01*
X80150000Y-42319000D02*
X80150000Y-46681000D01*
X80190000Y-42363000D02*
X80190000Y-46637000D01*
X80230000Y-42409000D02*
X80230000Y-46591000D01*
X80270000Y-42456000D02*
X80270000Y-46544000D01*
X80310000Y-42505000D02*
X80310000Y-46495000D01*
X80350000Y-42557000D02*
X80350000Y-46443000D01*
X80390000Y-42610000D02*
X80390000Y-46390000D01*
X80430000Y-42666000D02*
X80430000Y-46334000D01*
X80470000Y-42725000D02*
X80470000Y-46275000D01*
X80510000Y-42786000D02*
X80510000Y-46214000D01*
X80550000Y-42851000D02*
X80550000Y-46149000D01*
X80590000Y-42919000D02*
X80590000Y-46081000D01*
X80630000Y-42991000D02*
X80630000Y-46009000D01*
X80670000Y-43068000D02*
X80670000Y-45932000D01*
X80710000Y-43150000D02*
X80710000Y-45850000D01*
X80750000Y-43239000D02*
X80750000Y-45761000D01*
X80790000Y-43335000D02*
X80790000Y-45665000D01*
X80830000Y-43442000D02*
X80830000Y-45558000D01*
X80870000Y-43561000D02*
X80870000Y-45439000D01*
X80910000Y-43699000D02*
X80910000Y-45301000D01*
X80950000Y-43867000D02*
X80950000Y-45133000D01*
X80990000Y-44098000D02*
X80990000Y-44902000D01*
X81020000Y-44500000D02*
G75*
G02*
X74480000Y-44500000I-3270000J0D01*
G01*
X74480000Y-44500000D02*
G75*
G02*
X81020000Y-44500000I3270000J0D01*
G01*
%TO.C,R3*%
X86680000Y-57500000D02*
X87450000Y-57500000D01*
X87450000Y-56130000D02*
X87450000Y-58870000D01*
X87450000Y-58870000D02*
X93990000Y-58870000D01*
X93990000Y-56130000D02*
X87450000Y-56130000D01*
X93990000Y-58870000D02*
X93990000Y-56130000D01*
X94760000Y-57500000D02*
X93990000Y-57500000D01*
%TD*%
M02*
