M48
; DRILL file {KiCad 9.0.2} date 2025-06-20T13:08:08-0400
; FORMAT={-:-/ absolute / metric / decimal}
; #@! TF.CreationDate,2025-06-20T13:08:08-04:00
; #@! TF.GenerationSoftware,Kicad,Pcbnew,9.0.2
; #@! TF.FileFunction,Plated,1,2,PTH
FMAT,2
METRIC
; #@! TA.AperFunction,Plated,PTH,ViaDrill
T1C0.300
; #@! TA.AperFunction,Plated,PTH,ComponentDrill
T2C0.800
; #@! TA.AperFunction,Plated,PTH,ComponentDrill
T3C1.000
; #@! TA.AperFunction,Plated,PTH,ComponentDrill
T4C1.100
; #@! TA.AperFunction,Plated,PTH,ComponentDrill
T5C1.200
; #@! TA.AperFunction,Plated,PTH,ComponentDrill
T6C1.520
%
G90
G05
T1
X75.4Y-34.2
X81.172Y-36.172
X88.6Y-44.649
X91.3Y-38.1
X102.728Y-47.072
X106.0Y-60.5
X120.5Y-60.5
X132.0Y-58.5
T2
X44.0Y-41.46
X44.0Y-44.0
X44.0Y-46.54
X49.5Y-45.02
X49.5Y-55.18
X53.2Y-39.9
X53.2Y-47.52
X53.36Y-34.1
X55.12Y-54.5
X55.74Y-39.9
X55.74Y-47.52
X55.9Y-34.1
X58.28Y-39.9
X58.28Y-47.52
X60.82Y-39.9
X60.82Y-47.52
X63.36Y-39.9
X63.36Y-47.52
X65.28Y-54.5
X65.9Y-39.9
X65.9Y-47.52
X68.44Y-39.9
X68.44Y-47.52
X71.24Y-55.4
X72.72Y-35.3
X76.5Y-44.5
X79.0Y-44.5
X81.4Y-55.4
X82.88Y-35.3
X85.64Y-57.5
X86.48Y-43.06
X86.48Y-45.6
X86.48Y-48.14
X86.48Y-50.68
X94.1Y-43.06
X94.1Y-45.6
X94.1Y-48.14
X94.1Y-50.68
X95.8Y-57.5
X99.9Y-52.8
X101.1Y-41.3
X103.6Y-41.3
X104.9Y-52.8
X111.0Y-39.88
X111.0Y-47.5
X113.54Y-39.88
X113.54Y-47.5
X116.08Y-39.88
X116.08Y-47.5
X118.62Y-39.88
X118.62Y-47.5
X121.16Y-39.88
X121.16Y-47.5
X123.7Y-39.88
X123.7Y-47.5
X126.24Y-39.88
X126.24Y-47.5
X128.78Y-39.88
X128.78Y-47.5
X133.6Y-53.7
X136.1Y-53.7
T3
X75.96Y-64.6
X78.5Y-64.6
X81.04Y-64.6
X88.56Y-64.6
X91.1Y-64.6
X91.325Y-35.0
X93.64Y-64.6
X93.865Y-35.0
X100.86Y-64.6
X103.4Y-64.6
X105.94Y-64.6
T4
X60.601Y-31.967
X70.761Y-31.967
T5
X55.4Y-66.0
X60.4Y-66.0
X65.4Y-66.0
X115.9Y-66.0
X120.9Y-66.0
X125.9Y-66.0
T6
X44.0Y-53.96
X44.0Y-59.04
M30
