%TF.GenerationSoftware,KiCad,Pcbnew,9.0.2*%
%TF.CreationDate,2025-06-20T16:24:45-04:00*%
%TF.ProjectId,fps555-v5.2,66707335-3535-42d7-9635-2e322e6b6963,rev?*%
%TF.SameCoordinates,Original*%
%TF.FileFunction,Legend,Top*%
%TF.FilePolarity,Positive*%
%FSLAX46Y46*%
G04 Gerber Fmt 4.6, Leading zero omitted, Abs format (unit mm)*
G04 Created by KiCad (PCBNEW 9.0.2) date 2025-06-20 16:24:45*
%MOMM*%
%LPD*%
G01*
G04 APERTURE LIST*
%ADD10C,0.187500*%
%ADD11C,0.500000*%
%ADD12C,0.150000*%
%ADD13C,0.120000*%
G04 APERTURE END LIST*
D10*
X97266212Y-97806678D02*
X97766212Y-99306678D01*
X97766212Y-99306678D02*
X98266212Y-97806678D01*
X99909068Y-99306678D02*
X99909068Y-97806678D01*
X99909068Y-97806678D02*
X100409068Y-98878107D01*
X100409068Y-98878107D02*
X100909068Y-97806678D01*
X100909068Y-97806678D02*
X100909068Y-99306678D01*
X101909069Y-97806678D02*
X102194783Y-97806678D01*
X102194783Y-97806678D02*
X102337640Y-97878107D01*
X102337640Y-97878107D02*
X102480497Y-98020964D01*
X102480497Y-98020964D02*
X102551926Y-98306678D01*
X102551926Y-98306678D02*
X102551926Y-98806678D01*
X102551926Y-98806678D02*
X102480497Y-99092392D01*
X102480497Y-99092392D02*
X102337640Y-99235250D01*
X102337640Y-99235250D02*
X102194783Y-99306678D01*
X102194783Y-99306678D02*
X101909069Y-99306678D01*
X101909069Y-99306678D02*
X101766212Y-99235250D01*
X101766212Y-99235250D02*
X101623354Y-99092392D01*
X101623354Y-99092392D02*
X101551926Y-98806678D01*
X101551926Y-98806678D02*
X101551926Y-98306678D01*
X101551926Y-98306678D02*
X101623354Y-98020964D01*
X101623354Y-98020964D02*
X101766212Y-97878107D01*
X101766212Y-97878107D02*
X101909069Y-97806678D01*
X102980498Y-97806678D02*
X103837641Y-97806678D01*
X103409069Y-99306678D02*
X103409069Y-97806678D01*
X104623355Y-97806678D02*
X104909069Y-97806678D01*
X104909069Y-97806678D02*
X105051926Y-97878107D01*
X105051926Y-97878107D02*
X105194783Y-98020964D01*
X105194783Y-98020964D02*
X105266212Y-98306678D01*
X105266212Y-98306678D02*
X105266212Y-98806678D01*
X105266212Y-98806678D02*
X105194783Y-99092392D01*
X105194783Y-99092392D02*
X105051926Y-99235250D01*
X105051926Y-99235250D02*
X104909069Y-99306678D01*
X104909069Y-99306678D02*
X104623355Y-99306678D01*
X104623355Y-99306678D02*
X104480498Y-99235250D01*
X104480498Y-99235250D02*
X104337640Y-99092392D01*
X104337640Y-99092392D02*
X104266212Y-98806678D01*
X104266212Y-98806678D02*
X104266212Y-98306678D01*
X104266212Y-98306678D02*
X104337640Y-98020964D01*
X104337640Y-98020964D02*
X104480498Y-97878107D01*
X104480498Y-97878107D02*
X104623355Y-97806678D01*
X106766212Y-99306678D02*
X106266212Y-98592392D01*
X105909069Y-99306678D02*
X105909069Y-97806678D01*
X105909069Y-97806678D02*
X106480498Y-97806678D01*
X106480498Y-97806678D02*
X106623355Y-97878107D01*
X106623355Y-97878107D02*
X106694784Y-97949535D01*
X106694784Y-97949535D02*
X106766212Y-98092392D01*
X106766212Y-98092392D02*
X106766212Y-98306678D01*
X106766212Y-98306678D02*
X106694784Y-98449535D01*
X106694784Y-98449535D02*
X106623355Y-98520964D01*
X106623355Y-98520964D02*
X106480498Y-98592392D01*
X106480498Y-98592392D02*
X105909069Y-98592392D01*
G36*
X57821161Y-74451084D02*
G01*
X57980713Y-74451084D01*
X57980713Y-74085635D01*
X58341948Y-74085635D01*
X58341948Y-73934419D01*
X57980713Y-73934419D01*
X57980713Y-73569062D01*
X57821161Y-73569062D01*
X57821161Y-73934419D01*
X57459926Y-73934419D01*
X57459926Y-74085635D01*
X57821161Y-74085635D01*
X57821161Y-74451084D01*
G37*
G36*
X59236010Y-73247410D02*
G01*
X59354758Y-73266939D01*
X59458068Y-73306125D01*
X59544931Y-73362768D01*
X59614670Y-73435261D01*
X59642876Y-73477126D01*
X59666489Y-73522696D01*
X59685325Y-73571973D01*
X59699090Y-73624724D01*
X59707610Y-73681347D01*
X59710502Y-73741253D01*
X59710502Y-74253613D01*
X59708184Y-74313178D01*
X59687915Y-74430086D01*
X59648657Y-74529428D01*
X59622352Y-74572918D01*
X59591705Y-74612405D01*
X59556518Y-74648099D01*
X59517177Y-74679546D01*
X59472766Y-74707231D01*
X59424289Y-74730284D01*
X59370113Y-74749129D01*
X59311911Y-74762830D01*
X59247535Y-74771488D01*
X59179182Y-74774400D01*
X59165693Y-74774291D01*
X59038199Y-74761213D01*
X58929833Y-74728371D01*
X58882722Y-74705355D01*
X58840083Y-74678175D01*
X58802027Y-74647080D01*
X58768623Y-74612284D01*
X58739710Y-74573635D01*
X58715727Y-74531684D01*
X58696472Y-74485831D01*
X58682525Y-74437051D01*
X58673856Y-74384425D01*
X58670943Y-74329268D01*
X58843135Y-74329268D01*
X58849516Y-74397447D01*
X58875191Y-74472060D01*
X58919373Y-74532560D01*
X58948761Y-74557741D01*
X58982948Y-74579072D01*
X59023166Y-74596757D01*
X59068486Y-74609841D01*
X59121064Y-74618287D01*
X59179182Y-74621168D01*
X59195073Y-74620956D01*
X59297961Y-74607596D01*
X59381330Y-74575659D01*
X59447280Y-74526807D01*
X59474255Y-74495802D01*
X59496751Y-74460792D01*
X59515261Y-74420390D01*
X59528755Y-74375986D01*
X59537414Y-74325253D01*
X59540326Y-74270466D01*
X59540326Y-74066768D01*
X59513032Y-74066768D01*
X59495006Y-74092634D01*
X59436566Y-74150896D01*
X59359642Y-74196200D01*
X59314007Y-74213120D01*
X59262283Y-74225982D01*
X59205092Y-74234028D01*
X59141355Y-74236852D01*
X59120801Y-74236484D01*
X59064306Y-74231564D01*
X59009917Y-74221049D01*
X58909984Y-74184431D01*
X58824009Y-74128987D01*
X58754209Y-74057027D01*
X58702258Y-73970427D01*
X58683488Y-73922156D01*
X58669716Y-73870482D01*
X58661276Y-73815797D01*
X58658395Y-73758014D01*
X58658395Y-73734933D01*
X58830587Y-73734933D01*
X58830587Y-73751786D01*
X58830631Y-73758043D01*
X58834146Y-73806821D01*
X58843104Y-73852472D01*
X58857185Y-73894644D01*
X58876159Y-73933324D01*
X58899914Y-73968499D01*
X58928101Y-73999753D01*
X58960936Y-74027234D01*
X58997794Y-74050280D01*
X59039158Y-74068970D01*
X59084129Y-74082640D01*
X59133247Y-74091169D01*
X59185502Y-74094062D01*
X59195997Y-74093949D01*
X59294441Y-74080752D01*
X59378135Y-74047552D01*
X59445925Y-73996718D01*
X59473528Y-73965228D01*
X59496721Y-73929878D01*
X59515318Y-73890690D01*
X59528956Y-73847999D01*
X59537439Y-73801481D01*
X59540326Y-73751786D01*
X59540326Y-73734933D01*
X59540319Y-73732408D01*
X59528791Y-73637951D01*
X59515286Y-73596181D01*
X59496927Y-73557987D01*
X59473785Y-73523313D01*
X59446195Y-73492566D01*
X59413712Y-73465406D01*
X59377094Y-73442658D01*
X59335411Y-73424045D01*
X59289896Y-73410444D01*
X59239431Y-73401876D01*
X59185502Y-73398977D01*
X59176804Y-73399049D01*
X59076173Y-73411617D01*
X58991936Y-73443678D01*
X58924434Y-73492850D01*
X58897045Y-73523427D01*
X58874048Y-73557882D01*
X58855546Y-73596386D01*
X58841978Y-73638523D01*
X58833476Y-73685007D01*
X58830587Y-73734933D01*
X58658395Y-73734933D01*
X58658395Y-73732827D01*
X58659343Y-73699627D01*
X58665452Y-73643859D01*
X58677010Y-73591144D01*
X58693908Y-73541268D01*
X58715823Y-73494770D01*
X58742925Y-73451182D01*
X58774659Y-73411363D01*
X58811505Y-73374794D01*
X58852603Y-73342450D01*
X58898614Y-73313967D01*
X58948451Y-73290206D01*
X59002720Y-73271062D01*
X59060312Y-73257140D01*
X59121538Y-73248555D01*
X59185502Y-73245654D01*
X59236010Y-73247410D01*
G37*
G36*
X60332039Y-74745000D02*
G01*
X60640792Y-74745000D01*
X61083910Y-73275054D01*
X60901186Y-73275054D01*
X60500109Y-74637930D01*
X60472814Y-74637930D01*
X60071646Y-73275054D01*
X59889013Y-73275054D01*
X60332039Y-74745000D01*
G37*
D11*
X129022968Y-55711672D02*
X132540823Y-55793954D01*
X132800140Y-55942805D01*
X132849675Y-55975191D01*
X133059576Y-56000378D01*
X133316978Y-56018370D01*
X133612641Y-56024365D01*
X133909026Y-56031325D01*
X134168467Y-56052793D01*
X134377890Y-56082899D01*
X134434501Y-56121041D01*
X134482599Y-56158586D01*
X134601223Y-56189289D01*
X134751394Y-56210640D01*
X134917996Y-56217716D01*
X135084598Y-56224795D01*
X135234769Y-56246144D01*
X135353398Y-56276849D01*
X135401496Y-56314392D01*
X135452712Y-56352173D01*
X135596517Y-56382759D01*
X135777879Y-56404110D01*
X135981544Y-56411067D01*
X136185328Y-56418146D01*
X136366685Y-56439492D01*
X136510496Y-56469961D01*
X136561712Y-56507740D01*
X136608014Y-56545286D01*
X136714285Y-56576110D01*
X136848742Y-56597461D01*
X136996875Y-56604538D01*
X137145007Y-56611617D01*
X137279459Y-56632844D01*
X137385735Y-56663671D01*
X137432033Y-56701213D01*
X137475814Y-56738515D01*
X137568404Y-56769461D01*
X137685357Y-56790813D01*
X137812613Y-56797889D01*
X137944316Y-56808566D01*
X138074576Y-56840469D01*
X138185049Y-56887247D01*
X138253893Y-56942904D01*
X138322738Y-56998555D01*
X138433092Y-57045335D01*
X138563471Y-57077239D01*
X138695168Y-57087913D01*
X138822310Y-57095109D01*
X138939252Y-57116341D01*
X139031972Y-57147284D01*
X139075748Y-57184589D01*
X139114736Y-57221771D01*
X139185620Y-57252959D01*
X139273302Y-57274188D01*
X139365778Y-57281384D01*
X139458373Y-57288460D01*
X139546055Y-57309689D01*
X139616944Y-57340877D01*
X139655926Y-57378059D01*
X139702338Y-57415483D01*
X139810051Y-57446307D01*
X139946433Y-57467658D01*
X140096719Y-57474735D01*
X140242812Y-57481694D01*
X140365871Y-57503162D01*
X140453673Y-57533987D01*
X140477787Y-57571410D01*
X140495291Y-57608471D01*
X140547949Y-57639658D01*
X140625198Y-57661009D01*
X140716590Y-57668086D01*
X140832095Y-57681398D01*
X140986344Y-57724938D01*
X141150316Y-57787430D01*
X141299647Y-57861434D01*
X141441653Y-57935563D01*
X141583669Y-57998052D01*
X141708045Y-58043032D01*
X141783136Y-58054907D01*
X141858217Y-58066780D01*
X141982604Y-58111641D01*
X142124620Y-58174252D01*
X142266636Y-58248256D01*
X142406722Y-58322263D01*
X142543104Y-58384874D01*
X142660529Y-58430572D01*
X142724341Y-58441607D01*
X142950309Y-58493425D01*
X143780813Y-58902435D01*
X144580718Y-59314803D01*
X144860433Y-59513910D01*
X144943794Y-59584557D01*
X145030039Y-59644408D01*
X145107879Y-59686989D01*
X145159334Y-59698626D01*
X145316820Y-59762676D01*
X146012135Y-60448759D01*
X146698703Y-61143714D01*
X146762754Y-61300962D01*
X146775465Y-61354216D01*
X146819604Y-61428822D01*
X146882213Y-61509184D01*
X146956214Y-61584151D01*
X147030226Y-61664277D01*
X147092710Y-61760109D01*
X147135781Y-61856663D01*
X147149571Y-61937507D01*
X147156647Y-62005755D01*
X147177991Y-62063567D01*
X147209305Y-62102311D01*
X147246244Y-62115987D01*
X147283193Y-62130617D01*
X147314497Y-62172718D01*
X147335851Y-62235329D01*
X147342917Y-62309335D01*
X147350118Y-62383342D01*
X147371347Y-62445953D01*
X147402662Y-62488051D01*
X147439600Y-62502687D01*
X147476538Y-62517322D01*
X147507967Y-62559539D01*
X147529197Y-62622150D01*
X147536273Y-62696157D01*
X147543464Y-62770161D01*
X147564693Y-62832656D01*
X147596122Y-62874873D01*
X147633070Y-62889508D01*
X147670133Y-62909417D01*
X147701313Y-62972988D01*
X147722667Y-63064865D01*
X147729743Y-63173895D01*
X147736820Y-63287123D01*
X147758174Y-63392193D01*
X147789115Y-63476034D01*
X147826416Y-63518015D01*
X147863594Y-63556157D01*
X147894670Y-63623806D01*
X147915899Y-63707166D01*
X147923100Y-63794488D01*
X147931847Y-63886126D01*
X147957994Y-63982441D01*
X147996375Y-64068800D01*
X148041957Y-64130091D01*
X148105644Y-64274027D01*
X148135631Y-65063021D01*
X148156507Y-66211730D01*
X148162857Y-68137916D01*
X148157950Y-70480671D01*
X148131553Y-71615943D01*
X148069910Y-72411656D01*
X147950191Y-73235555D01*
X147657776Y-74812584D01*
X147435522Y-75815920D01*
X147151013Y-76843365D01*
X146620375Y-78553653D01*
X146278539Y-79525083D01*
X145850208Y-80551682D01*
X145395865Y-81501525D01*
X144977734Y-82227906D01*
X144808979Y-82490942D01*
X144636976Y-82761298D01*
X144484771Y-83002633D01*
X144386531Y-83161194D01*
X144044684Y-83619381D01*
X143185045Y-84551351D01*
X142245760Y-85539336D01*
X142074961Y-85612139D01*
X142019304Y-85622339D01*
X141953095Y-85654245D01*
X141887612Y-85700423D01*
X141833159Y-85755234D01*
X141689099Y-85884177D01*
X141437212Y-86033980D01*
X141176941Y-86159202D01*
X141016092Y-86192307D01*
X140964762Y-86205510D01*
X140898304Y-86249162D01*
X140829221Y-86311651D01*
X140767930Y-86385658D01*
X140701835Y-86459665D01*
X140618838Y-86522279D01*
X140532478Y-86565100D01*
X140456433Y-86579134D01*
X140390587Y-86586205D01*
X140334930Y-86607434D01*
X140297629Y-86638863D01*
X140284430Y-86675807D01*
X140273515Y-86712631D01*
X140242688Y-86744060D01*
X140196639Y-86765289D01*
X140142300Y-86772485D01*
X140066006Y-86784360D01*
X139940799Y-86829340D01*
X139798181Y-86891829D01*
X139655926Y-86965836D01*
X139514751Y-87039843D01*
X139375370Y-87102451D01*
X139254350Y-87147670D01*
X139184421Y-87159301D01*
X139023817Y-87190606D01*
X138755618Y-87311512D01*
X138497858Y-87451489D01*
X138395069Y-87552125D01*
X138360522Y-87586906D01*
X138301389Y-87616047D01*
X138229183Y-87635963D01*
X138154460Y-87642682D01*
X138060423Y-87655392D01*
X137922843Y-87699537D01*
X137770757Y-87762026D01*
X137625384Y-87836033D01*
X137469091Y-87910154D01*
X137283662Y-87972648D01*
X137098943Y-88015589D01*
X136945534Y-88029498D01*
X136817080Y-88036455D01*
X136708651Y-88057928D01*
X136632481Y-88088869D01*
X136610053Y-88126176D01*
X136586064Y-88163597D01*
X136498148Y-88194424D01*
X136375084Y-88215897D01*
X136228990Y-88222849D01*
X136078699Y-88229931D01*
X135942318Y-88251279D01*
X135834734Y-88282106D01*
X135788193Y-88319527D01*
X135749210Y-88356710D01*
X135678322Y-88387889D01*
X135590650Y-88409119D01*
X135498174Y-88416200D01*
X135405568Y-88423396D01*
X135317891Y-88444625D01*
X135247003Y-88475815D01*
X135208025Y-88512998D01*
X135156810Y-88550777D01*
X135012993Y-88581241D01*
X134831642Y-88602594D01*
X134627977Y-88609666D01*
X134424183Y-88616628D01*
X134242831Y-88637976D01*
X134099015Y-88668565D01*
X134047799Y-88706349D01*
X133991069Y-88744486D01*
X133781645Y-88774592D01*
X133522209Y-88795946D01*
X133225825Y-88803017D01*
X132929559Y-88809979D01*
X132670124Y-88831447D01*
X132460695Y-88861558D01*
X132403959Y-88899695D01*
X132329475Y-88943601D01*
X131693890Y-88970703D01*
X130895178Y-88990370D01*
X129835952Y-88996368D01*
X128759086Y-88990614D01*
X127978854Y-88971305D01*
X127370609Y-88944794D01*
X127327673Y-88899695D01*
X127294813Y-88859753D01*
X127111537Y-88830254D01*
X126866487Y-88809621D01*
X126559784Y-88803017D01*
X126261251Y-88795946D01*
X126000005Y-88774592D01*
X125789025Y-88744486D01*
X125732175Y-88706349D01*
X125680959Y-88668565D01*
X125537138Y-88637976D01*
X125355787Y-88616628D01*
X125152122Y-88609666D01*
X124948332Y-88602594D01*
X124766981Y-88581241D01*
X124623165Y-88550777D01*
X124571949Y-88512998D01*
X124522170Y-88475214D01*
X124391070Y-88444625D01*
X124225314Y-88423282D01*
X124040118Y-88416200D01*
X123854922Y-88409243D01*
X123689156Y-88387889D01*
X123558055Y-88357187D01*
X123508282Y-88319527D01*
X123469299Y-88282345D01*
X123398410Y-88251279D01*
X123310739Y-88230045D01*
X123218263Y-88222849D01*
X123125657Y-88215653D01*
X123037975Y-88194424D01*
X122967097Y-88163364D01*
X122928114Y-88126176D01*
X122887088Y-88088869D01*
X122807685Y-88057928D01*
X122708496Y-88036580D01*
X122602220Y-88029498D01*
X122470523Y-88015107D01*
X122288093Y-87967009D01*
X122090664Y-87898164D01*
X121906900Y-87816718D01*
X121736942Y-87736833D01*
X121581499Y-87672544D01*
X121450995Y-87626007D01*
X121401818Y-87624570D01*
X121352641Y-87621930D01*
X121220343Y-87567715D01*
X121062856Y-87493709D01*
X120890734Y-87402192D01*
X120714898Y-87309115D01*
X120546376Y-87230548D01*
X120402441Y-87172494D01*
X120329513Y-87159301D01*
X120245317Y-87141906D01*
X119961524Y-87017166D01*
X119626759Y-86861002D01*
X119253856Y-86675807D01*
X118882267Y-86490492D01*
X118551937Y-86334328D01*
X118270670Y-86207658D01*
X118197981Y-86192307D01*
X118148804Y-86179000D01*
X118087394Y-86135457D01*
X118025024Y-86072962D01*
X117970924Y-85998961D01*
X117910479Y-85924954D01*
X117829032Y-85862346D01*
X117740157Y-85819768D01*
X117657632Y-85805491D01*
X117583864Y-85798414D01*
X117521618Y-85777180D01*
X117479637Y-85745761D01*
X117465007Y-85708812D01*
X117450128Y-85671874D01*
X117407311Y-85640569D01*
X117343738Y-85619335D01*
X117268652Y-85612139D01*
X117189494Y-85601582D01*
X117113925Y-85570641D01*
X117053356Y-85524820D01*
X117017968Y-85470850D01*
X116984625Y-85412672D01*
X116928973Y-85354857D01*
X116861203Y-85306043D01*
X116791035Y-85274614D01*
X116706113Y-85237676D01*
X116587609Y-85165827D01*
X116459746Y-85076469D01*
X116340759Y-84980989D01*
X116226821Y-84889598D01*
X116114428Y-84812349D01*
X116016194Y-84755862D01*
X115960179Y-84742062D01*
X115904527Y-84725751D01*
X115806054Y-84656782D01*
X115693423Y-84562988D01*
X115579599Y-84451799D01*
X115465525Y-84340735D01*
X115352780Y-84246931D01*
X115253829Y-84178205D01*
X115197695Y-84161775D01*
X115002066Y-84080090D01*
X113580962Y-82635235D01*
X112295877Y-81298939D01*
X111691959Y-80581072D01*
X111174996Y-79860326D01*
X110645920Y-79064255D01*
X110190249Y-78330435D01*
X109947487Y-77863848D01*
X109839894Y-77646751D01*
X109656503Y-77321101D01*
X109440839Y-76958865D01*
X109220863Y-76609112D01*
X108990568Y-76241719D01*
X108743604Y-75825513D01*
X108516666Y-75424658D01*
X108352103Y-75110406D01*
X108190539Y-74787391D01*
X107971761Y-74355834D01*
X107737026Y-73896209D01*
X107521127Y-73477243D01*
X107167052Y-72725789D01*
X106859275Y-71928037D01*
X106545142Y-70938376D01*
X106163239Y-69561297D01*
X105918070Y-68586505D01*
X105771619Y-67860244D01*
X105694374Y-67237130D01*
X105668585Y-66600948D01*
X105650593Y-66085905D01*
X105560758Y-65911625D01*
X105353493Y-65812556D01*
X104513521Y-65648470D01*
X103249307Y-65481386D01*
X101918525Y-65436167D01*
X100638239Y-65511253D01*
X99528632Y-65706762D01*
X98745277Y-65922302D01*
X98371290Y-66103182D01*
X98190173Y-66334670D01*
X98126599Y-66680231D01*
X98116529Y-66843834D01*
X98086299Y-67024112D01*
X98042164Y-67193474D01*
X97989501Y-67321933D01*
X97929653Y-67462388D01*
X97861524Y-67678410D01*
X97796996Y-67923097D01*
X97746257Y-68163223D01*
X97471942Y-69624985D01*
X97289029Y-70519892D01*
X97120269Y-71230081D01*
X96910965Y-71996767D01*
X96662082Y-72781923D01*
X96378169Y-73535172D01*
X95979355Y-74458390D01*
X95337176Y-75846265D01*
X94668003Y-77146344D01*
X93796727Y-78620339D01*
X92855284Y-80061111D01*
X91969733Y-81261036D01*
X91290369Y-82106169D01*
X90913261Y-82532326D01*
X90542396Y-82880171D01*
X89948547Y-83365818D01*
X89609466Y-83637254D01*
X89222885Y-83952948D01*
X88849620Y-84262764D01*
X88554076Y-84513687D01*
X85922253Y-86331205D01*
X82752483Y-87717404D01*
X79110010Y-88645774D01*
X75065483Y-89094006D01*
X73922055Y-89123152D01*
X72953383Y-89087884D01*
X72040367Y-88981499D01*
X71070135Y-88794628D01*
X70840561Y-88746047D01*
X70509154Y-88682479D01*
X70143565Y-88616270D01*
X69795725Y-88557018D01*
X68544227Y-88266511D01*
X67034125Y-87752070D01*
X65572122Y-87138072D01*
X64475290Y-86536431D01*
X64180839Y-86347640D01*
X63893811Y-86164722D01*
X63647397Y-86008559D01*
X63510757Y-85923393D01*
X62917069Y-85498548D01*
X62263383Y-84910469D01*
X61605621Y-84216944D01*
X60996998Y-83468976D01*
X60370924Y-82576108D01*
X59868992Y-81723062D01*
X59439615Y-80814724D01*
X59032968Y-79753453D01*
X58882665Y-79336287D01*
X58707882Y-78878457D01*
X58535894Y-78449058D01*
X58396915Y-78126889D01*
X58281708Y-77856891D01*
X58184396Y-77594212D01*
X58113401Y-77368478D01*
X58095998Y-77245175D01*
X58082480Y-77106158D01*
X58010442Y-76754485D01*
X57916285Y-76335757D01*
X57804749Y-75880687D01*
X57547983Y-74797710D01*
X57323328Y-73696617D01*
X57144323Y-72650584D01*
X57026189Y-71736849D01*
X56984377Y-71373897D01*
X56933760Y-71003148D01*
X56882100Y-70674380D01*
X56838896Y-70461237D01*
X56761052Y-69862118D01*
X56744944Y-68524857D01*
X56760668Y-67178480D01*
X56840755Y-66659842D01*
X56884859Y-66472369D01*
X56938594Y-66152473D01*
X56991453Y-65782087D01*
X57035569Y-65406896D01*
X57079421Y-65049345D01*
X57131621Y-64732572D01*
X57185500Y-64472171D01*
X57227204Y-64396489D01*
X57263775Y-64345029D01*
X57294481Y-64267308D01*
X57315436Y-64178189D01*
X57322464Y-64090631D01*
X57333463Y-64000910D01*
X57366352Y-63905555D01*
X57414677Y-63818957D01*
X57471903Y-63756104D01*
X57525386Y-63699133D01*
X57563073Y-63631001D01*
X57580033Y-63562515D01*
X57572428Y-63504583D01*
X57577574Y-63332103D01*
X57886047Y-62674085D01*
X58205843Y-62050255D01*
X58428604Y-61735640D01*
X58486345Y-61664992D01*
X58535151Y-61590508D01*
X58569634Y-61522621D01*
X58579458Y-61475841D01*
X58628516Y-61353021D01*
X58998555Y-60973753D01*
X59371559Y-60619078D01*
X59619148Y-60437844D01*
X59719505Y-60376792D01*
X59877869Y-60275317D01*
X60057042Y-60158133D01*
X60233575Y-60040107D01*
X60425871Y-59914762D01*
X60653453Y-59775390D01*
X60879632Y-59643449D01*
X61066470Y-59542096D01*
X61234068Y-59450100D01*
X61400167Y-59347788D01*
X61542901Y-59250152D01*
X61629357Y-59176504D01*
X61701587Y-59117374D01*
X61790550Y-59067237D01*
X61881888Y-59032931D01*
X61960775Y-59021780D01*
X62060964Y-59005344D01*
X62247527Y-58936616D01*
X62464807Y-58842823D01*
X62688874Y-58731753D01*
X62913051Y-58620686D01*
X63130582Y-58526887D01*
X63317467Y-58458159D01*
X63418184Y-58441607D01*
X63490654Y-58434531D01*
X63561349Y-58413179D01*
X63620087Y-58381995D01*
X63655806Y-58344932D01*
X63694788Y-58307749D01*
X63765663Y-58276684D01*
X63853331Y-58255454D01*
X63945881Y-58248256D01*
X64038417Y-58241060D01*
X64126096Y-58219831D01*
X64196971Y-58188765D01*
X64235953Y-58151583D01*
X64274948Y-58114401D01*
X64345811Y-58083332D01*
X64433491Y-58061981D01*
X64526027Y-58054907D01*
X64618564Y-58047709D01*
X64706244Y-58026480D01*
X64777131Y-57995292D01*
X64816112Y-57958232D01*
X64858094Y-57920928D01*
X64941815Y-57889862D01*
X65047005Y-57868633D01*
X65160233Y-57861434D01*
X65269143Y-57854480D01*
X65361020Y-57833129D01*
X65424591Y-57801944D01*
X65444622Y-57764761D01*
X65468730Y-57727335D01*
X65556530Y-57696511D01*
X65679593Y-57675160D01*
X65825685Y-57668086D01*
X65975975Y-57661009D01*
X66112352Y-57639658D01*
X66220062Y-57608951D01*
X66266481Y-57571410D01*
X66310620Y-57533987D01*
X66404777Y-57503162D01*
X66523641Y-57481811D01*
X66653301Y-57474735D01*
X66782841Y-57467658D01*
X66901826Y-57446307D01*
X66995983Y-57415363D01*
X67040002Y-57378059D01*
X67078985Y-57340877D01*
X67149872Y-57309689D01*
X67237551Y-57288460D01*
X67330148Y-57281384D01*
X67422625Y-57274188D01*
X67510305Y-57252959D01*
X67581192Y-57221771D01*
X67620173Y-57184589D01*
X67668751Y-57147048D01*
X67790614Y-57116341D01*
X67944744Y-57094992D01*
X68116263Y-57087913D01*
X68302177Y-57077841D01*
X68471779Y-57047732D01*
X68610075Y-57001673D01*
X68697634Y-56942904D01*
X68783875Y-56884848D01*
X68920611Y-56838669D01*
X69086495Y-56808081D01*
X69265212Y-56797889D01*
X69431335Y-56790813D01*
X69581145Y-56769461D01*
X69699289Y-56738756D01*
X69747387Y-56701213D01*
X69801244Y-56663191D01*
X69970844Y-56632844D01*
X70183507Y-56611495D01*
X70424234Y-56604538D01*
X70664964Y-56597461D01*
X70877624Y-56576110D01*
X71047345Y-56545766D01*
X71101081Y-56507740D01*
X71161055Y-56468999D01*
X71421453Y-56439256D01*
X71742424Y-56418024D01*
X72116411Y-56411067D01*
X72490277Y-56404232D01*
X72811249Y-56383003D01*
X73071648Y-56353252D01*
X73131620Y-56314392D01*
X73287069Y-56227672D01*
X79566880Y-56219275D01*
X85604881Y-56217600D01*
X86330185Y-56299878D01*
X86938064Y-56366567D01*
X103005700Y-56258499D01*
X119238624Y-56147429D01*
X119493381Y-56074022D01*
X119581779Y-56044157D01*
X120073797Y-55998098D01*
X120650727Y-55952281D01*
X121314261Y-55911021D01*
X122029487Y-55869877D01*
X122763790Y-55824897D01*
X123417850Y-55782320D01*
X123846767Y-55751013D01*
X125807857Y-55674848D01*
X129022968Y-55711672D01*
D12*
X145921995Y-77233819D02*
X145921995Y-78043342D01*
X145921995Y-78043342D02*
X145969614Y-78138580D01*
X145969614Y-78138580D02*
X146017233Y-78186200D01*
X146017233Y-78186200D02*
X146112471Y-78233819D01*
X146112471Y-78233819D02*
X146302947Y-78233819D01*
X146302947Y-78233819D02*
X146398185Y-78186200D01*
X146398185Y-78186200D02*
X146445804Y-78138580D01*
X146445804Y-78138580D02*
X146493423Y-78043342D01*
X146493423Y-78043342D02*
X146493423Y-77233819D01*
X146874376Y-77233819D02*
X147493423Y-77233819D01*
X147493423Y-77233819D02*
X147160090Y-77614771D01*
X147160090Y-77614771D02*
X147302947Y-77614771D01*
X147302947Y-77614771D02*
X147398185Y-77662390D01*
X147398185Y-77662390D02*
X147445804Y-77710009D01*
X147445804Y-77710009D02*
X147493423Y-77805247D01*
X147493423Y-77805247D02*
X147493423Y-78043342D01*
X147493423Y-78043342D02*
X147445804Y-78138580D01*
X147445804Y-78138580D02*
X147398185Y-78186200D01*
X147398185Y-78186200D02*
X147302947Y-78233819D01*
X147302947Y-78233819D02*
X147017233Y-78233819D01*
X147017233Y-78233819D02*
X146921995Y-78186200D01*
X146921995Y-78186200D02*
X146874376Y-78138580D01*
X146864017Y-51346533D02*
X146864017Y-50346533D01*
X146864017Y-50822723D02*
X147435445Y-50822723D01*
X147435445Y-51346533D02*
X147435445Y-50346533D01*
X148340207Y-50679866D02*
X148340207Y-51346533D01*
X148102112Y-50298914D02*
X147864017Y-51013199D01*
X147864017Y-51013199D02*
X148483064Y-51013199D01*
X141811853Y-91024507D02*
X141811853Y-90024507D01*
X141811853Y-90500697D02*
X142383281Y-90500697D01*
X142383281Y-91024507D02*
X142383281Y-90024507D01*
X142764234Y-90024507D02*
X143383281Y-90024507D01*
X143383281Y-90024507D02*
X143049948Y-90405459D01*
X143049948Y-90405459D02*
X143192805Y-90405459D01*
X143192805Y-90405459D02*
X143288043Y-90453078D01*
X143288043Y-90453078D02*
X143335662Y-90500697D01*
X143335662Y-90500697D02*
X143383281Y-90595935D01*
X143383281Y-90595935D02*
X143383281Y-90834030D01*
X143383281Y-90834030D02*
X143335662Y-90929268D01*
X143335662Y-90929268D02*
X143288043Y-90976888D01*
X143288043Y-90976888D02*
X143192805Y-91024507D01*
X143192805Y-91024507D02*
X142907091Y-91024507D01*
X142907091Y-91024507D02*
X142811853Y-90976888D01*
X142811853Y-90976888D02*
X142764234Y-90929268D01*
X64181029Y-91023727D02*
X64181029Y-90023727D01*
X64181029Y-90499917D02*
X64752457Y-90499917D01*
X64752457Y-91023727D02*
X64752457Y-90023727D01*
X65181029Y-90118965D02*
X65228648Y-90071346D01*
X65228648Y-90071346D02*
X65323886Y-90023727D01*
X65323886Y-90023727D02*
X65561981Y-90023727D01*
X65561981Y-90023727D02*
X65657219Y-90071346D01*
X65657219Y-90071346D02*
X65704838Y-90118965D01*
X65704838Y-90118965D02*
X65752457Y-90214203D01*
X65752457Y-90214203D02*
X65752457Y-90309441D01*
X65752457Y-90309441D02*
X65704838Y-90452298D01*
X65704838Y-90452298D02*
X65133410Y-91023727D01*
X65133410Y-91023727D02*
X65752457Y-91023727D01*
X56910846Y-51592980D02*
X56910846Y-50592980D01*
X56910846Y-51069170D02*
X57482274Y-51069170D01*
X57482274Y-51592980D02*
X57482274Y-50592980D01*
X58482274Y-51592980D02*
X57910846Y-51592980D01*
X58196560Y-51592980D02*
X58196560Y-50592980D01*
X58196560Y-50592980D02*
X58101322Y-50735837D01*
X58101322Y-50735837D02*
X58006084Y-50831075D01*
X58006084Y-50831075D02*
X57910846Y-50878694D01*
X82126053Y-76075351D02*
X82078434Y-76122971D01*
X82078434Y-76122971D02*
X81935577Y-76170590D01*
X81935577Y-76170590D02*
X81840339Y-76170590D01*
X81840339Y-76170590D02*
X81697482Y-76122971D01*
X81697482Y-76122971D02*
X81602244Y-76027732D01*
X81602244Y-76027732D02*
X81554625Y-75932494D01*
X81554625Y-75932494D02*
X81507006Y-75742018D01*
X81507006Y-75742018D02*
X81507006Y-75599161D01*
X81507006Y-75599161D02*
X81554625Y-75408685D01*
X81554625Y-75408685D02*
X81602244Y-75313447D01*
X81602244Y-75313447D02*
X81697482Y-75218209D01*
X81697482Y-75218209D02*
X81840339Y-75170590D01*
X81840339Y-75170590D02*
X81935577Y-75170590D01*
X81935577Y-75170590D02*
X82078434Y-75218209D01*
X82078434Y-75218209D02*
X82126053Y-75265828D01*
X82507006Y-75265828D02*
X82554625Y-75218209D01*
X82554625Y-75218209D02*
X82649863Y-75170590D01*
X82649863Y-75170590D02*
X82887958Y-75170590D01*
X82887958Y-75170590D02*
X82983196Y-75218209D01*
X82983196Y-75218209D02*
X83030815Y-75265828D01*
X83030815Y-75265828D02*
X83078434Y-75361066D01*
X83078434Y-75361066D02*
X83078434Y-75456304D01*
X83078434Y-75456304D02*
X83030815Y-75599161D01*
X83030815Y-75599161D02*
X82459387Y-76170590D01*
X82459387Y-76170590D02*
X83078434Y-76170590D01*
X117215805Y-57853819D02*
X117215805Y-56853819D01*
X117215805Y-56853819D02*
X117453900Y-56853819D01*
X117453900Y-56853819D02*
X117596757Y-56901438D01*
X117596757Y-56901438D02*
X117691995Y-56996676D01*
X117691995Y-56996676D02*
X117739614Y-57091914D01*
X117739614Y-57091914D02*
X117787233Y-57282390D01*
X117787233Y-57282390D02*
X117787233Y-57425247D01*
X117787233Y-57425247D02*
X117739614Y-57615723D01*
X117739614Y-57615723D02*
X117691995Y-57710961D01*
X117691995Y-57710961D02*
X117596757Y-57806200D01*
X117596757Y-57806200D02*
X117453900Y-57853819D01*
X117453900Y-57853819D02*
X117215805Y-57853819D01*
X118644376Y-56853819D02*
X118453900Y-56853819D01*
X118453900Y-56853819D02*
X118358662Y-56901438D01*
X118358662Y-56901438D02*
X118311043Y-56949057D01*
X118311043Y-56949057D02*
X118215805Y-57091914D01*
X118215805Y-57091914D02*
X118168186Y-57282390D01*
X118168186Y-57282390D02*
X118168186Y-57663342D01*
X118168186Y-57663342D02*
X118215805Y-57758580D01*
X118215805Y-57758580D02*
X118263424Y-57806200D01*
X118263424Y-57806200D02*
X118358662Y-57853819D01*
X118358662Y-57853819D02*
X118549138Y-57853819D01*
X118549138Y-57853819D02*
X118644376Y-57806200D01*
X118644376Y-57806200D02*
X118691995Y-57758580D01*
X118691995Y-57758580D02*
X118739614Y-57663342D01*
X118739614Y-57663342D02*
X118739614Y-57425247D01*
X118739614Y-57425247D02*
X118691995Y-57330009D01*
X118691995Y-57330009D02*
X118644376Y-57282390D01*
X118644376Y-57282390D02*
X118549138Y-57234771D01*
X118549138Y-57234771D02*
X118358662Y-57234771D01*
X118358662Y-57234771D02*
X118263424Y-57282390D01*
X118263424Y-57282390D02*
X118215805Y-57330009D01*
X118215805Y-57330009D02*
X118168186Y-57425247D01*
X118191995Y-59353819D02*
X118191995Y-58353819D01*
X118763423Y-59353819D02*
X118334852Y-58782390D01*
X118763423Y-58353819D02*
X118191995Y-58925247D01*
X64191995Y-83353819D02*
X64191995Y-84163342D01*
X64191995Y-84163342D02*
X64239614Y-84258580D01*
X64239614Y-84258580D02*
X64287233Y-84306200D01*
X64287233Y-84306200D02*
X64382471Y-84353819D01*
X64382471Y-84353819D02*
X64572947Y-84353819D01*
X64572947Y-84353819D02*
X64668185Y-84306200D01*
X64668185Y-84306200D02*
X64715804Y-84258580D01*
X64715804Y-84258580D02*
X64763423Y-84163342D01*
X64763423Y-84163342D02*
X64763423Y-83353819D01*
X65763423Y-84353819D02*
X65191995Y-84353819D01*
X65477709Y-84353819D02*
X65477709Y-83353819D01*
X65477709Y-83353819D02*
X65382471Y-83496676D01*
X65382471Y-83496676D02*
X65287233Y-83591914D01*
X65287233Y-83591914D02*
X65191995Y-83639533D01*
X117215805Y-62853819D02*
X117215805Y-61853819D01*
X117215805Y-61853819D02*
X117453900Y-61853819D01*
X117453900Y-61853819D02*
X117596757Y-61901438D01*
X117596757Y-61901438D02*
X117691995Y-61996676D01*
X117691995Y-61996676D02*
X117739614Y-62091914D01*
X117739614Y-62091914D02*
X117787233Y-62282390D01*
X117787233Y-62282390D02*
X117787233Y-62425247D01*
X117787233Y-62425247D02*
X117739614Y-62615723D01*
X117739614Y-62615723D02*
X117691995Y-62710961D01*
X117691995Y-62710961D02*
X117596757Y-62806200D01*
X117596757Y-62806200D02*
X117453900Y-62853819D01*
X117453900Y-62853819D02*
X117215805Y-62853819D01*
X118120567Y-61853819D02*
X118787233Y-61853819D01*
X118787233Y-61853819D02*
X118358662Y-62853819D01*
X134867233Y-81853819D02*
X134533900Y-81377628D01*
X134295805Y-81853819D02*
X134295805Y-80853819D01*
X134295805Y-80853819D02*
X134676757Y-80853819D01*
X134676757Y-80853819D02*
X134771995Y-80901438D01*
X134771995Y-80901438D02*
X134819614Y-80949057D01*
X134819614Y-80949057D02*
X134867233Y-81044295D01*
X134867233Y-81044295D02*
X134867233Y-81187152D01*
X134867233Y-81187152D02*
X134819614Y-81282390D01*
X134819614Y-81282390D02*
X134771995Y-81330009D01*
X134771995Y-81330009D02*
X134676757Y-81377628D01*
X134676757Y-81377628D02*
X134295805Y-81377628D01*
X135771995Y-80853819D02*
X135295805Y-80853819D01*
X135295805Y-80853819D02*
X135248186Y-81330009D01*
X135248186Y-81330009D02*
X135295805Y-81282390D01*
X135295805Y-81282390D02*
X135391043Y-81234771D01*
X135391043Y-81234771D02*
X135629138Y-81234771D01*
X135629138Y-81234771D02*
X135724376Y-81282390D01*
X135724376Y-81282390D02*
X135771995Y-81330009D01*
X135771995Y-81330009D02*
X135819614Y-81425247D01*
X135819614Y-81425247D02*
X135819614Y-81663342D01*
X135819614Y-81663342D02*
X135771995Y-81758580D01*
X135771995Y-81758580D02*
X135724376Y-81806200D01*
X135724376Y-81806200D02*
X135629138Y-81853819D01*
X135629138Y-81853819D02*
X135391043Y-81853819D01*
X135391043Y-81853819D02*
X135295805Y-81806200D01*
X135295805Y-81806200D02*
X135248186Y-81758580D01*
X138715805Y-59853819D02*
X138715805Y-58853819D01*
X138715805Y-58853819D02*
X138953900Y-58853819D01*
X138953900Y-58853819D02*
X139096757Y-58901438D01*
X139096757Y-58901438D02*
X139191995Y-58996676D01*
X139191995Y-58996676D02*
X139239614Y-59091914D01*
X139239614Y-59091914D02*
X139287233Y-59282390D01*
X139287233Y-59282390D02*
X139287233Y-59425247D01*
X139287233Y-59425247D02*
X139239614Y-59615723D01*
X139239614Y-59615723D02*
X139191995Y-59710961D01*
X139191995Y-59710961D02*
X139096757Y-59806200D01*
X139096757Y-59806200D02*
X138953900Y-59853819D01*
X138953900Y-59853819D02*
X138715805Y-59853819D01*
X140239614Y-59853819D02*
X139668186Y-59853819D01*
X139953900Y-59853819D02*
X139953900Y-58853819D01*
X139953900Y-58853819D02*
X139858662Y-58996676D01*
X139858662Y-58996676D02*
X139763424Y-59091914D01*
X139763424Y-59091914D02*
X139668186Y-59139533D01*
X81787233Y-81440683D02*
X81739614Y-81488303D01*
X81739614Y-81488303D02*
X81596757Y-81535922D01*
X81596757Y-81535922D02*
X81501519Y-81535922D01*
X81501519Y-81535922D02*
X81358662Y-81488303D01*
X81358662Y-81488303D02*
X81263424Y-81393064D01*
X81263424Y-81393064D02*
X81215805Y-81297826D01*
X81215805Y-81297826D02*
X81168186Y-81107350D01*
X81168186Y-81107350D02*
X81168186Y-80964493D01*
X81168186Y-80964493D02*
X81215805Y-80774017D01*
X81215805Y-80774017D02*
X81263424Y-80678779D01*
X81263424Y-80678779D02*
X81358662Y-80583541D01*
X81358662Y-80583541D02*
X81501519Y-80535922D01*
X81501519Y-80535922D02*
X81596757Y-80535922D01*
X81596757Y-80535922D02*
X81739614Y-80583541D01*
X81739614Y-80583541D02*
X81787233Y-80631160D01*
X82739614Y-81535922D02*
X82168186Y-81535922D01*
X82453900Y-81535922D02*
X82453900Y-80535922D01*
X82453900Y-80535922D02*
X82358662Y-80678779D01*
X82358662Y-80678779D02*
X82263424Y-80774017D01*
X82263424Y-80774017D02*
X82168186Y-80821636D01*
X140974386Y-67111298D02*
X139974386Y-67111298D01*
X139974386Y-67111298D02*
X140688671Y-66777965D01*
X140688671Y-66777965D02*
X139974386Y-66444632D01*
X139974386Y-66444632D02*
X140974386Y-66444632D01*
X140974386Y-65444632D02*
X140974386Y-66016060D01*
X140974386Y-65730346D02*
X139974386Y-65730346D01*
X139974386Y-65730346D02*
X140117243Y-65825584D01*
X140117243Y-65825584D02*
X140212481Y-65920822D01*
X140212481Y-65920822D02*
X140260100Y-66016060D01*
X79210522Y-71353819D02*
X78877189Y-70877628D01*
X78639094Y-71353819D02*
X78639094Y-70353819D01*
X78639094Y-70353819D02*
X79020046Y-70353819D01*
X79020046Y-70353819D02*
X79115284Y-70401438D01*
X79115284Y-70401438D02*
X79162903Y-70449057D01*
X79162903Y-70449057D02*
X79210522Y-70544295D01*
X79210522Y-70544295D02*
X79210522Y-70687152D01*
X79210522Y-70687152D02*
X79162903Y-70782390D01*
X79162903Y-70782390D02*
X79115284Y-70830009D01*
X79115284Y-70830009D02*
X79020046Y-70877628D01*
X79020046Y-70877628D02*
X78639094Y-70877628D01*
X80067665Y-70687152D02*
X80067665Y-71353819D01*
X79829570Y-70306200D02*
X79591475Y-71020485D01*
X79591475Y-71020485D02*
X80210522Y-71020485D01*
X71410441Y-57983819D02*
X71077108Y-57507628D01*
X70839013Y-57983819D02*
X70839013Y-56983819D01*
X70839013Y-56983819D02*
X71219965Y-56983819D01*
X71219965Y-56983819D02*
X71315203Y-57031438D01*
X71315203Y-57031438D02*
X71362822Y-57079057D01*
X71362822Y-57079057D02*
X71410441Y-57174295D01*
X71410441Y-57174295D02*
X71410441Y-57317152D01*
X71410441Y-57317152D02*
X71362822Y-57412390D01*
X71362822Y-57412390D02*
X71315203Y-57460009D01*
X71315203Y-57460009D02*
X71219965Y-57507628D01*
X71219965Y-57507628D02*
X70839013Y-57507628D01*
X71791394Y-57079057D02*
X71839013Y-57031438D01*
X71839013Y-57031438D02*
X71934251Y-56983819D01*
X71934251Y-56983819D02*
X72172346Y-56983819D01*
X72172346Y-56983819D02*
X72267584Y-57031438D01*
X72267584Y-57031438D02*
X72315203Y-57079057D01*
X72315203Y-57079057D02*
X72362822Y-57174295D01*
X72362822Y-57174295D02*
X72362822Y-57269533D01*
X72362822Y-57269533D02*
X72315203Y-57412390D01*
X72315203Y-57412390D02*
X71743775Y-57983819D01*
X71743775Y-57983819D02*
X72362822Y-57983819D01*
X81715805Y-58353819D02*
X81715805Y-57353819D01*
X81715805Y-57353819D02*
X81953900Y-57353819D01*
X81953900Y-57353819D02*
X82096757Y-57401438D01*
X82096757Y-57401438D02*
X82191995Y-57496676D01*
X82191995Y-57496676D02*
X82239614Y-57591914D01*
X82239614Y-57591914D02*
X82287233Y-57782390D01*
X82287233Y-57782390D02*
X82287233Y-57925247D01*
X82287233Y-57925247D02*
X82239614Y-58115723D01*
X82239614Y-58115723D02*
X82191995Y-58210961D01*
X82191995Y-58210961D02*
X82096757Y-58306200D01*
X82096757Y-58306200D02*
X81953900Y-58353819D01*
X81953900Y-58353819D02*
X81715805Y-58353819D01*
X82668186Y-57449057D02*
X82715805Y-57401438D01*
X82715805Y-57401438D02*
X82811043Y-57353819D01*
X82811043Y-57353819D02*
X83049138Y-57353819D01*
X83049138Y-57353819D02*
X83144376Y-57401438D01*
X83144376Y-57401438D02*
X83191995Y-57449057D01*
X83191995Y-57449057D02*
X83239614Y-57544295D01*
X83239614Y-57544295D02*
X83239614Y-57639533D01*
X83239614Y-57639533D02*
X83191995Y-57782390D01*
X83191995Y-57782390D02*
X82620567Y-58353819D01*
X82620567Y-58353819D02*
X83239614Y-58353819D01*
X84808719Y-60240904D02*
X83808719Y-60240904D01*
X84808719Y-59669476D02*
X84237290Y-60098047D01*
X83808719Y-59669476D02*
X84380147Y-60240904D01*
X112509674Y-59750479D02*
X112509674Y-60560002D01*
X112509674Y-60560002D02*
X112557293Y-60655240D01*
X112557293Y-60655240D02*
X112604912Y-60702860D01*
X112604912Y-60702860D02*
X112700150Y-60750479D01*
X112700150Y-60750479D02*
X112890626Y-60750479D01*
X112890626Y-60750479D02*
X112985864Y-60702860D01*
X112985864Y-60702860D02*
X113033483Y-60655240D01*
X113033483Y-60655240D02*
X113081102Y-60560002D01*
X113081102Y-60560002D02*
X113081102Y-59750479D01*
X113509674Y-59845717D02*
X113557293Y-59798098D01*
X113557293Y-59798098D02*
X113652531Y-59750479D01*
X113652531Y-59750479D02*
X113890626Y-59750479D01*
X113890626Y-59750479D02*
X113985864Y-59798098D01*
X113985864Y-59798098D02*
X114033483Y-59845717D01*
X114033483Y-59845717D02*
X114081102Y-59940955D01*
X114081102Y-59940955D02*
X114081102Y-60036193D01*
X114081102Y-60036193D02*
X114033483Y-60179050D01*
X114033483Y-60179050D02*
X113462055Y-60750479D01*
X113462055Y-60750479D02*
X114081102Y-60750479D01*
X56715805Y-82353819D02*
X56715805Y-81353819D01*
X56715805Y-81353819D02*
X56953900Y-81353819D01*
X56953900Y-81353819D02*
X57096757Y-81401438D01*
X57096757Y-81401438D02*
X57191995Y-81496676D01*
X57191995Y-81496676D02*
X57239614Y-81591914D01*
X57239614Y-81591914D02*
X57287233Y-81782390D01*
X57287233Y-81782390D02*
X57287233Y-81925247D01*
X57287233Y-81925247D02*
X57239614Y-82115723D01*
X57239614Y-82115723D02*
X57191995Y-82210961D01*
X57191995Y-82210961D02*
X57096757Y-82306200D01*
X57096757Y-82306200D02*
X56953900Y-82353819D01*
X56953900Y-82353819D02*
X56715805Y-82353819D01*
X57858662Y-81782390D02*
X57763424Y-81734771D01*
X57763424Y-81734771D02*
X57715805Y-81687152D01*
X57715805Y-81687152D02*
X57668186Y-81591914D01*
X57668186Y-81591914D02*
X57668186Y-81544295D01*
X57668186Y-81544295D02*
X57715805Y-81449057D01*
X57715805Y-81449057D02*
X57763424Y-81401438D01*
X57763424Y-81401438D02*
X57858662Y-81353819D01*
X57858662Y-81353819D02*
X58049138Y-81353819D01*
X58049138Y-81353819D02*
X58144376Y-81401438D01*
X58144376Y-81401438D02*
X58191995Y-81449057D01*
X58191995Y-81449057D02*
X58239614Y-81544295D01*
X58239614Y-81544295D02*
X58239614Y-81591914D01*
X58239614Y-81591914D02*
X58191995Y-81687152D01*
X58191995Y-81687152D02*
X58144376Y-81734771D01*
X58144376Y-81734771D02*
X58049138Y-81782390D01*
X58049138Y-81782390D02*
X57858662Y-81782390D01*
X57858662Y-81782390D02*
X57763424Y-81830009D01*
X57763424Y-81830009D02*
X57715805Y-81877628D01*
X57715805Y-81877628D02*
X57668186Y-81972866D01*
X57668186Y-81972866D02*
X57668186Y-82163342D01*
X57668186Y-82163342D02*
X57715805Y-82258580D01*
X57715805Y-82258580D02*
X57763424Y-82306200D01*
X57763424Y-82306200D02*
X57858662Y-82353819D01*
X57858662Y-82353819D02*
X58049138Y-82353819D01*
X58049138Y-82353819D02*
X58144376Y-82306200D01*
X58144376Y-82306200D02*
X58191995Y-82258580D01*
X58191995Y-82258580D02*
X58239614Y-82163342D01*
X58239614Y-82163342D02*
X58239614Y-81972866D01*
X58239614Y-81972866D02*
X58191995Y-81877628D01*
X58191995Y-81877628D02*
X58144376Y-81830009D01*
X58144376Y-81830009D02*
X58049138Y-81782390D01*
X133215805Y-70853819D02*
X133215805Y-69853819D01*
X133215805Y-69853819D02*
X133453900Y-69853819D01*
X133453900Y-69853819D02*
X133596757Y-69901438D01*
X133596757Y-69901438D02*
X133691995Y-69996676D01*
X133691995Y-69996676D02*
X133739614Y-70091914D01*
X133739614Y-70091914D02*
X133787233Y-70282390D01*
X133787233Y-70282390D02*
X133787233Y-70425247D01*
X133787233Y-70425247D02*
X133739614Y-70615723D01*
X133739614Y-70615723D02*
X133691995Y-70710961D01*
X133691995Y-70710961D02*
X133596757Y-70806200D01*
X133596757Y-70806200D02*
X133453900Y-70853819D01*
X133453900Y-70853819D02*
X133215805Y-70853819D01*
X134644376Y-70187152D02*
X134644376Y-70853819D01*
X134406281Y-69806200D02*
X134168186Y-70520485D01*
X134168186Y-70520485D02*
X134787233Y-70520485D01*
X119191995Y-70353819D02*
X119191995Y-69353819D01*
X119763423Y-70353819D02*
X119334852Y-69782390D01*
X119763423Y-69353819D02*
X119191995Y-69925247D01*
X134787233Y-77853819D02*
X134453900Y-77377628D01*
X134215805Y-77853819D02*
X134215805Y-76853819D01*
X134215805Y-76853819D02*
X134596757Y-76853819D01*
X134596757Y-76853819D02*
X134691995Y-76901438D01*
X134691995Y-76901438D02*
X134739614Y-76949057D01*
X134739614Y-76949057D02*
X134787233Y-77044295D01*
X134787233Y-77044295D02*
X134787233Y-77187152D01*
X134787233Y-77187152D02*
X134739614Y-77282390D01*
X134739614Y-77282390D02*
X134691995Y-77330009D01*
X134691995Y-77330009D02*
X134596757Y-77377628D01*
X134596757Y-77377628D02*
X134215805Y-77377628D01*
X135644376Y-76853819D02*
X135453900Y-76853819D01*
X135453900Y-76853819D02*
X135358662Y-76901438D01*
X135358662Y-76901438D02*
X135311043Y-76949057D01*
X135311043Y-76949057D02*
X135215805Y-77091914D01*
X135215805Y-77091914D02*
X135168186Y-77282390D01*
X135168186Y-77282390D02*
X135168186Y-77663342D01*
X135168186Y-77663342D02*
X135215805Y-77758580D01*
X135215805Y-77758580D02*
X135263424Y-77806200D01*
X135263424Y-77806200D02*
X135358662Y-77853819D01*
X135358662Y-77853819D02*
X135549138Y-77853819D01*
X135549138Y-77853819D02*
X135644376Y-77806200D01*
X135644376Y-77806200D02*
X135691995Y-77758580D01*
X135691995Y-77758580D02*
X135739614Y-77663342D01*
X135739614Y-77663342D02*
X135739614Y-77425247D01*
X135739614Y-77425247D02*
X135691995Y-77330009D01*
X135691995Y-77330009D02*
X135644376Y-77282390D01*
X135644376Y-77282390D02*
X135549138Y-77234771D01*
X135549138Y-77234771D02*
X135358662Y-77234771D01*
X135358662Y-77234771D02*
X135263424Y-77282390D01*
X135263424Y-77282390D02*
X135215805Y-77330009D01*
X135215805Y-77330009D02*
X135168186Y-77425247D01*
X78787233Y-63853819D02*
X78453900Y-63377628D01*
X78215805Y-63853819D02*
X78215805Y-62853819D01*
X78215805Y-62853819D02*
X78596757Y-62853819D01*
X78596757Y-62853819D02*
X78691995Y-62901438D01*
X78691995Y-62901438D02*
X78739614Y-62949057D01*
X78739614Y-62949057D02*
X78787233Y-63044295D01*
X78787233Y-63044295D02*
X78787233Y-63187152D01*
X78787233Y-63187152D02*
X78739614Y-63282390D01*
X78739614Y-63282390D02*
X78691995Y-63330009D01*
X78691995Y-63330009D02*
X78596757Y-63377628D01*
X78596757Y-63377628D02*
X78215805Y-63377628D01*
X79739614Y-63853819D02*
X79168186Y-63853819D01*
X79453900Y-63853819D02*
X79453900Y-62853819D01*
X79453900Y-62853819D02*
X79358662Y-62996676D01*
X79358662Y-62996676D02*
X79263424Y-63091914D01*
X79263424Y-63091914D02*
X79168186Y-63139533D01*
X134627215Y-85321057D02*
X134293882Y-84844866D01*
X134055787Y-85321057D02*
X134055787Y-84321057D01*
X134055787Y-84321057D02*
X134436739Y-84321057D01*
X134436739Y-84321057D02*
X134531977Y-84368676D01*
X134531977Y-84368676D02*
X134579596Y-84416295D01*
X134579596Y-84416295D02*
X134627215Y-84511533D01*
X134627215Y-84511533D02*
X134627215Y-84654390D01*
X134627215Y-84654390D02*
X134579596Y-84749628D01*
X134579596Y-84749628D02*
X134531977Y-84797247D01*
X134531977Y-84797247D02*
X134436739Y-84844866D01*
X134436739Y-84844866D02*
X134055787Y-84844866D01*
X134960549Y-84321057D02*
X135627215Y-84321057D01*
X135627215Y-84321057D02*
X135198644Y-85321057D01*
X117715805Y-66853819D02*
X117715805Y-65853819D01*
X117715805Y-65853819D02*
X117953900Y-65853819D01*
X117953900Y-65853819D02*
X118096757Y-65901438D01*
X118096757Y-65901438D02*
X118191995Y-65996676D01*
X118191995Y-65996676D02*
X118239614Y-66091914D01*
X118239614Y-66091914D02*
X118287233Y-66282390D01*
X118287233Y-66282390D02*
X118287233Y-66425247D01*
X118287233Y-66425247D02*
X118239614Y-66615723D01*
X118239614Y-66615723D02*
X118191995Y-66710961D01*
X118191995Y-66710961D02*
X118096757Y-66806200D01*
X118096757Y-66806200D02*
X117953900Y-66853819D01*
X117953900Y-66853819D02*
X117715805Y-66853819D01*
X119191995Y-65853819D02*
X118715805Y-65853819D01*
X118715805Y-65853819D02*
X118668186Y-66330009D01*
X118668186Y-66330009D02*
X118715805Y-66282390D01*
X118715805Y-66282390D02*
X118811043Y-66234771D01*
X118811043Y-66234771D02*
X119049138Y-66234771D01*
X119049138Y-66234771D02*
X119144376Y-66282390D01*
X119144376Y-66282390D02*
X119191995Y-66330009D01*
X119191995Y-66330009D02*
X119239614Y-66425247D01*
X119239614Y-66425247D02*
X119239614Y-66663342D01*
X119239614Y-66663342D02*
X119191995Y-66758580D01*
X119191995Y-66758580D02*
X119144376Y-66806200D01*
X119144376Y-66806200D02*
X119049138Y-66853819D01*
X119049138Y-66853819D02*
X118811043Y-66853819D01*
X118811043Y-66853819D02*
X118715805Y-66806200D01*
X118715805Y-66806200D02*
X118668186Y-66758580D01*
X132691995Y-66353819D02*
X132691995Y-65353819D01*
X133263423Y-66353819D02*
X132834852Y-65782390D01*
X133263423Y-65353819D02*
X132691995Y-65925247D01*
X62120566Y-59853819D02*
X62120566Y-60568104D01*
X62120566Y-60568104D02*
X62072947Y-60710961D01*
X62072947Y-60710961D02*
X61977709Y-60806200D01*
X61977709Y-60806200D02*
X61834852Y-60853819D01*
X61834852Y-60853819D02*
X61739614Y-60853819D01*
X63120566Y-60853819D02*
X62549138Y-60853819D01*
X62834852Y-60853819D02*
X62834852Y-59853819D01*
X62834852Y-59853819D02*
X62739614Y-59996676D01*
X62739614Y-59996676D02*
X62644376Y-60091914D01*
X62644376Y-60091914D02*
X62549138Y-60139533D01*
X78787233Y-67853819D02*
X78453900Y-67377628D01*
X78215805Y-67853819D02*
X78215805Y-66853819D01*
X78215805Y-66853819D02*
X78596757Y-66853819D01*
X78596757Y-66853819D02*
X78691995Y-66901438D01*
X78691995Y-66901438D02*
X78739614Y-66949057D01*
X78739614Y-66949057D02*
X78787233Y-67044295D01*
X78787233Y-67044295D02*
X78787233Y-67187152D01*
X78787233Y-67187152D02*
X78739614Y-67282390D01*
X78739614Y-67282390D02*
X78691995Y-67330009D01*
X78691995Y-67330009D02*
X78596757Y-67377628D01*
X78596757Y-67377628D02*
X78215805Y-67377628D01*
X79120567Y-66853819D02*
X79739614Y-66853819D01*
X79739614Y-66853819D02*
X79406281Y-67234771D01*
X79406281Y-67234771D02*
X79549138Y-67234771D01*
X79549138Y-67234771D02*
X79644376Y-67282390D01*
X79644376Y-67282390D02*
X79691995Y-67330009D01*
X79691995Y-67330009D02*
X79739614Y-67425247D01*
X79739614Y-67425247D02*
X79739614Y-67663342D01*
X79739614Y-67663342D02*
X79691995Y-67758580D01*
X79691995Y-67758580D02*
X79644376Y-67806200D01*
X79644376Y-67806200D02*
X79549138Y-67853819D01*
X79549138Y-67853819D02*
X79263424Y-67853819D01*
X79263424Y-67853819D02*
X79168186Y-67806200D01*
X79168186Y-67806200D02*
X79120567Y-67758580D01*
X112408719Y-89494238D02*
X111932528Y-89827571D01*
X112408719Y-90065666D02*
X111408719Y-90065666D01*
X111408719Y-90065666D02*
X111408719Y-89684714D01*
X111408719Y-89684714D02*
X111456338Y-89589476D01*
X111456338Y-89589476D02*
X111503957Y-89541857D01*
X111503957Y-89541857D02*
X111599195Y-89494238D01*
X111599195Y-89494238D02*
X111742052Y-89494238D01*
X111742052Y-89494238D02*
X111837290Y-89541857D01*
X111837290Y-89541857D02*
X111884909Y-89589476D01*
X111884909Y-89589476D02*
X111932528Y-89684714D01*
X111932528Y-89684714D02*
X111932528Y-90065666D01*
X111408719Y-89208523D02*
X112408719Y-88875190D01*
X112408719Y-88875190D02*
X111408719Y-88541857D01*
X112408719Y-87684714D02*
X112408719Y-88256142D01*
X112408719Y-87970428D02*
X111408719Y-87970428D01*
X111408719Y-87970428D02*
X111551576Y-88065666D01*
X111551576Y-88065666D02*
X111646814Y-88160904D01*
X111646814Y-88160904D02*
X111694433Y-88256142D01*
X86715805Y-58353819D02*
X86715805Y-57353819D01*
X86715805Y-57353819D02*
X86953900Y-57353819D01*
X86953900Y-57353819D02*
X87096757Y-57401438D01*
X87096757Y-57401438D02*
X87191995Y-57496676D01*
X87191995Y-57496676D02*
X87239614Y-57591914D01*
X87239614Y-57591914D02*
X87287233Y-57782390D01*
X87287233Y-57782390D02*
X87287233Y-57925247D01*
X87287233Y-57925247D02*
X87239614Y-58115723D01*
X87239614Y-58115723D02*
X87191995Y-58210961D01*
X87191995Y-58210961D02*
X87096757Y-58306200D01*
X87096757Y-58306200D02*
X86953900Y-58353819D01*
X86953900Y-58353819D02*
X86715805Y-58353819D01*
X87620567Y-57353819D02*
X88239614Y-57353819D01*
X88239614Y-57353819D02*
X87906281Y-57734771D01*
X87906281Y-57734771D02*
X88049138Y-57734771D01*
X88049138Y-57734771D02*
X88144376Y-57782390D01*
X88144376Y-57782390D02*
X88191995Y-57830009D01*
X88191995Y-57830009D02*
X88239614Y-57925247D01*
X88239614Y-57925247D02*
X88239614Y-58163342D01*
X88239614Y-58163342D02*
X88191995Y-58258580D01*
X88191995Y-58258580D02*
X88144376Y-58306200D01*
X88144376Y-58306200D02*
X88049138Y-58353819D01*
X88049138Y-58353819D02*
X87763424Y-58353819D01*
X87763424Y-58353819D02*
X87668186Y-58306200D01*
X87668186Y-58306200D02*
X87620567Y-58258580D01*
X86008719Y-70240904D02*
X85008719Y-70240904D01*
X86008719Y-69669476D02*
X85437290Y-70098047D01*
X85008719Y-69669476D02*
X85580147Y-70240904D01*
D13*
%TO.C,U3*%
X144033900Y-78779000D02*
X145413900Y-78779000D01*
X144033900Y-80159000D02*
X144033900Y-78779000D01*
X144033900Y-81429000D02*
X144033900Y-86619000D01*
X144033900Y-81429000D02*
X146683900Y-81429000D01*
X144033900Y-86619000D02*
X149333900Y-86619000D01*
X146683900Y-78779000D02*
X149333900Y-78779000D01*
X146683900Y-81429000D02*
X146683900Y-78779000D01*
X149333900Y-78779000D02*
X149333900Y-86619000D01*
%TO.C,C2*%
X84333900Y-75873000D02*
X84333900Y-75179000D01*
X84333900Y-78619000D02*
X84333900Y-77925000D01*
X89673900Y-75179000D02*
X84333900Y-75179000D01*
X89673900Y-75873000D02*
X89673900Y-75179000D01*
X89673900Y-78619000D02*
X84333900Y-78619000D01*
X89673900Y-78619000D02*
X89673900Y-77925000D01*
%TO.C,D6*%
X121534639Y-57737081D02*
X122754639Y-57737081D01*
X122754639Y-56267081D02*
X122754639Y-59207081D01*
X122754639Y-59207081D02*
X128194639Y-59207081D01*
X123534639Y-56267081D02*
X123534639Y-59207081D01*
X123654639Y-56267081D02*
X123654639Y-59207081D01*
X123774639Y-56267081D02*
X123774639Y-59207081D01*
X128194639Y-56267081D02*
X122754639Y-56267081D01*
X128194639Y-59207081D02*
X128194639Y-56267081D01*
X129414639Y-57737081D02*
X128194639Y-57737081D01*
%TO.C,U1*%
X66123900Y-78839000D02*
X66123900Y-80089000D01*
X66123900Y-82089000D02*
X66123900Y-83339000D01*
X66123900Y-83339000D02*
X76403900Y-83339000D01*
X76403900Y-78839000D02*
X66123900Y-78839000D01*
X76403900Y-83339000D02*
X76403900Y-78839000D01*
X66063900Y-86339000D02*
X76463900Y-86339000D01*
X76463900Y-75839000D01*
X66063900Y-75839000D01*
X66063900Y-86339000D01*
X66123900Y-80089000D02*
G75*
G02*
X66123900Y-82089000I0J-1000000D01*
G01*
%TO.C,D7*%
X121681552Y-61617072D02*
X122901552Y-61617072D01*
X122901552Y-60147072D02*
X122901552Y-63087072D01*
X122901552Y-63087072D02*
X128341552Y-63087072D01*
X127321552Y-63087072D02*
X127321552Y-60147072D01*
X127441552Y-63087072D02*
X127441552Y-60147072D01*
X127561552Y-63087072D02*
X127561552Y-60147072D01*
X128341552Y-60147072D02*
X122901552Y-60147072D01*
X128341552Y-63087072D02*
X128341552Y-60147072D01*
X129561552Y-61617072D02*
X128341552Y-61617072D01*
%TO.C,R5*%
X123493900Y-80399000D02*
X124263900Y-80399000D01*
X124263900Y-79029000D02*
X124263900Y-81769000D01*
X124263900Y-81769000D02*
X130803900Y-81769000D01*
X130803900Y-79029000D02*
X124263900Y-79029000D01*
X130803900Y-81769000D02*
X130803900Y-79029000D01*
X131573900Y-80399000D02*
X130803900Y-80399000D01*
%TO.C,D1*%
X134623900Y-57663000D02*
X134623900Y-57819000D01*
X134623900Y-59979000D02*
X134623900Y-60135000D01*
X134623900Y-57663484D02*
G75*
G02*
X137855297Y-57818939I1560000J-1235516D01*
G01*
X135142939Y-57819000D02*
G75*
G02*
X137224810Y-57818951I1040961J-1080000D01*
G01*
X137224810Y-59979049D02*
G75*
G02*
X135142939Y-59979000I-1040910J1080049D01*
G01*
X137855297Y-59979061D02*
G75*
G02*
X134623900Y-60134516I-1671397J1080061D01*
G01*
%TO.C,C1*%
X83583900Y-80662326D02*
X83583900Y-83402326D01*
X83583900Y-80662326D02*
X88823900Y-80662326D01*
X83583900Y-83402326D02*
X88823900Y-83402326D01*
X88823900Y-80662326D02*
X88823900Y-83402326D01*
%TO.C,M1*%
X141519567Y-60931775D02*
X149559567Y-60931775D01*
X141519567Y-71671775D02*
X141519567Y-60931775D01*
X141519567Y-71671775D02*
X149559567Y-71671775D01*
X145139567Y-61739775D02*
X145139567Y-60931775D01*
X145139567Y-66671775D02*
X145139567Y-65363775D01*
X145139567Y-71671775D02*
X145139567Y-70431775D01*
X146139567Y-61739775D02*
X146139567Y-60931775D01*
X146139567Y-66671775D02*
X146139567Y-65363775D01*
X146139567Y-71671775D02*
X146139567Y-70431775D01*
X147439567Y-63008775D02*
X147439567Y-60931775D01*
X147439567Y-66671775D02*
X147439567Y-64094775D01*
X147439567Y-71671775D02*
X147439567Y-70431775D01*
X149559567Y-68251775D02*
X149559567Y-60931775D01*
X149559567Y-71671775D02*
X149559567Y-68851775D01*
X150169567Y-68991775D02*
X149559567Y-68551775D01*
X150169567Y-68111775D01*
X150169567Y-68991775D01*
G36*
X150169567Y-68991775D02*
G01*
X149559567Y-68551775D01*
X150169567Y-68111775D01*
X150169567Y-68991775D01*
G37*
%TO.C,R4*%
X67537108Y-71666498D02*
X68307108Y-71666498D01*
X68307108Y-70296498D02*
X68307108Y-73036498D01*
X68307108Y-73036498D02*
X74847108Y-73036498D01*
X74847108Y-70296498D02*
X68307108Y-70296498D01*
X74847108Y-73036498D02*
X74847108Y-70296498D01*
X75617108Y-71666498D02*
X74847108Y-71666498D01*
%TO.C,R2*%
X67537108Y-59899000D02*
X68307108Y-59899000D01*
X68307108Y-58529000D02*
X68307108Y-61269000D01*
X68307108Y-61269000D02*
X74847108Y-61269000D01*
X74847108Y-58529000D02*
X68307108Y-58529000D01*
X74847108Y-61269000D02*
X74847108Y-58529000D01*
X75617108Y-59899000D02*
X74847108Y-59899000D01*
%TO.C,D2*%
X80983900Y-62339000D02*
X80983900Y-67779000D01*
X80983900Y-67779000D02*
X83923900Y-67779000D01*
X82453900Y-61119000D02*
X82453900Y-62339000D01*
X82453900Y-68999000D02*
X82453900Y-67779000D01*
X83923900Y-62339000D02*
X80983900Y-62339000D01*
X83923900Y-63119000D02*
X80983900Y-63119000D01*
X83923900Y-63239000D02*
X80983900Y-63239000D01*
X83923900Y-63359000D02*
X80983900Y-63359000D01*
X83923900Y-67779000D02*
X83923900Y-62339000D01*
%TO.C,U2*%
X91831579Y-57645660D02*
X91831579Y-62945660D01*
X91831579Y-62945660D02*
X112271579Y-62945660D01*
X112271579Y-57645660D02*
X91831579Y-57645660D01*
X112271579Y-59295660D02*
X112271579Y-57645660D01*
X112271579Y-62945660D02*
X112271579Y-61295660D01*
X112271579Y-61295660D02*
G75*
G02*
X112271579Y-59295660I0J1000000D01*
G01*
%TO.C,D8*%
X55789245Y-86719000D02*
X55789245Y-92159000D01*
X55789245Y-91139000D02*
X58729245Y-91139000D01*
X55789245Y-91259000D02*
X58729245Y-91259000D01*
X55789245Y-91379000D02*
X58729245Y-91379000D01*
X55789245Y-92159000D02*
X58729245Y-92159000D01*
X57259245Y-85499000D02*
X57259245Y-86719000D01*
X57259245Y-93379000D02*
X57259245Y-92159000D01*
X58729245Y-86719000D02*
X55789245Y-86719000D01*
X58729245Y-92159000D02*
X58729245Y-86719000D01*
%TO.C,D4*%
X122298586Y-69666418D02*
X123518586Y-69666418D01*
X123518586Y-68196418D02*
X123518586Y-71136418D01*
X123518586Y-71136418D02*
X128958586Y-71136418D01*
X124298586Y-68196418D02*
X124298586Y-71136418D01*
X124418586Y-68196418D02*
X124418586Y-71136418D01*
X124538586Y-68196418D02*
X124538586Y-71136418D01*
X128958586Y-68196418D02*
X123518586Y-68196418D01*
X128958586Y-71136418D02*
X128958586Y-68196418D01*
X130178586Y-69666418D02*
X128958586Y-69666418D01*
%TO.C,R6*%
X123493900Y-76659568D02*
X124263900Y-76659568D01*
X124263900Y-75289568D02*
X124263900Y-78029568D01*
X124263900Y-78029568D02*
X130803900Y-78029568D01*
X130803900Y-75289568D02*
X124263900Y-75289568D01*
X130803900Y-78029568D02*
X130803900Y-75289568D01*
X131573900Y-76659568D02*
X130803900Y-76659568D01*
%TO.C,R1*%
X67537108Y-64070328D02*
X68307108Y-64070328D01*
X68307108Y-62700328D02*
X68307108Y-65440328D01*
X68307108Y-65440328D02*
X74847108Y-65440328D01*
X74847108Y-62700328D02*
X68307108Y-62700328D01*
X74847108Y-65440328D02*
X74847108Y-62700328D01*
X75617108Y-64070328D02*
X74847108Y-64070328D01*
%TO.C,R7*%
X123493900Y-83899000D02*
X124263900Y-83899000D01*
X124263900Y-82529000D02*
X124263900Y-85269000D01*
X124263900Y-85269000D02*
X130803900Y-85269000D01*
X130803900Y-82529000D02*
X124263900Y-82529000D01*
X130803900Y-85269000D02*
X130803900Y-82529000D01*
X131573900Y-83899000D02*
X130803900Y-83899000D01*
%TO.C,D5*%
X122158053Y-65670384D02*
X123378053Y-65670384D01*
X123378053Y-64200384D02*
X123378053Y-67140384D01*
X123378053Y-67140384D02*
X128818053Y-67140384D01*
X127798053Y-67140384D02*
X127798053Y-64200384D01*
X127918053Y-67140384D02*
X127918053Y-64200384D01*
X128038053Y-67140384D02*
X128038053Y-64200384D01*
X128818053Y-64200384D02*
X123378053Y-64200384D01*
X128818053Y-67140384D02*
X128818053Y-64200384D01*
X130038053Y-65670384D02*
X128818053Y-65670384D01*
%TO.C,J1*%
X55412944Y-61573835D02*
X55412944Y-64393835D01*
X55412944Y-64993835D02*
X55412944Y-72313835D01*
X57532944Y-61573835D02*
X57532944Y-62813835D01*
X57532944Y-66573835D02*
X57532944Y-69150835D01*
X57532944Y-70236835D02*
X57532944Y-72313835D01*
X58832944Y-61573835D02*
X58832944Y-62813835D01*
X58832944Y-66573835D02*
X58832944Y-67881835D01*
X58832944Y-71505835D02*
X58832944Y-72313835D01*
X59832944Y-61573835D02*
X59832944Y-62813835D01*
X59832944Y-66573835D02*
X59832944Y-67881835D01*
X59832944Y-71505835D02*
X59832944Y-72313835D01*
X63452944Y-61573835D02*
X55412944Y-61573835D01*
X63452944Y-61573835D02*
X63452944Y-72313835D01*
X63452944Y-72313835D02*
X55412944Y-72313835D01*
X55412944Y-64693835D02*
X54802944Y-65133835D01*
X54802944Y-64253835D01*
X55412944Y-64693835D01*
G36*
X55412944Y-64693835D02*
G01*
X54802944Y-65133835D01*
X54802944Y-64253835D01*
X55412944Y-64693835D01*
G37*
%TO.C,R3*%
X67537108Y-67666498D02*
X68307108Y-67666498D01*
X68307108Y-66296498D02*
X68307108Y-69036498D01*
X68307108Y-69036498D02*
X74847108Y-69036498D01*
X74847108Y-66296498D02*
X68307108Y-66296498D01*
X74847108Y-69036498D02*
X74847108Y-66296498D01*
X75617108Y-67666498D02*
X74847108Y-67666498D01*
%TO.C,RV1*%
X93514328Y-88480214D02*
X93514328Y-77570214D01*
X110634328Y-77570214D02*
X93514328Y-77570214D01*
X110634328Y-88480214D02*
X110634328Y-77570214D01*
X110634328Y-88480214D02*
G75*
G02*
X93514328Y-88480214I-8560000J0D01*
G01*
X93514328Y-88480214D02*
G75*
G02*
X110634328Y-88480214I8560000J0D01*
G01*
%TO.C,D3*%
X85983900Y-62179000D02*
X85983900Y-67619000D01*
X85983900Y-66599000D02*
X88923900Y-66599000D01*
X85983900Y-66719000D02*
X88923900Y-66719000D01*
X85983900Y-66839000D02*
X88923900Y-66839000D01*
X85983900Y-67619000D02*
X88923900Y-67619000D01*
X87453900Y-60959000D02*
X87453900Y-62179000D01*
X87453900Y-68839000D02*
X87453900Y-67619000D01*
X88923900Y-62179000D02*
X85983900Y-62179000D01*
X88923900Y-67619000D02*
X88923900Y-62179000D01*
%TD*%
M02*
