M48
; DRILL file {KiCad 9.0.2} date 2025-06-20T15:59:33-0400
; FORMAT={-:-/ absolute / metric / decimal}
; #@! TF.CreationDate,2025-06-20T15:59:33-04:00
; #@! TF.GenerationSoftware,Kicad,Pcbnew,9.0.2
; #@! TF.FileFunction,Plated,1,2,PTH
FMAT,2
METRIC
; #@! TA.AperFunction,Plated,PTH,ViaDrill
T1C0.600
; #@! TA.AperFunction,Plated,PTH,ComponentDrill
T2C0.650
; #@! TA.AperFunction,Plated,PTH,ComponentDrill
T3C0.700
; #@! TA.AperFunction,Plated,PTH,ComponentDrill
T4C0.800
; #@! TA.AperFunction,Plated,PTH,ComponentDrill
T5C0.900
; #@! TA.AperFunction,Plated,PTH,ComponentDrill
T6C1.100
; #@! TA.AperFunction,Plated,PTH,ComponentDrill
T7C1.300
%
G90
G05
T1
X120.0Y-56.0
X121.5Y-65.0
T2
X101.015Y-75.082
X102.915Y-75.082
T3
X129.25Y-43.75
X129.25Y-46.29
X129.25Y-48.83
T4
X100.765Y-65.082
X101.265Y-36.832
X101.265Y-46.992
X102.265Y-52.502
X102.265Y-55.042
X102.265Y-57.582
X103.265Y-65.082
X105.5Y-37.0
X105.5Y-47.16
X109.515Y-64.752
X109.515Y-74.912
X110.015Y-50.832
X110.015Y-53.372
X110.015Y-55.912
X110.015Y-58.452
X113.685Y-43.082
X116.265Y-67.582
X117.635Y-50.832
X117.635Y-53.372
X117.635Y-55.912
X117.635Y-58.452
X118.765Y-67.582
X123.845Y-43.082
X124.765Y-48.752
X124.765Y-58.912
X124.765Y-64.582
X124.765Y-69.582
T5
X118.765Y-33.567
X118.765Y-36.107
T6
X129.25Y-53.42
X129.25Y-63.58
T7
X127.5Y-32.5
X127.5Y-37.5
M30
