%TF.GenerationSoftware,KiCad,Pcbnew,9.0.2*%
%TF.CreationDate,2025-06-20T15:59:31-04:00*%
%TF.ProjectId,proj02-g05,70726f6a-3032-42d6-9730-352e6b696361,rev?*%
%TF.SameCoordinates,Original*%
%TF.FileFunction,Legend,Bot*%
%TF.FilePolarity,Positive*%
%FSLAX46Y46*%
G04 Gerber Fmt 4.6, Leading zero omitted, Abs format (unit mm)*
G04 Created by KiCad (PCBNEW 9.0.2) date 2025-06-20 15:59:31*
%MOMM*%
%LPD*%
G01*
G04 APERTURE LIST*
%ADD10C,0.000000*%
%ADD11C,0.100000*%
G04 APERTURE END LIST*
D10*
G36*
X107465425Y-72579022D02*
G01*
X107532343Y-72587782D01*
X107597705Y-72601005D01*
X107661068Y-72618708D01*
X107721991Y-72640903D01*
X107780030Y-72667606D01*
X107834743Y-72698832D01*
X107885686Y-72734594D01*
X107932418Y-72774907D01*
X107974496Y-72819786D01*
X108011477Y-72869246D01*
X108042919Y-72923300D01*
X108068378Y-72981963D01*
X108087412Y-73045251D01*
X108099579Y-73113177D01*
X108104436Y-73185755D01*
X108101540Y-73263002D01*
X108090449Y-73344930D01*
X108086512Y-73363363D01*
X108081516Y-73381338D01*
X108075506Y-73398859D01*
X108068525Y-73415927D01*
X108060616Y-73432544D01*
X108051825Y-73448715D01*
X108042193Y-73464440D01*
X108031766Y-73479724D01*
X108020587Y-73494568D01*
X108008700Y-73508975D01*
X107982975Y-73536489D01*
X107954943Y-73562287D01*
X107924953Y-73586389D01*
X107893355Y-73608818D01*
X107860501Y-73629592D01*
X107826739Y-73648735D01*
X107792421Y-73666266D01*
X107757896Y-73682206D01*
X107723515Y-73696576D01*
X107689628Y-73709398D01*
X107656585Y-73720692D01*
X107633563Y-73727616D01*
X107608219Y-73734312D01*
X107551434Y-73747231D01*
X107419562Y-73772632D01*
X107274875Y-73800221D01*
X107202073Y-73815875D01*
X107131282Y-73833324D01*
X107113586Y-73838430D01*
X107096157Y-73844225D01*
X107079034Y-73850687D01*
X107062258Y-73857796D01*
X107045872Y-73865533D01*
X107029916Y-73873875D01*
X107014431Y-73882804D01*
X106999458Y-73892297D01*
X106985038Y-73902336D01*
X106971212Y-73912899D01*
X106958022Y-73923966D01*
X106945508Y-73935516D01*
X106933712Y-73947529D01*
X106922675Y-73959985D01*
X106912437Y-73972862D01*
X106903039Y-73986141D01*
X106894524Y-73999801D01*
X106886931Y-74013821D01*
X106880303Y-74028181D01*
X106874679Y-74042860D01*
X106870102Y-74057839D01*
X106866611Y-74073096D01*
X106864249Y-74088610D01*
X106863057Y-74104363D01*
X106863074Y-74120332D01*
X106864343Y-74136498D01*
X106866905Y-74152839D01*
X106870800Y-74169336D01*
X106876070Y-74185969D01*
X106882756Y-74202715D01*
X106890898Y-74219556D01*
X106900539Y-74236470D01*
X106916081Y-74258546D01*
X106934196Y-74278554D01*
X106954712Y-74296544D01*
X106977455Y-74312570D01*
X107002253Y-74326683D01*
X107028933Y-74338934D01*
X107057322Y-74349377D01*
X107087247Y-74358063D01*
X107118536Y-74365044D01*
X107151015Y-74370372D01*
X107184512Y-74374098D01*
X107218855Y-74376276D01*
X107289384Y-74376192D01*
X107361220Y-74370535D01*
X107432981Y-74359721D01*
X107503285Y-74344167D01*
X107570748Y-74324286D01*
X107633989Y-74300497D01*
X107691625Y-74273213D01*
X107717909Y-74258391D01*
X107742274Y-74242852D01*
X107764546Y-74226647D01*
X107784554Y-74209828D01*
X107802123Y-74192448D01*
X107817082Y-74174558D01*
X107833092Y-74152484D01*
X107848235Y-74130307D01*
X107862468Y-74107924D01*
X107869230Y-74096623D01*
X107875749Y-74085231D01*
X107882020Y-74073736D01*
X107888037Y-74062125D01*
X107893796Y-74050385D01*
X107899290Y-74038503D01*
X107904515Y-74026465D01*
X107909466Y-74014261D01*
X107914137Y-74001875D01*
X107918522Y-73989296D01*
X107918763Y-73989294D01*
X108244994Y-74156459D01*
X108232712Y-74183587D01*
X108217104Y-74214411D01*
X108194958Y-74254001D01*
X108181380Y-74276440D01*
X108166103Y-74300299D01*
X108149107Y-74325321D01*
X108130370Y-74351249D01*
X108109871Y-74377825D01*
X108087588Y-74404794D01*
X108063500Y-74431897D01*
X108037587Y-74458877D01*
X107995311Y-74497497D01*
X107949004Y-74533099D01*
X107899032Y-74565645D01*
X107845761Y-74595100D01*
X107789556Y-74621427D01*
X107730783Y-74644589D01*
X107669809Y-74664549D01*
X107606998Y-74681272D01*
X107542716Y-74694720D01*
X107477330Y-74704856D01*
X107411204Y-74711645D01*
X107344705Y-74715048D01*
X107278198Y-74715031D01*
X107212050Y-74711556D01*
X107146625Y-74704587D01*
X107082289Y-74694086D01*
X107019409Y-74680018D01*
X106958350Y-74662345D01*
X106899478Y-74641032D01*
X106843158Y-74616041D01*
X106789756Y-74587335D01*
X106739639Y-74554879D01*
X106693171Y-74518636D01*
X106650718Y-74478568D01*
X106612646Y-74434640D01*
X106579321Y-74386814D01*
X106551109Y-74335055D01*
X106528375Y-74279325D01*
X106511486Y-74219587D01*
X106500806Y-74155806D01*
X106496701Y-74087945D01*
X106499538Y-74015966D01*
X106505827Y-73966607D01*
X106515733Y-73920717D01*
X106529073Y-73878142D01*
X106545665Y-73838727D01*
X106565324Y-73802316D01*
X106587870Y-73768757D01*
X106613119Y-73737894D01*
X106640888Y-73709573D01*
X106670995Y-73683639D01*
X106703257Y-73659938D01*
X106737491Y-73638316D01*
X106773515Y-73618617D01*
X106850202Y-73584372D01*
X106931854Y-73555967D01*
X107017012Y-73532167D01*
X107104213Y-73511735D01*
X107278899Y-73476031D01*
X107363461Y-73458287D01*
X107444220Y-73438966D01*
X107519715Y-73416832D01*
X107588484Y-73390649D01*
X107613081Y-73378761D01*
X107635507Y-73365792D01*
X107655800Y-73351830D01*
X107673998Y-73336964D01*
X107690138Y-73321282D01*
X107704260Y-73304872D01*
X107716399Y-73287823D01*
X107726595Y-73270222D01*
X107734885Y-73252159D01*
X107741307Y-73233721D01*
X107745898Y-73214996D01*
X107748697Y-73196074D01*
X107749742Y-73177042D01*
X107749070Y-73157988D01*
X107746719Y-73139002D01*
X107742727Y-73120170D01*
X107737132Y-73101582D01*
X107729972Y-73083326D01*
X107721284Y-73065490D01*
X107711107Y-73048162D01*
X107699478Y-73031431D01*
X107686435Y-73015385D01*
X107672015Y-73000112D01*
X107656258Y-72985700D01*
X107639200Y-72972239D01*
X107620880Y-72959815D01*
X107601335Y-72948518D01*
X107580603Y-72938435D01*
X107558723Y-72929656D01*
X107535731Y-72922268D01*
X107511665Y-72916359D01*
X107486565Y-72912019D01*
X107454989Y-72908131D01*
X107424233Y-72905262D01*
X107394278Y-72903411D01*
X107365109Y-72902577D01*
X107336707Y-72902760D01*
X107309058Y-72903958D01*
X107282142Y-72906170D01*
X107255945Y-72909396D01*
X107230448Y-72913634D01*
X107205635Y-72918885D01*
X107181489Y-72925146D01*
X107157993Y-72932416D01*
X107135130Y-72940696D01*
X107112884Y-72949984D01*
X107091237Y-72960279D01*
X107070173Y-72971580D01*
X107049675Y-72983886D01*
X107029726Y-72997197D01*
X107010309Y-73011511D01*
X106991407Y-73026828D01*
X106973003Y-73043147D01*
X106955080Y-73060466D01*
X106937622Y-73078785D01*
X106920612Y-73098102D01*
X106904033Y-73118418D01*
X106887867Y-73139731D01*
X106872099Y-73162040D01*
X106856710Y-73185344D01*
X106827007Y-73234934D01*
X106798621Y-73288494D01*
X106505252Y-73127284D01*
X106508935Y-73115805D01*
X106513816Y-73102156D01*
X106520967Y-73083855D01*
X106530575Y-73061369D01*
X106542822Y-73035162D01*
X106557894Y-73005702D01*
X106566546Y-72989898D01*
X106575974Y-72973454D01*
X106613110Y-72916994D01*
X106655330Y-72864780D01*
X106702191Y-72816827D01*
X106753250Y-72773149D01*
X106808066Y-72733761D01*
X106866196Y-72698678D01*
X106927196Y-72667914D01*
X106990624Y-72641483D01*
X107056037Y-72619400D01*
X107122994Y-72601679D01*
X107191050Y-72588336D01*
X107259764Y-72579384D01*
X107328693Y-72574838D01*
X107397394Y-72574713D01*
X107465425Y-72579022D01*
G37*
G36*
X106785352Y-75220061D02*
G01*
X106785285Y-75219926D01*
X106785523Y-75219926D01*
X106785352Y-75220061D01*
G37*
G36*
X104952438Y-68600051D02*
G01*
X104500000Y-68600051D01*
X104500000Y-68123801D01*
X104952438Y-68123801D01*
X104952438Y-68600051D01*
G37*
G36*
X119673087Y-77674757D02*
G01*
X119674285Y-77732143D01*
X119678129Y-77792675D01*
X119684993Y-77855408D01*
X119695251Y-77919397D01*
X119709278Y-77983697D01*
X119727448Y-78047363D01*
X119750135Y-78109451D01*
X119777713Y-78169015D01*
X119793453Y-78197555D01*
X119810557Y-78225110D01*
X119829071Y-78251562D01*
X119849041Y-78276792D01*
X119870515Y-78300683D01*
X119893540Y-78323115D01*
X119918161Y-78343972D01*
X119944426Y-78363135D01*
X119972383Y-78380486D01*
X120002076Y-78395907D01*
X120033554Y-78409279D01*
X120066863Y-78420485D01*
X120102050Y-78429406D01*
X120139162Y-78435925D01*
X120178244Y-78439922D01*
X120219346Y-78441281D01*
X120255488Y-78440181D01*
X120289399Y-78436939D01*
X120321150Y-78431642D01*
X120350812Y-78424379D01*
X120378456Y-78415236D01*
X120404153Y-78404301D01*
X120427975Y-78391663D01*
X120449992Y-78377408D01*
X120470275Y-78361624D01*
X120488896Y-78344399D01*
X120505925Y-78325821D01*
X120521434Y-78305976D01*
X120535493Y-78284953D01*
X120548175Y-78262839D01*
X120559549Y-78239721D01*
X120569687Y-78215688D01*
X120578660Y-78190827D01*
X120586539Y-78165225D01*
X120593395Y-78138971D01*
X120599299Y-78112151D01*
X120604322Y-78084853D01*
X120608536Y-78057166D01*
X120614819Y-78000970D01*
X120618716Y-77944266D01*
X120620795Y-77887753D01*
X120621776Y-77778104D01*
X120621776Y-76545093D01*
X121241854Y-76545093D01*
X121241854Y-78001942D01*
X121238962Y-78097856D01*
X121230212Y-78190238D01*
X121215496Y-78278723D01*
X121194705Y-78362943D01*
X121181998Y-78403339D01*
X121167731Y-78442532D01*
X121151890Y-78480476D01*
X121134463Y-78517124D01*
X121115436Y-78552432D01*
X121094795Y-78586352D01*
X121072526Y-78618840D01*
X121048616Y-78649850D01*
X121023051Y-78679335D01*
X120995817Y-78707250D01*
X120966902Y-78733548D01*
X120936291Y-78758186D01*
X120903971Y-78781115D01*
X120869928Y-78802291D01*
X120834149Y-78821668D01*
X120796620Y-78839199D01*
X120757327Y-78854840D01*
X120716257Y-78868544D01*
X120673396Y-78880266D01*
X120628731Y-78889959D01*
X120582247Y-78897577D01*
X120533932Y-78903076D01*
X120483772Y-78906409D01*
X120431753Y-78907530D01*
X120371687Y-78905865D01*
X120312955Y-78900933D01*
X120255591Y-78892825D01*
X120199629Y-78881634D01*
X120145103Y-78867451D01*
X120092047Y-78850369D01*
X120040493Y-78830480D01*
X119990477Y-78807875D01*
X119942033Y-78782647D01*
X119895193Y-78754888D01*
X119849991Y-78724691D01*
X119806463Y-78692146D01*
X119764640Y-78657347D01*
X119724558Y-78620385D01*
X119686250Y-78581353D01*
X119649750Y-78540342D01*
X119640226Y-78540342D01*
X119640226Y-78853952D01*
X119052295Y-78853952D01*
X119052295Y-76545092D01*
X119052533Y-76545092D01*
X119673087Y-76545092D01*
X119673087Y-77674757D01*
G37*
G36*
X107559312Y-75191415D02*
G01*
X107585178Y-75192754D01*
X107610885Y-75195137D01*
X107636382Y-75198566D01*
X107661616Y-75203044D01*
X107686536Y-75208572D01*
X107711090Y-75215151D01*
X107735226Y-75222784D01*
X107758892Y-75231471D01*
X107782035Y-75241214D01*
X107804604Y-75252016D01*
X107826547Y-75263878D01*
X107847812Y-75276801D01*
X107868347Y-75290787D01*
X107888100Y-75305838D01*
X107907018Y-75321955D01*
X107925051Y-75339140D01*
X107942146Y-75357395D01*
X107958251Y-75376722D01*
X107973314Y-75397121D01*
X107987283Y-75418595D01*
X108000106Y-75441146D01*
X108011731Y-75464775D01*
X108022107Y-75489483D01*
X107773504Y-75673316D01*
X107738500Y-75661647D01*
X107723586Y-75635621D01*
X107708534Y-75612638D01*
X107693350Y-75592567D01*
X107678036Y-75575274D01*
X107662595Y-75560627D01*
X107647031Y-75548491D01*
X107631347Y-75538735D01*
X107615546Y-75531226D01*
X107599631Y-75525830D01*
X107583605Y-75522414D01*
X107567472Y-75520846D01*
X107551236Y-75520993D01*
X107534898Y-75522721D01*
X107518463Y-75525898D01*
X107501934Y-75530391D01*
X107485313Y-75536067D01*
X107468605Y-75542792D01*
X107451812Y-75550435D01*
X107417984Y-75567939D01*
X107349455Y-75608103D01*
X107314806Y-75628635D01*
X107279933Y-75648049D01*
X107244864Y-75665281D01*
X107227264Y-75672747D01*
X107209624Y-75679269D01*
X107182781Y-75687873D01*
X107156148Y-75695426D01*
X107129734Y-75701930D01*
X107103550Y-75707388D01*
X107077604Y-75711801D01*
X107051906Y-75715171D01*
X107026465Y-75717502D01*
X107001291Y-75718794D01*
X106976392Y-75719051D01*
X106951779Y-75718275D01*
X106927460Y-75716467D01*
X106903446Y-75713630D01*
X106879745Y-75709767D01*
X106856366Y-75704879D01*
X106833320Y-75698969D01*
X106810616Y-75692039D01*
X106788262Y-75684090D01*
X106766269Y-75675127D01*
X106744645Y-75665150D01*
X106723400Y-75654161D01*
X106702544Y-75642164D01*
X106682086Y-75629160D01*
X106662034Y-75615152D01*
X106642399Y-75600141D01*
X106623191Y-75584130D01*
X106604417Y-75567121D01*
X106586088Y-75549117D01*
X106568213Y-75530120D01*
X106550802Y-75510131D01*
X106533863Y-75489153D01*
X106517406Y-75467189D01*
X106501441Y-75444240D01*
X106785352Y-75220061D01*
X106800766Y-75251036D01*
X106816353Y-75278613D01*
X106832048Y-75302809D01*
X106847847Y-75323780D01*
X106863750Y-75341678D01*
X106879756Y-75356658D01*
X106895864Y-75368875D01*
X106912072Y-75378480D01*
X106928379Y-75385630D01*
X106944783Y-75390477D01*
X106961285Y-75393176D01*
X106977882Y-75393879D01*
X106994573Y-75392743D01*
X107011357Y-75389919D01*
X107028232Y-75385563D01*
X107045198Y-75379827D01*
X107062254Y-75372867D01*
X107079398Y-75364835D01*
X107113944Y-75346174D01*
X107148828Y-75325076D01*
X107184040Y-75302771D01*
X107219570Y-75280492D01*
X107255409Y-75259469D01*
X107291546Y-75240933D01*
X107309723Y-75232983D01*
X107327972Y-75226117D01*
X107352924Y-75218126D01*
X107378185Y-75211165D01*
X107403704Y-75205236D01*
X107429428Y-75200339D01*
X107455306Y-75196478D01*
X107481285Y-75193653D01*
X107507314Y-75191867D01*
X107533340Y-75191120D01*
X107559312Y-75191415D01*
G37*
G36*
X112430514Y-73304448D02*
G01*
X109500149Y-73304448D01*
X109500149Y-73052035D01*
X112430514Y-73052035D01*
X112430514Y-73304448D01*
G37*
G36*
X105664633Y-77222451D02*
G01*
X105660383Y-77322212D01*
X105648632Y-77421098D01*
X105629330Y-77518326D01*
X105602426Y-77613110D01*
X105567871Y-77704664D01*
X105525614Y-77792204D01*
X105475605Y-77874943D01*
X105417794Y-77952097D01*
X105352130Y-78022879D01*
X105278563Y-78086506D01*
X105197043Y-78142190D01*
X105107521Y-78189148D01*
X105009944Y-78226593D01*
X104904264Y-78253741D01*
X104790430Y-78269806D01*
X104668392Y-78274002D01*
X104538099Y-78265544D01*
X104433193Y-78247595D01*
X104335356Y-78218569D01*
X104244623Y-78179264D01*
X104161029Y-78130478D01*
X104084610Y-78073009D01*
X104015402Y-78007656D01*
X103953439Y-77935215D01*
X103898756Y-77856486D01*
X103851390Y-77772266D01*
X103811375Y-77683354D01*
X103778746Y-77590546D01*
X103753540Y-77494643D01*
X103735791Y-77396440D01*
X103725535Y-77296738D01*
X103723820Y-77233645D01*
X104087455Y-77233645D01*
X104088101Y-77282468D01*
X104090835Y-77330457D01*
X104095682Y-77377497D01*
X104102663Y-77423473D01*
X104111802Y-77468270D01*
X104123123Y-77511772D01*
X104136647Y-77553865D01*
X104152399Y-77594432D01*
X104170401Y-77633358D01*
X104190677Y-77670529D01*
X104213249Y-77705829D01*
X104238141Y-77739142D01*
X104265375Y-77770354D01*
X104294976Y-77799349D01*
X104326966Y-77826012D01*
X104361368Y-77850227D01*
X104398205Y-77871880D01*
X104437500Y-77890854D01*
X104479277Y-77907036D01*
X104523559Y-77920308D01*
X104570368Y-77930557D01*
X104619728Y-77937666D01*
X104671662Y-77941521D01*
X104726193Y-77942007D01*
X104783344Y-77939007D01*
X104843139Y-77932407D01*
X104898610Y-77921159D01*
X104950462Y-77903544D01*
X104998703Y-77879979D01*
X105043340Y-77850883D01*
X105084383Y-77816674D01*
X105121839Y-77777769D01*
X105155717Y-77734586D01*
X105186024Y-77687544D01*
X105212769Y-77637060D01*
X105235960Y-77583552D01*
X105255606Y-77527438D01*
X105271714Y-77469136D01*
X105284292Y-77409064D01*
X105293350Y-77347640D01*
X105298894Y-77285282D01*
X105300934Y-77222408D01*
X105299478Y-77159435D01*
X105294533Y-77096781D01*
X105286108Y-77034866D01*
X105274211Y-76974105D01*
X105258850Y-76914918D01*
X105240033Y-76857722D01*
X105217770Y-76802936D01*
X105192067Y-76750976D01*
X105162933Y-76702262D01*
X105130376Y-76657210D01*
X105094405Y-76616239D01*
X105055027Y-76579768D01*
X105012252Y-76548212D01*
X104966086Y-76521992D01*
X104916538Y-76501524D01*
X104863617Y-76487227D01*
X104863617Y-76487464D01*
X104830590Y-76481399D01*
X104797919Y-76476684D01*
X104765634Y-76473311D01*
X104733763Y-76471275D01*
X104702334Y-76470568D01*
X104671378Y-76471184D01*
X104640921Y-76473116D01*
X104610994Y-76476358D01*
X104581624Y-76480903D01*
X104552840Y-76486743D01*
X104524672Y-76493873D01*
X104497148Y-76502286D01*
X104470297Y-76511975D01*
X104444147Y-76522934D01*
X104418727Y-76535155D01*
X104394066Y-76548633D01*
X104370192Y-76563360D01*
X104347135Y-76579329D01*
X104324923Y-76596535D01*
X104303585Y-76614970D01*
X104283150Y-76634629D01*
X104263646Y-76655503D01*
X104245101Y-76677586D01*
X104227546Y-76700873D01*
X104211008Y-76725355D01*
X104195516Y-76751027D01*
X104181099Y-76777882D01*
X104167786Y-76805912D01*
X104155605Y-76835113D01*
X104144586Y-76865475D01*
X104134756Y-76896994D01*
X104126145Y-76929663D01*
X104114745Y-76981065D01*
X104105294Y-77032326D01*
X104097817Y-77083330D01*
X104092336Y-77133961D01*
X104088874Y-77184104D01*
X104087455Y-77233645D01*
X103723820Y-77233645D01*
X103722806Y-77196332D01*
X103727641Y-77096023D01*
X103740075Y-76996607D01*
X103760142Y-76898883D01*
X103787879Y-76803648D01*
X103823320Y-76711702D01*
X103866501Y-76623841D01*
X103917457Y-76540864D01*
X103976224Y-76463569D01*
X104042837Y-76392754D01*
X104117331Y-76329217D01*
X104199741Y-76273757D01*
X104290103Y-76227170D01*
X104388452Y-76190255D01*
X104494823Y-76163811D01*
X104609253Y-76148635D01*
X104731775Y-76145526D01*
X104862425Y-76155280D01*
X104964662Y-76173899D01*
X105060151Y-76203425D01*
X105148842Y-76243072D01*
X105230686Y-76292055D01*
X105305631Y-76349590D01*
X105373628Y-76414889D01*
X105434626Y-76487169D01*
X105488575Y-76565644D01*
X105535426Y-76649528D01*
X105575127Y-76738037D01*
X105607628Y-76830384D01*
X105632879Y-76925784D01*
X105650831Y-77023452D01*
X105661432Y-77122603D01*
X105664631Y-77222408D01*
X105664633Y-77222451D01*
G37*
G36*
X105571563Y-69385863D02*
G01*
X104881000Y-69385863D01*
X104881000Y-70766988D01*
X105643000Y-70766988D01*
X105643000Y-71100364D01*
X103738001Y-71100364D01*
X103738001Y-70766988D01*
X104523813Y-70766988D01*
X104523813Y-69076301D01*
X105571563Y-69076301D01*
X105571563Y-69385863D01*
G37*
G36*
X103223455Y-43874765D02*
G01*
X103014567Y-44083653D01*
X100101902Y-44083653D01*
X99893013Y-43874765D01*
X99893013Y-43874633D01*
X99893013Y-43874632D01*
X99893013Y-43874631D01*
X99893900Y-41175354D01*
X100291607Y-41175354D01*
X100291607Y-43686647D01*
X102826580Y-43686647D01*
X102826580Y-41175354D01*
X100291607Y-41175354D01*
X99893900Y-41175354D01*
X99894733Y-38642233D01*
X99894732Y-38642100D01*
X100291607Y-38642100D01*
X100291607Y-40778479D01*
X103014567Y-40778479D01*
X103223455Y-40987367D01*
X103223455Y-43686647D01*
X103223455Y-43874765D01*
G37*
G36*
X104561453Y-44083520D02*
G01*
X104164578Y-44083520D01*
X104164578Y-39744355D01*
X104561453Y-39744355D01*
X104561453Y-44083520D01*
G37*
G36*
X116227180Y-79794783D02*
G01*
X115607102Y-79794783D01*
X115607102Y-78589156D01*
X115597815Y-78589156D01*
X115557035Y-78634838D01*
X115516176Y-78676195D01*
X115475173Y-78713417D01*
X115433959Y-78746694D01*
X115392468Y-78776217D01*
X115350632Y-78802175D01*
X115308385Y-78824758D01*
X115265661Y-78844158D01*
X115222392Y-78860563D01*
X115178513Y-78874164D01*
X115133956Y-78885151D01*
X115088656Y-78893714D01*
X115042544Y-78900043D01*
X114995556Y-78904328D01*
X114947623Y-78906760D01*
X114898681Y-78907529D01*
X114830197Y-78905836D01*
X114764472Y-78900825D01*
X114701466Y-78892592D01*
X114641142Y-78881236D01*
X114583460Y-78866855D01*
X114528384Y-78849545D01*
X114475873Y-78829405D01*
X114425891Y-78806534D01*
X114378398Y-78781028D01*
X114333358Y-78752986D01*
X114290730Y-78722505D01*
X114250477Y-78689683D01*
X114212562Y-78654619D01*
X114176944Y-78617409D01*
X114143587Y-78578153D01*
X114112451Y-78536947D01*
X114083500Y-78493889D01*
X114056693Y-78449078D01*
X114031994Y-78402611D01*
X114009363Y-78354586D01*
X113988763Y-78305101D01*
X113970154Y-78254253D01*
X113953500Y-78202141D01*
X113938762Y-78148863D01*
X113914878Y-78039197D01*
X113898197Y-77926039D01*
X113888414Y-77810172D01*
X113885221Y-77692378D01*
X114532921Y-77692378D01*
X114534323Y-77751721D01*
X114538699Y-77813288D01*
X114546307Y-77876244D01*
X114557403Y-77939753D01*
X114572244Y-78002979D01*
X114591087Y-78065089D01*
X114614188Y-78125247D01*
X114641804Y-78182618D01*
X114657385Y-78209997D01*
X114674191Y-78236367D01*
X114692255Y-78261622D01*
X114711608Y-78285658D01*
X114732282Y-78308372D01*
X114754309Y-78329658D01*
X114777722Y-78349412D01*
X114802553Y-78367530D01*
X114828833Y-78383907D01*
X114856595Y-78398440D01*
X114885871Y-78411023D01*
X114916693Y-78421552D01*
X114949093Y-78429923D01*
X114983103Y-78436031D01*
X115018755Y-78439773D01*
X115056082Y-78441044D01*
X115093474Y-78439827D01*
X115129320Y-78436238D01*
X115163641Y-78430372D01*
X115196463Y-78422323D01*
X115227808Y-78412185D01*
X115257700Y-78400052D01*
X115286162Y-78386017D01*
X115313219Y-78370175D01*
X115338895Y-78352621D01*
X115363211Y-78333447D01*
X115386193Y-78312748D01*
X115407864Y-78290619D01*
X115428247Y-78267152D01*
X115447367Y-78242443D01*
X115465246Y-78216585D01*
X115481909Y-78189673D01*
X115497378Y-78161800D01*
X115511679Y-78133060D01*
X115524834Y-78103547D01*
X115536866Y-78073357D01*
X115547801Y-78042581D01*
X115557660Y-78011316D01*
X115574249Y-77947689D01*
X115586823Y-77883230D01*
X115595570Y-77818690D01*
X115600679Y-77754822D01*
X115602340Y-77692378D01*
X115600473Y-77630086D01*
X115594789Y-77566649D01*
X115585168Y-77502779D01*
X115571488Y-77439188D01*
X115553628Y-77376589D01*
X115531467Y-77315694D01*
X115504882Y-77257217D01*
X115473753Y-77201870D01*
X115456446Y-77175593D01*
X115437958Y-77150366D01*
X115418273Y-77126277D01*
X115397376Y-77103416D01*
X115375252Y-77081873D01*
X115351886Y-77061735D01*
X115327262Y-77043092D01*
X115301365Y-77026034D01*
X115274181Y-77010649D01*
X115245694Y-76997026D01*
X115215888Y-76985254D01*
X115184749Y-76975423D01*
X115152262Y-76967622D01*
X115118411Y-76961939D01*
X115083181Y-76958465D01*
X115046677Y-76957290D01*
X115009892Y-76958518D01*
X114974665Y-76962146D01*
X114941080Y-76968072D01*
X114909104Y-76976195D01*
X114878703Y-76986417D01*
X114849845Y-76998638D01*
X114822497Y-77012759D01*
X114796625Y-77028679D01*
X114772198Y-77046301D01*
X114749181Y-77065524D01*
X114727542Y-77086249D01*
X114707247Y-77108377D01*
X114688265Y-77131808D01*
X114670561Y-77156442D01*
X114654102Y-77182181D01*
X114638857Y-77208925D01*
X114624791Y-77236574D01*
X114611872Y-77265030D01*
X114600066Y-77294192D01*
X114589341Y-77323962D01*
X114579664Y-77354239D01*
X114571001Y-77384925D01*
X114556588Y-77447124D01*
X114545838Y-77509765D01*
X114538486Y-77572050D01*
X114534268Y-77633186D01*
X114532921Y-77692378D01*
X113885221Y-77692378D01*
X113888410Y-77574741D01*
X113898170Y-77459319D01*
X113914785Y-77346854D01*
X113938542Y-77238087D01*
X113969726Y-77133760D01*
X114008622Y-77034614D01*
X114031052Y-76987216D01*
X114055517Y-76941391D01*
X114082053Y-76897233D01*
X114110695Y-76854833D01*
X114141480Y-76814284D01*
X114174444Y-76775680D01*
X114209621Y-76739113D01*
X114247047Y-76704675D01*
X114286759Y-76672460D01*
X114328792Y-76642560D01*
X114373182Y-76615067D01*
X114419964Y-76590075D01*
X114469174Y-76567676D01*
X114520848Y-76547962D01*
X114575021Y-76531028D01*
X114631730Y-76516964D01*
X114691009Y-76505864D01*
X114752896Y-76497821D01*
X114817424Y-76492927D01*
X114884631Y-76491275D01*
X114951779Y-76493097D01*
X115015918Y-76498475D01*
X115077096Y-76507273D01*
X115135362Y-76519359D01*
X115190765Y-76534598D01*
X115243354Y-76552857D01*
X115293177Y-76574001D01*
X115340284Y-76597896D01*
X115384722Y-76624409D01*
X115426542Y-76653405D01*
X115465792Y-76684751D01*
X115502521Y-76718313D01*
X115536777Y-76753956D01*
X115568610Y-76791547D01*
X115598068Y-76830952D01*
X115625200Y-76872037D01*
X115634725Y-76872037D01*
X115634725Y-76545092D01*
X116227180Y-76545092D01*
X116227180Y-77692378D01*
X116227180Y-79794783D01*
G37*
G36*
X105952764Y-45262372D02*
G01*
X105736467Y-45473378D01*
X99893013Y-45473378D01*
X99893013Y-45076503D01*
X105555624Y-45076503D01*
X105555624Y-38642100D01*
X105952499Y-38642100D01*
X105952764Y-45262372D01*
G37*
G36*
X119553548Y-74358866D02*
G01*
X119242081Y-74358866D01*
X119005146Y-73633775D01*
X118249338Y-73633775D01*
X118012403Y-74358866D01*
X117700936Y-74358866D01*
X118038371Y-73395890D01*
X118326966Y-73395890D01*
X118927279Y-73395890D01*
X118632719Y-72494824D01*
X118621288Y-72494824D01*
X118326966Y-73395890D01*
X118038371Y-73395890D01*
X118354113Y-72494824D01*
X118353875Y-72494823D01*
X118527229Y-72000000D01*
X118727016Y-72000000D01*
X118900372Y-72494823D01*
X119216113Y-73395890D01*
X119553548Y-74358866D01*
G37*
G36*
X107279441Y-76146458D02*
G01*
X107323552Y-76150950D01*
X107367375Y-76157914D01*
X107410777Y-76167348D01*
X107453620Y-76179251D01*
X107495771Y-76193623D01*
X107537094Y-76210463D01*
X107577452Y-76229768D01*
X107616711Y-76251540D01*
X107654736Y-76275776D01*
X107691391Y-76302475D01*
X107726541Y-76331637D01*
X107760050Y-76363260D01*
X107791782Y-76397344D01*
X107821604Y-76433887D01*
X107845606Y-76394893D01*
X107871551Y-76354461D01*
X107897853Y-76314638D01*
X107922926Y-76277469D01*
X107963050Y-76219274D01*
X107979243Y-76196239D01*
X108214511Y-76196239D01*
X108214511Y-78220301D01*
X107835654Y-78220301D01*
X107835654Y-77133022D01*
X107833519Y-77061203D01*
X107830852Y-77026515D01*
X107827117Y-76992672D01*
X107822315Y-76959698D01*
X107816448Y-76927615D01*
X107809513Y-76896448D01*
X107801513Y-76866218D01*
X107792447Y-76836950D01*
X107782314Y-76808667D01*
X107771117Y-76781391D01*
X107758853Y-76755146D01*
X107745525Y-76729956D01*
X107731131Y-76705842D01*
X107715673Y-76682829D01*
X107699149Y-76660940D01*
X107681561Y-76640198D01*
X107662909Y-76620626D01*
X107643192Y-76602247D01*
X107622412Y-76585084D01*
X107600567Y-76569162D01*
X107577659Y-76554502D01*
X107553687Y-76541128D01*
X107528652Y-76529064D01*
X107502554Y-76518332D01*
X107475392Y-76508955D01*
X107447168Y-76500958D01*
X107417881Y-76494363D01*
X107387532Y-76489192D01*
X107356120Y-76485471D01*
X107323646Y-76483221D01*
X107290110Y-76482466D01*
X107247194Y-76484021D01*
X107204657Y-76488701D01*
X107162830Y-76496527D01*
X107142286Y-76501626D01*
X107122043Y-76507521D01*
X107102141Y-76514212D01*
X107082624Y-76521704D01*
X107063530Y-76529999D01*
X107044903Y-76539099D01*
X107026782Y-76549007D01*
X107009210Y-76559727D01*
X106992227Y-76571259D01*
X106975875Y-76583609D01*
X106960195Y-76596777D01*
X106945227Y-76610767D01*
X106931014Y-76625581D01*
X106917596Y-76641223D01*
X106905015Y-76657694D01*
X106893312Y-76674998D01*
X106882528Y-76693137D01*
X106872704Y-76712114D01*
X106863881Y-76731932D01*
X106856101Y-76752593D01*
X106849405Y-76774100D01*
X106843834Y-76796456D01*
X106839430Y-76819663D01*
X106836233Y-76843725D01*
X106834284Y-76868643D01*
X106833625Y-76894421D01*
X106833625Y-78220301D01*
X106476438Y-78220301D01*
X106476318Y-78220420D01*
X106476197Y-78220538D01*
X106476197Y-76872276D01*
X106476772Y-76844744D01*
X106478462Y-76817693D01*
X106481217Y-76791121D01*
X106484986Y-76765029D01*
X106489717Y-76739418D01*
X106495360Y-76714286D01*
X106501864Y-76689635D01*
X106509178Y-76665463D01*
X106517251Y-76641772D01*
X106526033Y-76618560D01*
X106535471Y-76595828D01*
X106545515Y-76573577D01*
X106556115Y-76551805D01*
X106567219Y-76530514D01*
X106578777Y-76509702D01*
X106590737Y-76489371D01*
X106616860Y-76449204D01*
X106645133Y-76411527D01*
X106675421Y-76376339D01*
X106707589Y-76343638D01*
X106741500Y-76313424D01*
X106777020Y-76285696D01*
X106814013Y-76260452D01*
X106852343Y-76237691D01*
X106891876Y-76217413D01*
X106932476Y-76199616D01*
X106974008Y-76184300D01*
X107016335Y-76171464D01*
X107059324Y-76161106D01*
X107102838Y-76153225D01*
X107146742Y-76147821D01*
X107190901Y-76144893D01*
X107235179Y-76144439D01*
X107279441Y-76146458D01*
G37*
G36*
X118852170Y-77811115D02*
G01*
X118842395Y-77927499D01*
X118825755Y-78041006D01*
X118801966Y-78150873D01*
X118770743Y-78256337D01*
X118731801Y-78356634D01*
X118709347Y-78404606D01*
X118684856Y-78451001D01*
X118658293Y-78495722D01*
X118629623Y-78538675D01*
X118598810Y-78579763D01*
X118565818Y-78618892D01*
X118530611Y-78655966D01*
X118493155Y-78690890D01*
X118453414Y-78723569D01*
X118411351Y-78753906D01*
X118366932Y-78781806D01*
X118320120Y-78807175D01*
X118270881Y-78829917D01*
X118219179Y-78849936D01*
X118164977Y-78867136D01*
X118108241Y-78881424D01*
X118048935Y-78892702D01*
X117987023Y-78900876D01*
X117922471Y-78905851D01*
X117855241Y-78907530D01*
X117801073Y-78906470D01*
X117747813Y-78903245D01*
X117695508Y-78897790D01*
X117644206Y-78890039D01*
X117593954Y-78879926D01*
X117544801Y-78867384D01*
X117496794Y-78852349D01*
X117449981Y-78834753D01*
X117404410Y-78814532D01*
X117360129Y-78791619D01*
X117317185Y-78765948D01*
X117275626Y-78737453D01*
X117235500Y-78706069D01*
X117196854Y-78671729D01*
X117159737Y-78634368D01*
X117124197Y-78593920D01*
X117115148Y-78593920D01*
X117115148Y-78853713D01*
X117115148Y-78853951D01*
X116513167Y-78853951D01*
X116513928Y-77692853D01*
X117137532Y-77692853D01*
X117139141Y-77754470D01*
X117144108Y-77817719D01*
X117152642Y-77881826D01*
X117164954Y-77946017D01*
X117181253Y-78009519D01*
X117201751Y-78071558D01*
X117226656Y-78131361D01*
X117256178Y-78188153D01*
X117272737Y-78215178D01*
X117290528Y-78241161D01*
X117309579Y-78266005D01*
X117329916Y-78289612D01*
X117351565Y-78311886D01*
X117374551Y-78332731D01*
X117398902Y-78352050D01*
X117424644Y-78369746D01*
X117451803Y-78385722D01*
X117480405Y-78399881D01*
X117510476Y-78412128D01*
X117542043Y-78422365D01*
X117575131Y-78430495D01*
X117609768Y-78436422D01*
X117645979Y-78440049D01*
X117683791Y-78441280D01*
X117721536Y-78440036D01*
X117757554Y-78436370D01*
X117791880Y-78430381D01*
X117824547Y-78422169D01*
X117855591Y-78411834D01*
X117885046Y-78399473D01*
X117912947Y-78385188D01*
X117939329Y-78369076D01*
X117964226Y-78351238D01*
X117987673Y-78331772D01*
X118009706Y-78310778D01*
X118030357Y-78288356D01*
X118049664Y-78264605D01*
X118067659Y-78239623D01*
X118084377Y-78213511D01*
X118099855Y-78186367D01*
X118114125Y-78158291D01*
X118127223Y-78129383D01*
X118139184Y-78099741D01*
X118150041Y-78069465D01*
X118159831Y-78038655D01*
X118168588Y-78007409D01*
X118183139Y-77944008D01*
X118193974Y-77880057D01*
X118201369Y-77816351D01*
X118205602Y-77753685D01*
X118206952Y-77692853D01*
X118207189Y-77692853D01*
X118205842Y-77633544D01*
X118201624Y-77572320D01*
X118194272Y-77509974D01*
X118183522Y-77447298D01*
X118169109Y-77385083D01*
X118150769Y-77324122D01*
X118128238Y-77265208D01*
X118101253Y-77209132D01*
X118086008Y-77182406D01*
X118069549Y-77156686D01*
X118051845Y-77132072D01*
X118032863Y-77108663D01*
X118012568Y-77086558D01*
X117990929Y-77065855D01*
X117967912Y-77046654D01*
X117943484Y-77029054D01*
X117917613Y-77013153D01*
X117890265Y-76999052D01*
X117861407Y-76986848D01*
X117831006Y-76976641D01*
X117799030Y-76968530D01*
X117765445Y-76962613D01*
X117730218Y-76958991D01*
X117693316Y-76957762D01*
X117656294Y-76958954D01*
X117620717Y-76962470D01*
X117586566Y-76968217D01*
X117553825Y-76976104D01*
X117522475Y-76986039D01*
X117492499Y-76997930D01*
X117463880Y-77011685D01*
X117436599Y-77027212D01*
X117410639Y-77044420D01*
X117385982Y-77063217D01*
X117362611Y-77083511D01*
X117340508Y-77105210D01*
X117319656Y-77128223D01*
X117300036Y-77152456D01*
X117281631Y-77177820D01*
X117264423Y-77204221D01*
X117248395Y-77231568D01*
X117233529Y-77259770D01*
X117219808Y-77288733D01*
X117207213Y-77318367D01*
X117195727Y-77348580D01*
X117185333Y-77379280D01*
X117167748Y-77441773D01*
X117154317Y-77505111D01*
X117144898Y-77568560D01*
X117139350Y-77631386D01*
X117137532Y-77692853D01*
X116513928Y-77692853D01*
X116515310Y-75583067D01*
X117135388Y-75583067D01*
X117133484Y-76814173D01*
X117142294Y-76814173D01*
X117177464Y-76774327D01*
X117213471Y-76737195D01*
X117250403Y-76702758D01*
X117288351Y-76670996D01*
X117327401Y-76641890D01*
X117367645Y-76615419D01*
X117409170Y-76591563D01*
X117452065Y-76570303D01*
X117496420Y-76551619D01*
X117542324Y-76535490D01*
X117589864Y-76521897D01*
X117639131Y-76510820D01*
X117690213Y-76502239D01*
X117743200Y-76496135D01*
X117798179Y-76492487D01*
X117855241Y-76491275D01*
X117922450Y-76492916D01*
X117986984Y-76497777D01*
X118048880Y-76505768D01*
X118108173Y-76516798D01*
X118164898Y-76530778D01*
X118219090Y-76547617D01*
X118270786Y-76567224D01*
X118320020Y-76589509D01*
X118366828Y-76614382D01*
X118411245Y-76641752D01*
X118453308Y-76671528D01*
X118493050Y-76703621D01*
X118530509Y-76737939D01*
X118565719Y-76774393D01*
X118598715Y-76812891D01*
X118629534Y-76853344D01*
X118658210Y-76895662D01*
X118684779Y-76939753D01*
X118709277Y-76985527D01*
X118731738Y-77032894D01*
X118752199Y-77081763D01*
X118770695Y-77132044D01*
X118787261Y-77183647D01*
X118801932Y-77236480D01*
X118814745Y-77290455D01*
X118825735Y-77345479D01*
X118842385Y-77458317D01*
X118852168Y-77574271D01*
X118855365Y-77692617D01*
X118855359Y-77692853D01*
X118852170Y-77811115D01*
G37*
G36*
X104561453Y-39241646D02*
G01*
X104164578Y-39241646D01*
X104164578Y-38642100D01*
X104561453Y-38642100D01*
X104561453Y-39241646D01*
G37*
G36*
X108302498Y-70066365D02*
G01*
X108298741Y-70173998D01*
X108286563Y-70280774D01*
X108266007Y-70385722D01*
X108237118Y-70487869D01*
X108199942Y-70586243D01*
X108154522Y-70679872D01*
X108100904Y-70767785D01*
X108039132Y-70849008D01*
X107969250Y-70922569D01*
X107891304Y-70987497D01*
X107805339Y-71042820D01*
X107711397Y-71087564D01*
X107609525Y-71120759D01*
X107499767Y-71141431D01*
X107382168Y-71148609D01*
X107256772Y-71141321D01*
X107212809Y-71135204D01*
X107171139Y-71127336D01*
X107131537Y-71117769D01*
X107093779Y-71106555D01*
X107057642Y-71093743D01*
X107022900Y-71079388D01*
X106989329Y-71063539D01*
X106956705Y-71046250D01*
X106924804Y-71027570D01*
X106893402Y-71007552D01*
X106862273Y-70986248D01*
X106831195Y-70963710D01*
X106799942Y-70939987D01*
X106768290Y-70915134D01*
X106702893Y-70862238D01*
X106588832Y-71103697D01*
X106357375Y-71100364D01*
X106357373Y-71100364D01*
X106357218Y-70108127D01*
X106682624Y-70108127D01*
X106688203Y-70183328D01*
X106699718Y-70257565D01*
X106717159Y-70330138D01*
X106740514Y-70400347D01*
X106769770Y-70467491D01*
X106804917Y-70530871D01*
X106845941Y-70589788D01*
X106892833Y-70643540D01*
X106945579Y-70691428D01*
X107004168Y-70732752D01*
X107068589Y-70766813D01*
X107138830Y-70792910D01*
X107214878Y-70810343D01*
X107296723Y-70818412D01*
X107384352Y-70816418D01*
X107477754Y-70803660D01*
X107534693Y-70789170D01*
X107588028Y-70768400D01*
X107637737Y-70741775D01*
X107683800Y-70709725D01*
X107726197Y-70672676D01*
X107764908Y-70631057D01*
X107799911Y-70585293D01*
X107831187Y-70535814D01*
X107858714Y-70483046D01*
X107882474Y-70427417D01*
X107902444Y-70369354D01*
X107918605Y-70309284D01*
X107930936Y-70247637D01*
X107939417Y-70184837D01*
X107944027Y-70121315D01*
X107944746Y-70057495D01*
X107941553Y-69993807D01*
X107934428Y-69930678D01*
X107923351Y-69868534D01*
X107908301Y-69807805D01*
X107889257Y-69748916D01*
X107866200Y-69692296D01*
X107839108Y-69638371D01*
X107807961Y-69587571D01*
X107772740Y-69540321D01*
X107733422Y-69497049D01*
X107689989Y-69458184D01*
X107642419Y-69424152D01*
X107590691Y-69395381D01*
X107534787Y-69372298D01*
X107474684Y-69355330D01*
X107410364Y-69344906D01*
X107319355Y-69340345D01*
X107234472Y-69346019D01*
X107155701Y-69361227D01*
X107083032Y-69385270D01*
X107016452Y-69417448D01*
X106955950Y-69457061D01*
X106901514Y-69503409D01*
X106853132Y-69555792D01*
X106810793Y-69613511D01*
X106774484Y-69675864D01*
X106744195Y-69742153D01*
X106719913Y-69811677D01*
X106701626Y-69883736D01*
X106689324Y-69957631D01*
X106682994Y-70032661D01*
X106682624Y-70108127D01*
X106357218Y-70108127D01*
X106356897Y-68054507D01*
X106714561Y-68052364D01*
X106714561Y-69290613D01*
X106764453Y-69246429D01*
X106816780Y-69202485D01*
X106843851Y-69181033D01*
X106871524Y-69160159D01*
X106899797Y-69140034D01*
X106928666Y-69120830D01*
X106958129Y-69102721D01*
X106988184Y-69085877D01*
X107018829Y-69070472D01*
X107050061Y-69056678D01*
X107081878Y-69044667D01*
X107114277Y-69034612D01*
X107147255Y-69026684D01*
X107180811Y-69021056D01*
X107317875Y-69010178D01*
X107445803Y-69013998D01*
X107564640Y-69031543D01*
X107674429Y-69061842D01*
X107775217Y-69103923D01*
X107867046Y-69156814D01*
X107949963Y-69219542D01*
X108024012Y-69291134D01*
X108089236Y-69370620D01*
X108145682Y-69457027D01*
X108193394Y-69549383D01*
X108232415Y-69646715D01*
X108262792Y-69748051D01*
X108284568Y-69852420D01*
X108297789Y-69958848D01*
X108302110Y-70057495D01*
X108302498Y-70066365D01*
G37*
G36*
X115265156Y-74358866D02*
G01*
X114573640Y-74358866D01*
X114527996Y-74357647D01*
X114483114Y-74354005D01*
X114439040Y-74347965D01*
X114395817Y-74339552D01*
X114353492Y-74328791D01*
X114312109Y-74315706D01*
X114271714Y-74300323D01*
X114232351Y-74282666D01*
X114194066Y-74262760D01*
X114156903Y-74240629D01*
X114120908Y-74216299D01*
X114086125Y-74189794D01*
X114052600Y-74161139D01*
X114020378Y-74130358D01*
X113989504Y-74097477D01*
X113960022Y-74062520D01*
X113931978Y-74025512D01*
X113905417Y-73986478D01*
X113880384Y-73945442D01*
X113856924Y-73902429D01*
X113835082Y-73857465D01*
X113814903Y-73810573D01*
X113796432Y-73761779D01*
X113779714Y-73711107D01*
X113764794Y-73658582D01*
X113751717Y-73604229D01*
X113740529Y-73548073D01*
X113731273Y-73490138D01*
X113723997Y-73430449D01*
X113718743Y-73369031D01*
X113715558Y-73305909D01*
X113714486Y-73241107D01*
X113714486Y-73134426D01*
X113995234Y-73134426D01*
X113995234Y-73228962D01*
X113998511Y-73327428D01*
X114008158Y-73420647D01*
X114023896Y-73508464D01*
X114033963Y-73550301D01*
X114045449Y-73590729D01*
X114058319Y-73629732D01*
X114072538Y-73667289D01*
X114088072Y-73703382D01*
X114104885Y-73737992D01*
X114122944Y-73771098D01*
X114142214Y-73802684D01*
X114162660Y-73832728D01*
X114184246Y-73861213D01*
X114206939Y-73888119D01*
X114230704Y-73913428D01*
X114255506Y-73937119D01*
X114281310Y-73959175D01*
X114308082Y-73979576D01*
X114335786Y-73998302D01*
X114364389Y-74015336D01*
X114393856Y-74030658D01*
X114424151Y-74044248D01*
X114455240Y-74056088D01*
X114487089Y-74066159D01*
X114519662Y-74074441D01*
X114552925Y-74080916D01*
X114586844Y-74085565D01*
X114621383Y-74088368D01*
X114656508Y-74089307D01*
X114967260Y-74089307D01*
X114967260Y-72274081D01*
X114656508Y-72274081D01*
X114621383Y-72275019D01*
X114586844Y-72277822D01*
X114552925Y-72282471D01*
X114519662Y-72288946D01*
X114487089Y-72297229D01*
X114455240Y-72307299D01*
X114424151Y-72319140D01*
X114393856Y-72332730D01*
X114364389Y-72348052D01*
X114335786Y-72365085D01*
X114308082Y-72383812D01*
X114281310Y-72404213D01*
X114255506Y-72426268D01*
X114230704Y-72449960D01*
X114206939Y-72475268D01*
X114184246Y-72502175D01*
X114162660Y-72530660D01*
X114142214Y-72560704D01*
X114122944Y-72592289D01*
X114104885Y-72625396D01*
X114088072Y-72660006D01*
X114072538Y-72696099D01*
X114058319Y-72733656D01*
X114045449Y-72772658D01*
X114033963Y-72813087D01*
X114023896Y-72854924D01*
X114015283Y-72898148D01*
X114008158Y-72942742D01*
X114002556Y-72988685D01*
X113998511Y-73035960D01*
X113996059Y-73084546D01*
X113995234Y-73134426D01*
X113714486Y-73134426D01*
X113714486Y-73117997D01*
X113718743Y-72990034D01*
X113731274Y-72868898D01*
X113751717Y-72754787D01*
X113764794Y-72700427D01*
X113779714Y-72647897D01*
X113796432Y-72597222D01*
X113814903Y-72548426D01*
X113835082Y-72501534D01*
X113856924Y-72456571D01*
X113880384Y-72413561D01*
X113905418Y-72372528D01*
X113931979Y-72333498D01*
X113960022Y-72296495D01*
X113989504Y-72261544D01*
X114020379Y-72228670D01*
X114052601Y-72197896D01*
X114086126Y-72169248D01*
X114120908Y-72142750D01*
X114156904Y-72118427D01*
X114194066Y-72096304D01*
X114232352Y-72076405D01*
X114271715Y-72058754D01*
X114312110Y-72043377D01*
X114353493Y-72030299D01*
X114395818Y-72019542D01*
X114439040Y-72011134D01*
X114483115Y-72005097D01*
X114527997Y-72001457D01*
X114573641Y-72000238D01*
X114573640Y-72000000D01*
X115265156Y-72000000D01*
X115265156Y-74089307D01*
X115265156Y-74358866D01*
G37*
G36*
X117483527Y-74358866D02*
G01*
X117172060Y-74358866D01*
X116935126Y-73633775D01*
X116179317Y-73633775D01*
X115942382Y-74358866D01*
X115630915Y-74358866D01*
X115968350Y-73395890D01*
X116256946Y-73395890D01*
X116857259Y-73395890D01*
X116562698Y-72494824D01*
X116551268Y-72494824D01*
X116256946Y-73395890D01*
X115968350Y-73395890D01*
X116284092Y-72494824D01*
X116283853Y-72494823D01*
X116457208Y-72000000D01*
X116656996Y-72000000D01*
X116830350Y-72494823D01*
X117146092Y-73395890D01*
X117483527Y-74358866D01*
G37*
G36*
X121445927Y-74358866D02*
G01*
X121148271Y-74358866D01*
X121148271Y-73282064D01*
X120145288Y-73282064D01*
X120145288Y-73024176D01*
X121148271Y-73024176D01*
X121148271Y-72278844D01*
X119965504Y-72278844D01*
X119965504Y-72000000D01*
X121445927Y-72000000D01*
X121445927Y-74358866D01*
G37*
G36*
X105659432Y-73436368D02*
G01*
X105669633Y-73525250D01*
X105673717Y-73614889D01*
X105671725Y-73704707D01*
X105663696Y-73794128D01*
X105649666Y-73882575D01*
X105629677Y-73969473D01*
X105603765Y-74054244D01*
X105571971Y-74136312D01*
X105534333Y-74215102D01*
X105490889Y-74290035D01*
X105441678Y-74360537D01*
X105386740Y-74426029D01*
X105326112Y-74485937D01*
X105259834Y-74539683D01*
X105187944Y-74586691D01*
X105110482Y-74626384D01*
X105027485Y-74658186D01*
X104938993Y-74681521D01*
X104845045Y-74695813D01*
X104759868Y-74702850D01*
X104676126Y-74706700D01*
X104594061Y-74706925D01*
X104513913Y-74703083D01*
X104474634Y-74699500D01*
X104435924Y-74694734D01*
X104397814Y-74688732D01*
X104360334Y-74681439D01*
X104323515Y-74672798D01*
X104287385Y-74662756D01*
X104251976Y-74651257D01*
X104217318Y-74638246D01*
X104183440Y-74623668D01*
X104150373Y-74607468D01*
X104118146Y-74589592D01*
X104086791Y-74569983D01*
X104056337Y-74548588D01*
X104026814Y-74525350D01*
X103998253Y-74500215D01*
X103970683Y-74473129D01*
X103944135Y-74444035D01*
X103918639Y-74412879D01*
X103894224Y-74379606D01*
X103870922Y-74344161D01*
X103848762Y-74306488D01*
X103827774Y-74266534D01*
X103807989Y-74224242D01*
X103789436Y-74179558D01*
X103784673Y-74146934D01*
X104057089Y-74007394D01*
X104085864Y-74064330D01*
X104118235Y-74116458D01*
X104153911Y-74163839D01*
X104192599Y-74206532D01*
X104234005Y-74244599D01*
X104277837Y-74278098D01*
X104323802Y-74307091D01*
X104371607Y-74331638D01*
X104420959Y-74351799D01*
X104471567Y-74367634D01*
X104523135Y-74379203D01*
X104575373Y-74386568D01*
X104627986Y-74389787D01*
X104680683Y-74388921D01*
X104733170Y-74384032D01*
X104785155Y-74375177D01*
X104836344Y-74362419D01*
X104886446Y-74345818D01*
X104935166Y-74325433D01*
X104982213Y-74301324D01*
X105027292Y-74273553D01*
X105070113Y-74242179D01*
X105110381Y-74207263D01*
X105147804Y-74168864D01*
X105182089Y-74127044D01*
X105212944Y-74081862D01*
X105240074Y-74033379D01*
X105263189Y-73981654D01*
X105281994Y-73926749D01*
X105296197Y-73868723D01*
X105305505Y-73807637D01*
X105309625Y-73743551D01*
X103721334Y-73743551D01*
X103715731Y-73687748D01*
X103712067Y-73625537D01*
X103710797Y-73547157D01*
X103711756Y-73503476D01*
X103714148Y-73457638D01*
X103718253Y-73410272D01*
X103718265Y-73410176D01*
X104095188Y-73410176D01*
X105285812Y-73410176D01*
X105275749Y-73350264D01*
X105260187Y-73293997D01*
X105239501Y-73241395D01*
X105214065Y-73192483D01*
X105184253Y-73147280D01*
X105150442Y-73105811D01*
X105113006Y-73068096D01*
X105072319Y-73034158D01*
X105028757Y-73004019D01*
X104982693Y-72977701D01*
X104934504Y-72955226D01*
X104884563Y-72936616D01*
X104833246Y-72921894D01*
X104780928Y-72911081D01*
X104727982Y-72904200D01*
X104674785Y-72901273D01*
X104621710Y-72902321D01*
X104569133Y-72907368D01*
X104517428Y-72916434D01*
X104466970Y-72929542D01*
X104418135Y-72946715D01*
X104371296Y-72967974D01*
X104326829Y-72993341D01*
X104285108Y-73022839D01*
X104246508Y-73056490D01*
X104211405Y-73094316D01*
X104180172Y-73136338D01*
X104153185Y-73182579D01*
X104130818Y-73233061D01*
X104113446Y-73287807D01*
X104101445Y-73346838D01*
X104095188Y-73410176D01*
X103718265Y-73410176D01*
X103724348Y-73362007D01*
X103732711Y-73313472D01*
X103743622Y-73265294D01*
X103757358Y-73218103D01*
X103774198Y-73172527D01*
X103791230Y-73126308D01*
X103810224Y-73082032D01*
X103831112Y-73039689D01*
X103853824Y-72999272D01*
X103878292Y-72960769D01*
X103904448Y-72924174D01*
X103932224Y-72889475D01*
X103961550Y-72856665D01*
X103992359Y-72825734D01*
X104024582Y-72796673D01*
X104058150Y-72769472D01*
X104092996Y-72744124D01*
X104129050Y-72720617D01*
X104166244Y-72698945D01*
X104204510Y-72679097D01*
X104243780Y-72661064D01*
X104325055Y-72630408D01*
X104409521Y-72606903D01*
X104496632Y-72590478D01*
X104585839Y-72581058D01*
X104676595Y-72578571D01*
X104768351Y-72582945D01*
X104860562Y-72594106D01*
X104952678Y-72611981D01*
X105045908Y-72638577D01*
X105132518Y-72673424D01*
X105212547Y-72715944D01*
X105286035Y-72765561D01*
X105353019Y-72821699D01*
X105413539Y-72883781D01*
X105467633Y-72951231D01*
X105515341Y-73023472D01*
X105556700Y-73099927D01*
X105591750Y-73180021D01*
X105620530Y-73263177D01*
X105643078Y-73348818D01*
X105654539Y-73410176D01*
X105659432Y-73436368D01*
G37*
D11*
G36*
X96359764Y-37834474D02*
G01*
X96400264Y-37840098D01*
X96438296Y-37849230D01*
X96473746Y-37861665D01*
X96506657Y-37877263D01*
X96536798Y-37895777D01*
X96588769Y-37941088D01*
X96628795Y-37996275D01*
X96655811Y-38059890D01*
X96668657Y-38130230D01*
X96669600Y-38155992D01*
X96667707Y-38196948D01*
X96662274Y-38233801D01*
X96653631Y-38266891D01*
X96642163Y-38296315D01*
X96611131Y-38346482D01*
X96569795Y-38386471D01*
X96536610Y-38407990D01*
X96536610Y-38427590D01*
X96650000Y-38427590D01*
X96650000Y-38535362D01*
X95670036Y-38535362D01*
X95670036Y-38424781D01*
X96073220Y-38424781D01*
X96073220Y-38405181D01*
X96045966Y-38387553D01*
X96019730Y-38364711D01*
X95999621Y-38341376D01*
X95981719Y-38313659D01*
X95968061Y-38284666D01*
X95957244Y-38251564D01*
X95950057Y-38216104D01*
X95947145Y-38185362D01*
X96043850Y-38185362D01*
X96045788Y-38219533D01*
X96051539Y-38251736D01*
X96060710Y-38281021D01*
X96073317Y-38308095D01*
X96088892Y-38332277D01*
X96107590Y-38354019D01*
X96129086Y-38372974D01*
X96153478Y-38389226D01*
X96210846Y-38413061D01*
X96279994Y-38424197D01*
X96301404Y-38424781D01*
X96314043Y-38424781D01*
X96352136Y-38422859D01*
X96387501Y-38417215D01*
X96419480Y-38408236D01*
X96448659Y-38396028D01*
X96474618Y-38380995D01*
X96497688Y-38363161D01*
X96534716Y-38319962D01*
X96559462Y-38267202D01*
X96570994Y-38205373D01*
X96571659Y-38185362D01*
X96569721Y-38151175D01*
X96563970Y-38118907D01*
X96554785Y-38089481D01*
X96542157Y-38062243D01*
X96526550Y-38037884D01*
X96507814Y-38015961D01*
X96486301Y-37996853D01*
X96461891Y-37980454D01*
X96434629Y-37966912D01*
X96404623Y-37956415D01*
X96335806Y-37945152D01*
X96314043Y-37944539D01*
X96301404Y-37944539D01*
X96263312Y-37946462D01*
X96227951Y-37952111D01*
X96196013Y-37961091D01*
X96166869Y-37973306D01*
X96140961Y-37988341D01*
X96117930Y-38006185D01*
X96080953Y-38049437D01*
X96056185Y-38102359D01*
X96044555Y-38164549D01*
X96043850Y-38185362D01*
X95947145Y-38185362D01*
X95946304Y-38176477D01*
X95945847Y-38155992D01*
X95947784Y-38119110D01*
X95953527Y-38083466D01*
X95962943Y-38049374D01*
X95975940Y-38016954D01*
X95992313Y-37986596D01*
X96012026Y-37958322D01*
X96034791Y-37932539D01*
X96060650Y-37909230D01*
X96089268Y-37888756D01*
X96120742Y-37871130D01*
X96154754Y-37856639D01*
X96191398Y-37845365D01*
X96230433Y-37837532D01*
X96271897Y-37833291D01*
X96298656Y-37832554D01*
X96316852Y-37832554D01*
X96359764Y-37834474D01*
G37*
G36*
X95859019Y-38821554D02*
G01*
X95857118Y-38840835D01*
X95851630Y-38858349D01*
X95842792Y-38873845D01*
X95830961Y-38886805D01*
X95816537Y-38896818D01*
X95799795Y-38903583D01*
X95775061Y-38906917D01*
X95755695Y-38905020D01*
X95738269Y-38899557D01*
X95710165Y-38879083D01*
X95700135Y-38864648D01*
X95693293Y-38847946D01*
X95689637Y-38821554D01*
X95691541Y-38802751D01*
X95697055Y-38785586D01*
X95705962Y-38770334D01*
X95717928Y-38757528D01*
X95732570Y-38747601D01*
X95749639Y-38740870D01*
X95775061Y-38737534D01*
X95793913Y-38739428D01*
X95810963Y-38744868D01*
X95838868Y-38765426D01*
X95848864Y-38779929D01*
X95855621Y-38796649D01*
X95859019Y-38821554D01*
G37*
G36*
X96650000Y-38766966D02*
G01*
X96650000Y-38877547D01*
X95965448Y-38877547D01*
X95965448Y-38766966D01*
X96650000Y-38766966D01*
G37*
G36*
X96669600Y-39385633D02*
G01*
X96667659Y-39430831D01*
X96661892Y-39472685D01*
X96652965Y-39509062D01*
X96640740Y-39542037D01*
X96626282Y-39569794D01*
X96609020Y-39594203D01*
X96590125Y-39614096D01*
X96568812Y-39630699D01*
X96545914Y-39643510D01*
X96520837Y-39652981D01*
X96464497Y-39661396D01*
X96459612Y-39661444D01*
X96430865Y-39659526D01*
X96404979Y-39653916D01*
X96382302Y-39645086D01*
X96362013Y-39633145D01*
X96326928Y-39599462D01*
X96297510Y-39550099D01*
X96272823Y-39479208D01*
X96256646Y-39403829D01*
X96246816Y-39346432D01*
X96235766Y-39297030D01*
X96220586Y-39257029D01*
X96208228Y-39237258D01*
X96193208Y-39221945D01*
X96178367Y-39212799D01*
X96161166Y-39207121D01*
X96140448Y-39205076D01*
X96120423Y-39207005D01*
X96102452Y-39212689D01*
X96073618Y-39233876D01*
X96052472Y-39269046D01*
X96040115Y-39321102D01*
X96038232Y-39356263D01*
X96040247Y-39391995D01*
X96046531Y-39424769D01*
X96055554Y-39450121D01*
X96068183Y-39472772D01*
X96082813Y-39490635D01*
X96100707Y-39505928D01*
X96121135Y-39518034D01*
X96144876Y-39527437D01*
X96172627Y-39534071D01*
X96146065Y-39637630D01*
X96113212Y-39628429D01*
X96083056Y-39615874D01*
X96056511Y-39600597D01*
X96032637Y-39582310D01*
X95993663Y-39537693D01*
X95965717Y-39481656D01*
X95949437Y-39413058D01*
X95945847Y-39356263D01*
X95947782Y-39313234D01*
X95953512Y-39273316D01*
X95962445Y-39238260D01*
X95974651Y-39206514D01*
X95989132Y-39179713D01*
X96006373Y-39156271D01*
X96025206Y-39137307D01*
X96046376Y-39121701D01*
X96068982Y-39109964D01*
X96093638Y-39101662D01*
X96141852Y-39095839D01*
X96169692Y-39097756D01*
X96195094Y-39103359D01*
X96238598Y-39124442D01*
X96275097Y-39158923D01*
X96305938Y-39209086D01*
X96331054Y-39279013D01*
X96343414Y-39335258D01*
X96353244Y-39392655D01*
X96367749Y-39457430D01*
X96387371Y-39506764D01*
X96400017Y-39524834D01*
X96415220Y-39538526D01*
X96430377Y-39546525D01*
X96447930Y-39551123D01*
X96463825Y-39552267D01*
X96484111Y-39550341D01*
X96502683Y-39544668D01*
X96533924Y-39523096D01*
X96557999Y-39487284D01*
X96573362Y-39435406D01*
X96577215Y-39385633D01*
X96575164Y-39347585D01*
X96568621Y-39311286D01*
X96559216Y-39282640D01*
X96545875Y-39256162D01*
X96530535Y-39234910D01*
X96511613Y-39215975D01*
X96490454Y-39200618D01*
X96465753Y-39187786D01*
X96437751Y-39177843D01*
X96405930Y-39170816D01*
X96400811Y-39170027D01*
X96424624Y-39065064D01*
X96461400Y-39072182D01*
X96495014Y-39082647D01*
X96524852Y-39095964D01*
X96551759Y-39112198D01*
X96596856Y-39152746D01*
X96631463Y-39204515D01*
X96655615Y-39268621D01*
X96668211Y-39346499D01*
X96669600Y-39385633D01*
G37*
G36*
X96425498Y-39797591D02*
G01*
X96456866Y-39803322D01*
X96486113Y-39812601D01*
X96513537Y-39825368D01*
X96562716Y-39861073D01*
X96604184Y-39910567D01*
X96636986Y-39974467D01*
X96659428Y-40053345D01*
X96669329Y-40147254D01*
X96669600Y-40166660D01*
X96667669Y-40217702D01*
X96661970Y-40265619D01*
X96652919Y-40309161D01*
X96640547Y-40349412D01*
X96625542Y-40385070D01*
X96607667Y-40417357D01*
X96587821Y-40445167D01*
X96565520Y-40469583D01*
X96541683Y-40489869D01*
X96515737Y-40506735D01*
X96488359Y-40519831D01*
X96459137Y-40529422D01*
X96428289Y-40535381D01*
X96395789Y-40537646D01*
X96392445Y-40537665D01*
X96377058Y-40537665D01*
X96344729Y-40535776D01*
X96315178Y-40530370D01*
X96262723Y-40509824D01*
X96218662Y-40477229D01*
X96183144Y-40433346D01*
X96158016Y-40380351D01*
X96150218Y-40351430D01*
X96132021Y-40351430D01*
X96121529Y-40382109D01*
X96106353Y-40412809D01*
X96088750Y-40438961D01*
X96067088Y-40463040D01*
X96044734Y-40481591D01*
X96019044Y-40497162D01*
X95992903Y-40508114D01*
X95963869Y-40515628D01*
X95920629Y-40519469D01*
X95905242Y-40519469D01*
X95874482Y-40517541D01*
X95845421Y-40511862D01*
X95792769Y-40489944D01*
X95746856Y-40454194D01*
X95708002Y-40404175D01*
X95677495Y-40339181D01*
X95657467Y-40259043D01*
X95650436Y-40166660D01*
X95752651Y-40166660D01*
X95754592Y-40211564D01*
X95760362Y-40252421D01*
X95769106Y-40286611D01*
X95781037Y-40316900D01*
X95794831Y-40341245D01*
X95811240Y-40361950D01*
X95828917Y-40377896D01*
X95848799Y-40390401D01*
X95870140Y-40399125D01*
X95893477Y-40404387D01*
X95917821Y-40406079D01*
X95929056Y-40406079D01*
X95954883Y-40404144D01*
X95978651Y-40398410D01*
X95999663Y-40389339D01*
X96018657Y-40376908D01*
X96050666Y-40341993D01*
X96074840Y-40291989D01*
X96089604Y-40224235D01*
X96092821Y-40166660D01*
X96195036Y-40166660D01*
X96196981Y-40213393D01*
X96202781Y-40256076D01*
X96211570Y-40291877D01*
X96223594Y-40323806D01*
X96237528Y-40349684D01*
X96254148Y-40371962D01*
X96272099Y-40389413D01*
X96292344Y-40403469D01*
X96314083Y-40413722D01*
X96337919Y-40420580D01*
X96375654Y-40424275D01*
X96386828Y-40424275D01*
X96414308Y-40422343D01*
X96439616Y-40416632D01*
X96462100Y-40407586D01*
X96482482Y-40395212D01*
X96517087Y-40360633D01*
X96543815Y-40311571D01*
X96561442Y-40245702D01*
X96567445Y-40166660D01*
X96565500Y-40120660D01*
X96559700Y-40078483D01*
X96550877Y-40042870D01*
X96538799Y-40011020D01*
X96524780Y-39985116D01*
X96508052Y-39962777D01*
X96490002Y-39945274D01*
X96469644Y-39931168D01*
X96447849Y-39920911D01*
X96423958Y-39914066D01*
X96386828Y-39910450D01*
X96375654Y-39910450D01*
X96347792Y-39912385D01*
X96322168Y-39918117D01*
X96299569Y-39927151D01*
X96279108Y-39939521D01*
X96244626Y-39973967D01*
X96218164Y-40022812D01*
X96200818Y-40088599D01*
X96195036Y-40166660D01*
X96092821Y-40166660D01*
X96090881Y-40121757D01*
X96085123Y-40080900D01*
X96076383Y-40046634D01*
X96064467Y-40016289D01*
X96050683Y-39991881D01*
X96034301Y-39971141D01*
X96016673Y-39955191D01*
X95996868Y-39942707D01*
X95975656Y-39934037D01*
X95952487Y-39928847D01*
X95929056Y-39927241D01*
X95917821Y-39927241D01*
X95892048Y-39929173D01*
X95868326Y-39934878D01*
X95847214Y-39943942D01*
X95828125Y-39956340D01*
X95795767Y-39991218D01*
X95771209Y-40041046D01*
X95756090Y-40108143D01*
X95752651Y-40166660D01*
X95650436Y-40166660D01*
X95652370Y-40117499D01*
X95658096Y-40070907D01*
X95667232Y-40028198D01*
X95679763Y-39988516D01*
X95694892Y-39953521D01*
X95712957Y-39921836D01*
X95732765Y-39895014D01*
X95755058Y-39871629D01*
X95778499Y-39852770D01*
X95804044Y-39837408D01*
X95830594Y-39826083D01*
X95858970Y-39818350D01*
X95905242Y-39813852D01*
X95920629Y-39813852D01*
X95951082Y-39815742D01*
X95978990Y-39821157D01*
X96028816Y-39841833D01*
X96071042Y-39874912D01*
X96105318Y-39919881D01*
X96129503Y-39974604D01*
X96132021Y-39983234D01*
X96150218Y-39983234D01*
X96158296Y-39953449D01*
X96171311Y-39922221D01*
X96187564Y-39894161D01*
X96208350Y-39867447D01*
X96230114Y-39846397D01*
X96255593Y-39828005D01*
X96281488Y-39814510D01*
X96310553Y-39804261D01*
X96340516Y-39798117D01*
X96373404Y-39795679D01*
X96377058Y-39795655D01*
X96392445Y-39795655D01*
X96425498Y-39797591D01*
G37*
G36*
X96379012Y-40688642D02*
G01*
X96416594Y-40694315D01*
X96451675Y-40703495D01*
X96484455Y-40716050D01*
X96514833Y-40731813D01*
X96542749Y-40750634D01*
X96591185Y-40797209D01*
X96629090Y-40855210D01*
X96655332Y-40924098D01*
X96668417Y-41003064D01*
X96669600Y-41036714D01*
X96667666Y-41079367D01*
X96661942Y-41120194D01*
X96652661Y-41158592D01*
X96639898Y-41194775D01*
X96624059Y-41227999D01*
X96605071Y-41258672D01*
X96583510Y-41286067D01*
X96559133Y-41310627D01*
X96532589Y-41331779D01*
X96503532Y-41349843D01*
X96472534Y-41364450D01*
X96439282Y-41375712D01*
X96404135Y-41383416D01*
X96366950Y-41387488D01*
X96344818Y-41388119D01*
X96328026Y-41388119D01*
X96289513Y-41386199D01*
X96253066Y-41380575D01*
X96218602Y-41371395D01*
X96186411Y-41358887D01*
X96128628Y-41324259D01*
X96080610Y-41277746D01*
X96043636Y-41220500D01*
X96019271Y-41154063D01*
X96012308Y-41117971D01*
X96009085Y-41080518D01*
X96008862Y-41067550D01*
X96010227Y-41036714D01*
X96104056Y-41036714D01*
X96105984Y-41071580D01*
X96111670Y-41104405D01*
X96120798Y-41134540D01*
X96133280Y-41162294D01*
X96148674Y-41187054D01*
X96167032Y-41209133D01*
X96187882Y-41228079D01*
X96211346Y-41244059D01*
X96237082Y-41256806D01*
X96265135Y-41266279D01*
X96295414Y-41272305D01*
X96327758Y-41274695D01*
X96332240Y-41274729D01*
X96343414Y-41274729D01*
X96376464Y-41272804D01*
X96407257Y-41267143D01*
X96435253Y-41258090D01*
X96460856Y-41245749D01*
X96483844Y-41230377D01*
X96504262Y-41212075D01*
X96537218Y-41166912D01*
X96558803Y-41110576D01*
X96567381Y-41043430D01*
X96567445Y-41036714D01*
X96565513Y-41000760D01*
X96559801Y-40967115D01*
X96550734Y-40936768D01*
X96538326Y-40908977D01*
X96523161Y-40884560D01*
X96505055Y-40862899D01*
X96484556Y-40844500D01*
X96461440Y-40829065D01*
X96435976Y-40816819D01*
X96408131Y-40807809D01*
X96345164Y-40800109D01*
X96343414Y-40800104D01*
X96332240Y-40800104D01*
X96299109Y-40802029D01*
X96268097Y-40807684D01*
X96239638Y-40816776D01*
X96213514Y-40829174D01*
X96189949Y-40844637D01*
X96168957Y-40863039D01*
X96135069Y-40908236D01*
X96112934Y-40964040D01*
X96104131Y-41029687D01*
X96104056Y-41036714D01*
X96010227Y-41036714D01*
X96010745Y-41025016D01*
X96016109Y-40986780D01*
X96024696Y-40952113D01*
X96035994Y-40921509D01*
X96066180Y-40870084D01*
X96104667Y-40831649D01*
X96122252Y-40819705D01*
X96122252Y-40800104D01*
X95986453Y-40800104D01*
X95949927Y-40802045D01*
X95916107Y-40807818D01*
X95886507Y-40816813D01*
X95859576Y-40829151D01*
X95836240Y-40844147D01*
X95815572Y-40862129D01*
X95783005Y-40906094D01*
X95761709Y-40961675D01*
X95752794Y-41030276D01*
X95752651Y-41040928D01*
X95754572Y-41079704D01*
X95760203Y-41114841D01*
X95768939Y-41145213D01*
X95780750Y-41172203D01*
X95795002Y-41195180D01*
X95811826Y-41214955D01*
X95852190Y-41244695D01*
X95901810Y-41261981D01*
X95947252Y-41266303D01*
X95947252Y-41381097D01*
X95910470Y-41379154D01*
X95875376Y-41373371D01*
X95842871Y-41364071D01*
X95812315Y-41351230D01*
X95784374Y-41335240D01*
X95758628Y-41315957D01*
X95735452Y-41293680D01*
X95714734Y-41268291D01*
X95696618Y-41239833D01*
X95681268Y-41208377D01*
X95659326Y-41135949D01*
X95650519Y-41050609D01*
X95650436Y-41040928D01*
X95652377Y-40995370D01*
X95658149Y-40952462D01*
X95667283Y-40913664D01*
X95679846Y-40877549D01*
X95695215Y-40845231D01*
X95713673Y-40815622D01*
X95734639Y-40789392D01*
X95758437Y-40765930D01*
X95784764Y-40745495D01*
X95813758Y-40727955D01*
X95879985Y-40701777D01*
X95957915Y-40688261D01*
X95997627Y-40686714D01*
X96339262Y-40686714D01*
X96379012Y-40688642D01*
G37*
G36*
X96449842Y-42015334D02*
G01*
X96650000Y-42015334D01*
X96650000Y-42128724D01*
X96449842Y-42128724D01*
X96449842Y-42296702D01*
X96347627Y-42296702D01*
X96347627Y-42128724D01*
X95670036Y-42128724D01*
X95670036Y-41995734D01*
X95738668Y-41995734D01*
X95738668Y-42015334D01*
X96347627Y-42015334D01*
X96347627Y-41617707D01*
X96330835Y-41617707D01*
X95738668Y-41995734D01*
X95670036Y-41995734D01*
X95670036Y-41915928D01*
X96315448Y-41504317D01*
X96449842Y-41504317D01*
X96449842Y-42015334D01*
G37*
G36*
X96449842Y-42889724D02*
G01*
X96650000Y-42889724D01*
X96650000Y-43003114D01*
X96449842Y-43003114D01*
X96449842Y-43171092D01*
X96347627Y-43171092D01*
X96347627Y-43003114D01*
X95670036Y-43003114D01*
X95670036Y-42870123D01*
X95738668Y-42870123D01*
X95738668Y-42889724D01*
X96347627Y-42889724D01*
X96347627Y-42492096D01*
X96330835Y-42492096D01*
X95738668Y-42870123D01*
X95670036Y-42870123D01*
X95670036Y-42790317D01*
X96315448Y-42378707D01*
X96449842Y-42378707D01*
X96449842Y-42889724D01*
G37*
G36*
X96340605Y-43318920D02*
G01*
X96340605Y-43733278D01*
X96238450Y-43733278D01*
X96238450Y-43318920D01*
X96340605Y-43318920D01*
G37*
G36*
X96650000Y-43919513D02*
G01*
X96650000Y-44612491D01*
X96547845Y-44612491D01*
X96547845Y-44034307D01*
X96524031Y-44034307D01*
X96489533Y-44036260D01*
X96459503Y-44042113D01*
X96435848Y-44050723D01*
X96415029Y-44062488D01*
X96380722Y-44095058D01*
X96350635Y-44145135D01*
X96318962Y-44227506D01*
X96312639Y-44247103D01*
X96288825Y-44322697D01*
X96266039Y-44387848D01*
X96239841Y-44446597D01*
X96217844Y-44485142D01*
X96193006Y-44519515D01*
X96169247Y-44545313D01*
X96142843Y-44567658D01*
X96116121Y-44584926D01*
X96086757Y-44598990D01*
X96055634Y-44609409D01*
X96021662Y-44616557D01*
X95962639Y-44620856D01*
X95950061Y-44620856D01*
X95914398Y-44618928D01*
X95880476Y-44613243D01*
X95848483Y-44603980D01*
X95818452Y-44591282D01*
X95764473Y-44555957D01*
X95719318Y-44507891D01*
X95684193Y-44447578D01*
X95660707Y-44375694D01*
X95650674Y-44293338D01*
X95650436Y-44277878D01*
X95652379Y-44234011D01*
X95658170Y-44192041D01*
X95667454Y-44153205D01*
X95680275Y-44116630D01*
X95696011Y-44083576D01*
X95714961Y-44053061D01*
X95736328Y-44026124D01*
X95760615Y-44001949D01*
X95787054Y-43981222D01*
X95816180Y-43963471D01*
X95847474Y-43949057D01*
X95881295Y-43937869D01*
X95917519Y-43930086D01*
X95956175Y-43925847D01*
X95982240Y-43925069D01*
X96000436Y-43925069D01*
X96000436Y-44037116D01*
X95980835Y-44037116D01*
X95945051Y-44039041D01*
X95912332Y-44044701D01*
X95883597Y-44053566D01*
X95857722Y-44065607D01*
X95835022Y-44080423D01*
X95815090Y-44098021D01*
X95783202Y-44141533D01*
X95762025Y-44196850D01*
X95752859Y-44265037D01*
X95752651Y-44277878D01*
X95754581Y-44313921D01*
X95760275Y-44347714D01*
X95769337Y-44378310D01*
X95781721Y-44406263D01*
X95796755Y-44430585D01*
X95814657Y-44451979D01*
X95834617Y-44469700D01*
X95857043Y-44484264D01*
X95881282Y-44495270D01*
X95907674Y-44502868D01*
X95952808Y-44507466D01*
X95958426Y-44507466D01*
X95991229Y-44505540D01*
X96020975Y-44499872D01*
X96046998Y-44490998D01*
X96070537Y-44478937D01*
X96111434Y-44445264D01*
X96146558Y-44396503D01*
X96177714Y-44327097D01*
X96188014Y-44296074D01*
X96211828Y-44219077D01*
X96237185Y-44145291D01*
X96266159Y-44080586D01*
X96287453Y-44044471D01*
X96311612Y-44012533D01*
X96334738Y-43988879D01*
X96360644Y-43968484D01*
X96387443Y-43952587D01*
X96417182Y-43939689D01*
X96485648Y-43923380D01*
X96547845Y-43919513D01*
X96650000Y-43919513D01*
G37*
G36*
X96326605Y-44775321D02*
G01*
X96374731Y-44781051D01*
X96417602Y-44790041D01*
X96457108Y-44802338D01*
X96492137Y-44817295D01*
X96524012Y-44835164D01*
X96552177Y-44855402D01*
X96577318Y-44878261D01*
X96618402Y-44931298D01*
X96647837Y-44994797D01*
X96665225Y-45069843D01*
X96669600Y-45137369D01*
X96667646Y-45183406D01*
X96661784Y-45226867D01*
X96652602Y-45265637D01*
X96639896Y-45301869D01*
X96624437Y-45334068D01*
X96605751Y-45363755D01*
X96584507Y-45390100D01*
X96560218Y-45413902D01*
X96533155Y-45434888D01*
X96503104Y-45453212D01*
X96433294Y-45481772D01*
X96349056Y-45498725D01*
X96274842Y-45502817D01*
X96045254Y-45502817D01*
X95993977Y-45500881D01*
X95946199Y-45495148D01*
X95903491Y-45486136D01*
X95864060Y-45473800D01*
X95829004Y-45458776D01*
X95797046Y-45440816D01*
X95768761Y-45420464D01*
X95743473Y-45397466D01*
X95702095Y-45344126D01*
X95672420Y-45280357D01*
X95654877Y-45205181D01*
X95650436Y-45137369D01*
X95752651Y-45137369D01*
X95754591Y-45174669D01*
X95760352Y-45209117D01*
X95769335Y-45239293D01*
X95781645Y-45266806D01*
X95796724Y-45290961D01*
X95814806Y-45312541D01*
X95859628Y-45347814D01*
X95917254Y-45372981D01*
X95989642Y-45387070D01*
X96038232Y-45389366D01*
X96280460Y-45389366D01*
X96326422Y-45387412D01*
X96368800Y-45381550D01*
X96404793Y-45372617D01*
X96437483Y-45360320D01*
X96464974Y-45345775D01*
X96489397Y-45328288D01*
X96509792Y-45308825D01*
X96527230Y-45286673D01*
X96552668Y-45235100D01*
X96565851Y-45171856D01*
X96567445Y-45137369D01*
X96565505Y-45099552D01*
X96559739Y-45064812D01*
X96550805Y-45034693D01*
X96538570Y-45007351D01*
X96523627Y-44983505D01*
X96505714Y-44962275D01*
X96461246Y-44927686D01*
X96403705Y-44902996D01*
X96330645Y-44889091D01*
X96280460Y-44886775D01*
X96038232Y-44886775D01*
X95993329Y-44888723D01*
X95951834Y-44894540D01*
X95916109Y-44903484D01*
X95883610Y-44915771D01*
X95856001Y-44930400D01*
X95831452Y-44947948D01*
X95810838Y-44967527D01*
X95793209Y-44989750D01*
X95767483Y-45041298D01*
X95754222Y-45103921D01*
X95752651Y-45137369D01*
X95650436Y-45137369D01*
X95652387Y-45092087D01*
X95658229Y-45049287D01*
X95667421Y-45010852D01*
X95680131Y-44974897D01*
X95695653Y-44942763D01*
X95714399Y-44913113D01*
X95735764Y-44886692D01*
X95760168Y-44862809D01*
X95817559Y-44823269D01*
X95887540Y-44794526D01*
X95971631Y-44777484D01*
X96045254Y-44773386D01*
X96274842Y-44773386D01*
X96326605Y-44775321D01*
G37*
G36*
X96650000Y-45660476D02*
G01*
X96650000Y-46353454D01*
X96547845Y-46353454D01*
X96547845Y-45775270D01*
X96524031Y-45775270D01*
X96489533Y-45777223D01*
X96459503Y-45783076D01*
X96435848Y-45791686D01*
X96415029Y-45803451D01*
X96380722Y-45836021D01*
X96350635Y-45886098D01*
X96318962Y-45968469D01*
X96312639Y-45988066D01*
X96288825Y-46063660D01*
X96266039Y-46128811D01*
X96239841Y-46187560D01*
X96217844Y-46226105D01*
X96193006Y-46260478D01*
X96169247Y-46286276D01*
X96142843Y-46308621D01*
X96116121Y-46325889D01*
X96086757Y-46339953D01*
X96055634Y-46350372D01*
X96021662Y-46357520D01*
X95962639Y-46361819D01*
X95950061Y-46361819D01*
X95914398Y-46359891D01*
X95880476Y-46354206D01*
X95848483Y-46344943D01*
X95818452Y-46332245D01*
X95764473Y-46296920D01*
X95719318Y-46248854D01*
X95684193Y-46188541D01*
X95660707Y-46116657D01*
X95650674Y-46034301D01*
X95650436Y-46018841D01*
X95652379Y-45974974D01*
X95658170Y-45933005D01*
X95667454Y-45894168D01*
X95680275Y-45857593D01*
X95696011Y-45824539D01*
X95714961Y-45794024D01*
X95736328Y-45767087D01*
X95760615Y-45742912D01*
X95787054Y-45722185D01*
X95816180Y-45704434D01*
X95847474Y-45690020D01*
X95881295Y-45678832D01*
X95917519Y-45671049D01*
X95956175Y-45666810D01*
X95982240Y-45666032D01*
X96000436Y-45666032D01*
X96000436Y-45778079D01*
X95980835Y-45778079D01*
X95945051Y-45780004D01*
X95912332Y-45785664D01*
X95883597Y-45794529D01*
X95857722Y-45806570D01*
X95835022Y-45821387D01*
X95815090Y-45838984D01*
X95783202Y-45882496D01*
X95762025Y-45937813D01*
X95752859Y-46006000D01*
X95752651Y-46018841D01*
X95754581Y-46054884D01*
X95760275Y-46088677D01*
X95769337Y-46119273D01*
X95781721Y-46147226D01*
X95796755Y-46171548D01*
X95814657Y-46192942D01*
X95834617Y-46210663D01*
X95857043Y-46225227D01*
X95881282Y-46236233D01*
X95907674Y-46243831D01*
X95952808Y-46248429D01*
X95958426Y-46248429D01*
X95991229Y-46246503D01*
X96020975Y-46240835D01*
X96046998Y-46231961D01*
X96070537Y-46219900D01*
X96111434Y-46186227D01*
X96146558Y-46137466D01*
X96177714Y-46068060D01*
X96188014Y-46037037D01*
X96211828Y-45960040D01*
X96237185Y-45886254D01*
X96266159Y-45821549D01*
X96287453Y-45785434D01*
X96311612Y-45753496D01*
X96334738Y-45729842D01*
X96360644Y-45709447D01*
X96387443Y-45693550D01*
X96417182Y-45680652D01*
X96485648Y-45664343D01*
X96547845Y-45660476D01*
X96650000Y-45660476D01*
G37*
G36*
X96669600Y-46853175D02*
G01*
X96667671Y-46896556D01*
X96661982Y-46937484D01*
X96652841Y-46975324D01*
X96640335Y-47010590D01*
X96624809Y-47042818D01*
X96606271Y-47072350D01*
X96585004Y-47098933D01*
X96561033Y-47122675D01*
X96505445Y-47161310D01*
X96440020Y-47187643D01*
X96365181Y-47200624D01*
X96333644Y-47201770D01*
X96318257Y-47201770D01*
X96277461Y-47199851D01*
X96239059Y-47194229D01*
X96203144Y-47185117D01*
X96169779Y-47172718D01*
X96138918Y-47157165D01*
X96110791Y-47138715D01*
X96062667Y-47093491D01*
X96026281Y-47038255D01*
X96002794Y-46974370D01*
X95993513Y-46903549D01*
X95993414Y-46895184D01*
X95995293Y-46855861D01*
X96000629Y-46820606D01*
X96009196Y-46788554D01*
X96020429Y-46760366D01*
X96050579Y-46712831D01*
X96089149Y-46677328D01*
X96111017Y-46664131D01*
X96111017Y-46644530D01*
X95772252Y-46644530D01*
X95772252Y-47175148D01*
X95670036Y-47175148D01*
X95670036Y-46531140D01*
X96200654Y-46531140D01*
X96200654Y-46685136D01*
X96166709Y-46706300D01*
X96133520Y-46737369D01*
X96117675Y-46759607D01*
X96104612Y-46786174D01*
X96096230Y-46813107D01*
X96091212Y-46843977D01*
X96090012Y-46869966D01*
X96091941Y-46902013D01*
X96097633Y-46932166D01*
X96106783Y-46959853D01*
X96119308Y-46985338D01*
X96134879Y-47008203D01*
X96153480Y-47028564D01*
X96174895Y-47046188D01*
X96199049Y-47060980D01*
X96255340Y-47081445D01*
X96319661Y-47088381D01*
X96332240Y-47088381D01*
X96368500Y-47086443D01*
X96402155Y-47080700D01*
X96431918Y-47071691D01*
X96459044Y-47059351D01*
X96482711Y-47044297D01*
X96503689Y-47026282D01*
X96536809Y-46982340D01*
X96558389Y-46927267D01*
X96567316Y-46860159D01*
X96567445Y-46850366D01*
X96565503Y-46813583D01*
X96559718Y-46779347D01*
X96550685Y-46749241D01*
X96538278Y-46721784D01*
X96523270Y-46698100D01*
X96505266Y-46677140D01*
X96484873Y-46659462D01*
X96461726Y-46644641D01*
X96407455Y-46624124D01*
X96341401Y-46616571D01*
X96339262Y-46616564D01*
X96326622Y-46616564D01*
X96326622Y-46501770D01*
X96343414Y-46501770D01*
X96382717Y-46503705D01*
X96420091Y-46509429D01*
X96454940Y-46518673D01*
X96487650Y-46531378D01*
X96517808Y-46547257D01*
X96545618Y-46566308D01*
X96593542Y-46613298D01*
X96630766Y-46671822D01*
X96656273Y-46741594D01*
X96668666Y-46822347D01*
X96669600Y-46853175D01*
G37*
G36*
X96340605Y-47379213D02*
G01*
X96340605Y-47793571D01*
X96238450Y-47793571D01*
X96238450Y-47379213D01*
X96340605Y-47379213D01*
G37*
G36*
X96650000Y-48265387D02*
G01*
X96650000Y-48378777D01*
X95670036Y-48378777D01*
X95670036Y-48164576D01*
X96094225Y-47930774D01*
X96094225Y-48053995D01*
X95745629Y-48244382D01*
X95745629Y-48265387D01*
X96650000Y-48265387D01*
G37*
G36*
X98033284Y-37834474D02*
G01*
X98073006Y-37840104D01*
X98110330Y-37849250D01*
X98145145Y-37861710D01*
X98177483Y-37877353D01*
X98207113Y-37895933D01*
X98258215Y-37941474D01*
X98297538Y-37997059D01*
X98323958Y-38061289D01*
X98336259Y-38132507D01*
X98337021Y-38155992D01*
X98335136Y-38196905D01*
X98329757Y-38233701D01*
X98321145Y-38267061D01*
X98309789Y-38296607D01*
X98279164Y-38346918D01*
X98239196Y-38386035D01*
X98209649Y-38405181D01*
X98209649Y-38424781D01*
X98470012Y-38424781D01*
X98486165Y-38422829D01*
X98498415Y-38416975D01*
X98510260Y-38398206D01*
X98512021Y-38382772D01*
X98512021Y-37947348D01*
X98610024Y-37947348D01*
X98610024Y-38412142D01*
X98608101Y-38438514D01*
X98602452Y-38461753D01*
X98593869Y-38480763D01*
X98582285Y-38496884D01*
X98551507Y-38519898D01*
X98509554Y-38531470D01*
X98489612Y-38532554D01*
X97645448Y-38532554D01*
X97645448Y-38427590D01*
X97758838Y-38427590D01*
X97758838Y-38407990D01*
X97730075Y-38389954D01*
X97702647Y-38366892D01*
X97681968Y-38343767D01*
X97663594Y-38316435D01*
X97649565Y-38287957D01*
X97638374Y-38255504D01*
X97630786Y-38220697D01*
X97626965Y-38185362D01*
X97723850Y-38185362D01*
X97725787Y-38219780D01*
X97731530Y-38252200D01*
X97740690Y-38281688D01*
X97753272Y-38308923D01*
X97768799Y-38333211D01*
X97787420Y-38355013D01*
X97808773Y-38373951D01*
X97832976Y-38390144D01*
X97889675Y-38413679D01*
X97957703Y-38424341D01*
X97975847Y-38424781D01*
X97987021Y-38424781D01*
X98024158Y-38422859D01*
X98058669Y-38417215D01*
X98089946Y-38408221D01*
X98118506Y-38395990D01*
X98143984Y-38380889D01*
X98166633Y-38362970D01*
X98203062Y-38319429D01*
X98227367Y-38266104D01*
X98238481Y-38203530D01*
X98239019Y-38185362D01*
X98237082Y-38150917D01*
X98231339Y-38118421D01*
X98222166Y-38088786D01*
X98209561Y-38061382D01*
X98194006Y-38036915D01*
X98175348Y-38014932D01*
X98153981Y-37995843D01*
X98129763Y-37979507D01*
X98102805Y-37966103D01*
X98073172Y-37955779D01*
X98005478Y-37945001D01*
X97987021Y-37944539D01*
X97975847Y-37944539D01*
X97938711Y-37946462D01*
X97904200Y-37952111D01*
X97872957Y-37961107D01*
X97844424Y-37973346D01*
X97818989Y-37988449D01*
X97796371Y-38006381D01*
X97759979Y-38049978D01*
X97735642Y-38103465D01*
X97724425Y-38166399D01*
X97723850Y-38185362D01*
X97626965Y-38185362D01*
X97626581Y-38181815D01*
X97625847Y-38155992D01*
X97627784Y-38118724D01*
X97633527Y-38082724D01*
X97642933Y-38048337D01*
X97655916Y-38015661D01*
X97672237Y-37985145D01*
X97691881Y-37956758D01*
X97714505Y-37930970D01*
X97740193Y-37907698D01*
X97768541Y-37887353D01*
X97799704Y-37869891D01*
X97833298Y-37855624D01*
X97869479Y-37844600D01*
X97907960Y-37837049D01*
X97948823Y-37833109D01*
X97971634Y-37832554D01*
X97991235Y-37832554D01*
X98033284Y-37834474D01*
G37*
G36*
X98006605Y-38734707D02*
G01*
X98054731Y-38740437D01*
X98097602Y-38749426D01*
X98137108Y-38761724D01*
X98172137Y-38776680D01*
X98204012Y-38794549D01*
X98232177Y-38814788D01*
X98257318Y-38837647D01*
X98298402Y-38890684D01*
X98327837Y-38954183D01*
X98345225Y-39029229D01*
X98349600Y-39096755D01*
X98347646Y-39142792D01*
X98341784Y-39186253D01*
X98332602Y-39225023D01*
X98319896Y-39261254D01*
X98304437Y-39293454D01*
X98285751Y-39323140D01*
X98264507Y-39349486D01*
X98240218Y-39373288D01*
X98213155Y-39394273D01*
X98183104Y-39412598D01*
X98113294Y-39441158D01*
X98029056Y-39458111D01*
X97954842Y-39462203D01*
X97725254Y-39462203D01*
X97673977Y-39460267D01*
X97626199Y-39454534D01*
X97583491Y-39445522D01*
X97544060Y-39433186D01*
X97509004Y-39418162D01*
X97477046Y-39400202D01*
X97448761Y-39379850D01*
X97423473Y-39356852D01*
X97382095Y-39303512D01*
X97352420Y-39239743D01*
X97334877Y-39164567D01*
X97330436Y-39096755D01*
X97432651Y-39096755D01*
X97434591Y-39134055D01*
X97440352Y-39168502D01*
X97449335Y-39198679D01*
X97461645Y-39226192D01*
X97476724Y-39250347D01*
X97494806Y-39271927D01*
X97539628Y-39307200D01*
X97597254Y-39332367D01*
X97669642Y-39346456D01*
X97718232Y-39348752D01*
X97960460Y-39348752D01*
X98006422Y-39346798D01*
X98048800Y-39340936D01*
X98084793Y-39332003D01*
X98117483Y-39319706D01*
X98144974Y-39305161D01*
X98169397Y-39287673D01*
X98189792Y-39268211D01*
X98207230Y-39246059D01*
X98232668Y-39194486D01*
X98245851Y-39131241D01*
X98247445Y-39096755D01*
X98245505Y-39058938D01*
X98239739Y-39024198D01*
X98230805Y-38994079D01*
X98218570Y-38966737D01*
X98203627Y-38942891D01*
X98185714Y-38921661D01*
X98141246Y-38887072D01*
X98083705Y-38862382D01*
X98010645Y-38848477D01*
X97960460Y-38846161D01*
X97718232Y-38846161D01*
X97673329Y-38848109D01*
X97631834Y-38853926D01*
X97596109Y-38862870D01*
X97563610Y-38875157D01*
X97536001Y-38889786D01*
X97511452Y-38907334D01*
X97490838Y-38926913D01*
X97473209Y-38949136D01*
X97447483Y-39000684D01*
X97434222Y-39063307D01*
X97432651Y-39096755D01*
X97330436Y-39096755D01*
X97332387Y-39051473D01*
X97338229Y-39008672D01*
X97347421Y-38970238D01*
X97360131Y-38934283D01*
X97375653Y-38902149D01*
X97394399Y-38872499D01*
X97415764Y-38846078D01*
X97440168Y-38822195D01*
X97497559Y-38782655D01*
X97567540Y-38753911D01*
X97651631Y-38736870D01*
X97725254Y-38732772D01*
X97954842Y-38732772D01*
X98006605Y-38734707D01*
G37*
G36*
X98349600Y-39968457D02*
G01*
X98347671Y-40011839D01*
X98341982Y-40052767D01*
X98332841Y-40090606D01*
X98320335Y-40125872D01*
X98304809Y-40158101D01*
X98286271Y-40187633D01*
X98265004Y-40214216D01*
X98241033Y-40237957D01*
X98185445Y-40276592D01*
X98120020Y-40302925D01*
X98045181Y-40315906D01*
X98013644Y-40317053D01*
X97998257Y-40317053D01*
X97957461Y-40315133D01*
X97919059Y-40309512D01*
X97883144Y-40300399D01*
X97849779Y-40288000D01*
X97818918Y-40272448D01*
X97790791Y-40253997D01*
X97742667Y-40208774D01*
X97706281Y-40153538D01*
X97682794Y-40089652D01*
X97673513Y-40018831D01*
X97673414Y-40010467D01*
X97675293Y-39971144D01*
X97680629Y-39935888D01*
X97689196Y-39903836D01*
X97700429Y-39875649D01*
X97730579Y-39828113D01*
X97769149Y-39792611D01*
X97791017Y-39779413D01*
X97791017Y-39759813D01*
X97452252Y-39759813D01*
X97452252Y-40290430D01*
X97350036Y-40290430D01*
X97350036Y-39646423D01*
X97880654Y-39646423D01*
X97880654Y-39800418D01*
X97846709Y-39821583D01*
X97813520Y-39852652D01*
X97797675Y-39874890D01*
X97784612Y-39901457D01*
X97776230Y-39928389D01*
X97771212Y-39959260D01*
X97770012Y-39985249D01*
X97771941Y-40017296D01*
X97777633Y-40047449D01*
X97786783Y-40075136D01*
X97799308Y-40100620D01*
X97814879Y-40123486D01*
X97833480Y-40143846D01*
X97854895Y-40161471D01*
X97879049Y-40176262D01*
X97935340Y-40196728D01*
X97999661Y-40203663D01*
X98012240Y-40203663D01*
X98048500Y-40201726D01*
X98082155Y-40195983D01*
X98111918Y-40186973D01*
X98139044Y-40174633D01*
X98162711Y-40159580D01*
X98183689Y-40141565D01*
X98216809Y-40097623D01*
X98238389Y-40042550D01*
X98247316Y-39975441D01*
X98247445Y-39965648D01*
X98245503Y-39928866D01*
X98239718Y-39894629D01*
X98230685Y-39864524D01*
X98218278Y-39837066D01*
X98203270Y-39813383D01*
X98185266Y-39792423D01*
X98164873Y-39774744D01*
X98141726Y-39759923D01*
X98087455Y-39739407D01*
X98021401Y-39731854D01*
X98019262Y-39731847D01*
X98006622Y-39731847D01*
X98006622Y-39617053D01*
X98023414Y-39617053D01*
X98062717Y-39618987D01*
X98100091Y-39624711D01*
X98134940Y-39633956D01*
X98167650Y-39646661D01*
X98197808Y-39662540D01*
X98225618Y-39681590D01*
X98273542Y-39728581D01*
X98310766Y-39787105D01*
X98336273Y-39856877D01*
X98348666Y-39937629D01*
X98349600Y-39968457D01*
G37*
G36*
X98020605Y-40494495D02*
G01*
X98020605Y-40908853D01*
X97918450Y-40908853D01*
X97918450Y-40494495D01*
X98020605Y-40494495D01*
G37*
G36*
X98330000Y-41137098D02*
G01*
X98330000Y-41247679D01*
X97912833Y-41247679D01*
X97880343Y-41249601D01*
X97851399Y-41255242D01*
X97827152Y-41263871D01*
X97806046Y-41275523D01*
X97788459Y-41289642D01*
X97773807Y-41306330D01*
X97752942Y-41347592D01*
X97743727Y-41400777D01*
X97743450Y-41412848D01*
X97743450Y-41501081D01*
X97642639Y-41501081D01*
X97642639Y-41419870D01*
X97644620Y-41383541D01*
X97650668Y-41351956D01*
X97659238Y-41328453D01*
X97671031Y-41308186D01*
X97684984Y-41292131D01*
X97701896Y-41278669D01*
X97729467Y-41264471D01*
X97729467Y-41244870D01*
X97645448Y-41244870D01*
X97645448Y-41137098D01*
X98330000Y-41137098D01*
G37*
G36*
X98342639Y-41926430D02*
G01*
X98340748Y-41966872D01*
X98335329Y-42002958D01*
X98326775Y-42034895D01*
X98315458Y-42062982D01*
X98285162Y-42109627D01*
X98245329Y-42145127D01*
X98213801Y-42163040D01*
X98213801Y-42182641D01*
X98330000Y-42182641D01*
X98330000Y-42290413D01*
X97645448Y-42290413D01*
X97645448Y-42179832D01*
X97989830Y-42179832D01*
X98030454Y-42177911D01*
X98067622Y-42172282D01*
X98100388Y-42163457D01*
X98129871Y-42151506D01*
X98155517Y-42136968D01*
X98177996Y-42119785D01*
X98213211Y-42078468D01*
X98236003Y-42027961D01*
X98245776Y-41968163D01*
X98246041Y-41955800D01*
X98244066Y-41920589D01*
X98238056Y-41888469D01*
X98229138Y-41862481D01*
X98216786Y-41839287D01*
X98202209Y-41820432D01*
X98184537Y-41804217D01*
X98140942Y-41780649D01*
X98083339Y-41768273D01*
X98051441Y-41766817D01*
X97645448Y-41766817D01*
X97645448Y-41656236D01*
X98059806Y-41656236D01*
X98099129Y-41658155D01*
X98135656Y-41663771D01*
X98168995Y-41672755D01*
X98199526Y-41684944D01*
X98227146Y-41700093D01*
X98251900Y-41718026D01*
X98292983Y-41761868D01*
X98322427Y-41815740D01*
X98339214Y-41878911D01*
X98342639Y-41926430D01*
G37*
G36*
X98330000Y-42521467D02*
G01*
X98330000Y-42632048D01*
X97350036Y-42632048D01*
X97350036Y-42521467D01*
X98330000Y-42521467D01*
G37*
G36*
X98039314Y-42832671D02*
G01*
X98079664Y-42838378D01*
X98117325Y-42847596D01*
X98152657Y-42860243D01*
X98185171Y-42875995D01*
X98215148Y-42894850D01*
X98242246Y-42916493D01*
X98266597Y-42940947D01*
X98288009Y-42967996D01*
X98306442Y-42997597D01*
X98333929Y-43064145D01*
X98347998Y-43140084D01*
X98349600Y-43177930D01*
X98347706Y-43219946D01*
X98342263Y-43258244D01*
X98333493Y-43293463D01*
X98321819Y-43325260D01*
X98289792Y-43381413D01*
X98246637Y-43428540D01*
X98192079Y-43467760D01*
X98160617Y-43484516D01*
X98114455Y-43389323D01*
X98148224Y-43371972D01*
X98178957Y-43350431D01*
X98200114Y-43330244D01*
X98218304Y-43306656D01*
X98231562Y-43282570D01*
X98241750Y-43255245D01*
X98248307Y-43225812D01*
X98251432Y-43192938D01*
X98251659Y-43180739D01*
X98249723Y-43146609D01*
X98243992Y-43114366D01*
X98234810Y-43084827D01*
X98222201Y-43057501D01*
X98206628Y-43033071D01*
X98187966Y-43011146D01*
X98166639Y-42992165D01*
X98142501Y-42975981D01*
X98115753Y-42962820D01*
X98086402Y-42952793D01*
X98054332Y-42946047D01*
X98019817Y-42942838D01*
X98016453Y-42942725D01*
X98016453Y-43499965D01*
X97966017Y-43499965D01*
X97923593Y-43498036D01*
X97883518Y-43492349D01*
X97846365Y-43483195D01*
X97811716Y-43470668D01*
X97779999Y-43455096D01*
X97750942Y-43436503D01*
X97724789Y-43415161D01*
X97701468Y-43391109D01*
X97663700Y-43335374D01*
X97638358Y-43269916D01*
X97626546Y-43195281D01*
X97625847Y-43170969D01*
X97723850Y-43170969D01*
X97725786Y-43204562D01*
X97731527Y-43235973D01*
X97740613Y-43264126D01*
X97753075Y-43289874D01*
X97768343Y-43312444D01*
X97786629Y-43332412D01*
X97807522Y-43349389D01*
X97831180Y-43363525D01*
X97886636Y-43382689D01*
X97925411Y-43387918D01*
X97925411Y-42944129D01*
X97891181Y-42950607D01*
X97859829Y-42960518D01*
X97832235Y-42973292D01*
X97807544Y-42989038D01*
X97786248Y-43007231D01*
X97767920Y-43028033D01*
X97740596Y-43076772D01*
X97725993Y-43135281D01*
X97723850Y-43170969D01*
X97625847Y-43170969D01*
X97627778Y-43131247D01*
X97633481Y-43093320D01*
X97642759Y-43057519D01*
X97655498Y-43023786D01*
X97671498Y-42992380D01*
X97690666Y-42963315D01*
X97737907Y-42912839D01*
X97765784Y-42891643D01*
X97796298Y-42873363D01*
X97829460Y-42858088D01*
X97865011Y-42846044D01*
X97903039Y-42837339D01*
X97943209Y-42832198D01*
X97980061Y-42830739D01*
X97996852Y-42830739D01*
X98039314Y-42832671D01*
G37*
G36*
X98330000Y-43916460D02*
G01*
X98330000Y-44098482D01*
X98233401Y-44098482D01*
X98233401Y-43945891D01*
X98231448Y-43929315D01*
X98225586Y-43917415D01*
X98207301Y-43906848D01*
X98191453Y-43905286D01*
X97742046Y-43905286D01*
X97742046Y-44129317D01*
X97645448Y-44129317D01*
X97645448Y-43905286D01*
X97401816Y-43905286D01*
X97401816Y-43794705D01*
X97645448Y-43794705D01*
X97645448Y-43588869D01*
X97742046Y-43588869D01*
X97742046Y-43794705D01*
X98209649Y-43794705D01*
X98235615Y-43796643D01*
X98258858Y-43802396D01*
X98277937Y-43811134D01*
X98294302Y-43823044D01*
X98307328Y-43837418D01*
X98317547Y-43854587D01*
X98329037Y-43897498D01*
X98330000Y-43916460D01*
G37*
G36*
X98165965Y-44259159D02*
G01*
X98194299Y-44264782D01*
X98220259Y-44273836D01*
X98243985Y-44286142D01*
X98285091Y-44320299D01*
X98317381Y-44367169D01*
X98339530Y-44426881D01*
X98349336Y-44498789D01*
X98349600Y-44513450D01*
X98347722Y-44552821D01*
X98342393Y-44587627D01*
X98333944Y-44618564D01*
X98322896Y-44645479D01*
X98293256Y-44690505D01*
X98254324Y-44725385D01*
X98227845Y-44741634D01*
X98227845Y-44758426D01*
X98234806Y-44758426D01*
X98256041Y-44760340D01*
X98274948Y-44765923D01*
X98290954Y-44774653D01*
X98304437Y-44786412D01*
X98323260Y-44818294D01*
X98330000Y-44860642D01*
X98330000Y-44957240D01*
X98236210Y-44957240D01*
X98236210Y-44894225D01*
X98234256Y-44879495D01*
X98228394Y-44868070D01*
X98209020Y-44856597D01*
X98194262Y-44855024D01*
X97884806Y-44855024D01*
X97847161Y-44853087D01*
X97812183Y-44847342D01*
X97781119Y-44838315D01*
X97752667Y-44825947D01*
X97727538Y-44810775D01*
X97705019Y-44792603D01*
X97668278Y-44747914D01*
X97642300Y-44691393D01*
X97628033Y-44621913D01*
X97625847Y-44577808D01*
X97627759Y-44536412D01*
X97633326Y-44498272D01*
X97642223Y-44463551D01*
X97654228Y-44431909D01*
X97686896Y-44377178D01*
X97730513Y-44333085D01*
X97784815Y-44299485D01*
X97834431Y-44281053D01*
X97868014Y-44384612D01*
X97837498Y-44393922D01*
X97809845Y-44406758D01*
X97787446Y-44421587D01*
X97767899Y-44439514D01*
X97752340Y-44459258D01*
X97739695Y-44481888D01*
X97730306Y-44506966D01*
X97724087Y-44534961D01*
X97721041Y-44576404D01*
X97722968Y-44609941D01*
X97728642Y-44639758D01*
X97737247Y-44664399D01*
X97748886Y-44685772D01*
X97762826Y-44703260D01*
X97779334Y-44717737D01*
X97819793Y-44737753D01*
X97871868Y-44745775D01*
X97877845Y-44745847D01*
X97928220Y-44745847D01*
X97928220Y-44519007D01*
X98017857Y-44519007D01*
X98017857Y-44745847D01*
X98033244Y-44745847D01*
X98068015Y-44743922D01*
X98100094Y-44738259D01*
X98128662Y-44729317D01*
X98154519Y-44717152D01*
X98177234Y-44702192D01*
X98197175Y-44684416D01*
X98228461Y-44640971D01*
X98247989Y-44586928D01*
X98254406Y-44526029D01*
X98252474Y-44493038D01*
X98246766Y-44463181D01*
X98238067Y-44438244D01*
X98226252Y-44416640D01*
X98212541Y-44399751D01*
X98196311Y-44386206D01*
X98178602Y-44376619D01*
X98158767Y-44370449D01*
X98132651Y-44367821D01*
X98110381Y-44369735D01*
X98090534Y-44375318D01*
X98058648Y-44395968D01*
X98035296Y-44429342D01*
X98021023Y-44477131D01*
X98017857Y-44519007D01*
X97928220Y-44519007D01*
X97928220Y-44514855D01*
X97930175Y-44472991D01*
X97936046Y-44433613D01*
X97945135Y-44399249D01*
X97957694Y-44367785D01*
X97972466Y-44341463D01*
X97990239Y-44318208D01*
X98009586Y-44299472D01*
X98031567Y-44283882D01*
X98055135Y-44272088D01*
X98081135Y-44263593D01*
X98135460Y-44257240D01*
X98165965Y-44259159D01*
G37*
M02*
