%TF.GenerationSoftware,KiCad,Pcbnew,9.0.2*%
%TF.CreationDate,2025-06-20T15:17:17-04:00*%
%TF.ProjectId,proyecto_spectra,70726f79-6563-4746-9f5f-737065637472,rev?*%
%TF.SameCoordinates,Original*%
%TF.FileFunction,Soldermask,Top*%
%TF.FilePolarity,Negative*%
%FSLAX46Y46*%
G04 Gerber Fmt 4.6, Leading zero omitted, Abs format (unit mm)*
G04 Created by KiCad (PCBNEW 9.0.2) date 2025-06-20 15:17:17*
%MOMM*%
%LPD*%
G01*
G04 APERTURE LIST*
G04 Aperture macros list*
%AMRoundRect*
0 Rectangle with rounded corners*
0 $1 Rounding radius*
0 $2 $3 $4 $5 $6 $7 $8 $9 X,Y pos of 4 corners*
0 Add a 4 corners polygon primitive as box body*
4,1,4,$2,$3,$4,$5,$6,$7,$8,$9,$2,$3,0*
0 Add four circle primitives for the rounded corners*
1,1,$1+$1,$2,$3*
1,1,$1+$1,$4,$5*
1,1,$1+$1,$6,$7*
1,1,$1+$1,$8,$9*
0 Add four rect primitives between the rounded corners*
20,1,$1+$1,$2,$3,$4,$5,0*
20,1,$1+$1,$4,$5,$6,$7,0*
20,1,$1+$1,$6,$7,$8,$9,0*
20,1,$1+$1,$8,$9,$2,$3,0*%
G04 Aperture macros list end*
%ADD10C,0.100000*%
%ADD11C,2.100000*%
%ADD12C,1.400000*%
%ADD13O,1.400000X1.400000*%
%ADD14R,1.800000X1.800000*%
%ADD15C,1.800000*%
%ADD16R,1.200000X1.200000*%
%ADD17C,1.200000*%
%ADD18RoundRect,0.250000X-0.550000X-0.550000X0.550000X-0.550000X0.550000X0.550000X-0.550000X0.550000X0*%
%ADD19C,1.600000*%
%ADD20R,1.500000X1.500000*%
%ADD21R,2.200000X2.200000*%
%ADD22O,2.200000X2.200000*%
%ADD23C,2.340000*%
%ADD24RoundRect,0.250000X-0.250000X0.250000X-0.250000X-0.250000X0.250000X-0.250000X0.250000X0.250000X0*%
%ADD25C,1.000000*%
%ADD26RoundRect,0.250001X1.149999X1.149999X-1.149999X1.149999X-1.149999X-1.149999X1.149999X-1.149999X0*%
%ADD27C,2.800000*%
G04 APERTURE END LIST*
D10*
X53303884Y-58372419D02*
X53303884Y-57372419D01*
X53303884Y-57372419D02*
X53541979Y-57372419D01*
X53541979Y-57372419D02*
X53684836Y-57420038D01*
X53684836Y-57420038D02*
X53780074Y-57515276D01*
X53780074Y-57515276D02*
X53827693Y-57610514D01*
X53827693Y-57610514D02*
X53875312Y-57800990D01*
X53875312Y-57800990D02*
X53875312Y-57943847D01*
X53875312Y-57943847D02*
X53827693Y-58134323D01*
X53827693Y-58134323D02*
X53780074Y-58229561D01*
X53780074Y-58229561D02*
X53684836Y-58324800D01*
X53684836Y-58324800D02*
X53541979Y-58372419D01*
X53541979Y-58372419D02*
X53303884Y-58372419D01*
X54303884Y-58372419D02*
X54303884Y-57372419D01*
X54732455Y-58324800D02*
X54875312Y-58372419D01*
X54875312Y-58372419D02*
X55113407Y-58372419D01*
X55113407Y-58372419D02*
X55208645Y-58324800D01*
X55208645Y-58324800D02*
X55256264Y-58277180D01*
X55256264Y-58277180D02*
X55303883Y-58181942D01*
X55303883Y-58181942D02*
X55303883Y-58086704D01*
X55303883Y-58086704D02*
X55256264Y-57991466D01*
X55256264Y-57991466D02*
X55208645Y-57943847D01*
X55208645Y-57943847D02*
X55113407Y-57896228D01*
X55113407Y-57896228D02*
X54922931Y-57848609D01*
X54922931Y-57848609D02*
X54827693Y-57800990D01*
X54827693Y-57800990D02*
X54780074Y-57753371D01*
X54780074Y-57753371D02*
X54732455Y-57658133D01*
X54732455Y-57658133D02*
X54732455Y-57562895D01*
X54732455Y-57562895D02*
X54780074Y-57467657D01*
X54780074Y-57467657D02*
X54827693Y-57420038D01*
X54827693Y-57420038D02*
X54922931Y-57372419D01*
X54922931Y-57372419D02*
X55161026Y-57372419D01*
X55161026Y-57372419D02*
X55303883Y-57420038D01*
X55875312Y-57800990D02*
X55780074Y-57753371D01*
X55780074Y-57753371D02*
X55732455Y-57705752D01*
X55732455Y-57705752D02*
X55684836Y-57610514D01*
X55684836Y-57610514D02*
X55684836Y-57562895D01*
X55684836Y-57562895D02*
X55732455Y-57467657D01*
X55732455Y-57467657D02*
X55780074Y-57420038D01*
X55780074Y-57420038D02*
X55875312Y-57372419D01*
X55875312Y-57372419D02*
X56065788Y-57372419D01*
X56065788Y-57372419D02*
X56161026Y-57420038D01*
X56161026Y-57420038D02*
X56208645Y-57467657D01*
X56208645Y-57467657D02*
X56256264Y-57562895D01*
X56256264Y-57562895D02*
X56256264Y-57610514D01*
X56256264Y-57610514D02*
X56208645Y-57705752D01*
X56208645Y-57705752D02*
X56161026Y-57753371D01*
X56161026Y-57753371D02*
X56065788Y-57800990D01*
X56065788Y-57800990D02*
X55875312Y-57800990D01*
X55875312Y-57800990D02*
X55780074Y-57848609D01*
X55780074Y-57848609D02*
X55732455Y-57896228D01*
X55732455Y-57896228D02*
X55684836Y-57991466D01*
X55684836Y-57991466D02*
X55684836Y-58181942D01*
X55684836Y-58181942D02*
X55732455Y-58277180D01*
X55732455Y-58277180D02*
X55780074Y-58324800D01*
X55780074Y-58324800D02*
X55875312Y-58372419D01*
X55875312Y-58372419D02*
X56065788Y-58372419D01*
X56065788Y-58372419D02*
X56161026Y-58324800D01*
X56161026Y-58324800D02*
X56208645Y-58277180D01*
X56208645Y-58277180D02*
X56256264Y-58181942D01*
X56256264Y-58181942D02*
X56256264Y-57991466D01*
X56256264Y-57991466D02*
X56208645Y-57896228D01*
X56208645Y-57896228D02*
X56161026Y-57848609D01*
X56161026Y-57848609D02*
X56065788Y-57800990D01*
X57113407Y-57372419D02*
X56922931Y-57372419D01*
X56922931Y-57372419D02*
X56827693Y-57420038D01*
X56827693Y-57420038D02*
X56780074Y-57467657D01*
X56780074Y-57467657D02*
X56684836Y-57610514D01*
X56684836Y-57610514D02*
X56637217Y-57800990D01*
X56637217Y-57800990D02*
X56637217Y-58181942D01*
X56637217Y-58181942D02*
X56684836Y-58277180D01*
X56684836Y-58277180D02*
X56732455Y-58324800D01*
X56732455Y-58324800D02*
X56827693Y-58372419D01*
X56827693Y-58372419D02*
X57018169Y-58372419D01*
X57018169Y-58372419D02*
X57113407Y-58324800D01*
X57113407Y-58324800D02*
X57161026Y-58277180D01*
X57161026Y-58277180D02*
X57208645Y-58181942D01*
X57208645Y-58181942D02*
X57208645Y-57943847D01*
X57208645Y-57943847D02*
X57161026Y-57848609D01*
X57161026Y-57848609D02*
X57113407Y-57800990D01*
X57113407Y-57800990D02*
X57018169Y-57753371D01*
X57018169Y-57753371D02*
X56827693Y-57753371D01*
X56827693Y-57753371D02*
X56732455Y-57800990D01*
X56732455Y-57800990D02*
X56684836Y-57848609D01*
X56684836Y-57848609D02*
X56637217Y-57943847D01*
X58065788Y-57705752D02*
X58065788Y-58372419D01*
X57827693Y-57324800D02*
X57589598Y-58039085D01*
X57589598Y-58039085D02*
X58208645Y-58039085D01*
X59018169Y-57705752D02*
X59018169Y-58372419D01*
X58780074Y-57324800D02*
X58541979Y-58039085D01*
X58541979Y-58039085D02*
X59161026Y-58039085D01*
D11*
%TO.C,H2*%
X141000000Y-100500000D03*
%TD*%
D12*
%TO.C,R8*%
X136000000Y-95000000D03*
D13*
X136000000Y-100080000D03*
%TD*%
D14*
%TO.C,D3*%
X99960000Y-83500000D03*
D15*
X102500000Y-83500000D03*
%TD*%
D16*
%TO.C,C2*%
X87500000Y-57472600D03*
D17*
X87500000Y-55472600D03*
%TD*%
D12*
%TO.C,R15*%
X113000000Y-60920000D03*
D13*
X113000000Y-66000000D03*
%TD*%
D12*
%TO.C,R7*%
X119253000Y-100330000D03*
D13*
X119253000Y-95250000D03*
%TD*%
D12*
%TO.C,R12*%
X122080000Y-87000000D03*
D13*
X117000000Y-87000000D03*
%TD*%
D12*
%TO.C,R5*%
X75420000Y-64000000D03*
D13*
X80500000Y-64000000D03*
%TD*%
D14*
%TO.C,D5*%
X95960000Y-73500000D03*
D15*
X98500000Y-73500000D03*
%TD*%
D14*
%TO.C,D7*%
X113960000Y-73500000D03*
D15*
X116500000Y-73500000D03*
%TD*%
D12*
%TO.C,R14*%
X104000000Y-60920000D03*
D13*
X104000000Y-66000000D03*
%TD*%
D11*
%TO.C,H1*%
X141000000Y-54000000D03*
%TD*%
D18*
%TO.C,U1*%
X75697000Y-72000000D03*
D19*
X75697000Y-74540000D03*
X75697000Y-77080000D03*
X75697000Y-79620000D03*
X75697000Y-82160000D03*
X75697000Y-84700000D03*
X75697000Y-87240000D03*
X83317000Y-87240000D03*
X83317000Y-84700000D03*
X83317000Y-82160000D03*
X83317000Y-79620000D03*
X83317000Y-77080000D03*
X83317000Y-74540000D03*
X83317000Y-72000000D03*
%TD*%
D20*
%TO.C,SW1*%
X112435000Y-53729966D03*
X114975000Y-53729966D03*
X117515000Y-53729966D03*
%TD*%
D12*
%TO.C,R13*%
X95000000Y-60920000D03*
D13*
X95000000Y-66000000D03*
%TD*%
D12*
%TO.C,R9*%
X89500000Y-71500000D03*
D13*
X89500000Y-76580000D03*
%TD*%
D12*
%TO.C,R11*%
X122080000Y-81500000D03*
D13*
X117000000Y-81500000D03*
%TD*%
D11*
%TO.C,H3*%
X54000000Y-54000000D03*
%TD*%
D21*
%TO.C,D9*%
X139500000Y-65000000D03*
D22*
X129340000Y-65000000D03*
%TD*%
D12*
%TO.C,R16*%
X122000000Y-60920000D03*
D13*
X122000000Y-66000000D03*
%TD*%
D14*
%TO.C,D6*%
X104960000Y-73500000D03*
D15*
X107500000Y-73500000D03*
%TD*%
D23*
%TO.C,RV2*%
X63025000Y-101500000D03*
X68025000Y-101500000D03*
X73025000Y-101500000D03*
%TD*%
D24*
%TO.C,MK1*%
X56388000Y-75565000D03*
D25*
X56388000Y-77465000D03*
%TD*%
D11*
%TO.C,H4*%
X54000000Y-100500000D03*
%TD*%
D12*
%TO.C,R3*%
X63920000Y-64000000D03*
D13*
X69000000Y-64000000D03*
%TD*%
D12*
%TO.C,R10*%
X89500000Y-86000000D03*
D13*
X89500000Y-80920000D03*
%TD*%
D12*
%TO.C,R6*%
X97000000Y-92500000D03*
D13*
X91920000Y-92500000D03*
%TD*%
D21*
%TO.C,D1*%
X89662000Y-100500000D03*
D22*
X99822000Y-100500000D03*
%TD*%
D14*
%TO.C,D8*%
X123000000Y-73500000D03*
D15*
X125540000Y-73500000D03*
%TD*%
D26*
%TO.C,J1*%
X131953000Y-55032500D03*
D27*
X126953000Y-55032500D03*
%TD*%
D16*
%TO.C,C3*%
X127000000Y-99000000D03*
D17*
X129000000Y-99000000D03*
%TD*%
D12*
%TO.C,R2*%
X64000000Y-89000000D03*
D13*
X69080000Y-89000000D03*
%TD*%
D12*
%TO.C,R4*%
X70104000Y-78580000D03*
D13*
X70104000Y-73500000D03*
%TD*%
D12*
%TO.C,R1*%
X64000000Y-73500000D03*
D13*
X64000000Y-78580000D03*
%TD*%
D14*
%TO.C,D4*%
X109000000Y-83500000D03*
D15*
X111540000Y-83500000D03*
%TD*%
D16*
%TO.C,C1*%
X55500000Y-88000000D03*
D17*
X55500000Y-90000000D03*
%TD*%
D23*
%TO.C,RV1*%
X74000000Y-52750000D03*
X69000000Y-52750000D03*
X64000000Y-52750000D03*
%TD*%
D18*
%TO.C,U6*%
X132000000Y-71247000D03*
D19*
X132000000Y-73787000D03*
X132000000Y-76327000D03*
X132000000Y-78867000D03*
X132000000Y-81407000D03*
X132000000Y-83947000D03*
X132000000Y-86487000D03*
X132000000Y-89027000D03*
X139620000Y-89027000D03*
X139620000Y-86487000D03*
X139620000Y-83947000D03*
X139620000Y-81407000D03*
X139620000Y-78867000D03*
X139620000Y-76327000D03*
X139620000Y-73787000D03*
X139620000Y-71247000D03*
%TD*%
D21*
%TO.C,D2*%
X108500000Y-100660000D03*
D22*
X108500000Y-90500000D03*
%TD*%
M02*
