%TF.GenerationSoftware,KiCad,Pcbnew,9.0.2*%
%TF.CreationDate,2025-06-20T15:29:42-04:00*%
%TF.ProjectId,proyecto02,70726f79-6563-4746-9f30-322e6b696361,rev?*%
%TF.SameCoordinates,Original*%
%TF.FileFunction,Legend,Bot*%
%TF.FilePolarity,Positive*%
%FSLAX46Y46*%
G04 Gerber Fmt 4.6, Leading zero omitted, Abs format (unit mm)*
G04 Created by KiCad (PCBNEW 9.0.2) date 2025-06-20 15:29:42*
%MOMM*%
%LPD*%
G01*
G04 APERTURE LIST*
%ADD10C,0.000000*%
%ADD11C,0.300000*%
G04 APERTURE END LIST*
D10*
G36*
X40202438Y-107500000D02*
G01*
X39750000Y-107500000D01*
X39750000Y-107023750D01*
X40202438Y-107023750D01*
X40202438Y-107500000D01*
G37*
G36*
X42035352Y-114120010D02*
G01*
X42035285Y-114119875D01*
X42035523Y-114119875D01*
X42035352Y-114120010D01*
G37*
G36*
X42809312Y-114091364D02*
G01*
X42835178Y-114092703D01*
X42860885Y-114095086D01*
X42886382Y-114098515D01*
X42911616Y-114102993D01*
X42936536Y-114108521D01*
X42961090Y-114115100D01*
X42985226Y-114122733D01*
X43008892Y-114131420D01*
X43032035Y-114141163D01*
X43054604Y-114151965D01*
X43076547Y-114163827D01*
X43097812Y-114176750D01*
X43118347Y-114190736D01*
X43138100Y-114205787D01*
X43157018Y-114221904D01*
X43175051Y-114239089D01*
X43192146Y-114257344D01*
X43208251Y-114276671D01*
X43223314Y-114297070D01*
X43237283Y-114318544D01*
X43250106Y-114341095D01*
X43261731Y-114364724D01*
X43272107Y-114389432D01*
X43023504Y-114573265D01*
X42988500Y-114561596D01*
X42973586Y-114535570D01*
X42958534Y-114512587D01*
X42943350Y-114492516D01*
X42928036Y-114475223D01*
X42912595Y-114460576D01*
X42897031Y-114448440D01*
X42881347Y-114438684D01*
X42865546Y-114431175D01*
X42849631Y-114425779D01*
X42833605Y-114422363D01*
X42817472Y-114420795D01*
X42801236Y-114420942D01*
X42784898Y-114422670D01*
X42768463Y-114425847D01*
X42751934Y-114430340D01*
X42735313Y-114436016D01*
X42718605Y-114442741D01*
X42701812Y-114450384D01*
X42667984Y-114467888D01*
X42599455Y-114508052D01*
X42564806Y-114528584D01*
X42529933Y-114547998D01*
X42494864Y-114565230D01*
X42477264Y-114572696D01*
X42459624Y-114579218D01*
X42432781Y-114587822D01*
X42406148Y-114595375D01*
X42379734Y-114601879D01*
X42353550Y-114607337D01*
X42327604Y-114611750D01*
X42301906Y-114615120D01*
X42276465Y-114617451D01*
X42251291Y-114618743D01*
X42226392Y-114619000D01*
X42201779Y-114618224D01*
X42177460Y-114616416D01*
X42153446Y-114613579D01*
X42129745Y-114609716D01*
X42106366Y-114604828D01*
X42083320Y-114598918D01*
X42060616Y-114591988D01*
X42038262Y-114584039D01*
X42016269Y-114575076D01*
X41994645Y-114565099D01*
X41973400Y-114554110D01*
X41952544Y-114542113D01*
X41932086Y-114529109D01*
X41912034Y-114515101D01*
X41892399Y-114500090D01*
X41873191Y-114484079D01*
X41854417Y-114467070D01*
X41836088Y-114449066D01*
X41818213Y-114430069D01*
X41800802Y-114410080D01*
X41783863Y-114389102D01*
X41767406Y-114367138D01*
X41751441Y-114344189D01*
X42035352Y-114120010D01*
X42050766Y-114150985D01*
X42066353Y-114178562D01*
X42082048Y-114202758D01*
X42097847Y-114223729D01*
X42113750Y-114241627D01*
X42129756Y-114256607D01*
X42145864Y-114268824D01*
X42162072Y-114278429D01*
X42178379Y-114285579D01*
X42194783Y-114290426D01*
X42211285Y-114293125D01*
X42227882Y-114293828D01*
X42244573Y-114292692D01*
X42261357Y-114289868D01*
X42278232Y-114285512D01*
X42295198Y-114279776D01*
X42312254Y-114272816D01*
X42329398Y-114264784D01*
X42363944Y-114246123D01*
X42398828Y-114225025D01*
X42434040Y-114202720D01*
X42469570Y-114180441D01*
X42505409Y-114159418D01*
X42541546Y-114140882D01*
X42559723Y-114132932D01*
X42577972Y-114126066D01*
X42602924Y-114118075D01*
X42628185Y-114111114D01*
X42653704Y-114105185D01*
X42679428Y-114100288D01*
X42705306Y-114096427D01*
X42731285Y-114093602D01*
X42757314Y-114091816D01*
X42783340Y-114091069D01*
X42809312Y-114091364D01*
G37*
G36*
X40821563Y-108285812D02*
G01*
X40131000Y-108285812D01*
X40131000Y-109666937D01*
X40893000Y-109666937D01*
X40893000Y-110000313D01*
X38988001Y-110000313D01*
X38988001Y-109666937D01*
X39773813Y-109666937D01*
X39773813Y-107976250D01*
X40821563Y-107976250D01*
X40821563Y-108285812D01*
G37*
G36*
X42529441Y-115046407D02*
G01*
X42573552Y-115050899D01*
X42617375Y-115057863D01*
X42660777Y-115067297D01*
X42703620Y-115079200D01*
X42745771Y-115093572D01*
X42787094Y-115110412D01*
X42827452Y-115129717D01*
X42866711Y-115151489D01*
X42904736Y-115175725D01*
X42941391Y-115202424D01*
X42976541Y-115231586D01*
X43010050Y-115263209D01*
X43041782Y-115297293D01*
X43071604Y-115333836D01*
X43095606Y-115294842D01*
X43121551Y-115254410D01*
X43147853Y-115214587D01*
X43172926Y-115177418D01*
X43213050Y-115119223D01*
X43229243Y-115096188D01*
X43464511Y-115096188D01*
X43464511Y-117120250D01*
X43085654Y-117120250D01*
X43085654Y-116032971D01*
X43083519Y-115961152D01*
X43080852Y-115926464D01*
X43077117Y-115892621D01*
X43072315Y-115859647D01*
X43066448Y-115827564D01*
X43059513Y-115796397D01*
X43051513Y-115766167D01*
X43042447Y-115736899D01*
X43032314Y-115708616D01*
X43021117Y-115681340D01*
X43008853Y-115655095D01*
X42995525Y-115629905D01*
X42981131Y-115605791D01*
X42965673Y-115582778D01*
X42949149Y-115560889D01*
X42931561Y-115540147D01*
X42912909Y-115520575D01*
X42893192Y-115502196D01*
X42872412Y-115485033D01*
X42850567Y-115469111D01*
X42827659Y-115454451D01*
X42803687Y-115441077D01*
X42778652Y-115429013D01*
X42752554Y-115418281D01*
X42725392Y-115408904D01*
X42697168Y-115400907D01*
X42667881Y-115394312D01*
X42637532Y-115389141D01*
X42606120Y-115385420D01*
X42573646Y-115383170D01*
X42540110Y-115382415D01*
X42497194Y-115383970D01*
X42454657Y-115388650D01*
X42412830Y-115396476D01*
X42392286Y-115401575D01*
X42372043Y-115407470D01*
X42352141Y-115414161D01*
X42332624Y-115421653D01*
X42313530Y-115429948D01*
X42294903Y-115439048D01*
X42276782Y-115448956D01*
X42259210Y-115459676D01*
X42242227Y-115471208D01*
X42225875Y-115483558D01*
X42210195Y-115496726D01*
X42195227Y-115510716D01*
X42181014Y-115525530D01*
X42167596Y-115541172D01*
X42155015Y-115557643D01*
X42143312Y-115574947D01*
X42132528Y-115593086D01*
X42122704Y-115612063D01*
X42113881Y-115631881D01*
X42106101Y-115652542D01*
X42099405Y-115674049D01*
X42093834Y-115696405D01*
X42089430Y-115719612D01*
X42086233Y-115743674D01*
X42084284Y-115768592D01*
X42083625Y-115794370D01*
X42083625Y-117120250D01*
X41726438Y-117120250D01*
X41726318Y-117120369D01*
X41726197Y-117120487D01*
X41726197Y-115772225D01*
X41726772Y-115744693D01*
X41728462Y-115717642D01*
X41731217Y-115691070D01*
X41734986Y-115664978D01*
X41739717Y-115639367D01*
X41745360Y-115614235D01*
X41751864Y-115589584D01*
X41759178Y-115565412D01*
X41767251Y-115541721D01*
X41776033Y-115518509D01*
X41785471Y-115495777D01*
X41795515Y-115473526D01*
X41806115Y-115451754D01*
X41817219Y-115430463D01*
X41828777Y-115409651D01*
X41840737Y-115389320D01*
X41866860Y-115349153D01*
X41895133Y-115311476D01*
X41925421Y-115276288D01*
X41957589Y-115243587D01*
X41991500Y-115213373D01*
X42027020Y-115185645D01*
X42064013Y-115160401D01*
X42102343Y-115137640D01*
X42141876Y-115117362D01*
X42182476Y-115099565D01*
X42224008Y-115084249D01*
X42266335Y-115071413D01*
X42309324Y-115061055D01*
X42352838Y-115053174D01*
X42396742Y-115047770D01*
X42440901Y-115044842D01*
X42485179Y-115044388D01*
X42529441Y-115046407D01*
G37*
G36*
X42715425Y-111478971D02*
G01*
X42782343Y-111487731D01*
X42847705Y-111500954D01*
X42911068Y-111518657D01*
X42971991Y-111540852D01*
X43030030Y-111567555D01*
X43084743Y-111598781D01*
X43135686Y-111634543D01*
X43182418Y-111674856D01*
X43224496Y-111719735D01*
X43261477Y-111769195D01*
X43292919Y-111823249D01*
X43318378Y-111881912D01*
X43337412Y-111945200D01*
X43349579Y-112013126D01*
X43354436Y-112085704D01*
X43351540Y-112162951D01*
X43340449Y-112244879D01*
X43336512Y-112263312D01*
X43331516Y-112281287D01*
X43325506Y-112298808D01*
X43318525Y-112315876D01*
X43310616Y-112332493D01*
X43301825Y-112348664D01*
X43292193Y-112364389D01*
X43281766Y-112379673D01*
X43270587Y-112394517D01*
X43258700Y-112408924D01*
X43232975Y-112436438D01*
X43204943Y-112462236D01*
X43174953Y-112486338D01*
X43143355Y-112508767D01*
X43110501Y-112529541D01*
X43076739Y-112548684D01*
X43042421Y-112566215D01*
X43007896Y-112582155D01*
X42973515Y-112596525D01*
X42939628Y-112609347D01*
X42906585Y-112620641D01*
X42883563Y-112627565D01*
X42858219Y-112634261D01*
X42801434Y-112647180D01*
X42669562Y-112672581D01*
X42524875Y-112700170D01*
X42452073Y-112715824D01*
X42381282Y-112733273D01*
X42363586Y-112738379D01*
X42346157Y-112744174D01*
X42329034Y-112750636D01*
X42312258Y-112757745D01*
X42295872Y-112765482D01*
X42279916Y-112773824D01*
X42264431Y-112782753D01*
X42249458Y-112792246D01*
X42235038Y-112802285D01*
X42221212Y-112812848D01*
X42208022Y-112823915D01*
X42195508Y-112835465D01*
X42183712Y-112847478D01*
X42172675Y-112859934D01*
X42162437Y-112872811D01*
X42153039Y-112886090D01*
X42144524Y-112899750D01*
X42136931Y-112913770D01*
X42130303Y-112928130D01*
X42124679Y-112942809D01*
X42120102Y-112957788D01*
X42116611Y-112973045D01*
X42114249Y-112988559D01*
X42113057Y-113004312D01*
X42113074Y-113020281D01*
X42114343Y-113036447D01*
X42116905Y-113052788D01*
X42120800Y-113069285D01*
X42126070Y-113085918D01*
X42132756Y-113102664D01*
X42140898Y-113119505D01*
X42150539Y-113136419D01*
X42166081Y-113158495D01*
X42184196Y-113178503D01*
X42204712Y-113196493D01*
X42227455Y-113212519D01*
X42252253Y-113226632D01*
X42278933Y-113238883D01*
X42307322Y-113249326D01*
X42337247Y-113258012D01*
X42368536Y-113264993D01*
X42401015Y-113270321D01*
X42434512Y-113274047D01*
X42468855Y-113276225D01*
X42539384Y-113276141D01*
X42611220Y-113270484D01*
X42682981Y-113259670D01*
X42753285Y-113244116D01*
X42820748Y-113224235D01*
X42883989Y-113200446D01*
X42941625Y-113173162D01*
X42967909Y-113158340D01*
X42992274Y-113142801D01*
X43014546Y-113126596D01*
X43034554Y-113109777D01*
X43052123Y-113092397D01*
X43067082Y-113074507D01*
X43083092Y-113052433D01*
X43098235Y-113030256D01*
X43112468Y-113007873D01*
X43119230Y-112996572D01*
X43125749Y-112985180D01*
X43132020Y-112973685D01*
X43138037Y-112962074D01*
X43143796Y-112950334D01*
X43149290Y-112938452D01*
X43154515Y-112926414D01*
X43159466Y-112914210D01*
X43164137Y-112901824D01*
X43168522Y-112889245D01*
X43168763Y-112889243D01*
X43494994Y-113056408D01*
X43482712Y-113083536D01*
X43467104Y-113114360D01*
X43444958Y-113153950D01*
X43431380Y-113176389D01*
X43416103Y-113200248D01*
X43399107Y-113225270D01*
X43380370Y-113251198D01*
X43359871Y-113277774D01*
X43337588Y-113304743D01*
X43313500Y-113331846D01*
X43287587Y-113358826D01*
X43245311Y-113397446D01*
X43199004Y-113433048D01*
X43149032Y-113465594D01*
X43095761Y-113495049D01*
X43039556Y-113521376D01*
X42980783Y-113544538D01*
X42919809Y-113564498D01*
X42856998Y-113581221D01*
X42792716Y-113594669D01*
X42727330Y-113604805D01*
X42661204Y-113611594D01*
X42594705Y-113614997D01*
X42528198Y-113614980D01*
X42462050Y-113611505D01*
X42396625Y-113604536D01*
X42332289Y-113594035D01*
X42269409Y-113579967D01*
X42208350Y-113562294D01*
X42149478Y-113540981D01*
X42093158Y-113515990D01*
X42039756Y-113487284D01*
X41989639Y-113454828D01*
X41943171Y-113418585D01*
X41900718Y-113378517D01*
X41862646Y-113334589D01*
X41829321Y-113286763D01*
X41801109Y-113235004D01*
X41778375Y-113179274D01*
X41761486Y-113119536D01*
X41750806Y-113055755D01*
X41746701Y-112987894D01*
X41749538Y-112915915D01*
X41755827Y-112866556D01*
X41765733Y-112820666D01*
X41779073Y-112778091D01*
X41795665Y-112738676D01*
X41815324Y-112702265D01*
X41837870Y-112668706D01*
X41863119Y-112637843D01*
X41890888Y-112609522D01*
X41920995Y-112583588D01*
X41953257Y-112559887D01*
X41987491Y-112538265D01*
X42023515Y-112518566D01*
X42100202Y-112484321D01*
X42181854Y-112455916D01*
X42267012Y-112432116D01*
X42354213Y-112411684D01*
X42528899Y-112375980D01*
X42613461Y-112358236D01*
X42694220Y-112338915D01*
X42769715Y-112316781D01*
X42838484Y-112290598D01*
X42863081Y-112278710D01*
X42885507Y-112265741D01*
X42905800Y-112251779D01*
X42923998Y-112236913D01*
X42940138Y-112221231D01*
X42954260Y-112204821D01*
X42966399Y-112187772D01*
X42976595Y-112170171D01*
X42984885Y-112152108D01*
X42991307Y-112133670D01*
X42995898Y-112114945D01*
X42998697Y-112096023D01*
X42999742Y-112076991D01*
X42999070Y-112057937D01*
X42996719Y-112038951D01*
X42992727Y-112020119D01*
X42987132Y-112001531D01*
X42979972Y-111983275D01*
X42971284Y-111965439D01*
X42961107Y-111948111D01*
X42949478Y-111931380D01*
X42936435Y-111915334D01*
X42922015Y-111900061D01*
X42906258Y-111885649D01*
X42889200Y-111872188D01*
X42870880Y-111859764D01*
X42851335Y-111848467D01*
X42830603Y-111838384D01*
X42808723Y-111829605D01*
X42785731Y-111822217D01*
X42761665Y-111816308D01*
X42736565Y-111811968D01*
X42704989Y-111808080D01*
X42674233Y-111805211D01*
X42644278Y-111803360D01*
X42615109Y-111802526D01*
X42586707Y-111802709D01*
X42559058Y-111803907D01*
X42532142Y-111806119D01*
X42505945Y-111809345D01*
X42480448Y-111813583D01*
X42455635Y-111818834D01*
X42431489Y-111825095D01*
X42407993Y-111832365D01*
X42385130Y-111840645D01*
X42362884Y-111849933D01*
X42341237Y-111860228D01*
X42320173Y-111871529D01*
X42299675Y-111883835D01*
X42279726Y-111897146D01*
X42260309Y-111911460D01*
X42241407Y-111926777D01*
X42223003Y-111943096D01*
X42205080Y-111960415D01*
X42187622Y-111978734D01*
X42170612Y-111998051D01*
X42154033Y-112018367D01*
X42137867Y-112039680D01*
X42122099Y-112061989D01*
X42106710Y-112085293D01*
X42077007Y-112134883D01*
X42048621Y-112188443D01*
X41755252Y-112027233D01*
X41758935Y-112015754D01*
X41763816Y-112002105D01*
X41770967Y-111983804D01*
X41780575Y-111961318D01*
X41792822Y-111935111D01*
X41807894Y-111905651D01*
X41816546Y-111889847D01*
X41825974Y-111873403D01*
X41863110Y-111816943D01*
X41905330Y-111764729D01*
X41952191Y-111716776D01*
X42003250Y-111673098D01*
X42058066Y-111633710D01*
X42116196Y-111598627D01*
X42177196Y-111567863D01*
X42240624Y-111541432D01*
X42306037Y-111519349D01*
X42372994Y-111501628D01*
X42441050Y-111488285D01*
X42509764Y-111479333D01*
X42578693Y-111474787D01*
X42647394Y-111474662D01*
X42715425Y-111478971D01*
G37*
G36*
X40914633Y-116122400D02*
G01*
X40910383Y-116222161D01*
X40898632Y-116321047D01*
X40879330Y-116418275D01*
X40852426Y-116513059D01*
X40817871Y-116604613D01*
X40775614Y-116692153D01*
X40725605Y-116774892D01*
X40667794Y-116852046D01*
X40602130Y-116922828D01*
X40528563Y-116986455D01*
X40447043Y-117042139D01*
X40357521Y-117089097D01*
X40259944Y-117126542D01*
X40154264Y-117153690D01*
X40040430Y-117169755D01*
X39918392Y-117173951D01*
X39788099Y-117165493D01*
X39683193Y-117147544D01*
X39585356Y-117118518D01*
X39494623Y-117079213D01*
X39411029Y-117030427D01*
X39334610Y-116972958D01*
X39265402Y-116907605D01*
X39203439Y-116835164D01*
X39148756Y-116756435D01*
X39101390Y-116672215D01*
X39061375Y-116583303D01*
X39028746Y-116490495D01*
X39003540Y-116394592D01*
X38985791Y-116296389D01*
X38975535Y-116196687D01*
X38973820Y-116133594D01*
X39337455Y-116133594D01*
X39338101Y-116182417D01*
X39340835Y-116230406D01*
X39345682Y-116277446D01*
X39352663Y-116323422D01*
X39361802Y-116368219D01*
X39373123Y-116411721D01*
X39386647Y-116453814D01*
X39402399Y-116494381D01*
X39420401Y-116533307D01*
X39440677Y-116570478D01*
X39463249Y-116605778D01*
X39488141Y-116639091D01*
X39515375Y-116670303D01*
X39544976Y-116699298D01*
X39576966Y-116725961D01*
X39611368Y-116750176D01*
X39648205Y-116771829D01*
X39687500Y-116790803D01*
X39729277Y-116806985D01*
X39773559Y-116820257D01*
X39820368Y-116830506D01*
X39869728Y-116837615D01*
X39921662Y-116841470D01*
X39976193Y-116841956D01*
X40033344Y-116838956D01*
X40093139Y-116832356D01*
X40148610Y-116821108D01*
X40200462Y-116803493D01*
X40248703Y-116779928D01*
X40293340Y-116750832D01*
X40334383Y-116716623D01*
X40371839Y-116677718D01*
X40405717Y-116634535D01*
X40436024Y-116587493D01*
X40462769Y-116537009D01*
X40485960Y-116483501D01*
X40505606Y-116427387D01*
X40521714Y-116369085D01*
X40534292Y-116309013D01*
X40543350Y-116247589D01*
X40548894Y-116185231D01*
X40550934Y-116122357D01*
X40549478Y-116059384D01*
X40544533Y-115996730D01*
X40536108Y-115934815D01*
X40524211Y-115874054D01*
X40508850Y-115814867D01*
X40490033Y-115757671D01*
X40467770Y-115702885D01*
X40442067Y-115650925D01*
X40412933Y-115602211D01*
X40380376Y-115557159D01*
X40344405Y-115516188D01*
X40305027Y-115479717D01*
X40262252Y-115448161D01*
X40216086Y-115421941D01*
X40166538Y-115401473D01*
X40113617Y-115387176D01*
X40113617Y-115387413D01*
X40080590Y-115381348D01*
X40047919Y-115376633D01*
X40015634Y-115373260D01*
X39983763Y-115371224D01*
X39952334Y-115370517D01*
X39921378Y-115371133D01*
X39890921Y-115373065D01*
X39860994Y-115376307D01*
X39831624Y-115380852D01*
X39802840Y-115386692D01*
X39774672Y-115393822D01*
X39747148Y-115402235D01*
X39720297Y-115411924D01*
X39694147Y-115422883D01*
X39668727Y-115435104D01*
X39644066Y-115448582D01*
X39620192Y-115463309D01*
X39597135Y-115479278D01*
X39574923Y-115496484D01*
X39553585Y-115514919D01*
X39533150Y-115534578D01*
X39513646Y-115555452D01*
X39495101Y-115577535D01*
X39477546Y-115600822D01*
X39461008Y-115625304D01*
X39445516Y-115650976D01*
X39431099Y-115677831D01*
X39417786Y-115705861D01*
X39405605Y-115735062D01*
X39394586Y-115765424D01*
X39384756Y-115796943D01*
X39376145Y-115829612D01*
X39364745Y-115881014D01*
X39355294Y-115932275D01*
X39347817Y-115983279D01*
X39342336Y-116033910D01*
X39338874Y-116084053D01*
X39337455Y-116133594D01*
X38973820Y-116133594D01*
X38972806Y-116096281D01*
X38977641Y-115995972D01*
X38990075Y-115896556D01*
X39010142Y-115798832D01*
X39037879Y-115703597D01*
X39073320Y-115611651D01*
X39116501Y-115523790D01*
X39167457Y-115440813D01*
X39226224Y-115363518D01*
X39292837Y-115292703D01*
X39367331Y-115229166D01*
X39449741Y-115173706D01*
X39540103Y-115127119D01*
X39638452Y-115090204D01*
X39744823Y-115063760D01*
X39859253Y-115048584D01*
X39981775Y-115045475D01*
X40112425Y-115055229D01*
X40214662Y-115073848D01*
X40310151Y-115103374D01*
X40398842Y-115143021D01*
X40480686Y-115192004D01*
X40555631Y-115249539D01*
X40623628Y-115314838D01*
X40684626Y-115387118D01*
X40738575Y-115465593D01*
X40785426Y-115549477D01*
X40825127Y-115637986D01*
X40857628Y-115730333D01*
X40882879Y-115825733D01*
X40900831Y-115923401D01*
X40911432Y-116022552D01*
X40914631Y-116122357D01*
X40914633Y-116122400D01*
G37*
G36*
X40909432Y-112336317D02*
G01*
X40919633Y-112425199D01*
X40923717Y-112514838D01*
X40921725Y-112604656D01*
X40913696Y-112694077D01*
X40899666Y-112782524D01*
X40879677Y-112869422D01*
X40853765Y-112954193D01*
X40821971Y-113036261D01*
X40784333Y-113115051D01*
X40740889Y-113189984D01*
X40691678Y-113260486D01*
X40636740Y-113325978D01*
X40576112Y-113385886D01*
X40509834Y-113439632D01*
X40437944Y-113486640D01*
X40360482Y-113526333D01*
X40277485Y-113558135D01*
X40188993Y-113581470D01*
X40095045Y-113595762D01*
X40009868Y-113602799D01*
X39926126Y-113606649D01*
X39844061Y-113606874D01*
X39763913Y-113603032D01*
X39724634Y-113599449D01*
X39685924Y-113594683D01*
X39647814Y-113588681D01*
X39610334Y-113581388D01*
X39573515Y-113572747D01*
X39537385Y-113562705D01*
X39501976Y-113551206D01*
X39467318Y-113538195D01*
X39433440Y-113523617D01*
X39400373Y-113507417D01*
X39368146Y-113489541D01*
X39336791Y-113469932D01*
X39306337Y-113448537D01*
X39276814Y-113425299D01*
X39248253Y-113400164D01*
X39220683Y-113373078D01*
X39194135Y-113343984D01*
X39168639Y-113312828D01*
X39144224Y-113279555D01*
X39120922Y-113244110D01*
X39098762Y-113206437D01*
X39077774Y-113166483D01*
X39057989Y-113124191D01*
X39039436Y-113079507D01*
X39034673Y-113046883D01*
X39307089Y-112907343D01*
X39335864Y-112964279D01*
X39368235Y-113016407D01*
X39403911Y-113063788D01*
X39442599Y-113106481D01*
X39484005Y-113144548D01*
X39527837Y-113178047D01*
X39573802Y-113207040D01*
X39621607Y-113231587D01*
X39670959Y-113251748D01*
X39721567Y-113267583D01*
X39773135Y-113279152D01*
X39825373Y-113286517D01*
X39877986Y-113289736D01*
X39930683Y-113288870D01*
X39983170Y-113283981D01*
X40035155Y-113275126D01*
X40086344Y-113262368D01*
X40136446Y-113245767D01*
X40185166Y-113225382D01*
X40232213Y-113201273D01*
X40277292Y-113173502D01*
X40320113Y-113142128D01*
X40360381Y-113107212D01*
X40397804Y-113068813D01*
X40432089Y-113026993D01*
X40462944Y-112981811D01*
X40490074Y-112933328D01*
X40513189Y-112881603D01*
X40531994Y-112826698D01*
X40546197Y-112768672D01*
X40555505Y-112707586D01*
X40559625Y-112643500D01*
X38971334Y-112643500D01*
X38965731Y-112587697D01*
X38962067Y-112525486D01*
X38960797Y-112447106D01*
X38961756Y-112403425D01*
X38964148Y-112357587D01*
X38968253Y-112310221D01*
X38968265Y-112310125D01*
X39345188Y-112310125D01*
X40535812Y-112310125D01*
X40525749Y-112250213D01*
X40510187Y-112193946D01*
X40489501Y-112141344D01*
X40464065Y-112092432D01*
X40434253Y-112047229D01*
X40400442Y-112005760D01*
X40363006Y-111968045D01*
X40322319Y-111934107D01*
X40278757Y-111903968D01*
X40232693Y-111877650D01*
X40184504Y-111855175D01*
X40134563Y-111836565D01*
X40083246Y-111821843D01*
X40030928Y-111811030D01*
X39977982Y-111804149D01*
X39924785Y-111801222D01*
X39871710Y-111802270D01*
X39819133Y-111807317D01*
X39767428Y-111816383D01*
X39716970Y-111829491D01*
X39668135Y-111846664D01*
X39621296Y-111867923D01*
X39576829Y-111893290D01*
X39535108Y-111922788D01*
X39496508Y-111956439D01*
X39461405Y-111994265D01*
X39430172Y-112036287D01*
X39403185Y-112082528D01*
X39380818Y-112133010D01*
X39363446Y-112187756D01*
X39351445Y-112246787D01*
X39345188Y-112310125D01*
X38968265Y-112310125D01*
X38974348Y-112261956D01*
X38982711Y-112213421D01*
X38993622Y-112165243D01*
X39007358Y-112118052D01*
X39024198Y-112072476D01*
X39041230Y-112026257D01*
X39060224Y-111981981D01*
X39081112Y-111939638D01*
X39103824Y-111899221D01*
X39128292Y-111860718D01*
X39154448Y-111824123D01*
X39182224Y-111789424D01*
X39211550Y-111756614D01*
X39242359Y-111725683D01*
X39274582Y-111696622D01*
X39308150Y-111669421D01*
X39342996Y-111644073D01*
X39379050Y-111620566D01*
X39416244Y-111598894D01*
X39454510Y-111579046D01*
X39493780Y-111561013D01*
X39575055Y-111530357D01*
X39659521Y-111506852D01*
X39746632Y-111490427D01*
X39835839Y-111481007D01*
X39926595Y-111478520D01*
X40018351Y-111482894D01*
X40110562Y-111494055D01*
X40202678Y-111511930D01*
X40295908Y-111538526D01*
X40382518Y-111573373D01*
X40462547Y-111615893D01*
X40536035Y-111665510D01*
X40603019Y-111721648D01*
X40663539Y-111783730D01*
X40717633Y-111851180D01*
X40765341Y-111923421D01*
X40806700Y-111999876D01*
X40841750Y-112079970D01*
X40870530Y-112163126D01*
X40893078Y-112248767D01*
X40904539Y-112310125D01*
X40909432Y-112336317D01*
G37*
G36*
X43552498Y-108966314D02*
G01*
X43548741Y-109073947D01*
X43536563Y-109180723D01*
X43516007Y-109285671D01*
X43487118Y-109387818D01*
X43449942Y-109486192D01*
X43404522Y-109579821D01*
X43350904Y-109667734D01*
X43289132Y-109748957D01*
X43219250Y-109822518D01*
X43141304Y-109887446D01*
X43055339Y-109942769D01*
X42961397Y-109987513D01*
X42859525Y-110020708D01*
X42749767Y-110041380D01*
X42632168Y-110048558D01*
X42506772Y-110041270D01*
X42462809Y-110035153D01*
X42421139Y-110027285D01*
X42381537Y-110017718D01*
X42343779Y-110006504D01*
X42307642Y-109993692D01*
X42272900Y-109979337D01*
X42239329Y-109963488D01*
X42206705Y-109946199D01*
X42174804Y-109927519D01*
X42143402Y-109907501D01*
X42112273Y-109886197D01*
X42081195Y-109863659D01*
X42049942Y-109839936D01*
X42018290Y-109815083D01*
X41952893Y-109762187D01*
X41838832Y-110003646D01*
X41607375Y-110000313D01*
X41607373Y-110000313D01*
X41607218Y-109008076D01*
X41932624Y-109008076D01*
X41938203Y-109083277D01*
X41949718Y-109157514D01*
X41967159Y-109230087D01*
X41990514Y-109300296D01*
X42019770Y-109367440D01*
X42054917Y-109430820D01*
X42095941Y-109489737D01*
X42142833Y-109543489D01*
X42195579Y-109591377D01*
X42254168Y-109632701D01*
X42318589Y-109666762D01*
X42388830Y-109692859D01*
X42464878Y-109710292D01*
X42546723Y-109718361D01*
X42634352Y-109716367D01*
X42727754Y-109703609D01*
X42784693Y-109689119D01*
X42838028Y-109668349D01*
X42887737Y-109641724D01*
X42933800Y-109609674D01*
X42976197Y-109572625D01*
X43014908Y-109531006D01*
X43049911Y-109485242D01*
X43081187Y-109435763D01*
X43108714Y-109382995D01*
X43132474Y-109327366D01*
X43152444Y-109269303D01*
X43168605Y-109209233D01*
X43180936Y-109147586D01*
X43189417Y-109084786D01*
X43194027Y-109021264D01*
X43194746Y-108957444D01*
X43191553Y-108893756D01*
X43184428Y-108830627D01*
X43173351Y-108768483D01*
X43158301Y-108707754D01*
X43139257Y-108648865D01*
X43116200Y-108592245D01*
X43089108Y-108538320D01*
X43057961Y-108487520D01*
X43022740Y-108440270D01*
X42983422Y-108396998D01*
X42939989Y-108358133D01*
X42892419Y-108324101D01*
X42840691Y-108295330D01*
X42784787Y-108272247D01*
X42724684Y-108255279D01*
X42660364Y-108244855D01*
X42569355Y-108240294D01*
X42484472Y-108245968D01*
X42405701Y-108261176D01*
X42333032Y-108285219D01*
X42266452Y-108317397D01*
X42205950Y-108357010D01*
X42151514Y-108403358D01*
X42103132Y-108455741D01*
X42060793Y-108513460D01*
X42024484Y-108575813D01*
X41994195Y-108642102D01*
X41969913Y-108711626D01*
X41951626Y-108783685D01*
X41939324Y-108857580D01*
X41932994Y-108932610D01*
X41932624Y-109008076D01*
X41607218Y-109008076D01*
X41606897Y-106954456D01*
X41964561Y-106952313D01*
X41964561Y-108190562D01*
X42014453Y-108146378D01*
X42066780Y-108102434D01*
X42093851Y-108080982D01*
X42121524Y-108060108D01*
X42149797Y-108039983D01*
X42178666Y-108020779D01*
X42208129Y-108002670D01*
X42238184Y-107985826D01*
X42268829Y-107970421D01*
X42300061Y-107956627D01*
X42331878Y-107944616D01*
X42364277Y-107934561D01*
X42397255Y-107926633D01*
X42430811Y-107921005D01*
X42567875Y-107910127D01*
X42695803Y-107913947D01*
X42814640Y-107931492D01*
X42924429Y-107961791D01*
X43025217Y-108003872D01*
X43117046Y-108056763D01*
X43199963Y-108119491D01*
X43274012Y-108191083D01*
X43339236Y-108270569D01*
X43395682Y-108356976D01*
X43443394Y-108449332D01*
X43482415Y-108546664D01*
X43512792Y-108648000D01*
X43534568Y-108752369D01*
X43547789Y-108858797D01*
X43552110Y-108957444D01*
X43552498Y-108966314D01*
G37*
G36*
X47680514Y-112204397D02*
G01*
X44750149Y-112204397D01*
X44750149Y-111951984D01*
X47680514Y-111951984D01*
X47680514Y-112204397D01*
G37*
G36*
X50515156Y-113258815D02*
G01*
X49823640Y-113258815D01*
X49777996Y-113257596D01*
X49733114Y-113253954D01*
X49689040Y-113247914D01*
X49645817Y-113239501D01*
X49603492Y-113228740D01*
X49562109Y-113215655D01*
X49521714Y-113200272D01*
X49482351Y-113182615D01*
X49444066Y-113162709D01*
X49406903Y-113140578D01*
X49370908Y-113116248D01*
X49336125Y-113089743D01*
X49302600Y-113061088D01*
X49270378Y-113030307D01*
X49239504Y-112997426D01*
X49210022Y-112962469D01*
X49181978Y-112925461D01*
X49155417Y-112886427D01*
X49130384Y-112845391D01*
X49106924Y-112802378D01*
X49085082Y-112757414D01*
X49064903Y-112710522D01*
X49046432Y-112661728D01*
X49029714Y-112611056D01*
X49014794Y-112558531D01*
X49001717Y-112504178D01*
X48990529Y-112448022D01*
X48981273Y-112390087D01*
X48973997Y-112330398D01*
X48968743Y-112268980D01*
X48965558Y-112205858D01*
X48964486Y-112141056D01*
X48964486Y-112034375D01*
X49245234Y-112034375D01*
X49245234Y-112128911D01*
X49248511Y-112227377D01*
X49258158Y-112320596D01*
X49273896Y-112408413D01*
X49283963Y-112450250D01*
X49295449Y-112490678D01*
X49308319Y-112529681D01*
X49322538Y-112567238D01*
X49338072Y-112603331D01*
X49354885Y-112637941D01*
X49372944Y-112671047D01*
X49392214Y-112702633D01*
X49412660Y-112732677D01*
X49434246Y-112761162D01*
X49456939Y-112788068D01*
X49480704Y-112813377D01*
X49505506Y-112837068D01*
X49531310Y-112859124D01*
X49558082Y-112879525D01*
X49585786Y-112898251D01*
X49614389Y-112915285D01*
X49643856Y-112930607D01*
X49674151Y-112944197D01*
X49705240Y-112956037D01*
X49737089Y-112966108D01*
X49769662Y-112974390D01*
X49802925Y-112980865D01*
X49836844Y-112985514D01*
X49871383Y-112988317D01*
X49906508Y-112989256D01*
X50217260Y-112989256D01*
X50217260Y-111174030D01*
X49906508Y-111174030D01*
X49871383Y-111174968D01*
X49836844Y-111177771D01*
X49802925Y-111182420D01*
X49769662Y-111188895D01*
X49737089Y-111197178D01*
X49705240Y-111207248D01*
X49674151Y-111219089D01*
X49643856Y-111232679D01*
X49614389Y-111248001D01*
X49585786Y-111265034D01*
X49558082Y-111283761D01*
X49531310Y-111304162D01*
X49505506Y-111326217D01*
X49480704Y-111349909D01*
X49456939Y-111375217D01*
X49434246Y-111402124D01*
X49412660Y-111430609D01*
X49392214Y-111460653D01*
X49372944Y-111492238D01*
X49354885Y-111525345D01*
X49338072Y-111559955D01*
X49322538Y-111596048D01*
X49308319Y-111633605D01*
X49295449Y-111672607D01*
X49283963Y-111713036D01*
X49273896Y-111754873D01*
X49265283Y-111798097D01*
X49258158Y-111842691D01*
X49252556Y-111888634D01*
X49248511Y-111935909D01*
X49246059Y-111984495D01*
X49245234Y-112034375D01*
X48964486Y-112034375D01*
X48964486Y-112017946D01*
X48968743Y-111889983D01*
X48981274Y-111768847D01*
X49001717Y-111654736D01*
X49014794Y-111600376D01*
X49029714Y-111547846D01*
X49046432Y-111497171D01*
X49064903Y-111448375D01*
X49085082Y-111401483D01*
X49106924Y-111356520D01*
X49130384Y-111313510D01*
X49155418Y-111272477D01*
X49181979Y-111233447D01*
X49210022Y-111196444D01*
X49239504Y-111161493D01*
X49270379Y-111128619D01*
X49302601Y-111097845D01*
X49336126Y-111069197D01*
X49370908Y-111042699D01*
X49406904Y-111018376D01*
X49444066Y-110996253D01*
X49482352Y-110976354D01*
X49521715Y-110958703D01*
X49562110Y-110943326D01*
X49603493Y-110930248D01*
X49645818Y-110919491D01*
X49689040Y-110911083D01*
X49733115Y-110905046D01*
X49777997Y-110901406D01*
X49823641Y-110900187D01*
X49823640Y-110899949D01*
X50515156Y-110899949D01*
X50515156Y-112989256D01*
X50515156Y-113258815D01*
G37*
G36*
X52733527Y-113258815D02*
G01*
X52422060Y-113258815D01*
X52185126Y-112533724D01*
X51429317Y-112533724D01*
X51192382Y-113258815D01*
X50880915Y-113258815D01*
X51218350Y-112295839D01*
X51506946Y-112295839D01*
X52107259Y-112295839D01*
X51812698Y-111394773D01*
X51801268Y-111394773D01*
X51506946Y-112295839D01*
X51218350Y-112295839D01*
X51534092Y-111394773D01*
X51533853Y-111394772D01*
X51707208Y-110899949D01*
X51906996Y-110899949D01*
X52080350Y-111394772D01*
X52396092Y-112295839D01*
X52733527Y-113258815D01*
G37*
G36*
X54803548Y-113258815D02*
G01*
X54492081Y-113258815D01*
X54255146Y-112533724D01*
X53499338Y-112533724D01*
X53262403Y-113258815D01*
X52950936Y-113258815D01*
X53288371Y-112295839D01*
X53576966Y-112295839D01*
X54177279Y-112295839D01*
X53882719Y-111394773D01*
X53871288Y-111394773D01*
X53576966Y-112295839D01*
X53288371Y-112295839D01*
X53604113Y-111394773D01*
X53603875Y-111394772D01*
X53777229Y-110899949D01*
X53977016Y-110899949D01*
X54150372Y-111394772D01*
X54466113Y-112295839D01*
X54803548Y-113258815D01*
G37*
G36*
X56695927Y-113258815D02*
G01*
X56398271Y-113258815D01*
X56398271Y-112182013D01*
X55395288Y-112182013D01*
X55395288Y-111924125D01*
X56398271Y-111924125D01*
X56398271Y-111178793D01*
X55215504Y-111178793D01*
X55215504Y-110899949D01*
X56695927Y-110899949D01*
X56695927Y-113258815D01*
G37*
G36*
X51477180Y-118694732D02*
G01*
X50857102Y-118694732D01*
X50857102Y-117489105D01*
X50847815Y-117489105D01*
X50807035Y-117534787D01*
X50766176Y-117576144D01*
X50725173Y-117613366D01*
X50683959Y-117646643D01*
X50642468Y-117676166D01*
X50600632Y-117702124D01*
X50558385Y-117724707D01*
X50515661Y-117744107D01*
X50472392Y-117760512D01*
X50428513Y-117774113D01*
X50383956Y-117785100D01*
X50338656Y-117793663D01*
X50292544Y-117799992D01*
X50245556Y-117804277D01*
X50197623Y-117806709D01*
X50148681Y-117807478D01*
X50080197Y-117805785D01*
X50014472Y-117800774D01*
X49951466Y-117792541D01*
X49891142Y-117781185D01*
X49833460Y-117766804D01*
X49778384Y-117749494D01*
X49725873Y-117729354D01*
X49675891Y-117706483D01*
X49628398Y-117680977D01*
X49583358Y-117652935D01*
X49540730Y-117622454D01*
X49500477Y-117589632D01*
X49462562Y-117554568D01*
X49426944Y-117517358D01*
X49393587Y-117478102D01*
X49362451Y-117436896D01*
X49333500Y-117393838D01*
X49306693Y-117349027D01*
X49281994Y-117302560D01*
X49259363Y-117254535D01*
X49238763Y-117205050D01*
X49220154Y-117154202D01*
X49203500Y-117102090D01*
X49188762Y-117048812D01*
X49164878Y-116939146D01*
X49148197Y-116825988D01*
X49138414Y-116710121D01*
X49135221Y-116592327D01*
X49782921Y-116592327D01*
X49784323Y-116651670D01*
X49788699Y-116713237D01*
X49796307Y-116776193D01*
X49807403Y-116839702D01*
X49822244Y-116902928D01*
X49841087Y-116965038D01*
X49864188Y-117025196D01*
X49891804Y-117082567D01*
X49907385Y-117109946D01*
X49924191Y-117136316D01*
X49942255Y-117161571D01*
X49961608Y-117185607D01*
X49982282Y-117208321D01*
X50004309Y-117229607D01*
X50027722Y-117249361D01*
X50052553Y-117267479D01*
X50078833Y-117283856D01*
X50106595Y-117298389D01*
X50135871Y-117310972D01*
X50166693Y-117321501D01*
X50199093Y-117329872D01*
X50233103Y-117335980D01*
X50268755Y-117339722D01*
X50306082Y-117340993D01*
X50343474Y-117339776D01*
X50379320Y-117336187D01*
X50413641Y-117330321D01*
X50446463Y-117322272D01*
X50477808Y-117312134D01*
X50507700Y-117300001D01*
X50536162Y-117285966D01*
X50563219Y-117270124D01*
X50588895Y-117252570D01*
X50613211Y-117233396D01*
X50636193Y-117212697D01*
X50657864Y-117190568D01*
X50678247Y-117167101D01*
X50697367Y-117142392D01*
X50715246Y-117116534D01*
X50731909Y-117089622D01*
X50747378Y-117061749D01*
X50761679Y-117033009D01*
X50774834Y-117003496D01*
X50786866Y-116973306D01*
X50797801Y-116942530D01*
X50807660Y-116911265D01*
X50824249Y-116847638D01*
X50836823Y-116783179D01*
X50845570Y-116718639D01*
X50850679Y-116654771D01*
X50852340Y-116592327D01*
X50850473Y-116530035D01*
X50844789Y-116466598D01*
X50835168Y-116402728D01*
X50821488Y-116339137D01*
X50803628Y-116276538D01*
X50781467Y-116215643D01*
X50754882Y-116157166D01*
X50723753Y-116101819D01*
X50706446Y-116075542D01*
X50687958Y-116050315D01*
X50668273Y-116026226D01*
X50647376Y-116003365D01*
X50625252Y-115981822D01*
X50601886Y-115961684D01*
X50577262Y-115943041D01*
X50551365Y-115925983D01*
X50524181Y-115910598D01*
X50495694Y-115896975D01*
X50465888Y-115885203D01*
X50434749Y-115875372D01*
X50402262Y-115867571D01*
X50368411Y-115861888D01*
X50333181Y-115858414D01*
X50296677Y-115857239D01*
X50259892Y-115858467D01*
X50224665Y-115862095D01*
X50191080Y-115868021D01*
X50159104Y-115876144D01*
X50128703Y-115886366D01*
X50099845Y-115898587D01*
X50072497Y-115912708D01*
X50046625Y-115928628D01*
X50022198Y-115946250D01*
X49999181Y-115965473D01*
X49977542Y-115986198D01*
X49957247Y-116008326D01*
X49938265Y-116031757D01*
X49920561Y-116056391D01*
X49904102Y-116082130D01*
X49888857Y-116108874D01*
X49874791Y-116136523D01*
X49861872Y-116164979D01*
X49850066Y-116194141D01*
X49839341Y-116223911D01*
X49829664Y-116254188D01*
X49821001Y-116284874D01*
X49806588Y-116347073D01*
X49795838Y-116409714D01*
X49788486Y-116471999D01*
X49784268Y-116533135D01*
X49782921Y-116592327D01*
X49135221Y-116592327D01*
X49138410Y-116474690D01*
X49148170Y-116359268D01*
X49164785Y-116246803D01*
X49188542Y-116138036D01*
X49219726Y-116033709D01*
X49258622Y-115934563D01*
X49281052Y-115887165D01*
X49305517Y-115841340D01*
X49332053Y-115797182D01*
X49360695Y-115754782D01*
X49391480Y-115714233D01*
X49424444Y-115675629D01*
X49459621Y-115639062D01*
X49497047Y-115604624D01*
X49536759Y-115572409D01*
X49578792Y-115542509D01*
X49623182Y-115515016D01*
X49669964Y-115490024D01*
X49719174Y-115467625D01*
X49770848Y-115447911D01*
X49825021Y-115430977D01*
X49881730Y-115416913D01*
X49941009Y-115405813D01*
X50002896Y-115397770D01*
X50067424Y-115392876D01*
X50134631Y-115391224D01*
X50201779Y-115393046D01*
X50265918Y-115398424D01*
X50327096Y-115407222D01*
X50385362Y-115419308D01*
X50440765Y-115434547D01*
X50493354Y-115452806D01*
X50543177Y-115473950D01*
X50590284Y-115497845D01*
X50634722Y-115524358D01*
X50676542Y-115553354D01*
X50715792Y-115584700D01*
X50752521Y-115618262D01*
X50786777Y-115653905D01*
X50818610Y-115691496D01*
X50848068Y-115730901D01*
X50875200Y-115771986D01*
X50884725Y-115771986D01*
X50884725Y-115445041D01*
X51477180Y-115445041D01*
X51477180Y-116592327D01*
X51477180Y-118694732D01*
G37*
G36*
X54102170Y-116711064D02*
G01*
X54092395Y-116827448D01*
X54075755Y-116940955D01*
X54051966Y-117050822D01*
X54020743Y-117156286D01*
X53981801Y-117256583D01*
X53959347Y-117304555D01*
X53934856Y-117350950D01*
X53908293Y-117395671D01*
X53879623Y-117438624D01*
X53848810Y-117479712D01*
X53815818Y-117518841D01*
X53780611Y-117555915D01*
X53743155Y-117590839D01*
X53703414Y-117623518D01*
X53661351Y-117653855D01*
X53616932Y-117681755D01*
X53570120Y-117707124D01*
X53520881Y-117729866D01*
X53469179Y-117749885D01*
X53414977Y-117767085D01*
X53358241Y-117781373D01*
X53298935Y-117792651D01*
X53237023Y-117800825D01*
X53172471Y-117805800D01*
X53105241Y-117807479D01*
X53051073Y-117806419D01*
X52997813Y-117803194D01*
X52945508Y-117797739D01*
X52894206Y-117789988D01*
X52843954Y-117779875D01*
X52794801Y-117767333D01*
X52746794Y-117752298D01*
X52699981Y-117734702D01*
X52654410Y-117714481D01*
X52610129Y-117691568D01*
X52567185Y-117665897D01*
X52525626Y-117637402D01*
X52485500Y-117606018D01*
X52446854Y-117571678D01*
X52409737Y-117534317D01*
X52374197Y-117493869D01*
X52365148Y-117493869D01*
X52365148Y-117753662D01*
X52365148Y-117753900D01*
X51763167Y-117753900D01*
X51763928Y-116592802D01*
X52387532Y-116592802D01*
X52389141Y-116654419D01*
X52394108Y-116717668D01*
X52402642Y-116781775D01*
X52414954Y-116845966D01*
X52431253Y-116909468D01*
X52451751Y-116971507D01*
X52476656Y-117031310D01*
X52506178Y-117088102D01*
X52522737Y-117115127D01*
X52540528Y-117141110D01*
X52559579Y-117165954D01*
X52579916Y-117189561D01*
X52601565Y-117211835D01*
X52624551Y-117232680D01*
X52648902Y-117251999D01*
X52674644Y-117269695D01*
X52701803Y-117285671D01*
X52730405Y-117299830D01*
X52760476Y-117312077D01*
X52792043Y-117322314D01*
X52825131Y-117330444D01*
X52859768Y-117336371D01*
X52895979Y-117339998D01*
X52933791Y-117341229D01*
X52971536Y-117339985D01*
X53007554Y-117336319D01*
X53041880Y-117330330D01*
X53074547Y-117322118D01*
X53105591Y-117311783D01*
X53135046Y-117299422D01*
X53162947Y-117285137D01*
X53189329Y-117269025D01*
X53214226Y-117251187D01*
X53237673Y-117231721D01*
X53259706Y-117210727D01*
X53280357Y-117188305D01*
X53299664Y-117164554D01*
X53317659Y-117139572D01*
X53334377Y-117113460D01*
X53349855Y-117086316D01*
X53364125Y-117058240D01*
X53377223Y-117029332D01*
X53389184Y-116999690D01*
X53400041Y-116969414D01*
X53409831Y-116938604D01*
X53418588Y-116907358D01*
X53433139Y-116843957D01*
X53443974Y-116780006D01*
X53451369Y-116716300D01*
X53455602Y-116653634D01*
X53456952Y-116592802D01*
X53457189Y-116592802D01*
X53455842Y-116533493D01*
X53451624Y-116472269D01*
X53444272Y-116409923D01*
X53433522Y-116347247D01*
X53419109Y-116285032D01*
X53400769Y-116224071D01*
X53378238Y-116165157D01*
X53351253Y-116109081D01*
X53336008Y-116082355D01*
X53319549Y-116056635D01*
X53301845Y-116032021D01*
X53282863Y-116008612D01*
X53262568Y-115986507D01*
X53240929Y-115965804D01*
X53217912Y-115946603D01*
X53193484Y-115929003D01*
X53167613Y-115913102D01*
X53140265Y-115899001D01*
X53111407Y-115886797D01*
X53081006Y-115876590D01*
X53049030Y-115868479D01*
X53015445Y-115862562D01*
X52980218Y-115858940D01*
X52943316Y-115857711D01*
X52906294Y-115858903D01*
X52870717Y-115862419D01*
X52836566Y-115868166D01*
X52803825Y-115876053D01*
X52772475Y-115885988D01*
X52742499Y-115897879D01*
X52713880Y-115911634D01*
X52686599Y-115927161D01*
X52660639Y-115944369D01*
X52635982Y-115963166D01*
X52612611Y-115983460D01*
X52590508Y-116005159D01*
X52569656Y-116028172D01*
X52550036Y-116052405D01*
X52531631Y-116077769D01*
X52514423Y-116104170D01*
X52498395Y-116131517D01*
X52483529Y-116159719D01*
X52469808Y-116188682D01*
X52457213Y-116218316D01*
X52445727Y-116248529D01*
X52435333Y-116279229D01*
X52417748Y-116341722D01*
X52404317Y-116405060D01*
X52394898Y-116468509D01*
X52389350Y-116531335D01*
X52387532Y-116592802D01*
X51763928Y-116592802D01*
X51765310Y-114483016D01*
X52385388Y-114483016D01*
X52383484Y-115714122D01*
X52392294Y-115714122D01*
X52427464Y-115674276D01*
X52463471Y-115637144D01*
X52500403Y-115602707D01*
X52538351Y-115570945D01*
X52577401Y-115541839D01*
X52617645Y-115515368D01*
X52659170Y-115491512D01*
X52702065Y-115470252D01*
X52746420Y-115451568D01*
X52792324Y-115435439D01*
X52839864Y-115421846D01*
X52889131Y-115410769D01*
X52940213Y-115402188D01*
X52993200Y-115396084D01*
X53048179Y-115392436D01*
X53105241Y-115391224D01*
X53172450Y-115392865D01*
X53236984Y-115397726D01*
X53298880Y-115405717D01*
X53358173Y-115416747D01*
X53414898Y-115430727D01*
X53469090Y-115447566D01*
X53520786Y-115467173D01*
X53570020Y-115489458D01*
X53616828Y-115514331D01*
X53661245Y-115541701D01*
X53703308Y-115571477D01*
X53743050Y-115603570D01*
X53780509Y-115637888D01*
X53815719Y-115674342D01*
X53848715Y-115712840D01*
X53879534Y-115753293D01*
X53908210Y-115795611D01*
X53934779Y-115839702D01*
X53959277Y-115885476D01*
X53981738Y-115932843D01*
X54002199Y-115981712D01*
X54020695Y-116031993D01*
X54037261Y-116083596D01*
X54051932Y-116136429D01*
X54064745Y-116190404D01*
X54075735Y-116245428D01*
X54092385Y-116358266D01*
X54102168Y-116474220D01*
X54105365Y-116592566D01*
X54105359Y-116592802D01*
X54102170Y-116711064D01*
G37*
G36*
X54923087Y-116574706D02*
G01*
X54924285Y-116632092D01*
X54928129Y-116692624D01*
X54934993Y-116755357D01*
X54945251Y-116819346D01*
X54959278Y-116883646D01*
X54977448Y-116947312D01*
X55000135Y-117009400D01*
X55027713Y-117068964D01*
X55043453Y-117097504D01*
X55060557Y-117125059D01*
X55079071Y-117151511D01*
X55099041Y-117176741D01*
X55120515Y-117200632D01*
X55143540Y-117223064D01*
X55168161Y-117243921D01*
X55194426Y-117263084D01*
X55222383Y-117280435D01*
X55252076Y-117295856D01*
X55283554Y-117309228D01*
X55316863Y-117320434D01*
X55352050Y-117329355D01*
X55389162Y-117335874D01*
X55428244Y-117339871D01*
X55469346Y-117341230D01*
X55505488Y-117340130D01*
X55539399Y-117336888D01*
X55571150Y-117331591D01*
X55600812Y-117324328D01*
X55628456Y-117315185D01*
X55654153Y-117304250D01*
X55677975Y-117291612D01*
X55699992Y-117277357D01*
X55720275Y-117261573D01*
X55738896Y-117244348D01*
X55755925Y-117225770D01*
X55771434Y-117205925D01*
X55785493Y-117184902D01*
X55798175Y-117162788D01*
X55809549Y-117139670D01*
X55819687Y-117115637D01*
X55828660Y-117090776D01*
X55836539Y-117065174D01*
X55843395Y-117038920D01*
X55849299Y-117012100D01*
X55854322Y-116984802D01*
X55858536Y-116957115D01*
X55864819Y-116900919D01*
X55868716Y-116844215D01*
X55870795Y-116787702D01*
X55871776Y-116678053D01*
X55871776Y-115445042D01*
X56491854Y-115445042D01*
X56491854Y-116901891D01*
X56488962Y-116997805D01*
X56480212Y-117090187D01*
X56465496Y-117178672D01*
X56444705Y-117262892D01*
X56431998Y-117303288D01*
X56417731Y-117342481D01*
X56401890Y-117380425D01*
X56384463Y-117417073D01*
X56365436Y-117452381D01*
X56344795Y-117486301D01*
X56322526Y-117518789D01*
X56298616Y-117549799D01*
X56273051Y-117579284D01*
X56245817Y-117607199D01*
X56216902Y-117633497D01*
X56186291Y-117658135D01*
X56153971Y-117681064D01*
X56119928Y-117702240D01*
X56084149Y-117721617D01*
X56046620Y-117739148D01*
X56007327Y-117754789D01*
X55966257Y-117768493D01*
X55923396Y-117780215D01*
X55878731Y-117789908D01*
X55832247Y-117797526D01*
X55783932Y-117803025D01*
X55733772Y-117806358D01*
X55681753Y-117807479D01*
X55621687Y-117805814D01*
X55562955Y-117800882D01*
X55505591Y-117792774D01*
X55449629Y-117781583D01*
X55395103Y-117767400D01*
X55342047Y-117750318D01*
X55290493Y-117730429D01*
X55240477Y-117707824D01*
X55192033Y-117682596D01*
X55145193Y-117654837D01*
X55099991Y-117624640D01*
X55056463Y-117592095D01*
X55014640Y-117557296D01*
X54974558Y-117520334D01*
X54936250Y-117481302D01*
X54899750Y-117440291D01*
X54890226Y-117440291D01*
X54890226Y-117753901D01*
X54302295Y-117753901D01*
X54302295Y-115445041D01*
X54302533Y-115445041D01*
X54923087Y-115445041D01*
X54923087Y-116574706D01*
G37*
G36*
X109241701Y-110418558D02*
G01*
X108865702Y-110794556D01*
X103622904Y-110794556D01*
X103246905Y-110418558D01*
X103246905Y-110418320D01*
X103246903Y-110418319D01*
X103246905Y-110418318D01*
X103248502Y-105559618D01*
X103964374Y-105559618D01*
X103964374Y-110079945D01*
X108527326Y-110079945D01*
X108527326Y-105559618D01*
X103964374Y-105559618D01*
X103248502Y-105559618D01*
X103250000Y-101000000D01*
X103249999Y-100999761D01*
X103964374Y-100999761D01*
X103964374Y-104845243D01*
X108865702Y-104845243D01*
X109241701Y-105221242D01*
X109241701Y-110079945D01*
X109241701Y-110418558D01*
G37*
G36*
X111650096Y-110794317D02*
G01*
X110935721Y-110794317D01*
X110935721Y-102983820D01*
X111650096Y-102983820D01*
X111650096Y-110794317D01*
G37*
G36*
X111650096Y-102078944D02*
G01*
X110935721Y-102078944D01*
X110935721Y-100999761D01*
X111650096Y-100999761D01*
X111650096Y-102078944D01*
G37*
G36*
X114154456Y-112916251D02*
G01*
X113765121Y-113296061D01*
X103246903Y-113296061D01*
X103246903Y-112581686D01*
X113439605Y-112581686D01*
X113439605Y-100999761D01*
X114153980Y-100999761D01*
X114154456Y-112916251D01*
G37*
D11*
G36*
X114403463Y-114998687D02*
G01*
X114210205Y-114998687D01*
X114210205Y-115981459D01*
X114403463Y-115981459D01*
X114403463Y-116225000D01*
X113798687Y-116225000D01*
X113718920Y-116222071D01*
X113644578Y-116213299D01*
X113579689Y-116199738D01*
X113519681Y-116181042D01*
X113467292Y-116158565D01*
X113419371Y-116131490D01*
X113377402Y-116101014D01*
X113339661Y-116066278D01*
X113277695Y-115985242D01*
X113232173Y-115886542D01*
X113203529Y-115767041D01*
X113193819Y-115628650D01*
X113193819Y-115351495D01*
X113194134Y-115343069D01*
X113471065Y-115343069D01*
X113471065Y-115637076D01*
X113474017Y-115697624D01*
X113482951Y-115752630D01*
X113496219Y-115797291D01*
X113514528Y-115837197D01*
X113536022Y-115869762D01*
X113561974Y-115898058D01*
X113591344Y-115921247D01*
X113625002Y-115940271D01*
X113706670Y-115965700D01*
X113794474Y-115973032D01*
X113933051Y-115973032D01*
X113933051Y-115007021D01*
X113794474Y-115007021D01*
X113737571Y-115009931D01*
X113686444Y-115018576D01*
X113643978Y-115031660D01*
X113606360Y-115049497D01*
X113574851Y-115070908D01*
X113547645Y-115096484D01*
X113505924Y-115159680D01*
X113479829Y-115242361D01*
X113471065Y-115343069D01*
X113194134Y-115343069D01*
X113196742Y-115273404D01*
X113205479Y-115200722D01*
X113219019Y-115137086D01*
X113237657Y-115078299D01*
X113260144Y-115026763D01*
X113287197Y-114979662D01*
X113317783Y-114938202D01*
X113352603Y-114900940D01*
X113434182Y-114839426D01*
X113533891Y-114793972D01*
X113654942Y-114765133D01*
X113798687Y-114755054D01*
X114403463Y-114755054D01*
X114403463Y-114998687D01*
G37*
G36*
X112963376Y-116225000D02*
G01*
X112686222Y-116225000D01*
X112686222Y-114755054D01*
X112963376Y-114755054D01*
X112963376Y-116225000D01*
G37*
G36*
X111899180Y-116254400D02*
G01*
X111826967Y-116251508D01*
X111758897Y-116242986D01*
X111696166Y-116229331D01*
X111637855Y-116210670D01*
X111585208Y-116187746D01*
X111537192Y-116160437D01*
X111494878Y-116129674D01*
X111457359Y-116095108D01*
X111425374Y-116057677D01*
X111398351Y-116016954D01*
X111376676Y-115973637D01*
X111360180Y-115927461D01*
X111349039Y-115878680D01*
X111343388Y-115827403D01*
X111342672Y-115800841D01*
X111345570Y-115747772D01*
X111354131Y-115698976D01*
X111367614Y-115655622D01*
X111386032Y-115615849D01*
X111437317Y-115545830D01*
X111510501Y-115485034D01*
X111611668Y-115431194D01*
X111751285Y-115383015D01*
X111863459Y-115355617D01*
X111911728Y-115345176D01*
X111993218Y-115324513D01*
X112058851Y-115300112D01*
X112096965Y-115279232D01*
X112126959Y-115255231D01*
X112146119Y-115232106D01*
X112159639Y-115206112D01*
X112170106Y-115145690D01*
X112167157Y-115110571D01*
X112158242Y-115078838D01*
X112144734Y-115052900D01*
X112126040Y-115030151D01*
X112073961Y-114995395D01*
X111997120Y-114974192D01*
X111924367Y-114969286D01*
X111866482Y-114972276D01*
X111814674Y-114981484D01*
X111775395Y-114994601D01*
X111741129Y-115012775D01*
X111714896Y-115033534D01*
X111693069Y-115058694D01*
X111676455Y-115087080D01*
X111664213Y-115119798D01*
X111653456Y-115200942D01*
X111653441Y-115204492D01*
X111653441Y-115267415D01*
X111380499Y-115267415D01*
X111380499Y-115204492D01*
X111383390Y-115143973D01*
X111391904Y-115087541D01*
X111405478Y-115036187D01*
X111424000Y-114988761D01*
X111447093Y-114945511D01*
X111474632Y-114906142D01*
X111543083Y-114838324D01*
X111629830Y-114785061D01*
X111735901Y-114747454D01*
X111861990Y-114727823D01*
X111924367Y-114725654D01*
X111996202Y-114728560D01*
X112063684Y-114737184D01*
X112124476Y-114750802D01*
X112180723Y-114769485D01*
X112230289Y-114792101D01*
X112275221Y-114819161D01*
X112313936Y-114849334D01*
X112347960Y-114883423D01*
X112376401Y-114920278D01*
X112400038Y-114960652D01*
X112418530Y-115003975D01*
X112431975Y-115050556D01*
X112443047Y-115154025D01*
X112440138Y-115211015D01*
X112431494Y-115262875D01*
X112418154Y-115307497D01*
X112399905Y-115348078D01*
X112349873Y-115417382D01*
X112278908Y-115476040D01*
X112180217Y-115527286D01*
X112041173Y-115573310D01*
X111960088Y-115592930D01*
X111911728Y-115603463D01*
X111792837Y-115633952D01*
X111702796Y-115670602D01*
X111670547Y-115692056D01*
X111645526Y-115716977D01*
X111630315Y-115740943D01*
X111620420Y-115768184D01*
X111615705Y-115809268D01*
X111618636Y-115844057D01*
X111627430Y-115876442D01*
X111641277Y-115904790D01*
X111660455Y-115930386D01*
X111714141Y-115971859D01*
X111790946Y-115999845D01*
X111894716Y-116010844D01*
X111899180Y-116010860D01*
X111956348Y-116007929D01*
X112008342Y-115999136D01*
X112051227Y-115985918D01*
X112089284Y-115967768D01*
X112120094Y-115946505D01*
X112146367Y-115920991D01*
X112167165Y-115892476D01*
X112183445Y-115860037D01*
X112201844Y-115783022D01*
X112203628Y-115746253D01*
X112203628Y-115687452D01*
X112476661Y-115687452D01*
X112476661Y-115746253D01*
X112473766Y-115806070D01*
X112465222Y-115862577D01*
X112451449Y-115915040D01*
X112432580Y-115964095D01*
X112408897Y-116009522D01*
X112380556Y-116051384D01*
X112310018Y-116124629D01*
X112221098Y-116183261D01*
X112113684Y-116225784D01*
X111988011Y-116249895D01*
X111899180Y-116254400D01*
G37*
G36*
X110721774Y-114728541D02*
G01*
X110793049Y-114737031D01*
X110858611Y-114750622D01*
X110919256Y-114769151D01*
X110973334Y-114791715D01*
X111022204Y-114818500D01*
X111064208Y-114848160D01*
X111100866Y-114881336D01*
X111130911Y-114916442D01*
X111155553Y-114954436D01*
X111174100Y-114993897D01*
X111187159Y-115035734D01*
X111196218Y-115114183D01*
X111196218Y-115139371D01*
X111193388Y-115188245D01*
X111185299Y-115232638D01*
X111154797Y-115310197D01*
X111107055Y-115373369D01*
X111044004Y-115421648D01*
X110990413Y-115445926D01*
X110990413Y-115483753D01*
X111031458Y-115499244D01*
X111073395Y-115522383D01*
X111109004Y-115549352D01*
X111141998Y-115583006D01*
X111167398Y-115618060D01*
X111188632Y-115658735D01*
X111203470Y-115700824D01*
X111213259Y-115747968D01*
X111217284Y-115807161D01*
X111217284Y-115832349D01*
X111214389Y-115881804D01*
X111205848Y-115928603D01*
X111191976Y-115972400D01*
X111172951Y-116013392D01*
X111119541Y-116087414D01*
X111045252Y-116150463D01*
X110949109Y-116201064D01*
X110830510Y-116236538D01*
X110690116Y-116253464D01*
X110646031Y-116254400D01*
X110569079Y-116251496D01*
X110496215Y-116242894D01*
X110429540Y-116229189D01*
X110367467Y-116210383D01*
X110312422Y-116187612D01*
X110262287Y-116160390D01*
X110219261Y-116130345D01*
X110181287Y-116096475D01*
X110149920Y-116060574D01*
X110123681Y-116021378D01*
X110103384Y-115980367D01*
X110088347Y-115936454D01*
X110078886Y-115890395D01*
X110074969Y-115841693D01*
X110074869Y-115832349D01*
X110074869Y-115807161D01*
X110075585Y-115794521D01*
X110343688Y-115794521D01*
X110343688Y-115811374D01*
X110346598Y-115845306D01*
X110355242Y-115876694D01*
X110387955Y-115929733D01*
X110441784Y-115971637D01*
X110519565Y-116001223D01*
X110624824Y-116014743D01*
X110646031Y-116015073D01*
X110707034Y-116012190D01*
X110761663Y-116003738D01*
X110807279Y-115990881D01*
X110846839Y-115973549D01*
X110878282Y-115953448D01*
X110904104Y-115929831D01*
X110923302Y-115904321D01*
X110937176Y-115875994D01*
X110948461Y-115812547D01*
X110948464Y-115811374D01*
X110948464Y-115794521D01*
X110945545Y-115759955D01*
X110936832Y-115728036D01*
X110923080Y-115700060D01*
X110904112Y-115674873D01*
X110850465Y-115633378D01*
X110772692Y-115604290D01*
X110666307Y-115591112D01*
X110646031Y-115590823D01*
X110583949Y-115593705D01*
X110528751Y-115602158D01*
X110483227Y-115614925D01*
X110443962Y-115632116D01*
X110412936Y-115652016D01*
X110387546Y-115675387D01*
X110368628Y-115700758D01*
X110354972Y-115728939D01*
X110343696Y-115792758D01*
X110343688Y-115794521D01*
X110075585Y-115794521D01*
X110077695Y-115757262D01*
X110085753Y-115712009D01*
X110116132Y-115632807D01*
X110163674Y-115567895D01*
X110226521Y-115517426D01*
X110301648Y-115483753D01*
X110301648Y-115445926D01*
X110261958Y-115429169D01*
X110223022Y-115405585D01*
X110189949Y-115378215D01*
X110160026Y-115344792D01*
X110136849Y-115309455D01*
X110118044Y-115268875D01*
X110105271Y-115226405D01*
X110097696Y-115179137D01*
X110096330Y-115149812D01*
X110364663Y-115149812D01*
X110364663Y-115166665D01*
X110367569Y-115199598D01*
X110376185Y-115229567D01*
X110408389Y-115278666D01*
X110461550Y-115316379D01*
X110539765Y-115341969D01*
X110646031Y-115351495D01*
X110707243Y-115348594D01*
X110761573Y-115340008D01*
X110805189Y-115327256D01*
X110842529Y-115309991D01*
X110870969Y-115290386D01*
X110893815Y-115267233D01*
X110910023Y-115242359D01*
X110921010Y-115214535D01*
X110927398Y-115166665D01*
X110927398Y-115149812D01*
X110924502Y-115117528D01*
X110915952Y-115088086D01*
X110883740Y-115039111D01*
X110830378Y-115000998D01*
X110752199Y-114974922D01*
X110646031Y-114965073D01*
X110585997Y-114967974D01*
X110532243Y-114976559D01*
X110488453Y-114989414D01*
X110450734Y-115006845D01*
X110421857Y-115026653D01*
X110398579Y-115050056D01*
X110382143Y-115075020D01*
X110371001Y-115102928D01*
X110364663Y-115149812D01*
X110096330Y-115149812D01*
X110095843Y-115139371D01*
X110095843Y-115114183D01*
X110098742Y-115069218D01*
X110107315Y-115026274D01*
X110140716Y-114947110D01*
X110195603Y-114876904D01*
X110272570Y-114816842D01*
X110372370Y-114769323D01*
X110494990Y-114737700D01*
X110639083Y-114725677D01*
X110646031Y-114725654D01*
X110721774Y-114728541D01*
G37*
G36*
X109420926Y-114728586D02*
G01*
X109489051Y-114737391D01*
X109550479Y-114751260D01*
X109608169Y-114770484D01*
X109659326Y-114793761D01*
X109706556Y-114821906D01*
X109747881Y-114853444D01*
X109785127Y-114889463D01*
X109817186Y-114928753D01*
X109844963Y-114972286D01*
X109868009Y-115019503D01*
X109886456Y-115070879D01*
X109908797Y-115186789D01*
X109912203Y-115259080D01*
X109912203Y-115760908D01*
X109909300Y-115818403D01*
X109900707Y-115873326D01*
X109886760Y-115924957D01*
X109867567Y-115973642D01*
X109843460Y-116018898D01*
X109814500Y-116060828D01*
X109742734Y-116133830D01*
X109653058Y-116191313D01*
X109546027Y-116231492D01*
X109422246Y-116252143D01*
X109362015Y-116254400D01*
X109292828Y-116251505D01*
X109227234Y-116242963D01*
X109166231Y-116229202D01*
X109109172Y-116210355D01*
X109057091Y-116187047D01*
X109009251Y-116159211D01*
X108966551Y-116127618D01*
X108928351Y-116092027D01*
X108895292Y-116053206D01*
X108866991Y-116010861D01*
X108843816Y-115965568D01*
X108825692Y-115917160D01*
X108812817Y-115865871D01*
X108805354Y-115811823D01*
X108803401Y-115765121D01*
X108803401Y-115744146D01*
X109072221Y-115744146D01*
X109072221Y-115760908D01*
X109075117Y-115803459D01*
X109083661Y-115842754D01*
X109097177Y-115877623D01*
X109115633Y-115909016D01*
X109165923Y-115960111D01*
X109234169Y-115995645D01*
X109321062Y-116013578D01*
X109357802Y-116015073D01*
X109408408Y-116012183D01*
X109454774Y-116003680D01*
X109495234Y-115990398D01*
X109531302Y-115972351D01*
X109561783Y-115950584D01*
X109587750Y-115924773D01*
X109608660Y-115895690D01*
X109624836Y-115863094D01*
X109642258Y-115787739D01*
X109643383Y-115760908D01*
X109643383Y-115744146D01*
X109640492Y-115701986D01*
X109631977Y-115663024D01*
X109618453Y-115628239D01*
X109600008Y-115596897D01*
X109549615Y-115545584D01*
X109481285Y-115509751D01*
X109394704Y-115491613D01*
X109357802Y-115490073D01*
X109307684Y-115492962D01*
X109261596Y-115501466D01*
X109221127Y-115514798D01*
X109184952Y-115532925D01*
X109154289Y-115554810D01*
X109128120Y-115580771D01*
X109107067Y-115609956D01*
X109090769Y-115642666D01*
X109073315Y-115717912D01*
X109072221Y-115744146D01*
X108803401Y-115744146D01*
X108803401Y-115739933D01*
X108806276Y-115683411D01*
X108814677Y-115630201D01*
X108828373Y-115580064D01*
X108846985Y-115533444D01*
X108898596Y-115449793D01*
X108968255Y-115380105D01*
X109054582Y-115326171D01*
X109155279Y-115290571D01*
X109266542Y-115276058D01*
X109282240Y-115275841D01*
X109349215Y-115278640D01*
X109407084Y-115286507D01*
X109457105Y-115298790D01*
X109499463Y-115314616D01*
X109567309Y-115355905D01*
X109605648Y-115393444D01*
X109643383Y-115393444D01*
X109643383Y-115242227D01*
X109640471Y-115194301D01*
X109631809Y-115150333D01*
X109618409Y-115112528D01*
X109600049Y-115078628D01*
X109577732Y-115049792D01*
X109550976Y-115024902D01*
X109484844Y-114987722D01*
X109399742Y-114967746D01*
X109349376Y-114965073D01*
X109296818Y-114967924D01*
X109250641Y-114976156D01*
X109211794Y-114988805D01*
X109178533Y-115005615D01*
X109150937Y-115025905D01*
X109128421Y-115049414D01*
X109097314Y-115105973D01*
X109084984Y-115175231D01*
X109084861Y-115183426D01*
X108811828Y-115183426D01*
X108814729Y-115126593D01*
X108823317Y-115073038D01*
X108837074Y-115023855D01*
X108855953Y-114978030D01*
X108879548Y-114936041D01*
X108907849Y-114897554D01*
X108978351Y-114831177D01*
X109067822Y-114779356D01*
X109177079Y-114743665D01*
X109306719Y-114726654D01*
X109349376Y-114725654D01*
X109420926Y-114728586D01*
G37*
G36*
X108665648Y-115616010D02*
G01*
X108665648Y-115926871D01*
X107943270Y-115926871D01*
X107943270Y-116225000D01*
X107674450Y-116225000D01*
X107674450Y-115926871D01*
X107430909Y-115926871D01*
X107430909Y-115687452D01*
X107674450Y-115687452D01*
X107943270Y-115687452D01*
X108409468Y-115687452D01*
X108409468Y-115653838D01*
X107981097Y-114927246D01*
X107943270Y-114927246D01*
X107943270Y-115687452D01*
X107674450Y-115687452D01*
X107674450Y-114755054D01*
X108157501Y-114755054D01*
X108665648Y-115616010D01*
G37*
G36*
X107330617Y-115616010D02*
G01*
X107330617Y-115926871D01*
X106608238Y-115926871D01*
X106608238Y-116225000D01*
X106339419Y-116225000D01*
X106339419Y-115926871D01*
X106095878Y-115926871D01*
X106095878Y-115687452D01*
X106339419Y-115687452D01*
X106608238Y-115687452D01*
X107074437Y-115687452D01*
X107074437Y-115653838D01*
X106646065Y-114927246D01*
X106608238Y-114927246D01*
X106608238Y-115687452D01*
X106339419Y-115687452D01*
X106339419Y-114755054D01*
X106822470Y-114755054D01*
X107330617Y-115616010D01*
G37*
G36*
X105907383Y-115809268D02*
G01*
X105285846Y-115809268D01*
X105285846Y-115569849D01*
X105907383Y-115569849D01*
X105907383Y-115809268D01*
G37*
G36*
X105054945Y-116225000D02*
G01*
X103988093Y-116225000D01*
X103988093Y-115985672D01*
X104779806Y-115985672D01*
X104779806Y-115977246D01*
X104776659Y-115935086D01*
X104766357Y-115897618D01*
X104752258Y-115870814D01*
X104732211Y-115846191D01*
X104672525Y-115802588D01*
X104569476Y-115759268D01*
X104548813Y-115752573D01*
X104414449Y-115710532D01*
X104332109Y-115681698D01*
X104255570Y-115647450D01*
X104197571Y-115614595D01*
X104144905Y-115577146D01*
X104103629Y-115540224D01*
X104067350Y-115499181D01*
X104038846Y-115457706D01*
X104015219Y-115412323D01*
X103997505Y-115365135D01*
X103984816Y-115314002D01*
X103975545Y-115210720D01*
X103975545Y-115189746D01*
X103978431Y-115136362D01*
X103986913Y-115085595D01*
X104019802Y-114992038D01*
X104072959Y-114909605D01*
X104145630Y-114839511D01*
X104237009Y-114783819D01*
X104345587Y-114745283D01*
X104468725Y-114726862D01*
X104510986Y-114725654D01*
X104576217Y-114728566D01*
X104638955Y-114737226D01*
X104697778Y-114751224D01*
X104753421Y-114770554D01*
X104804182Y-114794398D01*
X104851210Y-114823095D01*
X104892916Y-114855465D01*
X104930457Y-114892216D01*
X104962647Y-114932046D01*
X104990303Y-114975845D01*
X105012716Y-115022524D01*
X105030214Y-115072854D01*
X105042426Y-115126221D01*
X105049274Y-115183016D01*
X105050732Y-115225466D01*
X105050732Y-115259080D01*
X104781912Y-115259080D01*
X104781912Y-115221253D01*
X104779025Y-115175801D01*
X104770539Y-115134563D01*
X104757309Y-115098879D01*
X104739357Y-115067250D01*
X104691041Y-115017030D01*
X104625802Y-114982921D01*
X104542320Y-114966222D01*
X104510986Y-114965073D01*
X104461908Y-114967956D01*
X104417061Y-114976418D01*
X104377976Y-114989643D01*
X104343374Y-115007565D01*
X104314439Y-115029103D01*
X104290163Y-115054555D01*
X104271137Y-115083032D01*
X104257015Y-115114820D01*
X104244348Y-115187519D01*
X104244273Y-115193959D01*
X104244273Y-115202385D01*
X104247181Y-115243761D01*
X104255814Y-115282038D01*
X104269511Y-115316216D01*
X104288331Y-115347568D01*
X104341796Y-115402713D01*
X104419913Y-115449062D01*
X104483692Y-115473220D01*
X104624376Y-115517367D01*
X104708364Y-115546666D01*
X104783779Y-115580334D01*
X104839397Y-115611986D01*
X104888918Y-115647639D01*
X104927803Y-115683146D01*
X104961673Y-115722526D01*
X104988926Y-115763475D01*
X105011581Y-115808430D01*
X105042596Y-115910314D01*
X105054842Y-116035007D01*
X105054945Y-116048687D01*
X105054945Y-116225000D01*
G37*
G36*
X103286610Y-114728576D02*
G01*
X103353851Y-114737309D01*
X103414649Y-114751106D01*
X103471605Y-114770161D01*
X103522623Y-114793426D01*
X103569741Y-114821480D01*
X103611621Y-114853281D01*
X103649510Y-114889528D01*
X103682790Y-114929555D01*
X103711900Y-114973827D01*
X103757060Y-115075089D01*
X103783989Y-115194859D01*
X103790989Y-115305242D01*
X103790989Y-115674812D01*
X103788087Y-115749128D01*
X103779502Y-115818252D01*
X103766000Y-115880041D01*
X103747532Y-115937037D01*
X103724954Y-115987906D01*
X103697975Y-116034275D01*
X103667179Y-116075641D01*
X103632383Y-116112659D01*
X103550871Y-116174007D01*
X103452321Y-116218860D01*
X103334887Y-116246326D01*
X103215614Y-116254400D01*
X103142344Y-116251465D01*
X103073087Y-116242639D01*
X103011536Y-116228859D01*
X102953976Y-116209769D01*
X102903169Y-116186692D01*
X102856312Y-116158780D01*
X102815109Y-116127337D01*
X102777871Y-116091378D01*
X102745359Y-116051726D01*
X102716947Y-116007700D01*
X102672979Y-115906425D01*
X102646837Y-115785169D01*
X102640239Y-115674812D01*
X102640239Y-115305242D01*
X102640744Y-115292694D01*
X102908967Y-115292694D01*
X102908967Y-115683238D01*
X102911915Y-115744396D01*
X102920827Y-115799781D01*
X102934036Y-115844566D01*
X102952237Y-115884417D01*
X102973526Y-115916709D01*
X102999188Y-115944599D01*
X103028114Y-115967225D01*
X103061210Y-115985588D01*
X103141233Y-116009367D01*
X103215614Y-116015073D01*
X103270214Y-116012144D01*
X103319492Y-116003362D01*
X103360013Y-115990168D01*
X103396038Y-115972064D01*
X103426020Y-115950385D01*
X103451952Y-115924312D01*
X103491456Y-115859440D01*
X103515502Y-115773444D01*
X103522169Y-115683238D01*
X103522169Y-115292694D01*
X103519265Y-115237102D01*
X103510660Y-115186222D01*
X103497365Y-115142419D01*
X103479217Y-115103126D01*
X103457382Y-115069803D01*
X103431333Y-115040861D01*
X103368368Y-114997204D01*
X103289521Y-114971563D01*
X103215614Y-114965073D01*
X103164881Y-114967999D01*
X103117948Y-114976755D01*
X103077528Y-114990276D01*
X103040910Y-115008897D01*
X103009680Y-115031423D01*
X102982302Y-115058556D01*
X102940402Y-115125322D01*
X102915339Y-115211097D01*
X102908967Y-115292694D01*
X102640744Y-115292694D01*
X102643140Y-115233099D01*
X102651725Y-115165558D01*
X102665325Y-115104442D01*
X102683951Y-115047740D01*
X102706842Y-114996648D01*
X102734222Y-114949844D01*
X102765538Y-114907843D01*
X102800941Y-114870100D01*
X102883694Y-114807366D01*
X102983058Y-114761522D01*
X103100136Y-114733643D01*
X103215614Y-114725654D01*
X103286610Y-114728576D01*
G37*
G36*
X102447897Y-116225000D02*
G01*
X101381045Y-116225000D01*
X101381045Y-115985672D01*
X102172758Y-115985672D01*
X102172758Y-115977246D01*
X102169611Y-115935086D01*
X102159308Y-115897618D01*
X102145210Y-115870814D01*
X102125163Y-115846191D01*
X102065477Y-115802588D01*
X101962428Y-115759268D01*
X101941765Y-115752573D01*
X101807401Y-115710532D01*
X101725061Y-115681698D01*
X101648522Y-115647450D01*
X101590523Y-115614595D01*
X101537857Y-115577146D01*
X101496581Y-115540224D01*
X101460302Y-115499181D01*
X101431798Y-115457706D01*
X101408171Y-115412323D01*
X101390457Y-115365135D01*
X101377768Y-115314002D01*
X101368497Y-115210720D01*
X101368497Y-115189746D01*
X101371383Y-115136362D01*
X101379865Y-115085595D01*
X101412754Y-114992038D01*
X101465911Y-114909605D01*
X101538582Y-114839511D01*
X101629961Y-114783819D01*
X101738538Y-114745283D01*
X101861677Y-114726862D01*
X101903938Y-114725654D01*
X101969169Y-114728566D01*
X102031907Y-114737226D01*
X102090730Y-114751224D01*
X102146373Y-114770554D01*
X102197134Y-114794398D01*
X102244162Y-114823095D01*
X102285867Y-114855465D01*
X102323408Y-114892216D01*
X102355599Y-114932046D01*
X102383255Y-114975845D01*
X102405668Y-115022524D01*
X102423166Y-115072854D01*
X102435378Y-115126221D01*
X102442226Y-115183016D01*
X102443684Y-115225466D01*
X102443684Y-115259080D01*
X102174864Y-115259080D01*
X102174864Y-115221253D01*
X102171977Y-115175801D01*
X102163491Y-115134563D01*
X102150261Y-115098879D01*
X102132309Y-115067250D01*
X102083992Y-115017030D01*
X102018753Y-114982921D01*
X101935272Y-114966222D01*
X101903938Y-114965073D01*
X101854859Y-114967956D01*
X101810013Y-114976418D01*
X101770928Y-114989643D01*
X101736326Y-115007565D01*
X101707391Y-115029103D01*
X101683115Y-115054555D01*
X101664089Y-115083032D01*
X101649966Y-115114820D01*
X101637299Y-115187519D01*
X101637225Y-115193959D01*
X101637225Y-115202385D01*
X101640133Y-115243761D01*
X101648766Y-115282038D01*
X101662463Y-115316216D01*
X101681283Y-115347568D01*
X101734748Y-115402713D01*
X101812865Y-115449062D01*
X101876644Y-115473220D01*
X102017328Y-115517367D01*
X102101315Y-115546666D01*
X102176731Y-115580334D01*
X102232349Y-115611986D01*
X102281870Y-115647639D01*
X102320755Y-115683146D01*
X102354624Y-115722526D01*
X102381878Y-115763475D01*
X102404533Y-115808430D01*
X102435548Y-115910314D01*
X102447794Y-116035007D01*
X102447897Y-116048687D01*
X102447897Y-116225000D01*
G37*
G36*
X100652621Y-116254400D02*
G01*
X100581617Y-116251498D01*
X100514862Y-116242902D01*
X100454185Y-116229251D01*
X100397805Y-116210537D01*
X100347187Y-116187606D01*
X100300901Y-116160168D01*
X100259887Y-116129062D01*
X100223273Y-116093905D01*
X100191472Y-116055232D01*
X100164222Y-116012850D01*
X100123740Y-115917146D01*
X100102839Y-115806322D01*
X100100327Y-115748360D01*
X100100327Y-115723172D01*
X100103205Y-115662556D01*
X100111631Y-115605841D01*
X100125219Y-115553303D01*
X100143683Y-115504732D01*
X100166832Y-115459979D01*
X100194275Y-115419332D01*
X100261922Y-115349624D01*
X100345541Y-115296397D01*
X100443829Y-115261334D01*
X100554572Y-115246723D01*
X100572845Y-115246441D01*
X100630257Y-115249232D01*
X100680870Y-115257048D01*
X100765632Y-115285685D01*
X100828708Y-115327825D01*
X100856319Y-115357724D01*
X100894146Y-115357724D01*
X100894146Y-114998687D01*
X100159128Y-114998687D01*
X100159128Y-114755054D01*
X101162966Y-114755054D01*
X101162966Y-115578275D01*
X100837452Y-115578275D01*
X100808333Y-115539409D01*
X100766011Y-115503905D01*
X100733992Y-115487542D01*
X100695351Y-115475702D01*
X100629540Y-115469098D01*
X100586660Y-115471985D01*
X100546402Y-115480470D01*
X100509506Y-115494142D01*
X100476007Y-115512796D01*
X100446734Y-115535788D01*
X100421546Y-115563118D01*
X100401117Y-115594025D01*
X100385402Y-115628665D01*
X100374848Y-115666425D01*
X100369647Y-115707389D01*
X100369146Y-115725279D01*
X100369146Y-115746253D01*
X100372058Y-115791396D01*
X100380714Y-115833348D01*
X100394298Y-115870273D01*
X100412953Y-115903676D01*
X100435759Y-115932403D01*
X100463132Y-115957292D01*
X100494644Y-115977899D01*
X100530449Y-115994231D01*
X100615795Y-116013172D01*
X100656834Y-116015073D01*
X100705966Y-116012211D01*
X100750409Y-116003899D01*
X100789538Y-115990805D01*
X100824090Y-115973229D01*
X100853991Y-115951610D01*
X100879294Y-115926309D01*
X100916540Y-115864997D01*
X100934750Y-115790537D01*
X100936187Y-115760908D01*
X100936187Y-115742040D01*
X101209128Y-115742040D01*
X101209128Y-115763014D01*
X101206222Y-115821891D01*
X101197604Y-115877803D01*
X101183741Y-115929603D01*
X101164666Y-115978211D01*
X101140854Y-116022912D01*
X101112232Y-116064177D01*
X101041344Y-116135561D01*
X100952224Y-116191724D01*
X100844590Y-116231252D01*
X100718117Y-116251949D01*
X100652621Y-116254400D01*
G37*
G36*
X99887286Y-115809268D02*
G01*
X99265749Y-115809268D01*
X99265749Y-115569849D01*
X99887286Y-115569849D01*
X99887286Y-115809268D01*
G37*
G36*
X98581197Y-116225000D02*
G01*
X98312377Y-116225000D01*
X98312377Y-114755054D01*
X98797535Y-114755054D01*
X99097771Y-115418632D01*
X98816403Y-115418632D01*
X98619024Y-114952433D01*
X98581197Y-114952433D01*
X98581197Y-116225000D01*
G37*
G36*
X113983232Y-117676935D02*
G01*
X114035977Y-117685579D01*
X114086486Y-117699758D01*
X114134615Y-117719370D01*
X114179579Y-117744030D01*
X114221483Y-117773775D01*
X114259508Y-117808018D01*
X114293851Y-117846984D01*
X114323811Y-117889979D01*
X114349509Y-117937350D01*
X114370424Y-117988454D01*
X114386508Y-118043628D01*
X114397389Y-118102408D01*
X114402854Y-118164994D01*
X114403463Y-118194812D01*
X114403463Y-118228426D01*
X114400586Y-118292334D01*
X114392171Y-118352529D01*
X114378506Y-118409034D01*
X114359929Y-118461595D01*
X114336598Y-118510417D01*
X114308955Y-118555028D01*
X114241259Y-118631911D01*
X114158865Y-118690906D01*
X114064125Y-118730298D01*
X113959966Y-118748254D01*
X113928838Y-118749213D01*
X113869181Y-118746404D01*
X113816743Y-118738467D01*
X113770346Y-118725907D01*
X113730370Y-118709579D01*
X113664790Y-118666266D01*
X113616469Y-118610844D01*
X113609643Y-118600102D01*
X113571816Y-118600102D01*
X113571816Y-118871029D01*
X113574703Y-118895259D01*
X113583188Y-118913633D01*
X113610495Y-118931655D01*
X113630617Y-118934043D01*
X114235484Y-118934043D01*
X114235484Y-119165036D01*
X113538293Y-119165036D01*
X113497040Y-119162151D01*
X113459026Y-119153678D01*
X113425248Y-119140239D01*
X113395140Y-119121967D01*
X113369316Y-119099464D01*
X113347606Y-119072756D01*
X113317589Y-119007648D01*
X113307301Y-118929830D01*
X113307301Y-118201132D01*
X113567694Y-118201132D01*
X113567694Y-118222106D01*
X113570565Y-118270523D01*
X113578936Y-118314953D01*
X113592259Y-118354842D01*
X113610253Y-118390634D01*
X113632560Y-118422215D01*
X113658837Y-118449497D01*
X113722922Y-118491229D01*
X113801180Y-118514335D01*
X113853275Y-118518220D01*
X113898493Y-118515311D01*
X113941194Y-118506671D01*
X113979907Y-118492886D01*
X114015393Y-118473918D01*
X114046349Y-118450672D01*
X114073498Y-118422772D01*
X114096005Y-118391082D01*
X114114150Y-118355146D01*
X114127497Y-118315375D01*
X114135847Y-118271624D01*
X114138856Y-118222106D01*
X114138856Y-118201132D01*
X114135982Y-118152353D01*
X114127591Y-118107620D01*
X114114276Y-118067640D01*
X114096275Y-118031791D01*
X114074026Y-118000308D01*
X114047783Y-117973124D01*
X113983807Y-117931703D01*
X113905393Y-117908829D01*
X113853275Y-117905018D01*
X113807561Y-117907927D01*
X113764567Y-117916565D01*
X113725854Y-117930293D01*
X113690471Y-117949167D01*
X113659693Y-117972274D01*
X113632751Y-117999998D01*
X113610392Y-118031559D01*
X113592380Y-118067349D01*
X113579078Y-118107132D01*
X113570744Y-118150910D01*
X113567694Y-118201132D01*
X113307301Y-118201132D01*
X113307301Y-117703426D01*
X113567694Y-117703426D01*
X113567694Y-117829455D01*
X113605430Y-117829455D01*
X113635874Y-117789020D01*
X113677232Y-117749692D01*
X113713941Y-117724764D01*
X113757898Y-117703471D01*
X113803322Y-117688717D01*
X113855525Y-117678661D01*
X113928838Y-117674025D01*
X113983232Y-117676935D01*
G37*
G36*
X112551229Y-117248576D02*
G01*
X112618471Y-117257309D01*
X112679268Y-117271106D01*
X112736225Y-117290161D01*
X112787242Y-117313426D01*
X112834361Y-117341480D01*
X112876241Y-117373281D01*
X112914129Y-117409528D01*
X112947410Y-117449555D01*
X112976519Y-117493827D01*
X113021680Y-117595089D01*
X113048609Y-117714859D01*
X113055608Y-117825242D01*
X113055608Y-118194812D01*
X113052707Y-118269128D01*
X113044122Y-118338252D01*
X113030619Y-118400041D01*
X113012152Y-118457037D01*
X112989573Y-118507906D01*
X112962594Y-118554275D01*
X112931799Y-118595641D01*
X112897003Y-118632659D01*
X112815490Y-118694007D01*
X112716941Y-118738860D01*
X112599507Y-118766326D01*
X112480233Y-118774400D01*
X112406964Y-118771465D01*
X112337707Y-118762639D01*
X112276156Y-118748859D01*
X112218596Y-118729769D01*
X112167789Y-118706692D01*
X112120932Y-118678780D01*
X112079728Y-118647337D01*
X112042490Y-118611378D01*
X112009979Y-118571726D01*
X111981567Y-118527700D01*
X111937598Y-118426425D01*
X111911456Y-118305169D01*
X111904858Y-118194812D01*
X111904858Y-117825242D01*
X111905363Y-117812694D01*
X112173586Y-117812694D01*
X112173586Y-118203238D01*
X112176534Y-118264396D01*
X112185446Y-118319781D01*
X112198656Y-118364566D01*
X112216856Y-118404417D01*
X112238145Y-118436709D01*
X112263807Y-118464599D01*
X112292734Y-118487225D01*
X112325830Y-118505588D01*
X112405853Y-118529367D01*
X112480233Y-118535073D01*
X112534834Y-118532144D01*
X112584112Y-118523362D01*
X112624633Y-118510168D01*
X112660658Y-118492064D01*
X112690639Y-118470385D01*
X112716571Y-118444312D01*
X112756075Y-118379440D01*
X112780122Y-118293444D01*
X112786789Y-118203238D01*
X112786789Y-117812694D01*
X112783885Y-117757102D01*
X112775280Y-117706222D01*
X112761985Y-117662419D01*
X112743836Y-117623126D01*
X112722002Y-117589803D01*
X112695953Y-117560861D01*
X112632988Y-117517204D01*
X112554140Y-117491563D01*
X112480233Y-117485073D01*
X112429501Y-117487999D01*
X112382568Y-117496755D01*
X112342148Y-117510276D01*
X112305530Y-117528897D01*
X112274299Y-117551423D01*
X112246922Y-117578556D01*
X112205022Y-117645322D01*
X112179959Y-117731097D01*
X112173586Y-117812694D01*
X111905363Y-117812694D01*
X111907759Y-117753099D01*
X111916344Y-117685558D01*
X111929945Y-117624442D01*
X111948570Y-117567740D01*
X111971462Y-117516648D01*
X111998842Y-117469844D01*
X112030157Y-117427843D01*
X112065560Y-117390100D01*
X112148314Y-117327366D01*
X112247678Y-117281522D01*
X112364756Y-117253643D01*
X112480233Y-117245654D01*
X112551229Y-117248576D01*
G37*
G36*
X111746039Y-118136010D02*
G01*
X111746039Y-118446871D01*
X111023661Y-118446871D01*
X111023661Y-118745000D01*
X110754841Y-118745000D01*
X110754841Y-118446871D01*
X110511300Y-118446871D01*
X110511300Y-118207452D01*
X110754841Y-118207452D01*
X111023661Y-118207452D01*
X111489859Y-118207452D01*
X111489859Y-118173838D01*
X111061488Y-117447246D01*
X111023661Y-117447246D01*
X111023661Y-118207452D01*
X110754841Y-118207452D01*
X110754841Y-117275054D01*
X111237892Y-117275054D01*
X111746039Y-118136010D01*
G37*
M02*
