%TF.GenerationSoftware,KiCad,Pcbnew,9.0.2*%
%TF.CreationDate,2025-06-20T15:29:42-04:00*%
%TF.ProjectId,proyecto02,70726f79-6563-4746-9f30-322e6b696361,rev?*%
%TF.SameCoordinates,Original*%
%TF.FileFunction,Legend,Top*%
%TF.FilePolarity,Positive*%
%FSLAX46Y46*%
G04 Gerber Fmt 4.6, Leading zero omitted, Abs format (unit mm)*
G04 Created by KiCad (PCBNEW 9.0.2) date 2025-06-20 15:29:42*
%MOMM*%
%LPD*%
G01*
G04 APERTURE LIST*
%ADD10C,0.187500*%
%ADD11C,0.100000*%
%ADD12C,0.150000*%
%ADD13C,0.120000*%
G04 APERTURE END LIST*
D10*
X69766212Y-108806678D02*
X70266212Y-110306678D01*
X70266212Y-110306678D02*
X70766212Y-108806678D01*
X71266211Y-109520964D02*
X71766211Y-109520964D01*
X71980497Y-110306678D02*
X71266211Y-110306678D01*
X71266211Y-110306678D02*
X71266211Y-108806678D01*
X71266211Y-108806678D02*
X71980497Y-108806678D01*
X73337640Y-110306678D02*
X72623354Y-110306678D01*
X72623354Y-110306678D02*
X72623354Y-108806678D01*
X74980497Y-110306678D02*
X74980497Y-108806678D01*
X74980497Y-108806678D02*
X75480497Y-109878107D01*
X75480497Y-109878107D02*
X75980497Y-108806678D01*
X75980497Y-108806678D02*
X75980497Y-110306678D01*
X76980498Y-108806678D02*
X77266212Y-108806678D01*
X77266212Y-108806678D02*
X77409069Y-108878107D01*
X77409069Y-108878107D02*
X77551926Y-109020964D01*
X77551926Y-109020964D02*
X77623355Y-109306678D01*
X77623355Y-109306678D02*
X77623355Y-109806678D01*
X77623355Y-109806678D02*
X77551926Y-110092392D01*
X77551926Y-110092392D02*
X77409069Y-110235250D01*
X77409069Y-110235250D02*
X77266212Y-110306678D01*
X77266212Y-110306678D02*
X76980498Y-110306678D01*
X76980498Y-110306678D02*
X76837641Y-110235250D01*
X76837641Y-110235250D02*
X76694783Y-110092392D01*
X76694783Y-110092392D02*
X76623355Y-109806678D01*
X76623355Y-109806678D02*
X76623355Y-109306678D01*
X76623355Y-109306678D02*
X76694783Y-109020964D01*
X76694783Y-109020964D02*
X76837641Y-108878107D01*
X76837641Y-108878107D02*
X76980498Y-108806678D01*
X78051927Y-108806678D02*
X78909070Y-108806678D01*
X78480498Y-110306678D02*
X78480498Y-108806678D01*
X79694784Y-108806678D02*
X79980498Y-108806678D01*
X79980498Y-108806678D02*
X80123355Y-108878107D01*
X80123355Y-108878107D02*
X80266212Y-109020964D01*
X80266212Y-109020964D02*
X80337641Y-109306678D01*
X80337641Y-109306678D02*
X80337641Y-109806678D01*
X80337641Y-109806678D02*
X80266212Y-110092392D01*
X80266212Y-110092392D02*
X80123355Y-110235250D01*
X80123355Y-110235250D02*
X79980498Y-110306678D01*
X79980498Y-110306678D02*
X79694784Y-110306678D01*
X79694784Y-110306678D02*
X79551927Y-110235250D01*
X79551927Y-110235250D02*
X79409069Y-110092392D01*
X79409069Y-110092392D02*
X79337641Y-109806678D01*
X79337641Y-109806678D02*
X79337641Y-109306678D01*
X79337641Y-109306678D02*
X79409069Y-109020964D01*
X79409069Y-109020964D02*
X79551927Y-108878107D01*
X79551927Y-108878107D02*
X79694784Y-108806678D01*
X81837641Y-110306678D02*
X81337641Y-109592392D01*
X80980498Y-110306678D02*
X80980498Y-108806678D01*
X80980498Y-108806678D02*
X81551927Y-108806678D01*
X81551927Y-108806678D02*
X81694784Y-108878107D01*
X81694784Y-108878107D02*
X81766213Y-108949535D01*
X81766213Y-108949535D02*
X81837641Y-109092392D01*
X81837641Y-109092392D02*
X81837641Y-109306678D01*
X81837641Y-109306678D02*
X81766213Y-109449535D01*
X81766213Y-109449535D02*
X81694784Y-109520964D01*
X81694784Y-109520964D02*
X81551927Y-109592392D01*
X81551927Y-109592392D02*
X80980498Y-109592392D01*
D11*
X56491466Y-61196115D02*
X56491466Y-60434211D01*
X56872419Y-60815163D02*
X56110514Y-60815163D01*
X56872419Y-59910401D02*
X56872419Y-59719925D01*
X56872419Y-59719925D02*
X56824800Y-59624687D01*
X56824800Y-59624687D02*
X56777180Y-59577068D01*
X56777180Y-59577068D02*
X56634323Y-59481830D01*
X56634323Y-59481830D02*
X56443847Y-59434211D01*
X56443847Y-59434211D02*
X56062895Y-59434211D01*
X56062895Y-59434211D02*
X55967657Y-59481830D01*
X55967657Y-59481830D02*
X55920038Y-59529449D01*
X55920038Y-59529449D02*
X55872419Y-59624687D01*
X55872419Y-59624687D02*
X55872419Y-59815163D01*
X55872419Y-59815163D02*
X55920038Y-59910401D01*
X55920038Y-59910401D02*
X55967657Y-59958020D01*
X55967657Y-59958020D02*
X56062895Y-60005639D01*
X56062895Y-60005639D02*
X56300990Y-60005639D01*
X56300990Y-60005639D02*
X56396228Y-59958020D01*
X56396228Y-59958020D02*
X56443847Y-59910401D01*
X56443847Y-59910401D02*
X56491466Y-59815163D01*
X56491466Y-59815163D02*
X56491466Y-59624687D01*
X56491466Y-59624687D02*
X56443847Y-59529449D01*
X56443847Y-59529449D02*
X56396228Y-59481830D01*
X56396228Y-59481830D02*
X56300990Y-59434211D01*
X55872419Y-59148496D02*
X56872419Y-58815163D01*
X56872419Y-58815163D02*
X55872419Y-58481830D01*
D10*
X40010388Y-83196344D02*
X41224674Y-83196344D01*
X41224674Y-83196344D02*
X41367531Y-83124915D01*
X41367531Y-83124915D02*
X41438960Y-83053487D01*
X41438960Y-83053487D02*
X41510388Y-82910629D01*
X41510388Y-82910629D02*
X41510388Y-82624915D01*
X41510388Y-82624915D02*
X41438960Y-82482058D01*
X41438960Y-82482058D02*
X41367531Y-82410629D01*
X41367531Y-82410629D02*
X41224674Y-82339201D01*
X41224674Y-82339201D02*
X40010388Y-82339201D01*
X41510388Y-81624915D02*
X40010388Y-81624915D01*
X40010388Y-81624915D02*
X41081817Y-81124915D01*
X41081817Y-81124915D02*
X40010388Y-80624915D01*
X40010388Y-80624915D02*
X41510388Y-80624915D01*
X40724674Y-79410629D02*
X40796102Y-79196343D01*
X40796102Y-79196343D02*
X40867531Y-79124914D01*
X40867531Y-79124914D02*
X41010388Y-79053486D01*
X41010388Y-79053486D02*
X41224674Y-79053486D01*
X41224674Y-79053486D02*
X41367531Y-79124914D01*
X41367531Y-79124914D02*
X41438960Y-79196343D01*
X41438960Y-79196343D02*
X41510388Y-79339200D01*
X41510388Y-79339200D02*
X41510388Y-79910629D01*
X41510388Y-79910629D02*
X40010388Y-79910629D01*
X40010388Y-79910629D02*
X40010388Y-79410629D01*
X40010388Y-79410629D02*
X40081817Y-79267772D01*
X40081817Y-79267772D02*
X40153245Y-79196343D01*
X40153245Y-79196343D02*
X40296102Y-79124914D01*
X40296102Y-79124914D02*
X40438960Y-79124914D01*
X40438960Y-79124914D02*
X40581817Y-79196343D01*
X40581817Y-79196343D02*
X40653245Y-79267772D01*
X40653245Y-79267772D02*
X40724674Y-79410629D01*
X40724674Y-79410629D02*
X40724674Y-79910629D01*
X41510388Y-77553486D02*
X40796102Y-78053486D01*
X41510388Y-78410629D02*
X40010388Y-78410629D01*
X40010388Y-78410629D02*
X40010388Y-77839200D01*
X40010388Y-77839200D02*
X40081817Y-77696343D01*
X40081817Y-77696343D02*
X40153245Y-77624914D01*
X40153245Y-77624914D02*
X40296102Y-77553486D01*
X40296102Y-77553486D02*
X40510388Y-77553486D01*
X40510388Y-77553486D02*
X40653245Y-77624914D01*
X40653245Y-77624914D02*
X40724674Y-77696343D01*
X40724674Y-77696343D02*
X40796102Y-77839200D01*
X40796102Y-77839200D02*
X40796102Y-78410629D01*
X41081817Y-76982057D02*
X41081817Y-76267772D01*
X41510388Y-77124914D02*
X40010388Y-76624914D01*
X40010388Y-76624914D02*
X41510388Y-76124914D01*
X41510388Y-74910629D02*
X41510388Y-75624915D01*
X41510388Y-75624915D02*
X40010388Y-75624915D01*
D12*
X117428095Y-114097319D02*
X117428095Y-113097319D01*
X117428095Y-113573509D02*
X117999523Y-113573509D01*
X117999523Y-114097319D02*
X117999523Y-113097319D01*
X118904285Y-113430652D02*
X118904285Y-114097319D01*
X118666190Y-113049700D02*
X118428095Y-113763985D01*
X118428095Y-113763985D02*
X119047142Y-113763985D01*
X70641905Y-106987319D02*
X70641905Y-105987319D01*
X70641905Y-105987319D02*
X70880000Y-105987319D01*
X70880000Y-105987319D02*
X71022857Y-106034938D01*
X71022857Y-106034938D02*
X71118095Y-106130176D01*
X71118095Y-106130176D02*
X71165714Y-106225414D01*
X71165714Y-106225414D02*
X71213333Y-106415890D01*
X71213333Y-106415890D02*
X71213333Y-106558747D01*
X71213333Y-106558747D02*
X71165714Y-106749223D01*
X71165714Y-106749223D02*
X71118095Y-106844461D01*
X71118095Y-106844461D02*
X71022857Y-106939700D01*
X71022857Y-106939700D02*
X70880000Y-106987319D01*
X70880000Y-106987319D02*
X70641905Y-106987319D01*
X71546667Y-105987319D02*
X72165714Y-105987319D01*
X72165714Y-105987319D02*
X71832381Y-106368271D01*
X71832381Y-106368271D02*
X71975238Y-106368271D01*
X71975238Y-106368271D02*
X72070476Y-106415890D01*
X72070476Y-106415890D02*
X72118095Y-106463509D01*
X72118095Y-106463509D02*
X72165714Y-106558747D01*
X72165714Y-106558747D02*
X72165714Y-106796842D01*
X72165714Y-106796842D02*
X72118095Y-106892080D01*
X72118095Y-106892080D02*
X72070476Y-106939700D01*
X72070476Y-106939700D02*
X71975238Y-106987319D01*
X71975238Y-106987319D02*
X71689524Y-106987319D01*
X71689524Y-106987319D02*
X71594286Y-106939700D01*
X71594286Y-106939700D02*
X71546667Y-106892080D01*
X71618095Y-103154819D02*
X71618095Y-102154819D01*
X72189523Y-103154819D02*
X71760952Y-102583390D01*
X72189523Y-102154819D02*
X71618095Y-102726247D01*
X86833333Y-102359580D02*
X86785714Y-102407200D01*
X86785714Y-102407200D02*
X86642857Y-102454819D01*
X86642857Y-102454819D02*
X86547619Y-102454819D01*
X86547619Y-102454819D02*
X86404762Y-102407200D01*
X86404762Y-102407200D02*
X86309524Y-102311961D01*
X86309524Y-102311961D02*
X86261905Y-102216723D01*
X86261905Y-102216723D02*
X86214286Y-102026247D01*
X86214286Y-102026247D02*
X86214286Y-101883390D01*
X86214286Y-101883390D02*
X86261905Y-101692914D01*
X86261905Y-101692914D02*
X86309524Y-101597676D01*
X86309524Y-101597676D02*
X86404762Y-101502438D01*
X86404762Y-101502438D02*
X86547619Y-101454819D01*
X86547619Y-101454819D02*
X86642857Y-101454819D01*
X86642857Y-101454819D02*
X86785714Y-101502438D01*
X86785714Y-101502438D02*
X86833333Y-101550057D01*
X87214286Y-101550057D02*
X87261905Y-101502438D01*
X87261905Y-101502438D02*
X87357143Y-101454819D01*
X87357143Y-101454819D02*
X87595238Y-101454819D01*
X87595238Y-101454819D02*
X87690476Y-101502438D01*
X87690476Y-101502438D02*
X87738095Y-101550057D01*
X87738095Y-101550057D02*
X87785714Y-101645295D01*
X87785714Y-101645295D02*
X87785714Y-101740533D01*
X87785714Y-101740533D02*
X87738095Y-101883390D01*
X87738095Y-101883390D02*
X87166667Y-102454819D01*
X87166667Y-102454819D02*
X87785714Y-102454819D01*
X59756905Y-86994819D02*
X59756905Y-85994819D01*
X59756905Y-85994819D02*
X59995000Y-85994819D01*
X59995000Y-85994819D02*
X60137857Y-86042438D01*
X60137857Y-86042438D02*
X60233095Y-86137676D01*
X60233095Y-86137676D02*
X60280714Y-86232914D01*
X60280714Y-86232914D02*
X60328333Y-86423390D01*
X60328333Y-86423390D02*
X60328333Y-86566247D01*
X60328333Y-86566247D02*
X60280714Y-86756723D01*
X60280714Y-86756723D02*
X60233095Y-86851961D01*
X60233095Y-86851961D02*
X60137857Y-86947200D01*
X60137857Y-86947200D02*
X59995000Y-86994819D01*
X59995000Y-86994819D02*
X59756905Y-86994819D01*
X61233095Y-85994819D02*
X60756905Y-85994819D01*
X60756905Y-85994819D02*
X60709286Y-86471009D01*
X60709286Y-86471009D02*
X60756905Y-86423390D01*
X60756905Y-86423390D02*
X60852143Y-86375771D01*
X60852143Y-86375771D02*
X61090238Y-86375771D01*
X61090238Y-86375771D02*
X61185476Y-86423390D01*
X61185476Y-86423390D02*
X61233095Y-86471009D01*
X61233095Y-86471009D02*
X61280714Y-86566247D01*
X61280714Y-86566247D02*
X61280714Y-86804342D01*
X61280714Y-86804342D02*
X61233095Y-86899580D01*
X61233095Y-86899580D02*
X61185476Y-86947200D01*
X61185476Y-86947200D02*
X61090238Y-86994819D01*
X61090238Y-86994819D02*
X60852143Y-86994819D01*
X60852143Y-86994819D02*
X60756905Y-86947200D01*
X60756905Y-86947200D02*
X60709286Y-86899580D01*
X31454761Y-89154819D02*
X31121428Y-88678628D01*
X30883333Y-89154819D02*
X30883333Y-88154819D01*
X30883333Y-88154819D02*
X31264285Y-88154819D01*
X31264285Y-88154819D02*
X31359523Y-88202438D01*
X31359523Y-88202438D02*
X31407142Y-88250057D01*
X31407142Y-88250057D02*
X31454761Y-88345295D01*
X31454761Y-88345295D02*
X31454761Y-88488152D01*
X31454761Y-88488152D02*
X31407142Y-88583390D01*
X31407142Y-88583390D02*
X31359523Y-88631009D01*
X31359523Y-88631009D02*
X31264285Y-88678628D01*
X31264285Y-88678628D02*
X30883333Y-88678628D01*
X31740476Y-88154819D02*
X32073809Y-89154819D01*
X32073809Y-89154819D02*
X32407142Y-88154819D01*
X32692857Y-88250057D02*
X32740476Y-88202438D01*
X32740476Y-88202438D02*
X32835714Y-88154819D01*
X32835714Y-88154819D02*
X33073809Y-88154819D01*
X33073809Y-88154819D02*
X33169047Y-88202438D01*
X33169047Y-88202438D02*
X33216666Y-88250057D01*
X33216666Y-88250057D02*
X33264285Y-88345295D01*
X33264285Y-88345295D02*
X33264285Y-88440533D01*
X33264285Y-88440533D02*
X33216666Y-88583390D01*
X33216666Y-88583390D02*
X32645238Y-89154819D01*
X32645238Y-89154819D02*
X33264285Y-89154819D01*
X104761905Y-77984819D02*
X104761905Y-76984819D01*
X104761905Y-76984819D02*
X105000000Y-76984819D01*
X105000000Y-76984819D02*
X105142857Y-77032438D01*
X105142857Y-77032438D02*
X105238095Y-77127676D01*
X105238095Y-77127676D02*
X105285714Y-77222914D01*
X105285714Y-77222914D02*
X105333333Y-77413390D01*
X105333333Y-77413390D02*
X105333333Y-77556247D01*
X105333333Y-77556247D02*
X105285714Y-77746723D01*
X105285714Y-77746723D02*
X105238095Y-77841961D01*
X105238095Y-77841961D02*
X105142857Y-77937200D01*
X105142857Y-77937200D02*
X105000000Y-77984819D01*
X105000000Y-77984819D02*
X104761905Y-77984819D01*
X106190476Y-77318152D02*
X106190476Y-77984819D01*
X105952381Y-76937200D02*
X105714286Y-77651485D01*
X105714286Y-77651485D02*
X106333333Y-77651485D01*
X100158095Y-78354819D02*
X100158095Y-77354819D01*
X100729523Y-78354819D02*
X100300952Y-77783390D01*
X100729523Y-77354819D02*
X100158095Y-77926247D01*
X114190476Y-67802319D02*
X114190476Y-66802319D01*
X114190476Y-66802319D02*
X114523809Y-67516604D01*
X114523809Y-67516604D02*
X114857142Y-66802319D01*
X114857142Y-66802319D02*
X114857142Y-67802319D01*
X115857142Y-67802319D02*
X115285714Y-67802319D01*
X115571428Y-67802319D02*
X115571428Y-66802319D01*
X115571428Y-66802319D02*
X115476190Y-66945176D01*
X115476190Y-66945176D02*
X115380952Y-67040414D01*
X115380952Y-67040414D02*
X115285714Y-67088033D01*
X88833333Y-84584819D02*
X88500000Y-84108628D01*
X88261905Y-84584819D02*
X88261905Y-83584819D01*
X88261905Y-83584819D02*
X88642857Y-83584819D01*
X88642857Y-83584819D02*
X88738095Y-83632438D01*
X88738095Y-83632438D02*
X88785714Y-83680057D01*
X88785714Y-83680057D02*
X88833333Y-83775295D01*
X88833333Y-83775295D02*
X88833333Y-83918152D01*
X88833333Y-83918152D02*
X88785714Y-84013390D01*
X88785714Y-84013390D02*
X88738095Y-84061009D01*
X88738095Y-84061009D02*
X88642857Y-84108628D01*
X88642857Y-84108628D02*
X88261905Y-84108628D01*
X89166667Y-83584819D02*
X89785714Y-83584819D01*
X89785714Y-83584819D02*
X89452381Y-83965771D01*
X89452381Y-83965771D02*
X89595238Y-83965771D01*
X89595238Y-83965771D02*
X89690476Y-84013390D01*
X89690476Y-84013390D02*
X89738095Y-84061009D01*
X89738095Y-84061009D02*
X89785714Y-84156247D01*
X89785714Y-84156247D02*
X89785714Y-84394342D01*
X89785714Y-84394342D02*
X89738095Y-84489580D01*
X89738095Y-84489580D02*
X89690476Y-84537200D01*
X89690476Y-84537200D02*
X89595238Y-84584819D01*
X89595238Y-84584819D02*
X89309524Y-84584819D01*
X89309524Y-84584819D02*
X89214286Y-84537200D01*
X89214286Y-84537200D02*
X89166667Y-84489580D01*
X81341905Y-59984819D02*
X81341905Y-58984819D01*
X81341905Y-58984819D02*
X81580000Y-58984819D01*
X81580000Y-58984819D02*
X81722857Y-59032438D01*
X81722857Y-59032438D02*
X81818095Y-59127676D01*
X81818095Y-59127676D02*
X81865714Y-59222914D01*
X81865714Y-59222914D02*
X81913333Y-59413390D01*
X81913333Y-59413390D02*
X81913333Y-59556247D01*
X81913333Y-59556247D02*
X81865714Y-59746723D01*
X81865714Y-59746723D02*
X81818095Y-59841961D01*
X81818095Y-59841961D02*
X81722857Y-59937200D01*
X81722857Y-59937200D02*
X81580000Y-59984819D01*
X81580000Y-59984819D02*
X81341905Y-59984819D01*
X82770476Y-58984819D02*
X82580000Y-58984819D01*
X82580000Y-58984819D02*
X82484762Y-59032438D01*
X82484762Y-59032438D02*
X82437143Y-59080057D01*
X82437143Y-59080057D02*
X82341905Y-59222914D01*
X82341905Y-59222914D02*
X82294286Y-59413390D01*
X82294286Y-59413390D02*
X82294286Y-59794342D01*
X82294286Y-59794342D02*
X82341905Y-59889580D01*
X82341905Y-59889580D02*
X82389524Y-59937200D01*
X82389524Y-59937200D02*
X82484762Y-59984819D01*
X82484762Y-59984819D02*
X82675238Y-59984819D01*
X82675238Y-59984819D02*
X82770476Y-59937200D01*
X82770476Y-59937200D02*
X82818095Y-59889580D01*
X82818095Y-59889580D02*
X82865714Y-59794342D01*
X82865714Y-59794342D02*
X82865714Y-59556247D01*
X82865714Y-59556247D02*
X82818095Y-59461009D01*
X82818095Y-59461009D02*
X82770476Y-59413390D01*
X82770476Y-59413390D02*
X82675238Y-59365771D01*
X82675238Y-59365771D02*
X82484762Y-59365771D01*
X82484762Y-59365771D02*
X82389524Y-59413390D01*
X82389524Y-59413390D02*
X82341905Y-59461009D01*
X82341905Y-59461009D02*
X82294286Y-59556247D01*
X76738095Y-60354819D02*
X76738095Y-59354819D01*
X77309523Y-60354819D02*
X76880952Y-59783390D01*
X77309523Y-59354819D02*
X76738095Y-59926247D01*
X102833333Y-95584819D02*
X102500000Y-95108628D01*
X102261905Y-95584819D02*
X102261905Y-94584819D01*
X102261905Y-94584819D02*
X102642857Y-94584819D01*
X102642857Y-94584819D02*
X102738095Y-94632438D01*
X102738095Y-94632438D02*
X102785714Y-94680057D01*
X102785714Y-94680057D02*
X102833333Y-94775295D01*
X102833333Y-94775295D02*
X102833333Y-94918152D01*
X102833333Y-94918152D02*
X102785714Y-95013390D01*
X102785714Y-95013390D02*
X102738095Y-95061009D01*
X102738095Y-95061009D02*
X102642857Y-95108628D01*
X102642857Y-95108628D02*
X102261905Y-95108628D01*
X103214286Y-94680057D02*
X103261905Y-94632438D01*
X103261905Y-94632438D02*
X103357143Y-94584819D01*
X103357143Y-94584819D02*
X103595238Y-94584819D01*
X103595238Y-94584819D02*
X103690476Y-94632438D01*
X103690476Y-94632438D02*
X103738095Y-94680057D01*
X103738095Y-94680057D02*
X103785714Y-94775295D01*
X103785714Y-94775295D02*
X103785714Y-94870533D01*
X103785714Y-94870533D02*
X103738095Y-95013390D01*
X103738095Y-95013390D02*
X103166667Y-95584819D01*
X103166667Y-95584819D02*
X103785714Y-95584819D01*
X32428095Y-114097319D02*
X32428095Y-113097319D01*
X32428095Y-113573509D02*
X32999523Y-113573509D01*
X32999523Y-114097319D02*
X32999523Y-113097319D01*
X33380476Y-113097319D02*
X33999523Y-113097319D01*
X33999523Y-113097319D02*
X33666190Y-113478271D01*
X33666190Y-113478271D02*
X33809047Y-113478271D01*
X33809047Y-113478271D02*
X33904285Y-113525890D01*
X33904285Y-113525890D02*
X33951904Y-113573509D01*
X33951904Y-113573509D02*
X33999523Y-113668747D01*
X33999523Y-113668747D02*
X33999523Y-113906842D01*
X33999523Y-113906842D02*
X33951904Y-114002080D01*
X33951904Y-114002080D02*
X33904285Y-114049700D01*
X33904285Y-114049700D02*
X33809047Y-114097319D01*
X33809047Y-114097319D02*
X33523333Y-114097319D01*
X33523333Y-114097319D02*
X33428095Y-114049700D01*
X33428095Y-114049700D02*
X33380476Y-114002080D01*
X98256905Y-101994819D02*
X98256905Y-100994819D01*
X98256905Y-100994819D02*
X98495000Y-100994819D01*
X98495000Y-100994819D02*
X98637857Y-101042438D01*
X98637857Y-101042438D02*
X98733095Y-101137676D01*
X98733095Y-101137676D02*
X98780714Y-101232914D01*
X98780714Y-101232914D02*
X98828333Y-101423390D01*
X98828333Y-101423390D02*
X98828333Y-101566247D01*
X98828333Y-101566247D02*
X98780714Y-101756723D01*
X98780714Y-101756723D02*
X98733095Y-101851961D01*
X98733095Y-101851961D02*
X98637857Y-101947200D01*
X98637857Y-101947200D02*
X98495000Y-101994819D01*
X98495000Y-101994819D02*
X98256905Y-101994819D01*
X99780714Y-101994819D02*
X99209286Y-101994819D01*
X99495000Y-101994819D02*
X99495000Y-100994819D01*
X99495000Y-100994819D02*
X99399762Y-101137676D01*
X99399762Y-101137676D02*
X99304524Y-101232914D01*
X99304524Y-101232914D02*
X99209286Y-101280533D01*
X119320057Y-89635238D02*
X119272438Y-89730476D01*
X119272438Y-89730476D02*
X119177200Y-89825714D01*
X119177200Y-89825714D02*
X119034342Y-89968571D01*
X119034342Y-89968571D02*
X118986723Y-90063809D01*
X118986723Y-90063809D02*
X118986723Y-90159047D01*
X119224819Y-90111428D02*
X119177200Y-90206666D01*
X119177200Y-90206666D02*
X119081961Y-90301904D01*
X119081961Y-90301904D02*
X118891485Y-90349523D01*
X118891485Y-90349523D02*
X118558152Y-90349523D01*
X118558152Y-90349523D02*
X118367676Y-90301904D01*
X118367676Y-90301904D02*
X118272438Y-90206666D01*
X118272438Y-90206666D02*
X118224819Y-90111428D01*
X118224819Y-90111428D02*
X118224819Y-89920952D01*
X118224819Y-89920952D02*
X118272438Y-89825714D01*
X118272438Y-89825714D02*
X118367676Y-89730476D01*
X118367676Y-89730476D02*
X118558152Y-89682857D01*
X118558152Y-89682857D02*
X118891485Y-89682857D01*
X118891485Y-89682857D02*
X119081961Y-89730476D01*
X119081961Y-89730476D02*
X119177200Y-89825714D01*
X119177200Y-89825714D02*
X119224819Y-89920952D01*
X119224819Y-89920952D02*
X119224819Y-90111428D01*
X119224819Y-88730476D02*
X119224819Y-89301904D01*
X119224819Y-89016190D02*
X118224819Y-89016190D01*
X118224819Y-89016190D02*
X118367676Y-89111428D01*
X118367676Y-89111428D02*
X118462914Y-89206666D01*
X118462914Y-89206666D02*
X118510533Y-89301904D01*
X86833333Y-90359580D02*
X86785714Y-90407200D01*
X86785714Y-90407200D02*
X86642857Y-90454819D01*
X86642857Y-90454819D02*
X86547619Y-90454819D01*
X86547619Y-90454819D02*
X86404762Y-90407200D01*
X86404762Y-90407200D02*
X86309524Y-90311961D01*
X86309524Y-90311961D02*
X86261905Y-90216723D01*
X86261905Y-90216723D02*
X86214286Y-90026247D01*
X86214286Y-90026247D02*
X86214286Y-89883390D01*
X86214286Y-89883390D02*
X86261905Y-89692914D01*
X86261905Y-89692914D02*
X86309524Y-89597676D01*
X86309524Y-89597676D02*
X86404762Y-89502438D01*
X86404762Y-89502438D02*
X86547619Y-89454819D01*
X86547619Y-89454819D02*
X86642857Y-89454819D01*
X86642857Y-89454819D02*
X86785714Y-89502438D01*
X86785714Y-89502438D02*
X86833333Y-89550057D01*
X87785714Y-90454819D02*
X87214286Y-90454819D01*
X87500000Y-90454819D02*
X87500000Y-89454819D01*
X87500000Y-89454819D02*
X87404762Y-89597676D01*
X87404762Y-89597676D02*
X87309524Y-89692914D01*
X87309524Y-89692914D02*
X87214286Y-89740533D01*
X71238095Y-79454819D02*
X71238095Y-80264342D01*
X71238095Y-80264342D02*
X71285714Y-80359580D01*
X71285714Y-80359580D02*
X71333333Y-80407200D01*
X71333333Y-80407200D02*
X71428571Y-80454819D01*
X71428571Y-80454819D02*
X71619047Y-80454819D01*
X71619047Y-80454819D02*
X71714285Y-80407200D01*
X71714285Y-80407200D02*
X71761904Y-80359580D01*
X71761904Y-80359580D02*
X71809523Y-80264342D01*
X71809523Y-80264342D02*
X71809523Y-79454819D01*
X72809523Y-80454819D02*
X72238095Y-80454819D01*
X72523809Y-80454819D02*
X72523809Y-79454819D01*
X72523809Y-79454819D02*
X72428571Y-79597676D01*
X72428571Y-79597676D02*
X72333333Y-79692914D01*
X72333333Y-79692914D02*
X72238095Y-79740533D01*
X32428095Y-59097319D02*
X32428095Y-58097319D01*
X32428095Y-58573509D02*
X32999523Y-58573509D01*
X32999523Y-59097319D02*
X32999523Y-58097319D01*
X33999523Y-59097319D02*
X33428095Y-59097319D01*
X33713809Y-59097319D02*
X33713809Y-58097319D01*
X33713809Y-58097319D02*
X33618571Y-58240176D01*
X33618571Y-58240176D02*
X33523333Y-58335414D01*
X33523333Y-58335414D02*
X33428095Y-58383033D01*
X86654819Y-118595238D02*
X86178628Y-118928571D01*
X86654819Y-119166666D02*
X85654819Y-119166666D01*
X85654819Y-119166666D02*
X85654819Y-118785714D01*
X85654819Y-118785714D02*
X85702438Y-118690476D01*
X85702438Y-118690476D02*
X85750057Y-118642857D01*
X85750057Y-118642857D02*
X85845295Y-118595238D01*
X85845295Y-118595238D02*
X85988152Y-118595238D01*
X85988152Y-118595238D02*
X86083390Y-118642857D01*
X86083390Y-118642857D02*
X86131009Y-118690476D01*
X86131009Y-118690476D02*
X86178628Y-118785714D01*
X86178628Y-118785714D02*
X86178628Y-119166666D01*
X85654819Y-118309523D02*
X86654819Y-117976190D01*
X86654819Y-117976190D02*
X85654819Y-117642857D01*
X86654819Y-116785714D02*
X86654819Y-117357142D01*
X86654819Y-117071428D02*
X85654819Y-117071428D01*
X85654819Y-117071428D02*
X85797676Y-117166666D01*
X85797676Y-117166666D02*
X85892914Y-117261904D01*
X85892914Y-117261904D02*
X85940533Y-117357142D01*
X56833333Y-75084819D02*
X56500000Y-74608628D01*
X56261905Y-75084819D02*
X56261905Y-74084819D01*
X56261905Y-74084819D02*
X56642857Y-74084819D01*
X56642857Y-74084819D02*
X56738095Y-74132438D01*
X56738095Y-74132438D02*
X56785714Y-74180057D01*
X56785714Y-74180057D02*
X56833333Y-74275295D01*
X56833333Y-74275295D02*
X56833333Y-74418152D01*
X56833333Y-74418152D02*
X56785714Y-74513390D01*
X56785714Y-74513390D02*
X56738095Y-74561009D01*
X56738095Y-74561009D02*
X56642857Y-74608628D01*
X56642857Y-74608628D02*
X56261905Y-74608628D01*
X57738095Y-74084819D02*
X57261905Y-74084819D01*
X57261905Y-74084819D02*
X57214286Y-74561009D01*
X57214286Y-74561009D02*
X57261905Y-74513390D01*
X57261905Y-74513390D02*
X57357143Y-74465771D01*
X57357143Y-74465771D02*
X57595238Y-74465771D01*
X57595238Y-74465771D02*
X57690476Y-74513390D01*
X57690476Y-74513390D02*
X57738095Y-74561009D01*
X57738095Y-74561009D02*
X57785714Y-74656247D01*
X57785714Y-74656247D02*
X57785714Y-74894342D01*
X57785714Y-74894342D02*
X57738095Y-74989580D01*
X57738095Y-74989580D02*
X57690476Y-75037200D01*
X57690476Y-75037200D02*
X57595238Y-75084819D01*
X57595238Y-75084819D02*
X57357143Y-75084819D01*
X57357143Y-75084819D02*
X57261905Y-75037200D01*
X57261905Y-75037200D02*
X57214286Y-74989580D01*
X45833333Y-64554819D02*
X45500000Y-64078628D01*
X45261905Y-64554819D02*
X45261905Y-63554819D01*
X45261905Y-63554819D02*
X45642857Y-63554819D01*
X45642857Y-63554819D02*
X45738095Y-63602438D01*
X45738095Y-63602438D02*
X45785714Y-63650057D01*
X45785714Y-63650057D02*
X45833333Y-63745295D01*
X45833333Y-63745295D02*
X45833333Y-63888152D01*
X45833333Y-63888152D02*
X45785714Y-63983390D01*
X45785714Y-63983390D02*
X45738095Y-64031009D01*
X45738095Y-64031009D02*
X45642857Y-64078628D01*
X45642857Y-64078628D02*
X45261905Y-64078628D01*
X46690476Y-63554819D02*
X46500000Y-63554819D01*
X46500000Y-63554819D02*
X46404762Y-63602438D01*
X46404762Y-63602438D02*
X46357143Y-63650057D01*
X46357143Y-63650057D02*
X46261905Y-63792914D01*
X46261905Y-63792914D02*
X46214286Y-63983390D01*
X46214286Y-63983390D02*
X46214286Y-64364342D01*
X46214286Y-64364342D02*
X46261905Y-64459580D01*
X46261905Y-64459580D02*
X46309524Y-64507200D01*
X46309524Y-64507200D02*
X46404762Y-64554819D01*
X46404762Y-64554819D02*
X46595238Y-64554819D01*
X46595238Y-64554819D02*
X46690476Y-64507200D01*
X46690476Y-64507200D02*
X46738095Y-64459580D01*
X46738095Y-64459580D02*
X46785714Y-64364342D01*
X46785714Y-64364342D02*
X46785714Y-64126247D01*
X46785714Y-64126247D02*
X46738095Y-64031009D01*
X46738095Y-64031009D02*
X46690476Y-63983390D01*
X46690476Y-63983390D02*
X46595238Y-63935771D01*
X46595238Y-63935771D02*
X46404762Y-63935771D01*
X46404762Y-63935771D02*
X46309524Y-63983390D01*
X46309524Y-63983390D02*
X46261905Y-64031009D01*
X46261905Y-64031009D02*
X46214286Y-64126247D01*
X61333333Y-80584819D02*
X61000000Y-80108628D01*
X60761905Y-80584819D02*
X60761905Y-79584819D01*
X60761905Y-79584819D02*
X61142857Y-79584819D01*
X61142857Y-79584819D02*
X61238095Y-79632438D01*
X61238095Y-79632438D02*
X61285714Y-79680057D01*
X61285714Y-79680057D02*
X61333333Y-79775295D01*
X61333333Y-79775295D02*
X61333333Y-79918152D01*
X61333333Y-79918152D02*
X61285714Y-80013390D01*
X61285714Y-80013390D02*
X61238095Y-80061009D01*
X61238095Y-80061009D02*
X61142857Y-80108628D01*
X61142857Y-80108628D02*
X60761905Y-80108628D01*
X61904762Y-80013390D02*
X61809524Y-79965771D01*
X61809524Y-79965771D02*
X61761905Y-79918152D01*
X61761905Y-79918152D02*
X61714286Y-79822914D01*
X61714286Y-79822914D02*
X61714286Y-79775295D01*
X61714286Y-79775295D02*
X61761905Y-79680057D01*
X61761905Y-79680057D02*
X61809524Y-79632438D01*
X61809524Y-79632438D02*
X61904762Y-79584819D01*
X61904762Y-79584819D02*
X62095238Y-79584819D01*
X62095238Y-79584819D02*
X62190476Y-79632438D01*
X62190476Y-79632438D02*
X62238095Y-79680057D01*
X62238095Y-79680057D02*
X62285714Y-79775295D01*
X62285714Y-79775295D02*
X62285714Y-79822914D01*
X62285714Y-79822914D02*
X62238095Y-79918152D01*
X62238095Y-79918152D02*
X62190476Y-79965771D01*
X62190476Y-79965771D02*
X62095238Y-80013390D01*
X62095238Y-80013390D02*
X61904762Y-80013390D01*
X61904762Y-80013390D02*
X61809524Y-80061009D01*
X61809524Y-80061009D02*
X61761905Y-80108628D01*
X61761905Y-80108628D02*
X61714286Y-80203866D01*
X61714286Y-80203866D02*
X61714286Y-80394342D01*
X61714286Y-80394342D02*
X61761905Y-80489580D01*
X61761905Y-80489580D02*
X61809524Y-80537200D01*
X61809524Y-80537200D02*
X61904762Y-80584819D01*
X61904762Y-80584819D02*
X62095238Y-80584819D01*
X62095238Y-80584819D02*
X62190476Y-80537200D01*
X62190476Y-80537200D02*
X62238095Y-80489580D01*
X62238095Y-80489580D02*
X62285714Y-80394342D01*
X62285714Y-80394342D02*
X62285714Y-80203866D01*
X62285714Y-80203866D02*
X62238095Y-80108628D01*
X62238095Y-80108628D02*
X62190476Y-80061009D01*
X62190476Y-80061009D02*
X62095238Y-80013390D01*
X59641905Y-106987319D02*
X59641905Y-105987319D01*
X59641905Y-105987319D02*
X59880000Y-105987319D01*
X59880000Y-105987319D02*
X60022857Y-106034938D01*
X60022857Y-106034938D02*
X60118095Y-106130176D01*
X60118095Y-106130176D02*
X60165714Y-106225414D01*
X60165714Y-106225414D02*
X60213333Y-106415890D01*
X60213333Y-106415890D02*
X60213333Y-106558747D01*
X60213333Y-106558747D02*
X60165714Y-106749223D01*
X60165714Y-106749223D02*
X60118095Y-106844461D01*
X60118095Y-106844461D02*
X60022857Y-106939700D01*
X60022857Y-106939700D02*
X59880000Y-106987319D01*
X59880000Y-106987319D02*
X59641905Y-106987319D01*
X60594286Y-106082557D02*
X60641905Y-106034938D01*
X60641905Y-106034938D02*
X60737143Y-105987319D01*
X60737143Y-105987319D02*
X60975238Y-105987319D01*
X60975238Y-105987319D02*
X61070476Y-106034938D01*
X61070476Y-106034938D02*
X61118095Y-106082557D01*
X61118095Y-106082557D02*
X61165714Y-106177795D01*
X61165714Y-106177795D02*
X61165714Y-106273033D01*
X61165714Y-106273033D02*
X61118095Y-106415890D01*
X61118095Y-106415890D02*
X60546667Y-106987319D01*
X60546667Y-106987319D02*
X61165714Y-106987319D01*
X60618095Y-103154819D02*
X60618095Y-102154819D01*
X61189523Y-103154819D02*
X60760952Y-102583390D01*
X61189523Y-102154819D02*
X60618095Y-102726247D01*
X56662319Y-63883333D02*
X57376604Y-63883333D01*
X57376604Y-63883333D02*
X57519461Y-63930952D01*
X57519461Y-63930952D02*
X57614700Y-64026190D01*
X57614700Y-64026190D02*
X57662319Y-64169047D01*
X57662319Y-64169047D02*
X57662319Y-64264285D01*
X56757557Y-63454761D02*
X56709938Y-63407142D01*
X56709938Y-63407142D02*
X56662319Y-63311904D01*
X56662319Y-63311904D02*
X56662319Y-63073809D01*
X56662319Y-63073809D02*
X56709938Y-62978571D01*
X56709938Y-62978571D02*
X56757557Y-62930952D01*
X56757557Y-62930952D02*
X56852795Y-62883333D01*
X56852795Y-62883333D02*
X56948033Y-62883333D01*
X56948033Y-62883333D02*
X57090890Y-62930952D01*
X57090890Y-62930952D02*
X57662319Y-63502380D01*
X57662319Y-63502380D02*
X57662319Y-62883333D01*
X103333333Y-84584819D02*
X103000000Y-84108628D01*
X102761905Y-84584819D02*
X102761905Y-83584819D01*
X102761905Y-83584819D02*
X103142857Y-83584819D01*
X103142857Y-83584819D02*
X103238095Y-83632438D01*
X103238095Y-83632438D02*
X103285714Y-83680057D01*
X103285714Y-83680057D02*
X103333333Y-83775295D01*
X103333333Y-83775295D02*
X103333333Y-83918152D01*
X103333333Y-83918152D02*
X103285714Y-84013390D01*
X103285714Y-84013390D02*
X103238095Y-84061009D01*
X103238095Y-84061009D02*
X103142857Y-84108628D01*
X103142857Y-84108628D02*
X102761905Y-84108628D01*
X104285714Y-84584819D02*
X103714286Y-84584819D01*
X104000000Y-84584819D02*
X104000000Y-83584819D01*
X104000000Y-83584819D02*
X103904762Y-83727676D01*
X103904762Y-83727676D02*
X103809524Y-83822914D01*
X103809524Y-83822914D02*
X103714286Y-83870533D01*
X35333333Y-90584819D02*
X35000000Y-90108628D01*
X34761905Y-90584819D02*
X34761905Y-89584819D01*
X34761905Y-89584819D02*
X35142857Y-89584819D01*
X35142857Y-89584819D02*
X35238095Y-89632438D01*
X35238095Y-89632438D02*
X35285714Y-89680057D01*
X35285714Y-89680057D02*
X35333333Y-89775295D01*
X35333333Y-89775295D02*
X35333333Y-89918152D01*
X35333333Y-89918152D02*
X35285714Y-90013390D01*
X35285714Y-90013390D02*
X35238095Y-90061009D01*
X35238095Y-90061009D02*
X35142857Y-90108628D01*
X35142857Y-90108628D02*
X34761905Y-90108628D01*
X35809524Y-90584819D02*
X36000000Y-90584819D01*
X36000000Y-90584819D02*
X36095238Y-90537200D01*
X36095238Y-90537200D02*
X36142857Y-90489580D01*
X36142857Y-90489580D02*
X36238095Y-90346723D01*
X36238095Y-90346723D02*
X36285714Y-90156247D01*
X36285714Y-90156247D02*
X36285714Y-89775295D01*
X36285714Y-89775295D02*
X36238095Y-89680057D01*
X36238095Y-89680057D02*
X36190476Y-89632438D01*
X36190476Y-89632438D02*
X36095238Y-89584819D01*
X36095238Y-89584819D02*
X35904762Y-89584819D01*
X35904762Y-89584819D02*
X35809524Y-89632438D01*
X35809524Y-89632438D02*
X35761905Y-89680057D01*
X35761905Y-89680057D02*
X35714286Y-89775295D01*
X35714286Y-89775295D02*
X35714286Y-90013390D01*
X35714286Y-90013390D02*
X35761905Y-90108628D01*
X35761905Y-90108628D02*
X35809524Y-90156247D01*
X35809524Y-90156247D02*
X35904762Y-90203866D01*
X35904762Y-90203866D02*
X36095238Y-90203866D01*
X36095238Y-90203866D02*
X36190476Y-90156247D01*
X36190476Y-90156247D02*
X36238095Y-90108628D01*
X36238095Y-90108628D02*
X36285714Y-90013390D01*
X65833333Y-95584819D02*
X65500000Y-95108628D01*
X65261905Y-95584819D02*
X65261905Y-94584819D01*
X65261905Y-94584819D02*
X65642857Y-94584819D01*
X65642857Y-94584819D02*
X65738095Y-94632438D01*
X65738095Y-94632438D02*
X65785714Y-94680057D01*
X65785714Y-94680057D02*
X65833333Y-94775295D01*
X65833333Y-94775295D02*
X65833333Y-94918152D01*
X65833333Y-94918152D02*
X65785714Y-95013390D01*
X65785714Y-95013390D02*
X65738095Y-95061009D01*
X65738095Y-95061009D02*
X65642857Y-95108628D01*
X65642857Y-95108628D02*
X65261905Y-95108628D01*
X66690476Y-94918152D02*
X66690476Y-95584819D01*
X66452381Y-94537200D02*
X66214286Y-95251485D01*
X66214286Y-95251485D02*
X66833333Y-95251485D01*
X48333333Y-102584819D02*
X48000000Y-102108628D01*
X47761905Y-102584819D02*
X47761905Y-101584819D01*
X47761905Y-101584819D02*
X48142857Y-101584819D01*
X48142857Y-101584819D02*
X48238095Y-101632438D01*
X48238095Y-101632438D02*
X48285714Y-101680057D01*
X48285714Y-101680057D02*
X48333333Y-101775295D01*
X48333333Y-101775295D02*
X48333333Y-101918152D01*
X48333333Y-101918152D02*
X48285714Y-102013390D01*
X48285714Y-102013390D02*
X48238095Y-102061009D01*
X48238095Y-102061009D02*
X48142857Y-102108628D01*
X48142857Y-102108628D02*
X47761905Y-102108628D01*
X48666667Y-101584819D02*
X49333333Y-101584819D01*
X49333333Y-101584819D02*
X48904762Y-102584819D01*
X47928095Y-80044819D02*
X47928095Y-80854342D01*
X47928095Y-80854342D02*
X47975714Y-80949580D01*
X47975714Y-80949580D02*
X48023333Y-80997200D01*
X48023333Y-80997200D02*
X48118571Y-81044819D01*
X48118571Y-81044819D02*
X48309047Y-81044819D01*
X48309047Y-81044819D02*
X48404285Y-80997200D01*
X48404285Y-80997200D02*
X48451904Y-80949580D01*
X48451904Y-80949580D02*
X48499523Y-80854342D01*
X48499523Y-80854342D02*
X48499523Y-80044819D01*
X48928095Y-80140057D02*
X48975714Y-80092438D01*
X48975714Y-80092438D02*
X49070952Y-80044819D01*
X49070952Y-80044819D02*
X49309047Y-80044819D01*
X49309047Y-80044819D02*
X49404285Y-80092438D01*
X49404285Y-80092438D02*
X49451904Y-80140057D01*
X49451904Y-80140057D02*
X49499523Y-80235295D01*
X49499523Y-80235295D02*
X49499523Y-80330533D01*
X49499523Y-80330533D02*
X49451904Y-80473390D01*
X49451904Y-80473390D02*
X48880476Y-81044819D01*
X48880476Y-81044819D02*
X49499523Y-81044819D01*
X79666667Y-67287200D02*
X79809524Y-67334819D01*
X79809524Y-67334819D02*
X80047619Y-67334819D01*
X80047619Y-67334819D02*
X80142857Y-67287200D01*
X80142857Y-67287200D02*
X80190476Y-67239580D01*
X80190476Y-67239580D02*
X80238095Y-67144342D01*
X80238095Y-67144342D02*
X80238095Y-67049104D01*
X80238095Y-67049104D02*
X80190476Y-66953866D01*
X80190476Y-66953866D02*
X80142857Y-66906247D01*
X80142857Y-66906247D02*
X80047619Y-66858628D01*
X80047619Y-66858628D02*
X79857143Y-66811009D01*
X79857143Y-66811009D02*
X79761905Y-66763390D01*
X79761905Y-66763390D02*
X79714286Y-66715771D01*
X79714286Y-66715771D02*
X79666667Y-66620533D01*
X79666667Y-66620533D02*
X79666667Y-66525295D01*
X79666667Y-66525295D02*
X79714286Y-66430057D01*
X79714286Y-66430057D02*
X79761905Y-66382438D01*
X79761905Y-66382438D02*
X79857143Y-66334819D01*
X79857143Y-66334819D02*
X80095238Y-66334819D01*
X80095238Y-66334819D02*
X80238095Y-66382438D01*
X80571429Y-66334819D02*
X80809524Y-67334819D01*
X80809524Y-67334819D02*
X81000000Y-66620533D01*
X81000000Y-66620533D02*
X81190476Y-67334819D01*
X81190476Y-67334819D02*
X81428572Y-66334819D01*
X82333333Y-67334819D02*
X81761905Y-67334819D01*
X82047619Y-67334819D02*
X82047619Y-66334819D01*
X82047619Y-66334819D02*
X81952381Y-66477676D01*
X81952381Y-66477676D02*
X81857143Y-66572914D01*
X81857143Y-66572914D02*
X81761905Y-66620533D01*
X117428095Y-59097319D02*
X117428095Y-58097319D01*
X117428095Y-58573509D02*
X117999523Y-58573509D01*
X117999523Y-59097319D02*
X117999523Y-58097319D01*
X118428095Y-58192557D02*
X118475714Y-58144938D01*
X118475714Y-58144938D02*
X118570952Y-58097319D01*
X118570952Y-58097319D02*
X118809047Y-58097319D01*
X118809047Y-58097319D02*
X118904285Y-58144938D01*
X118904285Y-58144938D02*
X118951904Y-58192557D01*
X118951904Y-58192557D02*
X118999523Y-58287795D01*
X118999523Y-58287795D02*
X118999523Y-58383033D01*
X118999523Y-58383033D02*
X118951904Y-58525890D01*
X118951904Y-58525890D02*
X118380476Y-59097319D01*
X118380476Y-59097319D02*
X118999523Y-59097319D01*
D13*
%TO.C,D3*%
X72920000Y-104500000D02*
X73570000Y-104500000D01*
X73570000Y-103380000D02*
X73570000Y-105620000D01*
X73570000Y-105620000D02*
X77810000Y-105620000D01*
X74170000Y-103380000D02*
X74170000Y-105620000D01*
X74290000Y-103380000D02*
X74290000Y-105620000D01*
X74410000Y-103380000D02*
X74410000Y-105620000D01*
X77810000Y-103380000D02*
X73570000Y-103380000D01*
X77810000Y-105620000D02*
X77810000Y-103380000D01*
X78460000Y-104500000D02*
X77810000Y-104500000D01*
%TO.C,C2*%
X83880000Y-103130000D02*
X83880000Y-103665000D01*
X83880000Y-103130000D02*
X90120000Y-103130000D01*
X83880000Y-105335000D02*
X83880000Y-105870000D01*
X83880000Y-105870000D02*
X90120000Y-105870000D01*
X90120000Y-103130000D02*
X90120000Y-103665000D01*
X90120000Y-105335000D02*
X90120000Y-105870000D01*
%TO.C,D5*%
X57935000Y-88955000D02*
X57935000Y-92045000D01*
X57935000Y-88955170D02*
G75*
G02*
X63485000Y-90499952I2560000J-1544830D01*
G01*
X63485000Y-90500048D02*
G75*
G02*
X57935000Y-92044830I-2990000J48D01*
G01*
X62995000Y-90500000D02*
G75*
G02*
X57995000Y-90500000I-2500000J0D01*
G01*
X57995000Y-90500000D02*
G75*
G02*
X62995000Y-90500000I2500000J0D01*
G01*
%TO.C,RV2*%
X13130000Y-81620000D02*
X13130000Y-75380000D01*
X23130000Y-75380000D02*
X13130000Y-75380000D01*
X23130000Y-81620000D02*
X13130000Y-81620000D01*
X23130000Y-82120000D02*
X23130000Y-74880000D01*
X28130000Y-74880000D02*
X23130000Y-74880000D01*
X28130000Y-82120000D02*
X23130000Y-82120000D01*
X28130000Y-87570000D02*
X28130000Y-69430000D01*
X38870000Y-69430000D02*
X28130000Y-69430000D01*
X38870000Y-87570000D02*
X28130000Y-87570000D01*
X38870000Y-87570000D02*
X38870000Y-69430000D01*
%TO.C,D4*%
X101760000Y-80000000D02*
X102780000Y-80000000D01*
X102780000Y-78530000D02*
X102780000Y-81470000D01*
X102780000Y-81470000D02*
X108220000Y-81470000D01*
X103560000Y-78530000D02*
X103560000Y-81470000D01*
X103680000Y-78530000D02*
X103680000Y-81470000D01*
X103800000Y-78530000D02*
X103800000Y-81470000D01*
X108220000Y-78530000D02*
X102780000Y-78530000D01*
X108220000Y-81470000D02*
X108220000Y-78530000D01*
X109240000Y-80000000D02*
X108220000Y-80000000D01*
%TO.C,M1*%
X109630000Y-68347500D02*
X109630000Y-76387500D01*
X109630000Y-68347500D02*
X120370000Y-68347500D01*
X109630000Y-71967500D02*
X110870000Y-71967500D01*
X109630000Y-72967500D02*
X110870000Y-72967500D01*
X109630000Y-74267500D02*
X110870000Y-74267500D01*
X109630000Y-76387500D02*
X112450000Y-76387500D01*
X113050000Y-76387500D02*
X120370000Y-76387500D01*
X114630000Y-71967500D02*
X115938000Y-71967500D01*
X114630000Y-72967500D02*
X115938000Y-72967500D01*
X114630000Y-74267500D02*
X117207000Y-74267500D01*
X118293000Y-74267500D02*
X120370000Y-74267500D01*
X119562000Y-71967500D02*
X120370000Y-71967500D01*
X119562000Y-72967500D02*
X120370000Y-72967500D01*
X120370000Y-68347500D02*
X120370000Y-76387500D01*
X113190000Y-76997500D02*
X112310000Y-76997500D01*
X112750000Y-76387500D01*
X113190000Y-76997500D01*
G36*
X113190000Y-76997500D02*
G01*
X112310000Y-76997500D01*
X112750000Y-76387500D01*
X113190000Y-76997500D01*
G37*
%TO.C,R3*%
X84960000Y-86500000D02*
X85730000Y-86500000D01*
X85730000Y-85130000D02*
X85730000Y-87870000D01*
X85730000Y-87870000D02*
X92270000Y-87870000D01*
X92270000Y-85130000D02*
X85730000Y-85130000D01*
X92270000Y-87870000D02*
X92270000Y-85130000D01*
X93040000Y-86500000D02*
X92270000Y-86500000D01*
%TO.C,D6*%
X78340000Y-62000000D02*
X79360000Y-62000000D01*
X79360000Y-60530000D02*
X79360000Y-63470000D01*
X79360000Y-63470000D02*
X84800000Y-63470000D01*
X80140000Y-60530000D02*
X80140000Y-63470000D01*
X80260000Y-60530000D02*
X80260000Y-63470000D01*
X80380000Y-60530000D02*
X80380000Y-63470000D01*
X84800000Y-60530000D02*
X79360000Y-60530000D01*
X84800000Y-63470000D02*
X84800000Y-60530000D01*
X85820000Y-62000000D02*
X84800000Y-62000000D01*
%TO.C,R2*%
X98960000Y-97500000D02*
X99730000Y-97500000D01*
X99730000Y-96130000D02*
X99730000Y-98870000D01*
X99730000Y-98870000D02*
X106270000Y-98870000D01*
X106270000Y-96130000D02*
X99730000Y-96130000D01*
X106270000Y-98870000D02*
X106270000Y-96130000D01*
X107040000Y-97500000D02*
X106270000Y-97500000D01*
%TO.C,D1*%
X96435000Y-103955000D02*
X96435000Y-107045000D01*
X96435000Y-103955170D02*
G75*
G02*
X101985000Y-105499952I2560000J-1544830D01*
G01*
X101985000Y-105500048D02*
G75*
G02*
X96435000Y-107044830I-2990000J48D01*
G01*
X101495000Y-105500000D02*
G75*
G02*
X96495000Y-105500000I-2500000J0D01*
G01*
X96495000Y-105500000D02*
G75*
G02*
X101495000Y-105500000I2500000J0D01*
G01*
%TO.C,Q1*%
X113129000Y-84420000D02*
X113129000Y-94660000D01*
X116260000Y-84420000D02*
X116260000Y-94660000D01*
X117770000Y-84420000D02*
X113129000Y-84420000D01*
X117770000Y-84420000D02*
X117770000Y-94660000D01*
X117770000Y-87690000D02*
X116260000Y-87690000D01*
X117770000Y-91391000D02*
X116260000Y-91391000D01*
X117770000Y-94660000D02*
X113129000Y-94660000D01*
%TO.C,C1*%
X83880000Y-91130000D02*
X83880000Y-91665000D01*
X83880000Y-91130000D02*
X90120000Y-91130000D01*
X83880000Y-93335000D02*
X83880000Y-93870000D01*
X83880000Y-93870000D02*
X90120000Y-93870000D01*
X90120000Y-91130000D02*
X90120000Y-91665000D01*
X90120000Y-93335000D02*
X90120000Y-93870000D01*
%TO.C,U1*%
X73750000Y-81860000D02*
X73750000Y-92140000D01*
X73750000Y-92140000D02*
X78250000Y-92140000D01*
X75000000Y-81860000D02*
X73750000Y-81860000D01*
X78250000Y-81860000D02*
X77000000Y-81860000D01*
X78250000Y-92140000D02*
X78250000Y-81860000D01*
X70750000Y-81800000D02*
X81250000Y-81800000D01*
X81250000Y-92200000D01*
X70750000Y-92200000D01*
X70750000Y-81800000D01*
X77000000Y-81860000D02*
G75*
G02*
X75000000Y-81860000I-1000000J0D01*
G01*
%TO.C,RV1*%
X66930000Y-111180000D02*
X66930000Y-121920000D01*
X72380000Y-121920000D02*
X72380000Y-126920000D01*
X72880000Y-126920000D02*
X72880000Y-136920000D01*
X79120000Y-126920000D02*
X79120000Y-136920000D01*
X79120000Y-136920000D02*
X72880000Y-136920000D01*
X79620000Y-121920000D02*
X79620000Y-126920000D01*
X79620000Y-126920000D02*
X72380000Y-126920000D01*
X85070000Y-111180000D02*
X66930000Y-111180000D01*
X85070000Y-111180000D02*
X85070000Y-121920000D01*
X85070000Y-121920000D02*
X66930000Y-121920000D01*
%TO.C,R5*%
X52960000Y-77000000D02*
X53730000Y-77000000D01*
X53730000Y-75630000D02*
X53730000Y-78370000D01*
X53730000Y-78370000D02*
X60270000Y-78370000D01*
X60270000Y-75630000D02*
X53730000Y-75630000D01*
X60270000Y-78370000D02*
X60270000Y-75630000D01*
X61040000Y-77000000D02*
X60270000Y-77000000D01*
%TO.C,R6*%
X44600000Y-64900000D02*
X47400000Y-64900000D01*
X44600000Y-69100000D02*
X47400000Y-69100000D01*
X44600000Y-69100000D02*
G75*
G02*
X44613963Y-64890758I1400000J2100000D01*
G01*
X47400000Y-64900000D02*
G75*
G02*
X47386037Y-69109242I-1400000J-2100000D01*
G01*
%TO.C,R8*%
X57460000Y-82500000D02*
X58230000Y-82500000D01*
X58230000Y-81130000D02*
X58230000Y-83870000D01*
X58230000Y-83870000D02*
X64770000Y-83870000D01*
X64770000Y-81130000D02*
X58230000Y-81130000D01*
X64770000Y-83870000D02*
X64770000Y-81130000D01*
X65540000Y-82500000D02*
X64770000Y-82500000D01*
%TO.C,D2*%
X61920000Y-104500000D02*
X62570000Y-104500000D01*
X62570000Y-103380000D02*
X62570000Y-105620000D01*
X62570000Y-105620000D02*
X66810000Y-105620000D01*
X63170000Y-103380000D02*
X63170000Y-105620000D01*
X63290000Y-103380000D02*
X63290000Y-105620000D01*
X63410000Y-103380000D02*
X63410000Y-105620000D01*
X66810000Y-103380000D02*
X62570000Y-103380000D01*
X66810000Y-105620000D02*
X66810000Y-103380000D01*
X67460000Y-104500000D02*
X66810000Y-104500000D01*
%TO.C,J2*%
X58357500Y-58200000D02*
X67557500Y-58200000D01*
X58357500Y-67000000D02*
X58357500Y-58200000D01*
X58357500Y-72900000D02*
X58357500Y-71000000D01*
X61057500Y-72900000D02*
X58357500Y-72900000D01*
X66707500Y-73100000D02*
X67757500Y-73100000D01*
X67557500Y-58200000D02*
X67557500Y-72900000D01*
X67557500Y-72900000D02*
X64957500Y-72900000D01*
X67757500Y-72050000D02*
X67757500Y-73100000D01*
%TO.C,R1*%
X99460000Y-86500000D02*
X100230000Y-86500000D01*
X100230000Y-85130000D02*
X100230000Y-87870000D01*
X100230000Y-87870000D02*
X106770000Y-87870000D01*
X106770000Y-85130000D02*
X100230000Y-85130000D01*
X106770000Y-87870000D02*
X106770000Y-85130000D01*
X107540000Y-86500000D02*
X106770000Y-86500000D01*
%TO.C,R9*%
X31460000Y-92500000D02*
X32230000Y-92500000D01*
X32230000Y-91130000D02*
X32230000Y-93870000D01*
X32230000Y-93870000D02*
X38770000Y-93870000D01*
X38770000Y-91130000D02*
X32230000Y-91130000D01*
X38770000Y-93870000D02*
X38770000Y-91130000D01*
X39540000Y-92500000D02*
X38770000Y-92500000D01*
%TO.C,R4*%
X61960000Y-97500000D02*
X62730000Y-97500000D01*
X62730000Y-96130000D02*
X62730000Y-98870000D01*
X62730000Y-98870000D02*
X69270000Y-98870000D01*
X69270000Y-96130000D02*
X62730000Y-96130000D01*
X69270000Y-98870000D02*
X69270000Y-96130000D01*
X70040000Y-97500000D02*
X69270000Y-97500000D01*
%TO.C,R7*%
X44460000Y-104500000D02*
X45230000Y-104500000D01*
X45230000Y-103130000D02*
X45230000Y-105870000D01*
X45230000Y-105870000D02*
X51770000Y-105870000D01*
X51770000Y-103130000D02*
X45230000Y-103130000D01*
X51770000Y-105870000D02*
X51770000Y-103130000D01*
X52540000Y-104500000D02*
X51770000Y-104500000D01*
%TO.C,U2*%
X46440000Y-81590000D02*
X46440000Y-99490000D01*
X46440000Y-99490000D02*
X50940000Y-99490000D01*
X47690000Y-81590000D02*
X46440000Y-81590000D01*
X50940000Y-81590000D02*
X49690000Y-81590000D01*
X50940000Y-99490000D02*
X50940000Y-81590000D01*
X49690000Y-81590000D02*
G75*
G02*
X47690000Y-81590000I-1000000J0D01*
G01*
%TO.C,SW1*%
X73130000Y-67880000D02*
X73130000Y-75920000D01*
X73130000Y-67880000D02*
X88870000Y-67880000D01*
X73130000Y-71500000D02*
X74370000Y-71500000D01*
X73130000Y-72500000D02*
X74370000Y-72500000D01*
X73130000Y-73800000D02*
X74370000Y-73800000D01*
X73130000Y-75920000D02*
X75950000Y-75920000D01*
X76550000Y-75920000D02*
X88870000Y-75920000D01*
X78130000Y-71500000D02*
X79438000Y-71500000D01*
X78130000Y-72500000D02*
X79438000Y-72500000D01*
X78130000Y-73800000D02*
X80707000Y-73800000D01*
X81793000Y-73800000D02*
X85707000Y-73800000D01*
X83062000Y-71500000D02*
X84438000Y-71500000D01*
X83062000Y-72500000D02*
X84438000Y-72500000D01*
X86793000Y-73800000D02*
X88870000Y-73800000D01*
X88062000Y-71500000D02*
X88870000Y-71500000D01*
X88062000Y-72500000D02*
X88870000Y-72500000D01*
X88870000Y-67880000D02*
X88870000Y-75920000D01*
X76690000Y-76530000D02*
X75810000Y-76530000D01*
X76250000Y-75920000D01*
X76690000Y-76530000D01*
G36*
X76690000Y-76530000D02*
G01*
X75810000Y-76530000D01*
X76250000Y-75920000D01*
X76690000Y-76530000D01*
G37*
%TD*%
M02*
