%TF.GenerationSoftware,KiCad,Pcbnew,9.0.2*%
%TF.CreationDate,2025-06-20T15:29:42-04:00*%
%TF.ProjectId,proyecto02,70726f79-6563-4746-9f30-322e6b696361,rev?*%
%TF.SameCoordinates,Original*%
%TF.FileFunction,Copper,L2,Bot*%
%TF.FilePolarity,Positive*%
%FSLAX46Y46*%
G04 Gerber Fmt 4.6, Leading zero omitted, Abs format (unit mm)*
G04 Created by KiCad (PCBNEW 9.0.2) date 2025-06-20 15:29:42*
%MOMM*%
%LPD*%
G01*
G04 APERTURE LIST*
G04 Aperture macros list*
%AMRoundRect*
0 Rectangle with rounded corners*
0 $1 Rounding radius*
0 $2 $3 $4 $5 $6 $7 $8 $9 X,Y pos of 4 corners*
0 Add a 4 corners polygon primitive as box body*
4,1,4,$2,$3,$4,$5,$6,$7,$8,$9,$2,$3,0*
0 Add four circle primitives for the rounded corners*
1,1,$1+$1,$2,$3*
1,1,$1+$1,$4,$5*
1,1,$1+$1,$6,$7*
1,1,$1+$1,$8,$9*
0 Add four rect primitives between the rounded corners*
20,1,$1+$1,$2,$3,$4,$5,0*
20,1,$1+$1,$4,$5,$6,$7,0*
20,1,$1+$1,$6,$7,$8,$9,0*
20,1,$1+$1,$8,$9,$2,$3,0*%
G04 Aperture macros list end*
%TA.AperFunction,ComponentPad*%
%ADD10R,1.600000X1.600000*%
%TD*%
%TA.AperFunction,ComponentPad*%
%ADD11O,1.600000X1.600000*%
%TD*%
%TA.AperFunction,ComponentPad*%
%ADD12C,1.600000*%
%TD*%
%TA.AperFunction,ComponentPad*%
%ADD13R,1.800000X1.800000*%
%TD*%
%TA.AperFunction,ComponentPad*%
%ADD14C,1.800000*%
%TD*%
%TA.AperFunction,ComponentPad*%
%ADD15R,3.000000X3.000000*%
%TD*%
%TA.AperFunction,ComponentPad*%
%ADD16C,3.000000*%
%TD*%
%TA.AperFunction,ComponentPad*%
%ADD17R,2.200000X2.200000*%
%TD*%
%TA.AperFunction,ComponentPad*%
%ADD18O,2.200000X2.200000*%
%TD*%
%TA.AperFunction,ComponentPad*%
%ADD19RoundRect,0.250001X-1.149999X-1.149999X1.149999X-1.149999X1.149999X1.149999X-1.149999X1.149999X0*%
%TD*%
%TA.AperFunction,ComponentPad*%
%ADD20C,2.800000*%
%TD*%
%TA.AperFunction,ComponentPad*%
%ADD21R,2.000000X1.905000*%
%TD*%
%TA.AperFunction,ComponentPad*%
%ADD22O,2.000000X1.905000*%
%TD*%
%TA.AperFunction,ComponentPad*%
%ADD23RoundRect,0.250000X-0.950000X-0.550000X0.950000X-0.550000X0.950000X0.550000X-0.950000X0.550000X0*%
%TD*%
%TA.AperFunction,ComponentPad*%
%ADD24O,2.400000X1.600000*%
%TD*%
%TA.AperFunction,ComponentPad*%
%ADD25R,3.500000X3.500000*%
%TD*%
%TA.AperFunction,ComponentPad*%
%ADD26RoundRect,0.750000X-1.000000X0.750000X-1.000000X-0.750000X1.000000X-0.750000X1.000000X0.750000X0*%
%TD*%
%TA.AperFunction,ComponentPad*%
%ADD27RoundRect,0.875000X-0.875000X0.875000X-0.875000X-0.875000X0.875000X-0.875000X0.875000X0.875000X0*%
%TD*%
%TA.AperFunction,ViaPad*%
%ADD28C,0.600000*%
%TD*%
%TA.AperFunction,Conductor*%
%ADD29C,0.400000*%
%TD*%
%TA.AperFunction,Conductor*%
%ADD30C,0.800000*%
%TD*%
G04 APERTURE END LIST*
D10*
%TO.P,D3,1,K*%
%TO.N,Net-(D3-K)*%
X71880000Y-104500000D03*
D11*
%TO.P,D3,2,A*%
%TO.N,Net-(D2-K)*%
X79500000Y-104500000D03*
%TD*%
D12*
%TO.P,C2,1*%
%TO.N,Net-(U1-THR)*%
X84500000Y-104500000D03*
%TO.P,C2,2*%
%TO.N,GND*%
X89500000Y-104500000D03*
%TD*%
D13*
%TO.P,D5,1,K*%
%TO.N,GND*%
X59225000Y-90500000D03*
D14*
%TO.P,D5,2,A*%
%TO.N,Net-(D5-A)*%
X61765000Y-90500000D03*
%TD*%
D15*
%TO.P,RV2,1,1*%
%TO.N,VCC*%
X32050000Y-73500000D03*
D16*
%TO.P,RV2,2,2*%
%TO.N,Net-(U2A--)*%
X32050000Y-78500000D03*
%TO.P,RV2,3,3*%
%TO.N,GND*%
X32050000Y-83500000D03*
%TD*%
D17*
%TO.P,D4,1,K*%
%TO.N,VCC*%
X100420000Y-80000000D03*
D18*
%TO.P,D4,2,A*%
%TO.N,Net-(D4-A)*%
X110580000Y-80000000D03*
%TD*%
D19*
%TO.P,M1,1,+*%
%TO.N,VCC*%
X112750000Y-72467500D03*
D20*
%TO.P,M1,2,-*%
%TO.N,Net-(D4-A)*%
X117750000Y-72467500D03*
%TD*%
D12*
%TO.P,R3,1*%
%TO.N,VCC*%
X83920000Y-86500000D03*
D11*
%TO.P,R3,2*%
%TO.N,Net-(D2-K)*%
X94080000Y-86500000D03*
%TD*%
D17*
%TO.P,D6,1,K*%
%TO.N,Net-(D6-K)*%
X77000000Y-62000000D03*
D18*
%TO.P,D6,2,A*%
%TO.N,Net-(D6-A)*%
X87160000Y-62000000D03*
%TD*%
D12*
%TO.P,R2,1*%
%TO.N,Net-(Q1-G)*%
X97920000Y-97500000D03*
D11*
%TO.P,R2,2*%
%TO.N,GND*%
X108080000Y-97500000D03*
%TD*%
D13*
%TO.P,D1,1,K*%
%TO.N,GND*%
X97725000Y-105500000D03*
D14*
%TO.P,D1,2,A*%
%TO.N,Net-(D1-A)*%
X100265000Y-105500000D03*
%TD*%
D21*
%TO.P,Q1,1,G*%
%TO.N,Net-(Q1-G)*%
X114500000Y-87000000D03*
D22*
%TO.P,Q1,2,D*%
%TO.N,Net-(D4-A)*%
X114500000Y-89540000D03*
%TO.P,Q1,3,S*%
%TO.N,GND*%
X114500000Y-92080000D03*
%TD*%
D12*
%TO.P,C1,1*%
%TO.N,Net-(U1-CV)*%
X84500000Y-92500000D03*
%TO.P,C1,2*%
%TO.N,GND*%
X89500000Y-92500000D03*
%TD*%
D23*
%TO.P,U1,1,GND*%
%TO.N,GND*%
X72190000Y-83190000D03*
D24*
%TO.P,U1,2,TR*%
%TO.N,Net-(U1-THR)*%
X72190000Y-85730000D03*
%TO.P,U1,3,Q*%
%TO.N,Net-(Q1-G)*%
X72190000Y-88270000D03*
%TO.P,U1,4,R*%
%TO.N,Net-(U1-R)*%
X72190000Y-90810000D03*
%TO.P,U1,5,CV*%
%TO.N,Net-(U1-CV)*%
X79810000Y-90810000D03*
%TO.P,U1,6,THR*%
%TO.N,Net-(U1-THR)*%
X79810000Y-88270000D03*
%TO.P,U1,7,DIS*%
%TO.N,Net-(D2-K)*%
X79810000Y-85730000D03*
%TO.P,U1,8,VCC*%
%TO.N,VCC*%
X79810000Y-83190000D03*
%TD*%
D15*
%TO.P,RV1,1,1*%
%TO.N,Net-(D3-K)*%
X71000000Y-118000000D03*
D16*
%TO.P,RV1,2,2*%
%TO.N,Net-(U1-THR)*%
X76000000Y-118000000D03*
%TO.P,RV1,3,3*%
%TO.N,Net-(D2-A)*%
X81000000Y-118000000D03*
%TD*%
D12*
%TO.P,R5,1*%
%TO.N,Net-(R5-Pad1)*%
X51920000Y-77000000D03*
D11*
%TO.P,R5,2*%
%TO.N,Net-(U2A-+)*%
X62080000Y-77000000D03*
%TD*%
D12*
%TO.P,R6,1*%
%TO.N,VCC*%
X44500000Y-67000000D03*
%TO.P,R6,2*%
%TO.N,Net-(R5-Pad1)*%
X47500000Y-67000000D03*
%TD*%
%TO.P,R8,1*%
%TO.N,Net-(U2D-+)*%
X56420000Y-82500000D03*
D11*
%TO.P,R8,2*%
%TO.N,GND*%
X66580000Y-82500000D03*
%TD*%
D10*
%TO.P,D2,1,K*%
%TO.N,Net-(D2-K)*%
X60880000Y-104500000D03*
D11*
%TO.P,D2,2,A*%
%TO.N,Net-(D2-A)*%
X68500000Y-104500000D03*
%TD*%
D25*
%TO.P,J2,1*%
%TO.N,Net-(D6-A)*%
X62957500Y-72000000D03*
D26*
%TO.P,J2,2*%
%TO.N,GND*%
X62957500Y-66000000D03*
D27*
%TO.P,J2,3*%
%TO.N,unconnected-(J2-Pad3)*%
X58257500Y-69000000D03*
%TD*%
D12*
%TO.P,R1,1*%
%TO.N,Net-(Q1-G)*%
X98420000Y-86500000D03*
D11*
%TO.P,R1,2*%
%TO.N,Net-(D1-A)*%
X108580000Y-86500000D03*
%TD*%
D12*
%TO.P,R9,1*%
%TO.N,Net-(U2B-+)*%
X30420000Y-92500000D03*
D11*
%TO.P,R9,2*%
%TO.N,GND*%
X40580000Y-92500000D03*
%TD*%
D12*
%TO.P,R4,1*%
%TO.N,Net-(U1-R)*%
X60920000Y-97500000D03*
D11*
%TO.P,R4,2*%
%TO.N,Net-(D5-A)*%
X71080000Y-97500000D03*
%TD*%
D12*
%TO.P,R7,1*%
%TO.N,Net-(U2C-+)*%
X43420000Y-104500000D03*
D11*
%TO.P,R7,2*%
%TO.N,GND*%
X53580000Y-104500000D03*
%TD*%
D23*
%TO.P,U2,1*%
%TO.N,Net-(U1-R)*%
X44880000Y-82920000D03*
D24*
%TO.P,U2,2,-*%
%TO.N,Net-(U2A--)*%
X44880000Y-85460000D03*
%TO.P,U2,3,+*%
%TO.N,Net-(U2A-+)*%
X44880000Y-88000000D03*
%TO.P,U2,4,V+*%
%TO.N,VCC*%
X44880000Y-90540000D03*
%TO.P,U2,5,+*%
%TO.N,Net-(U2B-+)*%
X44880000Y-93080000D03*
%TO.P,U2,6,-*%
%TO.N,Net-(U2B--)*%
X44880000Y-95620000D03*
%TO.P,U2,7*%
X44880000Y-98160000D03*
%TO.P,U2,8*%
%TO.N,Net-(U2C--)*%
X52500000Y-98160000D03*
%TO.P,U2,9,-*%
X52500000Y-95620000D03*
%TO.P,U2,10,+*%
%TO.N,Net-(U2C-+)*%
X52500000Y-93080000D03*
%TO.P,U2,11,V-*%
%TO.N,GND*%
X52500000Y-90540000D03*
%TO.P,U2,12,+*%
%TO.N,Net-(U2D-+)*%
X52500000Y-88000000D03*
%TO.P,U2,13,-*%
%TO.N,Net-(U2D--)*%
X52500000Y-85460000D03*
%TO.P,U2,14*%
X52500000Y-82920000D03*
%TD*%
D19*
%TO.P,SW1,1,A*%
%TO.N,VCC*%
X76250000Y-72000000D03*
D20*
%TO.P,SW1,2,B*%
%TO.N,Net-(D6-K)*%
X81250000Y-72000000D03*
%TO.P,SW1,3,C*%
%TO.N,unconnected-(SW1-C-Pad3)*%
X86250000Y-72000000D03*
%TD*%
D28*
%TO.N,Net-(U1-THR)*%
X78500000Y-117000000D03*
X81500000Y-114000000D03*
X75000000Y-86500000D03*
X82000000Y-92000000D03*
X77500000Y-91500000D03*
X82000000Y-89000000D03*
X82000000Y-98500000D03*
X82000000Y-94500000D03*
%TO.N,Net-(D1-A)*%
X107500000Y-90000000D03*
X108000000Y-95000000D03*
%TO.N,Net-(D2-A)*%
X70000000Y-108000000D03*
X76500000Y-112500000D03*
%TO.N,Net-(D3-K)*%
X70000000Y-106000000D03*
X65500000Y-110500000D03*
%TO.N,VCC*%
X96500000Y-79000000D03*
X80000000Y-81200000D03*
X40500000Y-84000000D03*
X40500000Y-78000000D03*
X89000000Y-81500000D03*
X80000000Y-79500000D03*
%TO.N,Net-(D6-K)*%
X77000000Y-67000000D03*
X77000000Y-64500000D03*
%TO.N,Net-(U1-R)*%
X47000000Y-85000000D03*
X49000000Y-88500000D03*
X67500000Y-91500000D03*
X64500000Y-94000000D03*
%TD*%
D29*
%TO.N,Net-(U1-CV)*%
X82810000Y-90810000D02*
X84500000Y-92500000D01*
X79810000Y-90810000D02*
X82810000Y-90810000D01*
%TO.N,Net-(U1-THR)*%
X78500000Y-117000000D02*
X77000000Y-117000000D01*
X82000000Y-93500000D02*
X82000000Y-92000000D01*
X79500000Y-93500000D02*
X77500000Y-91500000D01*
X84500000Y-101000000D02*
X82000000Y-98500000D01*
X72960000Y-86500000D02*
X72190000Y-85730000D01*
X82000000Y-89000000D02*
X80540000Y-89000000D01*
X84500000Y-104500000D02*
X84500000Y-111000000D01*
X82000000Y-93500000D02*
X79500000Y-93500000D01*
X80540000Y-89000000D02*
X79810000Y-88270000D01*
X82000000Y-94500000D02*
X82000000Y-93500000D01*
X75000000Y-86500000D02*
X72960000Y-86500000D01*
X84500000Y-111000000D02*
X81500000Y-114000000D01*
X77000000Y-117000000D02*
X76000000Y-118000000D01*
X84500000Y-104500000D02*
X84500000Y-101000000D01*
%TO.N,Net-(D1-A)*%
X108000000Y-95000000D02*
X105500000Y-97500000D01*
X103500000Y-105500000D02*
X100265000Y-105500000D01*
X108580000Y-86500000D02*
X108580000Y-88920000D01*
X105500000Y-103500000D02*
X103500000Y-105500000D01*
X108580000Y-88920000D02*
X107500000Y-90000000D01*
X105500000Y-97500000D02*
X105500000Y-103500000D01*
D30*
%TO.N,Net-(D2-K)*%
X69500000Y-102000000D02*
X71500000Y-100000000D01*
X94080000Y-94420000D02*
X94080000Y-86500000D01*
X58000000Y-109500000D02*
X79500000Y-109500000D01*
X71500000Y-100000000D02*
X76000000Y-100000000D01*
X76000000Y-97000000D02*
X91500000Y-97000000D01*
X63380000Y-102000000D02*
X69500000Y-102000000D01*
X58000000Y-104500000D02*
X58000000Y-109500000D01*
X76000000Y-97000000D02*
X76000000Y-89000000D01*
X60880000Y-104500000D02*
X58000000Y-104500000D01*
X91500000Y-97000000D02*
X94080000Y-94420000D01*
X76000000Y-100000000D02*
X76000000Y-97000000D01*
X79270000Y-85730000D02*
X79810000Y-85730000D01*
X79500000Y-109500000D02*
X79500000Y-104500000D01*
X76000000Y-89000000D02*
X79270000Y-85730000D01*
X60880000Y-104500000D02*
X63380000Y-102000000D01*
%TO.N,Net-(D2-A)*%
X68500000Y-104500000D02*
X68500000Y-106500000D01*
X68500000Y-106500000D02*
X70000000Y-108000000D01*
X76500000Y-113500000D02*
X81000000Y-118000000D01*
X76500000Y-112500000D02*
X76500000Y-113500000D01*
D29*
%TO.N,Net-(D3-K)*%
X66000000Y-111000000D02*
X65500000Y-110500000D01*
X71000000Y-116000000D02*
X66000000Y-111000000D01*
X71000000Y-118000000D02*
X71000000Y-116000000D01*
X70000000Y-106000000D02*
X70380000Y-106000000D01*
X70380000Y-106000000D02*
X71880000Y-104500000D01*
%TO.N,Net-(D4-A)*%
X118500000Y-80000000D02*
X119500000Y-79000000D01*
X119500000Y-79000000D02*
X119500000Y-74217500D01*
X114960000Y-89540000D02*
X118500000Y-86000000D01*
X119500000Y-74217500D02*
X117750000Y-72467500D01*
X118500000Y-86000000D02*
X118500000Y-84500000D01*
X114000000Y-80000000D02*
X110580000Y-80000000D01*
X114500000Y-89540000D02*
X114960000Y-89540000D01*
X118500000Y-84500000D02*
X114000000Y-80000000D01*
X110580000Y-80000000D02*
X118500000Y-80000000D01*
%TO.N,VCC*%
X44500000Y-67000000D02*
X44500000Y-62500000D01*
D30*
X44500000Y-67000000D02*
X38000000Y-73500000D01*
D29*
X108032500Y-72467500D02*
X112750000Y-72467500D01*
X88920000Y-81500000D02*
X89000000Y-81500000D01*
X76250000Y-72000000D02*
X76250000Y-75750000D01*
X100420000Y-80000000D02*
X100500000Y-80000000D01*
D30*
X40500000Y-86160000D02*
X40500000Y-84000000D01*
X38000000Y-73500000D02*
X32050000Y-73500000D01*
D29*
X58500000Y-75000000D02*
X70000000Y-75000000D01*
X80000000Y-83000000D02*
X79810000Y-83190000D01*
X83920000Y-86500000D02*
X88920000Y-81500000D01*
X97500000Y-80000000D02*
X100420000Y-80000000D01*
D30*
X44880000Y-90540000D02*
X40500000Y-86160000D01*
D29*
X80610000Y-83190000D02*
X83920000Y-86500000D01*
X80000000Y-81200000D02*
X80000000Y-83000000D01*
X100500000Y-80000000D02*
X108032500Y-72467500D01*
X76250000Y-75750000D02*
X80000000Y-79500000D01*
X73000000Y-72000000D02*
X76250000Y-72000000D01*
X44500000Y-62500000D02*
X50000000Y-62500000D01*
X55000000Y-67500000D02*
X55000000Y-71500000D01*
D30*
X40500000Y-78000000D02*
X40500000Y-76000000D01*
D29*
X70000000Y-75000000D02*
X73000000Y-72000000D01*
X79810000Y-83190000D02*
X80610000Y-83190000D01*
X50000000Y-62500000D02*
X55000000Y-67500000D01*
X55000000Y-71500000D02*
X58500000Y-75000000D01*
X96500000Y-79000000D02*
X97500000Y-80000000D01*
D30*
X40500000Y-76000000D02*
X38000000Y-73500000D01*
%TO.N,Net-(D5-A)*%
X61765000Y-90500000D02*
X64080000Y-90500000D01*
X64080000Y-90500000D02*
X71080000Y-97500000D01*
%TO.N,Net-(D6-K)*%
X77000000Y-62000000D02*
X77000000Y-64500000D01*
X77000000Y-67000000D02*
X77000000Y-67750000D01*
X77000000Y-67750000D02*
X81250000Y-72000000D01*
D29*
%TO.N,Net-(D6-A)*%
X66000000Y-72000000D02*
X72500000Y-65500000D01*
X72500000Y-65500000D02*
X87000000Y-65500000D01*
X87160000Y-65340000D02*
X87160000Y-62000000D01*
X87000000Y-65500000D02*
X87160000Y-65340000D01*
X62957500Y-72000000D02*
X66000000Y-72000000D01*
%TO.N,Net-(Q1-G)*%
X110500000Y-85500000D02*
X111000000Y-85500000D01*
X92420000Y-80500000D02*
X96460000Y-84540000D01*
X96460000Y-84540000D02*
X98420000Y-86500000D01*
X72190000Y-88270000D02*
X74221364Y-88270000D01*
X97920000Y-97080000D02*
X104000000Y-91000000D01*
X108500000Y-91000000D02*
X110500000Y-89000000D01*
X74221364Y-88270000D02*
X77500000Y-84991364D01*
X114500000Y-84000000D02*
X114500000Y-87000000D01*
X110500000Y-89000000D02*
X110500000Y-85500000D01*
X97920000Y-97500000D02*
X97920000Y-97080000D01*
X113500000Y-83000000D02*
X114500000Y-84000000D01*
X77500000Y-84991364D02*
X77500000Y-80500000D01*
X96460000Y-84540000D02*
X97920000Y-86000000D01*
X77500000Y-80500000D02*
X92420000Y-80500000D01*
X104000000Y-91000000D02*
X108500000Y-91000000D01*
X97920000Y-86000000D02*
X97920000Y-97500000D01*
X111000000Y-85500000D02*
X113500000Y-83000000D01*
%TO.N,Net-(U1-R)*%
X68190000Y-90810000D02*
X72190000Y-90810000D01*
X56500000Y-95500000D02*
X55000000Y-94000000D01*
X67500000Y-91500000D02*
X68190000Y-90810000D01*
X59000000Y-97500000D02*
X57000000Y-95500000D01*
X54839000Y-89339000D02*
X49839000Y-89339000D01*
X46960000Y-85000000D02*
X44880000Y-82920000D01*
X57000000Y-95500000D02*
X56500000Y-95500000D01*
X49839000Y-89339000D02*
X49000000Y-88500000D01*
X55000000Y-89500000D02*
X54839000Y-89339000D01*
X47000000Y-85000000D02*
X46960000Y-85000000D01*
X60920000Y-97500000D02*
X64420000Y-94000000D01*
X60920000Y-97500000D02*
X59000000Y-97500000D01*
X64420000Y-94000000D02*
X64500000Y-94000000D01*
X55000000Y-94000000D02*
X55000000Y-89500000D01*
%TO.N,Net-(U2A-+)*%
X51500000Y-80500000D02*
X48000000Y-84000000D01*
X62080000Y-77000000D02*
X58580000Y-80500000D01*
X48000000Y-84000000D02*
X48000000Y-88000000D01*
X48000000Y-88000000D02*
X44880000Y-88000000D01*
X58580000Y-80500000D02*
X51500000Y-80500000D01*
D30*
%TO.N,Net-(R5-Pad1)*%
X47500000Y-72580000D02*
X51920000Y-77000000D01*
X47500000Y-67000000D02*
X47500000Y-72580000D01*
%TO.N,Net-(U2C-+)*%
X51420000Y-93080000D02*
X52500000Y-93080000D01*
X49000000Y-95500000D02*
X51420000Y-93080000D01*
X43420000Y-102080000D02*
X49000000Y-96500000D01*
X43420000Y-104500000D02*
X43420000Y-102080000D01*
X49000000Y-96500000D02*
X49000000Y-95500000D01*
%TO.N,Net-(U2D-+)*%
X56420000Y-86080000D02*
X54500000Y-88000000D01*
X54500000Y-88000000D02*
X52500000Y-88000000D01*
X56420000Y-82500000D02*
X56420000Y-86080000D01*
%TO.N,Net-(U2B-+)*%
X34920000Y-97000000D02*
X41000000Y-97000000D01*
X30420000Y-92500000D02*
X34920000Y-97000000D01*
X41000000Y-97000000D02*
X44880000Y-93120000D01*
X44880000Y-93120000D02*
X44880000Y-93080000D01*
%TO.N,Net-(U2A--)*%
X43960000Y-85460000D02*
X44880000Y-85460000D01*
X37000000Y-78500000D02*
X43960000Y-85460000D01*
X32050000Y-78500000D02*
X37000000Y-78500000D01*
D29*
%TO.N,Net-(U2B--)*%
X44880000Y-95620000D02*
X44880000Y-98160000D01*
%TO.N,Net-(U2C--)*%
X52500000Y-95620000D02*
X52500000Y-98160000D01*
%TO.N,Net-(U2D--)*%
X52500000Y-85460000D02*
X52500000Y-82920000D01*
%TD*%
%TA.AperFunction,Conductor*%
%TO.N,GND*%
G36*
X48175140Y-88699454D02*
G01*
X48230318Y-88742316D01*
X48244303Y-88767393D01*
X48290602Y-88879172D01*
X48290609Y-88879185D01*
X48378210Y-89010288D01*
X48378213Y-89010292D01*
X48489707Y-89121786D01*
X48489711Y-89121789D01*
X48620814Y-89209390D01*
X48620827Y-89209397D01*
X48765185Y-89269191D01*
X48805414Y-89296071D01*
X49392453Y-89883111D01*
X49392454Y-89883112D01*
X49507190Y-89959776D01*
X49605790Y-90000617D01*
X49634671Y-90012580D01*
X49634672Y-90012580D01*
X49634677Y-90012582D01*
X49661545Y-90017925D01*
X49661551Y-90017926D01*
X49661591Y-90017934D01*
X49751937Y-90035905D01*
X49770006Y-90039500D01*
X49770007Y-90039500D01*
X50725050Y-90039500D01*
X50792089Y-90059185D01*
X50837844Y-90111989D01*
X50847788Y-90181147D01*
X50842981Y-90201817D01*
X50832010Y-90235581D01*
X50832009Y-90235586D01*
X50823391Y-90290000D01*
X52184314Y-90290000D01*
X52179920Y-90294394D01*
X52127259Y-90385606D01*
X52100000Y-90487339D01*
X52100000Y-90592661D01*
X52127259Y-90694394D01*
X52179920Y-90785606D01*
X52184314Y-90790000D01*
X50823391Y-90790000D01*
X50832009Y-90844413D01*
X50895244Y-91039029D01*
X50988140Y-91221349D01*
X51108417Y-91386894D01*
X51108417Y-91386895D01*
X51253104Y-91531582D01*
X51418652Y-91651861D01*
X51511628Y-91699234D01*
X51562425Y-91747208D01*
X51579220Y-91815029D01*
X51556683Y-91881164D01*
X51511630Y-91920203D01*
X51418388Y-91967713D01*
X51252788Y-92088027D01*
X51122498Y-92218317D01*
X51119239Y-92220633D01*
X51118090Y-92222513D01*
X51104423Y-92231167D01*
X51088832Y-92242252D01*
X51085574Y-92243828D01*
X51041452Y-92262104D01*
X50993453Y-92281987D01*
X50965747Y-92300500D01*
X50958608Y-92305269D01*
X50958604Y-92305272D01*
X50845961Y-92380537D01*
X48300537Y-94925961D01*
X48283137Y-94952003D01*
X48283134Y-94952007D01*
X48280543Y-94955886D01*
X48201987Y-95073453D01*
X48170073Y-95150500D01*
X48167198Y-95157439D01*
X48167196Y-95157444D01*
X48134106Y-95237331D01*
X48134103Y-95237341D01*
X48121540Y-95300501D01*
X48099500Y-95411304D01*
X48099500Y-96075638D01*
X48079815Y-96142677D01*
X48063181Y-96163319D01*
X46633074Y-97593425D01*
X46571751Y-97626910D01*
X46502059Y-97621926D01*
X46446126Y-97580054D01*
X46434908Y-97562039D01*
X46415711Y-97524362D01*
X46392287Y-97478390D01*
X46392285Y-97478387D01*
X46392284Y-97478385D01*
X46271971Y-97312786D01*
X46127213Y-97168028D01*
X45961614Y-97047715D01*
X45955006Y-97044348D01*
X45868917Y-97000483D01*
X45818123Y-96952511D01*
X45801328Y-96884690D01*
X45823865Y-96818555D01*
X45868917Y-96779516D01*
X45961610Y-96732287D01*
X46071035Y-96652786D01*
X46127213Y-96611971D01*
X46127215Y-96611968D01*
X46127219Y-96611966D01*
X46271966Y-96467219D01*
X46271968Y-96467215D01*
X46271971Y-96467213D01*
X46365663Y-96338255D01*
X46392287Y-96301610D01*
X46485220Y-96119219D01*
X46548477Y-95924534D01*
X46580500Y-95722352D01*
X46580500Y-95517648D01*
X46563657Y-95411309D01*
X46548477Y-95315465D01*
X46499195Y-95163791D01*
X46485220Y-95120781D01*
X46485218Y-95120778D01*
X46485218Y-95120776D01*
X46420640Y-94994036D01*
X46392287Y-94938390D01*
X46375053Y-94914669D01*
X46271971Y-94772786D01*
X46127213Y-94628028D01*
X45961614Y-94507715D01*
X45926271Y-94489707D01*
X45868917Y-94460483D01*
X45818123Y-94412511D01*
X45801328Y-94344690D01*
X45823865Y-94278555D01*
X45868917Y-94239516D01*
X45961610Y-94192287D01*
X45987361Y-94173578D01*
X46127213Y-94071971D01*
X46127215Y-94071968D01*
X46127219Y-94071966D01*
X46271966Y-93927219D01*
X46271968Y-93927215D01*
X46271971Y-93927213D01*
X46364395Y-93800000D01*
X46392287Y-93761610D01*
X46485220Y-93579219D01*
X46548477Y-93384534D01*
X46580500Y-93182352D01*
X46580500Y-92977648D01*
X46560845Y-92853553D01*
X46548477Y-92775465D01*
X46492229Y-92602352D01*
X46485220Y-92580781D01*
X46485218Y-92580778D01*
X46485218Y-92580776D01*
X46450489Y-92512618D01*
X46392287Y-92398390D01*
X46377374Y-92377864D01*
X46271971Y-92232786D01*
X46127213Y-92088028D01*
X45961614Y-91967715D01*
X45911059Y-91941956D01*
X45868917Y-91920483D01*
X45818123Y-91872511D01*
X45801328Y-91804690D01*
X45823865Y-91738555D01*
X45868917Y-91699516D01*
X45961610Y-91652287D01*
X46014754Y-91613676D01*
X46127213Y-91531971D01*
X46127215Y-91531968D01*
X46127219Y-91531966D01*
X46271966Y-91387219D01*
X46271968Y-91387215D01*
X46271971Y-91387213D01*
X46338789Y-91295244D01*
X46392287Y-91221610D01*
X46485220Y-91039219D01*
X46548477Y-90844534D01*
X46580500Y-90642352D01*
X46580500Y-90437648D01*
X46558591Y-90299322D01*
X46548477Y-90235465D01*
X46507536Y-90109462D01*
X46485220Y-90040781D01*
X46485218Y-90040778D01*
X46485218Y-90040776D01*
X46451503Y-89974607D01*
X46392287Y-89858390D01*
X46350227Y-89800499D01*
X46271971Y-89692786D01*
X46127213Y-89548028D01*
X45961614Y-89427715D01*
X45955006Y-89424348D01*
X45868917Y-89380483D01*
X45818123Y-89332511D01*
X45801328Y-89264690D01*
X45823865Y-89198555D01*
X45868917Y-89159516D01*
X45961610Y-89112287D01*
X46007641Y-89078844D01*
X46127213Y-88991971D01*
X46127215Y-88991968D01*
X46127219Y-88991966D01*
X46271966Y-88847219D01*
X46341425Y-88751615D01*
X46396755Y-88708949D01*
X46441744Y-88700500D01*
X48068993Y-88700500D01*
X48105550Y-88693228D01*
X48175140Y-88699454D01*
G37*
%TD.AperFunction*%
%TA.AperFunction,Conductor*%
G36*
X118192702Y-57343117D02*
G01*
X118576771Y-57359886D01*
X118587506Y-57360826D01*
X118965971Y-57410652D01*
X118976597Y-57412525D01*
X119349284Y-57495148D01*
X119359710Y-57497942D01*
X119723765Y-57612727D01*
X119733911Y-57616420D01*
X120086578Y-57762500D01*
X120096369Y-57767066D01*
X120434942Y-57943316D01*
X120444310Y-57948724D01*
X120766244Y-58153818D01*
X120775105Y-58160023D01*
X121077930Y-58392389D01*
X121086217Y-58399343D01*
X121367635Y-58657215D01*
X121375284Y-58664864D01*
X121633156Y-58946282D01*
X121640110Y-58954569D01*
X121872476Y-59257394D01*
X121878681Y-59266255D01*
X122083775Y-59588189D01*
X122089183Y-59597557D01*
X122265430Y-59936123D01*
X122270002Y-59945927D01*
X122416075Y-60298578D01*
X122419775Y-60308744D01*
X122534554Y-60672778D01*
X122537354Y-60683227D01*
X122619971Y-61055889D01*
X122621849Y-61066542D01*
X122671671Y-61444973D01*
X122672614Y-61455749D01*
X122689382Y-61839797D01*
X122689500Y-61845206D01*
X122689500Y-116839793D01*
X122689382Y-116845202D01*
X122672614Y-117229250D01*
X122671671Y-117240026D01*
X122621849Y-117618457D01*
X122619971Y-117629110D01*
X122537354Y-118001772D01*
X122534554Y-118012221D01*
X122419775Y-118376255D01*
X122416075Y-118386421D01*
X122270002Y-118739072D01*
X122265430Y-118748876D01*
X122089183Y-119087442D01*
X122083775Y-119096810D01*
X121878681Y-119418744D01*
X121872476Y-119427605D01*
X121640110Y-119730430D01*
X121633156Y-119738717D01*
X121375284Y-120020135D01*
X121367635Y-120027784D01*
X121086217Y-120285656D01*
X121077930Y-120292610D01*
X120775105Y-120524976D01*
X120766244Y-120531181D01*
X120444310Y-120736275D01*
X120434942Y-120741683D01*
X120096376Y-120917930D01*
X120086572Y-120922502D01*
X119733921Y-121068575D01*
X119723755Y-121072275D01*
X119359721Y-121187054D01*
X119349272Y-121189854D01*
X118976610Y-121272471D01*
X118965957Y-121274349D01*
X118587526Y-121324171D01*
X118576750Y-121325114D01*
X118192703Y-121341882D01*
X118187294Y-121342000D01*
X33192706Y-121342000D01*
X33187297Y-121341882D01*
X32803249Y-121325114D01*
X32792473Y-121324171D01*
X32414042Y-121274349D01*
X32403389Y-121272471D01*
X32030727Y-121189854D01*
X32020278Y-121187054D01*
X31656244Y-121072275D01*
X31646078Y-121068575D01*
X31293427Y-120922502D01*
X31283623Y-120917930D01*
X30945057Y-120741683D01*
X30935689Y-120736275D01*
X30613755Y-120531181D01*
X30604894Y-120524976D01*
X30302069Y-120292610D01*
X30293782Y-120285656D01*
X30012364Y-120027784D01*
X30004715Y-120020135D01*
X29746843Y-119738717D01*
X29739889Y-119730430D01*
X29507523Y-119427605D01*
X29501318Y-119418744D01*
X29296224Y-119096810D01*
X29290816Y-119087442D01*
X29186316Y-118886700D01*
X29114566Y-118748869D01*
X29109997Y-118739072D01*
X28963920Y-118386411D01*
X28960224Y-118376255D01*
X28845442Y-118012210D01*
X28842648Y-118001784D01*
X28760025Y-117629097D01*
X28758152Y-117618471D01*
X28708326Y-117240006D01*
X28707386Y-117229271D01*
X28690618Y-116845202D01*
X28690500Y-116839793D01*
X28690500Y-116740148D01*
X31889500Y-116740148D01*
X31889500Y-116944851D01*
X31921522Y-117147034D01*
X31984781Y-117341723D01*
X32048691Y-117467153D01*
X32077378Y-117523453D01*
X32077715Y-117524113D01*
X32198028Y-117689713D01*
X32342786Y-117834471D01*
X32497749Y-117947056D01*
X32508390Y-117954787D01*
X32610974Y-118007056D01*
X32690776Y-118047718D01*
X32690778Y-118047718D01*
X32690781Y-118047720D01*
X32795137Y-118081627D01*
X32885465Y-118110977D01*
X32986557Y-118126988D01*
X33087648Y-118143000D01*
X33087649Y-118143000D01*
X33292351Y-118143000D01*
X33292352Y-118143000D01*
X33494534Y-118110977D01*
X33689219Y-118047720D01*
X33871610Y-117954787D01*
X33989863Y-117868872D01*
X34037213Y-117834471D01*
X34037215Y-117834468D01*
X34037219Y-117834466D01*
X34181966Y-117689719D01*
X34181968Y-117689715D01*
X34181971Y-117689713D01*
X34240696Y-117608884D01*
X34302287Y-117524110D01*
X34395220Y-117341719D01*
X34458477Y-117147034D01*
X34490500Y-116944852D01*
X34490500Y-116740148D01*
X34458477Y-116537966D01*
X34395220Y-116343281D01*
X34395218Y-116343278D01*
X34395218Y-116343276D01*
X34323212Y-116201958D01*
X34302287Y-116160890D01*
X34288891Y-116142452D01*
X34181971Y-115995286D01*
X34037213Y-115850528D01*
X33871613Y-115730215D01*
X33871612Y-115730214D01*
X33871610Y-115730213D01*
X33814653Y-115701191D01*
X33689223Y-115637281D01*
X33494534Y-115574022D01*
X33319995Y-115546378D01*
X33292352Y-115542000D01*
X33087648Y-115542000D01*
X33063329Y-115545851D01*
X32885465Y-115574022D01*
X32690776Y-115637281D01*
X32508386Y-115730215D01*
X32342786Y-115850528D01*
X32198028Y-115995286D01*
X32077715Y-116160886D01*
X31984781Y-116343276D01*
X31921522Y-116537965D01*
X31889500Y-116740148D01*
X28690500Y-116740148D01*
X28690500Y-92397648D01*
X29119500Y-92397648D01*
X29119500Y-92602351D01*
X29151522Y-92804534D01*
X29214781Y-92999223D01*
X29278691Y-93124653D01*
X29307585Y-93181359D01*
X29307715Y-93181613D01*
X29428028Y-93347213D01*
X29572786Y-93491971D01*
X29692875Y-93579219D01*
X29738390Y-93612287D01*
X29828352Y-93658125D01*
X29920776Y-93705218D01*
X29920778Y-93705218D01*
X29920781Y-93705220D01*
X30025137Y-93739127D01*
X30115465Y-93768477D01*
X30216557Y-93784488D01*
X30317648Y-93800500D01*
X30395638Y-93800500D01*
X30462677Y-93820185D01*
X30483319Y-93836819D01*
X34345958Y-97699459D01*
X34345961Y-97699462D01*
X34396834Y-97733454D01*
X34444815Y-97765514D01*
X34493453Y-97798013D01*
X34493454Y-97798013D01*
X34493455Y-97798014D01*
X34493457Y-97798015D01*
X34575048Y-97831811D01*
X34575049Y-97831811D01*
X34657334Y-97865895D01*
X34828794Y-97900000D01*
X34831303Y-97900499D01*
X34831307Y-97900500D01*
X34831308Y-97900500D01*
X41088693Y-97900500D01*
X41088694Y-97900499D01*
X41262666Y-97865895D01*
X41344951Y-97831811D01*
X41344952Y-97831811D01*
X41426542Y-97798015D01*
X41426541Y-97798015D01*
X41426547Y-97798013D01*
X41523167Y-97733453D01*
X41574036Y-97699464D01*
X43113425Y-96160073D01*
X43174746Y-96126590D01*
X43244437Y-96131574D01*
X43300371Y-96173445D01*
X43311589Y-96191461D01*
X43364469Y-96295244D01*
X43367715Y-96301613D01*
X43488028Y-96467213D01*
X43632786Y-96611971D01*
X43787749Y-96724556D01*
X43798390Y-96732287D01*
X43859023Y-96763181D01*
X43891080Y-96779515D01*
X43941876Y-96827490D01*
X43958671Y-96895311D01*
X43936134Y-96961446D01*
X43891080Y-97000485D01*
X43798386Y-97047715D01*
X43632786Y-97168028D01*
X43488028Y-97312786D01*
X43367715Y-97478386D01*
X43274781Y-97660776D01*
X43211522Y-97855465D01*
X43184750Y-98024500D01*
X43179500Y-98057648D01*
X43179500Y-98262352D01*
X43180159Y-98266510D01*
X43211522Y-98464534D01*
X43274781Y-98659223D01*
X43330201Y-98767988D01*
X43346766Y-98800500D01*
X43367715Y-98841613D01*
X43488028Y-99007213D01*
X43632786Y-99151971D01*
X43782941Y-99261063D01*
X43798390Y-99272287D01*
X43914607Y-99331503D01*
X43980776Y-99365218D01*
X43980778Y-99365218D01*
X43980781Y-99365220D01*
X44085137Y-99399127D01*
X44175465Y-99428477D01*
X44276557Y-99444488D01*
X44377648Y-99460500D01*
X44466638Y-99460500D01*
X44533677Y-99480185D01*
X44579432Y-99532989D01*
X44589376Y-99602147D01*
X44560351Y-99665703D01*
X44554319Y-99672181D01*
X42720538Y-101505960D01*
X42720537Y-101505961D01*
X42697106Y-101541028D01*
X42697098Y-101541039D01*
X42695045Y-101544114D01*
X42621987Y-101653453D01*
X42602500Y-101700500D01*
X42599256Y-101708330D01*
X42599255Y-101708333D01*
X42554105Y-101817333D01*
X42554103Y-101817341D01*
X42535412Y-101911308D01*
X42535413Y-101911309D01*
X42519500Y-101991311D01*
X42519500Y-103509953D01*
X42499815Y-103576992D01*
X42483181Y-103597634D01*
X42428032Y-103652782D01*
X42428028Y-103652786D01*
X42307715Y-103818386D01*
X42214781Y-104000776D01*
X42151522Y-104195465D01*
X42119500Y-104397648D01*
X42119500Y-104602351D01*
X42151522Y-104804534D01*
X42214781Y-104999223D01*
X42240654Y-105050000D01*
X42307585Y-105181359D01*
X42307715Y-105181613D01*
X42428028Y-105347213D01*
X42572786Y-105491971D01*
X42710379Y-105591936D01*
X42738390Y-105612287D01*
X42835455Y-105661744D01*
X42920776Y-105705218D01*
X42920778Y-105705218D01*
X42920781Y-105705220D01*
X43025137Y-105739127D01*
X43115465Y-105768477D01*
X43216557Y-105784488D01*
X43317648Y-105800500D01*
X43317649Y-105800500D01*
X43522351Y-105800500D01*
X43522352Y-105800500D01*
X43724534Y-105768477D01*
X43919219Y-105705220D01*
X44101610Y-105612287D01*
X44197901Y-105542328D01*
X44267213Y-105491971D01*
X44267215Y-105491968D01*
X44267219Y-105491966D01*
X44411966Y-105347219D01*
X44411968Y-105347215D01*
X44411971Y-105347213D01*
X44482599Y-105250000D01*
X44532287Y-105181610D01*
X44625220Y-104999219D01*
X44688477Y-104804534D01*
X44720500Y-104602352D01*
X44720500Y-104397648D01*
X44697114Y-104250000D01*
X52303391Y-104250000D01*
X53264314Y-104250000D01*
X53259920Y-104254394D01*
X53207259Y-104345606D01*
X53180000Y-104447339D01*
X53180000Y-104552661D01*
X53207259Y-104654394D01*
X53259920Y-104745606D01*
X53264314Y-104750000D01*
X52303391Y-104750000D01*
X52312009Y-104804413D01*
X52375244Y-104999029D01*
X52468140Y-105181349D01*
X52588417Y-105346894D01*
X52588417Y-105346895D01*
X52733104Y-105491582D01*
X52898650Y-105611859D01*
X53080968Y-105704754D01*
X53275578Y-105767988D01*
X53330000Y-105776607D01*
X53330000Y-104815686D01*
X53334394Y-104820080D01*
X53425606Y-104872741D01*
X53527339Y-104900000D01*
X53632661Y-104900000D01*
X53734394Y-104872741D01*
X53825606Y-104820080D01*
X53830000Y-104815686D01*
X53830000Y-105776606D01*
X53884421Y-105767988D01*
X54079031Y-105704754D01*
X54261349Y-105611859D01*
X54426894Y-105491582D01*
X54426895Y-105491582D01*
X54571582Y-105346895D01*
X54571582Y-105346894D01*
X54691859Y-105181349D01*
X54784755Y-104999029D01*
X54847990Y-104804413D01*
X54856609Y-104750000D01*
X53895686Y-104750000D01*
X53900080Y-104745606D01*
X53952741Y-104654394D01*
X53980000Y-104552661D01*
X53980000Y-104447339D01*
X53952741Y-104345606D01*
X53900080Y-104254394D01*
X53895686Y-104250000D01*
X54856609Y-104250000D01*
X54847990Y-104195586D01*
X54784755Y-104000970D01*
X54691859Y-103818650D01*
X54571582Y-103653105D01*
X54571582Y-103653104D01*
X54426895Y-103508417D01*
X54261349Y-103388140D01*
X54079029Y-103295244D01*
X53884413Y-103232009D01*
X53830000Y-103223390D01*
X53830000Y-104184314D01*
X53825606Y-104179920D01*
X53734394Y-104127259D01*
X53632661Y-104100000D01*
X53527339Y-104100000D01*
X53425606Y-104127259D01*
X53334394Y-104179920D01*
X53330000Y-104184314D01*
X53330000Y-103223390D01*
X53275586Y-103232009D01*
X53080970Y-103295244D01*
X52898650Y-103388140D01*
X52733105Y-103508417D01*
X52733104Y-103508417D01*
X52588417Y-103653104D01*
X52588417Y-103653105D01*
X52468140Y-103818650D01*
X52375244Y-104000970D01*
X52312009Y-104195586D01*
X52303391Y-104250000D01*
X44697114Y-104250000D01*
X44688477Y-104195466D01*
X44625220Y-104000781D01*
X44625218Y-104000778D01*
X44625218Y-104000776D01*
X44539125Y-103831811D01*
X44532287Y-103818390D01*
X44500092Y-103774077D01*
X44411971Y-103652786D01*
X44356819Y-103597634D01*
X44323334Y-103536311D01*
X44320500Y-103509953D01*
X44320500Y-102504361D01*
X44340185Y-102437322D01*
X44356819Y-102416680D01*
X49699461Y-97074038D01*
X49699464Y-97074035D01*
X49779148Y-96954780D01*
X49798013Y-96926547D01*
X49804403Y-96911121D01*
X49819086Y-96875673D01*
X49819086Y-96875672D01*
X49830790Y-96847416D01*
X49865895Y-96762666D01*
X49900500Y-96588691D01*
X49900500Y-96411308D01*
X49900500Y-95924361D01*
X49920185Y-95857322D01*
X49936814Y-95836685D01*
X50646069Y-95127430D01*
X50707389Y-95093947D01*
X50777080Y-95098931D01*
X50833014Y-95140802D01*
X50857431Y-95206267D01*
X50851678Y-95253430D01*
X50831524Y-95315457D01*
X50831523Y-95315464D01*
X50799500Y-95517648D01*
X50799500Y-95722351D01*
X50831522Y-95924534D01*
X50894781Y-96119223D01*
X50952001Y-96231522D01*
X50984469Y-96295244D01*
X50987715Y-96301613D01*
X51108028Y-96467213D01*
X51252786Y-96611971D01*
X51407749Y-96724556D01*
X51418390Y-96732287D01*
X51479023Y-96763181D01*
X51511080Y-96779515D01*
X51561876Y-96827490D01*
X51578671Y-96895311D01*
X51556134Y-96961446D01*
X51511080Y-97000485D01*
X51418386Y-97047715D01*
X51252786Y-97168028D01*
X51108028Y-97312786D01*
X50987715Y-97478386D01*
X50894781Y-97660776D01*
X50831522Y-97855465D01*
X50804750Y-98024500D01*
X50799500Y-98057648D01*
X50799500Y-98262352D01*
X50800159Y-98266510D01*
X50831522Y-98464534D01*
X50894781Y-98659223D01*
X50950201Y-98767988D01*
X50966766Y-98800500D01*
X50987715Y-98841613D01*
X51108028Y-99007213D01*
X51252786Y-99151971D01*
X51402941Y-99261063D01*
X51418390Y-99272287D01*
X51534607Y-99331503D01*
X51600776Y-99365218D01*
X51600778Y-99365218D01*
X51600781Y-99365220D01*
X51705137Y-99399127D01*
X51795465Y-99428477D01*
X51896557Y-99444488D01*
X51997648Y-99460500D01*
X51997649Y-99460500D01*
X53002351Y-99460500D01*
X53002352Y-99460500D01*
X53204534Y-99428477D01*
X53399219Y-99365220D01*
X53581610Y-99272287D01*
X53725087Y-99168046D01*
X53747213Y-99151971D01*
X53747215Y-99151968D01*
X53747219Y-99151966D01*
X53891966Y-99007219D01*
X53891968Y-99007215D01*
X53891971Y-99007213D01*
X53984987Y-98879185D01*
X54012287Y-98841610D01*
X54105220Y-98659219D01*
X54168477Y-98464534D01*
X54200500Y-98262352D01*
X54200500Y-98057648D01*
X54176437Y-97905724D01*
X54168477Y-97855465D01*
X54128833Y-97733454D01*
X54105220Y-97660781D01*
X54105218Y-97660778D01*
X54105218Y-97660776D01*
X54050130Y-97552661D01*
X54012287Y-97478390D01*
X53953626Y-97397649D01*
X53891971Y-97312786D01*
X53747213Y-97168028D01*
X53581614Y-97047715D01*
X53575006Y-97044348D01*
X53488917Y-97000483D01*
X53438123Y-96952511D01*
X53421328Y-96884690D01*
X53443865Y-96818555D01*
X53488917Y-96779516D01*
X53581610Y-96732287D01*
X53691035Y-96652786D01*
X53747213Y-96611971D01*
X53747215Y-96611968D01*
X53747219Y-96611966D01*
X53891966Y-96467219D01*
X53891968Y-96467215D01*
X53891971Y-96467213D01*
X53985663Y-96338255D01*
X54012287Y-96301610D01*
X54105220Y-96119219D01*
X54168477Y-95924534D01*
X54200500Y-95722352D01*
X54200500Y-95517648D01*
X54183657Y-95411309D01*
X54168477Y-95315465D01*
X54119195Y-95163791D01*
X54105220Y-95120781D01*
X54105218Y-95120778D01*
X54105218Y-95120776D01*
X54040640Y-94994036D01*
X54012287Y-94938390D01*
X53995053Y-94914669D01*
X53891971Y-94772786D01*
X53747213Y-94628028D01*
X53581614Y-94507715D01*
X53546271Y-94489707D01*
X53488917Y-94460483D01*
X53438123Y-94412511D01*
X53421328Y-94344690D01*
X53443865Y-94278555D01*
X53488917Y-94239516D01*
X53581610Y-94192287D01*
X53607361Y-94173578D01*
X53747213Y-94071971D01*
X53747215Y-94071968D01*
X53747219Y-94071966D01*
X53891966Y-93927219D01*
X53891968Y-93927215D01*
X53891971Y-93927213D01*
X54012284Y-93761614D01*
X54012285Y-93761613D01*
X54012287Y-93761610D01*
X54065015Y-93658124D01*
X54112989Y-93607329D01*
X54180810Y-93590534D01*
X54246945Y-93613071D01*
X54290397Y-93667786D01*
X54299500Y-93714420D01*
X54299500Y-93931006D01*
X54299500Y-94068994D01*
X54299500Y-94068996D01*
X54299499Y-94068996D01*
X54326418Y-94204322D01*
X54326421Y-94204332D01*
X54379222Y-94331807D01*
X54455887Y-94446545D01*
X54455888Y-94446546D01*
X55955886Y-95946542D01*
X56036355Y-96027011D01*
X56053459Y-96044115D01*
X56168182Y-96120771D01*
X56168186Y-96120773D01*
X56168189Y-96120775D01*
X56242866Y-96151707D01*
X56295671Y-96173580D01*
X56322591Y-96178934D01*
X56419630Y-96198237D01*
X56431006Y-96200500D01*
X56431007Y-96200500D01*
X56658481Y-96200500D01*
X56725520Y-96220185D01*
X56746162Y-96236819D01*
X58553451Y-98044109D01*
X58553454Y-98044112D01*
X58598240Y-98074037D01*
X58668182Y-98120771D01*
X58668195Y-98120778D01*
X58795667Y-98173578D01*
X58795672Y-98173580D01*
X58795676Y-98173580D01*
X58795677Y-98173581D01*
X58931004Y-98200500D01*
X58931007Y-98200500D01*
X59758256Y-98200500D01*
X59825295Y-98220185D01*
X59858575Y-98251616D01*
X59928030Y-98347215D01*
X60072786Y-98491971D01*
X60192362Y-98578846D01*
X60238390Y-98612287D01*
X60330499Y-98659219D01*
X60420776Y-98705218D01*
X60420778Y-98705218D01*
X60420781Y-98705220D01*
X60507784Y-98733489D01*
X60615465Y-98768477D01*
X60716557Y-98784488D01*
X60817648Y-98800500D01*
X60817649Y-98800500D01*
X61022351Y-98800500D01*
X61022352Y-98800500D01*
X61224534Y-98768477D01*
X61419219Y-98705220D01*
X61601610Y-98612287D01*
X61694590Y-98544732D01*
X61767213Y-98491971D01*
X61767215Y-98491968D01*
X61767219Y-98491966D01*
X61911966Y-98347219D01*
X61911968Y-98347215D01*
X61911971Y-98347213D01*
X61981425Y-98251616D01*
X62032287Y-98181610D01*
X62125220Y-97999219D01*
X62188477Y-97804534D01*
X62220500Y-97602352D01*
X62220500Y-97397648D01*
X62202013Y-97280929D01*
X62210967Y-97211636D01*
X62236802Y-97173853D01*
X64591335Y-94819319D01*
X64652656Y-94785836D01*
X64654667Y-94785416D01*
X64733497Y-94769737D01*
X64879179Y-94709394D01*
X65010289Y-94621789D01*
X65121789Y-94510289D01*
X65209394Y-94379179D01*
X65269737Y-94233497D01*
X65300500Y-94078842D01*
X65300500Y-93921158D01*
X65300500Y-93921155D01*
X65300499Y-93921153D01*
X65276400Y-93800000D01*
X65269737Y-93766503D01*
X65244352Y-93705218D01*
X65209397Y-93620827D01*
X65209390Y-93620814D01*
X65121789Y-93489711D01*
X65121786Y-93489707D01*
X65010292Y-93378213D01*
X65010288Y-93378210D01*
X64879185Y-93290609D01*
X64879172Y-93290602D01*
X64733501Y-93230264D01*
X64733489Y-93230261D01*
X64578845Y-93199500D01*
X64578842Y-93199500D01*
X64421158Y-93199500D01*
X64421155Y-93199500D01*
X64266510Y-93230261D01*
X64266498Y-93230264D01*
X64120827Y-93290602D01*
X64120814Y-93290609D01*
X63989711Y-93378210D01*
X63989707Y-93378213D01*
X63878213Y-93489707D01*
X63878210Y-93489711D01*
X63790606Y-93620819D01*
X63787372Y-93628627D01*
X63760496Y-93668845D01*
X61246147Y-96183194D01*
X61184824Y-96216679D01*
X61139068Y-96217986D01*
X61089969Y-96210209D01*
X61022352Y-96199500D01*
X60817648Y-96199500D01*
X60793329Y-96203351D01*
X60615465Y-96231522D01*
X60420776Y-96294781D01*
X60238386Y-96387715D01*
X60072786Y-96508028D01*
X59928030Y-96652784D01*
X59858575Y-96748384D01*
X59803245Y-96791051D01*
X59758256Y-96799500D01*
X59341519Y-96799500D01*
X59274480Y-96779815D01*
X59253838Y-96763181D01*
X57446546Y-94955888D01*
X57446543Y-94955886D01*
X57331807Y-94879222D01*
X57204332Y-94826421D01*
X57204322Y-94826418D01*
X57068996Y-94799500D01*
X57068994Y-94799500D01*
X57068993Y-94799500D01*
X56841518Y-94799500D01*
X56774479Y-94779815D01*
X56753837Y-94763181D01*
X55736819Y-93746162D01*
X55703334Y-93684839D01*
X55700500Y-93658481D01*
X55700500Y-89431004D01*
X55681736Y-89336679D01*
X55678934Y-89322591D01*
X55673580Y-89295671D01*
X55646487Y-89230263D01*
X55620775Y-89168189D01*
X55620774Y-89168188D01*
X55620771Y-89168182D01*
X55544114Y-89053458D01*
X55544111Y-89053454D01*
X55505130Y-89014474D01*
X55505127Y-89014469D01*
X55285545Y-88794887D01*
X55247129Y-88769219D01*
X55227181Y-88755890D01*
X55182376Y-88702279D01*
X55173669Y-88632954D01*
X55203823Y-88569926D01*
X55208371Y-88565127D01*
X57119464Y-86654036D01*
X57170791Y-86577219D01*
X57218013Y-86506547D01*
X57257337Y-86411610D01*
X57285895Y-86342666D01*
X57320500Y-86168692D01*
X57320500Y-85991308D01*
X57320500Y-83490047D01*
X57340185Y-83423008D01*
X57356819Y-83402366D01*
X57411966Y-83347219D01*
X57411968Y-83347215D01*
X57411971Y-83347213D01*
X57501101Y-83224534D01*
X57532287Y-83181610D01*
X57625220Y-82999219D01*
X57688477Y-82804534D01*
X57720500Y-82602352D01*
X57720500Y-82397648D01*
X57697114Y-82250000D01*
X65303391Y-82250000D01*
X66264314Y-82250000D01*
X66259920Y-82254394D01*
X66207259Y-82345606D01*
X66180000Y-82447339D01*
X66180000Y-82552661D01*
X66207259Y-82654394D01*
X66259920Y-82745606D01*
X66264314Y-82750000D01*
X65303391Y-82750000D01*
X65312009Y-82804413D01*
X65375244Y-82999029D01*
X65468140Y-83181349D01*
X65588417Y-83346894D01*
X65588417Y-83346895D01*
X65733104Y-83491582D01*
X65898650Y-83611859D01*
X66080968Y-83704754D01*
X66275578Y-83767988D01*
X66330000Y-83776607D01*
X66330000Y-82815686D01*
X66334394Y-82820080D01*
X66425606Y-82872741D01*
X66527339Y-82900000D01*
X66632661Y-82900000D01*
X66734394Y-82872741D01*
X66825606Y-82820080D01*
X66830000Y-82815686D01*
X66830000Y-83776606D01*
X66884421Y-83767988D01*
X67079031Y-83704754D01*
X67261349Y-83611859D01*
X67426894Y-83491582D01*
X67426895Y-83491582D01*
X67571582Y-83346895D01*
X67571582Y-83346894D01*
X67691859Y-83181349D01*
X67784755Y-82999029D01*
X67847990Y-82804413D01*
X67856609Y-82750000D01*
X66895686Y-82750000D01*
X66900080Y-82745606D01*
X66952741Y-82654394D01*
X66980000Y-82552661D01*
X66980000Y-82447339D01*
X66952741Y-82345606D01*
X66900080Y-82254394D01*
X66895686Y-82250000D01*
X67856609Y-82250000D01*
X67847990Y-82195586D01*
X67784755Y-82000970D01*
X67691859Y-81818650D01*
X67571582Y-81653105D01*
X67571582Y-81653104D01*
X67426895Y-81508417D01*
X67261349Y-81388140D01*
X67079029Y-81295244D01*
X66884413Y-81232009D01*
X66830000Y-81223390D01*
X66830000Y-82184314D01*
X66825606Y-82179920D01*
X66734394Y-82127259D01*
X66632661Y-82100000D01*
X66527339Y-82100000D01*
X66425606Y-82127259D01*
X66334394Y-82179920D01*
X66330000Y-82184314D01*
X66330000Y-81223390D01*
X66275586Y-81232009D01*
X66080970Y-81295244D01*
X65898650Y-81388140D01*
X65733105Y-81508417D01*
X65733104Y-81508417D01*
X65588417Y-81653104D01*
X65588417Y-81653105D01*
X65468140Y-81818650D01*
X65375244Y-82000970D01*
X65312009Y-82195586D01*
X65303391Y-82250000D01*
X57697114Y-82250000D01*
X57688477Y-82195466D01*
X57625220Y-82000781D01*
X57625218Y-82000778D01*
X57625218Y-82000776D01*
X57574121Y-81900494D01*
X57532287Y-81818390D01*
X57502425Y-81777288D01*
X57411971Y-81652786D01*
X57267219Y-81508034D01*
X57197729Y-81457547D01*
X57152681Y-81424818D01*
X57110016Y-81369489D01*
X57104037Y-81299875D01*
X57136642Y-81238080D01*
X57197481Y-81203723D01*
X57225567Y-81200500D01*
X58648996Y-81200500D01*
X58740040Y-81182389D01*
X58784328Y-81173580D01*
X58848069Y-81147177D01*
X58911807Y-81120777D01*
X58911808Y-81120776D01*
X58911811Y-81120775D01*
X59026543Y-81044114D01*
X61753852Y-78316802D01*
X61815173Y-78283319D01*
X61860923Y-78282012D01*
X61977648Y-78300500D01*
X61977650Y-78300500D01*
X62182351Y-78300500D01*
X62182352Y-78300500D01*
X62384534Y-78268477D01*
X62579219Y-78205220D01*
X62761610Y-78112287D01*
X62854590Y-78044732D01*
X62927213Y-77991971D01*
X62927215Y-77991968D01*
X62927219Y-77991966D01*
X63071966Y-77847219D01*
X63071968Y-77847215D01*
X63071971Y-77847213D01*
X63177482Y-77701987D01*
X63192287Y-77681610D01*
X63285220Y-77499219D01*
X63348477Y-77304534D01*
X63380500Y-77102352D01*
X63380500Y-76897648D01*
X63370273Y-76833076D01*
X63348477Y-76695465D01*
X63285218Y-76500776D01*
X63251503Y-76434607D01*
X63192287Y-76318390D01*
X63184556Y-76307749D01*
X63071971Y-76152786D01*
X62927219Y-76008034D01*
X62812682Y-75924819D01*
X62770016Y-75869489D01*
X62764037Y-75799875D01*
X62796642Y-75738080D01*
X62857481Y-75703723D01*
X62885567Y-75700500D01*
X70068996Y-75700500D01*
X70160040Y-75682389D01*
X70204328Y-75673580D01*
X70268069Y-75647177D01*
X70331807Y-75620777D01*
X70331808Y-75620776D01*
X70331811Y-75620775D01*
X70446543Y-75544114D01*
X73253838Y-72736819D01*
X73315161Y-72703334D01*
X73341519Y-72700500D01*
X74225500Y-72700500D01*
X74292539Y-72720185D01*
X74338294Y-72772989D01*
X74349500Y-72824500D01*
X74349500Y-73200015D01*
X74360000Y-73302795D01*
X74360001Y-73302796D01*
X74415186Y-73469335D01*
X74415187Y-73469337D01*
X74507286Y-73618651D01*
X74507289Y-73618655D01*
X74631344Y-73742710D01*
X74631348Y-73742713D01*
X74780662Y-73834812D01*
X74780664Y-73834813D01*
X74780666Y-73834814D01*
X74947203Y-73889999D01*
X75049992Y-73900500D01*
X75425500Y-73900500D01*
X75492539Y-73920185D01*
X75538294Y-73972989D01*
X75549500Y-74024500D01*
X75549500Y-75681006D01*
X75549500Y-75818994D01*
X75549500Y-75818996D01*
X75549499Y-75818996D01*
X75576418Y-75954322D01*
X75576421Y-75954332D01*
X75629222Y-76081807D01*
X75705887Y-76196545D01*
X75705888Y-76196546D01*
X79097162Y-79587819D01*
X79130647Y-79649142D01*
X79125663Y-79718834D01*
X79083791Y-79774767D01*
X79018327Y-79799184D01*
X79009481Y-79799500D01*
X77431005Y-79799500D01*
X77295677Y-79826418D01*
X77295667Y-79826421D01*
X77168195Y-79879221D01*
X77168182Y-79879228D01*
X77053458Y-79955885D01*
X77053454Y-79955888D01*
X76955888Y-80053454D01*
X76955885Y-80053458D01*
X76879228Y-80168182D01*
X76879221Y-80168195D01*
X76826421Y-80295667D01*
X76826418Y-80295677D01*
X76799500Y-80431004D01*
X76799500Y-84649844D01*
X76779815Y-84716883D01*
X76763181Y-84737525D01*
X75649510Y-85851196D01*
X75588187Y-85884681D01*
X75518495Y-85879697D01*
X75492938Y-85866617D01*
X75379185Y-85790609D01*
X75379172Y-85790602D01*
X75233501Y-85730264D01*
X75233489Y-85730261D01*
X75078845Y-85699500D01*
X75078842Y-85699500D01*
X74921158Y-85699500D01*
X74921155Y-85699500D01*
X74766510Y-85730261D01*
X74766498Y-85730264D01*
X74622136Y-85790061D01*
X74574684Y-85799500D01*
X74014500Y-85799500D01*
X73947461Y-85779815D01*
X73901706Y-85727011D01*
X73890500Y-85675500D01*
X73890500Y-85627648D01*
X73858477Y-85425465D01*
X73816929Y-85297595D01*
X73795220Y-85230781D01*
X73795218Y-85230778D01*
X73795218Y-85230776D01*
X73756845Y-85155466D01*
X73702287Y-85048390D01*
X73657353Y-84986543D01*
X73581971Y-84882786D01*
X73437217Y-84738032D01*
X73437212Y-84738028D01*
X73343051Y-84669616D01*
X73300385Y-84614286D01*
X73294406Y-84544673D01*
X73327012Y-84482878D01*
X73376933Y-84451592D01*
X73459117Y-84424359D01*
X73459124Y-84424356D01*
X73608345Y-84332315D01*
X73732315Y-84208345D01*
X73824356Y-84059124D01*
X73824358Y-84059119D01*
X73879505Y-83892697D01*
X73879506Y-83892690D01*
X73889999Y-83789986D01*
X73890000Y-83789973D01*
X73890000Y-83440000D01*
X72505686Y-83440000D01*
X72510080Y-83435606D01*
X72562741Y-83344394D01*
X72590000Y-83242661D01*
X72590000Y-83137339D01*
X72562741Y-83035606D01*
X72510080Y-82944394D01*
X72505686Y-82940000D01*
X73889999Y-82940000D01*
X73889999Y-82590028D01*
X73889998Y-82590013D01*
X73879505Y-82487302D01*
X73824358Y-82320880D01*
X73824356Y-82320875D01*
X73732315Y-82171654D01*
X73608345Y-82047684D01*
X73459124Y-81955643D01*
X73459119Y-81955641D01*
X73292697Y-81900494D01*
X73292690Y-81900493D01*
X73189986Y-81890000D01*
X72440000Y-81890000D01*
X72440000Y-82874314D01*
X72435606Y-82869920D01*
X72344394Y-82817259D01*
X72242661Y-82790000D01*
X72137339Y-82790000D01*
X72035606Y-82817259D01*
X71944394Y-82869920D01*
X71940000Y-82874314D01*
X71940000Y-81890000D01*
X71190028Y-81890000D01*
X71190012Y-81890001D01*
X71087302Y-81900494D01*
X70920880Y-81955641D01*
X70920875Y-81955643D01*
X70771654Y-82047684D01*
X70647684Y-82171654D01*
X70555643Y-82320875D01*
X70555641Y-82320880D01*
X70500494Y-82487302D01*
X70500493Y-82487309D01*
X70490000Y-82590013D01*
X70490000Y-82940000D01*
X71874314Y-82940000D01*
X71869920Y-82944394D01*
X71817259Y-83035606D01*
X71790000Y-83137339D01*
X71790000Y-83242661D01*
X71817259Y-83344394D01*
X71869920Y-83435606D01*
X71874314Y-83440000D01*
X70490001Y-83440000D01*
X70490001Y-83789986D01*
X70500494Y-83892697D01*
X70555641Y-84059119D01*
X70555643Y-84059124D01*
X70647684Y-84208345D01*
X70771654Y-84332315D01*
X70920875Y-84424356D01*
X70920882Y-84424359D01*
X71003067Y-84451592D01*
X71060512Y-84491364D01*
X71087336Y-84555880D01*
X71075021Y-84624656D01*
X71036949Y-84669616D01*
X70942787Y-84738028D01*
X70942782Y-84738032D01*
X70798028Y-84882786D01*
X70677715Y-85048386D01*
X70584781Y-85230776D01*
X70521522Y-85425465D01*
X70489500Y-85627648D01*
X70489500Y-85832351D01*
X70521522Y-86034534D01*
X70584781Y-86229223D01*
X70624520Y-86307213D01*
X70675087Y-86406457D01*
X70677715Y-86411613D01*
X70798028Y-86577213D01*
X70942786Y-86721971D01*
X71056427Y-86804534D01*
X71108390Y-86842287D01*
X71197543Y-86887713D01*
X71201080Y-86889515D01*
X71251876Y-86937490D01*
X71268671Y-87005311D01*
X71246134Y-87071446D01*
X71201080Y-87110485D01*
X71108386Y-87157715D01*
X70942786Y-87278028D01*
X70798028Y-87422786D01*
X70677715Y-87588386D01*
X70584781Y-87770776D01*
X70521522Y-87965465D01*
X70489500Y-88167648D01*
X70489500Y-88372351D01*
X70521522Y-88574534D01*
X70584781Y-88769223D01*
X70646716Y-88890775D01*
X70673620Y-88943578D01*
X70677715Y-88951613D01*
X70798028Y-89117213D01*
X70942786Y-89261971D01*
X71045615Y-89336679D01*
X71108390Y-89382287D01*
X71190963Y-89424360D01*
X71201080Y-89429515D01*
X71251876Y-89477490D01*
X71268671Y-89545311D01*
X71246134Y-89611446D01*
X71201080Y-89650485D01*
X71108386Y-89697715D01*
X70942786Y-89818028D01*
X70798030Y-89962784D01*
X70728575Y-90058384D01*
X70673245Y-90101051D01*
X70628256Y-90109500D01*
X68121003Y-90109500D01*
X68012590Y-90131065D01*
X68012589Y-90131065D01*
X67999131Y-90133742D01*
X67985673Y-90136419D01*
X67977245Y-90139910D01*
X67932866Y-90158292D01*
X67932864Y-90158293D01*
X67932863Y-90158292D01*
X67858191Y-90189223D01*
X67791932Y-90233497D01*
X67791931Y-90233497D01*
X67743461Y-90265883D01*
X67743453Y-90265889D01*
X67305413Y-90703928D01*
X67265185Y-90730808D01*
X67120824Y-90790604D01*
X67120814Y-90790609D01*
X66989711Y-90878210D01*
X66989707Y-90878213D01*
X66878213Y-90989707D01*
X66878210Y-90989711D01*
X66790609Y-91120814D01*
X66790602Y-91120827D01*
X66730264Y-91266498D01*
X66730261Y-91266510D01*
X66699500Y-91421153D01*
X66699500Y-91546637D01*
X66679815Y-91613676D01*
X66627011Y-91659431D01*
X66557853Y-91669375D01*
X66494297Y-91640350D01*
X66487819Y-91634318D01*
X64654038Y-89800537D01*
X64569913Y-89744327D01*
X64506544Y-89701985D01*
X64506542Y-89701984D01*
X64424607Y-89668046D01*
X64424606Y-89668046D01*
X64342666Y-89634105D01*
X64342658Y-89634103D01*
X64168696Y-89599500D01*
X64168692Y-89599500D01*
X64168691Y-89599500D01*
X62896470Y-89599500D01*
X62829431Y-89579815D01*
X62808789Y-89563182D01*
X62755895Y-89510288D01*
X62677365Y-89431758D01*
X62677361Y-89431755D01*
X62677357Y-89431751D01*
X62499025Y-89302187D01*
X62499024Y-89302186D01*
X62499022Y-89302185D01*
X62425435Y-89264690D01*
X62302606Y-89202104D01*
X62302603Y-89202103D01*
X62092952Y-89133985D01*
X61984086Y-89116742D01*
X61875222Y-89099500D01*
X61654778Y-89099500D01*
X61582201Y-89110995D01*
X61437047Y-89133985D01*
X61227396Y-89202103D01*
X61227393Y-89202104D01*
X61030974Y-89302187D01*
X60852641Y-89431752D01*
X60852636Y-89431756D01*
X60802075Y-89482317D01*
X60740752Y-89515801D01*
X60671060Y-89510816D01*
X60615127Y-89468945D01*
X60598213Y-89437968D01*
X60568354Y-89357913D01*
X60568350Y-89357906D01*
X60482190Y-89242812D01*
X60482187Y-89242809D01*
X60367093Y-89156649D01*
X60367086Y-89156645D01*
X60232379Y-89106403D01*
X60232372Y-89106401D01*
X60172844Y-89100000D01*
X59475000Y-89100000D01*
X59475000Y-90124722D01*
X59398694Y-90080667D01*
X59284244Y-90050000D01*
X59165756Y-90050000D01*
X59051306Y-90080667D01*
X58975000Y-90124722D01*
X58975000Y-89100000D01*
X58277155Y-89100000D01*
X58217627Y-89106401D01*
X58217620Y-89106403D01*
X58082913Y-89156645D01*
X58082906Y-89156649D01*
X57967812Y-89242809D01*
X57967809Y-89242812D01*
X57881649Y-89357906D01*
X57881645Y-89357913D01*
X57831403Y-89492620D01*
X57831401Y-89492627D01*
X57825000Y-89552155D01*
X57825000Y-90250000D01*
X58849722Y-90250000D01*
X58805667Y-90326306D01*
X58775000Y-90440756D01*
X58775000Y-90559244D01*
X58805667Y-90673694D01*
X58849722Y-90750000D01*
X57825000Y-90750000D01*
X57825000Y-91447844D01*
X57831401Y-91507372D01*
X57831403Y-91507379D01*
X57881645Y-91642086D01*
X57881649Y-91642093D01*
X57967809Y-91757187D01*
X57967812Y-91757190D01*
X58082906Y-91843350D01*
X58082913Y-91843354D01*
X58217620Y-91893596D01*
X58217627Y-91893598D01*
X58277155Y-91899999D01*
X58277172Y-91900000D01*
X58975000Y-91900000D01*
X58975000Y-90875277D01*
X59051306Y-90919333D01*
X59165756Y-90950000D01*
X59284244Y-90950000D01*
X59398694Y-90919333D01*
X59475000Y-90875277D01*
X59475000Y-91900000D01*
X60172828Y-91900000D01*
X60172844Y-91899999D01*
X60232372Y-91893598D01*
X60232379Y-91893596D01*
X60367086Y-91843354D01*
X60367093Y-91843350D01*
X60482187Y-91757190D01*
X60482190Y-91757187D01*
X60568350Y-91642093D01*
X60568354Y-91642086D01*
X60598213Y-91562031D01*
X60640084Y-91506097D01*
X60705548Y-91481680D01*
X60773821Y-91496531D01*
X60802076Y-91517683D01*
X60852636Y-91568243D01*
X60852641Y-91568247D01*
X60991833Y-91669375D01*
X61030978Y-91697815D01*
X61128470Y-91747490D01*
X61227393Y-91797895D01*
X61227396Y-91797896D01*
X61332221Y-91831955D01*
X61437049Y-91866015D01*
X61654778Y-91900500D01*
X61654779Y-91900500D01*
X61875221Y-91900500D01*
X61875222Y-91900500D01*
X62092951Y-91866015D01*
X62302606Y-91797895D01*
X62499022Y-91697815D01*
X62677365Y-91568242D01*
X62808789Y-91436818D01*
X62870112Y-91403334D01*
X62896470Y-91400500D01*
X63655638Y-91400500D01*
X63722677Y-91420185D01*
X63743319Y-91436819D01*
X69743181Y-97436681D01*
X69776666Y-97498004D01*
X69779500Y-97524362D01*
X69779500Y-97602351D01*
X69811522Y-97804534D01*
X69874781Y-97999223D01*
X69936714Y-98120771D01*
X69963620Y-98173578D01*
X69967715Y-98181613D01*
X70088028Y-98347213D01*
X70232786Y-98491971D01*
X70352362Y-98578846D01*
X70398390Y-98612287D01*
X70490499Y-98659219D01*
X70580776Y-98705218D01*
X70580778Y-98705218D01*
X70580781Y-98705220D01*
X70667784Y-98733489D01*
X70775465Y-98768477D01*
X70876557Y-98784488D01*
X70977648Y-98800500D01*
X70977649Y-98800500D01*
X71182351Y-98800500D01*
X71182352Y-98800500D01*
X71384534Y-98768477D01*
X71579219Y-98705220D01*
X71761610Y-98612287D01*
X71854590Y-98544732D01*
X71927213Y-98491971D01*
X71927215Y-98491968D01*
X71927219Y-98491966D01*
X72071966Y-98347219D01*
X72071968Y-98347215D01*
X72071971Y-98347213D01*
X72141425Y-98251616D01*
X72192287Y-98181610D01*
X72285220Y-97999219D01*
X72348477Y-97804534D01*
X72380500Y-97602352D01*
X72380500Y-97397648D01*
X72364349Y-97295679D01*
X72348477Y-97195465D01*
X72285218Y-97000776D01*
X72245450Y-96922728D01*
X72192287Y-96818390D01*
X72152176Y-96763181D01*
X72071971Y-96652786D01*
X71927213Y-96508028D01*
X71761613Y-96387715D01*
X71761612Y-96387714D01*
X71761610Y-96387713D01*
X71704653Y-96358691D01*
X71579223Y-96294781D01*
X71384534Y-96231522D01*
X71209995Y-96203878D01*
X71182352Y-96199500D01*
X71182351Y-96199500D01*
X71104362Y-96199500D01*
X71037323Y-96179815D01*
X71016681Y-96163181D01*
X67365682Y-92512181D01*
X67332197Y-92450858D01*
X67337181Y-92381166D01*
X67379053Y-92325233D01*
X67444517Y-92300816D01*
X67453363Y-92300500D01*
X67578844Y-92300500D01*
X67578845Y-92300499D01*
X67733497Y-92269737D01*
X67879179Y-92209394D01*
X68010289Y-92121789D01*
X68121789Y-92010289D01*
X68209394Y-91879179D01*
X68269193Y-91734808D01*
X68273823Y-91727879D01*
X68274920Y-91722838D01*
X68296065Y-91694590D01*
X68443839Y-91546816D01*
X68505160Y-91513334D01*
X68531518Y-91510500D01*
X70628256Y-91510500D01*
X70695295Y-91530185D01*
X70728574Y-91561615D01*
X70733393Y-91568248D01*
X70798030Y-91657215D01*
X70942786Y-91801971D01*
X71087378Y-91907021D01*
X71108390Y-91922287D01*
X71207370Y-91972720D01*
X71290776Y-92015218D01*
X71290778Y-92015218D01*
X71290781Y-92015220D01*
X71387617Y-92046684D01*
X71485465Y-92078477D01*
X71586557Y-92094488D01*
X71687648Y-92110500D01*
X71687649Y-92110500D01*
X72692351Y-92110500D01*
X72692352Y-92110500D01*
X72894534Y-92078477D01*
X73089219Y-92015220D01*
X73271610Y-91922287D01*
X73380253Y-91843354D01*
X73437213Y-91801971D01*
X73437215Y-91801968D01*
X73437219Y-91801966D01*
X73581966Y-91657219D01*
X73581968Y-91657215D01*
X73581971Y-91657213D01*
X73647163Y-91567482D01*
X73702287Y-91491610D01*
X73795220Y-91309219D01*
X73858477Y-91114534D01*
X73890500Y-90912352D01*
X73890500Y-90707648D01*
X73885122Y-90673694D01*
X73858477Y-90505465D01*
X73800264Y-90326306D01*
X73795220Y-90310781D01*
X73795218Y-90310778D01*
X73795218Y-90310776D01*
X73756845Y-90235466D01*
X73702287Y-90128390D01*
X73667897Y-90081056D01*
X73581971Y-89962786D01*
X73437213Y-89818028D01*
X73271614Y-89697715D01*
X73213385Y-89668046D01*
X73178917Y-89650483D01*
X73128123Y-89602511D01*
X73111328Y-89534690D01*
X73133865Y-89468555D01*
X73178917Y-89429516D01*
X73271610Y-89382287D01*
X73334385Y-89336679D01*
X73437213Y-89261971D01*
X73437215Y-89261968D01*
X73437219Y-89261966D01*
X73581966Y-89117219D01*
X73585552Y-89112284D01*
X73651425Y-89021616D01*
X73706755Y-88978949D01*
X73751744Y-88970500D01*
X74290360Y-88970500D01*
X74385323Y-88951610D01*
X74425692Y-88943580D01*
X74503599Y-88911310D01*
X74553171Y-88890777D01*
X74553172Y-88890776D01*
X74553175Y-88890775D01*
X74667907Y-88814114D01*
X74968662Y-88513359D01*
X75029985Y-88479874D01*
X75099676Y-88484858D01*
X75155610Y-88526729D01*
X75180027Y-88592194D01*
X75170904Y-88648492D01*
X75134106Y-88737329D01*
X75134105Y-88737333D01*
X75134105Y-88737334D01*
X75101650Y-88900500D01*
X75099500Y-88911309D01*
X75099500Y-88911310D01*
X75099500Y-98975500D01*
X75079815Y-99042539D01*
X75027011Y-99088294D01*
X74975500Y-99099500D01*
X71411303Y-99099500D01*
X71237341Y-99134103D01*
X71237329Y-99134106D01*
X71155392Y-99168045D01*
X71155393Y-99168046D01*
X71073455Y-99201985D01*
X70985040Y-99261063D01*
X70972058Y-99269737D01*
X70925961Y-99300537D01*
X70925960Y-99300538D01*
X69163319Y-101063181D01*
X69101996Y-101096666D01*
X69075638Y-101099500D01*
X63291303Y-101099500D01*
X63117341Y-101134103D01*
X63117329Y-101134106D01*
X63035392Y-101168045D01*
X63035393Y-101168046D01*
X62953455Y-101201985D01*
X62865040Y-101261063D01*
X62865039Y-101261064D01*
X62805961Y-101300537D01*
X60943317Y-103163181D01*
X60881994Y-103196666D01*
X60855636Y-103199500D01*
X60032129Y-103199500D01*
X60032123Y-103199501D01*
X59972516Y-103205908D01*
X59837671Y-103256202D01*
X59837664Y-103256206D01*
X59722455Y-103342452D01*
X59722452Y-103342455D01*
X59636206Y-103457664D01*
X59636202Y-103457671D01*
X59613391Y-103518833D01*
X59571520Y-103574767D01*
X59506056Y-103599184D01*
X59497209Y-103599500D01*
X57911306Y-103599500D01*
X57737341Y-103634103D01*
X57737332Y-103634106D01*
X57573459Y-103701983D01*
X57573446Y-103701990D01*
X57425965Y-103800535D01*
X57425961Y-103800538D01*
X57300538Y-103925961D01*
X57300535Y-103925965D01*
X57201990Y-104073446D01*
X57201983Y-104073459D01*
X57134106Y-104237332D01*
X57134103Y-104237341D01*
X57099500Y-104411304D01*
X57099500Y-109588695D01*
X57134103Y-109762658D01*
X57134106Y-109762667D01*
X57201983Y-109926540D01*
X57201990Y-109926553D01*
X57300535Y-110074034D01*
X57300538Y-110074038D01*
X57425961Y-110199461D01*
X57425965Y-110199464D01*
X57573446Y-110298009D01*
X57573459Y-110298016D01*
X57696363Y-110348923D01*
X57737334Y-110365894D01*
X57737336Y-110365894D01*
X57737341Y-110365896D01*
X57911304Y-110400499D01*
X57911307Y-110400500D01*
X57911309Y-110400500D01*
X58088691Y-110400500D01*
X64575500Y-110400500D01*
X64642539Y-110420185D01*
X64688294Y-110472989D01*
X64699500Y-110524500D01*
X64699500Y-110578846D01*
X64730261Y-110733489D01*
X64730264Y-110733501D01*
X64790602Y-110879172D01*
X64790609Y-110879185D01*
X64878210Y-111010288D01*
X64878213Y-111010292D01*
X64989707Y-111121786D01*
X64989711Y-111121789D01*
X65120814Y-111209390D01*
X65120827Y-111209397D01*
X65265185Y-111269191D01*
X65305414Y-111296071D01*
X69797162Y-115787819D01*
X69830647Y-115849142D01*
X69825663Y-115918834D01*
X69783791Y-115974767D01*
X69718327Y-115999184D01*
X69709481Y-115999500D01*
X69452130Y-115999500D01*
X69452123Y-115999501D01*
X69392516Y-116005908D01*
X69257671Y-116056202D01*
X69257664Y-116056206D01*
X69142455Y-116142452D01*
X69142452Y-116142455D01*
X69056206Y-116257664D01*
X69056202Y-116257671D01*
X69005908Y-116392517D01*
X68999501Y-116452116D01*
X68999501Y-116452123D01*
X68999500Y-116452135D01*
X68999500Y-119547870D01*
X68999501Y-119547876D01*
X69005908Y-119607483D01*
X69056202Y-119742328D01*
X69056206Y-119742335D01*
X69142452Y-119857544D01*
X69142455Y-119857547D01*
X69257664Y-119943793D01*
X69257671Y-119943797D01*
X69392517Y-119994091D01*
X69392516Y-119994091D01*
X69399444Y-119994835D01*
X69452127Y-120000500D01*
X72547872Y-120000499D01*
X72607483Y-119994091D01*
X72742331Y-119943796D01*
X72857546Y-119857546D01*
X72943796Y-119742331D01*
X72994091Y-119607483D01*
X73000500Y-119547873D01*
X73000499Y-117868872D01*
X73999500Y-117868872D01*
X73999500Y-118131127D01*
X74026123Y-118333339D01*
X74033730Y-118391116D01*
X74101602Y-118644418D01*
X74101605Y-118644428D01*
X74201953Y-118886690D01*
X74201958Y-118886700D01*
X74333075Y-119113803D01*
X74492718Y-119321851D01*
X74492726Y-119321860D01*
X74678140Y-119507274D01*
X74678148Y-119507281D01*
X74886196Y-119666924D01*
X75113299Y-119798041D01*
X75113309Y-119798046D01*
X75355571Y-119898394D01*
X75355581Y-119898398D01*
X75608884Y-119966270D01*
X75857188Y-119998960D01*
X75868864Y-120000498D01*
X75868880Y-120000500D01*
X75868887Y-120000500D01*
X76131113Y-120000500D01*
X76131120Y-120000500D01*
X76391116Y-119966270D01*
X76644419Y-119898398D01*
X76886697Y-119798043D01*
X77113803Y-119666924D01*
X77321851Y-119507282D01*
X77321855Y-119507277D01*
X77321860Y-119507274D01*
X77507274Y-119321860D01*
X77507277Y-119321855D01*
X77507282Y-119321851D01*
X77666924Y-119113803D01*
X77798043Y-118886697D01*
X77898398Y-118644419D01*
X77966270Y-118391116D01*
X78000500Y-118131120D01*
X78000500Y-117868880D01*
X77999386Y-117860419D01*
X78010151Y-117791385D01*
X78056530Y-117739128D01*
X78123799Y-117720242D01*
X78169775Y-117729671D01*
X78266503Y-117769737D01*
X78421153Y-117800499D01*
X78421156Y-117800500D01*
X78421158Y-117800500D01*
X78578844Y-117800500D01*
X78578845Y-117800499D01*
X78733497Y-117769737D01*
X78830223Y-117729671D01*
X78899690Y-117722203D01*
X78962170Y-117753478D01*
X78997822Y-117813567D01*
X79000614Y-117860410D01*
X78999501Y-117868865D01*
X78999500Y-117868886D01*
X78999500Y-118131127D01*
X79026123Y-118333339D01*
X79033730Y-118391116D01*
X79101602Y-118644418D01*
X79101605Y-118644428D01*
X79201953Y-118886690D01*
X79201958Y-118886700D01*
X79333075Y-119113803D01*
X79492718Y-119321851D01*
X79492726Y-119321860D01*
X79678140Y-119507274D01*
X79678148Y-119507281D01*
X79886196Y-119666924D01*
X80113299Y-119798041D01*
X80113309Y-119798046D01*
X80355571Y-119898394D01*
X80355581Y-119898398D01*
X80608884Y-119966270D01*
X80857188Y-119998960D01*
X80868864Y-120000498D01*
X80868880Y-120000500D01*
X80868887Y-120000500D01*
X81131113Y-120000500D01*
X81131120Y-120000500D01*
X81391116Y-119966270D01*
X81644419Y-119898398D01*
X81886697Y-119798043D01*
X82113803Y-119666924D01*
X82321851Y-119507282D01*
X82321855Y-119507277D01*
X82321860Y-119507274D01*
X82507274Y-119321860D01*
X82507277Y-119321855D01*
X82507282Y-119321851D01*
X82666924Y-119113803D01*
X82798043Y-118886697D01*
X82898398Y-118644419D01*
X82966270Y-118391116D01*
X83000500Y-118131120D01*
X83000500Y-117868880D01*
X82966270Y-117608884D01*
X82898398Y-117355581D01*
X82892656Y-117341719D01*
X82798046Y-117113309D01*
X82798041Y-117113299D01*
X82666924Y-116886196D01*
X82609041Y-116810763D01*
X82554856Y-116740148D01*
X116889500Y-116740148D01*
X116889500Y-116944851D01*
X116921522Y-117147034D01*
X116984781Y-117341723D01*
X117048691Y-117467153D01*
X117077378Y-117523453D01*
X117077715Y-117524113D01*
X117198028Y-117689713D01*
X117342786Y-117834471D01*
X117497749Y-117947056D01*
X117508390Y-117954787D01*
X117610974Y-118007056D01*
X117690776Y-118047718D01*
X117690778Y-118047718D01*
X117690781Y-118047720D01*
X117795137Y-118081627D01*
X117885465Y-118110977D01*
X117986557Y-118126988D01*
X118087648Y-118143000D01*
X118087649Y-118143000D01*
X118292351Y-118143000D01*
X118292352Y-118143000D01*
X118494534Y-118110977D01*
X118689219Y-118047720D01*
X118871610Y-117954787D01*
X118989863Y-117868872D01*
X119037213Y-117834471D01*
X119037215Y-117834468D01*
X119037219Y-117834466D01*
X119181966Y-117689719D01*
X119181968Y-117689715D01*
X119181971Y-117689713D01*
X119240696Y-117608884D01*
X119302287Y-117524110D01*
X119395220Y-117341719D01*
X119458477Y-117147034D01*
X119490500Y-116944852D01*
X119490500Y-116740148D01*
X119458477Y-116537966D01*
X119395220Y-116343281D01*
X119395218Y-116343278D01*
X119395218Y-116343276D01*
X119323212Y-116201958D01*
X119302287Y-116160890D01*
X119288891Y-116142452D01*
X119181971Y-115995286D01*
X119037213Y-115850528D01*
X118871613Y-115730215D01*
X118871612Y-115730214D01*
X118871610Y-115730213D01*
X118814653Y-115701191D01*
X118689223Y-115637281D01*
X118494534Y-115574022D01*
X118319995Y-115546378D01*
X118292352Y-115542000D01*
X118087648Y-115542000D01*
X118063329Y-115545851D01*
X117885465Y-115574022D01*
X117690776Y-115637281D01*
X117508386Y-115730215D01*
X117342786Y-115850528D01*
X117198028Y-115995286D01*
X117077715Y-116160886D01*
X116984781Y-116343276D01*
X116921522Y-116537965D01*
X116889500Y-116740148D01*
X82554856Y-116740148D01*
X82507281Y-116678148D01*
X82507274Y-116678140D01*
X82321860Y-116492726D01*
X82321851Y-116492718D01*
X82113803Y-116333075D01*
X81886700Y-116201958D01*
X81886690Y-116201953D01*
X81644428Y-116101605D01*
X81644421Y-116101603D01*
X81644419Y-116101602D01*
X81391116Y-116033730D01*
X81333339Y-116026123D01*
X81131127Y-115999500D01*
X81131120Y-115999500D01*
X80868880Y-115999500D01*
X80868872Y-115999500D01*
X80637772Y-116029926D01*
X80608884Y-116033730D01*
X80608882Y-116033730D01*
X80608873Y-116033732D01*
X80440127Y-116078947D01*
X80370277Y-116077284D01*
X80320353Y-116046853D01*
X77436819Y-113163319D01*
X77403334Y-113101996D01*
X77400500Y-113075638D01*
X77400500Y-112411306D01*
X77400499Y-112411304D01*
X77365896Y-112237341D01*
X77365893Y-112237332D01*
X77298016Y-112073459D01*
X77298009Y-112073446D01*
X77199464Y-111925965D01*
X77199461Y-111925961D01*
X77074038Y-111800538D01*
X77074034Y-111800535D01*
X76926553Y-111701990D01*
X76926540Y-111701983D01*
X76762667Y-111634106D01*
X76762658Y-111634103D01*
X76588694Y-111599500D01*
X76588691Y-111599500D01*
X76411309Y-111599500D01*
X76411306Y-111599500D01*
X76237341Y-111634103D01*
X76237332Y-111634106D01*
X76073459Y-111701983D01*
X76073446Y-111701990D01*
X75925965Y-111800535D01*
X75925961Y-111800538D01*
X75800538Y-111925961D01*
X75800535Y-111925965D01*
X75701990Y-112073446D01*
X75701983Y-112073459D01*
X75634106Y-112237332D01*
X75634103Y-112237341D01*
X75599500Y-112411304D01*
X75599500Y-113588696D01*
X75634103Y-113762659D01*
X75634105Y-113762666D01*
X75647776Y-113795671D01*
X75647777Y-113795673D01*
X75701984Y-113926542D01*
X75701985Y-113926544D01*
X75761063Y-114014960D01*
X75761064Y-114014961D01*
X75800534Y-114074034D01*
X77814319Y-116087819D01*
X77847804Y-116149142D01*
X77842820Y-116218834D01*
X77800948Y-116274767D01*
X77735484Y-116299184D01*
X77726638Y-116299500D01*
X77088872Y-116299500D01*
X77026872Y-116282887D01*
X76886699Y-116201958D01*
X76886690Y-116201953D01*
X76644428Y-116101605D01*
X76644421Y-116101603D01*
X76644419Y-116101602D01*
X76391116Y-116033730D01*
X76333339Y-116026123D01*
X76131127Y-115999500D01*
X76131120Y-115999500D01*
X75868880Y-115999500D01*
X75868872Y-115999500D01*
X75637772Y-116029926D01*
X75608884Y-116033730D01*
X75440131Y-116078947D01*
X75355581Y-116101602D01*
X75355571Y-116101605D01*
X75113309Y-116201953D01*
X75113299Y-116201958D01*
X74886196Y-116333075D01*
X74678148Y-116492718D01*
X74492718Y-116678148D01*
X74333075Y-116886196D01*
X74201958Y-117113299D01*
X74201953Y-117113309D01*
X74101605Y-117355571D01*
X74101602Y-117355581D01*
X74033730Y-117608885D01*
X73999500Y-117868872D01*
X73000499Y-117868872D01*
X73000499Y-116452128D01*
X72994091Y-116392517D01*
X72975727Y-116343281D01*
X72943797Y-116257671D01*
X72943793Y-116257664D01*
X72857547Y-116142455D01*
X72857544Y-116142452D01*
X72742335Y-116056206D01*
X72742328Y-116056202D01*
X72607482Y-116005908D01*
X72607483Y-116005908D01*
X72547883Y-115999501D01*
X72547881Y-115999500D01*
X72547873Y-115999500D01*
X72547865Y-115999500D01*
X71815888Y-115999500D01*
X71748849Y-115979815D01*
X71703094Y-115927011D01*
X71694271Y-115899691D01*
X71673581Y-115795679D01*
X71673580Y-115795672D01*
X71620775Y-115668189D01*
X71600122Y-115637280D01*
X71600122Y-115637279D01*
X71544115Y-115553458D01*
X71544109Y-115553451D01*
X66602838Y-110612181D01*
X66569353Y-110550858D01*
X66574337Y-110481166D01*
X66616209Y-110425233D01*
X66681673Y-110400816D01*
X66690519Y-110400500D01*
X79588693Y-110400500D01*
X79588694Y-110400499D01*
X79646682Y-110388964D01*
X79762658Y-110365896D01*
X79762661Y-110365894D01*
X79762666Y-110365894D01*
X79926547Y-110298013D01*
X80074035Y-110199464D01*
X80199464Y-110074035D01*
X80298013Y-109926547D01*
X80365894Y-109762666D01*
X80400500Y-109588691D01*
X80400500Y-105490047D01*
X80420185Y-105423008D01*
X80436819Y-105402366D01*
X80460974Y-105378211D01*
X80491966Y-105347219D01*
X80491968Y-105347215D01*
X80491971Y-105347213D01*
X80562599Y-105250000D01*
X80612287Y-105181610D01*
X80705220Y-104999219D01*
X80768477Y-104804534D01*
X80800500Y-104602352D01*
X80800500Y-104397648D01*
X80768477Y-104195465D01*
X80737296Y-104099500D01*
X80705220Y-104000781D01*
X80705218Y-104000778D01*
X80705218Y-104000776D01*
X80619125Y-103831811D01*
X80612287Y-103818390D01*
X80580092Y-103774077D01*
X80491971Y-103652786D01*
X80347213Y-103508028D01*
X80181613Y-103387715D01*
X80181612Y-103387714D01*
X80181610Y-103387713D01*
X80124653Y-103358691D01*
X79999223Y-103294781D01*
X79804534Y-103231522D01*
X79629995Y-103203878D01*
X79602352Y-103199500D01*
X79397648Y-103199500D01*
X79373329Y-103203351D01*
X79195465Y-103231522D01*
X79000776Y-103294781D01*
X78818386Y-103387715D01*
X78652786Y-103508028D01*
X78508028Y-103652786D01*
X78387715Y-103818386D01*
X78294781Y-104000776D01*
X78231522Y-104195465D01*
X78199500Y-104397648D01*
X78199500Y-104602351D01*
X78231522Y-104804534D01*
X78294781Y-104999223D01*
X78320654Y-105050000D01*
X78387585Y-105181359D01*
X78387715Y-105181613D01*
X78508028Y-105347213D01*
X78563181Y-105402366D01*
X78596666Y-105463689D01*
X78599500Y-105490047D01*
X78599500Y-108475500D01*
X78579815Y-108542539D01*
X78527011Y-108588294D01*
X78475500Y-108599500D01*
X70911951Y-108599500D01*
X70844912Y-108579815D01*
X70799157Y-108527011D01*
X70789213Y-108457853D01*
X70797390Y-108428047D01*
X70814053Y-108387819D01*
X70865894Y-108262666D01*
X70900500Y-108088691D01*
X70900500Y-107911308D01*
X70900500Y-107911305D01*
X70865895Y-107737339D01*
X70865894Y-107737338D01*
X70865894Y-107737334D01*
X70798012Y-107573453D01*
X70798011Y-107573452D01*
X70798008Y-107573446D01*
X70699463Y-107425964D01*
X70699460Y-107425960D01*
X70230186Y-106956687D01*
X70214458Y-106927883D01*
X70197719Y-106899671D01*
X70197800Y-106897378D01*
X70196701Y-106895364D01*
X70199042Y-106862629D01*
X70200213Y-106829846D01*
X70201521Y-106827961D01*
X70201685Y-106825673D01*
X70221347Y-106799406D01*
X70240061Y-106772454D01*
X70242692Y-106770892D01*
X70243556Y-106769739D01*
X70270415Y-106754445D01*
X70377864Y-106709939D01*
X70425316Y-106700500D01*
X70448996Y-106700500D01*
X70540040Y-106682389D01*
X70584328Y-106673580D01*
X70660362Y-106642086D01*
X70711807Y-106620777D01*
X70711808Y-106620776D01*
X70711811Y-106620775D01*
X70826543Y-106544114D01*
X71533837Y-105836817D01*
X71595160Y-105803333D01*
X71621518Y-105800499D01*
X72727871Y-105800499D01*
X72727872Y-105800499D01*
X72787483Y-105794091D01*
X72922331Y-105743796D01*
X73037546Y-105657546D01*
X73123796Y-105542331D01*
X73174091Y-105407483D01*
X73180500Y-105347873D01*
X73180499Y-103652128D01*
X73174091Y-103592517D01*
X73162453Y-103561315D01*
X73123797Y-103457671D01*
X73123793Y-103457664D01*
X73037547Y-103342455D01*
X73037544Y-103342452D01*
X72922335Y-103256206D01*
X72922328Y-103256202D01*
X72787482Y-103205908D01*
X72787483Y-103205908D01*
X72727883Y-103199501D01*
X72727881Y-103199500D01*
X72727873Y-103199500D01*
X72727864Y-103199500D01*
X71032129Y-103199500D01*
X71032123Y-103199501D01*
X70972516Y-103205908D01*
X70837671Y-103256202D01*
X70837664Y-103256206D01*
X70722455Y-103342452D01*
X70722452Y-103342455D01*
X70636206Y-103457664D01*
X70636202Y-103457671D01*
X70585908Y-103592517D01*
X70581437Y-103634107D01*
X70579501Y-103652123D01*
X70579500Y-103652135D01*
X70579500Y-104758480D01*
X70559815Y-104825519D01*
X70543181Y-104846161D01*
X70218292Y-105171049D01*
X70156969Y-105204534D01*
X70106420Y-105204985D01*
X70078846Y-105199500D01*
X70078842Y-105199500D01*
X69921158Y-105199500D01*
X69921153Y-105199500D01*
X69818048Y-105220009D01*
X69748456Y-105213782D01*
X69693279Y-105170919D01*
X69670035Y-105105029D01*
X69683373Y-105042096D01*
X69705217Y-104999225D01*
X69705218Y-104999223D01*
X69705220Y-104999219D01*
X69768477Y-104804534D01*
X69800500Y-104602352D01*
X69800500Y-104397648D01*
X69768477Y-104195465D01*
X69737296Y-104099500D01*
X69705220Y-104000781D01*
X69705218Y-104000778D01*
X69705218Y-104000776D01*
X69619125Y-103831811D01*
X69612287Y-103818390D01*
X69580092Y-103774077D01*
X69491971Y-103652786D01*
X69347213Y-103508028D01*
X69181613Y-103387715D01*
X69181612Y-103387714D01*
X69181610Y-103387713D01*
X69124653Y-103358691D01*
X68999223Y-103294781D01*
X68804534Y-103231522D01*
X68629995Y-103203878D01*
X68602352Y-103199500D01*
X68397648Y-103199500D01*
X68373329Y-103203351D01*
X68195465Y-103231522D01*
X68000776Y-103294781D01*
X67818386Y-103387715D01*
X67652786Y-103508028D01*
X67508028Y-103652786D01*
X67387715Y-103818386D01*
X67294781Y-104000776D01*
X67231522Y-104195465D01*
X67199500Y-104397648D01*
X67199500Y-104602351D01*
X67231522Y-104804534D01*
X67294781Y-104999223D01*
X67320654Y-105050000D01*
X67387585Y-105181359D01*
X67387715Y-105181613D01*
X67508028Y-105347213D01*
X67563181Y-105402366D01*
X67596666Y-105463689D01*
X67599500Y-105490047D01*
X67599500Y-106588696D01*
X67634103Y-106762659D01*
X67634106Y-106762669D01*
X67648698Y-106797895D01*
X67648699Y-106797898D01*
X67701984Y-106926542D01*
X67701985Y-106926544D01*
X67761063Y-107014960D01*
X67800537Y-107074038D01*
X67800540Y-107074041D01*
X69114320Y-108387819D01*
X69147805Y-108449142D01*
X69142821Y-108518833D01*
X69100950Y-108574767D01*
X69035485Y-108599184D01*
X69026639Y-108599500D01*
X59024500Y-108599500D01*
X58957461Y-108579815D01*
X58911706Y-108527011D01*
X58900500Y-108475500D01*
X58900500Y-105524500D01*
X58920185Y-105457461D01*
X58972989Y-105411706D01*
X59024500Y-105400500D01*
X59497209Y-105400500D01*
X59564248Y-105420185D01*
X59610003Y-105472989D01*
X59613391Y-105481167D01*
X59636202Y-105542328D01*
X59636206Y-105542335D01*
X59722452Y-105657544D01*
X59722455Y-105657547D01*
X59837664Y-105743793D01*
X59837671Y-105743797D01*
X59972517Y-105794091D01*
X59972516Y-105794091D01*
X59979444Y-105794835D01*
X60032127Y-105800500D01*
X61727872Y-105800499D01*
X61787483Y-105794091D01*
X61922331Y-105743796D01*
X62037546Y-105657546D01*
X62123796Y-105542331D01*
X62174091Y-105407483D01*
X62180500Y-105347873D01*
X62180499Y-104524360D01*
X62200183Y-104457322D01*
X62216813Y-104436685D01*
X63716681Y-102936819D01*
X63778004Y-102903334D01*
X63804362Y-102900500D01*
X69588693Y-102900500D01*
X69588694Y-102900499D01*
X69762666Y-102865895D01*
X69844606Y-102831953D01*
X69926547Y-102798013D01*
X70014959Y-102738936D01*
X70074036Y-102699464D01*
X71836681Y-100936819D01*
X71898004Y-100903334D01*
X71924362Y-100900500D01*
X76088693Y-100900500D01*
X76088694Y-100900499D01*
X76146682Y-100888964D01*
X76262658Y-100865896D01*
X76262661Y-100865894D01*
X76262666Y-100865894D01*
X76426547Y-100798013D01*
X76574035Y-100699464D01*
X76699464Y-100574035D01*
X76699466Y-100574033D01*
X76798009Y-100426553D01*
X76798009Y-100426552D01*
X76798013Y-100426547D01*
X76865894Y-100262666D01*
X76900500Y-100088691D01*
X76900500Y-98024500D01*
X76920185Y-97957461D01*
X76972989Y-97911706D01*
X77024500Y-97900500D01*
X81205832Y-97900500D01*
X81272871Y-97920185D01*
X81318626Y-97972989D01*
X81328570Y-98042147D01*
X81308933Y-98093392D01*
X81290610Y-98120812D01*
X81290602Y-98120827D01*
X81230264Y-98266498D01*
X81230261Y-98266510D01*
X81199500Y-98421153D01*
X81199500Y-98578846D01*
X81230261Y-98733489D01*
X81230264Y-98733501D01*
X81290602Y-98879172D01*
X81290609Y-98879185D01*
X81378210Y-99010288D01*
X81378213Y-99010292D01*
X81489707Y-99121786D01*
X81489711Y-99121789D01*
X81620814Y-99209390D01*
X81620827Y-99209397D01*
X81765185Y-99269191D01*
X81805414Y-99296071D01*
X83763181Y-101253838D01*
X83796666Y-101315161D01*
X83799500Y-101341519D01*
X83799500Y-103338255D01*
X83779815Y-103405294D01*
X83748385Y-103438573D01*
X83652787Y-103508028D01*
X83652782Y-103508032D01*
X83508028Y-103652786D01*
X83387715Y-103818386D01*
X83294781Y-104000776D01*
X83231522Y-104195465D01*
X83199500Y-104397648D01*
X83199500Y-104602351D01*
X83231522Y-104804534D01*
X83294781Y-104999223D01*
X83320654Y-105050000D01*
X83387585Y-105181359D01*
X83387715Y-105181613D01*
X83508028Y-105347213D01*
X83652784Y-105491969D01*
X83748385Y-105561426D01*
X83791051Y-105616755D01*
X83799500Y-105661744D01*
X83799500Y-110658480D01*
X83779815Y-110725519D01*
X83763181Y-110746161D01*
X81305412Y-113203929D01*
X81265184Y-113230809D01*
X81120823Y-113290604D01*
X81120814Y-113290609D01*
X80989711Y-113378210D01*
X80989707Y-113378213D01*
X80878213Y-113489707D01*
X80878210Y-113489711D01*
X80790609Y-113620814D01*
X80790602Y-113620827D01*
X80730264Y-113766498D01*
X80730261Y-113766510D01*
X80699500Y-113921153D01*
X80699500Y-114078846D01*
X80730261Y-114233489D01*
X80730264Y-114233501D01*
X80790602Y-114379172D01*
X80790609Y-114379185D01*
X80878210Y-114510288D01*
X80878213Y-114510292D01*
X80989707Y-114621786D01*
X80989711Y-114621789D01*
X81120814Y-114709390D01*
X81120827Y-114709397D01*
X81266498Y-114769735D01*
X81266503Y-114769737D01*
X81421153Y-114800499D01*
X81421156Y-114800500D01*
X81421158Y-114800500D01*
X81578844Y-114800500D01*
X81578845Y-114800499D01*
X81733497Y-114769737D01*
X81879179Y-114709394D01*
X82010289Y-114621789D01*
X82121789Y-114510289D01*
X82209394Y-114379179D01*
X82209395Y-114379176D01*
X82209397Y-114379173D01*
X82269192Y-114234812D01*
X82296069Y-114194586D01*
X85044114Y-111446543D01*
X85120775Y-111331811D01*
X85173580Y-111204328D01*
X85200500Y-111068994D01*
X85200500Y-110931006D01*
X85200500Y-105661744D01*
X85200985Y-105660091D01*
X85200544Y-105658424D01*
X85210795Y-105626681D01*
X85220185Y-105594705D01*
X85221656Y-105593051D01*
X85222017Y-105591936D01*
X85229700Y-105584015D01*
X85245835Y-105565891D01*
X85248663Y-105563569D01*
X85347219Y-105491966D01*
X85491966Y-105347219D01*
X85491968Y-105347215D01*
X85491971Y-105347213D01*
X85562599Y-105250000D01*
X85612287Y-105181610D01*
X85705220Y-104999219D01*
X85768477Y-104804534D01*
X85800500Y-104602352D01*
X85800500Y-104397682D01*
X88200000Y-104397682D01*
X88200000Y-104602317D01*
X88232009Y-104804417D01*
X88295244Y-104999031D01*
X88388141Y-105181350D01*
X88388147Y-105181359D01*
X88420523Y-105225921D01*
X88420524Y-105225922D01*
X89100000Y-104546446D01*
X89100000Y-104552661D01*
X89127259Y-104654394D01*
X89179920Y-104745606D01*
X89254394Y-104820080D01*
X89345606Y-104872741D01*
X89447339Y-104900000D01*
X89453553Y-104900000D01*
X88774076Y-105579474D01*
X88818650Y-105611859D01*
X89000968Y-105704755D01*
X89195582Y-105767990D01*
X89397683Y-105800000D01*
X89602317Y-105800000D01*
X89804417Y-105767990D01*
X89999031Y-105704755D01*
X90181349Y-105611859D01*
X90199983Y-105598321D01*
X90225921Y-105579474D01*
X89546447Y-104900000D01*
X89552661Y-104900000D01*
X89654394Y-104872741D01*
X89745606Y-104820080D01*
X89820080Y-104745606D01*
X89872741Y-104654394D01*
X89900000Y-104552661D01*
X89900000Y-104546447D01*
X90579474Y-105225921D01*
X90611859Y-105181349D01*
X90704755Y-104999031D01*
X90767990Y-104804417D01*
X90800000Y-104602317D01*
X90800000Y-104552155D01*
X96325000Y-104552155D01*
X96325000Y-105250000D01*
X97349722Y-105250000D01*
X97305667Y-105326306D01*
X97275000Y-105440756D01*
X97275000Y-105559244D01*
X97305667Y-105673694D01*
X97349722Y-105750000D01*
X96325000Y-105750000D01*
X96325000Y-106447844D01*
X96331401Y-106507372D01*
X96331403Y-106507379D01*
X96381645Y-106642086D01*
X96381649Y-106642093D01*
X96467809Y-106757187D01*
X96467812Y-106757190D01*
X96582906Y-106843350D01*
X96582913Y-106843354D01*
X96717620Y-106893596D01*
X96717627Y-106893598D01*
X96777155Y-106899999D01*
X96777172Y-106900000D01*
X97475000Y-106900000D01*
X97475000Y-105875277D01*
X97551306Y-105919333D01*
X97665756Y-105950000D01*
X97784244Y-105950000D01*
X97898694Y-105919333D01*
X97975000Y-105875277D01*
X97975000Y-106900000D01*
X98672828Y-106900000D01*
X98672844Y-106899999D01*
X98732372Y-106893598D01*
X98732379Y-106893596D01*
X98867086Y-106843354D01*
X98867093Y-106843350D01*
X98982187Y-106757190D01*
X98982190Y-106757187D01*
X99068350Y-106642093D01*
X99068354Y-106642086D01*
X99098213Y-106562031D01*
X99140084Y-106506097D01*
X99205548Y-106481680D01*
X99273821Y-106496531D01*
X99302076Y-106517683D01*
X99352636Y-106568243D01*
X99352641Y-106568247D01*
X99497618Y-106673578D01*
X99530978Y-106697815D01*
X99647501Y-106757187D01*
X99727393Y-106797895D01*
X99727396Y-106797896D01*
X99832221Y-106831955D01*
X99937049Y-106866015D01*
X100154778Y-106900500D01*
X100154779Y-106900500D01*
X100375221Y-106900500D01*
X100375222Y-106900500D01*
X100592951Y-106866015D01*
X100802606Y-106797895D01*
X100999022Y-106697815D01*
X101177365Y-106568242D01*
X101333242Y-106412365D01*
X101450034Y-106251613D01*
X101505362Y-106208949D01*
X101550351Y-106200500D01*
X103568996Y-106200500D01*
X103660040Y-106182389D01*
X103704328Y-106173580D01*
X103768069Y-106147177D01*
X103831807Y-106120777D01*
X103831808Y-106120776D01*
X103831811Y-106120775D01*
X103946543Y-106044114D01*
X106044114Y-103946543D01*
X106120775Y-103831811D01*
X106126227Y-103818650D01*
X106173578Y-103704332D01*
X106173580Y-103704328D01*
X106187548Y-103634106D01*
X106198909Y-103576992D01*
X106200500Y-103568995D01*
X106200500Y-97841518D01*
X106209144Y-97812077D01*
X106215668Y-97782091D01*
X106219422Y-97777075D01*
X106220185Y-97774479D01*
X106236814Y-97753842D01*
X106704338Y-97286318D01*
X106765660Y-97252834D01*
X106792018Y-97250000D01*
X107764314Y-97250000D01*
X107759920Y-97254394D01*
X107707259Y-97345606D01*
X107680000Y-97447339D01*
X107680000Y-97552661D01*
X107707259Y-97654394D01*
X107759920Y-97745606D01*
X107764314Y-97750000D01*
X106803391Y-97750000D01*
X106812009Y-97804413D01*
X106875244Y-97999029D01*
X106968140Y-98181349D01*
X107088417Y-98346894D01*
X107088417Y-98346895D01*
X107233104Y-98491582D01*
X107398650Y-98611859D01*
X107580968Y-98704754D01*
X107775578Y-98767988D01*
X107830000Y-98776607D01*
X107830000Y-97815686D01*
X107834394Y-97820080D01*
X107925606Y-97872741D01*
X108027339Y-97900000D01*
X108132661Y-97900000D01*
X108234394Y-97872741D01*
X108325606Y-97820080D01*
X108330000Y-97815686D01*
X108330000Y-98776606D01*
X108384421Y-98767988D01*
X108579031Y-98704754D01*
X108761349Y-98611859D01*
X108926894Y-98491582D01*
X108926895Y-98491582D01*
X109071582Y-98346895D01*
X109071582Y-98346894D01*
X109191859Y-98181349D01*
X109284755Y-97999029D01*
X109347990Y-97804413D01*
X109356609Y-97750000D01*
X108395686Y-97750000D01*
X108400080Y-97745606D01*
X108452741Y-97654394D01*
X108480000Y-97552661D01*
X108480000Y-97447339D01*
X108452741Y-97345606D01*
X108400080Y-97254394D01*
X108395686Y-97250000D01*
X109356609Y-97250000D01*
X109347990Y-97195586D01*
X109284755Y-97000970D01*
X109191859Y-96818650D01*
X109071582Y-96653105D01*
X109071582Y-96653104D01*
X108926895Y-96508417D01*
X108761349Y-96388140D01*
X108579029Y-96295244D01*
X108384413Y-96232009D01*
X108330000Y-96223390D01*
X108330000Y-97184314D01*
X108325606Y-97179920D01*
X108234394Y-97127259D01*
X108132661Y-97100000D01*
X108027339Y-97100000D01*
X107925606Y-97127259D01*
X107834394Y-97179920D01*
X107830000Y-97184314D01*
X107830000Y-96212017D01*
X107838644Y-96182576D01*
X107845168Y-96152590D01*
X107848922Y-96147574D01*
X107849685Y-96144978D01*
X107866314Y-96124342D01*
X108194586Y-95796069D01*
X108234810Y-95769192D01*
X108289435Y-95746566D01*
X108379173Y-95709397D01*
X108379176Y-95709395D01*
X108379179Y-95709394D01*
X108510289Y-95621789D01*
X108621789Y-95510289D01*
X108709394Y-95379179D01*
X108769737Y-95233497D01*
X108800500Y-95078842D01*
X108800500Y-94921158D01*
X108800500Y-94921155D01*
X108800499Y-94921153D01*
X108785659Y-94846547D01*
X108769737Y-94766503D01*
X108712382Y-94628034D01*
X108709397Y-94620827D01*
X108709390Y-94620814D01*
X108621789Y-94489711D01*
X108621786Y-94489707D01*
X108510292Y-94378213D01*
X108510288Y-94378210D01*
X108379185Y-94290609D01*
X108379172Y-94290602D01*
X108233501Y-94230264D01*
X108233489Y-94230261D01*
X108078845Y-94199500D01*
X108078842Y-94199500D01*
X107921158Y-94199500D01*
X107921155Y-94199500D01*
X107766510Y-94230261D01*
X107766498Y-94230264D01*
X107620827Y-94290602D01*
X107620814Y-94290609D01*
X107489711Y-94378210D01*
X107489707Y-94378213D01*
X107378213Y-94489707D01*
X107378210Y-94489711D01*
X107290609Y-94620814D01*
X107290604Y-94620823D01*
X107230809Y-94765184D01*
X107203929Y-94805412D01*
X104955887Y-97053454D01*
X104879222Y-97168192D01*
X104826421Y-97295667D01*
X104826418Y-97295679D01*
X104806136Y-97397646D01*
X104806136Y-97397649D01*
X104799500Y-97431006D01*
X104799500Y-103158481D01*
X104779815Y-103225520D01*
X104763181Y-103246162D01*
X103246162Y-104763181D01*
X103184839Y-104796666D01*
X103158481Y-104799500D01*
X101550351Y-104799500D01*
X101483312Y-104779815D01*
X101450035Y-104748388D01*
X101333242Y-104587635D01*
X101177365Y-104431758D01*
X101177363Y-104431756D01*
X101177358Y-104431752D01*
X100999025Y-104302187D01*
X100999024Y-104302186D01*
X100999022Y-104302185D01*
X100905228Y-104254394D01*
X100802606Y-104202104D01*
X100802603Y-104202103D01*
X100592952Y-104133985D01*
X100484086Y-104116742D01*
X100375222Y-104099500D01*
X100154778Y-104099500D01*
X100082201Y-104110995D01*
X99937047Y-104133985D01*
X99727396Y-104202103D01*
X99727393Y-104202104D01*
X99530974Y-104302187D01*
X99352641Y-104431752D01*
X99352636Y-104431756D01*
X99302075Y-104482317D01*
X99240752Y-104515801D01*
X99171060Y-104510816D01*
X99115127Y-104468945D01*
X99098213Y-104437968D01*
X99068354Y-104357913D01*
X99068350Y-104357906D01*
X98982190Y-104242812D01*
X98982187Y-104242809D01*
X98867093Y-104156649D01*
X98867086Y-104156645D01*
X98732379Y-104106403D01*
X98732372Y-104106401D01*
X98672844Y-104100000D01*
X97975000Y-104100000D01*
X97975000Y-105124722D01*
X97898694Y-105080667D01*
X97784244Y-105050000D01*
X97665756Y-105050000D01*
X97551306Y-105080667D01*
X97475000Y-105124722D01*
X97475000Y-104100000D01*
X96777155Y-104100000D01*
X96717627Y-104106401D01*
X96717620Y-104106403D01*
X96582913Y-104156645D01*
X96582906Y-104156649D01*
X96467812Y-104242809D01*
X96467809Y-104242812D01*
X96381649Y-104357906D01*
X96381645Y-104357913D01*
X96331403Y-104492620D01*
X96331401Y-104492627D01*
X96325000Y-104552155D01*
X90800000Y-104552155D01*
X90800000Y-104397682D01*
X90767990Y-104195582D01*
X90704755Y-104000968D01*
X90611859Y-103818650D01*
X90579474Y-103774077D01*
X90579474Y-103774076D01*
X89900000Y-104453551D01*
X89900000Y-104447339D01*
X89872741Y-104345606D01*
X89820080Y-104254394D01*
X89745606Y-104179920D01*
X89654394Y-104127259D01*
X89552661Y-104100000D01*
X89546446Y-104100000D01*
X90225922Y-103420524D01*
X90225921Y-103420523D01*
X90181359Y-103388147D01*
X90181350Y-103388141D01*
X89999031Y-103295244D01*
X89804417Y-103232009D01*
X89602317Y-103200000D01*
X89397683Y-103200000D01*
X89195582Y-103232009D01*
X89000968Y-103295244D01*
X88818644Y-103388143D01*
X88774077Y-103420523D01*
X88774077Y-103420524D01*
X89453554Y-104100000D01*
X89447339Y-104100000D01*
X89345606Y-104127259D01*
X89254394Y-104179920D01*
X89179920Y-104254394D01*
X89127259Y-104345606D01*
X89100000Y-104447339D01*
X89100000Y-104453553D01*
X88420524Y-103774077D01*
X88420523Y-103774077D01*
X88388143Y-103818644D01*
X88295244Y-104000968D01*
X88232009Y-104195582D01*
X88200000Y-104397682D01*
X85800500Y-104397682D01*
X85800500Y-104397648D01*
X85768477Y-104195465D01*
X85737296Y-104099500D01*
X85705220Y-104000781D01*
X85705218Y-104000778D01*
X85705218Y-104000776D01*
X85619125Y-103831811D01*
X85612287Y-103818390D01*
X85580092Y-103774077D01*
X85491971Y-103652786D01*
X85398958Y-103559773D01*
X85347219Y-103508034D01*
X85248667Y-103436432D01*
X85245835Y-103434108D01*
X85228140Y-103408131D01*
X85208949Y-103383243D01*
X85208096Y-103378704D01*
X85206501Y-103376362D01*
X85206308Y-103369184D01*
X85200500Y-103338255D01*
X85200500Y-100931004D01*
X85173581Y-100795677D01*
X85173580Y-100795676D01*
X85173580Y-100795672D01*
X85173578Y-100795667D01*
X85120778Y-100668195D01*
X85120771Y-100668182D01*
X85057864Y-100574036D01*
X85057862Y-100574033D01*
X85044116Y-100553459D01*
X82796071Y-98305414D01*
X82793045Y-98301082D01*
X82790504Y-98299470D01*
X82779069Y-98281076D01*
X82771254Y-98269888D01*
X82769776Y-98266700D01*
X82769737Y-98266503D01*
X82709394Y-98120821D01*
X82685719Y-98085389D01*
X82681670Y-98076655D01*
X82677867Y-98051238D01*
X82670188Y-98026715D01*
X82672782Y-98017256D01*
X82671331Y-98007554D01*
X82681873Y-97984115D01*
X82688672Y-97959334D01*
X82695969Y-97952778D01*
X82699993Y-97943834D01*
X82721532Y-97929816D01*
X82740650Y-97912644D01*
X82751812Y-97910111D01*
X82758554Y-97905724D01*
X82771471Y-97905650D01*
X82794168Y-97900500D01*
X91588693Y-97900500D01*
X91588694Y-97900499D01*
X91762666Y-97865895D01*
X91844951Y-97831811D01*
X91844952Y-97831811D01*
X91926542Y-97798015D01*
X91926541Y-97798015D01*
X91926547Y-97798013D01*
X92023167Y-97733453D01*
X92074036Y-97699464D01*
X94779464Y-94994036D01*
X94832495Y-94914669D01*
X94878013Y-94846547D01*
X94916303Y-94754106D01*
X94945895Y-94682666D01*
X94980500Y-94508692D01*
X94980500Y-94331308D01*
X94980500Y-87490047D01*
X95000185Y-87423008D01*
X95016819Y-87402366D01*
X95031599Y-87387586D01*
X95071966Y-87347219D01*
X95071968Y-87347215D01*
X95071971Y-87347213D01*
X95160593Y-87225233D01*
X95192287Y-87181610D01*
X95285220Y-86999219D01*
X95348477Y-86804534D01*
X95380500Y-86602352D01*
X95380500Y-86397648D01*
X95348477Y-86195466D01*
X95285220Y-86000781D01*
X95285218Y-86000778D01*
X95285218Y-86000776D01*
X95226064Y-85884681D01*
X95192287Y-85818390D01*
X95178563Y-85799500D01*
X95071971Y-85652786D01*
X94927213Y-85508028D01*
X94761613Y-85387715D01*
X94761612Y-85387714D01*
X94761610Y-85387713D01*
X94702604Y-85357648D01*
X94579223Y-85294781D01*
X94384534Y-85231522D01*
X94209995Y-85203878D01*
X94182352Y-85199500D01*
X93977648Y-85199500D01*
X93953329Y-85203351D01*
X93775465Y-85231522D01*
X93580776Y-85294781D01*
X93398386Y-85387715D01*
X93232786Y-85508028D01*
X93088028Y-85652786D01*
X92967715Y-85818386D01*
X92874781Y-86000776D01*
X92811522Y-86195465D01*
X92779500Y-86397648D01*
X92779500Y-86602351D01*
X92811522Y-86804534D01*
X92874781Y-86999223D01*
X92923316Y-87094477D01*
X92953026Y-87152786D01*
X92967715Y-87181613D01*
X93088028Y-87347213D01*
X93143181Y-87402366D01*
X93176666Y-87463689D01*
X93179500Y-87490047D01*
X93179500Y-93995638D01*
X93159815Y-94062677D01*
X93143181Y-94083319D01*
X91163319Y-96063181D01*
X91101996Y-96096666D01*
X91075638Y-96099500D01*
X77024500Y-96099500D01*
X76957461Y-96079815D01*
X76911706Y-96027011D01*
X76900500Y-95975500D01*
X76900500Y-92294168D01*
X76920185Y-92227129D01*
X76972989Y-92181374D01*
X77042147Y-92171430D01*
X77076655Y-92181670D01*
X77085389Y-92185719D01*
X77120821Y-92209394D01*
X77266503Y-92269737D01*
X77266700Y-92269776D01*
X77269888Y-92271254D01*
X77275068Y-92275794D01*
X77305414Y-92296071D01*
X79053453Y-94044111D01*
X79053457Y-94044114D01*
X79115143Y-94085331D01*
X79168189Y-94120775D01*
X79168190Y-94120775D01*
X79168191Y-94120776D01*
X79295667Y-94173578D01*
X79295672Y-94173580D01*
X79295676Y-94173580D01*
X79295677Y-94173581D01*
X79431004Y-94200500D01*
X79431007Y-94200500D01*
X81092297Y-94200500D01*
X81159336Y-94220185D01*
X81205091Y-94272989D01*
X81215035Y-94342147D01*
X81213914Y-94348691D01*
X81199500Y-94421153D01*
X81199500Y-94578846D01*
X81230261Y-94733489D01*
X81230264Y-94733501D01*
X81290602Y-94879172D01*
X81290609Y-94879185D01*
X81378210Y-95010288D01*
X81378213Y-95010292D01*
X81489707Y-95121786D01*
X81489711Y-95121789D01*
X81620814Y-95209390D01*
X81620827Y-95209397D01*
X81727134Y-95253430D01*
X81766503Y-95269737D01*
X81921153Y-95300499D01*
X81921156Y-95300500D01*
X81921158Y-95300500D01*
X82078844Y-95300500D01*
X82078845Y-95300499D01*
X82233497Y-95269737D01*
X82379179Y-95209394D01*
X82510289Y-95121789D01*
X82621789Y-95010289D01*
X82709394Y-94879179D01*
X82769737Y-94733497D01*
X82800500Y-94578842D01*
X82800500Y-94421158D01*
X82800500Y-94421155D01*
X82800499Y-94421153D01*
X82791957Y-94378210D01*
X82769737Y-94266503D01*
X82756062Y-94233489D01*
X82709939Y-94122136D01*
X82700500Y-94074684D01*
X82700500Y-92425316D01*
X82709939Y-92377864D01*
X82753433Y-92272859D01*
X82769737Y-92233497D01*
X82800500Y-92078842D01*
X82800500Y-92078832D01*
X82800595Y-92077872D01*
X82800789Y-92077390D01*
X82801689Y-92072868D01*
X82802546Y-92073038D01*
X82806661Y-92062846D01*
X82807817Y-92046684D01*
X82819471Y-92031115D01*
X82826752Y-92013083D01*
X82839978Y-92003721D01*
X82849689Y-91990751D01*
X82867907Y-91983955D01*
X82883783Y-91972720D01*
X82899972Y-91971996D01*
X82915153Y-91966334D01*
X82934155Y-91970467D01*
X82953583Y-91969599D01*
X82968309Y-91977897D01*
X82983426Y-91981186D01*
X83011680Y-92002337D01*
X83183194Y-92173851D01*
X83216679Y-92235174D01*
X83217986Y-92280929D01*
X83199500Y-92397647D01*
X83199500Y-92602351D01*
X83231522Y-92804534D01*
X83294781Y-92999223D01*
X83358691Y-93124653D01*
X83387585Y-93181359D01*
X83387715Y-93181613D01*
X83508028Y-93347213D01*
X83652786Y-93491971D01*
X83772875Y-93579219D01*
X83818390Y-93612287D01*
X83908352Y-93658125D01*
X84000776Y-93705218D01*
X84000778Y-93705218D01*
X84000781Y-93705220D01*
X84105137Y-93739127D01*
X84195465Y-93768477D01*
X84296557Y-93784488D01*
X84397648Y-93800500D01*
X84397649Y-93800500D01*
X84602351Y-93800500D01*
X84602352Y-93800500D01*
X84804534Y-93768477D01*
X84999219Y-93705220D01*
X85181610Y-93612287D01*
X85310654Y-93518532D01*
X85347213Y-93491971D01*
X85347215Y-93491968D01*
X85347219Y-93491966D01*
X85491966Y-93347219D01*
X85491968Y-93347215D01*
X85491971Y-93347213D01*
X85576938Y-93230264D01*
X85612287Y-93181610D01*
X85705220Y-92999219D01*
X85768477Y-92804534D01*
X85800500Y-92602352D01*
X85800500Y-92397682D01*
X88200000Y-92397682D01*
X88200000Y-92602317D01*
X88232009Y-92804417D01*
X88295244Y-92999031D01*
X88388141Y-93181350D01*
X88388147Y-93181359D01*
X88420523Y-93225921D01*
X88420524Y-93225922D01*
X89100000Y-92546446D01*
X89100000Y-92552661D01*
X89127259Y-92654394D01*
X89179920Y-92745606D01*
X89254394Y-92820080D01*
X89345606Y-92872741D01*
X89447339Y-92900000D01*
X89453553Y-92900000D01*
X88774076Y-93579474D01*
X88818650Y-93611859D01*
X89000968Y-93704755D01*
X89195582Y-93767990D01*
X89397683Y-93800000D01*
X89602317Y-93800000D01*
X89804417Y-93767990D01*
X89999031Y-93704755D01*
X90181349Y-93611859D01*
X90225921Y-93579474D01*
X89546447Y-92900000D01*
X89552661Y-92900000D01*
X89654394Y-92872741D01*
X89745606Y-92820080D01*
X89820080Y-92745606D01*
X89872741Y-92654394D01*
X89900000Y-92552661D01*
X89900000Y-92546447D01*
X90579474Y-93225921D01*
X90611859Y-93181349D01*
X90704755Y-92999031D01*
X90767990Y-92804417D01*
X90800000Y-92602317D01*
X90800000Y-92397682D01*
X90767990Y-92195582D01*
X90704755Y-92000968D01*
X90611859Y-91818650D01*
X90579474Y-91774077D01*
X90579474Y-91774076D01*
X89900000Y-92453551D01*
X89900000Y-92447339D01*
X89872741Y-92345606D01*
X89820080Y-92254394D01*
X89745606Y-92179920D01*
X89654394Y-92127259D01*
X89552661Y-92100000D01*
X89546446Y-92100000D01*
X90225922Y-91420524D01*
X90225921Y-91420523D01*
X90181359Y-91388147D01*
X90181350Y-91388141D01*
X89999031Y-91295244D01*
X89804417Y-91232009D01*
X89602317Y-91200000D01*
X89397683Y-91200000D01*
X89195582Y-91232009D01*
X89000968Y-91295244D01*
X88818644Y-91388143D01*
X88774077Y-91420523D01*
X88774077Y-91420524D01*
X89453554Y-92100000D01*
X89447339Y-92100000D01*
X89345606Y-92127259D01*
X89254394Y-92179920D01*
X89179920Y-92254394D01*
X89127259Y-92345606D01*
X89100000Y-92447339D01*
X89100000Y-92453553D01*
X88420524Y-91774077D01*
X88420523Y-91774077D01*
X88388143Y-91818644D01*
X88295244Y-92000968D01*
X88232009Y-92195582D01*
X88200000Y-92397682D01*
X85800500Y-92397682D01*
X85800500Y-92397648D01*
X85778834Y-92260858D01*
X85768477Y-92195465D01*
X85730585Y-92078846D01*
X85705220Y-92000781D01*
X85705218Y-92000778D01*
X85705218Y-92000776D01*
X85645762Y-91884089D01*
X85612287Y-91818390D01*
X85580092Y-91774077D01*
X85491971Y-91652786D01*
X85347213Y-91508028D01*
X85181613Y-91387715D01*
X85181612Y-91387714D01*
X85181610Y-91387713D01*
X85124653Y-91358691D01*
X84999223Y-91294781D01*
X84804534Y-91231522D01*
X84629995Y-91203878D01*
X84602352Y-91199500D01*
X84397648Y-91199500D01*
X84280929Y-91217986D01*
X84211636Y-91209031D01*
X84173851Y-91183194D01*
X83256546Y-90265888D01*
X83256545Y-90265887D01*
X83141807Y-90189222D01*
X83014332Y-90136421D01*
X83014322Y-90136418D01*
X82878996Y-90109500D01*
X82878994Y-90109500D01*
X82878993Y-90109500D01*
X81371744Y-90109500D01*
X81370219Y-90109052D01*
X81368685Y-90109462D01*
X81336810Y-90099242D01*
X81304705Y-90089815D01*
X81303178Y-90088459D01*
X81302152Y-90088130D01*
X81294845Y-90081056D01*
X81276056Y-90064366D01*
X81273654Y-90061452D01*
X81201966Y-89962781D01*
X81147147Y-89907962D01*
X81143359Y-89903366D01*
X81131879Y-89876494D01*
X81117881Y-89850858D01*
X81118317Y-89844748D01*
X81115911Y-89839114D01*
X81120780Y-89810308D01*
X81122865Y-89781166D01*
X81126537Y-89776260D01*
X81127558Y-89770222D01*
X81147226Y-89748623D01*
X81164737Y-89725233D01*
X81170476Y-89723092D01*
X81174601Y-89718563D01*
X81202825Y-89711026D01*
X81230201Y-89700816D01*
X81239047Y-89700500D01*
X81574684Y-89700500D01*
X81622136Y-89709939D01*
X81715529Y-89748623D01*
X81766503Y-89769737D01*
X81921153Y-89800499D01*
X81921156Y-89800500D01*
X81921158Y-89800500D01*
X82078844Y-89800500D01*
X82078845Y-89800499D01*
X82233497Y-89769737D01*
X82379179Y-89709394D01*
X82510289Y-89621789D01*
X82621789Y-89510289D01*
X82709394Y-89379179D01*
X82718206Y-89357906D01*
X82726998Y-89336679D01*
X82769737Y-89233497D01*
X82800500Y-89078842D01*
X82800500Y-88921158D01*
X82800500Y-88921155D01*
X82800499Y-88921153D01*
X82786546Y-88851006D01*
X82769737Y-88766503D01*
X82769735Y-88766498D01*
X82709397Y-88620827D01*
X82709390Y-88620814D01*
X82621789Y-88489711D01*
X82621786Y-88489707D01*
X82510292Y-88378213D01*
X82510288Y-88378210D01*
X82379185Y-88290609D01*
X82379172Y-88290602D01*
X82233501Y-88230264D01*
X82233489Y-88230261D01*
X82078845Y-88199500D01*
X82078842Y-88199500D01*
X81921158Y-88199500D01*
X81921155Y-88199500D01*
X81766510Y-88230261D01*
X81766498Y-88230264D01*
X81680886Y-88265726D01*
X81611417Y-88273195D01*
X81548938Y-88241920D01*
X81513286Y-88181830D01*
X81510961Y-88170563D01*
X81510500Y-88167652D01*
X81510500Y-88167648D01*
X81478477Y-87965466D01*
X81415220Y-87770781D01*
X81415218Y-87770778D01*
X81415218Y-87770776D01*
X81376845Y-87695466D01*
X81322287Y-87588390D01*
X81274508Y-87522627D01*
X81201971Y-87422786D01*
X81057213Y-87278028D01*
X80891614Y-87157715D01*
X80881930Y-87152781D01*
X80798917Y-87110483D01*
X80748123Y-87062511D01*
X80731328Y-86994690D01*
X80753865Y-86928555D01*
X80798917Y-86889516D01*
X80891610Y-86842287D01*
X80947823Y-86801446D01*
X81057213Y-86721971D01*
X81057215Y-86721968D01*
X81057219Y-86721966D01*
X81201966Y-86577219D01*
X81201966Y-86577218D01*
X81201969Y-86577216D01*
X81201971Y-86577213D01*
X81292966Y-86451967D01*
X81322287Y-86411610D01*
X81415220Y-86229219D01*
X81478477Y-86034534D01*
X81510500Y-85832352D01*
X81510500Y-85627648D01*
X81484862Y-85465777D01*
X81478477Y-85425465D01*
X81456953Y-85359222D01*
X81454958Y-85289380D01*
X81491038Y-85229547D01*
X81553739Y-85198719D01*
X81623153Y-85206683D01*
X81662565Y-85233222D01*
X82603194Y-86173851D01*
X82636679Y-86235174D01*
X82637986Y-86280929D01*
X82619500Y-86397647D01*
X82619500Y-86602351D01*
X82651522Y-86804534D01*
X82714781Y-86999223D01*
X82763316Y-87094477D01*
X82793026Y-87152786D01*
X82807715Y-87181613D01*
X82928028Y-87347213D01*
X83072786Y-87491971D01*
X83179498Y-87569500D01*
X83238390Y-87612287D01*
X83335455Y-87661744D01*
X83420776Y-87705218D01*
X83420778Y-87705218D01*
X83420781Y-87705220D01*
X83525137Y-87739127D01*
X83615465Y-87768477D01*
X83716557Y-87784488D01*
X83817648Y-87800500D01*
X83817649Y-87800500D01*
X84022351Y-87800500D01*
X84022352Y-87800500D01*
X84224534Y-87768477D01*
X84419219Y-87705220D01*
X84601610Y-87612287D01*
X84710491Y-87533181D01*
X84767213Y-87491971D01*
X84767215Y-87491968D01*
X84767219Y-87491966D01*
X84911966Y-87347219D01*
X84911968Y-87347215D01*
X84911971Y-87347213D01*
X85000593Y-87225233D01*
X85032287Y-87181610D01*
X85125220Y-86999219D01*
X85188477Y-86804534D01*
X85220500Y-86602352D01*
X85220500Y-86397648D01*
X85202013Y-86280929D01*
X85210967Y-86211636D01*
X85236802Y-86173853D01*
X89091336Y-82319319D01*
X89152657Y-82285836D01*
X89154675Y-82285415D01*
X89233497Y-82269737D01*
X89379179Y-82209394D01*
X89510289Y-82121789D01*
X89621789Y-82010289D01*
X89709394Y-81879179D01*
X89769737Y-81733497D01*
X89800500Y-81578842D01*
X89800500Y-81421158D01*
X89800500Y-81421155D01*
X89800499Y-81421153D01*
X89786086Y-81348691D01*
X89792313Y-81279100D01*
X89835176Y-81223922D01*
X89901066Y-81200678D01*
X89907703Y-81200500D01*
X92078481Y-81200500D01*
X92145520Y-81220185D01*
X92166162Y-81236819D01*
X97103194Y-86173851D01*
X97136679Y-86235174D01*
X97137986Y-86280929D01*
X97119500Y-86397647D01*
X97119500Y-86602351D01*
X97151522Y-86804534D01*
X97178549Y-86887713D01*
X97213431Y-86995069D01*
X97219500Y-87033384D01*
X97219500Y-96338255D01*
X97199815Y-96405294D01*
X97168385Y-96438573D01*
X97072787Y-96508028D01*
X97072782Y-96508032D01*
X96928028Y-96652786D01*
X96807715Y-96818386D01*
X96714781Y-97000776D01*
X96651522Y-97195465D01*
X96619500Y-97397646D01*
X96619500Y-97602351D01*
X96651522Y-97804534D01*
X96714781Y-97999223D01*
X96776714Y-98120771D01*
X96803620Y-98173578D01*
X96807715Y-98181613D01*
X96928028Y-98347213D01*
X97072786Y-98491971D01*
X97192362Y-98578846D01*
X97238390Y-98612287D01*
X97330499Y-98659219D01*
X97420776Y-98705218D01*
X97420778Y-98705218D01*
X97420781Y-98705220D01*
X97507784Y-98733489D01*
X97615465Y-98768477D01*
X97716557Y-98784488D01*
X97817648Y-98800500D01*
X97817649Y-98800500D01*
X98022351Y-98800500D01*
X98022352Y-98800500D01*
X98224534Y-98768477D01*
X98419219Y-98705220D01*
X98601610Y-98612287D01*
X98694590Y-98544732D01*
X98767213Y-98491971D01*
X98767215Y-98491968D01*
X98767219Y-98491966D01*
X98911966Y-98347219D01*
X98911968Y-98347215D01*
X98911971Y-98347213D01*
X98981425Y-98251616D01*
X99032287Y-98181610D01*
X99125220Y-97999219D01*
X99188477Y-97804534D01*
X99220500Y-97602352D01*
X99220500Y-97397648D01*
X99204349Y-97295679D01*
X99188477Y-97195465D01*
X99157458Y-97100000D01*
X99125220Y-97000781D01*
X99120437Y-96991395D01*
X99107538Y-96922728D01*
X99133812Y-96857986D01*
X99143230Y-96847425D01*
X104253837Y-91736819D01*
X104315160Y-91703334D01*
X104341518Y-91700500D01*
X108568996Y-91700500D01*
X108660040Y-91682389D01*
X108704328Y-91673580D01*
X108785663Y-91639890D01*
X108831807Y-91620777D01*
X108831808Y-91620776D01*
X108831811Y-91620775D01*
X108946543Y-91544114D01*
X111044114Y-89446543D01*
X111120775Y-89331811D01*
X111133047Y-89302185D01*
X111171480Y-89209397D01*
X111173580Y-89204328D01*
X111180309Y-89170500D01*
X111190908Y-89117215D01*
X111200500Y-89068995D01*
X111200500Y-86258020D01*
X111220185Y-86190981D01*
X111272989Y-86145226D01*
X111277048Y-86143459D01*
X111331807Y-86120777D01*
X111331808Y-86120776D01*
X111331811Y-86120775D01*
X111446543Y-86044114D01*
X113412319Y-84078338D01*
X113420264Y-84073999D01*
X113425690Y-84066752D01*
X113450449Y-84057517D01*
X113473642Y-84044853D01*
X113482671Y-84045498D01*
X113491154Y-84042335D01*
X113516974Y-84047951D01*
X113543334Y-84049837D01*
X113552387Y-84055655D01*
X113559427Y-84057187D01*
X113587681Y-84078338D01*
X113763181Y-84253838D01*
X113796666Y-84315161D01*
X113799500Y-84341519D01*
X113799500Y-85423000D01*
X113779815Y-85490039D01*
X113727011Y-85535794D01*
X113675501Y-85547000D01*
X113452130Y-85547000D01*
X113452123Y-85547001D01*
X113392516Y-85553408D01*
X113257671Y-85603702D01*
X113257664Y-85603706D01*
X113142455Y-85689952D01*
X113142452Y-85689955D01*
X113056206Y-85805164D01*
X113056202Y-85805171D01*
X113005908Y-85940017D01*
X113000394Y-85991308D01*
X112999501Y-85999623D01*
X112999500Y-85999635D01*
X112999500Y-88000370D01*
X112999501Y-88000376D01*
X113005908Y-88059983D01*
X113056202Y-88194828D01*
X113056206Y-88194835D01*
X113142452Y-88310044D01*
X113142455Y-88310047D01*
X113257664Y-88396293D01*
X113257669Y-88396296D01*
X113285539Y-88406690D01*
X113341473Y-88448561D01*
X113365891Y-88514024D01*
X113351040Y-88582298D01*
X113342525Y-88595759D01*
X113209783Y-88778461D01*
X113105950Y-88982244D01*
X113035278Y-89199750D01*
X113035278Y-89199753D01*
X113007013Y-89378210D01*
X112999500Y-89425646D01*
X112999500Y-89654354D01*
X113013751Y-89744328D01*
X113035278Y-89880246D01*
X113035278Y-89880249D01*
X113105950Y-90097755D01*
X113176117Y-90235465D01*
X113209783Y-90301538D01*
X113344214Y-90486566D01*
X113505934Y-90648286D01*
X113590864Y-90709991D01*
X113633529Y-90765321D01*
X113639508Y-90834935D01*
X113606902Y-90896730D01*
X113590864Y-90910627D01*
X113506257Y-90972097D01*
X113344597Y-91133757D01*
X113210211Y-91318723D01*
X113106417Y-91522429D01*
X113035765Y-91739871D01*
X113021491Y-91830000D01*
X114009252Y-91830000D01*
X113987482Y-91867708D01*
X113950000Y-92007591D01*
X113950000Y-92152409D01*
X113987482Y-92292292D01*
X114009252Y-92330000D01*
X113021491Y-92330000D01*
X113035765Y-92420128D01*
X113106417Y-92637570D01*
X113210211Y-92841276D01*
X113344597Y-93026242D01*
X113506257Y-93187902D01*
X113691223Y-93322288D01*
X113894929Y-93426082D01*
X114112371Y-93496734D01*
X114250000Y-93518532D01*
X114250000Y-92570747D01*
X114287708Y-92592518D01*
X114427591Y-92630000D01*
X114572409Y-92630000D01*
X114712292Y-92592518D01*
X114750000Y-92570747D01*
X114750000Y-93518531D01*
X114887628Y-93496734D01*
X115105070Y-93426082D01*
X115308776Y-93322288D01*
X115493742Y-93187902D01*
X115655402Y-93026242D01*
X115789788Y-92841276D01*
X115893582Y-92637570D01*
X115964234Y-92420128D01*
X115978509Y-92330000D01*
X114990748Y-92330000D01*
X115012518Y-92292292D01*
X115050000Y-92152409D01*
X115050000Y-92007591D01*
X115012518Y-91867708D01*
X114990748Y-91830000D01*
X115978509Y-91830000D01*
X115964234Y-91739871D01*
X115893582Y-91522429D01*
X115789788Y-91318723D01*
X115655402Y-91133757D01*
X115493742Y-90972097D01*
X115409135Y-90910626D01*
X115366470Y-90855296D01*
X115360491Y-90785682D01*
X115393097Y-90723887D01*
X115409125Y-90709999D01*
X115494066Y-90648286D01*
X115655786Y-90486566D01*
X115790217Y-90301538D01*
X115894048Y-90097758D01*
X115906841Y-90058384D01*
X115964721Y-89880249D01*
X115964721Y-89880248D01*
X115964722Y-89880245D01*
X116000500Y-89654354D01*
X116000500Y-89541519D01*
X116020185Y-89474480D01*
X116036819Y-89453838D01*
X119044112Y-86446545D01*
X119044114Y-86446543D01*
X119120775Y-86331811D01*
X119130962Y-86307219D01*
X119163270Y-86229219D01*
X119173580Y-86204328D01*
X119200500Y-86068994D01*
X119200500Y-85931006D01*
X119200500Y-84431007D01*
X119193381Y-84395220D01*
X119191483Y-84385680D01*
X119180869Y-84332315D01*
X119173580Y-84295672D01*
X119156252Y-84253838D01*
X119120777Y-84168192D01*
X119044112Y-84053454D01*
X119044111Y-84053453D01*
X115902838Y-80912181D01*
X115869353Y-80850858D01*
X115874337Y-80781166D01*
X115916209Y-80725233D01*
X115981673Y-80700816D01*
X115990519Y-80700500D01*
X118568996Y-80700500D01*
X118660040Y-80682389D01*
X118704328Y-80673580D01*
X118768069Y-80647177D01*
X118831807Y-80620777D01*
X118831808Y-80620776D01*
X118831811Y-80620775D01*
X118946543Y-80544114D01*
X120044114Y-79446543D01*
X120120775Y-79331811D01*
X120135333Y-79296666D01*
X120149202Y-79263181D01*
X120173580Y-79204328D01*
X120190192Y-79120814D01*
X120200500Y-79068996D01*
X120200500Y-74148506D01*
X120191087Y-74101189D01*
X120185686Y-74074035D01*
X120173580Y-74013172D01*
X120120775Y-73885689D01*
X120044114Y-73770957D01*
X120044112Y-73770954D01*
X119553323Y-73280165D01*
X119519838Y-73218842D01*
X119524822Y-73149150D01*
X119526423Y-73145078D01*
X119553502Y-73079707D01*
X119617982Y-72839065D01*
X119650500Y-72592065D01*
X119650500Y-72342935D01*
X119617982Y-72095935D01*
X119553502Y-71855293D01*
X119490968Y-71704322D01*
X119458169Y-71625138D01*
X119458162Y-71625123D01*
X119333599Y-71409373D01*
X119181939Y-71211725D01*
X119181933Y-71211718D01*
X119005781Y-71035566D01*
X119005774Y-71035560D01*
X118808126Y-70883900D01*
X118592376Y-70759337D01*
X118592361Y-70759330D01*
X118362207Y-70663998D01*
X118121561Y-70599517D01*
X117874575Y-70567001D01*
X117874570Y-70567000D01*
X117874565Y-70567000D01*
X117625435Y-70567000D01*
X117625429Y-70567000D01*
X117625424Y-70567001D01*
X117378438Y-70599517D01*
X117137792Y-70663998D01*
X116907638Y-70759330D01*
X116907623Y-70759337D01*
X116691873Y-70883900D01*
X116494225Y-71035560D01*
X116494218Y-71035566D01*
X116318066Y-71211718D01*
X116318060Y-71211725D01*
X116166400Y-71409373D01*
X116041837Y-71625123D01*
X116041830Y-71625138D01*
X115946498Y-71855292D01*
X115882017Y-72095938D01*
X115849501Y-72342924D01*
X115849500Y-72342941D01*
X115849500Y-72592058D01*
X115849501Y-72592075D01*
X115882017Y-72839061D01*
X115946498Y-73079707D01*
X116041830Y-73309861D01*
X116041837Y-73309876D01*
X116166400Y-73525626D01*
X116318060Y-73723274D01*
X116318066Y-73723281D01*
X116494218Y-73899433D01*
X116494225Y-73899439D01*
X116691873Y-74051099D01*
X116907623Y-74175662D01*
X116907638Y-74175669D01*
X117006825Y-74216753D01*
X117137793Y-74271002D01*
X117378435Y-74335482D01*
X117625435Y-74368000D01*
X117625442Y-74368000D01*
X117874558Y-74368000D01*
X117874565Y-74368000D01*
X118121565Y-74335482D01*
X118362207Y-74271002D01*
X118427532Y-74243942D01*
X118497001Y-74236474D01*
X118559481Y-74267749D01*
X118562666Y-74270823D01*
X118763181Y-74471338D01*
X118796666Y-74532661D01*
X118799500Y-74559019D01*
X118799500Y-78658481D01*
X118779815Y-78725520D01*
X118763181Y-78746162D01*
X118246162Y-79263181D01*
X118184839Y-79296666D01*
X118158481Y-79299500D01*
X112095348Y-79299500D01*
X112028309Y-79279815D01*
X111984863Y-79231795D01*
X111976869Y-79216108D01*
X111948870Y-79161155D01*
X111881913Y-79068996D01*
X111800798Y-78957350D01*
X111800794Y-78957345D01*
X111622654Y-78779205D01*
X111622649Y-78779201D01*
X111418848Y-78631132D01*
X111418847Y-78631131D01*
X111418845Y-78631130D01*
X111306788Y-78574034D01*
X111194383Y-78516760D01*
X110954785Y-78438910D01*
X110705962Y-78399500D01*
X110454038Y-78399500D01*
X110329626Y-78419205D01*
X110205214Y-78438910D01*
X109965616Y-78516760D01*
X109741151Y-78631132D01*
X109537350Y-78779201D01*
X109537345Y-78779205D01*
X109359205Y-78957345D01*
X109359201Y-78957350D01*
X109211132Y-79161151D01*
X109096760Y-79385616D01*
X109018910Y-79625214D01*
X108979500Y-79874038D01*
X108979500Y-80125961D01*
X109018910Y-80374785D01*
X109096760Y-80614383D01*
X109211132Y-80838848D01*
X109359201Y-81042649D01*
X109359205Y-81042654D01*
X109537345Y-81220794D01*
X109537350Y-81220798D01*
X109639817Y-81295244D01*
X109741155Y-81368870D01*
X109867981Y-81433491D01*
X109965616Y-81483239D01*
X109965618Y-81483239D01*
X109965621Y-81483241D01*
X110205215Y-81561090D01*
X110454038Y-81600500D01*
X110454039Y-81600500D01*
X110705961Y-81600500D01*
X110705962Y-81600500D01*
X110954785Y-81561090D01*
X111194379Y-81483241D01*
X111418845Y-81368870D01*
X111622656Y-81220793D01*
X111800793Y-81042656D01*
X111948870Y-80838845D01*
X111984863Y-80768205D01*
X112032838Y-80717409D01*
X112095348Y-80700500D01*
X113658481Y-80700500D01*
X113725520Y-80720185D01*
X113746162Y-80736819D01*
X117763181Y-84753838D01*
X117796666Y-84815161D01*
X117799500Y-84841519D01*
X117799500Y-85658480D01*
X117779815Y-85725519D01*
X117763181Y-85746161D01*
X116212180Y-87297162D01*
X116150857Y-87330647D01*
X116081165Y-87325663D01*
X116025232Y-87283791D01*
X116000815Y-87218327D01*
X116000499Y-87209481D01*
X116000499Y-85999629D01*
X116000498Y-85999623D01*
X116000497Y-85999616D01*
X115994091Y-85940017D01*
X115982038Y-85907702D01*
X115943797Y-85805171D01*
X115943793Y-85805164D01*
X115857547Y-85689955D01*
X115857544Y-85689952D01*
X115742335Y-85603706D01*
X115742328Y-85603702D01*
X115607482Y-85553408D01*
X115607483Y-85553408D01*
X115547883Y-85547001D01*
X115547881Y-85547000D01*
X115547873Y-85547000D01*
X115547865Y-85547000D01*
X115324500Y-85547000D01*
X115257461Y-85527315D01*
X115211706Y-85474511D01*
X115200500Y-85423000D01*
X115200500Y-83931005D01*
X115198158Y-83919234D01*
X115198157Y-83919231D01*
X115198156Y-83919225D01*
X115173580Y-83795672D01*
X115171225Y-83789986D01*
X115120777Y-83668192D01*
X115044112Y-83553454D01*
X113946545Y-82455887D01*
X113831807Y-82379222D01*
X113704332Y-82326421D01*
X113704322Y-82326418D01*
X113568996Y-82299500D01*
X113568994Y-82299500D01*
X113431006Y-82299500D01*
X113431004Y-82299500D01*
X113295677Y-82326418D01*
X113295667Y-82326421D01*
X113168192Y-82379222D01*
X113053454Y-82455887D01*
X113053453Y-82455888D01*
X110746162Y-84763181D01*
X110684839Y-84796666D01*
X110658481Y-84799500D01*
X110431005Y-84799500D01*
X110295677Y-84826418D01*
X110295667Y-84826421D01*
X110168195Y-84879221D01*
X110168182Y-84879228D01*
X110053458Y-84955885D01*
X110053454Y-84955888D01*
X109955888Y-85053454D01*
X109955885Y-85053458D01*
X109879228Y-85168182D01*
X109879221Y-85168195D01*
X109826421Y-85295667D01*
X109826418Y-85295677D01*
X109799500Y-85431004D01*
X109799500Y-85584321D01*
X109779815Y-85651360D01*
X109727011Y-85697115D01*
X109657853Y-85707059D01*
X109594297Y-85678034D01*
X109575182Y-85657207D01*
X109571967Y-85652782D01*
X109427213Y-85508028D01*
X109261613Y-85387715D01*
X109261612Y-85387714D01*
X109261610Y-85387713D01*
X109202604Y-85357648D01*
X109079223Y-85294781D01*
X108884534Y-85231522D01*
X108709995Y-85203878D01*
X108682352Y-85199500D01*
X108477648Y-85199500D01*
X108453329Y-85203351D01*
X108275465Y-85231522D01*
X108080776Y-85294781D01*
X107898386Y-85387715D01*
X107732786Y-85508028D01*
X107588028Y-85652786D01*
X107467715Y-85818386D01*
X107374781Y-86000776D01*
X107311522Y-86195465D01*
X107279500Y-86397648D01*
X107279500Y-86602351D01*
X107311522Y-86804534D01*
X107374781Y-86999223D01*
X107423316Y-87094477D01*
X107453026Y-87152786D01*
X107467715Y-87181613D01*
X107588028Y-87347213D01*
X107732784Y-87491969D01*
X107828385Y-87561426D01*
X107871051Y-87616755D01*
X107879500Y-87661744D01*
X107879500Y-88578480D01*
X107859815Y-88645519D01*
X107843181Y-88666161D01*
X107305412Y-89203929D01*
X107265184Y-89230809D01*
X107120823Y-89290604D01*
X107120814Y-89290609D01*
X106989711Y-89378210D01*
X106989707Y-89378213D01*
X106878213Y-89489707D01*
X106878210Y-89489711D01*
X106790609Y-89620814D01*
X106790602Y-89620827D01*
X106730264Y-89766498D01*
X106730261Y-89766510D01*
X106699500Y-89921153D01*
X106699500Y-90078846D01*
X106713914Y-90151309D01*
X106707687Y-90220900D01*
X106664824Y-90276078D01*
X106598934Y-90299322D01*
X106592297Y-90299500D01*
X103931003Y-90299500D01*
X103822590Y-90321065D01*
X103822589Y-90321065D01*
X103809131Y-90323742D01*
X103795673Y-90326419D01*
X103795671Y-90326420D01*
X103742866Y-90348292D01*
X103742864Y-90348293D01*
X103742863Y-90348292D01*
X103668191Y-90379223D01*
X103580753Y-90437648D01*
X103560310Y-90451308D01*
X103555778Y-90454335D01*
X103553452Y-90455890D01*
X98832181Y-95177162D01*
X98770858Y-95210647D01*
X98701166Y-95205663D01*
X98645233Y-95163791D01*
X98620816Y-95098327D01*
X98620500Y-95089481D01*
X98620500Y-87890860D01*
X98640185Y-87823821D01*
X98692989Y-87778066D01*
X98719886Y-87769959D01*
X98719803Y-87769613D01*
X98724528Y-87768477D01*
X98724534Y-87768477D01*
X98919219Y-87705220D01*
X99101610Y-87612287D01*
X99210491Y-87533181D01*
X99267213Y-87491971D01*
X99267215Y-87491968D01*
X99267219Y-87491966D01*
X99411966Y-87347219D01*
X99411968Y-87347215D01*
X99411971Y-87347213D01*
X99500593Y-87225233D01*
X99532287Y-87181610D01*
X99625220Y-86999219D01*
X99688477Y-86804534D01*
X99720500Y-86602352D01*
X99720500Y-86397648D01*
X99688477Y-86195466D01*
X99625220Y-86000781D01*
X99625218Y-86000778D01*
X99625218Y-86000776D01*
X99566064Y-85884681D01*
X99532287Y-85818390D01*
X99518563Y-85799500D01*
X99411971Y-85652786D01*
X99267213Y-85508028D01*
X99101613Y-85387715D01*
X99101612Y-85387714D01*
X99101610Y-85387713D01*
X99042604Y-85357648D01*
X98919223Y-85294781D01*
X98724534Y-85231522D01*
X98549995Y-85203878D01*
X98522352Y-85199500D01*
X98317648Y-85199500D01*
X98200929Y-85217986D01*
X98131636Y-85209031D01*
X98093851Y-85183194D01*
X96906543Y-83995886D01*
X92866546Y-79955888D01*
X92866545Y-79955887D01*
X92751807Y-79879222D01*
X92624332Y-79826421D01*
X92624322Y-79826418D01*
X92488996Y-79799500D01*
X92488994Y-79799500D01*
X92488993Y-79799500D01*
X80907703Y-79799500D01*
X80840664Y-79779815D01*
X80794909Y-79727011D01*
X80784965Y-79657853D01*
X80786086Y-79651309D01*
X80800499Y-79578846D01*
X80800500Y-79578844D01*
X80800500Y-79421155D01*
X80800499Y-79421153D01*
X80792148Y-79379172D01*
X80769737Y-79266503D01*
X80743985Y-79204332D01*
X80709397Y-79120827D01*
X80709390Y-79120814D01*
X80621790Y-78989712D01*
X80621784Y-78989705D01*
X80553232Y-78921153D01*
X95699500Y-78921153D01*
X95699500Y-79078846D01*
X95730261Y-79233489D01*
X95730264Y-79233501D01*
X95790602Y-79379172D01*
X95790609Y-79379185D01*
X95878210Y-79510288D01*
X95878213Y-79510292D01*
X95989707Y-79621786D01*
X95989711Y-79621789D01*
X96120814Y-79709390D01*
X96120827Y-79709397D01*
X96265185Y-79769191D01*
X96305414Y-79796071D01*
X97053453Y-80544111D01*
X97053454Y-80544112D01*
X97168192Y-80620777D01*
X97295667Y-80673578D01*
X97295672Y-80673580D01*
X97295676Y-80673580D01*
X97295677Y-80673581D01*
X97431003Y-80700500D01*
X97431006Y-80700500D01*
X97431007Y-80700500D01*
X98695501Y-80700500D01*
X98762540Y-80720185D01*
X98808295Y-80772989D01*
X98819501Y-80824500D01*
X98819501Y-81147876D01*
X98825908Y-81207483D01*
X98876202Y-81342328D01*
X98876206Y-81342335D01*
X98962452Y-81457544D01*
X98962455Y-81457547D01*
X99077664Y-81543793D01*
X99077671Y-81543797D01*
X99212517Y-81594091D01*
X99212516Y-81594091D01*
X99219444Y-81594835D01*
X99272127Y-81600500D01*
X101567872Y-81600499D01*
X101627483Y-81594091D01*
X101762331Y-81543796D01*
X101877546Y-81457546D01*
X101963796Y-81342331D01*
X102014091Y-81207483D01*
X102020500Y-81147873D01*
X102020499Y-79521517D01*
X102040184Y-79454479D01*
X102056813Y-79433842D01*
X108286338Y-73204319D01*
X108347661Y-73170834D01*
X108374019Y-73168000D01*
X110725500Y-73168000D01*
X110792539Y-73187685D01*
X110838294Y-73240489D01*
X110849500Y-73292000D01*
X110849500Y-73667515D01*
X110860000Y-73770295D01*
X110860001Y-73770297D01*
X110869139Y-73797873D01*
X110915186Y-73936835D01*
X110915187Y-73936837D01*
X111007286Y-74086151D01*
X111007289Y-74086155D01*
X111131344Y-74210210D01*
X111131348Y-74210213D01*
X111280662Y-74302312D01*
X111280664Y-74302313D01*
X111280666Y-74302314D01*
X111447203Y-74357499D01*
X111549992Y-74368000D01*
X111549997Y-74368000D01*
X113950003Y-74368000D01*
X113950008Y-74368000D01*
X114052797Y-74357499D01*
X114219334Y-74302314D01*
X114368655Y-74210211D01*
X114492711Y-74086155D01*
X114584814Y-73936834D01*
X114639999Y-73770297D01*
X114650500Y-73667508D01*
X114650500Y-71267492D01*
X114639999Y-71164703D01*
X114584814Y-70998166D01*
X114514333Y-70883900D01*
X114492713Y-70848848D01*
X114492710Y-70848844D01*
X114368655Y-70724789D01*
X114368651Y-70724786D01*
X114219337Y-70632687D01*
X114219335Y-70632686D01*
X114119237Y-70599517D01*
X114052797Y-70577501D01*
X114052795Y-70577500D01*
X113950015Y-70567000D01*
X113950008Y-70567000D01*
X111549992Y-70567000D01*
X111549984Y-70567000D01*
X111447204Y-70577500D01*
X111447203Y-70577501D01*
X111280664Y-70632686D01*
X111280662Y-70632687D01*
X111131348Y-70724786D01*
X111131344Y-70724789D01*
X111007289Y-70848844D01*
X111007286Y-70848848D01*
X110915187Y-70998162D01*
X110915186Y-70998164D01*
X110860001Y-71164703D01*
X110860000Y-71164704D01*
X110849500Y-71267484D01*
X110849500Y-71643000D01*
X110829815Y-71710039D01*
X110777011Y-71755794D01*
X110725500Y-71767000D01*
X107963504Y-71767000D01*
X107828177Y-71793918D01*
X107828167Y-71793921D01*
X107700692Y-71846722D01*
X107585954Y-71923387D01*
X101146160Y-78363181D01*
X101084837Y-78396666D01*
X101058479Y-78399500D01*
X99272129Y-78399500D01*
X99272123Y-78399501D01*
X99212516Y-78405908D01*
X99077671Y-78456202D01*
X99077664Y-78456206D01*
X98962455Y-78542452D01*
X98962452Y-78542455D01*
X98876206Y-78657664D01*
X98876202Y-78657671D01*
X98825908Y-78792517D01*
X98819501Y-78852116D01*
X98819500Y-78852135D01*
X98819500Y-79175500D01*
X98799815Y-79242539D01*
X98747011Y-79288294D01*
X98695500Y-79299500D01*
X97841519Y-79299500D01*
X97774480Y-79279815D01*
X97753838Y-79263181D01*
X97296071Y-78805414D01*
X97269191Y-78765185D01*
X97209397Y-78620827D01*
X97209390Y-78620814D01*
X97121789Y-78489711D01*
X97121786Y-78489707D01*
X97010292Y-78378213D01*
X97010288Y-78378210D01*
X96879185Y-78290609D01*
X96879172Y-78290602D01*
X96733501Y-78230264D01*
X96733489Y-78230261D01*
X96578845Y-78199500D01*
X96578842Y-78199500D01*
X96421158Y-78199500D01*
X96421155Y-78199500D01*
X96266510Y-78230261D01*
X96266498Y-78230264D01*
X96120827Y-78290602D01*
X96120814Y-78290609D01*
X95989711Y-78378210D01*
X95989707Y-78378213D01*
X95878213Y-78489707D01*
X95878210Y-78489711D01*
X95790609Y-78620814D01*
X95790602Y-78620827D01*
X95730264Y-78766498D01*
X95730261Y-78766510D01*
X95699500Y-78921153D01*
X80553232Y-78921153D01*
X80510292Y-78878213D01*
X80510288Y-78878210D01*
X80379185Y-78790609D01*
X80379172Y-78790602D01*
X80234814Y-78730808D01*
X80194585Y-78703928D01*
X76986819Y-75496162D01*
X76953334Y-75434839D01*
X76950500Y-75408481D01*
X76950500Y-74024500D01*
X76970185Y-73957461D01*
X77022989Y-73911706D01*
X77074500Y-73900500D01*
X77450003Y-73900500D01*
X77450008Y-73900500D01*
X77552797Y-73889999D01*
X77719334Y-73834814D01*
X77868655Y-73742711D01*
X77992711Y-73618655D01*
X78084814Y-73469334D01*
X78139999Y-73302797D01*
X78150500Y-73200008D01*
X78150500Y-70799992D01*
X78139999Y-70697203D01*
X78084814Y-70530666D01*
X78014333Y-70416400D01*
X77992713Y-70381348D01*
X77992710Y-70381344D01*
X77868655Y-70257289D01*
X77868651Y-70257286D01*
X77719337Y-70165187D01*
X77719335Y-70165186D01*
X77608632Y-70128503D01*
X77552797Y-70110001D01*
X77552795Y-70110000D01*
X77450015Y-70099500D01*
X77450008Y-70099500D01*
X75049992Y-70099500D01*
X75049984Y-70099500D01*
X74947204Y-70110000D01*
X74947203Y-70110001D01*
X74780664Y-70165186D01*
X74780662Y-70165187D01*
X74631348Y-70257286D01*
X74631344Y-70257289D01*
X74507289Y-70381344D01*
X74507286Y-70381348D01*
X74415187Y-70530662D01*
X74415186Y-70530664D01*
X74360001Y-70697203D01*
X74360000Y-70697204D01*
X74349500Y-70799984D01*
X74349500Y-71175500D01*
X74329815Y-71242539D01*
X74277011Y-71288294D01*
X74225500Y-71299500D01*
X72931004Y-71299500D01*
X72795677Y-71326418D01*
X72795667Y-71326421D01*
X72668192Y-71379222D01*
X72553454Y-71455887D01*
X72553453Y-71455888D01*
X69746162Y-74263181D01*
X69684839Y-74296666D01*
X69658481Y-74299500D01*
X65169071Y-74299500D01*
X65102032Y-74279815D01*
X65056277Y-74227011D01*
X65046333Y-74157853D01*
X65069805Y-74101189D01*
X65151293Y-73992335D01*
X65151292Y-73992335D01*
X65151296Y-73992331D01*
X65201591Y-73857483D01*
X65208000Y-73797873D01*
X65208000Y-72824500D01*
X65227685Y-72757461D01*
X65280489Y-72711706D01*
X65332000Y-72700500D01*
X66068996Y-72700500D01*
X66160040Y-72682389D01*
X66204328Y-72673580D01*
X66268069Y-72647177D01*
X66331807Y-72620777D01*
X66331808Y-72620776D01*
X66331811Y-72620775D01*
X66446543Y-72544114D01*
X72753838Y-66236819D01*
X72815161Y-66203334D01*
X72841519Y-66200500D01*
X76226638Y-66200500D01*
X76293677Y-66220185D01*
X76339432Y-66272989D01*
X76349376Y-66342147D01*
X76320351Y-66405703D01*
X76314319Y-66412181D01*
X76300538Y-66425961D01*
X76300535Y-66425965D01*
X76201990Y-66573446D01*
X76201983Y-66573459D01*
X76134106Y-66737332D01*
X76134103Y-66737341D01*
X76099500Y-66911304D01*
X76099500Y-67838696D01*
X76131585Y-67999998D01*
X76134105Y-68012666D01*
X76168046Y-68094606D01*
X76201987Y-68176547D01*
X76221146Y-68205220D01*
X76225780Y-68212156D01*
X76225783Y-68212161D01*
X76300532Y-68324031D01*
X76300538Y-68324039D01*
X79378503Y-71402002D01*
X79411988Y-71463325D01*
X79410596Y-71521776D01*
X79382902Y-71625138D01*
X79382019Y-71628432D01*
X79382016Y-71628445D01*
X79349501Y-71875424D01*
X79349500Y-71875441D01*
X79349500Y-72124558D01*
X79349501Y-72124575D01*
X79378249Y-72342941D01*
X79382018Y-72371565D01*
X79437819Y-72579815D01*
X79446498Y-72612207D01*
X79541830Y-72842361D01*
X79541837Y-72842376D01*
X79666400Y-73058126D01*
X79818060Y-73255774D01*
X79818066Y-73255781D01*
X79994218Y-73431933D01*
X79994225Y-73431939D01*
X80191873Y-73583599D01*
X80407623Y-73708162D01*
X80407638Y-73708169D01*
X80506825Y-73749253D01*
X80637793Y-73803502D01*
X80878435Y-73867982D01*
X81125435Y-73900500D01*
X81125442Y-73900500D01*
X81374558Y-73900500D01*
X81374565Y-73900500D01*
X81621565Y-73867982D01*
X81862207Y-73803502D01*
X82092373Y-73708164D01*
X82308127Y-73583599D01*
X82505776Y-73431938D01*
X82681938Y-73255776D01*
X82833599Y-73058127D01*
X82958164Y-72842373D01*
X83053502Y-72612207D01*
X83117982Y-72371565D01*
X83150500Y-72124565D01*
X83150500Y-71875441D01*
X84349500Y-71875441D01*
X84349500Y-72124558D01*
X84349501Y-72124575D01*
X84378249Y-72342941D01*
X84382018Y-72371565D01*
X84437819Y-72579815D01*
X84446498Y-72612207D01*
X84541830Y-72842361D01*
X84541837Y-72842376D01*
X84666400Y-73058126D01*
X84818060Y-73255774D01*
X84818066Y-73255781D01*
X84994218Y-73431933D01*
X84994225Y-73431939D01*
X85191873Y-73583599D01*
X85407623Y-73708162D01*
X85407638Y-73708169D01*
X85506825Y-73749253D01*
X85637793Y-73803502D01*
X85878435Y-73867982D01*
X86125435Y-73900500D01*
X86125442Y-73900500D01*
X86374558Y-73900500D01*
X86374565Y-73900500D01*
X86621565Y-73867982D01*
X86862207Y-73803502D01*
X87092373Y-73708164D01*
X87308127Y-73583599D01*
X87505776Y-73431938D01*
X87681938Y-73255776D01*
X87833599Y-73058127D01*
X87958164Y-72842373D01*
X88053502Y-72612207D01*
X88117982Y-72371565D01*
X88150500Y-72124565D01*
X88150500Y-71875435D01*
X88117982Y-71628435D01*
X88053502Y-71387793D01*
X87996633Y-71250500D01*
X87958169Y-71157638D01*
X87958162Y-71157623D01*
X87833599Y-70941873D01*
X87681939Y-70744225D01*
X87681933Y-70744218D01*
X87505781Y-70568066D01*
X87505774Y-70568060D01*
X87308126Y-70416400D01*
X87092376Y-70291837D01*
X87092361Y-70291830D01*
X86862207Y-70196498D01*
X86621565Y-70132018D01*
X86621564Y-70132017D01*
X86621561Y-70132017D01*
X86374575Y-70099501D01*
X86374570Y-70099500D01*
X86374565Y-70099500D01*
X86125435Y-70099500D01*
X86125429Y-70099500D01*
X86125424Y-70099501D01*
X85878438Y-70132017D01*
X85637792Y-70196498D01*
X85407638Y-70291830D01*
X85407623Y-70291837D01*
X85191873Y-70416400D01*
X84994225Y-70568060D01*
X84994218Y-70568066D01*
X84818066Y-70744218D01*
X84818060Y-70744225D01*
X84666400Y-70941873D01*
X84541837Y-71157623D01*
X84541830Y-71157638D01*
X84446498Y-71387792D01*
X84382017Y-71628438D01*
X84349501Y-71875424D01*
X84349500Y-71875441D01*
X83150500Y-71875441D01*
X83150500Y-71875435D01*
X83117982Y-71628435D01*
X83053502Y-71387793D01*
X82996633Y-71250500D01*
X82958169Y-71157638D01*
X82958162Y-71157623D01*
X82833599Y-70941873D01*
X82681939Y-70744225D01*
X82681933Y-70744218D01*
X82505781Y-70568066D01*
X82505774Y-70568060D01*
X82308126Y-70416400D01*
X82092376Y-70291837D01*
X82092361Y-70291830D01*
X81862207Y-70196498D01*
X81621565Y-70132018D01*
X81621564Y-70132017D01*
X81621561Y-70132017D01*
X81374575Y-70099501D01*
X81374570Y-70099500D01*
X81374565Y-70099500D01*
X81125435Y-70099500D01*
X81125429Y-70099500D01*
X81125424Y-70099501D01*
X80878445Y-70132016D01*
X80878438Y-70132017D01*
X80878435Y-70132018D01*
X80839256Y-70142516D01*
X80777983Y-70158934D01*
X80771776Y-70160597D01*
X80701926Y-70158934D01*
X80652002Y-70128503D01*
X77936819Y-67413319D01*
X77903334Y-67351996D01*
X77900500Y-67325638D01*
X77900500Y-66911306D01*
X77900499Y-66911304D01*
X77865896Y-66737341D01*
X77865893Y-66737332D01*
X77798016Y-66573459D01*
X77798009Y-66573446D01*
X77699464Y-66425965D01*
X77699461Y-66425961D01*
X77685681Y-66412181D01*
X77652196Y-66350858D01*
X77657180Y-66281166D01*
X77699052Y-66225233D01*
X77764516Y-66200816D01*
X77773362Y-66200500D01*
X87068996Y-66200500D01*
X87160040Y-66182389D01*
X87204328Y-66173580D01*
X87268069Y-66147177D01*
X87331807Y-66120777D01*
X87331808Y-66120776D01*
X87331811Y-66120775D01*
X87446543Y-66044114D01*
X87704114Y-65786543D01*
X87780775Y-65671811D01*
X87833580Y-65544329D01*
X87833580Y-65544325D01*
X87833582Y-65544322D01*
X87838934Y-65517411D01*
X87838934Y-65517409D01*
X87860500Y-65408993D01*
X87860500Y-63515347D01*
X87880185Y-63448308D01*
X87928206Y-63404862D01*
X87998845Y-63368870D01*
X88202656Y-63220793D01*
X88380793Y-63042656D01*
X88528870Y-62838845D01*
X88643241Y-62614379D01*
X88721090Y-62374785D01*
X88760500Y-62125962D01*
X88760500Y-61874038D01*
X88739294Y-61740148D01*
X116889500Y-61740148D01*
X116889500Y-61944852D01*
X116891248Y-61955886D01*
X116921522Y-62147034D01*
X116984781Y-62341723D01*
X117077715Y-62524113D01*
X117198028Y-62689713D01*
X117342786Y-62834471D01*
X117497749Y-62947056D01*
X117508390Y-62954787D01*
X117624607Y-63014003D01*
X117690776Y-63047718D01*
X117690778Y-63047718D01*
X117690781Y-63047720D01*
X117795137Y-63081627D01*
X117885465Y-63110977D01*
X117986557Y-63126988D01*
X118087648Y-63143000D01*
X118087649Y-63143000D01*
X118292351Y-63143000D01*
X118292352Y-63143000D01*
X118494534Y-63110977D01*
X118689219Y-63047720D01*
X118871610Y-62954787D01*
X119031188Y-62838848D01*
X119037213Y-62834471D01*
X119037215Y-62834468D01*
X119037219Y-62834466D01*
X119181966Y-62689719D01*
X119181968Y-62689715D01*
X119181971Y-62689713D01*
X119236703Y-62614379D01*
X119302287Y-62524110D01*
X119395220Y-62341719D01*
X119458477Y-62147034D01*
X119490500Y-61944852D01*
X119490500Y-61740148D01*
X119458477Y-61537966D01*
X119395220Y-61343281D01*
X119395218Y-61343278D01*
X119395218Y-61343276D01*
X119361503Y-61277107D01*
X119302287Y-61160890D01*
X119233740Y-61066542D01*
X119181971Y-60995286D01*
X119037213Y-60850528D01*
X118871613Y-60730215D01*
X118871612Y-60730214D01*
X118871610Y-60730213D01*
X118779395Y-60683227D01*
X118689223Y-60637281D01*
X118494534Y-60574022D01*
X118319995Y-60546378D01*
X118292352Y-60542000D01*
X118087648Y-60542000D01*
X118063329Y-60545851D01*
X117885465Y-60574022D01*
X117690776Y-60637281D01*
X117508386Y-60730215D01*
X117342786Y-60850528D01*
X117198028Y-60995286D01*
X117077715Y-61160886D01*
X116984781Y-61343276D01*
X116921522Y-61537965D01*
X116891128Y-61729867D01*
X116889500Y-61740148D01*
X88739294Y-61740148D01*
X88721090Y-61625215D01*
X88717770Y-61614998D01*
X88666027Y-61455749D01*
X88643241Y-61385621D01*
X88643239Y-61385618D01*
X88643239Y-61385616D01*
X88601747Y-61304184D01*
X88528870Y-61161155D01*
X88452390Y-61055889D01*
X88380798Y-60957350D01*
X88380794Y-60957345D01*
X88202654Y-60779205D01*
X88202649Y-60779201D01*
X87998848Y-60631132D01*
X87998847Y-60631131D01*
X87998845Y-60631130D01*
X87928747Y-60595413D01*
X87774383Y-60516760D01*
X87534785Y-60438910D01*
X87285962Y-60399500D01*
X87034038Y-60399500D01*
X86909626Y-60419205D01*
X86785214Y-60438910D01*
X86545616Y-60516760D01*
X86321151Y-60631132D01*
X86117350Y-60779201D01*
X86117345Y-60779205D01*
X85939205Y-60957345D01*
X85939201Y-60957350D01*
X85791132Y-61161151D01*
X85676760Y-61385616D01*
X85598910Y-61625214D01*
X85559500Y-61874038D01*
X85559500Y-62125961D01*
X85598910Y-62374785D01*
X85676760Y-62614383D01*
X85755413Y-62768747D01*
X85788901Y-62834471D01*
X85791132Y-62838848D01*
X85939201Y-63042649D01*
X85939205Y-63042654D01*
X86117345Y-63220794D01*
X86117350Y-63220798D01*
X86321153Y-63368869D01*
X86391794Y-63404862D01*
X86442590Y-63452836D01*
X86459500Y-63515347D01*
X86459500Y-64675500D01*
X86439815Y-64742539D01*
X86387011Y-64788294D01*
X86335500Y-64799500D01*
X78009662Y-64799500D01*
X77942623Y-64779815D01*
X77896868Y-64727011D01*
X77886924Y-64657853D01*
X77888045Y-64651308D01*
X77900500Y-64588693D01*
X77900500Y-63724499D01*
X77920185Y-63657460D01*
X77972989Y-63611705D01*
X78024500Y-63600499D01*
X78147871Y-63600499D01*
X78147872Y-63600499D01*
X78207483Y-63594091D01*
X78342331Y-63543796D01*
X78457546Y-63457546D01*
X78543796Y-63342331D01*
X78594091Y-63207483D01*
X78600500Y-63147873D01*
X78600499Y-60852128D01*
X78594091Y-60792517D01*
X78589124Y-60779201D01*
X78543797Y-60657671D01*
X78543793Y-60657664D01*
X78457547Y-60542455D01*
X78457544Y-60542452D01*
X78342335Y-60456206D01*
X78342328Y-60456202D01*
X78207482Y-60405908D01*
X78207483Y-60405908D01*
X78147883Y-60399501D01*
X78147881Y-60399500D01*
X78147873Y-60399500D01*
X78147864Y-60399500D01*
X75852129Y-60399500D01*
X75852123Y-60399501D01*
X75792516Y-60405908D01*
X75657671Y-60456202D01*
X75657664Y-60456206D01*
X75542455Y-60542452D01*
X75542452Y-60542455D01*
X75456206Y-60657664D01*
X75456202Y-60657671D01*
X75405908Y-60792517D01*
X75399672Y-60850528D01*
X75399501Y-60852123D01*
X75399500Y-60852135D01*
X75399500Y-63147870D01*
X75399501Y-63147876D01*
X75405908Y-63207483D01*
X75456202Y-63342328D01*
X75456206Y-63342335D01*
X75542452Y-63457544D01*
X75542455Y-63457547D01*
X75657664Y-63543793D01*
X75657671Y-63543797D01*
X75702618Y-63560561D01*
X75792517Y-63594091D01*
X75852127Y-63600500D01*
X75975500Y-63600499D01*
X76042539Y-63620183D01*
X76088294Y-63672987D01*
X76099500Y-63724499D01*
X76099500Y-64588691D01*
X76099500Y-64588693D01*
X76099499Y-64588693D01*
X76111955Y-64651308D01*
X76105728Y-64720900D01*
X76062865Y-64776077D01*
X75996975Y-64799322D01*
X75990338Y-64799500D01*
X72431003Y-64799500D01*
X72322590Y-64821065D01*
X72322589Y-64821065D01*
X72295671Y-64826420D01*
X72168190Y-64879224D01*
X72053454Y-64955887D01*
X72053453Y-64955888D01*
X65746162Y-71263181D01*
X65684839Y-71296666D01*
X65658481Y-71299500D01*
X65331999Y-71299500D01*
X65264960Y-71279815D01*
X65219205Y-71227011D01*
X65207999Y-71175500D01*
X65207999Y-70202129D01*
X65207998Y-70202123D01*
X65207393Y-70196498D01*
X65201591Y-70142517D01*
X65197674Y-70132016D01*
X65151297Y-70007671D01*
X65151293Y-70007664D01*
X65065047Y-69892455D01*
X65065044Y-69892452D01*
X64949835Y-69806206D01*
X64949828Y-69806202D01*
X64814982Y-69755908D01*
X64814983Y-69755908D01*
X64755383Y-69749501D01*
X64755381Y-69749500D01*
X64755373Y-69749500D01*
X64755364Y-69749500D01*
X61159629Y-69749500D01*
X61159623Y-69749501D01*
X61100016Y-69755908D01*
X60965171Y-69806202D01*
X60965164Y-69806206D01*
X60849955Y-69892452D01*
X60849952Y-69892455D01*
X60763706Y-70007664D01*
X60763703Y-70007669D01*
X60746073Y-70054939D01*
X60704201Y-70110872D01*
X60638737Y-70135289D01*
X60570464Y-70120437D01*
X60521059Y-70071032D01*
X60506066Y-70005025D01*
X60507999Y-69968650D01*
X60508000Y-69968613D01*
X60508000Y-68031386D01*
X60507998Y-68031347D01*
X60507006Y-68012666D01*
X60505205Y-67978759D01*
X60460745Y-67748874D01*
X60378074Y-67529810D01*
X60259570Y-67327868D01*
X60259565Y-67327861D01*
X60108643Y-67148858D01*
X60108641Y-67148856D01*
X59929638Y-66997934D01*
X59929631Y-66997929D01*
X59727689Y-66879425D01*
X59637332Y-66845326D01*
X59508626Y-66796755D01*
X59508621Y-66796754D01*
X59278743Y-66752295D01*
X59226152Y-66749501D01*
X59226129Y-66749500D01*
X59226122Y-66749500D01*
X57288878Y-66749500D01*
X57288870Y-66749500D01*
X57288847Y-66749501D01*
X57236256Y-66752295D01*
X57236255Y-66752295D01*
X57006378Y-66796754D01*
X57006376Y-66796754D01*
X57006374Y-66796755D01*
X56960156Y-66814197D01*
X56787310Y-66879425D01*
X56585368Y-66997929D01*
X56585361Y-66997934D01*
X56406358Y-67148856D01*
X56406356Y-67148858D01*
X56255434Y-67327861D01*
X56255429Y-67327868D01*
X56136925Y-67529810D01*
X56087301Y-67661308D01*
X56054255Y-67748874D01*
X56054254Y-67748876D01*
X56054254Y-67748878D01*
X56009795Y-67978755D01*
X56009795Y-67978756D01*
X56007001Y-68031347D01*
X56007000Y-68031386D01*
X56007000Y-69968613D01*
X56007001Y-69968652D01*
X56009795Y-70021243D01*
X56009795Y-70021244D01*
X56044779Y-70202128D01*
X56054255Y-70251126D01*
X56069619Y-70291837D01*
X56136925Y-70470189D01*
X56255429Y-70672131D01*
X56255434Y-70672138D01*
X56406356Y-70851141D01*
X56406358Y-70851143D01*
X56585361Y-71002065D01*
X56585368Y-71002070D01*
X56787310Y-71120574D01*
X57006374Y-71203245D01*
X57236259Y-71247705D01*
X57288878Y-71250500D01*
X57288886Y-71250500D01*
X59226114Y-71250500D01*
X59226122Y-71250500D01*
X59278741Y-71247705D01*
X59508626Y-71203245D01*
X59727690Y-71120574D01*
X59929632Y-71002070D01*
X59934267Y-70998162D01*
X60108641Y-70851143D01*
X60108643Y-70851141D01*
X60259565Y-70672138D01*
X60259565Y-70672137D01*
X60259570Y-70672132D01*
X60378074Y-70470190D01*
X60460745Y-70251126D01*
X60461256Y-70248485D01*
X60461781Y-70247467D01*
X60462183Y-70246050D01*
X60462471Y-70246131D01*
X60493312Y-70186403D01*
X60553843Y-70151507D01*
X60623631Y-70154876D01*
X60680519Y-70195440D01*
X60706446Y-70260322D01*
X60707000Y-70272030D01*
X60707000Y-73797870D01*
X60707001Y-73797876D01*
X60713408Y-73857483D01*
X60763702Y-73992328D01*
X60763706Y-73992335D01*
X60845195Y-74101189D01*
X60869613Y-74166653D01*
X60854762Y-74234926D01*
X60805357Y-74284332D01*
X60745929Y-74299500D01*
X58841518Y-74299500D01*
X58774479Y-74279815D01*
X58753837Y-74263181D01*
X55736819Y-71246162D01*
X55703334Y-71184839D01*
X55700500Y-71158481D01*
X55700500Y-67431004D01*
X55673581Y-67295677D01*
X55673580Y-67295676D01*
X55673580Y-67295672D01*
X55673578Y-67295667D01*
X55620777Y-67168192D01*
X55544112Y-67053454D01*
X53676461Y-65185803D01*
X60707500Y-65185803D01*
X60707500Y-65750000D01*
X61524488Y-65750000D01*
X61491575Y-65807007D01*
X61457500Y-65934174D01*
X61457500Y-66065826D01*
X61491575Y-66192993D01*
X61524488Y-66250000D01*
X60707501Y-66250000D01*
X60707501Y-66814197D01*
X60717900Y-66946332D01*
X60772877Y-67164519D01*
X60865928Y-67369374D01*
X60865931Y-67369380D01*
X60994059Y-67554323D01*
X60994069Y-67554335D01*
X61153164Y-67713430D01*
X61153176Y-67713440D01*
X61338119Y-67841568D01*
X61338125Y-67841571D01*
X61542980Y-67934622D01*
X61761167Y-67989599D01*
X61893310Y-67999999D01*
X62707499Y-67999999D01*
X62707500Y-67999998D01*
X62707500Y-66500000D01*
X63207500Y-66500000D01*
X63207500Y-67999999D01*
X64021682Y-67999999D01*
X64021697Y-67999998D01*
X64153832Y-67989599D01*
X64372019Y-67934622D01*
X64576874Y-67841571D01*
X64576880Y-67841568D01*
X64761823Y-67713440D01*
X64761835Y-67713430D01*
X64920930Y-67554335D01*
X64920940Y-67554323D01*
X65049068Y-67369380D01*
X65049071Y-67369374D01*
X65142122Y-67164519D01*
X65197099Y-66946332D01*
X65207499Y-66814196D01*
X65207500Y-66814184D01*
X65207500Y-66250000D01*
X64390512Y-66250000D01*
X64423425Y-66192993D01*
X64457500Y-66065826D01*
X64457500Y-65934174D01*
X64423425Y-65807007D01*
X64390512Y-65750000D01*
X65207499Y-65750000D01*
X65207499Y-65185817D01*
X65207498Y-65185802D01*
X65197099Y-65053667D01*
X65142122Y-64835480D01*
X65049071Y-64630625D01*
X65049068Y-64630619D01*
X64920940Y-64445676D01*
X64920930Y-64445664D01*
X64761835Y-64286569D01*
X64761823Y-64286559D01*
X64576880Y-64158431D01*
X64576874Y-64158428D01*
X64372019Y-64065377D01*
X64153832Y-64010400D01*
X64021696Y-64000000D01*
X63207500Y-64000000D01*
X63207500Y-65500000D01*
X62707500Y-65500000D01*
X62707500Y-64000000D01*
X61893317Y-64000000D01*
X61893302Y-64000001D01*
X61761167Y-64010400D01*
X61542980Y-64065377D01*
X61338125Y-64158428D01*
X61338119Y-64158431D01*
X61153176Y-64286559D01*
X61153164Y-64286569D01*
X60994069Y-64445664D01*
X60994059Y-64445676D01*
X60865931Y-64630619D01*
X60865928Y-64630625D01*
X60772877Y-64835480D01*
X60717900Y-65053667D01*
X60707500Y-65185803D01*
X53676461Y-65185803D01*
X50446545Y-61955887D01*
X50331807Y-61879222D01*
X50204332Y-61826421D01*
X50204322Y-61826418D01*
X50068996Y-61799500D01*
X50068994Y-61799500D01*
X50068993Y-61799500D01*
X44568993Y-61799500D01*
X44431007Y-61799500D01*
X44431005Y-61799500D01*
X44295677Y-61826418D01*
X44295667Y-61826421D01*
X44168195Y-61879221D01*
X44168182Y-61879228D01*
X44053458Y-61955885D01*
X44053454Y-61955888D01*
X43955888Y-62053454D01*
X43955885Y-62053458D01*
X43879228Y-62168182D01*
X43879221Y-62168195D01*
X43826421Y-62295667D01*
X43826418Y-62295677D01*
X43799500Y-62431004D01*
X43799500Y-65838255D01*
X43779815Y-65905294D01*
X43748385Y-65938573D01*
X43652787Y-66008028D01*
X43652782Y-66008032D01*
X43508028Y-66152786D01*
X43387715Y-66318386D01*
X43294781Y-66500776D01*
X43231522Y-66695465D01*
X43199500Y-66897648D01*
X43199500Y-66975638D01*
X43179815Y-67042677D01*
X43163181Y-67063319D01*
X37663319Y-72563181D01*
X37601996Y-72596666D01*
X37575638Y-72599500D01*
X34174499Y-72599500D01*
X34107460Y-72579815D01*
X34061705Y-72527011D01*
X34050499Y-72475500D01*
X34050499Y-71952129D01*
X34050498Y-71952123D01*
X34050497Y-71952116D01*
X34044091Y-71892517D01*
X34030207Y-71855293D01*
X33993797Y-71757671D01*
X33993793Y-71757664D01*
X33907547Y-71642455D01*
X33907544Y-71642452D01*
X33792335Y-71556206D01*
X33792328Y-71556202D01*
X33657482Y-71505908D01*
X33657483Y-71505908D01*
X33597883Y-71499501D01*
X33597881Y-71499500D01*
X33597873Y-71499500D01*
X33597864Y-71499500D01*
X30502129Y-71499500D01*
X30502123Y-71499501D01*
X30442516Y-71505908D01*
X30307671Y-71556202D01*
X30307664Y-71556206D01*
X30192455Y-71642452D01*
X30192452Y-71642455D01*
X30106206Y-71757664D01*
X30106202Y-71757671D01*
X30055908Y-71892517D01*
X30050100Y-71946543D01*
X30049501Y-71952123D01*
X30049500Y-71952135D01*
X30049500Y-75047870D01*
X30049501Y-75047876D01*
X30055908Y-75107483D01*
X30106202Y-75242328D01*
X30106206Y-75242335D01*
X30192452Y-75357544D01*
X30192455Y-75357547D01*
X30307664Y-75443793D01*
X30307671Y-75443797D01*
X30442517Y-75494091D01*
X30442516Y-75494091D01*
X30449444Y-75494835D01*
X30502127Y-75500500D01*
X33597872Y-75500499D01*
X33657483Y-75494091D01*
X33792331Y-75443796D01*
X33907546Y-75357546D01*
X33993796Y-75242331D01*
X34044091Y-75107483D01*
X34050500Y-75047873D01*
X34050500Y-74524500D01*
X34070185Y-74457461D01*
X34122989Y-74411706D01*
X34174500Y-74400500D01*
X37575638Y-74400500D01*
X37642677Y-74420185D01*
X37663319Y-74436819D01*
X39563181Y-76336681D01*
X39596666Y-76398004D01*
X39599500Y-76424362D01*
X39599500Y-78088695D01*
X39634103Y-78262658D01*
X39634106Y-78262667D01*
X39701983Y-78426540D01*
X39701990Y-78426553D01*
X39800535Y-78574034D01*
X39800538Y-78574038D01*
X39925961Y-78699461D01*
X39925965Y-78699464D01*
X40073446Y-78798009D01*
X40073459Y-78798016D01*
X40196363Y-78848923D01*
X40237334Y-78865894D01*
X40237336Y-78865894D01*
X40237341Y-78865896D01*
X40411304Y-78900499D01*
X40411307Y-78900500D01*
X40411309Y-78900500D01*
X40588693Y-78900500D01*
X40588694Y-78900499D01*
X40646682Y-78888964D01*
X40762658Y-78865896D01*
X40762661Y-78865894D01*
X40762666Y-78865894D01*
X40926547Y-78798013D01*
X41074035Y-78699464D01*
X41199464Y-78574035D01*
X41298013Y-78426547D01*
X41365894Y-78262666D01*
X41372340Y-78230263D01*
X41400499Y-78088695D01*
X41400500Y-78088693D01*
X41400500Y-75911307D01*
X41400499Y-75911303D01*
X41378335Y-75799875D01*
X41365895Y-75737334D01*
X41317614Y-75620775D01*
X41298013Y-75573453D01*
X41213214Y-75446543D01*
X41205394Y-75434839D01*
X41199466Y-75425966D01*
X39361181Y-73587681D01*
X39327696Y-73526358D01*
X39332680Y-73456666D01*
X39361181Y-73412319D01*
X44436681Y-68336819D01*
X44498004Y-68303334D01*
X44524362Y-68300500D01*
X44602351Y-68300500D01*
X44602352Y-68300500D01*
X44804534Y-68268477D01*
X44999219Y-68205220D01*
X45181610Y-68112287D01*
X45318739Y-68012658D01*
X45347213Y-67991971D01*
X45347215Y-67991968D01*
X45347219Y-67991966D01*
X45491966Y-67847219D01*
X45491968Y-67847215D01*
X45491971Y-67847213D01*
X45589161Y-67713440D01*
X45612287Y-67681610D01*
X45705220Y-67499219D01*
X45768477Y-67304534D01*
X45800500Y-67102352D01*
X45800500Y-66897648D01*
X46199500Y-66897648D01*
X46199500Y-67102351D01*
X46231522Y-67304534D01*
X46294781Y-67499223D01*
X46387715Y-67681613D01*
X46508028Y-67847213D01*
X46563181Y-67902366D01*
X46596666Y-67963689D01*
X46599500Y-67990047D01*
X46599500Y-72668696D01*
X46634103Y-72842658D01*
X46634105Y-72842666D01*
X46661473Y-72908738D01*
X46661475Y-72908742D01*
X46663671Y-72914043D01*
X46701987Y-73006547D01*
X46750871Y-73079707D01*
X46754445Y-73085057D01*
X46754450Y-73085065D01*
X46800532Y-73154031D01*
X46800538Y-73154039D01*
X50583181Y-76936681D01*
X50616666Y-76998004D01*
X50619500Y-77024362D01*
X50619500Y-77102351D01*
X50651522Y-77304534D01*
X50714781Y-77499223D01*
X50765876Y-77599500D01*
X50799517Y-77665525D01*
X50807715Y-77681613D01*
X50928028Y-77847213D01*
X51072786Y-77991971D01*
X51205915Y-78088693D01*
X51238390Y-78112287D01*
X51354607Y-78171503D01*
X51420776Y-78205218D01*
X51420778Y-78205218D01*
X51420781Y-78205220D01*
X51525137Y-78239127D01*
X51615465Y-78268477D01*
X51638523Y-78272129D01*
X51817648Y-78300500D01*
X51817649Y-78300500D01*
X52022351Y-78300500D01*
X52022352Y-78300500D01*
X52224534Y-78268477D01*
X52419219Y-78205220D01*
X52601610Y-78112287D01*
X52694590Y-78044732D01*
X52767213Y-77991971D01*
X52767215Y-77991968D01*
X52767219Y-77991966D01*
X52911966Y-77847219D01*
X52911968Y-77847215D01*
X52911971Y-77847213D01*
X53017482Y-77701987D01*
X53032287Y-77681610D01*
X53125220Y-77499219D01*
X53188477Y-77304534D01*
X53220500Y-77102352D01*
X53220500Y-76897648D01*
X53210273Y-76833076D01*
X53188477Y-76695465D01*
X53125218Y-76500776D01*
X53091503Y-76434607D01*
X53032287Y-76318390D01*
X53024556Y-76307749D01*
X52911971Y-76152786D01*
X52767213Y-76008028D01*
X52601613Y-75887715D01*
X52601612Y-75887714D01*
X52601610Y-75887713D01*
X52512182Y-75842147D01*
X52419223Y-75794781D01*
X52224534Y-75731522D01*
X52049015Y-75703723D01*
X52022352Y-75699500D01*
X52022351Y-75699500D01*
X51944362Y-75699500D01*
X51877323Y-75679815D01*
X51856681Y-75663181D01*
X48436819Y-72243319D01*
X48403334Y-72181996D01*
X48400500Y-72155638D01*
X48400500Y-67990047D01*
X48420185Y-67923008D01*
X48436819Y-67902366D01*
X48491966Y-67847219D01*
X48491968Y-67847215D01*
X48491971Y-67847213D01*
X48589161Y-67713440D01*
X48612287Y-67681610D01*
X48705220Y-67499219D01*
X48768477Y-67304534D01*
X48800500Y-67102352D01*
X48800500Y-66897648D01*
X48797614Y-66879425D01*
X48768477Y-66695465D01*
X48739127Y-66605137D01*
X48705220Y-66500781D01*
X48705218Y-66500778D01*
X48705218Y-66500776D01*
X48628830Y-66350858D01*
X48612287Y-66318390D01*
X48599315Y-66300536D01*
X48491971Y-66152786D01*
X48347213Y-66008028D01*
X48181613Y-65887715D01*
X48181612Y-65887714D01*
X48181610Y-65887713D01*
X48124653Y-65858691D01*
X47999223Y-65794781D01*
X47804534Y-65731522D01*
X47629995Y-65703878D01*
X47602352Y-65699500D01*
X47397648Y-65699500D01*
X47373329Y-65703351D01*
X47195465Y-65731522D01*
X47000776Y-65794781D01*
X46818386Y-65887715D01*
X46652786Y-66008028D01*
X46508028Y-66152786D01*
X46387715Y-66318386D01*
X46294781Y-66500776D01*
X46231522Y-66695465D01*
X46199500Y-66897648D01*
X45800500Y-66897648D01*
X45797614Y-66879425D01*
X45768477Y-66695465D01*
X45739127Y-66605137D01*
X45705220Y-66500781D01*
X45705218Y-66500778D01*
X45705218Y-66500776D01*
X45628830Y-66350858D01*
X45612287Y-66318390D01*
X45599315Y-66300536D01*
X45491971Y-66152786D01*
X45347217Y-66008032D01*
X45347212Y-66008028D01*
X45251615Y-65938573D01*
X45208949Y-65883243D01*
X45200500Y-65838255D01*
X45200500Y-63324500D01*
X45220185Y-63257461D01*
X45272989Y-63211706D01*
X45324500Y-63200500D01*
X49658481Y-63200500D01*
X49725520Y-63220185D01*
X49746162Y-63236819D01*
X54263181Y-67753838D01*
X54296666Y-67815161D01*
X54299500Y-67841519D01*
X54299500Y-71431006D01*
X54299500Y-71568994D01*
X54299500Y-71568996D01*
X54299499Y-71568996D01*
X54326418Y-71704322D01*
X54326421Y-71704332D01*
X54379222Y-71831807D01*
X54455887Y-71946545D01*
X54455888Y-71946546D01*
X57955886Y-75446542D01*
X58005506Y-75496162D01*
X58053459Y-75544115D01*
X58168182Y-75620771D01*
X58168186Y-75620773D01*
X58168189Y-75620775D01*
X58242866Y-75651707D01*
X58295671Y-75673580D01*
X58322591Y-75678934D01*
X58419630Y-75698237D01*
X58431006Y-75700500D01*
X58431007Y-75700500D01*
X61274433Y-75700500D01*
X61341472Y-75720185D01*
X61387227Y-75772989D01*
X61397171Y-75842147D01*
X61368146Y-75905703D01*
X61347318Y-75924819D01*
X61232780Y-76008034D01*
X61088028Y-76152786D01*
X60967715Y-76318386D01*
X60874781Y-76500776D01*
X60811522Y-76695465D01*
X60779500Y-76897648D01*
X60779500Y-77102351D01*
X60797986Y-77219069D01*
X60789031Y-77288363D01*
X60763194Y-77326148D01*
X58326162Y-79763181D01*
X58264839Y-79796666D01*
X58238481Y-79799500D01*
X51431003Y-79799500D01*
X51322590Y-79821065D01*
X51322589Y-79821065D01*
X51309131Y-79823742D01*
X51295673Y-79826419D01*
X51269268Y-79837356D01*
X51242866Y-79848292D01*
X51242864Y-79848293D01*
X51242863Y-79848292D01*
X51168191Y-79879223D01*
X51090694Y-79931006D01*
X51090693Y-79931007D01*
X51053454Y-79955888D01*
X51053453Y-79955889D01*
X47455888Y-83553453D01*
X47455887Y-83553454D01*
X47379222Y-83668192D01*
X47326421Y-83795667D01*
X47326418Y-83795679D01*
X47301844Y-83919221D01*
X47299500Y-83931005D01*
X47299500Y-84049481D01*
X47279815Y-84116520D01*
X47227011Y-84162275D01*
X47157853Y-84172219D01*
X47094297Y-84143194D01*
X47087819Y-84137162D01*
X46611984Y-83661327D01*
X46578499Y-83600004D01*
X46576307Y-83561047D01*
X46580500Y-83520009D01*
X46580499Y-82319992D01*
X46580430Y-82319321D01*
X46569999Y-82217203D01*
X46569998Y-82217200D01*
X46562796Y-82195465D01*
X46514814Y-82050666D01*
X46422712Y-81901344D01*
X46298656Y-81777288D01*
X46149334Y-81685186D01*
X45982797Y-81630001D01*
X45982795Y-81630000D01*
X45880010Y-81619500D01*
X43879998Y-81619500D01*
X43879981Y-81619501D01*
X43777203Y-81630000D01*
X43777200Y-81630001D01*
X43610668Y-81685185D01*
X43610663Y-81685187D01*
X43461342Y-81777289D01*
X43337289Y-81901342D01*
X43245187Y-82050663D01*
X43245186Y-82050666D01*
X43190001Y-82217203D01*
X43190001Y-82217204D01*
X43190000Y-82217204D01*
X43179500Y-82319983D01*
X43179500Y-83106638D01*
X43159815Y-83173677D01*
X43107011Y-83219432D01*
X43037853Y-83229376D01*
X42974297Y-83200351D01*
X42967819Y-83194319D01*
X37574035Y-77800535D01*
X37574030Y-77800531D01*
X37519622Y-77764178D01*
X37519616Y-77764175D01*
X37514959Y-77761063D01*
X37426547Y-77701987D01*
X37344606Y-77668046D01*
X37262666Y-77634105D01*
X37262658Y-77634103D01*
X37088696Y-77599500D01*
X37088692Y-77599500D01*
X37088691Y-77599500D01*
X33911666Y-77599500D01*
X33844627Y-77579815D01*
X33804279Y-77537500D01*
X33716924Y-77386196D01*
X33557281Y-77178148D01*
X33557274Y-77178140D01*
X33371860Y-76992726D01*
X33371851Y-76992718D01*
X33163803Y-76833075D01*
X32936700Y-76701958D01*
X32936690Y-76701953D01*
X32694428Y-76601605D01*
X32694421Y-76601603D01*
X32694419Y-76601602D01*
X32441116Y-76533730D01*
X32383339Y-76526123D01*
X32181127Y-76499500D01*
X32181120Y-76499500D01*
X31918880Y-76499500D01*
X31918872Y-76499500D01*
X31687772Y-76529926D01*
X31658884Y-76533730D01*
X31405581Y-76601602D01*
X31405571Y-76601605D01*
X31163309Y-76701953D01*
X31163299Y-76701958D01*
X30936196Y-76833075D01*
X30728148Y-76992718D01*
X30542718Y-77178148D01*
X30383075Y-77386196D01*
X30251958Y-77613299D01*
X30251953Y-77613309D01*
X30151605Y-77855571D01*
X30151602Y-77855581D01*
X30083730Y-78108885D01*
X30049500Y-78368872D01*
X30049500Y-78631127D01*
X30070749Y-78792517D01*
X30083730Y-78891116D01*
X30110149Y-78989712D01*
X30151602Y-79144418D01*
X30151605Y-79144428D01*
X30251953Y-79386690D01*
X30251958Y-79386700D01*
X30383075Y-79613803D01*
X30542718Y-79821851D01*
X30542726Y-79821860D01*
X30728140Y-80007274D01*
X30728148Y-80007281D01*
X30936196Y-80166924D01*
X31163299Y-80298041D01*
X31163309Y-80298046D01*
X31348574Y-80374785D01*
X31405581Y-80398398D01*
X31658884Y-80466270D01*
X31918880Y-80500500D01*
X31918887Y-80500500D01*
X32181113Y-80500500D01*
X32181120Y-80500500D01*
X32441116Y-80466270D01*
X32694419Y-80398398D01*
X32936697Y-80298043D01*
X33163803Y-80166924D01*
X33371851Y-80007282D01*
X33371855Y-80007277D01*
X33371860Y-80007274D01*
X33557274Y-79821860D01*
X33557277Y-79821855D01*
X33557282Y-79821851D01*
X33716924Y-79613803D01*
X33737106Y-79578846D01*
X33804279Y-79462500D01*
X33854846Y-79414284D01*
X33911666Y-79400500D01*
X36575638Y-79400500D01*
X36642677Y-79420185D01*
X36663319Y-79436819D01*
X38470677Y-81244177D01*
X40193276Y-82966775D01*
X40226761Y-83028098D01*
X40221777Y-83097790D01*
X40179905Y-83153723D01*
X40153048Y-83169017D01*
X40073456Y-83201985D01*
X40073446Y-83201990D01*
X39925965Y-83300535D01*
X39925961Y-83300538D01*
X39800538Y-83425961D01*
X39800535Y-83425965D01*
X39701990Y-83573446D01*
X39701983Y-83573459D01*
X39634106Y-83737332D01*
X39634103Y-83737341D01*
X39599500Y-83911304D01*
X39599500Y-86248696D01*
X39634103Y-86422659D01*
X39634104Y-86422663D01*
X39634105Y-86422666D01*
X39646241Y-86451965D01*
X39646242Y-86451967D01*
X39701983Y-86586540D01*
X39701987Y-86586547D01*
X39747082Y-86654036D01*
X39756072Y-86667490D01*
X39800537Y-86734038D01*
X39800538Y-86734039D01*
X43179971Y-90113470D01*
X43213456Y-90174793D01*
X43210722Y-90230257D01*
X43212661Y-90230723D01*
X43211523Y-90235462D01*
X43179500Y-90437648D01*
X43179500Y-90642352D01*
X43180440Y-90648286D01*
X43211522Y-90844534D01*
X43274781Y-91039223D01*
X43338691Y-91164653D01*
X43365866Y-91217986D01*
X43367715Y-91221613D01*
X43488028Y-91387213D01*
X43632786Y-91531971D01*
X43781327Y-91639890D01*
X43798390Y-91652287D01*
X43887738Y-91697812D01*
X43891080Y-91699515D01*
X43941876Y-91747490D01*
X43958671Y-91815311D01*
X43936134Y-91881446D01*
X43891080Y-91920485D01*
X43798386Y-91967715D01*
X43632786Y-92088028D01*
X43488028Y-92232786D01*
X43367715Y-92398386D01*
X43274781Y-92580776D01*
X43211522Y-92775465D01*
X43179500Y-92977648D01*
X43179500Y-93182351D01*
X43211522Y-93384532D01*
X43220031Y-93410718D01*
X43222026Y-93480559D01*
X43189781Y-93536718D01*
X40663319Y-96063181D01*
X40601996Y-96096666D01*
X40575638Y-96099500D01*
X35344362Y-96099500D01*
X35277323Y-96079815D01*
X35256681Y-96063181D01*
X31756819Y-92563319D01*
X31744530Y-92540814D01*
X31728895Y-92520488D01*
X31726528Y-92507846D01*
X31723334Y-92501996D01*
X31720942Y-92486102D01*
X31720500Y-92480882D01*
X31720500Y-92397648D01*
X31697114Y-92250000D01*
X39303391Y-92250000D01*
X40264314Y-92250000D01*
X40259920Y-92254394D01*
X40207259Y-92345606D01*
X40180000Y-92447339D01*
X40180000Y-92552661D01*
X40207259Y-92654394D01*
X40259920Y-92745606D01*
X40264314Y-92750000D01*
X39303391Y-92750000D01*
X39312009Y-92804413D01*
X39375244Y-92999029D01*
X39468140Y-93181349D01*
X39588417Y-93346894D01*
X39588417Y-93346895D01*
X39733104Y-93491582D01*
X39898650Y-93611859D01*
X40080968Y-93704754D01*
X40275578Y-93767988D01*
X40330000Y-93776607D01*
X40330000Y-92815686D01*
X40334394Y-92820080D01*
X40425606Y-92872741D01*
X40527339Y-92900000D01*
X40632661Y-92900000D01*
X40734394Y-92872741D01*
X40825606Y-92820080D01*
X40830000Y-92815686D01*
X40830000Y-93776606D01*
X40884421Y-93767988D01*
X41079031Y-93704754D01*
X41261349Y-93611859D01*
X41426894Y-93491582D01*
X41426895Y-93491582D01*
X41571582Y-93346895D01*
X41571582Y-93346894D01*
X41691859Y-93181349D01*
X41784755Y-92999029D01*
X41847990Y-92804413D01*
X41856609Y-92750000D01*
X40895686Y-92750000D01*
X40900080Y-92745606D01*
X40952741Y-92654394D01*
X40980000Y-92552661D01*
X40980000Y-92447339D01*
X40952741Y-92345606D01*
X40900080Y-92254394D01*
X40895686Y-92250000D01*
X41856609Y-92250000D01*
X41847990Y-92195586D01*
X41784755Y-92000970D01*
X41691859Y-91818650D01*
X41571582Y-91653105D01*
X41571582Y-91653104D01*
X41426895Y-91508417D01*
X41261349Y-91388140D01*
X41079029Y-91295244D01*
X40884413Y-91232009D01*
X40830000Y-91223390D01*
X40830000Y-92184314D01*
X40825606Y-92179920D01*
X40734394Y-92127259D01*
X40632661Y-92100000D01*
X40527339Y-92100000D01*
X40425606Y-92127259D01*
X40334394Y-92179920D01*
X40330000Y-92184314D01*
X40330000Y-91223390D01*
X40275586Y-91232009D01*
X40080970Y-91295244D01*
X39898650Y-91388140D01*
X39733105Y-91508417D01*
X39733104Y-91508417D01*
X39588417Y-91653104D01*
X39588417Y-91653105D01*
X39468140Y-91818650D01*
X39375244Y-92000970D01*
X39312009Y-92195586D01*
X39303391Y-92250000D01*
X31697114Y-92250000D01*
X31688477Y-92195466D01*
X31625220Y-92000781D01*
X31625218Y-92000778D01*
X31625218Y-92000776D01*
X31565762Y-91884089D01*
X31532287Y-91818390D01*
X31500092Y-91774077D01*
X31411971Y-91652786D01*
X31267213Y-91508028D01*
X31101613Y-91387715D01*
X31101612Y-91387714D01*
X31101610Y-91387713D01*
X31044653Y-91358691D01*
X30919223Y-91294781D01*
X30724534Y-91231522D01*
X30549995Y-91203878D01*
X30522352Y-91199500D01*
X30317648Y-91199500D01*
X30293329Y-91203351D01*
X30115465Y-91231522D01*
X29920776Y-91294781D01*
X29738386Y-91387715D01*
X29572786Y-91508028D01*
X29428028Y-91652786D01*
X29307715Y-91818386D01*
X29214781Y-92000776D01*
X29151522Y-92195465D01*
X29119500Y-92397648D01*
X28690500Y-92397648D01*
X28690500Y-83368905D01*
X30050000Y-83368905D01*
X30050000Y-83631094D01*
X30084220Y-83891009D01*
X30084222Y-83891020D01*
X30152075Y-84144255D01*
X30252404Y-84386471D01*
X30252409Y-84386482D01*
X30383488Y-84613516D01*
X30383494Y-84613524D01*
X30470080Y-84726365D01*
X31485387Y-83711058D01*
X31490889Y-83731591D01*
X31569881Y-83868408D01*
X31681592Y-83980119D01*
X31818409Y-84059111D01*
X31838940Y-84064612D01*
X30823633Y-85079917D01*
X30823633Y-85079918D01*
X30936475Y-85166505D01*
X30936483Y-85166511D01*
X31163517Y-85297590D01*
X31163528Y-85297595D01*
X31405744Y-85397924D01*
X31658979Y-85465777D01*
X31658990Y-85465779D01*
X31918905Y-85499999D01*
X31918920Y-85500000D01*
X32181080Y-85500000D01*
X32181094Y-85499999D01*
X32441009Y-85465779D01*
X32441020Y-85465777D01*
X32694255Y-85397924D01*
X32936471Y-85297595D01*
X32936482Y-85297590D01*
X33163516Y-85166511D01*
X33163534Y-85166499D01*
X33276365Y-85079919D01*
X33276365Y-85079917D01*
X32261059Y-84064612D01*
X32281591Y-84059111D01*
X32418408Y-83980119D01*
X32530119Y-83868408D01*
X32609111Y-83731591D01*
X32614612Y-83711060D01*
X33629917Y-84726365D01*
X33629919Y-84726365D01*
X33716499Y-84613534D01*
X33716511Y-84613516D01*
X33847590Y-84386482D01*
X33847595Y-84386471D01*
X33947924Y-84144255D01*
X34015777Y-83891020D01*
X34015779Y-83891009D01*
X34049999Y-83631094D01*
X34050000Y-83631080D01*
X34050000Y-83368919D01*
X34049999Y-83368905D01*
X34015779Y-83108990D01*
X34015777Y-83108979D01*
X33947924Y-82855744D01*
X33847595Y-82613528D01*
X33847590Y-82613517D01*
X33716511Y-82386483D01*
X33716505Y-82386475D01*
X33629918Y-82273633D01*
X33629917Y-82273633D01*
X32614612Y-83288939D01*
X32609111Y-83268409D01*
X32530119Y-83131592D01*
X32418408Y-83019881D01*
X32281591Y-82940889D01*
X32261057Y-82935387D01*
X33276365Y-81920080D01*
X33163524Y-81833494D01*
X33163516Y-81833488D01*
X32936482Y-81702409D01*
X32936471Y-81702404D01*
X32694255Y-81602075D01*
X32441020Y-81534222D01*
X32441009Y-81534220D01*
X32181094Y-81500000D01*
X31918905Y-81500000D01*
X31658990Y-81534220D01*
X31658979Y-81534222D01*
X31405744Y-81602075D01*
X31163528Y-81702404D01*
X31163517Y-81702409D01*
X30936471Y-81833496D01*
X30823633Y-81920079D01*
X30823633Y-81920080D01*
X31838940Y-82935387D01*
X31818409Y-82940889D01*
X31681592Y-83019881D01*
X31569881Y-83131592D01*
X31490889Y-83268409D01*
X31485387Y-83288940D01*
X30470080Y-82273633D01*
X30470079Y-82273633D01*
X30383496Y-82386471D01*
X30252409Y-82613517D01*
X30252404Y-82613528D01*
X30152075Y-82855744D01*
X30084222Y-83108979D01*
X30084220Y-83108990D01*
X30050000Y-83368905D01*
X28690500Y-83368905D01*
X28690500Y-61845206D01*
X28690618Y-61839798D01*
X28693377Y-61776608D01*
X28694969Y-61740148D01*
X31889500Y-61740148D01*
X31889500Y-61944852D01*
X31891248Y-61955886D01*
X31921522Y-62147034D01*
X31984781Y-62341723D01*
X32077715Y-62524113D01*
X32198028Y-62689713D01*
X32342786Y-62834471D01*
X32497749Y-62947056D01*
X32508390Y-62954787D01*
X32624607Y-63014003D01*
X32690776Y-63047718D01*
X32690778Y-63047718D01*
X32690781Y-63047720D01*
X32795137Y-63081627D01*
X32885465Y-63110977D01*
X32986557Y-63126988D01*
X33087648Y-63143000D01*
X33087649Y-63143000D01*
X33292351Y-63143000D01*
X33292352Y-63143000D01*
X33494534Y-63110977D01*
X33689219Y-63047720D01*
X33871610Y-62954787D01*
X34031188Y-62838848D01*
X34037213Y-62834471D01*
X34037215Y-62834468D01*
X34037219Y-62834466D01*
X34181966Y-62689719D01*
X34181968Y-62689715D01*
X34181971Y-62689713D01*
X34236703Y-62614379D01*
X34302287Y-62524110D01*
X34395220Y-62341719D01*
X34458477Y-62147034D01*
X34490500Y-61944852D01*
X34490500Y-61740148D01*
X34458477Y-61537966D01*
X34395220Y-61343281D01*
X34395218Y-61343278D01*
X34395218Y-61343276D01*
X34361503Y-61277107D01*
X34302287Y-61160890D01*
X34233740Y-61066542D01*
X34181971Y-60995286D01*
X34037213Y-60850528D01*
X33871613Y-60730215D01*
X33871612Y-60730214D01*
X33871610Y-60730213D01*
X33779395Y-60683227D01*
X33689223Y-60637281D01*
X33494534Y-60574022D01*
X33319995Y-60546378D01*
X33292352Y-60542000D01*
X33087648Y-60542000D01*
X33063329Y-60545851D01*
X32885465Y-60574022D01*
X32690776Y-60637281D01*
X32508386Y-60730215D01*
X32342786Y-60850528D01*
X32198028Y-60995286D01*
X32077715Y-61160886D01*
X31984781Y-61343276D01*
X31921522Y-61537965D01*
X31891128Y-61729867D01*
X31889500Y-61740148D01*
X28694969Y-61740148D01*
X28707386Y-61455726D01*
X28708326Y-61444995D01*
X28758152Y-61066525D01*
X28760025Y-61055905D01*
X28842649Y-60683209D01*
X28845440Y-60672795D01*
X28960230Y-60308727D01*
X28963917Y-60298595D01*
X29110003Y-59945912D01*
X29114561Y-59936138D01*
X29290822Y-59597545D01*
X29296217Y-59588200D01*
X29501325Y-59266244D01*
X29507515Y-59257405D01*
X29739896Y-58954560D01*
X29746834Y-58946291D01*
X30004726Y-58664852D01*
X30012352Y-58657226D01*
X30293791Y-58399334D01*
X30302060Y-58392396D01*
X30604905Y-58160015D01*
X30613744Y-58153825D01*
X30935700Y-57948717D01*
X30945045Y-57943322D01*
X31283638Y-57767061D01*
X31293412Y-57762503D01*
X31646095Y-57616417D01*
X31656227Y-57612730D01*
X32020295Y-57497940D01*
X32030709Y-57495149D01*
X32403405Y-57412525D01*
X32414025Y-57410652D01*
X32792495Y-57360826D01*
X32803226Y-57359886D01*
X33187297Y-57343117D01*
X33192706Y-57343000D01*
X33255892Y-57343000D01*
X118124108Y-57343000D01*
X118187294Y-57343000D01*
X118192702Y-57343117D01*
G37*
%TD.AperFunction*%
%TD*%
M02*
