M48
; DRILL file {KiCad 9.0.2} date 2025-06-20T15:29:44-0400
; FORMAT={-:-/ absolute / metric / decimal}
; #@! TF.CreationDate,2025-06-20T15:29:44-04:00
; #@! TF.GenerationSoftware,Kicad,Pcbnew,9.0.2
; #@! TF.FileFunction,Plated,1,2,PTH
FMAT,2
METRIC
; #@! TA.AperFunction,Plated,PTH,ViaDrill
T1C0.300
; #@! TA.AperFunction,Plated,PTH,ComponentDrill
T2C0.800
; #@! TA.AperFunction,Plated,PTH,ComponentDrill
T3C0.900
; #@! TA.AperFunction,Plated,PTH,ComponentDrill
T4C1.000
; #@! TA.AperFunction,Plated,PTH,ComponentDrill
T5C1.100
; #@! TA.AperFunction,Plated,PTH,ComponentDrill
T6C1.200
; #@! TA.AperFunction,Plated,PTH,ComponentDrill
T7C1.300
%
G90
G05
T1
X40.5Y-78.0
X40.5Y-84.0
X47.0Y-85.0
X49.0Y-88.5
X64.5Y-94.0
X65.5Y-110.5
X67.5Y-91.5
X70.0Y-106.0
X70.0Y-108.0
X75.0Y-86.5
X76.5Y-112.5
X77.0Y-64.5
X77.0Y-67.0
X77.5Y-91.5
X78.5Y-117.0
X80.0Y-79.5
X80.0Y-81.2
X81.5Y-114.0
X82.0Y-89.0
X82.0Y-92.0
X82.0Y-94.5
X82.0Y-98.5
X89.0Y-81.5
X96.5Y-79.0
X107.5Y-90.0
X108.0Y-95.0
T2
X30.42Y-92.5
X40.58Y-92.5
X43.42Y-104.5
X44.5Y-67.0
X44.88Y-82.92
X44.88Y-85.46
X44.88Y-88.0
X44.88Y-90.54
X44.88Y-93.08
X44.88Y-95.62
X44.88Y-98.16
X47.5Y-67.0
X51.92Y-77.0
X52.5Y-82.92
X52.5Y-85.46
X52.5Y-88.0
X52.5Y-90.54
X52.5Y-93.08
X52.5Y-95.62
X52.5Y-98.16
X53.58Y-104.5
X56.42Y-82.5
X60.88Y-104.5
X60.92Y-97.5
X62.08Y-77.0
X66.58Y-82.5
X68.5Y-104.5
X71.08Y-97.5
X71.88Y-104.5
X72.19Y-83.19
X72.19Y-85.73
X72.19Y-88.27
X72.19Y-90.81
X79.5Y-104.5
X79.81Y-83.19
X79.81Y-85.73
X79.81Y-88.27
X79.81Y-90.81
X83.92Y-86.5
X84.5Y-92.5
X84.5Y-104.5
X89.5Y-92.5
X89.5Y-104.5
X94.08Y-86.5
X97.92Y-97.5
X98.42Y-86.5
X108.08Y-97.5
X108.58Y-86.5
T3
X59.225Y-90.5
X61.765Y-90.5
X97.725Y-105.5
X100.265Y-105.5
T5
X77.0Y-62.0
X87.16Y-62.0
X100.42Y-80.0
X110.58Y-80.0
X114.5Y-87.0
X114.5Y-89.54
X114.5Y-92.08
T6
X32.05Y-73.5
X32.05Y-78.5
X32.05Y-83.5
X71.0Y-118.0
X76.0Y-118.0
X81.0Y-118.0
T7
X76.25Y-72.0
X81.25Y-72.0
X86.25Y-72.0
X112.75Y-72.468
X117.75Y-72.468
T4
G00X58.258Y-68.0
M15
G01X58.258Y-70.0
M16
G05
G00X63.957Y-66.0
M15
G01X61.957Y-66.0
M16
G05
G00X63.957Y-72.0
M15
G01X61.957Y-72.0
M16
G05
M30
