<?xml version="1.0" encoding="UTF-8"?>
<svg id="Capa_1" xmlns="http://www.w3.org/2000/svg" version="1.1" viewBox="0 0 1080 1080">
  <!-- Generator: Adobe Illustrator 29.5.0, SVG Export Plug-In . SVG Version: 2.1.0 Build 137)  -->
  <polygon points="61.7 599.24 60.84 600.09 60.84 629.16 61.7 629.99 63.47 629.99 64.34 629.16 64.34 617.16 77.34 617.16 78.21 616.34 78.21 615.06 77.34 614.23 64.34 614.23 64.34 602.18 79.57 602.18 80.43 601.35 80.43 600.09 79.57 599.24 61.7 599.24"/>
  <path d="M80.85,628.85l13.79-29.56.76-.49h.46l.77.49,13.69,29.56-.77,1.14h-1.82l-.77-.48-3.35-7.25h-16.11l-3.3,7.25-.78.48h-1.82l-.76-1.14ZM102.39,619.53c-2.21-4.78-4.39-9.6-6.62-14.4h-.36l-6.62,14.4h13.6Z"/>
  <path d="M128.72,598.8c4.58,0,7.89,1.54,10.97,4.09l.06,1.23-1.24,1.19-1.17-.05c-2.37-1.99-5.59-3.29-8.67-3.29-7.17,0-12.65,5.84-12.65,12.65s5.48,12.6,12.65,12.6c3.94,0,6.26-1.55,8.67-3.3l1.08-.14,1.37,1.2-.04,1.18c-3.1,2.88-7,4.26-11.03,4.26-9.08,0-16.38-6.99-16.38-15.77s7.3-15.86,16.38-15.86"/>
  <path d="M145.88,600.09l.86-.85h1.73l.87.85v18.32c0,5.01,3.21,8.91,8.51,8.91s8.62-3.82,8.62-8.83v-18.4l.87-.85h1.72l.86.85v18.58c0,6.66-4.9,11.78-12.07,11.78s-11.97-5.12-11.97-11.78v-18.58Z"/>
  <polygon points="178.33 600.09 179.19 599.24 180.96 599.24 181.83 600.09 181.83 627.05 194.88 627.05 195.74 627.88 195.74 629.16 194.88 629.99 179.19 629.99 178.33 629.16 178.33 600.09"/>
  <polygon points="202.65 602.19 194.75 602.19 193.9 601.35 193.9 600.09 194.75 599.25 213.99 599.25 214.85 600.09 214.85 601.35 213.99 602.19 206.1 602.19 206.1 629.15 205.24 629.99 203.52 629.99 202.65 629.15 202.65 602.19"/>
  <path d="M213.32,628.85l13.79-29.56.77-.49h.45l.78.49,13.69,29.56-.77,1.14h-1.81l-.78-.48-3.34-7.25h-16.1l-3.31,7.25-.77.48h-1.82l-.77-1.14ZM234.87,619.53c-2.22-4.78-4.41-9.6-6.62-14.4h-.36l-6.62,14.4h13.61Z"/>
  <path d="M247.31,600.09l.82-.85h10.15c8.76,0,15.93,6.89,15.93,15.33s-7.17,15.42-15.93,15.42h-10.15l-.82-.83v-29.08ZM257.57,626.96c7.44,0,12.83-5.14,12.83-12.39s-5.39-12.35-12.83-12.35h-6.81v24.73h6.81Z"/>
  <path d="M290.38,600.09l.82-.85h10.17c8.74,0,15.91,6.89,15.91,15.33s-7.17,15.42-15.91,15.42h-10.17l-.82-.83v-29.08ZM300.63,626.96c7.43,0,12.82-5.14,12.82-12.39s-5.39-12.35-12.82-12.35h-6.81v24.73h6.81Z"/>
  <polygon points="323.82 600.09 324.68 599.24 342.56 599.24 343.42 600.09 343.42 601.35 342.56 602.18 327.31 602.18 327.31 612.92 340.33 612.92 341.19 613.74 341.19 615.02 340.33 615.84 327.31 615.84 327.31 627.05 342.56 627.05 343.42 627.88 343.42 629.16 342.56 629.99 324.68 629.99 323.82 629.16 323.82 600.09"/>
  <path d="M355.5,628.85l13.79-29.56.77-.49h.47l.76.49,13.7,29.56-.77,1.14h-1.82l-.76-.48-3.36-7.25h-16.09l-3.32,7.25-.78.48h-1.81l-.78-1.14ZM377.06,619.53c-2.24-4.78-4.41-9.6-6.63-14.4h-.36l-6.62,14.4h13.62Z"/>
  <path d="M389.49,600.08l.86-.84h11.75c5.44,0,9.89,4.14,9.89,9.37,0,4.02-2.77,7.42-6.71,8.95l6.22,11.17-.77,1.27h-2.32l-.72-.38-6.04-11.66h-8.66v11.23l-.87.81h-1.77l-.86-.81v-29.1ZM401.87,615.06c3.49,0,6.53-2.82,6.53-6.41,0-3.34-3.03-6.19-6.53-6.19h-8.81v12.6h8.81Z"/>
  <path d="M433.01,598.8c9.07,0,16.33,7.08,16.33,15.86,0,6.5-3.95,11.99-9.66,14.45l5.3,8.24-.73,1.33h-2.26l-.73-.45-4.94-8.06c-1.01.16-2.28.25-3.32.25-9.08,0-16.28-6.99-16.28-15.77s7.19-15.86,16.28-15.86M433.01,627.37c7.21,0,13.15-5.72,13.15-12.71s-5.94-12.77-13.15-12.77-13.11,5.79-13.11,12.77,5.9,12.71,13.11,12.71"/>
  <path d="M455.48,600.09l.86-.85h1.72l.88.85v18.32c0,5.01,3.21,8.91,8.51,8.91s8.62-3.82,8.62-8.83v-18.4l.86-.85h1.72l.86.85v18.58c0,6.66-4.9,11.78-12.07,11.78s-11.97-5.12-11.97-11.78v-18.58Z"/>
  <polygon points="488.79 599.24 487.93 600.09 487.93 629.16 488.79 629.99 490.59 629.99 491.47 629.16 491.47 600.09 490.59 599.24 488.79 599.24"/>
  <polygon points="504.76 602.19 496.86 602.19 496 601.35 496 600.09 496.86 599.25 516.1 599.25 516.94 600.09 516.94 601.35 516.1 602.19 508.2 602.19 508.2 629.15 507.34 629.99 505.62 629.99 504.76 629.15 504.76 602.19"/>
  <polygon points="521.51 600.09 522.36 599.24 540.24 599.24 541.1 600.09 541.1 601.35 540.24 602.18 525 602.18 525 612.92 538.02 612.92 538.88 613.74 538.88 615.02 538.02 615.84 525 615.84 525 627.05 540.24 627.05 541.1 627.88 541.1 629.16 540.24 629.99 522.36 629.99 521.51 629.16 521.51 600.09"/>
  <path d="M561.85,598.8c4.58,0,7.9,1.54,10.98,4.09l.05,1.23-1.23,1.19-1.18-.05c-2.36-1.99-5.57-3.29-8.65-3.29-7.18,0-12.66,5.84-12.66,12.65s5.48,12.6,12.66,12.6c3.93,0,6.26-1.55,8.65-3.3l1.09-.14,1.36,1.2-.04,1.18c-3.09,2.88-6.99,4.26-11.03,4.26-9.06,0-16.38-6.99-16.38-15.77s7.32-15.86,16.38-15.86"/>
  <polygon points="583.92 602.19 576.02 602.19 575.16 601.35 575.16 600.09 576.02 599.25 595.25 599.25 596.11 600.09 596.11 601.35 595.25 602.19 587.36 602.19 587.36 629.15 586.5 629.99 584.77 629.99 583.92 629.15 583.92 602.19"/>
  <path d="M600.25,600.09l.86-.85h1.72l.86.85v18.32c0,5.01,3.23,8.91,8.52,8.91s8.63-3.82,8.63-8.83v-18.4l.86-.85h1.72l.86.85v18.58c0,6.66-4.9,11.78-12.07,11.78s-11.97-5.12-11.97-11.78v-18.58Z"/>
  <path d="M632.7,600.08l.87-.84h11.75c5.44,0,9.88,4.14,9.88,9.37,0,4.02-2.76,7.42-6.71,8.95l6.21,11.17-.78,1.27h-2.31l-.73-.38-6.04-11.66h-8.65v11.23l-.88.81h-1.76l-.87-.81v-29.1ZM645.08,615.06c3.5,0,6.53-2.82,6.53-6.41,0-3.34-3.03-6.19-6.53-6.19h-8.81v12.6h8.81Z"/>
  <path d="M657.89,628.85l13.78-29.56.77-.49h.47l.76.49,13.7,29.56-.77,1.14h-1.81l-.77-.48-3.36-7.25h-16.1l-3.31,7.25-.78.48h-1.8l-.78-1.14ZM679.44,619.53c-2.23-4.78-4.4-9.6-6.63-14.4h-.37l-6.61,14.4h13.61Z"/>
  <path d="M692.33,625.42c1.45,0,3,.8,3,3.96,0,3.65-2.36,6.82-3.81,8.13l-1.09.07-.65-.6.28-1.06c.44-.39,2.81-2.32,2.81-5.54l-.55.06c-1.4,0-2.59-1.16-2.59-2.53s1.18-2.5,2.59-2.5"/>
  <path d="M707.26,628.85l13.8-29.56.76-.49h.47l.76.49,13.69,29.56-.76,1.14h-1.82l-.77-.48-3.36-7.25h-16.1l-3.31,7.25-.78.48h-1.82l-.77-1.14ZM728.82,619.53c-2.23-4.78-4.4-9.6-6.62-14.4h-.38l-6.6,14.4h13.6Z"/>
  <path d="M741.25,600.08l.87-.84h11.75c5.44,0,9.89,4.14,9.89,9.37,0,4.02-2.77,7.42-6.72,8.95l6.23,11.17-.78,1.27h-2.31l-.73-.38-6.03-11.66h-8.66v11.23l-.86.81h-1.78l-.87-.81v-29.1ZM753.64,615.06c3.5,0,6.53-2.82,6.53-6.41,0-3.34-3.03-6.19-6.53-6.19h-8.79v12.6h8.79Z"/>
  <polygon points="775.29 602.19 767.4 602.19 766.54 601.35 766.54 600.09 767.4 599.25 786.64 599.25 787.5 600.09 787.5 601.35 786.64 602.19 778.74 602.19 778.74 629.15 777.88 629.99 776.15 629.99 775.29 629.15 775.29 602.19"/>
  <polygon points="792.03 600.09 792.9 599.24 810.78 599.24 811.64 600.09 811.64 601.35 810.78 602.18 795.53 602.18 795.53 612.92 808.55 612.92 809.42 613.74 809.42 615.02 808.55 615.84 795.53 615.84 795.53 627.05 810.78 627.05 811.64 627.88 811.64 629.16 810.78 629.99 792.9 629.99 792.03 629.16 792.03 600.09"/>
  <polygon points="834.47 615.2 823.54 600.52 824.25 599.25 826.39 599.25 827.12 599.64 836.28 611.9 845.45 599.64 846.16 599.25 848.31 599.25 849.03 600.52 837.96 615.15 837.96 629.16 837.1 629.98 835.33 629.98 834.47 629.16 834.47 615.2"/>
  <path d="M862.87,600.09l.82-.85h10.15c8.77,0,15.93,6.89,15.93,15.33s-7.16,15.42-15.93,15.42h-10.15l-.82-.83v-29.08ZM873.13,626.96c7.44,0,12.85-5.14,12.85-12.39s-5.41-12.35-12.85-12.35h-6.81v24.73h6.81Z"/>
  <polygon points="897.18 599.24 896.32 600.09 896.32 629.16 897.18 629.99 899 629.99 899.87 629.16 899.87 600.09 899 599.24 897.18 599.24"/>
  <path d="M906.63,625.38l.67-.84,1.6-.41c.31.28,3.63,3.34,7.66,3.34,3.68,0,6.08-2.22,6.08-4.83,0-3.01-2.73-4.82-7.94-6.92-5-2.12-7.99-4.09-7.99-9.11,0-3,2.45-7.81,9.67-7.81,4.44,0,7.75,2.25,7.75,2.25l.28,1.47-.55.85-1.59.4c-.3-.19-3.18-2.04-5.94-2.04-4.81,0-6.25,3-6.25,4.85,0,2.94,2.32,4.66,6.12,6.19,6.12,2.43,10.07,4.65,10.07,9.76,0,4.55-4.49,7.9-9.8,7.9s-8.98-3.03-9.56-3.56l-.27-1.5Z"/>
  <polygon points="932.4 600.09 933.26 599.24 951.13 599.24 951.99 600.09 951.99 601.35 951.13 602.18 935.9 602.18 935.9 612.92 948.91 612.92 949.77 613.74 949.77 615.02 948.91 615.84 935.9 615.84 935.9 627.05 951.13 627.05 951.99 627.88 951.99 629.16 951.13 629.99 933.26 629.99 932.4 629.16 932.4 600.09"/>
  <path d="M958.82,599.6l.86-.8h1.13l20.46,24.7h.08v-23.41l.87-.84h1.58l.86.84v29.56l-.86.78h-.8l-20.82-25.17h-.05v23.9l-.86.82h-1.59l-.86-.82v-29.56ZM965.8,594.69l-.17-.96c.4-.8,1.17-3.71,4.17-3.71,2.72,0,3.58,3.25,4.99,3.25,1.27,0,1.81-1.48,2.05-2.25l1.03-.33.73.33.18,1.16c-.45,1.26-1.55,3.54-4.03,3.54s-3.72-3.28-5-3.28-1.68,1.29-1.98,2.21l-1.14.42-.81-.38Z"/>
  <path d="M1007.46,598.8c9.08,0,16.33,7.08,16.33,15.86s-7.25,15.77-16.33,15.77-16.28-6.99-16.28-15.77,7.21-15.86,16.28-15.86M1007.46,627.37c7.21,0,13.14-5.72,13.14-12.71s-5.94-12.77-13.14-12.77-13.11,5.79-13.11,12.77,5.9,12.71,13.11,12.71"/>
  <path d="M312.19,472.83c0-1.03.85-1.92,1.99-1.92h41.45c1.17,0,2,.9,2,1.92v2.96c0,1-.83,1.92-2,1.92h-35.35v24.87h30.19c1.05,0,2,.91,2,1.92v2.96c0,1.11-.95,1.94-2,1.94h-30.19v25.96h35.35c1.17,0,2,.93,2,1.95v2.94c0,1.04-.83,1.95-2,1.95h-41.45c-1.15,0-1.99-.91-1.99-1.95v-67.42Z"/>
  <path d="M366.36,536.5l1.46-2.55c.53-.81,1.7-1.03,2.85-.29,0,0,4.52,3.54,9.89,3.54,4.31,0,6.84-2.14,6.84-4.88,0-3.56-3.17-5.2-9.26-8.14-5.59-2.65-11.99-6.22-11.99-13.15,0-4.28,3.58-10.61,13.36-10.61,5.48,0,9.68,1.85,11.67,3.17.95.6,1.27,2.04.64,3.16l-.84,1.64c-.64,1.11-2.11,1.42-3.05.9,0,0-4.53-2.45-8.42-2.45-4.73,0-5.99,2.36-5.99,4.08,0,3.36,3.47,4.89,7.78,6.93,7.25,3.36,13.78,6.51,13.78,13.86,0,5.92-5.89,11.52-14.52,11.52-7.04,0-11.37-2.86-13.68-4.58l-.51-2.15Z"/>
  <path d="M423.79,500.43c6.3,0,11.25,2.44,15.04,7.12l-.42,2.86-2,1.64c-1.59,1.42-2.1.4-3.05-.41-2.12-2.34-5.58-4.28-9.68-4.28-7.89,0-13.99,6.31-13.99,14.48s5.99,14.67,13.88,14.67c6.32,0,8.73-3.05,11.15-5.29,1.26-1.24,2-1.03,3.15-.21l1.15.82c1.05.72,1.37,1.84.74,2.85-3.17,4.88-8.95,8.55-16.1,8.55-11.68,0-21.57-9.05-21.57-21.28s10.2-21.5,21.67-21.5"/>
  <path d="M450.07,503.38c0-1,.95-1.94,2-1.94h3.37c1.05,0,2,.94,2,1.94v21.5c0,7.75,3.57,11.5,9.47,11.5,7.99,0,12.52-5.79,12.52-5.79v-27.21c0-1,.94-1.94,1.99-1.94h3.27c1.05,0,2,.94,2,1.94v36.88c0,1.03-.95,1.94-2,1.94h-2c-1.16,0-1.59-.72-1.9-1.73l-.72-2.64s-4.96,5.38-13.69,5.38c-12.21,0-16.31-7.64-16.31-18.43v-21.4Z"/>
  <path d="M518.12,500.43c11.05,0,19.05,7.95,19.05,18.65l-.22,2.76c-.12,1.01-.95,1.73-1.9,1.73h-30.3c.43,6.82,6.63,13.23,14.09,13.23,4.43,0,8.01-1.62,10.43-3.05,1.47-.81,2.1-1.32,2.94-.2l1.79,2.34c.73.91,1.15,1.54-.42,2.66-2.53,1.92-8.21,4.67-15.46,4.67-12.72,0-20.63-9.68-20.63-21.38s7.91-21.41,20.63-21.41M529.9,517.84c-.32-5.88-5.37-11.19-11.78-11.19-7.05,0-12.52,4.88-13.26,11.19h25.04Z"/>
  <path d="M547.67,472.83c0-1.03.95-1.92,1.99-1.92h3.27c1.04,0,2.01.9,2.01,1.92v67.42c0,1.04-.96,1.95-2.01,1.95h-3.27c-1.05,0-1.99-.91-1.99-1.95v-67.42Z"/>
  <path d="M582.68,516.33c4.54,0,8.95,1.32,8.95,1.32.1-7.55-.85-11-6.83-11s-10.74,1.52-12.63,2.25c-1.05.4-1.68-.11-2-1.03l-.85-2.55c-.41-1.21.21-1.83,1.16-2.23.63-.31,6.73-2.66,14.62-2.66,10.73,0,13.36,5.29,13.36,17.22v22.61c0,1.03-.95,1.94-1.99,1.94h-2.01c-1.15,0-1.46-.59-1.79-1.52l-.84-2.75c-2.2,2.13-6.52,5.29-13.04,5.29-7.36,0-12.95-5.18-12.95-13.34,0-7.73,6-13.54,16.83-13.54M579.95,537.11c5.26,0,9.78-3.15,11.57-5.7v-8.06c-1.25-.7-4.2-1.63-8.84-1.63-5.88,0-10.09,2.85-10.09,8.14,0,4.09,2.83,7.24,7.36,7.24"/>
  <path d="M651.48,500.43c6.95,0,11.25,2.67,11.25,2.67v-30.28c0-1,.94-1.94,2-1.94h3.27c1.04,0,1.99.94,1.99,1.94v67.45c0,1.03-.95,1.94-1.99,1.94h-2.23l-1.78-1.64-.64-2.73s-5.05,5.38-12.93,5.38c-10.73,0-19.15-9.77-19.15-21.48s7.58-21.3,20.21-21.3M651.16,536.79c7.58,0,11.48-6.72,11.48-6.72v-20.37s-4.43-2.44-10.21-2.44c-9.16,0-13.79,6.41-13.79,14.57s4.84,14.96,12.52,14.96"/>
  <path d="M701.53,500.43c11.05,0,19.05,7.95,19.05,18.65l-.22,2.76c-.1,1.01-.94,1.73-1.9,1.73h-30.3c.42,6.82,6.63,13.23,14.1,13.23,4.42,0,7.99-1.62,10.41-3.05,1.49-.81,2.1-1.32,2.95-.2l1.8,2.34c.73.91,1.15,1.54-.42,2.66-2.53,1.92-8.21,4.67-15.48,4.67-12.73,0-20.62-9.68-20.62-21.38s7.9-21.41,20.62-21.41M713.33,517.84c-.33-5.88-5.37-11.19-11.8-11.19-7.04,0-12.51,4.88-13.25,11.19h25.04Z"/>
  <path d="M756.53,472.83c0-1.02.85-1.92,1.91-1.92h23.56c20.29,0,36.93,15.98,36.93,35.54s-16.64,35.76-36.93,35.76h-23.56c-1.06,0-1.91-.91-1.91-1.95v-67.42ZM780.32,535.17c17.26,0,29.77-11.92,29.77-28.73s-12.51-28.62-29.77-28.62h-15.78v57.35h15.78Z"/>
  <path d="M827.94,477.81c0-2.74,2.22-4.87,4.95-4.87s5.05,2.13,5.05,4.87-2.21,4.79-5.05,4.79-4.95-2.14-4.95-4.79M829.43,503.38c0-1,.94-1.94,1.99-1.94h3.27c1.04,0,1.99.94,1.99,1.94v36.88c0,1.03-.95,1.94-1.99,1.94h-3.27c-1.05,0-1.99-.91-1.99-1.94v-36.88Z"/>
  <path d="M848.04,536.5l1.47-2.55c.53-.81,1.68-1.03,2.85-.29,0,0,4.53,3.54,9.89,3.54,4.31,0,6.83-2.14,6.83-4.88,0-3.56-3.15-5.2-9.25-8.14-5.58-2.65-11.99-6.22-11.99-13.15,0-4.28,3.58-10.61,13.36-10.61,5.48,0,9.68,1.85,11.68,3.17.95.6,1.27,2.04.62,3.16l-.82,1.64c-.64,1.11-2.11,1.42-3.07.9,0,0-4.52-2.45-8.41-2.45-4.73,0-6,2.36-6,4.08,0,3.36,3.47,4.89,7.78,6.93,7.26,3.36,13.78,6.51,13.78,13.86,0,5.92-5.88,11.52-14.51,11.52-7.05,0-11.37-2.86-13.68-4.58l-.52-2.15Z"/>
  <path d="M904.52,500.43c11.06,0,19.05,7.95,19.05,18.65l-.21,2.76c-.12,1.01-.95,1.73-1.9,1.73h-30.3c.43,6.82,6.64,13.23,14.1,13.23,4.42,0,8.01-1.62,10.42-3.05,1.48-.81,2.1-1.32,2.94-.2l1.8,2.34c.74.91,1.15,1.54-.42,2.66-2.53,1.92-8.2,4.67-15.47,4.67-12.71,0-20.62-9.68-20.62-21.38s7.9-21.41,20.62-21.41M916.3,517.84c-.32-5.88-5.37-11.19-11.79-11.19-7.04,0-12.52,4.88-13.25,11.19h25.04Z"/>
  <path d="M933.96,503.38c0-1,.95-1.92,2-1.92h1.99l1.68,1.22.95,3.17s6-5.41,14.72-5.41c12.21,0,16.31,7.74,16.31,18.34v21.5c0,1.03-.94,1.94-2.01,1.94h-3.36c-1.05,0-2-.91-2-1.94v-21.5c0-7.74-3.58-11.5-9.47-11.5-7.9,0-13.58,5.79-13.58,5.79v27.21c0,1.03-.94,1.94-1.99,1.94h-3.25c-1.05,0-2-.91-2-1.94v-36.88ZM937.95,482.71l-.42-2.25c.94-1.85,2.73-8.56,9.68-8.56,6.32,0,8.3,7.55,11.57,7.55,2.95,0,4.21-3.46,4.74-5.22.31-1,1.26-1.3,2.41-.81l1.69.81c1.26.63.63,1.96.41,2.67-1.04,2.94-3.57,8.24-9.36,8.24s-8.61-7.65-11.56-7.65-3.9,2.97-4.63,5.1c-.31,1.03-1.28,1.73-2.62,1.03l-1.91-.91Z"/>
  <path d="M1002.86,500.43c11.67,0,20.93,9.77,20.93,21.3s-9.26,21.48-20.93,21.48-20.94-9.77-20.94-21.48,9.26-21.3,20.94-21.3M1002.86,536.6c7.67,0,13.67-6.63,13.67-14.87s-6-14.58-13.67-14.58-13.68,6.53-13.68,14.58,6,14.87,13.68,14.87"/>
  <path d="M124.52,471.33h-19.36v35.24c0,9.24-3.03,23.91-17.04,23.91-12.41,0-12.55-11.87-12.55-20.69v-38.46h-19.35v45.45c0,16.23,7.65,28.25,25.27,28.25,10.1,0,18.48-4.47,24.4-11.46h.29v9.78h18.34v-72.03Z"/>
  <path d="M185.9,543.36h18.78l-.06-102.04h-19.35l.06,38.41h-.28c-5.79-6.85-12.57-10.07-22.24-10.07-22.82,0-31.2,17.63-31.2,37.48s8.38,37.9,31.2,37.9c9.09,0,17.02-2.79,22.81-9.78h.28v8.11ZM151.82,507.13c0-9.66,3.47-22.94,16.03-22.94s17.34,12.86,17.34,22.94-4.19,23.35-17.04,23.35-16.32-13.42-16.32-23.35"/>
  <path d="M250.49,484.19c12.56,0,16.03,13.29,16.03,22.94s-3.62,23.36-16.32,23.36-17.04-13.12-17.04-23.36,4.92-22.94,17.34-22.94M213.67,572.71h19.34v-37.61h.29c6.78,7.97,13.58,9.93,21.81,9.93,23.25,0,31.61-18.19,31.61-37.91s-8.36-37.47-31.18-37.47c-11.43,0-18.78,4.91-23.1,11.88h-.29v-10.2h-18.48v101.38Z"/>
</svg>