<?xml version="1.0" encoding="UTF-8"?>
<svg id="Capa_1" xmlns="http://www.w3.org/2000/svg" version="1.1" viewBox="0 0 1080 1080">
  <!-- Generator: Adobe Illustrator 29.5.0, SVG Export Plug-In . SVG Version: 2.1.0 Build 137)  -->
  <g>
    <g>
      <path d="M268.12,650.09h-26.06v47.44c0,12.43-4.07,32.19-22.94,32.19-16.7,0-16.9-15.98-16.9-27.85v-51.78h-26.04v61.18c0,21.85,10.3,38.03,34.02,38.03,13.6,0,24.87-6.02,32.84-15.42h.4v13.17h24.69v-96.96Z"/>
      <path d="M349.48,747.05h25.28l-.09-137.36h-26.04l.08,51.7h-.37c-7.79-9.23-16.92-13.56-29.94-13.56-30.71,0-42,23.73-42,50.45s11.28,51.02,42,51.02c12.23,0,22.92-3.76,30.7-13.17h.38v10.91ZM303.62,698.29c0-13.01,4.67-30.87,21.58-30.87s23.34,17.31,23.34,30.87-5.64,31.43-22.94,31.43-21.97-18.07-21.97-31.43"/>
      <path d="M436.34,667.4c16.91,0,21.58,17.89,21.58,30.87s-4.87,31.44-21.97,31.44-22.94-17.67-22.94-31.44,6.62-30.87,23.34-30.87M386.77,786.56h26.04v-50.63h.39c9.13,10.73,18.28,13.37,29.36,13.37,31.3,0,42.56-24.49,42.56-51.03s-11.26-50.44-41.97-50.44c-15.38,0-25.28,6.61-31.1,15.99h-.4v-13.73h-24.88v136.47Z"/>
    </g>
    <g>
      <polygon points="229.78 470.93 229.78 459.22 167.61 459.22 167.61 558.28 180.11 558.28 180.11 513.06 222.23 513.06 222.23 502.23 180.11 502.23 180.11 470.93 229.78 470.93"/>
      <path d="M297.46,480l-7.28-20.78h-8.39l-7.28,20.78-27.43,78.28h13.08l9.95-30.45h31.74l9.95,30.45h13.08l-27.43-78.28ZM273.38,517.84l12.37-37.84h.48l12.36,37.84h-25.21Z"/>
      <path d="M384.39,480l-7.28-20.78h-8.39l-7.28,20.78-27.43,78.28h13.08l9.95-30.45h31.74l9.95,30.45h13.08l-27.43-78.28ZM360.31,517.84l12.37-37.84h.48l12.36,37.84h-25.21Z"/>
      <path d="M456.21,459.22h-29.04v99.06h29.04c20.61,0,36.08-17.54,36.08-46.94v-5.17c0-29.41-15.47-46.94-36.08-46.94ZM480.5,510.83c0,22.63-11.91,36.13-27.77,36.13h-13.05v-76.23h13.05c15.86,0,27.77,13.5,27.77,36.13v3.98Z"/>
    </g>
  </g>
  <rect x="546.21" y="503.4" width="123.06" height="10.6"/>
  <g>
    <path d="M801.25,421.44l-9.72.14-4.79-10.14c-7.53,6.15-13.14,10.55-23.26,11.72-57.91,6.65-60.26-97.35,3.19-89.04,7.58.99,14.13,6.41,19.58,11.32v-52l15.02.09-.02,127.91ZM757.03,347.72c-29.76,3.14-29.14,56.24-2.83,61.26,43.13,8.23,44.97-65.7,2.83-61.26Z"/>
    <path d="M845.25,532.44c.64,29.37,40.56,37.67,52.6,11.08l11.44,5.86-.2,1.37c-8.03,20.56-25.11,23.58-44.33,21.68-43.3-4.29-47.77-77.53-4.52-87.51,20.58-4.75,42.31,2.4,49.49,23.54,4.14,9.98,2.22,23.98,2.22,23.98h-66.7ZM896.25,518.44c-1.46-29.34-46.78-27.65-50,0h50Z"/>
    <path d="M864.03,633.72c60.35-7.37,62.19,83.18,13.62,88.62-60.22,6.74-60.92-82.84-13.62-88.62ZM863.98,647.66c-24.46,4.96-24.8,57.14.86,60.69,27.38,3.78,35.65-19.07,30.11-42.11-3.58-14.89-16.1-21.59-30.97-18.57Z"/>
    <path d="M735.69,542.76c.95,2.84,2.42,5.31,4.26,7.78,6.09,8.12,32.13,12.96,38.49,2.6,4.66-7.59-1.71-14.8-9.69-16.93-7.75-2.07-17.18-3.15-22.06-4.73-7.28-2.36-16.7-7.42-18.22-15.78-6.87-37.75,48.17-41.84,63.6-15.6,2.2,3.75,2.97,6.46,2.97,6.46l-12.32,6.77c-6.22-12.44-14.56-17.78-28.89-15.81-11.47,1.58-15.79,15.03-4.28,20.1,14.54,6.41,43.75,3.35,45.73,26.26,2.88,33.17-46.61,36.57-64.59,18.6-6.01-6.01-8.71-12.7-8.71-12.7l13.7-7.02Z"/>
    <path d="M796.25,720.44h-15v-55.68c0-11.74-9.54-17.3-19.17-17.3-15.26,0-22.91,10.88-22.91,27.32v45.66h-15.91v-85h9.88s4.1,5.77,6.62,9.98c12.91-16.92,40.49-16.22,51.69,2.33,2.72,4.5,4.81,9.86,4.81,16.08v56.62Z"/>
    <polygon points="878.25 336.44 878.25 407.44 911.25 407.44 911.25 421.44 831.25 421.44 831.25 407.44 863.25 407.44 863.25 349.44 834.25 349.44 834.25 336.44 878.25 336.44"/>
    <path d="M783.27,594.44l11.93,9.42c-7.04,10.5-17.67,13.96-29.74,9.87-7.91-2.69-15.56-13.1-22.21-.74l-1.47.49-10.44-7.72c4.36-11.31,18.05-14.87,29.15-11.06,8.19,2.81,15.88,14.49,22.79-.26Z"/>
    <rect x="860.25" y="296.44" width="19" height="20"/>
  </g>
</svg>