<?xml version="1.0" encoding="UTF-8"?>
<svg id="Capa_1" xmlns="http://www.w3.org/2000/svg" version="1.1" viewBox="0 0 1080 1080">
  <!-- Generator: Adobe Illustrator 29.5.0, SVG Export Plug-In . SVG Version: 2.1.0 Build 137)  -->
  <g>
    <path d="M465.18,572.92h-31.54v57.41c0,15.04-4.93,38.95-27.77,38.95-20.21,0-20.45-19.34-20.45-33.7v-62.66h-31.51v74.04c0,26.44,12.46,46.02,41.17,46.02,16.45,0,30.1-7.28,39.74-18.67h.48v15.94h29.88v-117.33Z"/>
    <path d="M563.64,690.25h30.59l-.11-166.23h-31.51l.1,62.57h-.45c-9.43-11.16-20.48-16.4-36.23-16.4-37.17,0-50.82,28.72-50.82,61.06s13.66,61.74,50.82,61.74c14.8,0,27.73-4.55,37.15-15.94h.46v13.21ZM508.14,631.24c0-15.74,5.65-37.36,26.12-37.36s28.24,20.95,28.24,37.36-6.83,38.03-27.77,38.03-26.59-21.87-26.59-38.03"/>
    <path d="M668.75,593.86c20.46,0,26.11,21.66,26.11,37.36s-5.89,38.05-26.59,38.05-27.76-21.38-27.76-38.05,8.01-37.36,28.24-37.36M608.77,738.07h31.51v-61.27h.47c11.05,12.98,22.12,16.18,35.54,16.18,37.88,0,51.5-29.64,51.5-61.76s-13.62-61.04-50.79-61.04c-18.61,0-30.59,8-37.63,19.35h-.48v-16.62h-30.11v165.15Z"/>
  </g>
  <g>
    <polygon points="418.79 356.11 418.79 341.94 343.54 341.94 343.54 461.81 358.67 461.81 358.67 407.09 409.65 407.09 409.65 393.98 358.67 393.98 358.67 356.11 418.79 356.11"/>
    <path d="M500.69,367.08l-8.81-25.15h-10.15l-8.81,25.15-33.19,94.73h15.83l12.04-36.85h38.41l12.04,36.85h15.83l-33.19-94.73ZM471.55,412.87l14.97-45.79h.58l14.96,45.79h-30.51Z"/>
    <path d="M605.88,367.08l-8.81-25.15h-10.15l-8.81,25.15-33.19,94.73h15.83l12.04-36.85h38.41l12.04,36.85h15.83l-33.19-94.73ZM576.74,412.87l14.97-45.79h.58l14.96,45.79h-30.51Z"/>
    <path d="M692.8,341.94h-35.14v119.87h35.14c24.94,0,43.66-21.22,43.66-56.81v-6.25c0-35.59-18.72-56.81-43.66-56.81ZM722.19,404.39c0,27.39-14.41,43.72-33.6,43.72h-15.8v-92.26h15.8c19.19,0,33.6,16.33,33.6,43.72v4.81Z"/>
  </g>
</svg>