<?xml version="1.0" encoding="UTF-8"?>
<svg id="Capa_1" xmlns="http://www.w3.org/2000/svg" version="1.1" viewBox="0 0 1080 1080">
  <!-- Generator: Adobe Illustrator 29.5.0, SVG Export Plug-In . SVG Version: 2.1.0 Build 137)  -->
  <g>
    <path d="M398.99,313.22c0-7.88,1.6-14.9,4.8-21.06,3.2-6.16,7.63-10.96,13.3-14.41,5.66-3.45,12.09-5.17,19.28-5.17s13.96,1.73,19.73,5.17c5.76,3.45,10.24,8.25,13.45,14.41,3.2,6.16,4.8,13.18,4.8,21.06v3.4h-63.99c0,5.12,1.38,9.73,4.14,13.82,2.75,4.09,6.55,7.29,11.38,9.6,4.82,2.31,10.24,3.47,16.25,3.47,5.22,0,10.34-.83,15.37-2.51,5.02-1.67,9.55-4.04,13.6-7.09h.15v10.64c-3.94,3.05-8.35,5.37-13.23,6.95-4.88,1.57-10.17,2.36-15.89,2.36-8.67,0-16.25-1.67-22.76-5.02-6.5-3.35-11.53-8.07-15.07-14.18-3.55-6.11-5.32-13.25-5.32-21.43ZM407.56,306.27h64.43l-9.01,5.76c.1-5.61-.94-10.61-3.11-15-2.17-4.38-5.27-7.83-9.31-10.34-4.04-2.51-8.77-3.77-14.18-3.77-5.12,0-9.66,1.21-13.6,3.62-3.94,2.41-7,5.84-9.16,10.27-2.17,4.43-3.25,9.56-3.25,15.37l-2.81-5.91Z"/>
    <path d="M519.42,353.85c-7.19,0-13.6-1.73-19.21-5.17-5.61-3.45-9.97-8.25-13.08-14.41-3.1-6.15-4.66-13.17-4.66-21.05s1.55-14.9,4.66-21.06c3.1-6.16,7.46-10.96,13.08-14.41,5.62-3.45,12.02-5.17,19.21-5.17,6.5,0,12.41,1.73,17.73,5.17,5.32,3.45,9.48,8.25,12.49,14.41,3,6.16,4.51,13.18,4.51,21.06s-1.51,14.9-4.51,21.05c-3.01,6.16-7.17,10.96-12.49,14.41-5.32,3.45-11.23,5.17-17.73,5.17ZM520.9,343.51c5.02,0,9.63-1.33,13.82-3.99,4.19-2.66,7.49-6.31,9.9-10.94,2.41-4.63,3.62-9.75,3.62-15.37s-1.21-10.74-3.62-15.37c-2.41-4.63-5.71-8.28-9.9-10.94-4.19-2.66-8.79-3.99-13.82-3.99s-9.75,1.33-13.89,3.99c-4.14,2.66-7.41,6.31-9.82,10.94-2.42,4.63-3.62,9.75-3.62,15.37s1.21,10.74,3.62,15.37c2.41,4.63,5.69,8.28,9.82,10.94,4.14,2.66,8.77,3.99,13.89,3.99ZM560.8,350.9h-8.13l-2.22-16.99h-.74v-89.4h11.08v106.4Z"/>
    <path d="M395.29,481.33h26.3v-.74c-6.21-.89-11.3-3.01-15.29-6.35-3.99-3.35-5.99-7.14-5.99-11.38,0-5.02,2.46-9.11,7.39-12.26,4.92-3.15,11.67-4.73,20.25-4.73,3.05,0,6.4.24,10.05.74,3.64.5,7.14,1.13,10.49,1.92v10.2c-8.08-1.67-14.92-2.51-20.54-2.51-4.63,0-8.55.64-11.75,1.92-3.2,1.28-4.8,3.45-4.8,6.5,0,2.27,1.23,4.66,3.69,7.17,2.46,2.51,5.56,4.65,9.31,6.43,3.74,1.77,7.39,2.81,10.93,3.1h8.13v10.34h-48.17v-10.34ZM421.15,481.33v75.37h-11.09v-75.37h11.09Z"/>
    <path d="M500.65,520.64l-23.94,3.99c-6.7,1.19-11.6,2.81-14.7,4.88-3.11,2.07-4.66,4.78-4.66,8.13s1.33,6.01,3.99,7.98c2.66,1.97,6.16,2.95,10.49,2.95,4.83,0,9.46-1.16,13.89-3.48,4.43-2.31,8.03-5.36,10.79-9.16,2.76-3.79,4.14-7.76,4.14-11.89v17.44c-2.76,5.42-6.7,9.68-11.82,12.78-5.12,3.1-10.79,4.66-16.99,4.66-4.83,0-9.19-.91-13.08-2.73-3.9-1.82-6.95-4.36-9.16-7.61-2.22-3.25-3.32-6.89-3.32-10.94,0-6.21,2.44-11.28,7.31-15.22,4.88-3.94,12.24-6.65,22.09-8.13l24.97-3.84v10.2ZM451.59,484.73c3.84-2.07,8-3.64,12.49-4.73,4.48-1.08,9.19-1.63,14.11-1.63,10.54,0,18.77,2.83,24.68,8.5,5.91,5.67,8.86,13.38,8.86,23.13v46.7h-8.13l-2.22-15.22h-.74v-31.48c0-6.89-2.05-12.17-6.13-15.81-4.09-3.65-10.02-5.47-17.81-5.47-3.94,0-7.95.52-12.04,1.55-4.09,1.04-8.45,2.64-13.08,4.8v-10.34Z"/>
    <path d="M577.2,520.64l-23.94,3.99c-6.7,1.19-11.6,2.81-14.7,4.88-3.11,2.07-4.66,4.78-4.66,8.13s1.33,6.01,3.99,7.98c2.66,1.97,6.16,2.95,10.49,2.95,4.83,0,9.46-1.16,13.89-3.48,4.43-2.31,8.03-5.36,10.79-9.16,2.76-3.79,4.14-7.76,4.14-11.89v17.44c-2.76,5.42-6.7,9.68-11.82,12.78-5.12,3.1-10.79,4.66-16.99,4.66-4.83,0-9.19-.91-13.08-2.73-3.9-1.82-6.95-4.36-9.16-7.61-2.22-3.25-3.32-6.89-3.32-10.94,0-6.21,2.44-11.28,7.31-15.22,4.88-3.94,12.24-6.65,22.09-8.13l24.97-3.84v10.2ZM528.14,484.73c3.84-2.07,8-3.64,12.49-4.73,4.48-1.08,9.19-1.63,14.11-1.63,10.54,0,18.77,2.83,24.68,8.5,5.91,5.67,8.86,13.38,8.86,23.13v46.7h-8.13l-2.22-15.22h-.74v-31.48c0-6.89-2.05-12.17-6.13-15.81-4.09-3.65-10.02-5.47-17.81-5.47-3.94,0-7.95.52-12.04,1.55-4.09,1.04-8.45,2.64-13.08,4.8v-10.34Z"/>
    <path d="M635.57,559.65c-7.19,0-13.6-1.73-19.21-5.17-5.61-3.45-9.97-8.25-13.08-14.41-3.1-6.15-4.66-13.17-4.66-21.05s1.55-14.9,4.66-21.06c3.1-6.16,7.46-10.96,13.08-14.41,5.62-3.45,12.02-5.17,19.21-5.17,6.5,0,12.41,1.73,17.73,5.17,5.32,3.45,9.48,8.25,12.49,14.41,3,6.16,4.51,13.18,4.51,21.06s-1.51,14.9-4.51,21.05c-3.01,6.16-7.17,10.96-12.49,14.41-5.32,3.45-11.23,5.17-17.73,5.17ZM637.05,549.31c5.02,0,9.63-1.33,13.82-3.99,4.19-2.66,7.49-6.31,9.9-10.94,2.41-4.63,3.62-9.75,3.62-15.37s-1.21-10.74-3.62-15.37c-2.41-4.63-5.71-8.28-9.9-10.94-4.19-2.66-8.79-3.99-13.82-3.99s-9.75,1.33-13.89,3.99c-4.14,2.66-7.41,6.31-9.82,10.94-2.42,4.63-3.62,9.75-3.62,15.37s1.21,10.74,3.62,15.37c2.41,4.63,5.69,8.28,9.82,10.94,4.14,2.66,8.77,3.99,13.89,3.99ZM676.95,556.7h-8.13l-2.22-16.99h-.74v-89.4h11.08v106.4Z"/>
    <path d="M456.03,734.42c0,6.01-1.21,11.38-3.62,16.11-2.41,4.73-5.79,8.4-10.12,11.01-4.34,2.61-9.31,3.92-14.92,3.92-8.38,0-15.07-2.69-20.1-8.05-5.02-5.37-7.53-12.54-7.53-21.5v-48.77h11.08v48.77c0,6.01,1.77,10.71,5.32,14.11,3.55,3.4,8.42,5.1,14.63,5.1,4.53,0,8.54-1.03,12.04-3.1,3.5-2.07,6.21-4.85,8.13-8.35,1.92-3.5,2.88-7.21,2.88-11.16v-4.73h2.22v6.65ZM456.76,762.5l-2.21-15.22h-.74v-60.14h11.08v75.37h-8.13Z"/>
    <path d="M510.7,765.45c-7.19,0-13.6-1.73-19.21-5.17-5.61-3.45-9.97-8.25-13.08-14.41-3.1-6.15-4.66-13.17-4.66-21.05s1.55-14.9,4.66-21.06c3.1-6.16,7.46-10.96,13.08-14.41,5.62-3.45,12.02-5.17,19.21-5.17,6.5,0,12.41,1.73,17.73,5.17,5.32,3.45,9.48,8.25,12.49,14.41,3,6.16,4.51,13.18,4.51,21.06s-1.51,14.9-4.51,21.05c-3.01,6.16-7.17,10.96-12.49,14.41-5.32,3.45-11.23,5.17-17.73,5.17ZM512.18,755.11c5.02,0,9.63-1.33,13.82-3.99,4.19-2.66,7.49-6.31,9.9-10.94,2.41-4.63,3.62-9.75,3.62-15.37s-1.21-10.74-3.62-15.37c-2.41-4.63-5.71-8.28-9.9-10.94-4.19-2.66-8.79-3.99-13.82-3.99s-9.75,1.33-13.89,3.99c-4.14,2.66-7.41,6.31-9.82,10.94-2.42,4.63-3.62,9.75-3.62,15.37s1.21,10.74,3.62,15.37c2.41,4.63,5.69,8.28,9.82,10.94,4.14,2.66,8.77,3.99,13.89,3.99ZM552.08,762.5h-8.13l-2.22-16.99h-.74v-89.4h11.08v106.4Z"/>
    <path d="M566.12,687.13h8.13l2.21,16.99h.74v92.36h-11.08v-109.35ZM607.49,684.18c7.19,0,13.6,1.73,19.21,5.17,5.62,3.45,9.98,8.25,13.08,14.41,3.1,6.16,4.66,13.18,4.66,21.06s-1.55,14.9-4.66,21.05c-3.1,6.16-7.46,10.96-13.08,14.41-5.61,3.45-12.02,5.17-19.21,5.17-6.5,0-12.41-1.73-17.74-5.17-5.32-3.45-9.48-8.25-12.49-14.41-3-6.15-4.5-13.17-4.5-21.05s1.5-14.9,4.5-21.06c3.01-6.16,7.17-10.96,12.49-14.41,5.32-3.45,11.23-5.17,17.74-5.17ZM606.01,694.52c-5.02,0-9.63,1.33-13.82,3.99-4.19,2.66-7.49,6.31-9.9,10.94-2.41,4.63-3.62,9.75-3.62,15.37s1.21,10.74,3.62,15.37c2.41,4.63,5.71,8.28,9.9,10.94,4.19,2.66,8.8,3.99,13.82,3.99s9.75-1.33,13.89-3.99c4.14-2.66,7.41-6.31,9.83-10.94,2.41-4.63,3.62-9.75,3.62-15.37s-1.21-10.74-3.62-15.37c-2.41-4.63-5.69-8.28-9.83-10.94-4.14-2.66-8.77-3.99-13.89-3.99Z"/>
  </g>
  <rect x="392.34" y="400.7" width="295.33" height="12.3"/>
  <rect x="392.34" y="611.95" width="295.33" height="12.3"/>
  <rect x="392.34" y="823.2" width="295.33" height="12.3"/>
</svg>