%TF.GenerationSoftware,KiCad,Pcbnew,9.0.2*%
%TF.CreationDate,2025-06-20T12:04:20-04:00*%
%TF.ProjectId,Block,426c6f63-6b2e-46b6-9963-61645f706362,rev?*%
%TF.SameCoordinates,Original*%
%TF.FileFunction,Copper,L1,Top*%
%TF.FilePolarity,Positive*%
%FSLAX46Y46*%
G04 Gerber Fmt 4.6, Leading zero omitted, Abs format (unit mm)*
G04 Created by KiCad (PCBNEW 9.0.2) date 2025-06-20 12:04:20*
%MOMM*%
%LPD*%
G01*
G04 APERTURE LIST*
G04 Aperture macros list*
%AMRoundRect*
0 Rectangle with rounded corners*
0 $1 Rounding radius*
0 $2 $3 $4 $5 $6 $7 $8 $9 X,Y pos of 4 corners*
0 Add a 4 corners polygon primitive as box body*
4,1,4,$2,$3,$4,$5,$6,$7,$8,$9,$2,$3,0*
0 Add four circle primitives for the rounded corners*
1,1,$1+$1,$2,$3*
1,1,$1+$1,$4,$5*
1,1,$1+$1,$6,$7*
1,1,$1+$1,$8,$9*
0 Add four rect primitives between the rounded corners*
20,1,$1+$1,$2,$3,$4,$5,0*
20,1,$1+$1,$4,$5,$6,$7,0*
20,1,$1+$1,$6,$7,$8,$9,0*
20,1,$1+$1,$8,$9,$2,$3,0*%
G04 Aperture macros list end*
%TA.AperFunction,ComponentPad*%
%ADD10R,3.000000X3.000000*%
%TD*%
%TA.AperFunction,ComponentPad*%
%ADD11C,3.000000*%
%TD*%
%TA.AperFunction,ComponentPad*%
%ADD12C,1.600000*%
%TD*%
%TA.AperFunction,ComponentPad*%
%ADD13R,1.730000X2.030000*%
%TD*%
%TA.AperFunction,ComponentPad*%
%ADD14O,1.730000X2.030000*%
%TD*%
%TA.AperFunction,ComponentPad*%
%ADD15RoundRect,0.250000X0.550000X-0.550000X0.550000X0.550000X-0.550000X0.550000X-0.550000X-0.550000X0*%
%TD*%
%TA.AperFunction,ComponentPad*%
%ADD16RoundRect,0.250000X-0.950000X-0.550000X0.950000X-0.550000X0.950000X0.550000X-0.950000X0.550000X0*%
%TD*%
%TA.AperFunction,ComponentPad*%
%ADD17O,2.400000X1.600000*%
%TD*%
%TA.AperFunction,ComponentPad*%
%ADD18R,1.800000X1.800000*%
%TD*%
%TA.AperFunction,ComponentPad*%
%ADD19C,1.800000*%
%TD*%
%TA.AperFunction,ComponentPad*%
%ADD20RoundRect,0.250000X-0.550000X0.550000X-0.550000X-0.550000X0.550000X-0.550000X0.550000X0.550000X0*%
%TD*%
%TA.AperFunction,ComponentPad*%
%ADD21C,1.500000*%
%TD*%
%TA.AperFunction,ComponentPad*%
%ADD22R,3.300000X6.600000*%
%TD*%
%TA.AperFunction,ComponentPad*%
%ADD23O,3.300000X6.600000*%
%TD*%
%TA.AperFunction,ViaPad*%
%ADD24C,0.600000*%
%TD*%
G04 APERTURE END LIST*
D10*
%TO.P,RV1,1,1*%
%TO.N,VCC*%
X45000000Y-35000000D03*
D11*
%TO.P,RV1,2,2*%
%TO.N,Net-(U2A--)*%
X40000000Y-35000000D03*
%TO.P,RV1,3,3*%
%TO.N,GND*%
X35000000Y-35000000D03*
%TD*%
D12*
%TO.P,C2,1*%
%TO.N,Net-(U1-CV)*%
X84500000Y-46000000D03*
%TO.P,C2,2*%
%TO.N,GND*%
X92000000Y-46000000D03*
%TD*%
%TO.P,R6,1*%
%TO.N,Net-(U1-TR)*%
X62810000Y-56000000D03*
%TO.P,R6,2*%
%TO.N,Net-(D1-A)*%
X55190000Y-56000000D03*
%TD*%
%TO.P,R5,1*%
%TO.N,Net-(U2D-+)*%
X43000000Y-70000000D03*
%TO.P,R5,2*%
%TO.N,GND*%
X43000000Y-77620000D03*
%TD*%
D13*
%TO.P,J1,1,Pin_1*%
%TO.N,VCC*%
X77450000Y-75625000D03*
D14*
%TO.P,J1,2,Pin_2*%
%TO.N,Net-(J1-Pin_2)*%
X79990000Y-75625000D03*
%TO.P,J1,3,Pin_3*%
%TO.N,GND*%
X82530000Y-75625000D03*
%TD*%
D12*
%TO.P,R7,1*%
%TO.N,VCC*%
X75000000Y-37190000D03*
%TO.P,R7,2*%
%TO.N,Net-(U1-DIS)*%
X75000000Y-44810000D03*
%TD*%
D15*
%TO.P,U1,1,GND*%
%TO.N,GND*%
X76190000Y-57805000D03*
D12*
%TO.P,U1,2,TR*%
%TO.N,Net-(U1-TR)*%
X78730000Y-57805000D03*
%TO.P,U1,3,Q*%
%TO.N,Net-(J1-Pin_2)*%
X81270000Y-57805000D03*
%TO.P,U1,4,R*%
%TO.N,VCC*%
X83810000Y-57805000D03*
%TO.P,U1,5,CV*%
%TO.N,Net-(U1-CV)*%
X83810000Y-50185000D03*
%TO.P,U1,6,THR*%
%TO.N,Net-(U1-DIS)*%
X81270000Y-50185000D03*
%TO.P,U1,7,DIS*%
X78730000Y-50185000D03*
%TO.P,U1,8,VCC*%
%TO.N,VCC*%
X76190000Y-50185000D03*
%TD*%
%TO.P,R3,1*%
%TO.N,Net-(U2B-+)*%
X37000000Y-70190000D03*
%TO.P,R3,2*%
%TO.N,GND*%
X37000000Y-77810000D03*
%TD*%
D16*
%TO.P,U2,1*%
%TO.N,Net-(U1-TR)*%
X39380000Y-49460000D03*
D17*
%TO.P,U2,2,-*%
%TO.N,Net-(U2A--)*%
X39380000Y-52000000D03*
%TO.P,U2,3,+*%
%TO.N,Net-(U2A-+)*%
X39380000Y-54540000D03*
%TO.P,U2,4*%
%TO.N,N/C*%
X39380000Y-57080000D03*
%TO.P,U2,5,+*%
%TO.N,Net-(U2B-+)*%
X39380000Y-59620000D03*
%TO.P,U2,6,-*%
%TO.N,Net-(U2B--)*%
X39380000Y-62160000D03*
%TO.P,U2,7*%
X39380000Y-64700000D03*
%TO.P,U2,8*%
%TO.N,Net-(U2C--)*%
X47000000Y-64700000D03*
%TO.P,U2,9,-*%
X47000000Y-62160000D03*
%TO.P,U2,10,+*%
%TO.N,Net-(U2C-+)*%
X47000000Y-59620000D03*
%TO.P,U2,11*%
%TO.N,N/C*%
X47000000Y-57080000D03*
%TO.P,U2,12,+*%
%TO.N,Net-(U2D-+)*%
X47000000Y-54540000D03*
%TO.P,U2,13,-*%
%TO.N,Net-(U2D--)*%
X47000000Y-52000000D03*
%TO.P,U2,14*%
X47000000Y-49460000D03*
%TD*%
D18*
%TO.P,D1,1,K*%
%TO.N,GND*%
X60000000Y-62000000D03*
D19*
%TO.P,D1,2,A*%
%TO.N,Net-(D1-A)*%
X57460000Y-62000000D03*
%TD*%
D12*
%TO.P,R2,1*%
%TO.N,Net-(U2A-+)*%
X31000000Y-70380000D03*
%TO.P,R2,2*%
%TO.N,GND*%
X31000000Y-78000000D03*
%TD*%
D20*
%TO.P,C1,1*%
%TO.N,Net-(U1-DIS)*%
X63000000Y-39000000D03*
D12*
%TO.P,C1,2*%
%TO.N,GND*%
X63000000Y-41500000D03*
%TD*%
%TO.P,R4,1*%
%TO.N,Net-(U2C-+)*%
X49000000Y-70190000D03*
%TO.P,R4,2*%
%TO.N,GND*%
X49000000Y-77810000D03*
%TD*%
D21*
%TO.P,R1,1*%
%TO.N,VCC*%
X29300000Y-62000000D03*
%TO.P,R1,2*%
%TO.N,Net-(U2A-+)*%
X32700000Y-62000000D03*
%TD*%
D22*
%TO.P,J2,1,Pin_1*%
%TO.N,VCC*%
X100000000Y-39000000D03*
D23*
%TO.P,J2,2,Pin_2*%
%TO.N,GND*%
X110000000Y-39000000D03*
%TD*%
D24*
%TO.N,*%
X139000000Y-63000000D03*
%TD*%
%TA.AperFunction,Conductor*%
%TO.N,GND*%
G36*
X120002702Y-30500617D02*
G01*
X120386771Y-30517386D01*
X120397506Y-30518326D01*
X120775971Y-30568152D01*
X120786597Y-30570025D01*
X121159284Y-30652648D01*
X121169710Y-30655442D01*
X121533765Y-30770227D01*
X121543911Y-30773920D01*
X121896578Y-30920000D01*
X121906369Y-30924566D01*
X122244942Y-31100816D01*
X122254310Y-31106224D01*
X122576244Y-31311318D01*
X122585105Y-31317523D01*
X122887930Y-31549889D01*
X122896217Y-31556843D01*
X123177635Y-31814715D01*
X123185284Y-31822364D01*
X123443156Y-32103782D01*
X123450110Y-32112069D01*
X123682476Y-32414894D01*
X123688681Y-32423755D01*
X123893775Y-32745689D01*
X123899183Y-32755057D01*
X124075430Y-33093623D01*
X124080002Y-33103427D01*
X124226075Y-33456078D01*
X124229775Y-33466244D01*
X124344554Y-33830278D01*
X124347354Y-33840727D01*
X124429971Y-34213389D01*
X124431849Y-34224042D01*
X124481671Y-34602473D01*
X124482614Y-34613249D01*
X124499382Y-34997297D01*
X124499500Y-35002706D01*
X124499500Y-74997293D01*
X124499382Y-75002702D01*
X124482614Y-75386750D01*
X124481671Y-75397526D01*
X124431849Y-75775957D01*
X124429971Y-75786610D01*
X124347354Y-76159272D01*
X124344554Y-76169721D01*
X124229775Y-76533755D01*
X124226075Y-76543921D01*
X124080002Y-76896572D01*
X124075430Y-76906376D01*
X123899183Y-77244942D01*
X123893775Y-77254310D01*
X123688681Y-77576244D01*
X123682476Y-77585105D01*
X123450110Y-77887930D01*
X123443156Y-77896217D01*
X123185284Y-78177635D01*
X123177635Y-78185284D01*
X122896217Y-78443156D01*
X122887930Y-78450110D01*
X122585105Y-78682476D01*
X122576244Y-78688681D01*
X122254310Y-78893775D01*
X122244942Y-78899183D01*
X121906376Y-79075430D01*
X121896572Y-79080002D01*
X121543921Y-79226075D01*
X121533755Y-79229775D01*
X121169721Y-79344554D01*
X121159272Y-79347354D01*
X120786610Y-79429971D01*
X120775957Y-79431849D01*
X120397526Y-79481671D01*
X120386750Y-79482614D01*
X120002703Y-79499382D01*
X119997294Y-79499500D01*
X31374809Y-79499500D01*
X31307770Y-79479815D01*
X31262015Y-79427011D01*
X31252071Y-79357853D01*
X31281096Y-79294297D01*
X31336490Y-79257569D01*
X31499031Y-79204755D01*
X31681349Y-79111859D01*
X31725921Y-79079474D01*
X31046447Y-78400000D01*
X31052661Y-78400000D01*
X31154394Y-78372741D01*
X31245606Y-78320080D01*
X31320080Y-78245606D01*
X31372741Y-78154394D01*
X31400000Y-78052661D01*
X31400000Y-78046447D01*
X32079474Y-78725921D01*
X32111859Y-78681349D01*
X32204755Y-78499031D01*
X32267990Y-78304417D01*
X32300000Y-78102317D01*
X32300000Y-77897682D01*
X32272208Y-77722214D01*
X32269906Y-77707682D01*
X35700000Y-77707682D01*
X35700000Y-77912317D01*
X35732009Y-78114417D01*
X35795244Y-78309031D01*
X35888141Y-78491350D01*
X35888147Y-78491359D01*
X35920523Y-78535921D01*
X35920524Y-78535922D01*
X36600000Y-77856446D01*
X36600000Y-77862661D01*
X36627259Y-77964394D01*
X36679920Y-78055606D01*
X36754394Y-78130080D01*
X36845606Y-78182741D01*
X36947339Y-78210000D01*
X36953553Y-78210000D01*
X36274076Y-78889474D01*
X36318650Y-78921859D01*
X36500968Y-79014755D01*
X36695582Y-79077990D01*
X36897683Y-79110000D01*
X37102317Y-79110000D01*
X37304417Y-79077990D01*
X37499031Y-79014755D01*
X37681349Y-78921859D01*
X37725921Y-78889474D01*
X37046447Y-78210000D01*
X37052661Y-78210000D01*
X37154394Y-78182741D01*
X37245606Y-78130080D01*
X37320080Y-78055606D01*
X37372741Y-77964394D01*
X37400000Y-77862661D01*
X37400000Y-77856447D01*
X38079474Y-78535921D01*
X38111859Y-78491349D01*
X38204755Y-78309031D01*
X38267990Y-78114417D01*
X38300000Y-77912317D01*
X38300000Y-77707682D01*
X38272208Y-77532214D01*
X38269906Y-77517682D01*
X41700000Y-77517682D01*
X41700000Y-77722317D01*
X41732009Y-77924417D01*
X41795244Y-78119031D01*
X41888141Y-78301350D01*
X41888147Y-78301359D01*
X41920523Y-78345921D01*
X41920524Y-78345922D01*
X42600000Y-77666446D01*
X42600000Y-77672661D01*
X42627259Y-77774394D01*
X42679920Y-77865606D01*
X42754394Y-77940080D01*
X42845606Y-77992741D01*
X42947339Y-78020000D01*
X42953553Y-78020000D01*
X42274076Y-78699474D01*
X42318650Y-78731859D01*
X42500968Y-78824755D01*
X42695582Y-78887990D01*
X42897683Y-78920000D01*
X43102317Y-78920000D01*
X43304417Y-78887990D01*
X43499031Y-78824755D01*
X43681348Y-78731860D01*
X43725921Y-78699474D01*
X43046447Y-78020000D01*
X43052661Y-78020000D01*
X43154394Y-77992741D01*
X43245606Y-77940080D01*
X43320080Y-77865606D01*
X43372741Y-77774394D01*
X43400000Y-77672661D01*
X43400000Y-77666447D01*
X44079474Y-78345921D01*
X44111859Y-78301349D01*
X44204755Y-78119031D01*
X44267990Y-77924417D01*
X44300000Y-77722317D01*
X44300000Y-77707682D01*
X47700000Y-77707682D01*
X47700000Y-77912317D01*
X47732009Y-78114417D01*
X47795244Y-78309031D01*
X47888141Y-78491350D01*
X47888147Y-78491359D01*
X47920523Y-78535921D01*
X47920524Y-78535922D01*
X48600000Y-77856446D01*
X48600000Y-77862661D01*
X48627259Y-77964394D01*
X48679920Y-78055606D01*
X48754394Y-78130080D01*
X48845606Y-78182741D01*
X48947339Y-78210000D01*
X48953553Y-78210000D01*
X48274076Y-78889474D01*
X48318650Y-78921859D01*
X48500968Y-79014755D01*
X48695582Y-79077990D01*
X48897683Y-79110000D01*
X49102317Y-79110000D01*
X49304417Y-79077990D01*
X49499031Y-79014755D01*
X49681349Y-78921859D01*
X49725921Y-78889474D01*
X49046447Y-78210000D01*
X49052661Y-78210000D01*
X49154394Y-78182741D01*
X49245606Y-78130080D01*
X49320080Y-78055606D01*
X49372741Y-77964394D01*
X49400000Y-77862661D01*
X49400000Y-77856447D01*
X50079474Y-78535921D01*
X50111859Y-78491349D01*
X50204755Y-78309031D01*
X50267990Y-78114417D01*
X50300000Y-77912317D01*
X50300000Y-77707682D01*
X50267990Y-77505582D01*
X50204755Y-77310968D01*
X50111859Y-77128650D01*
X50079474Y-77084077D01*
X50079474Y-77084076D01*
X49400000Y-77763551D01*
X49400000Y-77757339D01*
X49372741Y-77655606D01*
X49320080Y-77564394D01*
X49245606Y-77489920D01*
X49154394Y-77437259D01*
X49052661Y-77410000D01*
X49046446Y-77410000D01*
X49725922Y-76730524D01*
X49725921Y-76730523D01*
X49681359Y-76698147D01*
X49681350Y-76698141D01*
X49499031Y-76605244D01*
X49304417Y-76542009D01*
X49102317Y-76510000D01*
X48897683Y-76510000D01*
X48695582Y-76542009D01*
X48500968Y-76605244D01*
X48318644Y-76698143D01*
X48274077Y-76730523D01*
X48274077Y-76730524D01*
X48953554Y-77410000D01*
X48947339Y-77410000D01*
X48845606Y-77437259D01*
X48754394Y-77489920D01*
X48679920Y-77564394D01*
X48627259Y-77655606D01*
X48600000Y-77757339D01*
X48600000Y-77763553D01*
X47920524Y-77084077D01*
X47920523Y-77084077D01*
X47888143Y-77128644D01*
X47795244Y-77310968D01*
X47732009Y-77505582D01*
X47700000Y-77707682D01*
X44300000Y-77707682D01*
X44300000Y-77517682D01*
X44267990Y-77315582D01*
X44204755Y-77120968D01*
X44111859Y-76938650D01*
X44079474Y-76894077D01*
X44079474Y-76894076D01*
X43400000Y-77573551D01*
X43400000Y-77567339D01*
X43372741Y-77465606D01*
X43320080Y-77374394D01*
X43245606Y-77299920D01*
X43154394Y-77247259D01*
X43052661Y-77220000D01*
X43046446Y-77220000D01*
X43725922Y-76540524D01*
X43725921Y-76540523D01*
X43681359Y-76508147D01*
X43681350Y-76508141D01*
X43499031Y-76415244D01*
X43304417Y-76352009D01*
X43102317Y-76320000D01*
X42897683Y-76320000D01*
X42695582Y-76352009D01*
X42500968Y-76415244D01*
X42318644Y-76508143D01*
X42274077Y-76540523D01*
X42274077Y-76540524D01*
X42953554Y-77220000D01*
X42947339Y-77220000D01*
X42845606Y-77247259D01*
X42754394Y-77299920D01*
X42679920Y-77374394D01*
X42627259Y-77465606D01*
X42600000Y-77567339D01*
X42600000Y-77573553D01*
X41920524Y-76894077D01*
X41920523Y-76894077D01*
X41888143Y-76938644D01*
X41795244Y-77120968D01*
X41732009Y-77315582D01*
X41700000Y-77517682D01*
X38269906Y-77517682D01*
X38267989Y-77505582D01*
X38204755Y-77310968D01*
X38111859Y-77128650D01*
X38079474Y-77084077D01*
X38079474Y-77084076D01*
X37400000Y-77763551D01*
X37400000Y-77757339D01*
X37372741Y-77655606D01*
X37320080Y-77564394D01*
X37245606Y-77489920D01*
X37154394Y-77437259D01*
X37052661Y-77410000D01*
X37046446Y-77410000D01*
X37725922Y-76730524D01*
X37725921Y-76730523D01*
X37681359Y-76698147D01*
X37681349Y-76698141D01*
X37499031Y-76605244D01*
X37304417Y-76542009D01*
X37102317Y-76510000D01*
X36897683Y-76510000D01*
X36695582Y-76542009D01*
X36500968Y-76605244D01*
X36318644Y-76698143D01*
X36274077Y-76730523D01*
X36274077Y-76730524D01*
X36953554Y-77410000D01*
X36947339Y-77410000D01*
X36845606Y-77437259D01*
X36754394Y-77489920D01*
X36679920Y-77564394D01*
X36627259Y-77655606D01*
X36600000Y-77757339D01*
X36600000Y-77763553D01*
X35920524Y-77084077D01*
X35920523Y-77084077D01*
X35888143Y-77128644D01*
X35795244Y-77310968D01*
X35732009Y-77505582D01*
X35700000Y-77707682D01*
X32269906Y-77707682D01*
X32267989Y-77695582D01*
X32204755Y-77500968D01*
X32111859Y-77318650D01*
X32079474Y-77274077D01*
X32079474Y-77274076D01*
X31400000Y-77953551D01*
X31400000Y-77947339D01*
X31372741Y-77845606D01*
X31320080Y-77754394D01*
X31245606Y-77679920D01*
X31154394Y-77627259D01*
X31052661Y-77600000D01*
X31046446Y-77600000D01*
X31725922Y-76920524D01*
X31725921Y-76920523D01*
X31681359Y-76888147D01*
X31681349Y-76888141D01*
X31499031Y-76795244D01*
X31304417Y-76732009D01*
X31102317Y-76700000D01*
X30897683Y-76700000D01*
X30695582Y-76732009D01*
X30500968Y-76795244D01*
X30318644Y-76888143D01*
X30274077Y-76920523D01*
X30274077Y-76920524D01*
X30953554Y-77600000D01*
X30947339Y-77600000D01*
X30845606Y-77627259D01*
X30754394Y-77679920D01*
X30679920Y-77754394D01*
X30627259Y-77845606D01*
X30600000Y-77947339D01*
X30600000Y-77953553D01*
X29920524Y-77274077D01*
X29920523Y-77274077D01*
X29888143Y-77318644D01*
X29795244Y-77500968D01*
X29732009Y-77695582D01*
X29700000Y-77897682D01*
X29700000Y-78102317D01*
X29732009Y-78304417D01*
X29795244Y-78499031D01*
X29888141Y-78681350D01*
X29888147Y-78681359D01*
X29920523Y-78725921D01*
X29920524Y-78725922D01*
X30600000Y-78046446D01*
X30600000Y-78052661D01*
X30627259Y-78154394D01*
X30679920Y-78245606D01*
X30754394Y-78320080D01*
X30845606Y-78372741D01*
X30947339Y-78400000D01*
X30953553Y-78400000D01*
X30274076Y-79079474D01*
X30318650Y-79111859D01*
X30500968Y-79204755D01*
X30663510Y-79257569D01*
X30721185Y-79297007D01*
X30748383Y-79361366D01*
X30736468Y-79430212D01*
X30689224Y-79481688D01*
X30625191Y-79499500D01*
X30002706Y-79499500D01*
X29997297Y-79499382D01*
X29613249Y-79482614D01*
X29602473Y-79481671D01*
X29224042Y-79431849D01*
X29213389Y-79429971D01*
X28840727Y-79347354D01*
X28830278Y-79344554D01*
X28466244Y-79229775D01*
X28456078Y-79226075D01*
X28103427Y-79080002D01*
X28093623Y-79075430D01*
X27755057Y-78899183D01*
X27745689Y-78893775D01*
X27423755Y-78688681D01*
X27414894Y-78682476D01*
X27112069Y-78450110D01*
X27103782Y-78443156D01*
X26822364Y-78185284D01*
X26814715Y-78177635D01*
X26630493Y-77976592D01*
X26630492Y-77976591D01*
X26556833Y-77896206D01*
X26549889Y-77887930D01*
X26317523Y-77585105D01*
X26311318Y-77576244D01*
X26266301Y-77505582D01*
X26106223Y-77254309D01*
X26100816Y-77244942D01*
X26043110Y-77134091D01*
X25924566Y-76906369D01*
X25919997Y-76896572D01*
X25918963Y-76894076D01*
X25773920Y-76543911D01*
X25770224Y-76533755D01*
X25655442Y-76169710D01*
X25652648Y-76159284D01*
X25570025Y-75786597D01*
X25568152Y-75775971D01*
X25518326Y-75397506D01*
X25517386Y-75386771D01*
X25500618Y-75002702D01*
X25500500Y-74997293D01*
X25500500Y-74562135D01*
X76084500Y-74562135D01*
X76084500Y-76687870D01*
X76084501Y-76687876D01*
X76090908Y-76747483D01*
X76141202Y-76882328D01*
X76141206Y-76882335D01*
X76227452Y-76997544D01*
X76227455Y-76997547D01*
X76342664Y-77083793D01*
X76342671Y-77083797D01*
X76477517Y-77134091D01*
X76477516Y-77134091D01*
X76484444Y-77134835D01*
X76537127Y-77140500D01*
X78362872Y-77140499D01*
X78422483Y-77134091D01*
X78557331Y-77083796D01*
X78672546Y-76997546D01*
X78758796Y-76882331D01*
X78802048Y-76766365D01*
X78843917Y-76710433D01*
X78909381Y-76686015D01*
X78977654Y-76700866D01*
X79005910Y-76722018D01*
X79100437Y-76816545D01*
X79274322Y-76942880D01*
X79368251Y-76990739D01*
X79465829Y-77040458D01*
X79465832Y-77040459D01*
X79600073Y-77084076D01*
X79670245Y-77106876D01*
X79882533Y-77140500D01*
X79882534Y-77140500D01*
X80097466Y-77140500D01*
X80097467Y-77140500D01*
X80309755Y-77106876D01*
X80309758Y-77106875D01*
X80309759Y-77106875D01*
X80514167Y-77040459D01*
X80514170Y-77040458D01*
X80515077Y-77039996D01*
X80705678Y-76942880D01*
X80879563Y-76816545D01*
X81031545Y-76664563D01*
X81157880Y-76490678D01*
X81157881Y-76490675D01*
X81159990Y-76487773D01*
X81215320Y-76445107D01*
X81284933Y-76439128D01*
X81346728Y-76471734D01*
X81360626Y-76487772D01*
X81488838Y-76664239D01*
X81488838Y-76664240D01*
X81640759Y-76816161D01*
X81814583Y-76942452D01*
X82006024Y-77039996D01*
X82210359Y-77106388D01*
X82279999Y-77117418D01*
X82280000Y-77117418D01*
X82280000Y-76069560D01*
X82333147Y-76100245D01*
X82462857Y-76135000D01*
X82597143Y-76135000D01*
X82726853Y-76100245D01*
X82780000Y-76069560D01*
X82780000Y-77117418D01*
X82849638Y-77106388D01*
X82849641Y-77106388D01*
X83053975Y-77039996D01*
X83245416Y-76942452D01*
X83419240Y-76816161D01*
X83571161Y-76664240D01*
X83697452Y-76490416D01*
X83794996Y-76298975D01*
X83861388Y-76094642D01*
X83861388Y-76094639D01*
X83895000Y-75882427D01*
X83895000Y-75875000D01*
X82974560Y-75875000D01*
X83005245Y-75821853D01*
X83040000Y-75692143D01*
X83040000Y-75557857D01*
X83005245Y-75428147D01*
X82974560Y-75375000D01*
X83895000Y-75375000D01*
X83895000Y-75367572D01*
X83861388Y-75155360D01*
X83861388Y-75155357D01*
X83794996Y-74951024D01*
X83697452Y-74759583D01*
X83571161Y-74585759D01*
X83419240Y-74433838D01*
X83245416Y-74307547D01*
X83053975Y-74210003D01*
X82849635Y-74143610D01*
X82849636Y-74143610D01*
X82780000Y-74132581D01*
X82780000Y-75180439D01*
X82726853Y-75149755D01*
X82597143Y-75115000D01*
X82462857Y-75115000D01*
X82333147Y-75149755D01*
X82280000Y-75180439D01*
X82280000Y-74132581D01*
X82210364Y-74143610D01*
X82006024Y-74210003D01*
X81814583Y-74307547D01*
X81640759Y-74433838D01*
X81488838Y-74585759D01*
X81488838Y-74585760D01*
X81360626Y-74762227D01*
X81305296Y-74804892D01*
X81235682Y-74810871D01*
X81173887Y-74778265D01*
X81159990Y-74762226D01*
X81109079Y-74692153D01*
X81031545Y-74585437D01*
X80879563Y-74433455D01*
X80705678Y-74307120D01*
X80514170Y-74209541D01*
X80514167Y-74209540D01*
X80309757Y-74143124D01*
X80168229Y-74120708D01*
X80097467Y-74109500D01*
X79882533Y-74109500D01*
X79811770Y-74120708D01*
X79670243Y-74143124D01*
X79670240Y-74143124D01*
X79465832Y-74209540D01*
X79465829Y-74209541D01*
X79274321Y-74307120D01*
X79100438Y-74433454D01*
X79005910Y-74527982D01*
X78944586Y-74561466D01*
X78874895Y-74556482D01*
X78818962Y-74514610D01*
X78802047Y-74483632D01*
X78758798Y-74367673D01*
X78758793Y-74367664D01*
X78672547Y-74252455D01*
X78672544Y-74252452D01*
X78557335Y-74166206D01*
X78557328Y-74166202D01*
X78422482Y-74115908D01*
X78422483Y-74115908D01*
X78362883Y-74109501D01*
X78362881Y-74109500D01*
X78362873Y-74109500D01*
X78362864Y-74109500D01*
X76537129Y-74109500D01*
X76537123Y-74109501D01*
X76477516Y-74115908D01*
X76342671Y-74166202D01*
X76342664Y-74166206D01*
X76227455Y-74252452D01*
X76227452Y-74252455D01*
X76141206Y-74367664D01*
X76141202Y-74367671D01*
X76090908Y-74502517D01*
X76084501Y-74562116D01*
X76084500Y-74562135D01*
X25500500Y-74562135D01*
X25500500Y-70277648D01*
X29699500Y-70277648D01*
X29699500Y-70482352D01*
X29702172Y-70499219D01*
X29731522Y-70684534D01*
X29794781Y-70879223D01*
X29887715Y-71061613D01*
X30008028Y-71227213D01*
X30152786Y-71371971D01*
X30271854Y-71458477D01*
X30318390Y-71492287D01*
X30434607Y-71551503D01*
X30500776Y-71585218D01*
X30500778Y-71585218D01*
X30500781Y-71585220D01*
X30605137Y-71619127D01*
X30695465Y-71648477D01*
X30796557Y-71664488D01*
X30897648Y-71680500D01*
X30897649Y-71680500D01*
X31102351Y-71680500D01*
X31102352Y-71680500D01*
X31304534Y-71648477D01*
X31499219Y-71585220D01*
X31681610Y-71492287D01*
X31774590Y-71424732D01*
X31847213Y-71371971D01*
X31847215Y-71371968D01*
X31847219Y-71371966D01*
X31991966Y-71227219D01*
X31991968Y-71227215D01*
X31991971Y-71227213D01*
X32075470Y-71112284D01*
X32112287Y-71061610D01*
X32205220Y-70879219D01*
X32268477Y-70684534D01*
X32300500Y-70482352D01*
X32300500Y-70277648D01*
X32270406Y-70087648D01*
X35699500Y-70087648D01*
X35699500Y-70292352D01*
X35703878Y-70319995D01*
X35731522Y-70494534D01*
X35794781Y-70689223D01*
X35887715Y-70871613D01*
X36008028Y-71037213D01*
X36152786Y-71181971D01*
X36271854Y-71268477D01*
X36318390Y-71302287D01*
X36434607Y-71361503D01*
X36500776Y-71395218D01*
X36500778Y-71395218D01*
X36500781Y-71395220D01*
X36605137Y-71429127D01*
X36695465Y-71458477D01*
X36796557Y-71474488D01*
X36897648Y-71490500D01*
X36897649Y-71490500D01*
X37102351Y-71490500D01*
X37102352Y-71490500D01*
X37304534Y-71458477D01*
X37499219Y-71395220D01*
X37681610Y-71302287D01*
X37784941Y-71227213D01*
X37847213Y-71181971D01*
X37847215Y-71181968D01*
X37847219Y-71181966D01*
X37991966Y-71037219D01*
X37991968Y-71037215D01*
X37991971Y-71037213D01*
X38044732Y-70964590D01*
X38112287Y-70871610D01*
X38205220Y-70689219D01*
X38268477Y-70494534D01*
X38300500Y-70292352D01*
X38300500Y-70087648D01*
X38270406Y-69897648D01*
X41699500Y-69897648D01*
X41699500Y-70102351D01*
X41731522Y-70304534D01*
X41794781Y-70499223D01*
X41887715Y-70681613D01*
X42008028Y-70847213D01*
X42152786Y-70991971D01*
X42307749Y-71104556D01*
X42318390Y-71112287D01*
X42434607Y-71171503D01*
X42500776Y-71205218D01*
X42500778Y-71205218D01*
X42500781Y-71205220D01*
X42568487Y-71227219D01*
X42695465Y-71268477D01*
X42796557Y-71284488D01*
X42897648Y-71300500D01*
X42897649Y-71300500D01*
X43102351Y-71300500D01*
X43102352Y-71300500D01*
X43304534Y-71268477D01*
X43499219Y-71205220D01*
X43681610Y-71112287D01*
X43784941Y-71037213D01*
X43847213Y-70991971D01*
X43847215Y-70991968D01*
X43847219Y-70991966D01*
X43991966Y-70847219D01*
X43991968Y-70847215D01*
X43991971Y-70847213D01*
X44044732Y-70774590D01*
X44112287Y-70681610D01*
X44205220Y-70499219D01*
X44268477Y-70304534D01*
X44300500Y-70102352D01*
X44300500Y-70087648D01*
X47699500Y-70087648D01*
X47699500Y-70292352D01*
X47703878Y-70319995D01*
X47731522Y-70494534D01*
X47794781Y-70689223D01*
X47887715Y-70871613D01*
X48008028Y-71037213D01*
X48152786Y-71181971D01*
X48271854Y-71268477D01*
X48318390Y-71302287D01*
X48434607Y-71361503D01*
X48500776Y-71395218D01*
X48500778Y-71395218D01*
X48500781Y-71395220D01*
X48605137Y-71429127D01*
X48695465Y-71458477D01*
X48796557Y-71474488D01*
X48897648Y-71490500D01*
X48897649Y-71490500D01*
X49102351Y-71490500D01*
X49102352Y-71490500D01*
X49304534Y-71458477D01*
X49499219Y-71395220D01*
X49681610Y-71302287D01*
X49784941Y-71227213D01*
X49847213Y-71181971D01*
X49847215Y-71181968D01*
X49847219Y-71181966D01*
X49991966Y-71037219D01*
X49991968Y-71037215D01*
X49991971Y-71037213D01*
X50044732Y-70964590D01*
X50112287Y-70871610D01*
X50205220Y-70689219D01*
X50268477Y-70494534D01*
X50300500Y-70292352D01*
X50300500Y-70087648D01*
X50272707Y-69912173D01*
X50268477Y-69885465D01*
X50205218Y-69690776D01*
X50124717Y-69532786D01*
X50112287Y-69508390D01*
X50104556Y-69497749D01*
X49991971Y-69342786D01*
X49847213Y-69198028D01*
X49681613Y-69077715D01*
X49681612Y-69077714D01*
X49681610Y-69077713D01*
X49624653Y-69048691D01*
X49499223Y-68984781D01*
X49304534Y-68921522D01*
X49129995Y-68893878D01*
X49102352Y-68889500D01*
X48897648Y-68889500D01*
X48873329Y-68893351D01*
X48695465Y-68921522D01*
X48500776Y-68984781D01*
X48318386Y-69077715D01*
X48152786Y-69198028D01*
X48008028Y-69342786D01*
X47887715Y-69508386D01*
X47794781Y-69690776D01*
X47731522Y-69885465D01*
X47701431Y-70075459D01*
X47699500Y-70087648D01*
X44300500Y-70087648D01*
X44300500Y-69897648D01*
X44268940Y-69698390D01*
X44268477Y-69695465D01*
X44205218Y-69500776D01*
X44124717Y-69342786D01*
X44112287Y-69318390D01*
X44075470Y-69267715D01*
X43991971Y-69152786D01*
X43847213Y-69008028D01*
X43681613Y-68887715D01*
X43681612Y-68887714D01*
X43681610Y-68887713D01*
X43624653Y-68858691D01*
X43499223Y-68794781D01*
X43304534Y-68731522D01*
X43129995Y-68703878D01*
X43102352Y-68699500D01*
X42897648Y-68699500D01*
X42873329Y-68703351D01*
X42695465Y-68731522D01*
X42500776Y-68794781D01*
X42318386Y-68887715D01*
X42152786Y-69008028D01*
X42008028Y-69152786D01*
X41887715Y-69318386D01*
X41794781Y-69500776D01*
X41731522Y-69695465D01*
X41699500Y-69897648D01*
X38270406Y-69897648D01*
X38268477Y-69885466D01*
X38205220Y-69690781D01*
X38205218Y-69690778D01*
X38205218Y-69690776D01*
X38124717Y-69532786D01*
X38112287Y-69508390D01*
X38104556Y-69497749D01*
X37991971Y-69342786D01*
X37847213Y-69198028D01*
X37681613Y-69077715D01*
X37681612Y-69077714D01*
X37681610Y-69077713D01*
X37624653Y-69048691D01*
X37499223Y-68984781D01*
X37304534Y-68921522D01*
X37129995Y-68893878D01*
X37102352Y-68889500D01*
X36897648Y-68889500D01*
X36873329Y-68893351D01*
X36695465Y-68921522D01*
X36500776Y-68984781D01*
X36318386Y-69077715D01*
X36152786Y-69198028D01*
X36008028Y-69342786D01*
X35887715Y-69508386D01*
X35794781Y-69690776D01*
X35731522Y-69885465D01*
X35701431Y-70075459D01*
X35699500Y-70087648D01*
X32270406Y-70087648D01*
X32268477Y-70075466D01*
X32205220Y-69880781D01*
X32205218Y-69880778D01*
X32205218Y-69880776D01*
X32171503Y-69814607D01*
X32112287Y-69698390D01*
X32104556Y-69687749D01*
X31991971Y-69532786D01*
X31847213Y-69388028D01*
X31681613Y-69267715D01*
X31681612Y-69267714D01*
X31681610Y-69267713D01*
X31624653Y-69238691D01*
X31499223Y-69174781D01*
X31304534Y-69111522D01*
X31129995Y-69083878D01*
X31102352Y-69079500D01*
X30897648Y-69079500D01*
X30873329Y-69083351D01*
X30695465Y-69111522D01*
X30500776Y-69174781D01*
X30318386Y-69267715D01*
X30152786Y-69388028D01*
X30008028Y-69532786D01*
X29887715Y-69698386D01*
X29794781Y-69880776D01*
X29731522Y-70075465D01*
X29699500Y-70277648D01*
X25500500Y-70277648D01*
X25500500Y-61901577D01*
X28049500Y-61901577D01*
X28049500Y-62098422D01*
X28080290Y-62292826D01*
X28141117Y-62480029D01*
X28230476Y-62655405D01*
X28346172Y-62814646D01*
X28485354Y-62953828D01*
X28644595Y-63069524D01*
X28727455Y-63111743D01*
X28819970Y-63158882D01*
X28819972Y-63158882D01*
X28819975Y-63158884D01*
X28920317Y-63191487D01*
X29007173Y-63219709D01*
X29201578Y-63250500D01*
X29201583Y-63250500D01*
X29398422Y-63250500D01*
X29592826Y-63219709D01*
X29660208Y-63197815D01*
X29780025Y-63158884D01*
X29955405Y-63069524D01*
X30114646Y-62953828D01*
X30253828Y-62814646D01*
X30369524Y-62655405D01*
X30458884Y-62480025D01*
X30519709Y-62292826D01*
X30550500Y-62098422D01*
X30550500Y-61901577D01*
X31449500Y-61901577D01*
X31449500Y-62098422D01*
X31480290Y-62292826D01*
X31541117Y-62480029D01*
X31630476Y-62655405D01*
X31746172Y-62814646D01*
X31885354Y-62953828D01*
X32044595Y-63069524D01*
X32127455Y-63111743D01*
X32219970Y-63158882D01*
X32219972Y-63158882D01*
X32219975Y-63158884D01*
X32320317Y-63191487D01*
X32407173Y-63219709D01*
X32601578Y-63250500D01*
X32601583Y-63250500D01*
X32798422Y-63250500D01*
X32992826Y-63219709D01*
X33060208Y-63197815D01*
X33180025Y-63158884D01*
X33355405Y-63069524D01*
X33514646Y-62953828D01*
X33653828Y-62814646D01*
X33769524Y-62655405D01*
X33858884Y-62480025D01*
X33919709Y-62292826D01*
X33950500Y-62098422D01*
X33950500Y-61901577D01*
X33919709Y-61707173D01*
X33858882Y-61519970D01*
X33769523Y-61344594D01*
X33746413Y-61312786D01*
X33653828Y-61185354D01*
X33514646Y-61046172D01*
X33355405Y-60930476D01*
X33180029Y-60841117D01*
X32992826Y-60780290D01*
X32798422Y-60749500D01*
X32798417Y-60749500D01*
X32601583Y-60749500D01*
X32601578Y-60749500D01*
X32407173Y-60780290D01*
X32219970Y-60841117D01*
X32044594Y-60930476D01*
X31973244Y-60982316D01*
X31885354Y-61046172D01*
X31885352Y-61046174D01*
X31885351Y-61046174D01*
X31746174Y-61185351D01*
X31746174Y-61185352D01*
X31746172Y-61185354D01*
X31696485Y-61253741D01*
X31630476Y-61344594D01*
X31541117Y-61519970D01*
X31480290Y-61707173D01*
X31449500Y-61901577D01*
X30550500Y-61901577D01*
X30519709Y-61707173D01*
X30458882Y-61519970D01*
X30369523Y-61344594D01*
X30346413Y-61312786D01*
X30253828Y-61185354D01*
X30114646Y-61046172D01*
X29955405Y-60930476D01*
X29780029Y-60841117D01*
X29592826Y-60780290D01*
X29398422Y-60749500D01*
X29398417Y-60749500D01*
X29201583Y-60749500D01*
X29201578Y-60749500D01*
X29007173Y-60780290D01*
X28819970Y-60841117D01*
X28644594Y-60930476D01*
X28573244Y-60982316D01*
X28485354Y-61046172D01*
X28485352Y-61046174D01*
X28485351Y-61046174D01*
X28346174Y-61185351D01*
X28346174Y-61185352D01*
X28346172Y-61185354D01*
X28296485Y-61253741D01*
X28230476Y-61344594D01*
X28141117Y-61519970D01*
X28080290Y-61707173D01*
X28049500Y-61901577D01*
X25500500Y-61901577D01*
X25500500Y-48859983D01*
X37679500Y-48859983D01*
X37679500Y-50060001D01*
X37679501Y-50060018D01*
X37690000Y-50162796D01*
X37690001Y-50162799D01*
X37737856Y-50307213D01*
X37745186Y-50329334D01*
X37837288Y-50478656D01*
X37961344Y-50602712D01*
X38110666Y-50694814D01*
X38192570Y-50721954D01*
X38250015Y-50761727D01*
X38276838Y-50826243D01*
X38264523Y-50895018D01*
X38226451Y-50939978D01*
X38132787Y-51008028D01*
X38132782Y-51008032D01*
X37988028Y-51152786D01*
X37867715Y-51318386D01*
X37774781Y-51500776D01*
X37711522Y-51695465D01*
X37679500Y-51897648D01*
X37679500Y-52102351D01*
X37711522Y-52304534D01*
X37774781Y-52499223D01*
X37867715Y-52681613D01*
X37988028Y-52847213D01*
X38132786Y-52991971D01*
X38287749Y-53104556D01*
X38298390Y-53112287D01*
X38389840Y-53158883D01*
X38391080Y-53159515D01*
X38441876Y-53207490D01*
X38458671Y-53275311D01*
X38436134Y-53341446D01*
X38391080Y-53380485D01*
X38298386Y-53427715D01*
X38132786Y-53548028D01*
X37988028Y-53692786D01*
X37867715Y-53858386D01*
X37774781Y-54040776D01*
X37711522Y-54235465D01*
X37679500Y-54437648D01*
X37679500Y-54642351D01*
X37711522Y-54844534D01*
X37774781Y-55039223D01*
X37867715Y-55221613D01*
X37988028Y-55387213D01*
X38132786Y-55531971D01*
X38287749Y-55644556D01*
X38298390Y-55652287D01*
X38389840Y-55698883D01*
X38391080Y-55699515D01*
X38441876Y-55747490D01*
X38458671Y-55815311D01*
X38436134Y-55881446D01*
X38391080Y-55920485D01*
X38298386Y-55967715D01*
X38132786Y-56088028D01*
X37988028Y-56232786D01*
X37867715Y-56398386D01*
X37774781Y-56580776D01*
X37711522Y-56775465D01*
X37679500Y-56977648D01*
X37679500Y-57182351D01*
X37711522Y-57384534D01*
X37774781Y-57579223D01*
X37837670Y-57702648D01*
X37862989Y-57752339D01*
X37867715Y-57761613D01*
X37988028Y-57927213D01*
X38132786Y-58071971D01*
X38278369Y-58177741D01*
X38298390Y-58192287D01*
X38389840Y-58238883D01*
X38391080Y-58239515D01*
X38441876Y-58287490D01*
X38458671Y-58355311D01*
X38436134Y-58421446D01*
X38391080Y-58460485D01*
X38298386Y-58507715D01*
X38132786Y-58628028D01*
X37988028Y-58772786D01*
X37867715Y-58938386D01*
X37774781Y-59120776D01*
X37711522Y-59315465D01*
X37679500Y-59517648D01*
X37679500Y-59722351D01*
X37711522Y-59924534D01*
X37774781Y-60119223D01*
X37867715Y-60301613D01*
X37988028Y-60467213D01*
X38132786Y-60611971D01*
X38287749Y-60724556D01*
X38298390Y-60732287D01*
X38389840Y-60778883D01*
X38391080Y-60779515D01*
X38441876Y-60827490D01*
X38458671Y-60895311D01*
X38436134Y-60961446D01*
X38391080Y-61000485D01*
X38298386Y-61047715D01*
X38132786Y-61168028D01*
X37988028Y-61312786D01*
X37867715Y-61478386D01*
X37774781Y-61660776D01*
X37711522Y-61855465D01*
X37679500Y-62057648D01*
X37679500Y-62262351D01*
X37711522Y-62464534D01*
X37774781Y-62659223D01*
X37867715Y-62841613D01*
X37988028Y-63007213D01*
X38132786Y-63151971D01*
X38287749Y-63264556D01*
X38298390Y-63272287D01*
X38389840Y-63318883D01*
X38391080Y-63319515D01*
X38441876Y-63367490D01*
X38458671Y-63435311D01*
X38436134Y-63501446D01*
X38391080Y-63540485D01*
X38298386Y-63587715D01*
X38132786Y-63708028D01*
X37988028Y-63852786D01*
X37867715Y-64018386D01*
X37774781Y-64200776D01*
X37711522Y-64395465D01*
X37679500Y-64597648D01*
X37679500Y-64802351D01*
X37711522Y-65004534D01*
X37774781Y-65199223D01*
X37867715Y-65381613D01*
X37988028Y-65547213D01*
X38132786Y-65691971D01*
X38287749Y-65804556D01*
X38298390Y-65812287D01*
X38414607Y-65871503D01*
X38480776Y-65905218D01*
X38480778Y-65905218D01*
X38480781Y-65905220D01*
X38585137Y-65939127D01*
X38675465Y-65968477D01*
X38776557Y-65984488D01*
X38877648Y-66000500D01*
X38877649Y-66000500D01*
X39882351Y-66000500D01*
X39882352Y-66000500D01*
X40084534Y-65968477D01*
X40279219Y-65905220D01*
X40461610Y-65812287D01*
X40554590Y-65744732D01*
X40627213Y-65691971D01*
X40627215Y-65691968D01*
X40627219Y-65691966D01*
X40771966Y-65547219D01*
X40771968Y-65547215D01*
X40771971Y-65547213D01*
X40824732Y-65474590D01*
X40892287Y-65381610D01*
X40985220Y-65199219D01*
X41048477Y-65004534D01*
X41080500Y-64802352D01*
X41080500Y-64597648D01*
X41048477Y-64395466D01*
X40985220Y-64200781D01*
X40985218Y-64200778D01*
X40985218Y-64200776D01*
X40951503Y-64134607D01*
X40892287Y-64018390D01*
X40884556Y-64007749D01*
X40771971Y-63852786D01*
X40627213Y-63708028D01*
X40461614Y-63587715D01*
X40455006Y-63584348D01*
X40368917Y-63540483D01*
X40318123Y-63492511D01*
X40301328Y-63424690D01*
X40323865Y-63358555D01*
X40368917Y-63319516D01*
X40461610Y-63272287D01*
X40482770Y-63256913D01*
X40627213Y-63151971D01*
X40627215Y-63151968D01*
X40627219Y-63151966D01*
X40771966Y-63007219D01*
X40771968Y-63007215D01*
X40771971Y-63007213D01*
X40840886Y-62912358D01*
X40892287Y-62841610D01*
X40985220Y-62659219D01*
X41048477Y-62464534D01*
X41080500Y-62262352D01*
X41080500Y-62057648D01*
X41055781Y-61901583D01*
X41048477Y-61855465D01*
X41000294Y-61707174D01*
X40985220Y-61660781D01*
X40985218Y-61660778D01*
X40985218Y-61660776D01*
X40928774Y-61550000D01*
X40892287Y-61478390D01*
X40880665Y-61462393D01*
X40771971Y-61312786D01*
X40627213Y-61168028D01*
X40461614Y-61047715D01*
X40374772Y-61003467D01*
X40368917Y-61000483D01*
X40318123Y-60952511D01*
X40301328Y-60884690D01*
X40323865Y-60818555D01*
X40368917Y-60779516D01*
X40461610Y-60732287D01*
X40565718Y-60656649D01*
X40627213Y-60611971D01*
X40627215Y-60611968D01*
X40627219Y-60611966D01*
X40771966Y-60467219D01*
X40771968Y-60467215D01*
X40771971Y-60467213D01*
X40824732Y-60394590D01*
X40892287Y-60301610D01*
X40985220Y-60119219D01*
X41048477Y-59924534D01*
X41080500Y-59722352D01*
X41080500Y-59517648D01*
X41048477Y-59315466D01*
X40985220Y-59120781D01*
X40985218Y-59120778D01*
X40985218Y-59120776D01*
X40928885Y-59010218D01*
X40892287Y-58938390D01*
X40876953Y-58917284D01*
X40771971Y-58772786D01*
X40627213Y-58628028D01*
X40461614Y-58507715D01*
X40420193Y-58486610D01*
X40368917Y-58460483D01*
X40318123Y-58412511D01*
X40301328Y-58344690D01*
X40323865Y-58278555D01*
X40368917Y-58239516D01*
X40461610Y-58192287D01*
X40482770Y-58176913D01*
X40627213Y-58071971D01*
X40627215Y-58071968D01*
X40627219Y-58071966D01*
X40771966Y-57927219D01*
X40771968Y-57927215D01*
X40771971Y-57927213D01*
X40824732Y-57854590D01*
X40892287Y-57761610D01*
X40985220Y-57579219D01*
X41048477Y-57384534D01*
X41080500Y-57182352D01*
X41080500Y-56977648D01*
X41077353Y-56957781D01*
X41048477Y-56775465D01*
X40985218Y-56580776D01*
X40943662Y-56499219D01*
X40892287Y-56398390D01*
X40884556Y-56387749D01*
X40771971Y-56232786D01*
X40627213Y-56088028D01*
X40461614Y-55967715D01*
X40455006Y-55964348D01*
X40368917Y-55920483D01*
X40318123Y-55872511D01*
X40301328Y-55804690D01*
X40323865Y-55738555D01*
X40368917Y-55699516D01*
X40461610Y-55652287D01*
X40482770Y-55636913D01*
X40627213Y-55531971D01*
X40627215Y-55531968D01*
X40627219Y-55531966D01*
X40771966Y-55387219D01*
X40771968Y-55387215D01*
X40771971Y-55387213D01*
X40824732Y-55314590D01*
X40892287Y-55221610D01*
X40985220Y-55039219D01*
X41048477Y-54844534D01*
X41080500Y-54642352D01*
X41080500Y-54437648D01*
X41048477Y-54235466D01*
X40985220Y-54040781D01*
X40985218Y-54040778D01*
X40985218Y-54040776D01*
X40951503Y-53974607D01*
X40892287Y-53858390D01*
X40884556Y-53847749D01*
X40771971Y-53692786D01*
X40627213Y-53548028D01*
X40461614Y-53427715D01*
X40455006Y-53424348D01*
X40368917Y-53380483D01*
X40318123Y-53332511D01*
X40301328Y-53264690D01*
X40323865Y-53198555D01*
X40368917Y-53159516D01*
X40461610Y-53112287D01*
X40482770Y-53096913D01*
X40627213Y-52991971D01*
X40627215Y-52991968D01*
X40627219Y-52991966D01*
X40771966Y-52847219D01*
X40771968Y-52847215D01*
X40771971Y-52847213D01*
X40824732Y-52774590D01*
X40892287Y-52681610D01*
X40985220Y-52499219D01*
X41048477Y-52304534D01*
X41080500Y-52102352D01*
X41080500Y-51897648D01*
X41048477Y-51695466D01*
X40985220Y-51500781D01*
X40985218Y-51500778D01*
X40985218Y-51500776D01*
X40928885Y-51390218D01*
X40892287Y-51318390D01*
X40876953Y-51297284D01*
X40771971Y-51152786D01*
X40627219Y-51008034D01*
X40627211Y-51008028D01*
X40533547Y-50939978D01*
X40490882Y-50884649D01*
X40484903Y-50815036D01*
X40517508Y-50753240D01*
X40567426Y-50721955D01*
X40649334Y-50694814D01*
X40798656Y-50602712D01*
X40922712Y-50478656D01*
X41014814Y-50329334D01*
X41069999Y-50162797D01*
X41080500Y-50060009D01*
X41080499Y-49357648D01*
X45299500Y-49357648D01*
X45299500Y-49562351D01*
X45331522Y-49764534D01*
X45394781Y-49959223D01*
X45487715Y-50141613D01*
X45608028Y-50307213D01*
X45752786Y-50451971D01*
X45907749Y-50564556D01*
X45918390Y-50572287D01*
X46009840Y-50618883D01*
X46011080Y-50619515D01*
X46061876Y-50667490D01*
X46078671Y-50735311D01*
X46056134Y-50801446D01*
X46011080Y-50840485D01*
X45918386Y-50887715D01*
X45752786Y-51008028D01*
X45608028Y-51152786D01*
X45487715Y-51318386D01*
X45394781Y-51500776D01*
X45331522Y-51695465D01*
X45299500Y-51897648D01*
X45299500Y-52102351D01*
X45331522Y-52304534D01*
X45394781Y-52499223D01*
X45487715Y-52681613D01*
X45608028Y-52847213D01*
X45752786Y-52991971D01*
X45907749Y-53104556D01*
X45918390Y-53112287D01*
X46009840Y-53158883D01*
X46011080Y-53159515D01*
X46061876Y-53207490D01*
X46078671Y-53275311D01*
X46056134Y-53341446D01*
X46011080Y-53380485D01*
X45918386Y-53427715D01*
X45752786Y-53548028D01*
X45608028Y-53692786D01*
X45487715Y-53858386D01*
X45394781Y-54040776D01*
X45331522Y-54235465D01*
X45299500Y-54437648D01*
X45299500Y-54642351D01*
X45331522Y-54844534D01*
X45394781Y-55039223D01*
X45487715Y-55221613D01*
X45608028Y-55387213D01*
X45752786Y-55531971D01*
X45907749Y-55644556D01*
X45918390Y-55652287D01*
X46009840Y-55698883D01*
X46011080Y-55699515D01*
X46061876Y-55747490D01*
X46078671Y-55815311D01*
X46056134Y-55881446D01*
X46011080Y-55920485D01*
X45918386Y-55967715D01*
X45752786Y-56088028D01*
X45608028Y-56232786D01*
X45487715Y-56398386D01*
X45394781Y-56580776D01*
X45331522Y-56775465D01*
X45299500Y-56977648D01*
X45299500Y-57182351D01*
X45331522Y-57384534D01*
X45394781Y-57579223D01*
X45457670Y-57702648D01*
X45482989Y-57752339D01*
X45487715Y-57761613D01*
X45608028Y-57927213D01*
X45752786Y-58071971D01*
X45898369Y-58177741D01*
X45918390Y-58192287D01*
X46009840Y-58238883D01*
X46011080Y-58239515D01*
X46061876Y-58287490D01*
X46078671Y-58355311D01*
X46056134Y-58421446D01*
X46011080Y-58460485D01*
X45918386Y-58507715D01*
X45752786Y-58628028D01*
X45608028Y-58772786D01*
X45487715Y-58938386D01*
X45394781Y-59120776D01*
X45331522Y-59315465D01*
X45299500Y-59517648D01*
X45299500Y-59722351D01*
X45331522Y-59924534D01*
X45394781Y-60119223D01*
X45487715Y-60301613D01*
X45608028Y-60467213D01*
X45752786Y-60611971D01*
X45907749Y-60724556D01*
X45918390Y-60732287D01*
X46009840Y-60778883D01*
X46011080Y-60779515D01*
X46061876Y-60827490D01*
X46078671Y-60895311D01*
X46056134Y-60961446D01*
X46011080Y-61000485D01*
X45918386Y-61047715D01*
X45752786Y-61168028D01*
X45608028Y-61312786D01*
X45487715Y-61478386D01*
X45394781Y-61660776D01*
X45331522Y-61855465D01*
X45299500Y-62057648D01*
X45299500Y-62262351D01*
X45331522Y-62464534D01*
X45394781Y-62659223D01*
X45487715Y-62841613D01*
X45608028Y-63007213D01*
X45752786Y-63151971D01*
X45907749Y-63264556D01*
X45918390Y-63272287D01*
X46009840Y-63318883D01*
X46011080Y-63319515D01*
X46061876Y-63367490D01*
X46078671Y-63435311D01*
X46056134Y-63501446D01*
X46011080Y-63540485D01*
X45918386Y-63587715D01*
X45752786Y-63708028D01*
X45608028Y-63852786D01*
X45487715Y-64018386D01*
X45394781Y-64200776D01*
X45331522Y-64395465D01*
X45299500Y-64597648D01*
X45299500Y-64802351D01*
X45331522Y-65004534D01*
X45394781Y-65199223D01*
X45487715Y-65381613D01*
X45608028Y-65547213D01*
X45752786Y-65691971D01*
X45907749Y-65804556D01*
X45918390Y-65812287D01*
X46034607Y-65871503D01*
X46100776Y-65905218D01*
X46100778Y-65905218D01*
X46100781Y-65905220D01*
X46205137Y-65939127D01*
X46295465Y-65968477D01*
X46396557Y-65984488D01*
X46497648Y-66000500D01*
X46497649Y-66000500D01*
X47502351Y-66000500D01*
X47502352Y-66000500D01*
X47704534Y-65968477D01*
X47899219Y-65905220D01*
X48081610Y-65812287D01*
X48174590Y-65744732D01*
X48247213Y-65691971D01*
X48247215Y-65691968D01*
X48247219Y-65691966D01*
X48391966Y-65547219D01*
X48391968Y-65547215D01*
X48391971Y-65547213D01*
X48444732Y-65474590D01*
X48512287Y-65381610D01*
X48605220Y-65199219D01*
X48668477Y-65004534D01*
X48700500Y-64802352D01*
X48700500Y-64597648D01*
X48668477Y-64395466D01*
X48605220Y-64200781D01*
X48605218Y-64200778D01*
X48605218Y-64200776D01*
X48571503Y-64134607D01*
X48512287Y-64018390D01*
X48504556Y-64007749D01*
X48391971Y-63852786D01*
X48247213Y-63708028D01*
X48081614Y-63587715D01*
X48075006Y-63584348D01*
X47988917Y-63540483D01*
X47938123Y-63492511D01*
X47921328Y-63424690D01*
X47943865Y-63358555D01*
X47988917Y-63319516D01*
X48081610Y-63272287D01*
X48102770Y-63256913D01*
X48247213Y-63151971D01*
X48247215Y-63151968D01*
X48247219Y-63151966D01*
X48391966Y-63007219D01*
X48391968Y-63007215D01*
X48391971Y-63007213D01*
X48460886Y-62912358D01*
X48512287Y-62841610D01*
X48605220Y-62659219D01*
X48668477Y-62464534D01*
X48700500Y-62262352D01*
X48700500Y-62057648D01*
X48673912Y-61889778D01*
X56059500Y-61889778D01*
X56059500Y-62110221D01*
X56093985Y-62327952D01*
X56162103Y-62537603D01*
X56162104Y-62537606D01*
X56262187Y-62734025D01*
X56391752Y-62912358D01*
X56391756Y-62912363D01*
X56547636Y-63068243D01*
X56547641Y-63068247D01*
X56662872Y-63151966D01*
X56725978Y-63197815D01*
X56829377Y-63250500D01*
X56922393Y-63297895D01*
X56922396Y-63297896D01*
X57027221Y-63331955D01*
X57132049Y-63366015D01*
X57349778Y-63400500D01*
X57349779Y-63400500D01*
X57570221Y-63400500D01*
X57570222Y-63400500D01*
X57787951Y-63366015D01*
X57997606Y-63297895D01*
X58194022Y-63197815D01*
X58372365Y-63068242D01*
X58422924Y-63017682D01*
X58484245Y-62984198D01*
X58553936Y-62989182D01*
X58609870Y-63031053D01*
X58626786Y-63062030D01*
X58656646Y-63142087D01*
X58656649Y-63142093D01*
X58742809Y-63257187D01*
X58742812Y-63257190D01*
X58857906Y-63343350D01*
X58857913Y-63343354D01*
X58992620Y-63393596D01*
X58992627Y-63393598D01*
X59052155Y-63399999D01*
X59052172Y-63400000D01*
X59750000Y-63400000D01*
X59750000Y-62375277D01*
X59826306Y-62419333D01*
X59940756Y-62450000D01*
X60059244Y-62450000D01*
X60173694Y-62419333D01*
X60250000Y-62375277D01*
X60250000Y-63400000D01*
X60947828Y-63400000D01*
X60947844Y-63399999D01*
X61007372Y-63393598D01*
X61007379Y-63393596D01*
X61142086Y-63343354D01*
X61142093Y-63343350D01*
X61257187Y-63257190D01*
X61257190Y-63257187D01*
X61343350Y-63142093D01*
X61343354Y-63142086D01*
X61393596Y-63007379D01*
X61393598Y-63007372D01*
X61399999Y-62947844D01*
X61400000Y-62947827D01*
X61400000Y-62250000D01*
X60375278Y-62250000D01*
X60419333Y-62173694D01*
X60450000Y-62059244D01*
X60450000Y-61940756D01*
X60419333Y-61826306D01*
X60375278Y-61750000D01*
X61400000Y-61750000D01*
X61400000Y-61052172D01*
X61399999Y-61052155D01*
X61393598Y-60992627D01*
X61393596Y-60992620D01*
X61343354Y-60857913D01*
X61343350Y-60857906D01*
X61257190Y-60742812D01*
X61257187Y-60742809D01*
X61142093Y-60656649D01*
X61142086Y-60656645D01*
X61007379Y-60606403D01*
X61007372Y-60606401D01*
X60947844Y-60600000D01*
X60250000Y-60600000D01*
X60250000Y-61624722D01*
X60173694Y-61580667D01*
X60059244Y-61550000D01*
X59940756Y-61550000D01*
X59826306Y-61580667D01*
X59750000Y-61624722D01*
X59750000Y-60600000D01*
X59052155Y-60600000D01*
X58992627Y-60606401D01*
X58992620Y-60606403D01*
X58857913Y-60656645D01*
X58857906Y-60656649D01*
X58742812Y-60742809D01*
X58742809Y-60742812D01*
X58656649Y-60857906D01*
X58656643Y-60857918D01*
X58626785Y-60937969D01*
X58584914Y-60993903D01*
X58519449Y-61018319D01*
X58451176Y-61003467D01*
X58422923Y-60982316D01*
X58372363Y-60931756D01*
X58372358Y-60931752D01*
X58194025Y-60802187D01*
X58194024Y-60802186D01*
X58194022Y-60802185D01*
X58131096Y-60770122D01*
X57997606Y-60702104D01*
X57997603Y-60702103D01*
X57787952Y-60633985D01*
X57679086Y-60616742D01*
X57570222Y-60599500D01*
X57349778Y-60599500D01*
X57277201Y-60610995D01*
X57132047Y-60633985D01*
X56922396Y-60702103D01*
X56922393Y-60702104D01*
X56725974Y-60802187D01*
X56547641Y-60931752D01*
X56547636Y-60931756D01*
X56391756Y-61087636D01*
X56391752Y-61087641D01*
X56262187Y-61265974D01*
X56162104Y-61462393D01*
X56162103Y-61462396D01*
X56093985Y-61672047D01*
X56059500Y-61889778D01*
X48673912Y-61889778D01*
X48668477Y-61855466D01*
X48659002Y-61826306D01*
X48620294Y-61707174D01*
X48605220Y-61660781D01*
X48605218Y-61660778D01*
X48605218Y-61660776D01*
X48548774Y-61550000D01*
X48512287Y-61478390D01*
X48500665Y-61462393D01*
X48391971Y-61312786D01*
X48247213Y-61168028D01*
X48081614Y-61047715D01*
X47994772Y-61003467D01*
X47988917Y-61000483D01*
X47938123Y-60952511D01*
X47921328Y-60884690D01*
X47943865Y-60818555D01*
X47988917Y-60779516D01*
X48081610Y-60732287D01*
X48185718Y-60656649D01*
X48247213Y-60611971D01*
X48247215Y-60611968D01*
X48247219Y-60611966D01*
X48391966Y-60467219D01*
X48391968Y-60467215D01*
X48391971Y-60467213D01*
X48444732Y-60394590D01*
X48512287Y-60301610D01*
X48605220Y-60119219D01*
X48668477Y-59924534D01*
X48700500Y-59722352D01*
X48700500Y-59517648D01*
X48668477Y-59315466D01*
X48605220Y-59120781D01*
X48605218Y-59120778D01*
X48605218Y-59120776D01*
X48548885Y-59010218D01*
X48512287Y-58938390D01*
X48496953Y-58917284D01*
X48391971Y-58772786D01*
X48247213Y-58628028D01*
X48081614Y-58507715D01*
X48040193Y-58486610D01*
X47988917Y-58460483D01*
X47938123Y-58412511D01*
X47921328Y-58344690D01*
X47943865Y-58278555D01*
X47988917Y-58239516D01*
X48081610Y-58192287D01*
X48102770Y-58176913D01*
X48247213Y-58071971D01*
X48247215Y-58071968D01*
X48247219Y-58071966D01*
X48391966Y-57927219D01*
X48512287Y-57761610D01*
X48605220Y-57579219D01*
X48668477Y-57384534D01*
X48700500Y-57182352D01*
X48700500Y-56977648D01*
X48697353Y-56957781D01*
X48668477Y-56775465D01*
X48605218Y-56580776D01*
X48563662Y-56499219D01*
X48512287Y-56398390D01*
X48504556Y-56387749D01*
X48391971Y-56232786D01*
X48247219Y-56088034D01*
X48121923Y-55997002D01*
X48081610Y-55967713D01*
X47986167Y-55919082D01*
X47983487Y-55917544D01*
X47964420Y-55897648D01*
X53889500Y-55897648D01*
X53889500Y-56102351D01*
X53921522Y-56304534D01*
X53984781Y-56499223D01*
X54077715Y-56681613D01*
X54198028Y-56847213D01*
X54342786Y-56991971D01*
X54484065Y-57094614D01*
X54508390Y-57112287D01*
X54624607Y-57171503D01*
X54690776Y-57205218D01*
X54690778Y-57205218D01*
X54690781Y-57205220D01*
X54724205Y-57216080D01*
X54885465Y-57268477D01*
X54981396Y-57283671D01*
X55087648Y-57300500D01*
X55087649Y-57300500D01*
X55292351Y-57300500D01*
X55292352Y-57300500D01*
X55494534Y-57268477D01*
X55689219Y-57205220D01*
X55871610Y-57112287D01*
X56001294Y-57018067D01*
X56037213Y-56991971D01*
X56037215Y-56991968D01*
X56037219Y-56991966D01*
X56181966Y-56847219D01*
X56181968Y-56847215D01*
X56181971Y-56847213D01*
X56234732Y-56774590D01*
X56302287Y-56681610D01*
X56395220Y-56499219D01*
X56458477Y-56304534D01*
X56490500Y-56102352D01*
X56490500Y-55897648D01*
X61509500Y-55897648D01*
X61509500Y-56102351D01*
X61541522Y-56304534D01*
X61604781Y-56499223D01*
X61697715Y-56681613D01*
X61818028Y-56847213D01*
X61962786Y-56991971D01*
X62104065Y-57094614D01*
X62128390Y-57112287D01*
X62244607Y-57171503D01*
X62310776Y-57205218D01*
X62310778Y-57205218D01*
X62310781Y-57205220D01*
X62344205Y-57216080D01*
X62505465Y-57268477D01*
X62601396Y-57283671D01*
X62707648Y-57300500D01*
X62707649Y-57300500D01*
X62912351Y-57300500D01*
X62912352Y-57300500D01*
X63114534Y-57268477D01*
X63309219Y-57205220D01*
X63309625Y-57205013D01*
X74890000Y-57205013D01*
X74890000Y-57555000D01*
X75874314Y-57555000D01*
X75869920Y-57559394D01*
X75817259Y-57650606D01*
X75790000Y-57752339D01*
X75790000Y-57857661D01*
X75817259Y-57959394D01*
X75869920Y-58050606D01*
X75874314Y-58055000D01*
X74890001Y-58055000D01*
X74890001Y-58404986D01*
X74900494Y-58507697D01*
X74955641Y-58674119D01*
X74955643Y-58674124D01*
X75047684Y-58823345D01*
X75171654Y-58947315D01*
X75320875Y-59039356D01*
X75320880Y-59039358D01*
X75487302Y-59094505D01*
X75487309Y-59094506D01*
X75590019Y-59104999D01*
X75939999Y-59104999D01*
X75940000Y-59104998D01*
X75940000Y-58120686D01*
X75944394Y-58125080D01*
X76035606Y-58177741D01*
X76137339Y-58205000D01*
X76242661Y-58205000D01*
X76344394Y-58177741D01*
X76435606Y-58125080D01*
X76440000Y-58120686D01*
X76440000Y-59104999D01*
X76789972Y-59104999D01*
X76789986Y-59104998D01*
X76892697Y-59094505D01*
X77059119Y-59039358D01*
X77059124Y-59039356D01*
X77208345Y-58947315D01*
X77332315Y-58823345D01*
X77424356Y-58674124D01*
X77424359Y-58674117D01*
X77451592Y-58591932D01*
X77491364Y-58534487D01*
X77555879Y-58507663D01*
X77624655Y-58519977D01*
X77669617Y-58558050D01*
X77738034Y-58652219D01*
X77882786Y-58796971D01*
X78037749Y-58909556D01*
X78048390Y-58917287D01*
X78164607Y-58976503D01*
X78230776Y-59010218D01*
X78230778Y-59010218D01*
X78230781Y-59010220D01*
X78320459Y-59039358D01*
X78425465Y-59073477D01*
X78526557Y-59089488D01*
X78627648Y-59105500D01*
X78627649Y-59105500D01*
X78832351Y-59105500D01*
X78832352Y-59105500D01*
X79034534Y-59073477D01*
X79229219Y-59010220D01*
X79411610Y-58917287D01*
X79504590Y-58849732D01*
X79577213Y-58796971D01*
X79577215Y-58796968D01*
X79577219Y-58796966D01*
X79721966Y-58652219D01*
X79721968Y-58652215D01*
X79721971Y-58652213D01*
X79842284Y-58486614D01*
X79842285Y-58486613D01*
X79842287Y-58486610D01*
X79889516Y-58393917D01*
X79937489Y-58343123D01*
X80005310Y-58326328D01*
X80071445Y-58348865D01*
X80110483Y-58393917D01*
X80144402Y-58460485D01*
X80157715Y-58486614D01*
X80278028Y-58652213D01*
X80422786Y-58796971D01*
X80577749Y-58909556D01*
X80588390Y-58917287D01*
X80704607Y-58976503D01*
X80770776Y-59010218D01*
X80770778Y-59010218D01*
X80770781Y-59010220D01*
X80860459Y-59039358D01*
X80965465Y-59073477D01*
X81066557Y-59089488D01*
X81167648Y-59105500D01*
X81167649Y-59105500D01*
X81372351Y-59105500D01*
X81372352Y-59105500D01*
X81574534Y-59073477D01*
X81769219Y-59010220D01*
X81951610Y-58917287D01*
X82044590Y-58849732D01*
X82117213Y-58796971D01*
X82117215Y-58796968D01*
X82117219Y-58796966D01*
X82261966Y-58652219D01*
X82261968Y-58652215D01*
X82261971Y-58652213D01*
X82382284Y-58486614D01*
X82382285Y-58486613D01*
X82382287Y-58486610D01*
X82429516Y-58393917D01*
X82477489Y-58343123D01*
X82545310Y-58326328D01*
X82611445Y-58348865D01*
X82650483Y-58393917D01*
X82684402Y-58460485D01*
X82697715Y-58486614D01*
X82818028Y-58652213D01*
X82962786Y-58796971D01*
X83117749Y-58909556D01*
X83128390Y-58917287D01*
X83244607Y-58976503D01*
X83310776Y-59010218D01*
X83310778Y-59010218D01*
X83310781Y-59010220D01*
X83400459Y-59039358D01*
X83505465Y-59073477D01*
X83606557Y-59089488D01*
X83707648Y-59105500D01*
X83707649Y-59105500D01*
X83912351Y-59105500D01*
X83912352Y-59105500D01*
X84114534Y-59073477D01*
X84309219Y-59010220D01*
X84491610Y-58917287D01*
X84584590Y-58849732D01*
X84657213Y-58796971D01*
X84657215Y-58796968D01*
X84657219Y-58796966D01*
X84801966Y-58652219D01*
X84801968Y-58652215D01*
X84801971Y-58652213D01*
X84870383Y-58558050D01*
X84922287Y-58486610D01*
X85015220Y-58304219D01*
X85078477Y-58109534D01*
X85110500Y-57907352D01*
X85110500Y-57702648D01*
X85090951Y-57579223D01*
X85078477Y-57500465D01*
X85015218Y-57305776D01*
X84969515Y-57216080D01*
X84922287Y-57123390D01*
X84882035Y-57067987D01*
X84801971Y-56957786D01*
X84657213Y-56813028D01*
X84491613Y-56692715D01*
X84491612Y-56692714D01*
X84491610Y-56692713D01*
X84432675Y-56662684D01*
X84309223Y-56599781D01*
X84114534Y-56536522D01*
X83939995Y-56508878D01*
X83912352Y-56504500D01*
X83707648Y-56504500D01*
X83683329Y-56508351D01*
X83505465Y-56536522D01*
X83310776Y-56599781D01*
X83128386Y-56692715D01*
X82962786Y-56813028D01*
X82818028Y-56957786D01*
X82697715Y-57123386D01*
X82650485Y-57216080D01*
X82602510Y-57266876D01*
X82534689Y-57283671D01*
X82468554Y-57261134D01*
X82429515Y-57216080D01*
X82428883Y-57214840D01*
X82382287Y-57123390D01*
X82342035Y-57067987D01*
X82261971Y-56957786D01*
X82117213Y-56813028D01*
X81951613Y-56692715D01*
X81951612Y-56692714D01*
X81951610Y-56692713D01*
X81892675Y-56662684D01*
X81769223Y-56599781D01*
X81574534Y-56536522D01*
X81399995Y-56508878D01*
X81372352Y-56504500D01*
X81167648Y-56504500D01*
X81143329Y-56508351D01*
X80965465Y-56536522D01*
X80770776Y-56599781D01*
X80588386Y-56692715D01*
X80422786Y-56813028D01*
X80278028Y-56957786D01*
X80157715Y-57123386D01*
X80110485Y-57216080D01*
X80062510Y-57266876D01*
X79994689Y-57283671D01*
X79928554Y-57261134D01*
X79889515Y-57216080D01*
X79888883Y-57214840D01*
X79842287Y-57123390D01*
X79802035Y-57067987D01*
X79721971Y-56957786D01*
X79577213Y-56813028D01*
X79411613Y-56692715D01*
X79411612Y-56692714D01*
X79411610Y-56692713D01*
X79352675Y-56662684D01*
X79229223Y-56599781D01*
X79034534Y-56536522D01*
X78859995Y-56508878D01*
X78832352Y-56504500D01*
X78627648Y-56504500D01*
X78603329Y-56508351D01*
X78425465Y-56536522D01*
X78230776Y-56599781D01*
X78048386Y-56692715D01*
X77882786Y-56813028D01*
X77738032Y-56957782D01*
X77669616Y-57051949D01*
X77614286Y-57094614D01*
X77544672Y-57100593D01*
X77482877Y-57067987D01*
X77451592Y-57018067D01*
X77424358Y-56935880D01*
X77424356Y-56935875D01*
X77332315Y-56786654D01*
X77208345Y-56662684D01*
X77059124Y-56570643D01*
X77059119Y-56570641D01*
X76892697Y-56515494D01*
X76892690Y-56515493D01*
X76789986Y-56505000D01*
X76440000Y-56505000D01*
X76440000Y-57489314D01*
X76435606Y-57484920D01*
X76344394Y-57432259D01*
X76242661Y-57405000D01*
X76137339Y-57405000D01*
X76035606Y-57432259D01*
X75944394Y-57484920D01*
X75940000Y-57489314D01*
X75940000Y-56505000D01*
X75590028Y-56505000D01*
X75590012Y-56505001D01*
X75487302Y-56515494D01*
X75320880Y-56570641D01*
X75320875Y-56570643D01*
X75171654Y-56662684D01*
X75047684Y-56786654D01*
X74955643Y-56935875D01*
X74955641Y-56935880D01*
X74900494Y-57102302D01*
X74900493Y-57102309D01*
X74890000Y-57205013D01*
X63309625Y-57205013D01*
X63491610Y-57112287D01*
X63515935Y-57094614D01*
X63657213Y-56991971D01*
X63657215Y-56991968D01*
X63657219Y-56991966D01*
X63801966Y-56847219D01*
X63801968Y-56847215D01*
X63801971Y-56847213D01*
X63854732Y-56774590D01*
X63922287Y-56681610D01*
X64015220Y-56499219D01*
X64078477Y-56304534D01*
X64110500Y-56102352D01*
X64110500Y-55897648D01*
X64096618Y-55810000D01*
X64078477Y-55695465D01*
X64025354Y-55531971D01*
X64015220Y-55500781D01*
X64015218Y-55500778D01*
X64015218Y-55500776D01*
X63957354Y-55387213D01*
X63922287Y-55318390D01*
X63914556Y-55307749D01*
X63801971Y-55152786D01*
X63657213Y-55008028D01*
X63491613Y-54887715D01*
X63491612Y-54887714D01*
X63491610Y-54887713D01*
X63406867Y-54844534D01*
X63309223Y-54794781D01*
X63114534Y-54731522D01*
X62939995Y-54703878D01*
X62912352Y-54699500D01*
X62707648Y-54699500D01*
X62683329Y-54703351D01*
X62505465Y-54731522D01*
X62310776Y-54794781D01*
X62128386Y-54887715D01*
X61962786Y-55008028D01*
X61818028Y-55152786D01*
X61697715Y-55318386D01*
X61604781Y-55500776D01*
X61541522Y-55695465D01*
X61509500Y-55897648D01*
X56490500Y-55897648D01*
X56476618Y-55810000D01*
X56458477Y-55695465D01*
X56405354Y-55531971D01*
X56395220Y-55500781D01*
X56395218Y-55500778D01*
X56395218Y-55500776D01*
X56337354Y-55387213D01*
X56302287Y-55318390D01*
X56294556Y-55307749D01*
X56181971Y-55152786D01*
X56037213Y-55008028D01*
X55871613Y-54887715D01*
X55871612Y-54887714D01*
X55871610Y-54887713D01*
X55786867Y-54844534D01*
X55689223Y-54794781D01*
X55494534Y-54731522D01*
X55319995Y-54703878D01*
X55292352Y-54699500D01*
X55087648Y-54699500D01*
X55063329Y-54703351D01*
X54885465Y-54731522D01*
X54690776Y-54794781D01*
X54508386Y-54887715D01*
X54342786Y-55008028D01*
X54198028Y-55152786D01*
X54077715Y-55318386D01*
X53984781Y-55500776D01*
X53921522Y-55695465D01*
X53889500Y-55897648D01*
X47964420Y-55897648D01*
X47961372Y-55894468D01*
X47938123Y-55872511D01*
X47937354Y-55869407D01*
X47935143Y-55867100D01*
X47929013Y-55835724D01*
X47921328Y-55804690D01*
X47922359Y-55801664D01*
X47921746Y-55798526D01*
X47933554Y-55768812D01*
X47943865Y-55738555D01*
X47946478Y-55736290D01*
X47947549Y-55733596D01*
X47959281Y-55725195D01*
X47988917Y-55699516D01*
X48081610Y-55652287D01*
X48102770Y-55636913D01*
X48247213Y-55531971D01*
X48247215Y-55531968D01*
X48247219Y-55531966D01*
X48391966Y-55387219D01*
X48391968Y-55387215D01*
X48391971Y-55387213D01*
X48444732Y-55314590D01*
X48512287Y-55221610D01*
X48605220Y-55039219D01*
X48668477Y-54844534D01*
X48700500Y-54642352D01*
X48700500Y-54437648D01*
X48668477Y-54235466D01*
X48605220Y-54040781D01*
X48605218Y-54040778D01*
X48605218Y-54040776D01*
X48571503Y-53974607D01*
X48512287Y-53858390D01*
X48504556Y-53847749D01*
X48391971Y-53692786D01*
X48247213Y-53548028D01*
X48081614Y-53427715D01*
X48075006Y-53424348D01*
X47988917Y-53380483D01*
X47938123Y-53332511D01*
X47921328Y-53264690D01*
X47943865Y-53198555D01*
X47988917Y-53159516D01*
X48081610Y-53112287D01*
X48102770Y-53096913D01*
X48247213Y-52991971D01*
X48247215Y-52991968D01*
X48247219Y-52991966D01*
X48391966Y-52847219D01*
X48391968Y-52847215D01*
X48391971Y-52847213D01*
X48444732Y-52774590D01*
X48512287Y-52681610D01*
X48605220Y-52499219D01*
X48668477Y-52304534D01*
X48700500Y-52102352D01*
X48700500Y-51897648D01*
X48668477Y-51695466D01*
X48605220Y-51500781D01*
X48605218Y-51500778D01*
X48605218Y-51500776D01*
X48548885Y-51390218D01*
X48512287Y-51318390D01*
X48496953Y-51297284D01*
X48391971Y-51152786D01*
X48247213Y-51008028D01*
X48081614Y-50887715D01*
X48040193Y-50866610D01*
X47988917Y-50840483D01*
X47938123Y-50792511D01*
X47921328Y-50724690D01*
X47943865Y-50658555D01*
X47988917Y-50619516D01*
X48081610Y-50572287D01*
X48195511Y-50489534D01*
X48247213Y-50451971D01*
X48247215Y-50451968D01*
X48247219Y-50451966D01*
X48391966Y-50307219D01*
X48391968Y-50307215D01*
X48391971Y-50307213D01*
X48496892Y-50162799D01*
X48512287Y-50141610D01*
X48542330Y-50082648D01*
X74889500Y-50082648D01*
X74889500Y-50287351D01*
X74921522Y-50489534D01*
X74984781Y-50684223D01*
X75077715Y-50866613D01*
X75198028Y-51032213D01*
X75342786Y-51176971D01*
X75497749Y-51289556D01*
X75508390Y-51297287D01*
X75624607Y-51356503D01*
X75690776Y-51390218D01*
X75690778Y-51390218D01*
X75690781Y-51390220D01*
X75795137Y-51424127D01*
X75885465Y-51453477D01*
X75986557Y-51469488D01*
X76087648Y-51485500D01*
X76087649Y-51485500D01*
X76292351Y-51485500D01*
X76292352Y-51485500D01*
X76494534Y-51453477D01*
X76689219Y-51390220D01*
X76871610Y-51297287D01*
X76964590Y-51229732D01*
X77037213Y-51176971D01*
X77037215Y-51176968D01*
X77037219Y-51176966D01*
X77181966Y-51032219D01*
X77181968Y-51032215D01*
X77181971Y-51032213D01*
X77302284Y-50866614D01*
X77302285Y-50866613D01*
X77302287Y-50866610D01*
X77349516Y-50773917D01*
X77397489Y-50723123D01*
X77465310Y-50706328D01*
X77531445Y-50728865D01*
X77570483Y-50773917D01*
X77591435Y-50815036D01*
X77617715Y-50866614D01*
X77738028Y-51032213D01*
X77882786Y-51176971D01*
X78037749Y-51289556D01*
X78048390Y-51297287D01*
X78164607Y-51356503D01*
X78230776Y-51390218D01*
X78230778Y-51390218D01*
X78230781Y-51390220D01*
X78335137Y-51424127D01*
X78425465Y-51453477D01*
X78526557Y-51469488D01*
X78627648Y-51485500D01*
X78627649Y-51485500D01*
X78832351Y-51485500D01*
X78832352Y-51485500D01*
X79034534Y-51453477D01*
X79229219Y-51390220D01*
X79411610Y-51297287D01*
X79504590Y-51229732D01*
X79577213Y-51176971D01*
X79577215Y-51176968D01*
X79577219Y-51176966D01*
X79721966Y-51032219D01*
X79721968Y-51032215D01*
X79721971Y-51032213D01*
X79842284Y-50866614D01*
X79842285Y-50866613D01*
X79842287Y-50866610D01*
X79889516Y-50773917D01*
X79937489Y-50723123D01*
X80005310Y-50706328D01*
X80071445Y-50728865D01*
X80110483Y-50773917D01*
X80131435Y-50815036D01*
X80157715Y-50866614D01*
X80278028Y-51032213D01*
X80422786Y-51176971D01*
X80577749Y-51289556D01*
X80588390Y-51297287D01*
X80704607Y-51356503D01*
X80770776Y-51390218D01*
X80770778Y-51390218D01*
X80770781Y-51390220D01*
X80875137Y-51424127D01*
X80965465Y-51453477D01*
X81066557Y-51469488D01*
X81167648Y-51485500D01*
X81167649Y-51485500D01*
X81372351Y-51485500D01*
X81372352Y-51485500D01*
X81574534Y-51453477D01*
X81769219Y-51390220D01*
X81951610Y-51297287D01*
X82044590Y-51229732D01*
X82117213Y-51176971D01*
X82117215Y-51176968D01*
X82117219Y-51176966D01*
X82261966Y-51032219D01*
X82261968Y-51032215D01*
X82261971Y-51032213D01*
X82382284Y-50866614D01*
X82382285Y-50866613D01*
X82382287Y-50866610D01*
X82429516Y-50773917D01*
X82477489Y-50723123D01*
X82545310Y-50706328D01*
X82611445Y-50728865D01*
X82650483Y-50773917D01*
X82671435Y-50815036D01*
X82697715Y-50866614D01*
X82818028Y-51032213D01*
X82962786Y-51176971D01*
X83117749Y-51289556D01*
X83128390Y-51297287D01*
X83244607Y-51356503D01*
X83310776Y-51390218D01*
X83310778Y-51390218D01*
X83310781Y-51390220D01*
X83415137Y-51424127D01*
X83505465Y-51453477D01*
X83606557Y-51469488D01*
X83707648Y-51485500D01*
X83707649Y-51485500D01*
X83912351Y-51485500D01*
X83912352Y-51485500D01*
X84114534Y-51453477D01*
X84309219Y-51390220D01*
X84491610Y-51297287D01*
X84584590Y-51229732D01*
X84657213Y-51176971D01*
X84657215Y-51176968D01*
X84657219Y-51176966D01*
X84801966Y-51032219D01*
X84801968Y-51032215D01*
X84801971Y-51032213D01*
X84868982Y-50939978D01*
X84922287Y-50866610D01*
X85015220Y-50684219D01*
X85078477Y-50489534D01*
X85110500Y-50287352D01*
X85110500Y-50082648D01*
X85090951Y-49959223D01*
X85078477Y-49880465D01*
X85015218Y-49685776D01*
X84969515Y-49596080D01*
X84922287Y-49503390D01*
X84914556Y-49492749D01*
X84801971Y-49337786D01*
X84657213Y-49193028D01*
X84491613Y-49072715D01*
X84491612Y-49072714D01*
X84491610Y-49072713D01*
X84434653Y-49043691D01*
X84309223Y-48979781D01*
X84114534Y-48916522D01*
X83939995Y-48888878D01*
X83912352Y-48884500D01*
X83707648Y-48884500D01*
X83683329Y-48888351D01*
X83505465Y-48916522D01*
X83310776Y-48979781D01*
X83128386Y-49072715D01*
X82962786Y-49193028D01*
X82818028Y-49337786D01*
X82697715Y-49503386D01*
X82650485Y-49596080D01*
X82602510Y-49646876D01*
X82534689Y-49663671D01*
X82468554Y-49641134D01*
X82429515Y-49596080D01*
X82428883Y-49594840D01*
X82382287Y-49503390D01*
X82374556Y-49492749D01*
X82261971Y-49337786D01*
X82117213Y-49193028D01*
X81951613Y-49072715D01*
X81951612Y-49072714D01*
X81951610Y-49072713D01*
X81894653Y-49043691D01*
X81769223Y-48979781D01*
X81574534Y-48916522D01*
X81399995Y-48888878D01*
X81372352Y-48884500D01*
X81167648Y-48884500D01*
X81143329Y-48888351D01*
X80965465Y-48916522D01*
X80770776Y-48979781D01*
X80588386Y-49072715D01*
X80422786Y-49193028D01*
X80278028Y-49337786D01*
X80157715Y-49503386D01*
X80110485Y-49596080D01*
X80062510Y-49646876D01*
X79994689Y-49663671D01*
X79928554Y-49641134D01*
X79889515Y-49596080D01*
X79888883Y-49594840D01*
X79842287Y-49503390D01*
X79834556Y-49492749D01*
X79721971Y-49337786D01*
X79577213Y-49193028D01*
X79411613Y-49072715D01*
X79411612Y-49072714D01*
X79411610Y-49072713D01*
X79354653Y-49043691D01*
X79229223Y-48979781D01*
X79034534Y-48916522D01*
X78859995Y-48888878D01*
X78832352Y-48884500D01*
X78627648Y-48884500D01*
X78603329Y-48888351D01*
X78425465Y-48916522D01*
X78230776Y-48979781D01*
X78048386Y-49072715D01*
X77882786Y-49193028D01*
X77738028Y-49337786D01*
X77617715Y-49503386D01*
X77570485Y-49596080D01*
X77522510Y-49646876D01*
X77454689Y-49663671D01*
X77388554Y-49641134D01*
X77349515Y-49596080D01*
X77348883Y-49594840D01*
X77302287Y-49503390D01*
X77294556Y-49492749D01*
X77181971Y-49337786D01*
X77037213Y-49193028D01*
X76871613Y-49072715D01*
X76871612Y-49072714D01*
X76871610Y-49072713D01*
X76814653Y-49043691D01*
X76689223Y-48979781D01*
X76494534Y-48916522D01*
X76319995Y-48888878D01*
X76292352Y-48884500D01*
X76087648Y-48884500D01*
X76063329Y-48888351D01*
X75885465Y-48916522D01*
X75690776Y-48979781D01*
X75508386Y-49072715D01*
X75342786Y-49193028D01*
X75198028Y-49337786D01*
X75077715Y-49503386D01*
X74984781Y-49685776D01*
X74921522Y-49880465D01*
X74889500Y-50082648D01*
X48542330Y-50082648D01*
X48605220Y-49959219D01*
X48668477Y-49764534D01*
X48700500Y-49562352D01*
X48700500Y-49357648D01*
X48668477Y-49155466D01*
X48605220Y-48960781D01*
X48605218Y-48960778D01*
X48605218Y-48960776D01*
X48553865Y-48859991D01*
X48512287Y-48778390D01*
X48496892Y-48757200D01*
X48391971Y-48612786D01*
X48247213Y-48468028D01*
X48081613Y-48347715D01*
X48081612Y-48347714D01*
X48081610Y-48347713D01*
X48021898Y-48317288D01*
X47899223Y-48254781D01*
X47704534Y-48191522D01*
X47529995Y-48163878D01*
X47502352Y-48159500D01*
X46497648Y-48159500D01*
X46473329Y-48163351D01*
X46295465Y-48191522D01*
X46100776Y-48254781D01*
X45918386Y-48347715D01*
X45752786Y-48468028D01*
X45608028Y-48612786D01*
X45487715Y-48778386D01*
X45394781Y-48960776D01*
X45331522Y-49155465D01*
X45299500Y-49357648D01*
X41080499Y-49357648D01*
X41080499Y-48859992D01*
X41069999Y-48757203D01*
X41014814Y-48590666D01*
X40922712Y-48441344D01*
X40798656Y-48317288D01*
X40649334Y-48225186D01*
X40482797Y-48170001D01*
X40482795Y-48170000D01*
X40380010Y-48159500D01*
X38379998Y-48159500D01*
X38379981Y-48159501D01*
X38277203Y-48170000D01*
X38277200Y-48170001D01*
X38110668Y-48225185D01*
X38110663Y-48225187D01*
X37961342Y-48317289D01*
X37837289Y-48441342D01*
X37745187Y-48590663D01*
X37745186Y-48590666D01*
X37690001Y-48757203D01*
X37690001Y-48757204D01*
X37690000Y-48757204D01*
X37679500Y-48859983D01*
X25500500Y-48859983D01*
X25500500Y-44707648D01*
X73699500Y-44707648D01*
X73699500Y-44912351D01*
X73731522Y-45114534D01*
X73794781Y-45309223D01*
X73887715Y-45491613D01*
X74008028Y-45657213D01*
X74152786Y-45801971D01*
X74284477Y-45897648D01*
X74318390Y-45922287D01*
X74434607Y-45981503D01*
X74500776Y-46015218D01*
X74500778Y-46015218D01*
X74500781Y-46015220D01*
X74605137Y-46049127D01*
X74695465Y-46078477D01*
X74796557Y-46094488D01*
X74897648Y-46110500D01*
X74897649Y-46110500D01*
X75102351Y-46110500D01*
X75102352Y-46110500D01*
X75304534Y-46078477D01*
X75499219Y-46015220D01*
X75681610Y-45922287D01*
X75715523Y-45897648D01*
X83199500Y-45897648D01*
X83199500Y-46102351D01*
X83231522Y-46304534D01*
X83294781Y-46499223D01*
X83358691Y-46624653D01*
X83387585Y-46681359D01*
X83387715Y-46681613D01*
X83508028Y-46847213D01*
X83652786Y-46991971D01*
X83773226Y-47079474D01*
X83818390Y-47112287D01*
X83934607Y-47171503D01*
X84000776Y-47205218D01*
X84000778Y-47205218D01*
X84000781Y-47205220D01*
X84105137Y-47239127D01*
X84195465Y-47268477D01*
X84296557Y-47284488D01*
X84397648Y-47300500D01*
X84397649Y-47300500D01*
X84602351Y-47300500D01*
X84602352Y-47300500D01*
X84804534Y-47268477D01*
X84999219Y-47205220D01*
X85181610Y-47112287D01*
X85274590Y-47044732D01*
X85347213Y-46991971D01*
X85347215Y-46991968D01*
X85347219Y-46991966D01*
X85491966Y-46847219D01*
X85491968Y-46847215D01*
X85491971Y-46847213D01*
X85544732Y-46774590D01*
X85612287Y-46681610D01*
X85705220Y-46499219D01*
X85768477Y-46304534D01*
X85800500Y-46102352D01*
X85800500Y-45897682D01*
X90700000Y-45897682D01*
X90700000Y-46102317D01*
X90732009Y-46304417D01*
X90795244Y-46499031D01*
X90888141Y-46681350D01*
X90888147Y-46681359D01*
X90920523Y-46725921D01*
X90920524Y-46725922D01*
X91600000Y-46046446D01*
X91600000Y-46052661D01*
X91627259Y-46154394D01*
X91679920Y-46245606D01*
X91754394Y-46320080D01*
X91845606Y-46372741D01*
X91947339Y-46400000D01*
X91953553Y-46400000D01*
X91274076Y-47079474D01*
X91318650Y-47111859D01*
X91500968Y-47204755D01*
X91695582Y-47267990D01*
X91897683Y-47300000D01*
X92102317Y-47300000D01*
X92304417Y-47267990D01*
X92499031Y-47204755D01*
X92681349Y-47111859D01*
X92725921Y-47079474D01*
X92046447Y-46400000D01*
X92052661Y-46400000D01*
X92154394Y-46372741D01*
X92245606Y-46320080D01*
X92320080Y-46245606D01*
X92372741Y-46154394D01*
X92400000Y-46052661D01*
X92400000Y-46046447D01*
X93079474Y-46725921D01*
X93111859Y-46681349D01*
X93204755Y-46499031D01*
X93267990Y-46304417D01*
X93300000Y-46102317D01*
X93300000Y-45897682D01*
X93267990Y-45695582D01*
X93204755Y-45500968D01*
X93111859Y-45318650D01*
X93079474Y-45274077D01*
X93079474Y-45274076D01*
X92400000Y-45953551D01*
X92400000Y-45947339D01*
X92372741Y-45845606D01*
X92320080Y-45754394D01*
X92245606Y-45679920D01*
X92154394Y-45627259D01*
X92052661Y-45600000D01*
X92046446Y-45600000D01*
X92725922Y-44920524D01*
X92725921Y-44920523D01*
X92681359Y-44888147D01*
X92681350Y-44888141D01*
X92499031Y-44795244D01*
X92304417Y-44732009D01*
X92102317Y-44700000D01*
X91897683Y-44700000D01*
X91695582Y-44732009D01*
X91500968Y-44795244D01*
X91318644Y-44888143D01*
X91274077Y-44920523D01*
X91274077Y-44920524D01*
X91953554Y-45600000D01*
X91947339Y-45600000D01*
X91845606Y-45627259D01*
X91754394Y-45679920D01*
X91679920Y-45754394D01*
X91627259Y-45845606D01*
X91600000Y-45947339D01*
X91600000Y-45953553D01*
X90920524Y-45274077D01*
X90920523Y-45274077D01*
X90888143Y-45318644D01*
X90795244Y-45500968D01*
X90732009Y-45695582D01*
X90700000Y-45897682D01*
X85800500Y-45897682D01*
X85800500Y-45897648D01*
X85785345Y-45801966D01*
X85768477Y-45695465D01*
X85737458Y-45600000D01*
X85705220Y-45500781D01*
X85705218Y-45500778D01*
X85705218Y-45500776D01*
X85612419Y-45318650D01*
X85612287Y-45318390D01*
X85580092Y-45274077D01*
X85491971Y-45152786D01*
X85347213Y-45008028D01*
X85181613Y-44887715D01*
X85181612Y-44887714D01*
X85181610Y-44887713D01*
X85124653Y-44858691D01*
X84999223Y-44794781D01*
X84804534Y-44731522D01*
X84629995Y-44703878D01*
X84602352Y-44699500D01*
X84397648Y-44699500D01*
X84373329Y-44703351D01*
X84195465Y-44731522D01*
X84000776Y-44794781D01*
X83818386Y-44887715D01*
X83652786Y-45008028D01*
X83508028Y-45152786D01*
X83387715Y-45318386D01*
X83294781Y-45500776D01*
X83231522Y-45695465D01*
X83199500Y-45897648D01*
X75715523Y-45897648D01*
X75787153Y-45845606D01*
X75847213Y-45801971D01*
X75847215Y-45801968D01*
X75847219Y-45801966D01*
X75991966Y-45657219D01*
X75991968Y-45657215D01*
X75991971Y-45657213D01*
X76044732Y-45584590D01*
X76112287Y-45491610D01*
X76205220Y-45309219D01*
X76268477Y-45114534D01*
X76300500Y-44912352D01*
X76300500Y-44707648D01*
X76268477Y-44505466D01*
X76205220Y-44310781D01*
X76205218Y-44310778D01*
X76205218Y-44310776D01*
X76171503Y-44244607D01*
X76112287Y-44128390D01*
X76104556Y-44117749D01*
X75991971Y-43962786D01*
X75847213Y-43818028D01*
X75681613Y-43697715D01*
X75681612Y-43697714D01*
X75681610Y-43697713D01*
X75624653Y-43668691D01*
X75499223Y-43604781D01*
X75304534Y-43541522D01*
X75129995Y-43513878D01*
X75102352Y-43509500D01*
X74897648Y-43509500D01*
X74873329Y-43513351D01*
X74695465Y-43541522D01*
X74500776Y-43604781D01*
X74318386Y-43697715D01*
X74152786Y-43818028D01*
X74008028Y-43962786D01*
X73887715Y-44128386D01*
X73794781Y-44310776D01*
X73731522Y-44505465D01*
X73699500Y-44707648D01*
X25500500Y-44707648D01*
X25500500Y-38399983D01*
X61699500Y-38399983D01*
X61699500Y-39600001D01*
X61699501Y-39600018D01*
X61710000Y-39702796D01*
X61710001Y-39702799D01*
X61755145Y-39839033D01*
X61765186Y-39869334D01*
X61857288Y-40018656D01*
X61981344Y-40142712D01*
X62130666Y-40234814D01*
X62192440Y-40255284D01*
X62249884Y-40295055D01*
X62276707Y-40359571D01*
X62277053Y-40382719D01*
X62274077Y-40420524D01*
X62953554Y-41100000D01*
X62947339Y-41100000D01*
X62845606Y-41127259D01*
X62754394Y-41179920D01*
X62679920Y-41254394D01*
X62627259Y-41345606D01*
X62600000Y-41447339D01*
X62600000Y-41453553D01*
X61920524Y-40774077D01*
X61920523Y-40774077D01*
X61888143Y-40818644D01*
X61795244Y-41000968D01*
X61732009Y-41195582D01*
X61700000Y-41397682D01*
X61700000Y-41602317D01*
X61732009Y-41804417D01*
X61795244Y-41999031D01*
X61888141Y-42181350D01*
X61888147Y-42181359D01*
X61920523Y-42225921D01*
X61920524Y-42225922D01*
X62600000Y-41546446D01*
X62600000Y-41552661D01*
X62627259Y-41654394D01*
X62679920Y-41745606D01*
X62754394Y-41820080D01*
X62845606Y-41872741D01*
X62947339Y-41900000D01*
X62953553Y-41900000D01*
X62274076Y-42579474D01*
X62318650Y-42611859D01*
X62500968Y-42704755D01*
X62695582Y-42767990D01*
X62897683Y-42800000D01*
X63102317Y-42800000D01*
X63304417Y-42767990D01*
X63499031Y-42704755D01*
X63681349Y-42611859D01*
X63725921Y-42579474D01*
X63046447Y-41900000D01*
X63052661Y-41900000D01*
X63154394Y-41872741D01*
X63245606Y-41820080D01*
X63320080Y-41745606D01*
X63372741Y-41654394D01*
X63400000Y-41552661D01*
X63400000Y-41546448D01*
X64079474Y-42225922D01*
X64079474Y-42225921D01*
X64111859Y-42181349D01*
X64204755Y-41999031D01*
X64267990Y-41804417D01*
X64300000Y-41602317D01*
X64300000Y-41397682D01*
X64267990Y-41195582D01*
X64204755Y-41000968D01*
X64111859Y-40818650D01*
X64079474Y-40774077D01*
X64079474Y-40774076D01*
X63400000Y-41453551D01*
X63400000Y-41447339D01*
X63372741Y-41345606D01*
X63320080Y-41254394D01*
X63245606Y-41179920D01*
X63154394Y-41127259D01*
X63052661Y-41100000D01*
X63046446Y-41100000D01*
X63725921Y-40420525D01*
X63722946Y-40382719D01*
X63737310Y-40314341D01*
X63786361Y-40264584D01*
X63807555Y-40255285D01*
X63869334Y-40234814D01*
X64018656Y-40142712D01*
X64142712Y-40018656D01*
X64234814Y-39869334D01*
X64289999Y-39702797D01*
X64300500Y-39600009D01*
X64300499Y-38399992D01*
X64289999Y-38297203D01*
X64234814Y-38130666D01*
X64142712Y-37981344D01*
X64018656Y-37857288D01*
X63869334Y-37765186D01*
X63702797Y-37710001D01*
X63702795Y-37710000D01*
X63600010Y-37699500D01*
X62399998Y-37699500D01*
X62399981Y-37699501D01*
X62297203Y-37710000D01*
X62297200Y-37710001D01*
X62130668Y-37765185D01*
X62130663Y-37765187D01*
X61981342Y-37857289D01*
X61857289Y-37981342D01*
X61765187Y-38130663D01*
X61765186Y-38130666D01*
X61710001Y-38297203D01*
X61710001Y-38297204D01*
X61710000Y-38297204D01*
X61699500Y-38399983D01*
X25500500Y-38399983D01*
X25500500Y-37087648D01*
X73699500Y-37087648D01*
X73699500Y-37292351D01*
X73731522Y-37494534D01*
X73794781Y-37689223D01*
X73887715Y-37871613D01*
X74008028Y-38037213D01*
X74152786Y-38181971D01*
X74292391Y-38283398D01*
X74318390Y-38302287D01*
X74434607Y-38361503D01*
X74500776Y-38395218D01*
X74500778Y-38395218D01*
X74500781Y-38395220D01*
X74587741Y-38423475D01*
X74695465Y-38458477D01*
X74796557Y-38474488D01*
X74897648Y-38490500D01*
X74897649Y-38490500D01*
X75102351Y-38490500D01*
X75102352Y-38490500D01*
X75304534Y-38458477D01*
X75499219Y-38395220D01*
X75681610Y-38302287D01*
X75774590Y-38234732D01*
X75847213Y-38181971D01*
X75847215Y-38181968D01*
X75847219Y-38181966D01*
X75991966Y-38037219D01*
X75991968Y-38037215D01*
X75991971Y-38037213D01*
X76044732Y-37964590D01*
X76112287Y-37871610D01*
X76205220Y-37689219D01*
X76268477Y-37494534D01*
X76300500Y-37292352D01*
X76300500Y-37087648D01*
X76268477Y-36885466D01*
X76205220Y-36690781D01*
X76205218Y-36690778D01*
X76205218Y-36690776D01*
X76148732Y-36579917D01*
X76112287Y-36508390D01*
X76031381Y-36397031D01*
X75991971Y-36342786D01*
X75847213Y-36198028D01*
X75681613Y-36077715D01*
X75681612Y-36077714D01*
X75681610Y-36077713D01*
X75624653Y-36048691D01*
X75499223Y-35984781D01*
X75304534Y-35921522D01*
X75129995Y-35893878D01*
X75102352Y-35889500D01*
X74897648Y-35889500D01*
X74873329Y-35893351D01*
X74695465Y-35921522D01*
X74500776Y-35984781D01*
X74318386Y-36077715D01*
X74152786Y-36198028D01*
X74008028Y-36342786D01*
X73887715Y-36508386D01*
X73794781Y-36690776D01*
X73731522Y-36885465D01*
X73699500Y-37087648D01*
X25500500Y-37087648D01*
X25500500Y-35002706D01*
X25500618Y-34997298D01*
X25503377Y-34934108D01*
X25506224Y-34868905D01*
X33000000Y-34868905D01*
X33000000Y-35131094D01*
X33034220Y-35391009D01*
X33034222Y-35391020D01*
X33102075Y-35644255D01*
X33202404Y-35886471D01*
X33202409Y-35886482D01*
X33333488Y-36113516D01*
X33333494Y-36113524D01*
X33420080Y-36226365D01*
X34435387Y-35211058D01*
X34440889Y-35231591D01*
X34519881Y-35368408D01*
X34631592Y-35480119D01*
X34768409Y-35559111D01*
X34788940Y-35564612D01*
X33773633Y-36579917D01*
X33773633Y-36579918D01*
X33886475Y-36666505D01*
X33886483Y-36666511D01*
X34113517Y-36797590D01*
X34113528Y-36797595D01*
X34355744Y-36897924D01*
X34608979Y-36965777D01*
X34608990Y-36965779D01*
X34868905Y-36999999D01*
X34868920Y-37000000D01*
X35131080Y-37000000D01*
X35131094Y-36999999D01*
X35391009Y-36965779D01*
X35391020Y-36965777D01*
X35644255Y-36897924D01*
X35886471Y-36797595D01*
X35886482Y-36797590D01*
X36113516Y-36666511D01*
X36113534Y-36666499D01*
X36226365Y-36579919D01*
X36226365Y-36579917D01*
X35211059Y-35564612D01*
X35231591Y-35559111D01*
X35368408Y-35480119D01*
X35480119Y-35368408D01*
X35559111Y-35231591D01*
X35564612Y-35211059D01*
X36579917Y-36226365D01*
X36579919Y-36226365D01*
X36666499Y-36113534D01*
X36666511Y-36113516D01*
X36797590Y-35886482D01*
X36797595Y-35886471D01*
X36897924Y-35644255D01*
X36965777Y-35391020D01*
X36965779Y-35391009D01*
X36999999Y-35131094D01*
X37000000Y-35131080D01*
X37000000Y-34868912D01*
X36999995Y-34868872D01*
X37999500Y-34868872D01*
X37999500Y-35131127D01*
X38015968Y-35256204D01*
X38033730Y-35391116D01*
X38078583Y-35558511D01*
X38101602Y-35644418D01*
X38101605Y-35644428D01*
X38201953Y-35886690D01*
X38201958Y-35886700D01*
X38333075Y-36113803D01*
X38492718Y-36321851D01*
X38492726Y-36321860D01*
X38678140Y-36507274D01*
X38678148Y-36507281D01*
X38886196Y-36666924D01*
X39113299Y-36798041D01*
X39113309Y-36798046D01*
X39355571Y-36898394D01*
X39355581Y-36898398D01*
X39608884Y-36966270D01*
X39857188Y-36998960D01*
X39868864Y-37000498D01*
X39868880Y-37000500D01*
X39868887Y-37000500D01*
X40131113Y-37000500D01*
X40131120Y-37000500D01*
X40391116Y-36966270D01*
X40644419Y-36898398D01*
X40886697Y-36798043D01*
X41113803Y-36666924D01*
X41321851Y-36507282D01*
X41321855Y-36507277D01*
X41321860Y-36507274D01*
X41507274Y-36321860D01*
X41507277Y-36321855D01*
X41507282Y-36321851D01*
X41666924Y-36113803D01*
X41798043Y-35886697D01*
X41898398Y-35644419D01*
X41966270Y-35391116D01*
X42000500Y-35131120D01*
X42000500Y-34868880D01*
X41966270Y-34608884D01*
X41898398Y-34355581D01*
X41839500Y-34213389D01*
X41798046Y-34113309D01*
X41798041Y-34113299D01*
X41666924Y-33886196D01*
X41507281Y-33678148D01*
X41507274Y-33678140D01*
X41321860Y-33492726D01*
X41321851Y-33492718D01*
X41268963Y-33452135D01*
X42999500Y-33452135D01*
X42999500Y-36547870D01*
X42999501Y-36547876D01*
X43005908Y-36607483D01*
X43056202Y-36742328D01*
X43056206Y-36742335D01*
X43142452Y-36857544D01*
X43142455Y-36857547D01*
X43257664Y-36943793D01*
X43257671Y-36943797D01*
X43392517Y-36994091D01*
X43392516Y-36994091D01*
X43399444Y-36994835D01*
X43452127Y-37000500D01*
X46547872Y-37000499D01*
X46607483Y-36994091D01*
X46681207Y-36966594D01*
X46742328Y-36943797D01*
X46742327Y-36943797D01*
X46742331Y-36943796D01*
X46857546Y-36857546D01*
X46943796Y-36742331D01*
X46994091Y-36607483D01*
X47000500Y-36547873D01*
X47000499Y-35652135D01*
X97849500Y-35652135D01*
X97849500Y-42347870D01*
X97849501Y-42347876D01*
X97855908Y-42407483D01*
X97906202Y-42542328D01*
X97906206Y-42542335D01*
X97992452Y-42657544D01*
X97992455Y-42657547D01*
X98107664Y-42743793D01*
X98107671Y-42743797D01*
X98242517Y-42794091D01*
X98242516Y-42794091D01*
X98249444Y-42794835D01*
X98302127Y-42800500D01*
X101697872Y-42800499D01*
X101757483Y-42794091D01*
X101892331Y-42743796D01*
X102007546Y-42657546D01*
X102093796Y-42542331D01*
X102144091Y-42407483D01*
X102150500Y-42347873D01*
X102150499Y-37209088D01*
X107850000Y-37209088D01*
X107850000Y-38750000D01*
X108925885Y-38750000D01*
X108900000Y-38913428D01*
X108900000Y-39086572D01*
X108925885Y-39250000D01*
X107850000Y-39250000D01*
X107850000Y-40790911D01*
X107850001Y-40790928D01*
X107886786Y-41070340D01*
X107959733Y-41342582D01*
X108067584Y-41602957D01*
X108067589Y-41602968D01*
X108208500Y-41847031D01*
X108208511Y-41847047D01*
X108380074Y-42070633D01*
X108380080Y-42070640D01*
X108579359Y-42269919D01*
X108579366Y-42269925D01*
X108802952Y-42441488D01*
X108802968Y-42441499D01*
X109047031Y-42582410D01*
X109047042Y-42582415D01*
X109307417Y-42690266D01*
X109579659Y-42763213D01*
X109750000Y-42785639D01*
X109750000Y-40074115D01*
X109913428Y-40100000D01*
X110086572Y-40100000D01*
X110250000Y-40074115D01*
X110250000Y-42785638D01*
X110420340Y-42763213D01*
X110692582Y-42690266D01*
X110952957Y-42582415D01*
X110952968Y-42582410D01*
X111197031Y-42441499D01*
X111197047Y-42441488D01*
X111420633Y-42269925D01*
X111420640Y-42269919D01*
X111619919Y-42070640D01*
X111619925Y-42070633D01*
X111791488Y-41847047D01*
X111791499Y-41847031D01*
X111932410Y-41602968D01*
X111932415Y-41602957D01*
X112040266Y-41342582D01*
X112113213Y-41070340D01*
X112149998Y-40790928D01*
X112150000Y-40790911D01*
X112150000Y-39250000D01*
X111074115Y-39250000D01*
X111100000Y-39086572D01*
X111100000Y-38913428D01*
X111074115Y-38750000D01*
X112150000Y-38750000D01*
X112150000Y-37209088D01*
X112149998Y-37209071D01*
X112113213Y-36929659D01*
X112040266Y-36657417D01*
X111932415Y-36397042D01*
X111932410Y-36397031D01*
X111791499Y-36152968D01*
X111791488Y-36152952D01*
X111619925Y-35929366D01*
X111619919Y-35929359D01*
X111420640Y-35730080D01*
X111420633Y-35730074D01*
X111197047Y-35558511D01*
X111197031Y-35558500D01*
X110952968Y-35417589D01*
X110952957Y-35417584D01*
X110692582Y-35309733D01*
X110420340Y-35236786D01*
X110250000Y-35214359D01*
X110250000Y-37925884D01*
X110086572Y-37900000D01*
X109913428Y-37900000D01*
X109750000Y-37925884D01*
X109750000Y-35214359D01*
X109749999Y-35214359D01*
X109579659Y-35236786D01*
X109307417Y-35309733D01*
X109047042Y-35417584D01*
X109047031Y-35417589D01*
X108802968Y-35558500D01*
X108802952Y-35558511D01*
X108579366Y-35730074D01*
X108579359Y-35730080D01*
X108380080Y-35929359D01*
X108380074Y-35929366D01*
X108208511Y-36152952D01*
X108208500Y-36152968D01*
X108067589Y-36397031D01*
X108067584Y-36397042D01*
X107959733Y-36657417D01*
X107886786Y-36929659D01*
X107850001Y-37209071D01*
X107850000Y-37209088D01*
X102150499Y-37209088D01*
X102150499Y-35652128D01*
X102144091Y-35592517D01*
X102131631Y-35559111D01*
X102093797Y-35457671D01*
X102093793Y-35457664D01*
X102007547Y-35342455D01*
X102007544Y-35342452D01*
X101892335Y-35256206D01*
X101892328Y-35256202D01*
X101757482Y-35205908D01*
X101757483Y-35205908D01*
X101697883Y-35199501D01*
X101697881Y-35199500D01*
X101697873Y-35199500D01*
X101697864Y-35199500D01*
X98302129Y-35199500D01*
X98302123Y-35199501D01*
X98242516Y-35205908D01*
X98107671Y-35256202D01*
X98107664Y-35256206D01*
X97992455Y-35342452D01*
X97992452Y-35342455D01*
X97906206Y-35457664D01*
X97906202Y-35457671D01*
X97855908Y-35592517D01*
X97849857Y-35648806D01*
X97849501Y-35652123D01*
X97849500Y-35652135D01*
X47000499Y-35652135D01*
X47000499Y-35000000D01*
X47000499Y-33452129D01*
X47000498Y-33452123D01*
X47000497Y-33452116D01*
X46994091Y-33392517D01*
X46943796Y-33257669D01*
X46943795Y-33257668D01*
X46943793Y-33257664D01*
X46857547Y-33142455D01*
X46857544Y-33142452D01*
X46742335Y-33056206D01*
X46742328Y-33056202D01*
X46607482Y-33005908D01*
X46607483Y-33005908D01*
X46547883Y-32999501D01*
X46547881Y-32999500D01*
X46547873Y-32999500D01*
X46547864Y-32999500D01*
X43452129Y-32999500D01*
X43452123Y-32999501D01*
X43392516Y-33005908D01*
X43257671Y-33056202D01*
X43257664Y-33056206D01*
X43142455Y-33142452D01*
X43142452Y-33142455D01*
X43056206Y-33257664D01*
X43056202Y-33257671D01*
X43005908Y-33392517D01*
X42999501Y-33452116D01*
X42999501Y-33452123D01*
X42999500Y-33452135D01*
X41268963Y-33452135D01*
X41113803Y-33333075D01*
X40886700Y-33201958D01*
X40886690Y-33201953D01*
X40644428Y-33101605D01*
X40644421Y-33101603D01*
X40644419Y-33101602D01*
X40391116Y-33033730D01*
X40333339Y-33026123D01*
X40131127Y-32999500D01*
X40131120Y-32999500D01*
X39868880Y-32999500D01*
X39868872Y-32999500D01*
X39637772Y-33029926D01*
X39608884Y-33033730D01*
X39385359Y-33093623D01*
X39355581Y-33101602D01*
X39355571Y-33101605D01*
X39113309Y-33201953D01*
X39113299Y-33201958D01*
X38886196Y-33333075D01*
X38678148Y-33492718D01*
X38492718Y-33678148D01*
X38333075Y-33886196D01*
X38201958Y-34113299D01*
X38201953Y-34113309D01*
X38101605Y-34355571D01*
X38101602Y-34355581D01*
X38033730Y-34608884D01*
X38033716Y-34608990D01*
X37999500Y-34868872D01*
X36999995Y-34868872D01*
X36965779Y-34608990D01*
X36965777Y-34608979D01*
X36897924Y-34355744D01*
X36797595Y-34113528D01*
X36797590Y-34113517D01*
X36666511Y-33886483D01*
X36666505Y-33886475D01*
X36579918Y-33773633D01*
X36579917Y-33773633D01*
X35564612Y-34788939D01*
X35559111Y-34768409D01*
X35480119Y-34631592D01*
X35368408Y-34519881D01*
X35231591Y-34440889D01*
X35211057Y-34435387D01*
X36226365Y-33420080D01*
X36113524Y-33333494D01*
X36113516Y-33333488D01*
X35886482Y-33202409D01*
X35886471Y-33202404D01*
X35644255Y-33102075D01*
X35391020Y-33034222D01*
X35391009Y-33034220D01*
X35131094Y-33000000D01*
X34868905Y-33000000D01*
X34608990Y-33034220D01*
X34608979Y-33034222D01*
X34355744Y-33102075D01*
X34113528Y-33202404D01*
X34113517Y-33202409D01*
X33886471Y-33333496D01*
X33773633Y-33420079D01*
X33773633Y-33420080D01*
X34788940Y-34435387D01*
X34768409Y-34440889D01*
X34631592Y-34519881D01*
X34519881Y-34631592D01*
X34440889Y-34768409D01*
X34435387Y-34788940D01*
X33420080Y-33773633D01*
X33420079Y-33773633D01*
X33333496Y-33886471D01*
X33202409Y-34113517D01*
X33202404Y-34113528D01*
X33102075Y-34355744D01*
X33034222Y-34608979D01*
X33034220Y-34608990D01*
X33000000Y-34868905D01*
X25506224Y-34868905D01*
X25517386Y-34613226D01*
X25518326Y-34602495D01*
X25568152Y-34224025D01*
X25570025Y-34213405D01*
X25652649Y-33840709D01*
X25655440Y-33830295D01*
X25770230Y-33466227D01*
X25773917Y-33456095D01*
X25920003Y-33103412D01*
X25924561Y-33093638D01*
X26100822Y-32755045D01*
X26106217Y-32745700D01*
X26311325Y-32423744D01*
X26317515Y-32414905D01*
X26549896Y-32112060D01*
X26556834Y-32103791D01*
X26814726Y-31822352D01*
X26822352Y-31814726D01*
X27103791Y-31556834D01*
X27112060Y-31549896D01*
X27414905Y-31317515D01*
X27423744Y-31311325D01*
X27745700Y-31106217D01*
X27755045Y-31100822D01*
X28093638Y-30924561D01*
X28103412Y-30920003D01*
X28456095Y-30773917D01*
X28466227Y-30770230D01*
X28830295Y-30655440D01*
X28840709Y-30652649D01*
X29213405Y-30570025D01*
X29224025Y-30568152D01*
X29602495Y-30518326D01*
X29613226Y-30517386D01*
X29997297Y-30500617D01*
X30002706Y-30500500D01*
X30065892Y-30500500D01*
X119934108Y-30500500D01*
X119997294Y-30500500D01*
X120002702Y-30500617D01*
G37*
%TD.AperFunction*%
%TD*%
M02*
