%TF.GenerationSoftware,KiCad,Pcbnew,9.0.2*%
%TF.CreationDate,2025-06-20T12:04:21-04:00*%
%TF.ProjectId,Block,426c6f63-6b2e-46b6-9963-61645f706362,rev?*%
%TF.SameCoordinates,Original*%
%TF.FileFunction,Soldermask,Bot*%
%TF.FilePolarity,Negative*%
%FSLAX46Y46*%
G04 Gerber Fmt 4.6, Leading zero omitted, Abs format (unit mm)*
G04 Created by KiCad (PCBNEW 9.0.2) date 2025-06-20 12:04:21*
%MOMM*%
%LPD*%
G01*
G04 APERTURE LIST*
G04 Aperture macros list*
%AMRoundRect*
0 Rectangle with rounded corners*
0 $1 Rounding radius*
0 $2 $3 $4 $5 $6 $7 $8 $9 X,Y pos of 4 corners*
0 Add a 4 corners polygon primitive as box body*
4,1,4,$2,$3,$4,$5,$6,$7,$8,$9,$2,$3,0*
0 Add four circle primitives for the rounded corners*
1,1,$1+$1,$2,$3*
1,1,$1+$1,$4,$5*
1,1,$1+$1,$6,$7*
1,1,$1+$1,$8,$9*
0 Add four rect primitives between the rounded corners*
20,1,$1+$1,$2,$3,$4,$5,0*
20,1,$1+$1,$4,$5,$6,$7,0*
20,1,$1+$1,$6,$7,$8,$9,0*
20,1,$1+$1,$8,$9,$2,$3,0*%
G04 Aperture macros list end*
%ADD10R,3.000000X3.000000*%
%ADD11C,3.000000*%
%ADD12C,1.600000*%
%ADD13R,1.730000X2.030000*%
%ADD14O,1.730000X2.030000*%
%ADD15RoundRect,0.250000X0.550000X-0.550000X0.550000X0.550000X-0.550000X0.550000X-0.550000X-0.550000X0*%
%ADD16RoundRect,0.250000X-0.950000X-0.550000X0.950000X-0.550000X0.950000X0.550000X-0.950000X0.550000X0*%
%ADD17O,2.400000X1.600000*%
%ADD18R,1.800000X1.800000*%
%ADD19C,1.800000*%
%ADD20RoundRect,0.250000X-0.550000X0.550000X-0.550000X-0.550000X0.550000X-0.550000X0.550000X0.550000X0*%
%ADD21C,1.500000*%
%ADD22R,3.300000X6.600000*%
%ADD23O,3.300000X6.600000*%
G04 APERTURE END LIST*
D10*
%TO.C,RV1*%
X45000000Y-35000000D03*
D11*
X40000000Y-35000000D03*
X35000000Y-35000000D03*
%TD*%
D12*
%TO.C,C2*%
X84500000Y-46000000D03*
X92000000Y-46000000D03*
%TD*%
%TO.C,R6*%
X62810000Y-56000000D03*
X55190000Y-56000000D03*
%TD*%
%TO.C,R5*%
X43000000Y-70000000D03*
X43000000Y-77620000D03*
%TD*%
D13*
%TO.C,J1*%
X77450000Y-75625000D03*
D14*
X79990000Y-75625000D03*
X82530000Y-75625000D03*
%TD*%
D12*
%TO.C,R7*%
X75000000Y-37190000D03*
X75000000Y-44810000D03*
%TD*%
D15*
%TO.C,U1*%
X76190000Y-57805000D03*
D12*
X78730000Y-57805000D03*
X81270000Y-57805000D03*
X83810000Y-57805000D03*
X83810000Y-50185000D03*
X81270000Y-50185000D03*
X78730000Y-50185000D03*
X76190000Y-50185000D03*
%TD*%
%TO.C,R3*%
X37000000Y-70190000D03*
X37000000Y-77810000D03*
%TD*%
D16*
%TO.C,U2*%
X39380000Y-49460000D03*
D17*
X39380000Y-52000000D03*
X39380000Y-54540000D03*
X39380000Y-57080000D03*
X39380000Y-59620000D03*
X39380000Y-62160000D03*
X39380000Y-64700000D03*
X47000000Y-64700000D03*
X47000000Y-62160000D03*
X47000000Y-59620000D03*
X47000000Y-57080000D03*
X47000000Y-54540000D03*
X47000000Y-52000000D03*
X47000000Y-49460000D03*
%TD*%
D18*
%TO.C,D1*%
X60000000Y-62000000D03*
D19*
X57460000Y-62000000D03*
%TD*%
D12*
%TO.C,R2*%
X31000000Y-70380000D03*
X31000000Y-78000000D03*
%TD*%
D20*
%TO.C,C1*%
X63000000Y-39000000D03*
D12*
X63000000Y-41500000D03*
%TD*%
%TO.C,R4*%
X49000000Y-70190000D03*
X49000000Y-77810000D03*
%TD*%
D21*
%TO.C,R1*%
X29300000Y-62000000D03*
X32700000Y-62000000D03*
%TD*%
D22*
%TO.C,J2*%
X100000000Y-39000000D03*
D23*
X110000000Y-39000000D03*
%TD*%
M02*
