M48
; DRILL file {KiCad 9.0.1} date 2025-06-25T16:15:08-0400
; FORMAT={-:-/ absolute / metric / decimal}
; #@! TF.CreationDate,2025-06-25T16:15:08-04:00
; #@! TF.GenerationSoftware,Kicad,Pcbnew,9.0.1
; #@! TF.FileFunction,Plated,1,2,PTH
FMAT,2
METRIC
; #@! TA.AperFunction,Plated,PTH,ComponentDrill
T1C0.800
; #@! TA.AperFunction,Plated,PTH,ComponentDrill
T2C0.900
; #@! TA.AperFunction,Plated,PTH,ComponentDrill
T3C1.000
; #@! TA.AperFunction,Plated,PTH,ComponentDrill
T4C1.300
%
G90
G05
T1
X66.497Y-59.899
X66.497Y-64.07
X66.497Y-67.666
X66.497Y-71.666
X67.454Y-77.279
X67.454Y-84.899
X69.994Y-77.279
X69.994Y-84.899
X72.534Y-77.279
X72.534Y-84.899
X75.074Y-77.279
X75.074Y-84.899
X76.657Y-59.899
X76.657Y-64.07
X76.657Y-67.666
X76.657Y-71.666
X84.504Y-76.899
X84.954Y-82.032
X87.454Y-82.032
X89.504Y-76.899
X93.162Y-56.486
X93.162Y-64.106
X95.702Y-56.486
X95.702Y-64.106
X98.242Y-56.486
X98.242Y-64.106
X100.782Y-56.486
X100.782Y-64.106
X103.322Y-56.486
X103.322Y-64.106
X105.862Y-56.486
X105.862Y-64.106
X108.402Y-56.486
X108.402Y-64.106
X110.942Y-56.486
X110.942Y-64.106
X122.454Y-76.66
X122.454Y-80.399
X122.454Y-83.899
X132.614Y-76.66
X132.614Y-80.399
X132.614Y-83.899
T2
X57.259Y-84.359
X57.259Y-94.519
X82.454Y-59.979
X82.454Y-70.139
X87.454Y-59.819
X87.454Y-69.979
X120.395Y-57.737
X120.542Y-61.617
X121.018Y-65.67
X121.159Y-69.666
X130.555Y-57.737
X130.702Y-61.617
X131.178Y-65.67
X131.319Y-69.666
X134.914Y-58.899
X137.454Y-58.899
T3
X147.954Y-83.739
X147.954Y-86.279
X147.954Y-88.819
X147.954Y-91.359
X147.954Y-93.899
T4
X59.333Y-64.694
X59.333Y-69.694
X97.074Y-75.93
X102.074Y-75.93
X107.074Y-75.93
X145.64Y-63.552
X145.64Y-68.552
M30
